<svg xmlns="http://www.w3.org/2000/svg" viewBox="0 0 320 180" role="img" aria-label="Aircraft tail-number search illustration">
  <defs>
    <linearGradient id="aircraft-bg" x1="0" y1="0" x2="1" y2="1">
      <stop offset="0" stop-color="#eef4ff"/>
      <stop offset="1" stop-color="#c7dbf1"/>
    </linearGradient>
    <linearGradient id="aircraft-panel" x1="0" y1="0" x2="1" y2="1">
      <stop offset="0" stop-color="#1f4570"/>
      <stop offset="1" stop-color="#325f90"/>
    </linearGradient>
  </defs>
  <rect width="320" height="180" rx="20" fill="url(#aircraft-bg)"/>
  <circle cx="50" cy="26" r="66" fill="#ffffff" fill-opacity="0.4"/>
  <circle cx="284" cy="38" r="18" fill="#ffffff" fill-opacity="0.55"/>
  <circle cx="298" cy="38" r="12" fill="#ffffff" fill-opacity="0.62"/>

  <rect x="42" y="42" width="236" height="96" rx="22" fill="#fbfdff" stroke="#d7e3f0"/>
  <rect x="56" y="56" width="126" height="20" rx="10" fill="url(#aircraft-panel)"/>
  <circle cx="72" cy="66" r="6" fill="none" stroke="#eef5fd" stroke-width="3"/>
  <path d="M76 70l6 6" stroke="#eef5fd" stroke-width="3" stroke-linecap="round"/>
  <rect x="94" y="62" width="58" height="8" rx="4" fill="#eef5fd" fill-opacity="0.84"/>

  <rect x="56" y="88" width="62" height="30" rx="15" fill="#2a5b90"/>
  <path d="M72 103h30" stroke="#f7fbff" stroke-width="4" stroke-linecap="round"/>
  <rect x="132" y="90" width="56" height="8" rx="4" fill="#2a5b90" fill-opacity="0.18"/>
  <rect x="132" y="104" width="82" height="8" rx="4" fill="#2a5b90" fill-opacity="0.14"/>
  <rect x="132" y="118" width="68" height="8" rx="4" fill="#2a5b90" fill-opacity="0.14"/>

  <rect x="216" y="54" width="46" height="72" rx="14" fill="url(#aircraft-panel)"/>
  <rect x="228" y="68" width="22" height="8" rx="4" fill="#9cc8ef"/>
  <rect x="228" y="84" width="18" height="8" rx="4" fill="#eef5fd" fill-opacity="0.74"/>
  <rect x="228" y="100" width="14" height="8" rx="4" fill="#eef5fd" fill-opacity="0.46"/>
</svg>
