<svg xmlns="http://www.w3.org/2000/svg" viewBox="0 0 320 180" role="img" aria-label="Converter webapp illustration">
  <defs>
    <linearGradient id="co-bg" x1="0" y1="0" x2="1" y2="1">
      <stop offset="0" stop-color="#17365a"/>
      <stop offset="1" stop-color="#2b6da4"/>
    </linearGradient>
    <linearGradient id="cv-icon-bg" x1="0" y1="0" x2="1" y2="1">
      <stop offset="0%" stop-color="#1f3f63"/>
      <stop offset="100%" stop-color="#2f6f9f"/>
    </linearGradient>
    <marker id="cv-arrow-head-light" viewBox="0 0 8 8" refX="0" refY="4" markerWidth="8" markerHeight="8" orient="auto" markerUnits="userSpaceOnUse">
      <path d="M0 1 L0 7 L7 4 Z" fill="#e8f4ff"/>
    </marker>
    <marker id="cv-arrow-head-accent" viewBox="0 0 8 8" refX="0" refY="4" markerWidth="8" markerHeight="8" orient="auto" markerUnits="userSpaceOnUse">
      <path d="M0 1 L0 7 L7 4 Z" fill="#9dd8ff"/>
    </marker>
  </defs>
  <rect width="320" height="180" rx="20" fill="url(#co-bg)"/>
  <circle cx="54" cy="24" r="62" fill="#ffffff" fill-opacity="0.09"/>
  <circle cx="288" cy="156" r="74" fill="#95bde5" fill-opacity="0.1"/>
  <g transform="translate(120 52) scale(1.25)">
    <rect x="4" y="4" width="56" height="56" rx="12" fill="url(#cv-icon-bg)"/>
    <circle cx="32" cy="32" r="18" fill="none" stroke="#e8f4ff" stroke-width="4" stroke-linecap="round" opacity="0.36"/>
    <path d="M24.22 24.22 A11 11 0 0 1 39.78 24.22" fill="none" stroke="#e8f4ff" stroke-width="4" stroke-linecap="round" marker-end="url(#cv-arrow-head-light)"/>
    <path d="M39.78 39.78 A11 11 0 0 1 24.22 39.78" fill="none" stroke="#9dd8ff" stroke-width="4" stroke-linecap="round" marker-end="url(#cv-arrow-head-accent)"/>
  </g>
  <text x="160" y="160" text-anchor="middle" font-size="15" font-family="Segoe UI, Arial, sans-serif" fill="#e8f3ff">Converter</text>
</svg>
