<svg xmlns="http://www.w3.org/2000/svg" viewBox="0 0 320 180" role="img" aria-label="SRM Monitor webapp illustration">
  <defs>
    <linearGradient id="sm-bg" x1="0" y1="0" x2="1" y2="1">
      <stop offset="0" stop-color="#1a3a61"/>
      <stop offset="1" stop-color="#2d6d9d"/>
    </linearGradient>
    <linearGradient id="sm-icon-bg" x1="0" y1="0" x2="1" y2="1">
      <stop offset="0%" stop-color="#1f3f63"/>
      <stop offset="100%" stop-color="#2f6f9f"/>
    </linearGradient>
  </defs>
  <rect width="320" height="180" rx="20" fill="url(#sm-bg)"/>
  <circle cx="50" cy="26" r="58" fill="#ffffff" fill-opacity="0.08"/>
  <circle cx="286" cy="156" r="72" fill="#95bde4" fill-opacity="0.1"/>
  <g transform="translate(120 52) scale(1.25)">
    <rect x="4" y="4" width="56" height="56" rx="12" fill="url(#sm-icon-bg)"/>
    <path d="M32 16l16 11v16.5A5.5 5.5 0 0 1 42.5 49h-21A5.5 5.5 0 0 1 16 43.5V27z" fill="#f4f9ff" stroke="#d6e6f6" stroke-width="1.5"/>
    <rect x="28.3" y="31" width="7.4" height="13" rx="3.2" fill="#e1eefb" stroke="#b8d1e9" stroke-width="1"/>
    <rect x="21" y="32" width="6" height="11" rx="3" fill="#ebf5ff"/>
    <path d="M24 41.8a3 3 0 0 0 3-3v-3.9a3 3 0 1 0-6 0v3.9a3 3 0 0 0 3 3z" fill="#4fb1ff"/>
    <path d="M40.3 42.2c2.5 0 4.5-1.9 4.5-4.3 0-3.4-4.5-7.9-4.5-7.9s-4.5 4.5-4.5 7.9c0 2.4 2 4.3 4.5 4.3z" fill="#22b98a"/>
    <rect x="20" y="22" width="24" height="3.6" rx="1.8" fill="#e2effb"/>
    <polyline points="21.4,24.1 25.5,23 29.2,24 33,22.6 36.8,23.6 41.2,22.4" fill="none" stroke="#4fb1ff" stroke-width="1.6" stroke-linecap="round" stroke-linejoin="round"/>
  </g>
  <text x="160" y="160" text-anchor="middle" font-size="14" font-family="Segoe UI, Arial, sans-serif" fill="#e8f3ff">SRM Monitor</text>
</svg>
