<svg xmlns="http://www.w3.org/2000/svg" viewBox="0 0 320 180" role="img" aria-label="Transcoder webapp illustration">
  <defs>
    <linearGradient id="t-bg" x1="0" y1="0" x2="1" y2="1">
      <stop offset="0" stop-color="#163558"/>
      <stop offset="1" stop-color="#2a6799"/>
    </linearGradient>
  </defs>
  <rect width="320" height="180" rx="20" fill="url(#t-bg)"/>
  <circle cx="52" cy="26" r="60" fill="#ffffff" fill-opacity="0.08"/>
  <circle cx="286" cy="156" r="74" fill="#93bbe4" fill-opacity="0.1"/>
  <rect x="124" y="64" width="72" height="48" rx="8" fill="#e8f3ff" stroke="#bfd8ef" stroke-width="2"/>
  <polygon points="150,80 176,96 150,112" fill="#2f6f9f"/>
  <path d="M122 122h30l-7-7a2.5 2.5 0 0 1 3.5-3.5l13 13a2.5 2.5 0 0 1 0 3.5l-13 13a2.5 2.5 0 1 1-3.5-3.5l7-7h-30a2.5 2.5 0 0 1 0-5z" fill="#2f9a60"/>
  <path d="M198 122h-30l7 7a2.5 2.5 0 1 1-3.5 3.5l-13-13a2.5 2.5 0 0 1 0-3.5l13-13a2.5 2.5 0 0 1 3.5 3.5l-7 7h30a2.5 2.5 0 0 1 0 5z" fill="#4fa8e2"/>
  <text x="160" y="160" text-anchor="middle" font-size="15" font-family="Segoe UI, Arial, sans-serif" fill="#e8f3ff">Transcoder</text>
</svg>
