<svg xmlns="http://www.w3.org/2000/svg" viewBox="0 0 64 64" role="img" aria-labelledby="transcoderIconTitle transcoderIconDesc">
  <title id="transcoderIconTitle">Transcoder web app icon</title>
  <desc id="transcoderIconDesc">A clean transcoder symbol with a video file and exchange arrows on a feeds-style blue gradient background.</desc>
  <defs>
    <linearGradient id="transcoderBg" x1="0" y1="0" x2="1" y2="1">
      <stop offset="0%" stop-color="#1f3f63" />
      <stop offset="100%" stop-color="#2f6f9f" />
    </linearGradient>
  </defs>

  <rect x="4" y="4" width="56" height="56" rx="12" fill="url(#transcoderBg)" />

  <path d="M25 19.5h11.5l4.5 4.6V40a3 3 0 0 1-3 3H25a3 3 0 0 1-3-3V22.5a3 3 0 0 1 3-3z" fill="#e8f4ff" />
  <path d="M27.8 27.3l6.8 4.7-6.8 4.7z" fill="#2f6f9f" />
  <rect x="22.65" y="24.95" width="2.3" height="2.3" fill="#102133" opacity="0.9" />
  <rect x="22.65" y="30.75" width="2.3" height="2.3" fill="#102133" opacity="0.9" />
  <rect x="22.65" y="36.55" width="2.3" height="2.3" fill="#102133" opacity="0.9" />
  <rect x="38.05" y="24.95" width="2.3" height="2.3" fill="#102133" opacity="0.9" />
  <rect x="38.05" y="30.75" width="2.3" height="2.3" fill="#102133" opacity="0.9" />
  <rect x="38.05" y="36.55" width="2.3" height="2.3" fill="#102133" opacity="0.9" />

  <path d="M18.5 24.5h17.2" fill="none" stroke="#9dd8ff" stroke-width="3.8" stroke-linecap="round" />
  <path d="M32.2 21.1l5 3.4-5 3.4" fill="none" stroke="#9dd8ff" stroke-width="2.6" stroke-linecap="round" stroke-linejoin="round" />

  <path d="M45.5 39.5H28.3" fill="none" stroke="#22b98a" stroke-width="3.8" stroke-linecap="round" />
  <path d="M31.8 42.9l-5-3.4 5-3.4" fill="none" stroke="#22b98a" stroke-width="2.6" stroke-linecap="round" stroke-linejoin="round" />
</svg>