<svg xmlns="http://www.w3.org/2000/svg" viewBox="0 0 512 512" role="img" aria-label="Transcoder maskable icon">
  <defs>
    <linearGradient id="transcoderMaskBg" x1="0" y1="0" x2="1" y2="1">
      <stop offset="0%" stop-color="#1f3f63" />
      <stop offset="100%" stop-color="#2f6f9f" />
    </linearGradient>
  </defs>

  <rect width="512" height="512" fill="url(#transcoderMaskBg)" />

  <path d="M200 156h92l36 38v126a24 24 0 0 1-24 24H200a24 24 0 0 1-24-24V180a24 24 0 0 1 24-24z" fill="#e8f4ff" />
  <path d="M222 218l58 38-58 38z" fill="#2f6f9f" />
  <rect x="181" y="200" width="18" height="18" fill="#102133" opacity="0.9" />
  <rect x="181" y="247" width="18" height="18" fill="#102133" opacity="0.9" />
  <rect x="181" y="294" width="18" height="18" fill="#102133" opacity="0.9" />
  <rect x="305" y="200" width="18" height="18" fill="#102133" opacity="0.9" />
  <rect x="305" y="247" width="18" height="18" fill="#102133" opacity="0.9" />
  <rect x="305" y="294" width="18" height="18" fill="#102133" opacity="0.9" />

  <path d="M148 196h138" fill="none" stroke="#9dd8ff" stroke-width="28" stroke-linecap="round" />
  <path d="M258 171l40 25-40 25" fill="none" stroke="#9dd8ff" stroke-width="18" stroke-linecap="round" stroke-linejoin="round" />

  <path d="M364 316H226" fill="none" stroke="#22b98a" stroke-width="28" stroke-linecap="round" />
  <path d="M254 341l-40-25 40-25" fill="none" stroke="#22b98a" stroke-width="18" stroke-linecap="round" stroke-linejoin="round" />
</svg>