<svg xmlns="http://www.w3.org/2000/svg" viewBox="0 0 512 512" role="img" aria-label="Monitor icon">
  <defs>
    <linearGradient id="bg" x1="0" y1="0" x2="1" y2="1">
      <stop offset="0%" stop-color="#dff3f2"/>
      <stop offset="100%" stop-color="#d8e8fb"/>
    </linearGradient>
    <linearGradient id="panel" x1="0" y1="0" x2="0" y2="1">
      <stop offset="0%" stop-color="#ffffff" stop-opacity="0.98"/>
      <stop offset="100%" stop-color="#f2f9fe"/>
    </linearGradient>
  </defs>

  <rect x="24" y="24" width="464" height="464" rx="110" fill="url(#bg)"/>

  <path d="M124 240v126c0 17 13 30 30 30h204c17 0 30-13 30-30V240L256 132 124 240z" fill="url(#panel)" stroke="#8ec7da" stroke-width="10"/>
  <rect x="224" y="276" width="64" height="120" rx="18" fill="#e6f4fc" stroke="#9ecde1" stroke-width="8"/>

  <rect x="158" y="276" width="54" height="96" rx="16" fill="#eaf6fd"/>
  <path d="M184 360a22 22 0 0 0 22-22v-34a22 22 0 1 0-44 0v34a22 22 0 0 0 22 22z" fill="#2b8fce"/>

  <path d="M330 362c18 0 33-14 33-32 0-26-33-60-33-60s-33 34-33 60c0 18 15 32 33 32z" fill="#3ac1a7"/>

  <rect x="144" y="184" width="224" height="34" rx="14" fill="#edf7ff"/>
  <polyline points="154,206 196,198 230,203 270,191 312,198 350,190" fill="none" stroke="#1497cf" stroke-width="8" stroke-linecap="round" stroke-linejoin="round"/>
</svg>
