<svg xmlns="http://www.w3.org/2000/svg" viewBox="0 0 512 512" role="img" aria-label="Monitor maskable icon">
  <defs>
    <linearGradient id="bgm" x1="0" y1="0" x2="1" y2="1">
      <stop offset="0%" stop-color="#dff3f2"/>
      <stop offset="100%" stop-color="#d8e8fb"/>
    </linearGradient>
    <linearGradient id="card" x1="0" y1="0" x2="0" y2="1">
      <stop offset="0%" stop-color="#ffffff"/>
      <stop offset="100%" stop-color="#edf7ff"/>
    </linearGradient>
  </defs>

  <rect width="512" height="512" fill="url(#bgm)"/>

  <path d="M132 238v130c0 17 13 30 30 30h188c17 0 30-13 30-30V238L256 142 132 238z" fill="url(#card)" stroke="#81bfd7" stroke-width="10"/>
  <rect x="226" y="282" width="60" height="116" rx="18" fill="#e4f3fd" stroke="#97c8dd" stroke-width="8"/>

  <path d="M182 356a20 20 0 0 0 20-20v-30a20 20 0 1 0-40 0v30a20 20 0 0 0 20 20z" fill="#2c8fcf"/>
  <path d="M330 358c17 0 30-13 30-29 0-24-30-56-30-56s-30 32-30 56c0 16 13 29 30 29z" fill="#37bea3"/>

  <polyline points="164,208 198,201 232,205 272,194 306,200 344,192" fill="none" stroke="#1196cf" stroke-width="8" stroke-linecap="round" stroke-linejoin="round"/>
</svg>
