<svg xmlns="http://www.w3.org/2000/svg" viewBox="0 0 64 64" role="img" aria-labelledby="monitorIconTitle monitorIconDesc">
  <title id="monitorIconTitle">Monitor web app icon</title>
  <desc id="monitorIconDesc">A clean house monitoring symbol with temperature and humidity marks on a feeds-style blue gradient background.</desc>
  <defs>
    <linearGradient id="monitorBg" x1="0" y1="0" x2="1" y2="1">
      <stop offset="0%" stop-color="#1f3f63" />
      <stop offset="100%" stop-color="#2f6f9f" />
    </linearGradient>
  </defs>

  <rect x="4" y="4" width="56" height="56" rx="12" fill="url(#monitorBg)" />

  <path d="M19 29.5L32 19l13 10.5v11.8A4.7 4.7 0 0 1 40.3 46H23.7a4.7 4.7 0 0 1-4.7-4.7z" fill="none" stroke="#e8f4ff" stroke-width="4" stroke-linecap="round" stroke-linejoin="round" />
  <path d="M18.6 29.6L32 18.7l13.4 10.9" fill="none" stroke="#e8f4ff" stroke-width="3.2" stroke-linecap="round" stroke-linejoin="round" opacity="0.4" />

  <rect x="24.2" y="29.2" width="4.6" height="10.2" rx="2.3" fill="none" stroke="#e8f4ff" stroke-width="1.8" />
  <circle cx="26.5" cy="41.5" r="3.2" fill="#4fb1ff" />
  <path d="M26.5 31.1v8.9" fill="none" stroke="#4fb1ff" stroke-width="2.2" stroke-linecap="round" />

  <path d="M37.9 41.8c2.5 0 4.4-1.9 4.4-4.2 0-3.1-4.4-7.1-4.4-7.1s-4.4 4-4.4 7.1c0 2.3 1.9 4.2 4.4 4.2z" fill="#22b98a" />
</svg>
