<?xml version="1.0" encoding="UTF-8" standalone="no"?>
<!DOCTYPE svg PUBLIC "-//W3C//DTD SVG 1.1//EN" "http://www.w3.org/Graphics/SVG/1.1/DTD/svg11.dtd">
<svg xmlns="http://www.w3.org/2000/svg" version="1.1" viewBox="0 0 200 200" width="200.0pt" height="200.0pt">
<path d="M 0.00 0.00 L 200.00 0.00 L 200.00 200.00 L 0.00 200.00 L 0.00 0.00 Z" fill="#ffffff" />
<path d="M 81.95 1.49 C 81.98 2.53 82.01 3.57 82.05 4.61 C 85.04 4.51 83.84 6.91 84.65 8.98 C 82.44 7.71 79.75 4.77 77.04 5.00 C 75.11 4.60 72.58 6.19 73.06 3.14 C 76.07 3.15 79.42 3.38 81.95 1.49 Z" fill="#f49a22" />
<path d="M 74.18 7.08 C 77.65 5.26 80.35 6.60 82.45 9.53 C 84.96 12.65 84.07 16.09 85.13 19.98 C 85.67 23.34 88.00 25.71 88.90 29.01 C 87.18 28.35 86.94 26.64 85.36 25.75 C 85.63 27.59 85.86 29.43 86.05 31.27 C 85.22 30.67 84.85 29.56 84.91 27.95 C 84.48 28.92 83.95 29.82 83.34 30.65 L 82.91 28.85 C 81.11 29.80 79.99 29.83 78.08 29.14 C 78.04 30.51 77.79 31.11 77.34 30.94 C 76.71 28.39 75.27 27.63 73.47 25.98 C 73.15 22.37 76.41 18.87 78.30 16.06 C 77.09 15.70 75.97 15.50 74.71 15.49 C 74.75 17.02 73.88 17.92 72.12 18.20 C 71.86 15.21 72.20 13.66 74.81 12.02 C 75.25 12.74 75.28 15.16 76.60 14.78 C 78.06 13.04 80.51 10.98 78.16 8.91 C 76.65 9.18 75.93 9.77 74.96 10.93 C 75.20 9.69 76.01 8.93 76.78 8.00 L 74.16 7.95 L 74.18 7.08 Z" fill="#000000" />
<path d="M 120.19 8.35 C 124.65 6.88 129.62 8.82 132.86 11.99 C 130.11 12.01 127.80 9.06 125.03 8.88 C 120.76 8.30 116.89 11.18 114.20 14.19 C 110.45 18.29 110.10 24.41 105.89 27.87 C 102.47 30.69 98.00 31.05 93.74 30.97 C 93.42 30.86 93.10 30.76 92.78 30.66 C 91.80 30.28 91.12 29.69 90.74 28.91 C 95.37 29.95 99.50 30.65 103.54 27.52 C 107.75 24.63 107.92 20.49 110.53 16.53 C 112.89 12.94 116.05 9.77 120.19 8.35 Z" fill="#000000" />
<path d="M 74.25 10.76 C 73.29 11.67 71.55 11.95 70.27 11.70 C 69.20 9.43 74.44 8.76 74.25 10.76 Z" fill="#000000" />
<path d="M 120.61 11.21 C 120.79 11.73 120.95 12.26 121.10 12.80 C 119.53 14.05 117.76 14.98 116.14 16.15 C 114.15 18.15 112.73 20.79 111.04 23.05 C 112.00 17.68 115.92 13.66 120.61 11.21 Z" fill="#f49a22" />
<path d="M 132.80 14.93 C 131.65 14.94 130.55 14.76 129.52 14.38 C 129.16 15.02 128.80 15.65 128.44 16.29 C 127.31 16.23 126.18 16.18 125.05 16.15 C 125.41 17.15 125.78 18.14 126.16 19.12 C 125.60 20.01 125.56 21.06 126.04 22.27 C 121.76 19.74 118.08 20.58 113.86 22.65 C 113.88 18.97 117.86 16.38 120.66 14.68 C 124.09 12.65 129.82 11.69 132.80 14.93 Z" fill="#000000" />
<path d="M 128.30 23.59 C 131.15 24.85 132.22 29.40 132.20 32.23 C 132.17 33.45 132.52 35.61 131.19 36.27 C 131.29 31.53 130.02 27.91 128.30 23.59 Z" fill="#000000" />
<path d="M 116.64 25.14 C 120.39 24.53 124.35 26.51 127.20 28.79 C 130.10 31.76 129.60 36.16 127.90 39.63 L 126.25 38.55 C 124.59 40.42 124.94 40.46 123.09 38.75 C 122.26 41.50 122.47 44.61 120.17 46.45 C 119.46 45.84 118.75 45.22 118.04 44.60 C 116.68 46.58 115.21 48.48 113.54 50.22 C 113.08 49.66 112.63 49.10 112.17 48.54 C 110.31 50.27 108.02 51.03 105.85 52.28 L 104.08 52.00 C 102.58 54.56 100.70 55.90 97.99 53.85 C 98.18 52.89 98.36 51.93 98.53 50.97 C 97.34 49.30 95.88 47.88 94.04 46.92 C 91.27 45.53 89.35 43.34 86.18 42.74 C 85.77 41.81 85.38 40.88 84.99 39.95 C 88.68 41.21 91.50 43.72 95.50 44.30 C 98.65 44.75 102.20 46.82 105.06 44.80 C 104.49 41.31 101.41 40.31 100.27 37.41 C 104.69 36.93 107.25 43.38 110.20 44.34 C 109.51 41.35 107.45 39.50 106.00 36.95 C 109.25 36.76 110.71 41.54 113.67 42.59 C 113.72 39.03 111.81 37.04 109.28 34.94 C 112.31 33.80 113.73 39.44 116.17 40.40 C 115.96 37.33 113.11 35.47 112.49 32.80 C 113.73 33.30 114.87 34.06 115.90 35.05 C 115.57 34.00 115.24 32.94 114.91 31.89 C 116.28 32.32 117.98 34.41 119.06 32.48 C 117.13 31.73 115.18 31.10 113.18 30.55 L 113.37 29.42 C 115.22 28.78 117.18 28.29 119.13 28.22 C 121.33 28.51 122.56 30.91 124.68 30.95 C 123.13 29.16 121.29 27.70 118.99 27.00 C 117.88 26.78 117.09 26.16 116.64 25.14 Z" fill="#000000" />
<path d="M 110.11 28.11 C 108.55 31.41 105.94 33.63 102.54 34.87 C 100.96 34.13 100.03 33.85 98.26 34.21 C 98.13 35.60 98.02 37.00 97.94 38.40 L 97.01 38.55 C 94.14 36.80 94.02 33.17 91.06 31.26 L 92.78 30.66 C 93.10 30.76 93.42 30.86 93.74 30.97 C 95.19 31.88 96.06 33.43 97.97 32.80 C 102.48 32.08 105.90 29.63 110.11 28.11 Z" fill="#f49a22" />
<path d="M 72.64 30.17 C 73.09 34.68 71.85 38.60 73.92 43.01 C 76.43 47.39 81.04 49.70 86.00 49.94 C 90.02 49.58 93.18 53.62 94.18 56.98 C 91.22 55.81 90.28 52.60 87.61 51.22 C 83.59 50.71 79.30 50.65 75.91 48.13 C 72.81 45.71 71.38 41.93 71.59 38.04 C 71.72 35.56 71.19 32.30 72.64 30.17 Z" fill="#000000" />
<path d="M 74.09 29.61 C 75.05 30.85 75.95 32.11 77.11 33.17 C 76.84 36.54 77.09 39.53 78.31 42.70 C 79.70 44.42 82.75 44.61 84.75 45.25 C 85.46 46.27 85.98 47.35 86.30 48.50 C 81.89 47.19 78.11 46.79 75.21 42.76 C 73.04 39.11 73.97 33.69 74.09 29.61 Z" fill="#f49a22" />
<path d="M 120.94 32.45 C 122.36 31.75 123.56 33.68 121.82 34.11 C 120.60 33.74 120.30 33.19 120.94 32.45 Z" fill="#ffffff" />
<path d="M 82.14 52.70 C 82.99 52.59 83.84 52.43 84.67 52.21 C 85.51 52.90 86.33 53.60 87.13 54.33 L 85.00 54.17 C 85.27 55.24 85.82 56.24 86.63 57.19 C 85.21 57.06 84.80 56.07 83.93 55.12 C 83.29 55.21 82.65 55.30 82.01 55.39 C 82.03 54.49 82.07 53.60 82.14 52.70 Z" fill="#000000" />
<path d="M 98.02 56.03 C 98.88 58.95 99.07 61.86 98.98 64.89 C 100.13 63.49 100.59 61.78 102.71 61.90 C 101.35 63.39 100.14 64.99 98.64 66.35 C 100.08 66.71 100.93 67.35 101.19 68.27 L 99.32 67.10 C 95.47 69.22 91.69 67.59 88.55 71.11 C 89.00 69.67 89.93 68.43 91.35 67.39 C 88.88 67.74 87.06 68.76 85.88 70.43 C 86.38 68.56 88.83 66.13 90.98 66.66 C 93.46 66.76 95.65 66.08 98.00 67.18 C 98.47 64.46 98.18 61.79 98.02 59.06 C 97.64 59.06 97.25 59.07 96.86 59.07 C 96.46 60.30 97.72 64.41 96.13 64.85 C 96.27 62.38 96.31 60.12 95.51 57.74 L 96.06 58.74 C 96.71 57.83 97.36 56.92 98.02 56.03 Z" fill="#000000" />
<path d="M 110.53 65.05 L 110.27 66.45 C 111.96 66.66 113.63 66.75 115.28 67.17 C 113.22 67.23 113.28 67.84 112.10 69.24 C 111.17 68.05 110.77 66.12 108.93 67.51 C 107.81 67.13 105.80 67.75 105.80 66.05 C 107.67 67.14 109.49 67.23 110.53 65.05 Z" fill="#000000" />
<path d="M 104.25 66.32 C 106.79 66.72 103.65 69.87 102.73 67.82 C 102.82 66.97 103.32 66.47 104.25 66.32 Z" fill="#000000" />
<path d="M 77.86 68.09 C 78.52 69.43 78.29 70.30 77.18 70.70 C 76.47 68.87 76.69 68.00 77.86 68.09 Z" fill="#000000" />
<path d="M 82.14 68.00 C 83.19 67.78 83.42 68.34 82.83 69.67 C 81.86 69.92 81.63 69.36 82.14 68.00 Z" fill="#690634" />
<path d="M 84.41 68.29 L 85.19 68.12 C 86.14 69.99 82.78 71.00 84.41 68.29 Z" fill="#690634" />
<path d="M 76.97 75.09 C 92.59 75.09 108.22 75.14 123.85 75.06 C 131.84 81.44 139.69 87.98 147.70 94.33 C 142.98 101.73 138.73 110.27 137.34 119.01 C 136.99 121.00 136.98 122.84 137.43 124.82 C 139.28 134.08 143.45 142.98 148.17 151.11 C 145.20 156.65 142.41 161.99 139.33 167.40 C 138.21 168.12 136.29 167.77 134.97 168.01 C 128.97 168.54 122.51 170.06 117.45 173.44 C 111.89 177.08 106.39 180.92 101.26 185.14 C 117.13 184.71 132.07 181.22 147.44 177.82 L 147.86 177.16 C 146.52 176.35 143.78 175.79 143.18 174.26 C 143.07 170.04 143.34 165.82 143.19 161.60 C 146.36 164.89 150.88 170.15 156.03 168.53 C 159.09 167.95 161.55 169.54 164.49 170.36 C 162.75 166.98 160.33 164.55 157.37 162.27 C 160.03 160.72 161.89 158.36 164.38 156.64 C 162.63 158.96 160.73 160.72 158.27 162.28 C 161.46 164.76 164.11 167.72 165.48 171.58 C 161.82 170.09 158.74 168.11 154.64 169.30 C 156.89 170.01 159.33 170.30 159.67 173.12 C 160.03 177.19 160.07 181.49 159.31 185.52 C 159.08 187.22 157.45 187.47 156.13 188.08 C 141.00 193.78 124.84 196.90 108.70 197.66 C 110.36 196.42 113.02 197.02 115.02 196.76 C 129.57 195.36 144.20 192.32 157.79 186.82 C 158.47 186.29 158.84 185.65 158.90 184.91 C 159.43 180.79 159.46 176.63 159.01 172.50 C 155.27 176.05 150.76 177.07 145.97 178.59 C 131.22 182.16 116.18 185.17 100.99 185.73 C 85.20 185.56 70.26 182.54 54.94 179.03 C 53.78 178.78 52.68 178.31 51.64 177.61 C 47.49 177.45 43.15 175.05 40.02 172.40 C 39.95 176.84 39.57 181.70 40.70 186.03 L 41.26 186.69 C 56.16 192.78 72.50 196.11 88.54 196.93 L 89.84 197.68 C 83.25 197.28 76.71 196.57 70.21 195.41 C 60.21 193.52 49.53 191.11 40.36 186.70 C 39.08 182.45 39.20 177.55 39.52 173.15 C 39.74 170.31 42.41 170.25 44.45 169.07 C 40.44 168.42 37.22 170.01 33.69 171.61 C 35.10 167.68 37.86 165.13 40.67 162.22 C 40.65 162.60 40.64 162.98 40.62 163.37 C 38.21 165.22 36.44 167.53 34.79 170.07 C 36.67 169.81 38.40 169.09 40.21 168.57 C 43.21 167.83 45.41 169.77 48.15 168.18 C 51.15 166.53 54.63 164.13 55.94 160.84 C 51.61 156.50 44.64 158.14 39.21 156.41 L 38.53 156.25 C 37.15 155.72 36.03 155.76 35.16 156.36 C 36.68 157.99 38.54 159.49 39.71 161.37 C 37.40 159.65 34.57 157.16 33.89 154.25 C 38.45 156.02 43.16 156.87 48.04 157.11 C 51.02 157.29 53.52 158.53 56.15 159.82 C 54.67 156.88 52.97 154.06 51.43 151.15 C 54.98 145.15 58.01 138.80 60.25 132.20 C 61.97 127.22 63.15 122.26 61.94 116.99 C 60.17 108.94 56.42 101.23 51.88 94.38 C 59.02 88.71 66.06 82.91 73.15 77.17 C 74.39 76.29 75.29 74.89 76.97 75.09 Z" fill="#000000" />
<path d="M 77.45 80.37 C 92.03 80.05 107.21 80.38 121.86 80.19 C 128.30 85.14 134.43 90.50 140.88 95.44 C 135.60 105.20 129.57 117.75 133.03 129.00 C 135.06 136.72 138.32 144.18 142.26 151.12 C 141.29 152.89 140.32 154.64 139.75 156.60 C 139.33 156.12 138.90 155.64 138.47 155.16 C 139.38 153.90 140.24 152.63 140.99 151.26 C 136.71 143.60 133.30 135.48 131.25 126.93 C 130.89 123.33 130.88 119.71 131.29 116.11 C 132.71 110.03 134.88 104.26 137.83 98.76 C 138.43 97.63 139.08 96.65 139.05 95.32 C 137.66 94.37 136.30 93.38 135.01 92.31 L 134.63 91.99 L 133.19 90.75 C 132.41 90.13 131.62 89.53 130.81 88.94 L 130.69 88.85 C 127.74 86.21 124.58 83.85 121.53 81.34 C 107.16 81.45 92.69 81.36 78.32 81.41 C 75.77 82.84 71.39 86.40 69.56 88.63 L 68.95 88.95 C 65.84 90.89 63.05 93.52 60.17 95.79 C 64.03 102.81 67.13 110.07 68.55 117.98 L 68.66 118.51 C 68.68 120.54 68.75 122.57 68.72 124.61 L 68.71 124.71 C 67.75 128.65 66.84 132.51 65.52 136.37 C 63.87 141.08 61.51 145.44 59.63 150.04 C 59.39 149.32 59.16 148.60 58.93 147.88 C 61.86 143.19 63.80 137.73 65.60 132.52 C 66.83 128.21 68.23 123.24 67.40 118.76 C 66.58 111.72 63.71 104.82 60.41 98.60 C 60.01 97.62 58.89 96.42 59.02 95.35 C 65.11 90.32 71.32 85.37 77.45 80.37 Z" fill="#ffffff" />
<path d="M 78.32 81.41 C 92.69 81.36 107.16 81.45 121.53 81.34 C 124.58 83.85 127.74 86.21 130.69 88.85 L 129.45 88.87 C 126.70 86.63 123.94 84.41 121.20 82.16 C 118.08 82.30 114.86 81.89 111.79 82.40 C 111.78 85.09 111.79 87.79 111.91 90.49 C 107.01 92.48 104.80 96.94 103.58 101.80 C 101.58 109.56 101.99 117.08 102.03 125.00 C 102.26 130.71 103.13 136.99 105.87 142.09 C 107.22 144.51 109.34 145.81 111.91 146.67 L 112.08 147.59 C 103.99 147.59 95.90 147.61 87.82 147.57 L 87.81 146.01 C 91.56 144.99 94.98 143.51 97.12 140.09 C 99.55 136.01 100.15 130.67 98.86 126.12 C 97.23 121.47 93.16 118.77 88.52 117.67 C 90.94 116.24 93.54 115.69 95.58 113.58 C 99.22 110.04 99.64 104.91 98.75 100.16 C 97.46 94.94 92.87 91.84 87.78 90.96 C 87.77 88.04 87.78 85.11 87.72 82.19 C 84.61 82.17 81.50 82.18 78.39 82.19 C 75.33 84.05 72.89 87.46 69.56 88.63 C 71.39 86.40 75.77 82.84 78.32 81.41 Z" fill="#690634" />
<path d="M 87.72 82.19 C 87.78 85.11 87.77 88.04 87.78 90.96 C 82.02 90.72 76.24 90.94 70.48 90.81 L 70.46 91.90 C 71.60 91.90 72.73 91.90 73.86 91.89 C 73.82 109.62 73.80 127.34 73.87 145.07 C 72.58 145.12 71.30 145.19 70.02 145.28 C 70.54 146.71 72.81 146.06 73.99 146.23 C 78.59 146.12 83.23 146.38 87.81 146.01 L 87.82 147.57 C 82.16 147.58 76.51 147.57 70.85 147.58 C 70.79 152.31 70.90 157.03 70.80 161.76 L 68.76 161.41 C 68.54 149.27 68.83 136.80 68.71 124.71 L 68.72 124.61 C 70.65 123.86 70.83 119.05 68.66 118.51 L 68.55 117.98 C 69.31 115.16 68.56 111.96 68.68 109.00 C 68.82 102.32 68.42 95.60 68.95 88.95 L 69.56 88.63 C 72.89 87.46 75.33 84.05 78.39 82.19 C 81.50 82.18 84.61 82.17 87.72 82.19 Z" fill="#f49a22" />
<path d="M 111.79 82.40 C 114.86 81.89 118.08 82.30 121.20 82.16 C 123.94 84.41 126.70 86.63 129.45 88.87 L 130.69 88.85 L 130.81 88.94 C 131.31 97.95 130.46 107.16 131.29 116.11 C 130.88 119.71 130.89 123.33 131.25 126.93 C 130.58 135.54 131.13 144.34 130.94 153.00 C 130.75 155.96 131.57 159.46 130.19 162.12 L 128.80 162.49 C 128.21 157.57 128.66 152.53 128.53 147.58 C 123.05 147.60 117.56 147.56 112.08 147.59 L 111.91 146.67 C 115.88 147.22 119.52 146.29 122.06 143.05 C 126.13 138.07 125.70 130.40 125.58 124.35 L 124.17 123.94 C 124.06 129.71 124.82 134.86 122.27 140.28 C 121.01 143.65 116.64 146.82 113.11 144.96 C 111.79 143.82 112.17 142.58 112.08 141.02 C 112.15 125.38 112.03 109.68 112.14 94.05 C 112.60 90.34 116.96 90.78 118.87 93.14 C 123.32 98.18 124.39 106.47 124.22 112.93 L 125.56 112.58 C 125.68 105.10 125.54 97.60 125.59 90.11 C 124.10 91.38 122.70 92.74 121.30 94.11 C 118.78 91.18 115.94 89.25 111.91 90.49 C 111.79 87.79 111.78 85.09 111.79 82.40 Z" fill="#f49a22" />
<path d="M 68.95 88.95 C 68.42 95.60 68.82 102.32 68.68 109.00 C 68.56 111.96 69.31 115.16 68.55 117.98 C 67.13 110.07 64.03 102.81 60.17 95.79 C 63.05 93.52 65.84 90.89 68.95 88.95 Z" fill="#690634" />
<path d="M 111.91 90.49 C 115.94 89.25 118.78 91.18 121.30 94.11 C 122.70 92.74 124.10 91.38 125.59 90.11 C 125.54 97.60 125.68 105.10 125.56 112.58 L 124.22 112.93 C 124.39 106.47 123.32 98.18 118.87 93.14 C 116.96 90.78 112.60 90.34 112.14 94.05 C 112.03 109.68 112.15 125.38 112.08 141.02 C 112.17 142.58 111.79 143.82 113.11 144.96 C 116.64 146.82 121.01 143.65 122.27 140.28 C 124.82 134.86 124.06 129.71 124.17 123.94 L 125.58 124.35 C 125.70 130.40 126.13 138.07 122.06 143.05 C 119.52 146.29 115.88 147.22 111.91 146.67 C 109.34 145.81 107.22 144.51 105.87 142.09 C 103.13 136.99 102.26 130.71 102.03 125.00 C 101.99 117.08 101.58 109.56 103.58 101.80 C 104.80 96.94 107.01 92.48 111.91 90.49 Z" fill="#ffffff" />
<path d="M 130.81 88.94 C 131.62 89.53 132.41 90.13 133.19 90.75 L 134.63 91.99 L 135.01 92.31 C 136.30 93.38 137.66 94.37 139.05 95.32 C 139.08 96.65 138.43 97.63 137.83 98.76 C 134.88 104.26 132.71 110.03 131.29 116.11 C 130.46 107.16 131.31 97.95 130.81 88.94 Z" fill="#690634" />
<path d="M 70.48 90.81 C 76.24 90.94 82.02 90.72 87.78 90.96 C 92.87 91.84 97.46 94.94 98.75 100.16 C 99.64 104.91 99.22 110.04 95.58 113.58 C 93.54 115.69 90.94 116.24 88.52 117.67 C 93.16 118.77 97.23 121.47 98.86 126.12 C 100.15 130.67 99.55 136.01 97.12 140.09 C 94.98 143.51 91.56 144.99 87.81 146.01 C 83.23 146.38 78.59 146.12 73.99 146.23 C 72.81 146.06 70.54 146.71 70.02 145.28 C 71.30 145.19 72.58 145.12 73.87 145.07 C 73.80 127.34 73.82 109.62 73.86 91.89 C 72.73 91.90 71.60 91.90 70.46 91.90 L 70.48 90.81 Z" fill="#ffffff" />
<path d="M 83.58 91.89 C 85.00 91.93 86.43 91.95 87.84 92.06 C 87.73 100.30 87.69 108.58 87.86 116.82 C 86.44 117.02 85.02 117.02 83.58 117.03 C 83.53 108.65 83.53 100.27 83.58 91.89 Z" fill="#f49a22" />
<path d="M 134.63 91.99 L 135.01 92.31 L 134.63 91.99 Z" fill="#690634" />
<path d="M 87.84 92.06 L 89.01 92.94 C 89.43 100.18 89.43 108.72 89.02 115.96 L 87.86 116.82 C 87.69 108.58 87.73 100.30 87.84 92.06 Z" fill="#690634" />
<path d="M 68.66 118.51 C 70.83 119.05 70.65 123.86 68.72 124.61 C 68.75 122.57 68.68 120.54 68.66 118.51 Z" fill="#f49a22" />
<path d="M 83.58 117.98 C 85.00 117.99 86.42 117.98 87.84 118.04 C 87.71 126.87 87.73 135.75 87.83 144.58 C 86.56 145.26 85.01 145.06 83.58 145.17 C 83.52 136.11 83.53 127.04 83.58 117.98 Z" fill="#f49a22" />
<path d="M 87.84 118.04 L 89.05 118.89 C 89.55 125.56 89.11 132.31 89.28 139.00 C 89.12 140.92 89.83 143.41 87.83 144.58 C 87.73 135.75 87.71 126.87 87.84 118.04 Z" fill="#690634" />
<path d="M 68.71 124.71 C 68.83 136.80 68.54 149.27 68.76 161.41 C 67.56 161.24 66.37 161.05 65.18 160.82 C 63.70 159.23 63.43 157.19 61.35 156.14 C 60.62 154.95 59.93 153.74 59.32 152.48 C 61.11 147.30 65.45 141.89 65.52 136.37 C 66.84 132.51 67.75 128.65 68.71 124.71 Z" fill="#690634" />
<path d="M 131.25 126.93 C 133.30 135.48 136.71 143.60 140.99 151.26 C 140.24 152.63 139.38 153.90 138.47 155.16 L 138.07 154.72 C 137.80 155.75 137.54 156.77 137.24 157.80 C 136.53 159.16 136.11 161.00 134.72 161.71 C 133.22 161.89 131.71 162.03 130.19 162.12 C 131.57 159.46 130.75 155.96 130.94 153.00 C 131.13 144.34 130.58 135.54 131.25 126.93 Z" fill="#690634" />
<path d="M 59.32 152.48 C 59.93 153.74 60.62 154.95 61.35 156.14 C 62.33 157.96 63.33 159.76 64.38 161.54 C 67.61 161.68 70.69 162.55 73.89 162.88 C 75.17 163.53 76.34 164.08 77.76 164.29 C 82.64 165.97 86.68 168.87 90.93 171.68 L 91.48 172.07 C 92.63 172.93 93.79 173.76 94.95 174.60 L 95.51 175.03 C 96.91 176.02 98.28 177.62 99.92 178.15 C 102.25 176.72 104.31 174.69 106.58 173.11 L 107.10 172.73 C 109.08 171.42 111.04 170.10 112.99 168.74 C 115.79 166.76 118.83 165.35 121.99 164.05 L 123.16 163.76 C 123.88 164.14 124.01 164.54 123.55 164.95 C 114.84 167.57 107.15 174.43 99.76 179.59 C 94.76 175.78 89.67 172.02 84.33 168.69 C 78.30 164.78 70.55 163.34 63.51 162.61 C 61.67 158.88 59.51 155.32 57.57 151.66 L 58.27 148.77 C 58.72 149.98 59.03 151.22 59.32 152.48 Z" fill="#ffffff" />
<path d="M 84.31 150.23 C 85.06 149.84 85.72 150.00 86.31 150.71 C 87.58 153.56 88.59 156.53 89.83 159.40 C 88.46 159.62 87.41 158.90 86.70 157.24 C 85.62 157.24 84.53 157.25 83.45 157.26 C 82.99 159.05 82.06 159.72 80.68 159.27 C 81.86 156.25 82.90 153.14 84.31 150.23 Z" fill="#ffffff" />
<path d="M 96.90 150.28 C 98.96 150.13 101.03 150.18 103.08 150.14 L 103.08 151.87 C 101.67 151.84 100.25 151.82 98.83 151.79 C 97.99 155.22 100.77 153.64 102.85 154.14 C 102.76 156.43 100.31 155.12 98.78 155.45 C 98.81 156.82 98.75 158.17 98.60 159.52 C 98.03 159.45 97.51 159.28 97.03 159.03 C 96.64 156.22 96.93 153.15 96.90 150.28 Z" fill="#ffffff" />
<path d="M 118.32 153.05 C 117.14 153.03 116.03 152.56 114.98 151.64 C 111.26 151.42 111.46 158.03 115.03 158.18 C 116.10 157.13 116.50 155.85 118.26 156.06 C 118.32 160.01 113.11 160.51 111.15 157.71 C 110.03 155.59 110.17 151.82 112.57 150.61 C 114.70 149.24 118.17 150.23 118.32 153.05 Z" fill="#ffffff" />
<path d="M 85.11 152.83 C 86.34 153.50 87.22 156.16 85.11 156.29 C 83.13 156.14 84.15 153.60 85.11 152.83 Z" fill="#000000" />
<path d="M 165.61 154.04 C 165.26 154.97 165.07 155.88 164.38 156.64 C 161.89 158.36 160.03 160.72 157.37 162.27 C 160.33 164.55 162.75 166.98 164.49 170.36 C 161.55 169.54 159.09 167.95 156.03 168.53 C 150.88 170.15 146.36 164.89 143.19 161.60 C 143.49 160.78 143.80 159.96 144.12 159.14 C 146.22 158.23 148.65 157.05 150.97 157.01 C 155.91 156.95 160.97 155.72 165.61 154.04 Z" fill="#f49a22" />
<path d="M 38.53 156.25 L 39.21 156.41 C 44.64 158.14 51.61 156.50 55.94 160.84 C 54.63 164.13 51.15 166.53 48.15 168.18 C 45.41 169.77 43.21 167.83 40.21 168.57 C 38.40 169.09 36.67 169.81 34.79 170.07 C 36.44 167.53 38.21 165.22 40.62 163.37 C 40.64 162.98 40.65 162.60 40.67 162.22 L 39.71 161.37 C 38.54 159.49 36.68 157.99 35.16 156.36 C 36.03 155.76 37.15 155.72 38.53 156.25 Z" fill="#f49a22" />
<path d="M 137.24 157.80 C 137.63 158.13 138.02 158.46 138.40 158.80 C 137.49 160.10 136.62 161.42 135.82 162.80 C 132.56 162.81 129.55 163.44 126.43 164.27 C 125.54 164.05 124.68 163.66 123.85 163.11 C 125.51 162.96 127.16 162.75 128.80 162.49 L 130.19 162.12 C 131.71 162.03 133.22 161.89 134.72 161.71 C 136.11 161.00 136.53 159.16 137.24 157.80 Z" fill="#ffffff" />
<path d="M 56.61 160.18 C 57.66 162.81 59.07 165.24 60.42 167.72 C 68.05 168.09 75.94 169.23 82.41 173.60 C 87.80 177.18 93.29 180.85 98.17 185.10 C 83.98 184.84 69.58 181.78 55.76 178.67 C 54.52 178.23 52.40 178.23 51.65 177.07 C 53.15 176.40 54.60 175.66 56.03 174.84 C 56.04 170.67 56.05 166.52 55.93 162.36 C 56.05 161.62 56.28 160.89 56.61 160.18 Z" fill="#ffffff" />
<path d="M 87.78 162.15 C 87.78 164.21 87.79 166.26 87.78 168.32 C 84.97 166.99 82.50 165.12 79.57 164.02 L 77.76 164.29 C 76.34 164.08 75.17 163.53 73.89 162.88 C 78.13 161.32 83.28 162.50 87.78 162.15 Z" fill="#f49a22" />
<path d="M 87.78 162.15 C 95.77 162.12 103.76 162.13 111.75 162.15 C 112.00 164.32 110.99 167.34 112.99 168.74 C 111.04 170.10 109.08 171.42 107.10 172.73 L 106.58 173.11 C 104.31 174.69 102.25 176.72 99.92 178.15 C 98.28 177.62 96.91 176.02 95.51 175.03 L 94.95 174.60 C 93.79 173.76 92.63 172.93 91.48 172.07 L 90.93 171.68 C 86.68 168.87 82.64 165.97 77.76 164.29 L 79.57 164.02 C 82.50 165.12 84.97 166.99 87.78 168.32 C 87.79 166.26 87.78 164.21 87.78 162.15 Z" fill="#690634" />
<path d="M 111.75 162.15 C 116.20 162.15 120.64 162.14 125.08 162.08 C 124.19 162.77 123.08 163.12 121.76 163.14 L 123.16 163.76 L 121.99 164.05 C 119.00 164.03 115.95 166.02 113.51 167.62 L 112.99 168.74 C 110.99 167.34 112.00 164.32 111.75 162.15 Z" fill="#f49a22" />
<path d="M 121.99 164.05 C 118.83 165.35 115.79 166.76 112.99 168.74 L 113.51 167.62 C 115.95 166.02 119.00 164.03 121.99 164.05 Z" fill="#000000" />
<path d="M 90.93 171.68 L 91.48 172.07 L 90.93 171.68 Z" fill="#690634" />
<path d="M 107.10 172.73 L 106.58 173.11 L 107.10 172.73 Z" fill="#690634" />
<path d="M 40.02 172.40 C 43.15 175.05 47.49 177.45 51.64 177.61 C 52.68 178.31 53.78 178.78 54.94 179.03 C 70.26 182.54 85.20 185.56 100.99 185.73 C 116.18 185.17 131.22 182.16 145.97 178.59 C 150.76 177.07 155.27 176.05 159.01 172.50 C 159.46 176.63 159.43 180.79 158.90 184.91 C 158.84 185.65 158.47 186.29 157.79 186.82 C 144.20 192.32 129.57 195.36 115.02 196.76 C 113.02 197.02 110.36 196.42 108.70 197.66 L 108.63 197.67 C 105.57 196.85 102.15 197.38 99.00 197.25 C 96.03 197.35 92.78 196.86 89.93 197.69 L 89.84 197.68 L 88.54 196.93 C 72.50 196.11 56.16 192.78 41.26 186.69 L 40.70 186.03 C 39.57 181.70 39.95 176.84 40.02 172.40 Z" fill="#f49a22" />
<path d="M 94.95 174.60 L 95.51 175.03 L 94.95 174.60 Z" fill="#690634" />
<path d="M 53.30 180.46 C 55.45 181.05 57.64 181.58 59.73 182.36 L 59.75 183.60 C 58.85 183.40 57.95 183.20 57.05 182.99 C 56.10 184.63 56.25 189.79 53.65 189.33 C 54.03 187.05 54.65 184.88 55.43 182.70 C 54.61 182.34 53.78 181.98 52.95 181.64 L 53.30 180.46 Z" fill="#000000" />
<path d="M 147.00 183.07 C 144.78 182.76 143.69 180.84 142.51 183.97 C 144.97 184.32 147.47 182.94 148.51 185.97 C 148.73 189.46 142.24 190.85 141.77 186.93 C 142.91 187.04 144.01 187.42 145.07 188.07 C 146.03 187.55 146.71 186.84 147.12 185.96 C 145.29 185.48 142.59 186.23 141.30 184.70 C 139.09 181.32 147.30 178.73 147.00 183.07 Z" fill="#000000" />
<path d="M 63.43 182.85 C 63.24 183.92 63.06 184.98 62.86 186.05 C 63.87 186.47 64.91 186.83 65.97 187.14 C 66.66 185.68 66.03 183.55 68.34 183.94 C 67.99 186.67 67.39 189.32 66.71 191.98 L 65.13 192.06 C 65.35 190.71 65.50 189.34 65.59 187.96 C 64.51 187.94 63.42 187.95 62.33 188.01 C 62.19 189.02 62.04 190.02 61.89 191.03 L 60.09 190.91 C 60.62 188.67 61.03 186.40 61.52 184.15 C 61.54 183.36 62.18 182.93 63.43 182.85 Z" fill="#000000" />
<path d="M 135.51 183.24 C 136.32 183.11 137.12 182.98 137.93 182.86 C 138.74 185.45 139.25 188.08 139.79 190.73 L 138.17 191.01 C 138.06 189.87 137.93 188.73 137.77 187.60 L 136.77 187.28 C 136.50 188.30 137.42 192.36 135.24 191.73 C 134.17 190.47 133.93 188.83 132.54 187.77 C 132.77 189.33 133.01 190.88 133.25 192.44 L 132.02 192.06 C 130.91 189.83 130.64 186.80 130.15 184.31 C 131.00 184.23 131.85 184.12 132.70 184.00 C 133.41 185.36 133.85 187.38 135.27 188.11 C 135.36 186.49 135.44 184.87 135.51 183.24 Z" fill="#000000" />
<path d="M 71.13 184.77 C 72.79 185.21 77.40 184.58 77.45 187.05 C 75.76 186.83 74.08 186.62 72.39 186.42 C 71.64 189.18 75.83 187.73 77.00 189.82 C 75.27 190.06 73.63 189.84 71.92 189.58 L 72.12 191.75 C 73.74 192.33 76.88 191.09 76.50 193.72 C 74.32 193.42 72.13 193.12 69.94 192.85 C 70.20 191.16 70.46 189.48 70.72 187.79 C 70.86 186.78 71.00 185.77 71.13 184.77 Z" fill="#000000" />
<path d="M 123.49 185.54 L 124.69 185.18 C 126.40 187.71 128.00 190.30 129.39 193.02 C 128.26 193.28 127.23 192.75 126.28 191.42 C 125.31 191.61 124.34 191.85 123.40 192.13 C 123.14 193.60 122.37 194.27 121.10 194.15 C 121.86 191.34 122.19 188.14 123.49 185.54 Z" fill="#000000" />
<path d="M 115.98 186.39 C 117.27 186.51 119.82 185.26 119.68 187.45 C 118.79 187.59 117.91 187.74 117.02 187.88 C 117.27 190.06 117.63 192.28 117.63 194.48 L 116.18 194.77 C 115.84 192.54 115.68 190.29 115.30 188.06 L 112.68 187.88 C 112.92 186.23 114.79 186.71 115.98 186.39 Z" fill="#000000" />
<path d="M 84.61 186.45 C 86.83 186.92 90.66 185.98 91.28 188.94 C 90.94 189.47 90.59 190.01 90.25 190.56 C 90.79 191.30 91.15 192.08 91.33 192.91 C 90.67 195.03 89.08 194.81 87.24 195.19 C 86.95 194.63 86.67 194.07 86.38 193.52 C 87.60 193.48 88.76 193.25 89.86 192.84 C 88.84 191.14 87.93 191.29 86.10 191.00 C 86.51 192.85 85.85 193.92 84.90 195.40 C 83.73 193.44 84.21 191.90 84.36 189.85 C 84.45 188.72 84.54 187.59 84.61 186.45 Z" fill="#000000" />
<path d="M 96.52 187.43 C 97.15 186.82 97.80 186.81 98.50 187.40 C 99.63 190.07 100.76 192.78 101.56 195.57 C 100.37 195.31 99.38 194.57 98.59 193.35 C 97.82 193.32 97.05 193.30 96.28 193.28 C 95.25 194.42 94.87 195.26 93.16 195.25 C 94.30 192.65 95.34 190.00 96.52 187.43 Z" fill="#000000" />
<path d="M 103.87 186.99 C 106.45 186.70 107.22 190.59 109.02 192.01 C 109.02 190.33 109.00 188.65 108.96 186.97 L 110.59 187.11 C 110.63 189.77 110.72 192.42 110.84 195.07 C 108.24 195.59 107.06 191.53 105.38 189.97 C 105.55 191.76 105.66 193.55 105.63 195.35 L 104.05 195.20 C 103.94 192.46 103.85 189.73 103.87 186.99 Z" fill="#000000" />
<path d="M 86.18 188.32 C 87.10 187.80 88.06 187.78 89.04 188.27 C 90.88 190.69 84.62 190.70 86.18 188.32 Z" fill="#f49a22" />
<path d="M 124.08 188.08 C 124.99 187.35 126.27 189.87 125.40 190.41 C 123.64 191.15 123.37 189.29 124.08 188.08 Z" fill="#f49a22" />
<path d="M 97.72 189.32 C 98.28 190.08 98.56 190.98 98.57 192.03 C 97.75 192.35 97.03 192.36 96.41 192.05 C 96.09 191.44 96.84 188.97 97.72 189.32 Z" fill="#f49a22" />
<path d="M 89.93 197.69 C 92.78 196.86 96.03 197.35 99.00 197.25 C 102.15 197.38 105.57 196.85 108.63 197.67 C 102.55 198.24 96.03 198.11 89.93 197.69 Z" fill="#690634" />
</svg>