<?xml version="1.0" encoding="UTF-8" standalone="no"?>
<!DOCTYPE svg PUBLIC "-//W3C//DTD SVG 1.1//EN" "http://www.w3.org/Graphics/SVG/1.1/DTD/svg11.dtd">
<svg xmlns="http://www.w3.org/2000/svg" version="1.1" viewBox="0 0 200 200" width="200.0pt" height="200.0pt">
<path d="M 0.00 0.00 L 88.59 0.00 C 82.39 1.13 76.19 1.77 70.06 3.15 C 56.89 6.04 44.02 10.30 31.61 15.57 C 30.11 16.28 28.35 16.95 27.17 18.14 C 26.42 19.82 26.00 21.72 25.53 23.51 C 22.95 25.08 20.42 25.79 19.44 28.98 L 18.99 29.92 L 18.55 31.65 L 18.00 33.11 L 17.71 33.93 C 17.59 34.35 17.48 34.77 17.37 35.19 C 13.62 47.85 11.76 61.26 11.12 74.42 C 10.68 85.47 10.83 96.29 14.03 106.98 C 17.47 118.47 23.26 130.18 30.35 139.86 C 40.05 154.32 53.17 166.96 66.74 177.79 C 77.18 186.09 88.36 193.33 99.90 200.00 L 0.00 200.00 L 0.00 0.00 Z" fill="#ffffff" />
<path d="M 88.59 0.00 L 111.62 0.00 L 112.68 0.19 C 118.11 1.23 123.59 1.78 128.99 2.97 C 142.48 5.86 155.67 10.20 168.36 15.60 C 169.78 16.32 171.73 16.93 172.72 18.22 C 173.49 19.90 173.96 21.79 174.47 23.57 C 176.77 25.05 179.59 25.77 180.42 28.63 C 182.57 34.33 184.37 40.67 185.44 46.66 L 184.34 47.82 C 183.04 41.00 181.58 34.39 178.58 28.08 C 176.91 26.82 175.15 25.70 173.38 24.57 C 172.71 22.66 172.15 20.60 171.14 18.84 C 169.43 17.47 167.19 16.66 165.18 15.80 C 146.75 8.33 127.64 2.80 107.71 1.44 C 99.03 0.36 90.82 1.58 82.19 2.44 C 64.67 4.96 47.51 10.27 31.29 17.30 C 27.62 18.54 28.03 21.50 26.40 24.44 C 25.46 25.47 24.12 26.20 22.94 26.93 C 21.75 27.58 20.59 28.26 19.44 28.98 C 20.42 25.79 22.95 25.08 25.53 23.51 C 26.00 21.72 26.42 19.82 27.17 18.14 C 28.35 16.95 30.11 16.28 31.61 15.57 C 44.02 10.30 56.89 6.04 70.06 3.15 C 76.19 1.77 82.39 1.13 88.59 0.00 Z" fill="#b1a790" />
<path d="M 111.62 0.00 L 200.00 0.00 L 200.00 200.00 L 99.99 200.00 C 124.87 185.76 149.50 167.11 166.66 143.92 C 174.12 134.39 180.00 123.50 184.21 112.16 C 188.58 100.24 189.49 87.86 188.89 75.26 C 188.42 65.65 187.28 56.11 185.44 46.66 C 184.37 40.67 182.57 34.33 180.42 28.63 C 179.59 25.77 176.77 25.05 174.47 23.57 C 173.96 21.79 173.49 19.90 172.72 18.22 C 171.73 16.93 169.78 16.32 168.36 15.60 C 155.67 10.20 142.48 5.86 128.99 2.97 C 123.59 1.78 118.11 1.23 112.68 0.19 L 111.62 0.00 Z" fill="#ffffff" />
<path d="M 107.71 1.44 C 127.64 2.80 146.75 8.33 165.18 15.80 C 167.19 16.66 169.43 17.47 171.14 18.84 C 172.15 20.60 172.71 22.66 173.38 24.57 C 175.15 25.70 176.91 26.82 178.58 28.08 C 177.51 28.42 176.43 28.74 175.34 29.05 L 173.32 28.69 L 173.42 29.00 L 173.10 28.73 C 170.64 27.02 169.85 24.91 168.58 22.34 C 166.57 20.76 163.83 19.96 161.51 18.90 C 156.30 16.24 150.79 14.51 145.26 12.68 C 132.17 8.47 118.76 5.66 105.00 4.94 C 94.98 4.47 85.02 5.53 75.17 7.36 C 69.46 8.54 63.82 9.67 58.39 11.87 C 51.81 13.90 45.31 16.16 38.94 18.77 C 36.36 19.79 33.57 20.71 31.27 22.27 C 30.10 24.00 29.83 26.45 29.33 28.46 C 28.44 28.47 27.56 28.48 26.67 28.52 L 24.72 28.81 C 24.14 28.17 23.54 27.54 22.94 26.93 C 24.12 26.20 25.46 25.47 26.40 24.44 C 28.03 21.50 27.62 18.54 31.29 17.30 C 47.51 10.27 64.67 4.96 82.19 2.44 C 90.82 1.58 99.03 0.36 107.71 1.44 Z" fill="#dad3ae" />
<path d="M 105.00 4.94 C 118.76 5.66 132.17 8.47 145.26 12.68 C 150.79 14.51 156.30 16.24 161.51 18.90 C 160.06 18.52 158.61 18.17 157.16 17.80 C 139.22 10.93 119.32 5.59 100.00 5.85 C 91.91 5.80 83.95 6.49 76.02 8.09 C 70.07 9.08 64.38 11.07 58.39 11.87 C 63.82 9.67 69.46 8.54 75.17 7.36 C 85.02 5.53 94.98 4.47 105.00 4.94 Z" fill="#73715f" />
<path d="M 100.00 5.85 C 119.32 5.59 139.22 10.93 157.16 17.80 C 156.15 19.63 155.23 21.50 154.56 23.48 C 154.39 24.26 154.24 25.04 154.11 25.82 L 152.28 26.34 C 152.76 28.27 152.37 29.91 151.90 31.78 C 151.05 32.29 150.20 32.80 149.36 33.31 C 150.78 34.31 152.30 35.12 153.87 35.86 C 155.00 39.35 154.18 42.42 154.05 46.00 C 153.79 48.77 153.93 51.78 152.23 54.15 C 150.88 54.41 149.47 54.44 148.10 54.56 C 145.09 54.91 143.05 56.63 140.66 58.28 C 139.78 58.23 138.90 58.18 138.03 58.13 C 136.62 58.99 135.20 59.83 133.77 60.66 C 135.12 58.45 136.84 56.51 138.20 54.32 C 140.86 48.03 141.76 40.92 140.74 34.17 C 139.29 32.36 136.99 31.11 135.10 29.79 C 134.20 25.43 135.81 21.94 136.66 17.72 C 135.91 17.89 133.23 16.89 133.12 18.04 C 133.31 18.78 133.53 19.52 133.77 20.26 C 133.24 23.04 132.87 25.62 130.81 27.75 L 130.07 25.93 L 129.95 25.32 C 129.96 23.66 130.33 21.84 129.93 20.21 C 128.66 18.16 127.00 18.60 124.92 18.47 C 125.24 17.42 125.56 16.37 125.87 15.32 C 124.65 15.22 123.43 15.16 122.20 15.14 C 122.41 16.08 122.65 17.02 122.92 17.95 C 122.59 19.91 122.21 21.86 121.86 23.81 C 121.09 24.60 120.32 25.39 119.55 26.18 L 119.20 26.11 C 119.31 23.12 118.13 20.52 120.72 18.29 C 120.30 16.72 119.88 15.14 119.46 13.56 C 118.30 14.76 117.22 16.03 116.16 17.31 C 117.14 20.11 116.67 22.79 116.54 25.67 L 116.16 25.21 C 113.55 21.44 113.22 17.46 111.93 13.15 C 110.48 13.05 109.04 12.96 107.60 12.87 L 107.90 14.75 L 106.96 14.07 C 103.24 10.58 98.75 10.85 93.98 11.01 C 90.70 11.17 87.69 12.25 84.77 13.68 C 89.07 14.10 93.47 13.66 97.73 14.30 C 99.26 15.30 98.40 16.72 98.47 18.25 C 97.73 16.95 97.30 15.69 95.90 14.97 C 94.71 14.98 93.51 15.54 92.38 15.91 C 89.43 15.24 86.64 15.66 83.73 16.33 C 86.14 19.46 86.38 21.11 84.34 24.53 C 82.57 22.85 82.23 21.35 81.79 19.06 C 82.28 18.24 82.76 17.42 83.23 16.59 C 79.21 17.08 75.12 15.94 72.71 19.97 C 72.15 20.69 71.60 21.42 71.04 22.15 C 70.41 20.97 70.05 19.82 68.74 19.23 C 67.03 18.40 65.82 19.67 64.30 20.34 C 64.12 19.21 63.94 18.08 63.75 16.95 C 63.05 17.43 60.74 17.66 60.84 18.71 C 61.34 19.41 61.87 20.09 62.42 20.75 C 63.35 23.79 63.91 26.03 62.97 29.14 C 64.55 28.92 66.12 28.65 67.70 28.37 C 66.41 26.44 65.57 24.73 64.99 22.48 C 65.78 21.90 66.56 21.31 67.35 20.73 C 68.40 22.16 69.12 23.45 69.38 25.24 L 68.40 27.60 C 67.24 30.81 65.02 30.63 62.15 31.53 C 61.89 35.85 61.88 40.10 62.16 44.41 C 63.21 44.79 64.25 45.18 65.29 45.59 L 66.25 46.85 C 64.05 46.81 61.85 46.77 59.65 46.70 C 58.45 49.07 57.39 51.50 56.30 53.92 C 56.96 55.02 57.65 56.11 58.35 57.19 C 53.61 57.79 48.87 58.46 44.14 59.16 C 43.19 59.04 42.24 58.92 41.28 58.79 C 39.49 52.05 37.24 45.92 38.12 38.79 C 40.09 38.06 41.80 37.64 43.03 35.80 C 43.77 34.94 44.46 34.03 45.13 33.11 L 46.70 33.22 C 48.57 33.45 50.08 33.25 51.87 32.62 C 51.79 31.54 50.82 30.64 50.31 29.68 C 48.89 27.26 48.28 24.33 47.33 21.70 C 46.23 22.00 45.11 22.28 44.00 22.55 C 42.44 22.72 40.84 22.78 39.27 22.85 C 39.78 21.91 40.29 20.98 40.81 20.05 C 40.19 19.62 39.56 19.19 38.94 18.77 C 45.31 16.16 51.81 13.90 58.39 11.87 C 64.38 11.07 70.07 9.08 76.02 8.09 C 83.95 6.49 91.91 5.80 100.00 5.85 Z" fill="#003c8a" />
<path d="M 93.98 11.01 C 98.75 10.85 103.24 10.58 106.96 14.07 L 107.90 14.75 L 108.86 15.46 C 107.29 18.43 105.84 21.30 103.24 23.54 C 105.11 24.24 107.04 24.43 109.03 24.55 L 107.76 21.45 C 109.21 21.58 110.66 21.71 112.11 21.84 C 111.62 22.87 111.13 23.90 110.65 24.94 C 112.48 25.04 114.32 25.13 116.16 25.21 L 116.54 25.67 L 119.20 26.11 L 119.55 26.18 C 121.32 26.46 122.99 26.92 124.80 26.87 C 124.53 25.85 124.21 24.85 123.87 23.85 C 124.35 22.42 124.71 21.17 125.94 20.17 C 130.02 21.18 126.91 24.76 126.02 27.07 C 126.74 28.15 129.40 28.05 130.57 28.53 L 130.07 25.93 L 130.81 27.75 L 131.27 28.63 C 132.54 29.03 133.83 29.38 135.10 29.79 C 136.99 31.11 139.29 32.36 140.74 34.17 C 141.76 40.92 140.86 48.03 138.20 54.32 C 136.84 56.51 135.12 58.45 133.77 60.66 C 132.61 62.27 131.58 63.96 130.60 65.69 C 127.87 66.84 125.21 66.81 122.31 66.82 C 114.83 59.40 107.46 51.87 99.96 44.48 C 94.32 49.91 88.93 55.60 83.31 61.05 C 82.71 59.78 82.11 58.50 81.51 57.22 C 79.69 57.59 77.87 58.11 76.03 58.33 C 74.00 58.42 73.44 56.04 72.43 54.69 C 69.97 52.37 68.17 49.60 66.25 46.85 L 65.29 45.59 C 64.25 45.18 63.21 44.79 62.16 44.41 C 61.88 40.10 61.89 35.85 62.15 31.53 C 65.02 30.63 67.24 30.81 68.40 27.60 C 70.14 27.60 71.84 27.31 73.55 26.98 C 72.89 26.07 72.22 25.16 71.55 24.26 C 71.38 23.56 71.22 22.85 71.04 22.15 C 71.60 21.42 72.15 20.69 72.71 19.97 C 72.88 22.13 72.68 23.96 74.56 25.43 C 76.16 26.93 78.51 25.95 80.38 25.62 C 83.36 24.87 86.11 24.65 89.16 24.71 C 88.27 22.21 85.74 18.39 89.61 17.14 C 92.07 18.93 90.47 22.21 89.87 24.53 C 91.36 24.46 92.84 24.40 94.32 24.33 C 93.58 22.21 92.65 20.41 93.01 18.08 C 93.61 17.04 94.48 16.76 95.61 17.24 C 95.96 18.52 96.26 19.82 96.52 21.14 C 95.93 22.10 95.34 23.07 94.77 24.04 C 95.99 23.79 99.61 24.55 100.02 23.08 C 99.44 22.48 98.85 21.89 98.24 21.32 C 98.31 20.30 98.39 19.28 98.47 18.25 C 98.40 16.72 99.26 15.30 97.73 14.30 C 93.47 13.66 89.07 14.10 84.77 13.68 C 87.69 12.25 90.70 11.17 93.98 11.01 Z" fill="#004091" />
<path d="M 107.60 12.87 C 109.04 12.96 110.48 13.05 111.93 13.15 C 113.22 17.46 113.55 21.44 116.16 25.21 C 114.32 25.13 112.48 25.04 110.65 24.94 C 111.13 23.90 111.62 22.87 112.11 21.84 C 110.66 21.71 109.21 21.58 107.76 21.45 L 109.03 24.55 C 107.04 24.43 105.11 24.24 103.24 23.54 C 105.84 21.30 107.29 18.43 108.86 15.46 L 107.90 14.75 L 107.60 12.87 Z" fill="#eaeff6" />
<path d="M 119.46 13.56 C 119.88 15.14 120.30 16.72 120.72 18.29 C 118.13 20.52 119.31 23.12 119.20 26.11 L 116.54 25.67 C 116.67 22.79 117.14 20.11 116.16 17.31 C 117.22 16.03 118.30 14.76 119.46 13.56 Z" fill="#e0e8f1" />
<path d="M 92.38 15.91 C 93.51 15.54 94.71 14.98 95.90 14.97 C 97.30 15.69 97.73 16.95 98.47 18.25 C 98.39 19.28 98.31 20.30 98.24 21.32 C 98.85 21.89 99.44 22.48 100.02 23.08 C 99.61 24.55 95.99 23.79 94.77 24.04 C 95.34 23.07 95.93 22.10 96.52 21.14 C 96.26 19.82 95.96 18.52 95.61 17.24 C 94.48 16.76 93.61 17.04 93.01 18.08 C 92.65 20.41 93.58 22.21 94.32 24.33 C 92.84 24.40 91.36 24.46 89.87 24.53 C 90.47 22.21 92.07 18.93 89.61 17.14 C 85.74 18.39 88.27 22.21 89.16 24.71 C 86.11 24.65 83.36 24.87 80.38 25.62 C 78.51 25.95 76.16 26.93 74.56 25.43 C 72.68 23.96 72.88 22.13 72.71 19.97 C 75.12 15.94 79.21 17.08 83.23 16.59 C 82.76 17.42 82.28 18.24 81.79 19.06 C 82.23 21.35 82.57 22.85 84.34 24.53 C 86.38 21.11 86.14 19.46 83.73 16.33 C 86.64 15.66 89.43 15.24 92.38 15.91 Z" fill="#dee6f1" />
<path d="M 122.20 15.14 C 123.43 15.16 124.65 15.22 125.87 15.32 C 125.56 16.37 125.24 17.42 124.92 18.47 C 127.00 18.60 128.66 18.16 129.93 20.21 C 130.33 21.84 129.96 23.66 129.95 25.32 L 130.07 25.93 L 130.57 28.53 C 129.40 28.05 126.74 28.15 126.02 27.07 C 126.91 24.76 130.02 21.18 125.94 20.17 C 124.71 21.17 124.35 22.42 123.87 23.85 C 124.21 24.85 124.53 25.85 124.80 26.87 C 122.99 26.92 121.32 26.46 119.55 26.18 C 120.32 25.39 121.09 24.60 121.86 23.81 C 122.21 21.86 122.59 19.91 122.92 17.95 C 122.65 17.02 122.41 16.08 122.20 15.14 Z" fill="#dbe4ef" />
<path d="M 63.75 16.95 C 63.94 18.08 64.12 19.21 64.30 20.34 C 65.82 19.67 67.03 18.40 68.74 19.23 C 70.05 19.82 70.41 20.97 71.04 22.15 C 71.22 22.85 71.38 23.56 71.55 24.26 C 72.22 25.16 72.89 26.07 73.55 26.98 C 71.84 27.31 70.14 27.60 68.40 27.60 L 69.38 25.24 C 69.12 23.45 68.40 22.16 67.35 20.73 C 66.56 21.31 65.78 21.90 64.99 22.48 C 65.57 24.73 66.41 26.44 67.70 28.37 C 66.12 28.65 64.55 28.92 62.97 29.14 C 63.91 26.03 63.35 23.79 62.42 20.75 C 61.87 20.09 61.34 19.41 60.84 18.71 C 60.74 17.66 63.05 17.43 63.75 16.95 Z" fill="#e2e9f2" />
<path d="M 111.01 17.12 C 111.38 18.14 111.33 19.04 110.86 19.80 C 108.33 21.03 108.65 16.87 111.01 17.12 Z" fill="#4b73ae" />
<path d="M 136.66 17.72 C 135.81 21.94 134.20 25.43 135.10 29.79 C 133.83 29.38 132.54 29.03 131.27 28.63 L 130.81 27.75 C 132.87 25.62 133.24 23.04 133.77 20.26 C 133.53 19.52 133.31 18.78 133.12 18.04 C 133.23 16.89 135.91 17.89 136.66 17.72 Z" fill="#cdd9e8" />
<path d="M 157.16 17.80 C 158.61 18.17 160.06 18.52 161.51 18.90 C 163.83 19.96 166.57 20.76 168.58 22.34 C 169.85 24.91 170.64 27.02 173.10 28.73 C 172.14 28.17 171.16 27.62 170.19 27.07 C 172.45 36.37 174.12 45.77 175.40 55.25 C 174.30 56.65 173.56 58.05 171.89 58.84 C 167.48 61.00 162.72 62.58 158.01 63.96 C 155.41 64.42 152.80 64.74 150.19 65.17 C 150.55 62.40 151.10 59.65 151.68 56.92 C 150.49 56.13 149.29 55.35 148.10 54.56 C 149.47 54.44 150.88 54.41 152.23 54.15 C 153.93 51.78 153.79 48.77 154.05 46.00 C 154.18 42.42 155.00 39.35 153.87 35.86 C 154.02 32.59 154.78 29.49 155.59 26.34 C 156.02 25.65 156.44 24.95 156.86 24.25 C 156.10 23.98 155.33 23.73 154.56 23.48 C 155.23 21.50 156.15 19.63 157.16 17.80 Z" fill="#00347c" />
<path d="M 38.94 18.77 C 39.56 19.19 40.19 19.62 40.81 20.05 C 40.29 20.98 39.78 21.91 39.27 22.85 C 40.84 22.78 42.44 22.72 44.00 22.55 C 46.32 25.03 47.23 27.92 48.22 31.09 C 47.72 31.80 47.21 32.52 46.70 33.22 L 45.13 33.11 C 45.96 29.98 45.64 27.05 42.77 25.17 C 38.98 22.75 33.85 25.58 33.64 29.98 C 33.35 32.89 35.16 35.52 37.95 36.33 C 39.56 36.77 41.44 36.15 43.03 35.80 C 41.80 37.64 40.09 38.06 38.12 38.79 C 37.24 45.92 39.49 52.05 41.28 58.79 C 42.24 58.92 43.19 59.04 44.14 59.16 C 42.34 59.67 40.57 60.28 38.78 60.81 C 33.46 62.17 28.60 64.58 23.35 66.19 C 24.40 53.47 26.58 40.92 29.33 28.46 C 29.83 26.45 30.10 24.00 31.27 22.27 C 33.57 20.71 36.36 19.79 38.94 18.77 Z" fill="#00357e" />
<path d="M 55.07 19.57 C 56.16 19.11 57.25 18.67 58.36 18.25 C 59.54 22.23 59.97 26.06 62.65 29.41 C 60.12 30.06 57.59 31.03 54.99 31.34 C 51.57 30.99 49.73 26.60 51.88 23.89 C 53.34 21.91 55.18 22.23 57.38 22.14 C 56.58 21.31 55.74 20.49 55.07 19.57 Z" fill="#e2e9f2" />
<path d="M 76.44 19.37 C 78.15 18.38 80.44 20.00 80.04 21.96 C 79.93 23.60 78.62 24.34 77.06 24.12 C 74.65 24.02 74.25 20.22 76.44 19.37 Z" fill="#003e8f" />
<path d="M 44.00 22.55 C 45.11 22.28 46.23 22.00 47.33 21.70 C 48.28 24.33 48.89 27.26 50.31 29.68 C 50.82 30.64 51.79 31.54 51.87 32.62 C 50.08 33.25 48.57 33.45 46.70 33.22 C 47.21 32.52 47.72 31.80 48.22 31.09 C 47.23 27.92 46.32 25.03 44.00 22.55 Z" fill="#d4deeb" />
<path d="M 144.02 23.00 C 146.10 24.55 145.74 26.53 145.82 28.86 C 143.26 28.23 140.72 27.50 138.15 26.90 C 138.73 27.66 139.34 28.37 140.00 29.06 C 141.57 29.41 143.32 29.10 144.92 29.14 C 143.63 30.76 142.17 31.89 139.99 31.27 C 137.27 30.64 135.70 27.58 136.75 24.99 C 137.80 22.13 141.62 21.00 144.02 23.00 Z" fill="#ecf1f6" />
<path d="M 150.92 21.47 C 151.10 23.00 151.27 24.53 151.43 26.06 C 148.84 28.65 148.65 30.43 149.01 33.91 C 147.97 33.52 146.93 33.14 145.89 32.76 C 146.55 30.79 147.20 28.82 147.84 26.84 C 147.55 26.22 147.28 25.60 147.02 24.97 C 148.15 23.65 149.56 22.54 150.92 21.47 Z" fill="#e5ebf3" />
<path d="M 154.56 23.48 C 155.33 23.73 156.10 23.98 156.86 24.25 C 156.44 24.95 156.02 25.65 155.59 26.34 C 154.78 29.49 154.02 32.59 153.87 35.86 C 152.30 35.12 150.78 34.31 149.36 33.31 C 150.20 32.80 151.05 32.29 151.90 31.78 C 152.37 29.91 152.76 28.27 152.28 26.34 L 154.11 25.82 C 154.24 25.04 154.39 24.26 154.56 23.48 Z" fill="#bbcade" />
<path d="M 56.76 24.27 C 58.73 25.12 58.98 28.20 56.88 28.98 C 54.94 29.94 53.81 28.17 52.68 26.92 C 53.66 25.69 54.80 23.15 56.76 24.27 Z" fill="#003c8a" />
<path d="M 140.23 24.10 C 142.68 23.39 143.10 25.21 144.42 26.72 C 142.52 26.37 140.65 25.97 138.77 25.52 C 139.24 25.03 139.73 24.56 140.23 24.10 Z" fill="#577cb0" />
<path d="M 42.77 25.17 C 45.64 27.05 45.96 29.98 45.13 33.11 C 44.46 34.03 43.77 34.94 43.03 35.80 C 41.44 36.15 39.56 36.77 37.95 36.33 C 35.16 35.52 33.35 32.89 33.64 29.98 C 33.85 25.58 38.98 22.75 42.77 25.17 Z" fill="#e8edf4" />
<path d="M 22.94 26.93 C 23.54 27.54 24.14 28.17 24.72 28.81 C 24.13 30.14 23.53 31.46 22.97 32.81 C 21.90 35.15 20.92 37.51 20.32 40.02 C 18.25 48.41 16.73 56.94 15.77 65.53 C 14.93 63.01 13.98 60.72 14.32 57.99 C 14.84 52.01 15.98 46.03 17.39 40.20 C 17.84 38.51 17.58 36.89 17.37 35.19 C 17.48 34.77 17.59 34.35 17.71 33.93 C 18.94 36.09 20.29 33.11 18.00 33.11 L 18.55 31.65 C 20.41 31.26 20.56 30.68 18.99 29.92 L 19.44 28.98 C 20.59 28.26 21.75 27.58 22.94 26.93 Z" fill="#c7bb92" />
<path d="M 37.47 27.53 C 39.46 26.13 41.97 26.89 42.87 29.12 C 43.88 31.55 41.74 34.48 39.07 33.92 C 35.96 33.50 34.99 29.45 37.47 27.53 Z" fill="#003884" />
<path d="M 29.33 28.46 C 26.58 40.92 24.40 53.47 23.35 66.19 C 21.74 82.96 22.67 99.55 29.18 115.27 C 32.38 122.72 35.67 130.02 40.23 136.77 C 41.37 138.42 42.81 139.66 44.26 141.02 L 43.77 141.71 C 48.27 148.02 53.36 153.60 58.65 159.21 C 59.41 160.00 60.19 160.77 60.99 161.51 C 63.01 163.33 65.02 165.15 67.05 166.95 C 71.41 170.35 75.61 173.99 80.09 177.22 C 86.50 181.87 93.10 186.17 99.97 190.09 C 108.34 185.20 116.42 179.97 124.08 174.03 C 124.60 173.63 125.11 173.24 125.63 172.85 C 127.13 171.70 128.59 170.50 130.05 169.29 L 131.11 168.43 C 132.22 167.49 133.33 166.53 134.42 165.55 C 135.73 164.36 137.04 163.15 138.33 161.93 C 142.20 158.10 146.27 154.27 149.51 149.88 C 158.76 140.13 165.49 127.55 170.75 115.28 C 174.61 105.65 176.81 95.38 177.14 85.00 C 177.47 75.08 176.64 65.09 175.40 55.25 C 174.12 45.77 172.45 36.37 170.19 27.07 C 171.16 27.62 172.14 28.17 173.10 28.73 L 173.42 29.00 C 178.17 47.28 180.41 66.90 179.67 85.78 C 178.72 106.41 169.53 126.96 157.42 143.45 C 145.17 159.97 129.46 174.21 112.77 186.13 C 108.45 188.85 104.29 191.81 99.96 194.49 C 95.63 191.82 91.48 188.88 87.19 186.15 C 72.34 175.59 58.43 163.21 46.86 149.10 C 34.56 134.02 25.12 116.05 21.49 96.83 C 18.51 78.98 20.50 59.92 23.54 42.18 C 24.40 37.57 25.25 33.00 26.67 28.52 C 27.56 28.48 28.44 28.47 29.33 28.46 Z" fill="#ffffff" />
<path d="M 166.23 30.65 C 165.76 31.45 165.27 32.24 164.76 33.02 C 163.07 32.74 161.75 30.93 160.02 30.50 C 158.14 31.31 157.46 32.74 158.25 34.66 C 159.68 36.09 162.56 35.65 164.42 36.12 C 162.42 37.36 160.94 38.74 158.49 37.46 C 154.93 35.94 154.75 30.97 158.02 29.01 C 160.44 27.11 163.81 29.88 166.23 30.65 Z" fill="#d2dbe8" />
<path d="M 178.58 28.08 C 181.58 34.39 183.04 41.00 184.34 47.82 L 185.44 46.66 C 187.28 56.11 188.42 65.65 188.89 75.26 C 187.00 80.03 188.04 84.53 187.24 89.48 C 186.57 93.76 185.82 98.00 185.47 102.33 C 184.62 100.16 184.11 97.78 183.64 95.51 C 184.84 88.47 184.60 81.10 184.19 73.99 C 182.84 59.07 180.91 43.05 175.34 29.05 C 176.43 28.74 177.51 28.42 178.58 28.08 Z" fill="#b9a87c" />
<path d="M 24.72 28.81 L 26.67 28.52 C 25.25 33.00 24.40 37.57 23.54 42.18 C 20.50 59.92 18.51 78.98 21.49 96.83 C 25.12 116.05 34.56 134.02 46.86 149.10 C 58.43 163.21 72.34 175.59 87.19 186.15 C 80.99 183.58 75.72 178.68 70.32 174.76 C 57.85 165.00 46.80 153.83 37.01 141.39 C 27.47 128.07 19.65 114.39 16.86 98.00 C 14.41 84.80 15.97 72.23 17.51 59.02 C 18.59 50.12 20.72 41.47 22.97 32.81 C 23.53 31.46 24.13 30.14 24.72 28.81 Z" fill="#00154e" />
<path d="M 173.42 29.00 L 173.32 28.69 L 175.34 29.05 C 180.91 43.05 182.84 59.07 184.19 73.99 C 184.60 81.10 184.84 88.47 183.64 95.51 C 182.27 102.45 180.61 109.29 177.79 115.80 C 173.99 125.07 168.60 133.30 162.85 141.43 C 149.85 158.00 134.36 172.16 117.00 184.03 C 115.64 184.86 114.21 185.46 112.77 186.13 C 129.46 174.21 145.17 159.97 157.42 143.45 C 169.53 126.96 178.72 106.41 179.67 85.78 C 180.41 66.90 178.17 47.28 173.42 29.00 Z" fill="#00154e" />
<path d="M 18.99 29.92 C 20.56 30.68 20.41 31.26 18.55 31.65 L 18.99 29.92 Z" fill="#968762" />
<path d="M 90.31 30.21 C 91.10 30.19 91.89 30.18 92.68 30.20 C 94.26 33.34 94.82 36.57 97.38 38.87 C 97.74 35.72 97.66 33.18 96.48 30.22 C 98.54 30.19 100.63 30.09 102.69 30.24 L 103.43 32.77 C 104.37 31.89 105.34 31.06 106.36 30.29 C 108.06 29.68 110.30 30.34 112.09 30.38 C 112.10 31.26 112.10 32.15 112.11 33.04 C 109.79 32.47 106.85 30.55 105.28 33.41 C 104.22 36.40 105.71 37.16 107.82 38.80 C 109.40 38.13 110.99 37.48 112.60 36.89 C 111.27 40.22 107.84 41.27 105.05 38.93 C 103.12 37.30 103.48 35.32 103.30 33.05 C 101.90 32.59 100.49 32.14 99.08 31.72 L 99.00 33.88 C 100.20 34.03 101.40 34.20 102.60 34.36 C 101.62 35.64 100.37 35.93 98.92 36.46 C 99.36 37.64 99.81 38.82 100.26 40.01 C 97.93 40.00 95.61 40.00 93.28 39.99 C 93.53 38.99 93.78 38.00 94.04 37.00 C 92.68 37.00 91.32 37.00 89.96 37.00 C 90.31 38.00 90.65 39.01 91.00 40.01 C 89.61 39.99 88.22 39.97 86.84 39.95 C 88.21 37.61 89.55 35.34 90.23 32.68 C 90.25 31.86 90.27 31.04 90.31 30.21 Z" fill="#b5c9e0" />
<path d="M 18.00 33.11 C 20.29 33.11 18.94 36.09 17.71 33.93 L 18.00 33.11 Z" fill="#908059" />
<path d="M 22.97 32.81 C 20.72 41.47 18.59 50.12 17.51 59.02 C 15.97 72.23 14.41 84.80 16.86 98.00 C 19.65 114.39 27.47 128.07 37.01 141.39 C 37.70 144.91 39.82 147.18 42.06 149.79 C 37.97 149.38 37.15 146.17 34.74 143.40 C 33.61 141.76 32.03 140.85 30.35 139.86 C 23.26 130.18 17.47 118.47 14.03 106.98 C 10.83 96.29 10.68 85.47 11.12 74.42 C 13.04 81.73 11.64 89.81 13.97 97.25 C 14.45 98.18 15.04 99.06 15.60 99.95 C 14.25 92.93 15.03 86.06 14.98 79.00 C 14.99 74.49 15.75 70.04 15.77 65.53 C 16.73 56.94 18.25 48.41 20.32 40.02 C 20.92 37.51 21.90 35.15 22.97 32.81 Z" fill="#9d8555" />
<path d="M 92.12 33.09 C 93.57 33.34 93.40 35.90 91.98 36.09 C 90.40 35.86 90.73 33.37 92.12 33.09 Z" fill="#1f5aa3" />
<path d="M 17.37 35.19 C 17.58 36.89 17.84 38.51 17.39 40.20 C 15.98 46.03 14.84 52.01 14.32 57.99 C 13.98 60.72 14.93 63.01 15.77 65.53 C 15.75 70.04 14.99 74.49 14.98 79.00 C 15.03 86.06 14.25 92.93 15.60 99.95 C 15.04 99.06 14.45 98.18 13.97 97.25 C 11.64 89.81 13.04 81.73 11.12 74.42 C 11.76 61.26 13.62 47.85 17.37 35.19 Z" fill="#b29f72" />
<path d="M 99.96 44.48 C 107.46 51.87 114.83 59.40 122.31 66.82 C 125.21 66.81 127.87 66.84 130.60 65.69 C 131.58 63.96 132.61 62.27 133.77 60.66 C 135.20 59.83 136.62 58.99 138.03 58.13 C 138.90 58.18 139.78 58.23 140.66 58.28 C 143.05 56.63 145.09 54.91 148.10 54.56 C 149.29 55.35 150.49 56.13 151.68 56.92 C 151.10 59.65 150.55 62.40 150.19 65.17 L 148.28 64.87 C 148.19 62.33 149.01 60.08 149.65 57.65 C 148.36 57.55 147.08 57.44 145.80 57.30 C 143.66 58.75 141.52 60.19 139.39 61.63 C 139.02 61.23 138.66 60.82 138.30 60.42 C 134.69 63.05 133.09 65.19 131.12 69.16 C 128.90 67.66 127.44 69.30 125.22 69.94 C 124.67 69.52 124.13 69.10 123.58 68.68 C 121.08 69.80 118.84 70.96 116.01 70.63 C 113.07 70.29 109.21 70.47 106.90 68.43 C 106.06 68.67 105.22 68.90 104.38 69.14 C 103.16 67.78 102.04 67.47 101.02 68.23 L 99.51 67.12 C 99.41 67.82 99.31 68.52 99.21 69.22 C 94.63 67.80 90.59 67.85 86.56 65.31 C 83.58 63.75 81.48 61.43 79.48 58.78 C 79.41 59.92 79.35 61.07 79.31 62.21 C 77.54 61.06 76.41 60.60 74.26 60.61 C 73.04 59.58 72.20 58.07 71.27 56.79 C 69.00 54.65 67.42 52.07 65.76 49.46 C 64.32 49.26 62.89 49.04 61.45 48.79 C 60.58 50.37 59.83 52.01 59.01 53.61 C 59.26 54.31 59.51 55.01 59.76 55.71 C 63.37 57.15 64.39 60.55 67.53 62.69 C 66.97 63.06 66.42 63.42 65.87 63.78 C 66.23 64.75 66.60 65.71 66.96 66.68 C 68.05 67.08 69.15 67.48 70.24 67.88 C 70.27 68.86 70.31 69.84 70.35 70.82 C 68.42 75.99 65.47 80.43 62.84 85.27 C 63.34 85.73 63.84 86.18 64.34 86.64 C 63.27 88.30 62.16 89.92 60.94 91.48 C 61.37 92.25 61.80 93.02 62.24 93.79 C 61.26 96.76 60.04 99.25 58.28 101.83 C 58.52 99.16 59.00 96.75 59.92 94.23 C 57.73 94.00 55.54 93.72 53.34 93.64 C 51.26 95.30 50.04 97.31 47.15 97.47 C 51.40 92.94 55.87 88.64 60.23 84.23 C 64.20 80.37 65.93 74.63 68.59 69.73 C 67.37 69.06 66.13 68.43 64.89 67.79 C 64.37 65.74 64.06 63.59 63.35 61.60 C 62.29 59.33 60.41 58.37 58.35 57.19 C 57.65 56.11 56.96 55.02 56.30 53.92 C 57.39 51.50 58.45 49.07 59.65 46.70 C 61.85 46.77 64.05 46.81 66.25 46.85 C 68.17 49.60 69.97 52.37 72.43 54.69 C 73.44 56.04 74.00 58.42 76.03 58.33 C 77.87 58.11 79.69 57.59 81.51 57.22 C 82.11 58.50 82.71 59.78 83.31 61.05 C 88.93 55.60 94.32 49.91 99.96 44.48 Z" fill="#fcfcfc" />
<path d="M 61.45 48.79 C 62.89 49.04 64.32 49.26 65.76 49.46 C 67.42 52.07 69.00 54.65 71.27 56.79 C 72.20 58.07 73.04 59.58 74.26 60.61 C 76.41 60.60 77.54 61.06 79.31 62.21 C 79.35 61.07 79.41 59.92 79.48 58.78 C 81.48 61.43 83.58 63.75 86.56 65.31 C 90.59 67.85 94.63 67.80 99.21 69.22 C 99.31 68.52 99.41 67.82 99.51 67.12 L 101.02 68.23 C 102.04 67.47 103.16 67.78 104.38 69.14 C 105.22 68.90 106.06 68.67 106.90 68.43 C 109.21 70.47 113.07 70.29 116.01 70.63 C 118.84 70.96 121.08 69.80 123.58 68.68 C 124.13 69.10 124.67 69.52 125.22 69.94 C 127.44 69.30 128.90 67.66 131.12 69.16 C 133.09 65.19 134.69 63.05 138.30 60.42 C 138.66 60.82 139.02 61.23 139.39 61.63 C 141.52 60.19 143.66 58.75 145.80 57.30 C 147.08 57.44 148.36 57.55 149.65 57.65 C 149.01 60.08 148.19 62.33 148.28 64.87 C 147.31 64.82 146.33 64.79 145.36 64.77 C 146.87 67.37 146.61 67.14 145.10 69.48 C 141.11 68.90 138.66 70.72 135.54 72.79 C 136.31 75.40 136.64 74.83 134.30 76.00 C 133.44 77.26 132.44 78.35 131.37 79.43 C 133.97 84.77 135.23 90.40 136.09 96.24 C 135.76 96.78 135.43 97.32 135.10 97.86 C 135.71 101.42 135.56 104.48 134.95 108.01 C 134.24 111.81 135.87 114.68 137.33 118.02 L 136.12 119.28 C 136.47 122.42 137.50 125.52 138.29 128.57 C 137.57 128.90 136.86 129.22 136.14 129.55 C 137.16 132.19 138.27 134.66 140.26 136.72 C 144.03 140.75 146.98 144.97 149.51 149.88 C 146.27 154.27 142.20 158.10 138.33 161.93 C 137.30 159.08 136.13 156.69 133.92 154.54 C 135.85 153.80 137.79 153.06 139.73 152.34 L 138.83 149.46 C 138.18 150.30 137.53 151.15 136.89 151.99 C 136.54 151.59 136.20 151.19 135.86 150.78 L 135.15 149.74 C 136.73 148.97 138.31 148.19 139.90 147.44 C 137.45 142.96 135.23 139.07 130.23 137.09 C 130.78 136.50 131.33 135.91 131.88 135.32 C 130.48 133.82 129.08 132.33 127.69 130.84 C 128.98 130.36 130.28 129.91 131.57 129.45 C 131.09 128.96 130.62 128.47 130.14 127.98 C 130.20 126.32 130.26 124.65 130.32 122.99 L 127.98 122.67 C 128.18 120.92 128.38 119.17 128.57 117.42 L 125.42 118.25 C 126.70 116.57 127.98 114.88 129.20 113.16 C 126.66 112.37 124.51 111.82 121.86 112.58 C 118.86 113.27 115.91 113.77 112.82 113.75 C 114.20 112.49 115.62 110.70 117.35 109.99 L 119.15 110.59 C 120.29 110.47 121.44 110.34 122.57 110.19 C 123.95 109.02 125.33 107.87 126.71 106.71 C 125.88 106.23 125.05 105.75 124.22 105.27 C 127.90 103.67 129.22 102.41 131.15 98.93 C 131.67 96.10 132.10 93.29 132.15 90.39 L 129.86 90.64 C 131.60 87.16 130.57 85.41 128.98 82.24 C 128.24 82.41 127.51 82.60 126.78 82.80 C 125.59 85.96 125.33 89.22 124.83 92.53 C 122.70 95.96 119.61 96.85 115.84 97.49 C 116.43 98.42 117.02 99.34 117.61 100.27 C 117.36 100.77 117.12 101.28 116.88 101.78 C 117.27 102.71 117.66 103.65 118.05 104.58 C 116.05 102.85 114.08 101.17 111.70 99.99 C 111.76 97.85 111.46 95.99 110.89 93.94 C 110.28 94.37 109.68 94.80 109.08 95.22 C 108.50 97.28 108.16 98.26 106.39 99.55 C 106.60 99.95 106.81 100.34 107.01 100.74 C 106.47 103.19 105.66 105.23 104.46 107.43 C 104.08 105.79 103.37 104.39 102.31 103.24 C 102.55 105.54 102.90 107.81 103.33 110.08 L 103.92 107.84 C 104.61 107.61 105.31 107.38 106.01 107.15 C 105.32 111.52 104.13 115.01 102.02 118.86 C 97.03 113.55 98.27 107.90 96.83 101.37 C 97.33 100.25 97.81 99.12 98.28 97.98 C 100.13 96.76 102.01 95.71 104.01 94.76 C 104.12 93.99 104.22 93.23 104.33 92.46 C 106.75 90.75 109.46 90.25 112.14 89.16 C 116.13 86.43 119.76 83.40 120.93 78.48 L 123.59 78.86 C 122.57 77.08 121.26 75.55 119.90 74.03 C 119.26 74.73 118.62 75.43 117.98 76.13 C 117.23 75.46 116.48 74.81 115.71 74.16 L 113.85 73.80 C 112.18 73.48 110.52 73.17 108.85 72.86 C 108.63 74.56 108.42 76.26 108.21 77.96 C 107.70 77.76 107.19 77.56 106.68 77.36 C 105.40 78.87 103.80 79.69 102.07 80.57 C 100.98 79.83 99.88 79.08 98.78 78.34 C 98.51 79.53 98.24 80.71 97.97 81.90 C 99.35 84.01 100.78 86.09 102.32 88.09 C 101.18 88.55 100.06 89.05 98.95 89.57 C 97.73 87.05 96.38 84.60 95.02 82.16 C 94.00 82.32 92.98 82.48 91.96 82.64 C 89.08 78.67 86.18 74.99 81.66 72.80 C 82.26 73.68 82.87 74.55 83.49 75.42 C 83.99 77.89 84.04 80.17 85.97 82.03 C 89.40 85.70 92.76 89.41 96.01 93.25 C 93.12 93.61 90.77 95.00 88.23 96.28 C 91.52 98.64 93.21 100.66 94.77 104.42 C 93.80 105.27 92.84 106.11 91.89 106.97 C 90.57 106.34 89.24 105.71 87.90 105.13 C 79.92 105.50 75.19 110.32 69.70 115.39 C 65.65 116.15 62.78 119.42 60.54 122.65 C 62.08 122.71 63.61 122.76 65.14 122.79 C 63.91 124.53 62.68 126.27 61.47 128.03 C 62.31 128.52 63.14 129.01 63.98 129.49 C 63.23 130.38 62.48 131.27 61.73 132.16 C 62.42 132.50 63.11 132.83 63.80 133.17 C 63.45 134.17 63.10 135.17 62.75 136.17 C 64.83 136.67 66.91 136.99 69.03 137.21 C 66.11 139.82 64.01 142.77 62.16 146.19 C 62.92 146.60 63.68 147.00 64.44 147.41 C 62.97 149.96 61.42 151.81 62.18 154.96 C 60.60 156.23 59.28 157.16 58.65 159.21 C 53.36 153.60 48.27 148.02 43.77 141.71 L 44.26 141.02 C 47.12 137.31 50.23 133.64 52.59 129.59 C 52.74 128.07 52.18 126.46 51.97 124.95 C 51.17 125.45 50.36 125.94 49.55 126.43 C 50.45 124.16 51.44 121.94 52.42 119.70 C 51.10 120.39 49.78 121.07 48.45 121.73 C 50.19 117.47 53.30 114.50 56.52 111.36 C 56.04 111.10 55.55 110.84 55.07 110.59 C 56.34 107.74 57.20 104.75 58.28 101.83 C 60.04 99.25 61.26 96.76 62.24 93.79 C 61.80 93.02 61.37 92.25 60.94 91.48 C 62.16 89.92 63.27 88.30 64.34 86.64 C 63.84 86.18 63.34 85.73 62.84 85.27 C 65.47 80.43 68.42 75.99 70.35 70.82 C 70.31 69.84 70.27 68.86 70.24 67.88 C 69.15 67.48 68.05 67.08 66.96 66.68 C 66.60 65.71 66.23 64.75 65.87 63.78 C 66.42 63.42 66.97 63.06 67.53 62.69 C 64.39 60.55 63.37 57.15 59.76 55.71 C 59.51 55.01 59.26 54.31 59.01 53.61 C 59.83 52.01 60.58 50.37 61.45 48.79 Z" fill="#000000" />
<path d="M 175.40 55.25 C 176.64 65.09 177.47 75.08 177.14 85.00 C 176.81 95.38 174.61 105.65 170.75 115.28 C 165.99 110.64 161.37 105.87 156.65 101.19 C 159.41 96.99 162.09 93.08 162.91 88.00 C 164.91 80.11 163.92 70.00 158.01 63.96 C 162.72 62.58 167.48 61.00 171.89 58.84 C 173.56 58.05 174.30 56.65 175.40 55.25 Z" fill="#001d58" />
<path d="M 58.35 57.19 C 60.41 58.37 62.29 59.33 63.35 61.60 C 64.06 63.59 64.37 65.74 64.89 67.79 C 66.13 68.43 67.37 69.06 68.59 69.73 C 65.93 74.63 64.20 80.37 60.23 84.23 C 55.87 88.64 51.40 92.94 47.15 97.47 C 45.81 98.66 44.51 99.90 43.24 101.17 C 39.39 97.05 37.83 91.96 36.47 86.62 C 34.72 77.78 36.66 68.42 41.61 60.91 C 40.67 60.87 39.72 60.84 38.78 60.81 C 40.57 60.28 42.34 59.67 44.14 59.16 C 48.87 58.46 53.61 57.79 58.35 57.19 Z" fill="#002463" />
<path d="M 38.78 60.81 C 39.72 60.84 40.67 60.87 41.61 60.91 C 36.66 68.42 34.72 77.78 36.47 86.62 C 37.83 91.96 39.39 97.05 43.24 101.17 C 38.57 105.89 33.89 110.60 29.18 115.27 C 22.67 99.55 21.74 82.96 23.35 66.19 C 28.60 64.58 33.46 62.17 38.78 60.81 Z" fill="#001c57" />
<path d="M 158.01 63.96 C 163.92 70.00 164.91 80.11 162.91 88.00 C 162.09 93.08 159.41 96.99 156.65 101.19 C 149.27 93.82 141.90 86.44 134.57 79.02 C 135.72 77.97 136.87 76.93 138.04 75.90 C 138.06 74.99 138.09 74.07 138.11 73.16 C 140.53 71.71 142.24 71.27 145.06 71.12 C 147.35 71.18 148.09 67.86 149.05 66.26 L 150.19 65.17 C 152.80 64.74 155.41 64.42 158.01 63.96 Z" fill="#002565" />
<path d="M 145.36 64.77 C 146.33 64.79 147.31 64.82 148.28 64.87 L 150.19 65.17 L 149.05 66.26 C 148.09 67.86 147.35 71.18 145.06 71.12 C 142.24 71.27 140.53 71.71 138.11 73.16 C 138.09 74.07 138.06 74.99 138.04 75.90 C 136.87 76.93 135.72 77.97 134.57 79.02 C 141.90 86.44 149.27 93.82 156.65 101.19 C 161.37 105.87 165.99 110.64 170.75 115.28 C 165.49 127.55 158.76 140.13 149.51 149.88 C 146.98 144.97 144.03 140.75 140.26 136.72 C 138.27 134.66 137.16 132.19 136.14 129.55 C 136.86 129.22 137.57 128.90 138.29 128.57 C 137.50 125.52 136.47 122.42 136.12 119.28 L 137.33 118.02 C 135.87 114.68 134.24 111.81 134.95 108.01 C 135.56 104.48 135.71 101.42 135.10 97.86 C 135.43 97.32 135.76 96.78 136.09 96.24 C 135.23 90.40 133.97 84.77 131.37 79.43 C 132.44 78.35 133.44 77.26 134.30 76.00 C 136.64 74.83 136.31 75.40 135.54 72.79 C 138.66 70.72 141.11 68.90 145.10 69.48 C 146.61 67.14 146.87 67.37 145.36 64.77 Z" fill="#f4f4f5" />
<path d="M 81.66 72.80 C 86.18 74.99 89.08 78.67 91.96 82.64 C 92.98 82.48 94.00 82.32 95.02 82.16 C 96.38 84.60 97.73 87.05 98.95 89.57 C 100.57 89.66 102.19 89.69 103.80 89.71 C 103.05 87.73 102.27 85.76 101.49 83.79 C 102.66 82.85 103.83 81.79 105.15 81.06 C 106.89 80.72 108.70 80.68 110.47 80.56 C 111.43 78.21 112.44 75.92 113.85 73.80 L 115.71 74.16 C 116.48 74.81 117.23 75.46 117.98 76.13 C 118.62 75.43 119.26 74.73 119.90 74.03 C 121.26 75.55 122.57 77.08 123.59 78.86 L 120.93 78.48 C 119.76 83.40 116.13 86.43 112.14 89.16 C 109.46 90.25 106.75 90.75 104.33 92.46 C 104.22 93.23 104.12 93.99 104.01 94.76 C 102.01 95.71 100.13 96.76 98.28 97.98 C 97.81 99.12 97.33 100.25 96.83 101.37 C 98.27 107.90 97.03 113.55 102.02 118.86 C 104.13 115.01 105.32 111.52 106.01 107.15 C 105.31 107.38 104.61 107.61 103.92 107.84 L 103.33 110.08 C 102.90 107.81 102.55 105.54 102.31 103.24 C 103.37 104.39 104.08 105.79 104.46 107.43 C 105.66 105.23 106.47 103.19 107.01 100.74 C 106.81 100.34 106.60 99.95 106.39 99.55 C 108.16 98.26 108.50 97.28 109.08 95.22 C 109.68 94.80 110.28 94.37 110.89 93.94 C 111.46 95.99 111.76 97.85 111.70 99.99 C 114.08 101.17 116.05 102.85 118.05 104.58 C 117.66 103.65 117.27 102.71 116.88 101.78 C 117.12 101.28 117.36 100.77 117.61 100.27 C 117.02 99.34 116.43 98.42 115.84 97.49 C 119.61 96.85 122.70 95.96 124.83 92.53 C 125.69 91.91 126.60 91.41 127.45 90.79 C 128.28 92.87 129.87 94.68 129.00 96.97 C 128.59 98.99 126.82 99.41 125.32 100.54 C 123.56 101.59 122.28 103.09 120.94 104.61 C 121.70 105.77 122.46 106.93 123.22 108.10 C 121.25 108.68 119.29 109.29 117.35 109.99 C 115.62 110.70 114.20 112.49 112.82 113.75 C 115.91 113.77 118.86 113.27 121.86 112.58 C 123.15 112.67 124.43 112.78 125.72 112.91 C 124.58 114.62 123.39 116.26 122.12 117.87 C 123.20 118.27 124.29 118.66 125.37 119.06 C 125.44 121.87 126.33 123.72 127.85 126.03 C 126.80 127.44 125.74 128.84 124.67 130.24 C 125.75 131.15 126.83 132.06 127.91 132.96 C 127.14 133.89 126.36 134.81 125.64 135.77 C 124.84 137.78 124.08 139.87 123.67 141.99 C 123.82 143.42 124.71 144.82 125.24 146.15 C 126.11 145.12 126.99 144.11 127.88 143.11 C 128.23 146.01 129.56 147.57 127.17 149.81 L 127.20 150.18 L 127.47 152.64 C 129.02 154.33 130.94 155.83 132.22 157.73 C 133.13 160.27 133.57 162.98 134.42 165.55 C 133.33 166.53 132.22 167.49 131.11 168.43 C 128.92 166.10 126.74 163.62 123.88 162.11 C 121.34 160.81 118.09 160.82 115.51 159.61 C 115.32 158.40 115.19 157.18 115.10 155.95 C 113.50 153.83 111.99 151.66 110.46 149.49 C 109.87 150.01 109.68 153.71 108.42 152.67 C 107.31 151.42 106.39 150.01 105.32 148.72 C 105.03 152.83 105.86 154.41 108.32 157.52 C 107.73 157.85 107.14 158.18 106.55 158.51 C 111.13 159.52 110.95 163.05 112.61 166.63 C 113.64 166.24 114.67 165.84 115.70 165.45 C 116.46 166.93 117.14 168.52 118.14 169.85 C 119.78 171.57 122.10 172.74 124.08 174.03 C 116.42 179.97 108.34 185.20 99.97 190.09 C 93.10 186.17 86.50 181.87 80.09 177.22 C 80.69 176.58 81.29 175.95 81.89 175.31 C 80.61 174.00 79.32 172.70 78.02 171.42 C 78.56 171.07 79.10 170.72 79.65 170.37 C 79.22 169.78 78.79 169.20 78.36 168.61 C 79.06 167.39 79.73 166.17 80.39 164.94 C 78.85 165.73 77.32 166.55 75.78 167.37 C 74.63 163.31 74.74 159.67 75.27 155.54 C 74.10 157.48 73.08 159.50 72.05 161.51 C 71.46 158.29 71.00 155.05 70.43 151.83 C 69.09 155.05 69.44 158.88 67.52 161.73 C 67.34 163.47 67.20 165.21 67.05 166.95 C 65.02 165.15 63.01 163.33 60.99 161.51 C 62.36 157.76 64.33 154.90 64.38 151.04 C 65.52 148.42 65.58 145.80 65.95 143.04 C 66.48 140.78 68.29 141.00 70.11 140.36 C 69.20 144.15 68.50 147.76 70.00 151.52 C 71.85 150.18 73.01 148.61 74.15 146.66 C 74.71 146.76 75.27 146.86 75.83 146.95 C 76.84 140.71 79.46 135.01 80.23 128.72 C 78.32 131.57 76.78 134.64 74.98 137.55 C 74.08 136.09 73.18 134.63 72.27 133.17 C 72.80 132.24 73.33 131.32 73.85 130.39 C 75.48 129.65 77.01 128.75 78.56 127.87 C 77.97 127.18 77.39 126.50 76.80 125.81 C 77.52 125.18 78.23 124.54 78.94 123.90 C 78.32 123.43 77.69 122.96 77.05 122.49 C 79.05 120.78 80.83 118.98 82.36 116.83 C 80.60 117.70 78.90 118.63 77.21 119.61 C 76.05 119.30 74.90 119.00 73.74 118.69 C 74.13 117.79 74.55 116.91 75.02 116.05 C 77.96 114.81 81.07 114.00 83.98 112.64 C 82.66 112.19 81.34 111.74 80.03 111.29 C 84.20 108.03 88.40 109.27 93.13 108.12 C 94.96 107.46 94.53 105.99 94.77 104.42 C 93.21 100.66 91.52 98.64 88.23 96.28 C 90.77 95.00 93.12 93.61 96.01 93.25 C 92.76 89.41 89.40 85.70 85.97 82.03 C 84.04 80.17 83.99 77.89 83.49 75.42 C 82.87 74.55 82.26 73.68 81.66 72.80 Z" fill="#c2c4c7" />
<path d="M 108.85 72.86 C 110.52 73.17 112.18 73.48 113.85 73.80 C 112.44 75.92 111.43 78.21 110.47 80.56 C 108.70 80.68 106.89 80.72 105.15 81.06 C 103.83 81.79 102.66 82.85 101.49 83.79 C 102.27 85.76 103.05 87.73 103.80 89.71 C 102.19 89.69 100.57 89.66 98.95 89.57 C 100.06 89.05 101.18 88.55 102.32 88.09 C 100.78 86.09 99.35 84.01 97.97 81.90 C 98.24 80.71 98.51 79.53 98.78 78.34 C 99.88 79.08 100.98 79.83 102.07 80.57 C 103.80 79.69 105.40 78.87 106.68 77.36 C 107.19 77.56 107.70 77.76 108.21 77.96 C 108.42 76.26 108.63 74.56 108.85 72.86 Z" fill="#97979b" />
<path d="M 188.89 75.26 C 189.49 87.86 188.58 100.24 184.21 112.16 C 180.00 123.50 174.12 134.39 166.66 143.92 C 163.04 145.71 161.35 148.97 158.56 151.63 C 157.70 152.56 156.99 152.31 155.83 152.29 C 158.47 148.71 161.55 145.86 162.85 141.43 C 168.60 133.30 173.99 125.07 177.79 115.80 C 180.61 109.29 182.27 102.45 183.64 95.51 C 184.11 97.78 184.62 100.16 185.47 102.33 C 185.82 98.00 186.57 93.76 187.24 89.48 C 188.04 84.53 187.00 80.03 188.89 75.26 Z" fill="#9c8454" />
<path d="M 126.78 82.80 C 127.51 82.60 128.24 82.41 128.98 82.24 C 130.57 85.41 131.60 87.16 129.86 90.64 L 132.15 90.39 C 132.10 93.29 131.67 96.10 131.15 98.93 C 129.22 102.41 127.90 103.67 124.22 105.27 C 125.05 105.75 125.88 106.23 126.71 106.71 C 125.33 107.87 123.95 109.02 122.57 110.19 C 121.44 110.34 120.29 110.47 119.15 110.59 L 117.35 109.99 C 119.29 109.29 121.25 108.68 123.22 108.10 C 122.46 106.93 121.70 105.77 120.94 104.61 C 122.28 103.09 123.56 101.59 125.32 100.54 C 126.82 99.41 128.59 98.99 129.00 96.97 C 129.87 94.68 128.28 92.87 127.45 90.79 C 126.60 91.41 125.69 91.91 124.83 92.53 C 125.33 89.22 125.59 85.96 126.78 82.80 Z" fill="#99999d" />
<path d="M 78.11 84.72 C 83.01 84.37 79.92 90.29 83.93 91.53 C 86.11 91.67 86.93 90.13 88.42 88.90 C 89.50 89.90 90.58 90.90 91.66 91.90 C 88.69 93.07 86.25 94.49 83.04 93.07 C 79.69 91.69 79.21 87.72 78.11 84.72 Z" fill="#fead16" />
<path d="M 120.12 84.77 C 121.38 86.78 123.31 88.28 122.81 90.88 C 121.61 93.75 118.14 95.78 115.04 95.10 C 113.42 94.55 113.02 93.20 112.09 91.91 C 113.95 92.35 116.93 94.41 118.53 92.52 C 120.94 90.25 117.61 87.30 120.12 84.77 Z" fill="#ffac17" />
<path d="M 83.11 86.06 C 84.88 84.90 86.09 87.64 83.96 88.06 C 82.82 87.74 82.53 87.08 83.11 86.06 Z" fill="#3f3f3f" />
<path d="M 116.21 88.39 C 118.01 87.20 119.21 89.90 117.05 90.34 C 115.88 90.05 115.60 89.40 116.21 88.39 Z" fill="#3d3d3d" />
<path d="M 53.34 93.64 C 55.54 93.72 57.73 94.00 59.92 94.23 C 59.00 96.75 58.52 99.16 58.28 101.83 C 57.20 104.75 56.34 107.74 55.07 110.59 C 55.55 110.84 56.04 111.10 56.52 111.36 C 53.30 114.50 50.19 117.47 48.45 121.73 C 49.78 121.07 51.10 120.39 52.42 119.70 C 51.44 121.94 50.45 124.16 49.55 126.43 C 50.36 125.94 51.17 125.45 51.97 124.95 C 52.18 126.46 52.74 128.07 52.59 129.59 C 50.23 133.64 47.12 137.31 44.26 141.02 C 42.81 139.66 41.37 138.42 40.23 136.77 C 35.67 130.02 32.38 122.72 29.18 115.27 C 33.89 110.60 38.57 105.89 43.24 101.17 C 44.51 99.90 45.81 98.66 47.15 97.47 C 50.04 97.31 51.26 95.30 53.34 93.64 Z" fill="#f4f4f5" />
<path d="M 87.90 105.13 C 89.24 105.71 90.57 106.34 91.89 106.97 C 92.84 106.11 93.80 105.27 94.77 104.42 C 94.53 105.99 94.96 107.46 93.13 108.12 C 88.40 109.27 84.20 108.03 80.03 111.29 C 81.34 111.74 82.66 112.19 83.98 112.64 C 81.07 114.00 77.96 114.81 75.02 116.05 C 74.55 116.91 74.13 117.79 73.74 118.69 C 74.90 119.00 76.05 119.30 77.21 119.61 C 75.59 120.55 73.82 120.96 72.01 121.38 C 70.12 124.05 65.69 127.12 66.27 130.65 C 66.14 131.77 66.01 132.88 65.88 134.00 C 68.50 132.69 71.14 131.49 73.85 130.39 C 73.33 131.32 72.80 132.24 72.27 133.17 C 73.18 134.63 74.08 136.09 74.98 137.55 C 74.65 138.08 74.32 138.61 73.98 139.13 C 73.20 137.92 72.41 136.72 71.61 135.52 C 71.10 137.13 70.57 138.73 70.11 140.36 C 68.29 141.00 66.48 140.78 65.95 143.04 C 65.58 145.80 65.52 148.42 64.38 151.04 C 64.33 154.90 62.36 157.76 60.99 161.51 C 60.19 160.77 59.41 160.00 58.65 159.21 C 59.28 157.16 60.60 156.23 62.18 154.96 C 61.42 151.81 62.97 149.96 64.44 147.41 C 63.68 147.00 62.92 146.60 62.16 146.19 C 64.01 142.77 66.11 139.82 69.03 137.21 C 66.91 136.99 64.83 136.67 62.75 136.17 C 63.10 135.17 63.45 134.17 63.80 133.17 C 63.11 132.83 62.42 132.50 61.73 132.16 C 62.48 131.27 63.23 130.38 63.98 129.49 C 63.14 129.01 62.31 128.52 61.47 128.03 C 62.68 126.27 63.91 124.53 65.14 122.79 C 63.61 122.76 62.08 122.71 60.54 122.65 C 62.78 119.42 65.65 116.15 69.70 115.39 C 75.19 110.32 79.92 105.50 87.90 105.13 Z" fill="#97979b" />
<path d="M 129.20 113.16 C 127.98 114.88 126.70 116.57 125.42 118.25 L 128.57 117.42 C 128.38 119.17 128.18 120.92 127.98 122.67 L 130.32 122.99 C 130.26 124.65 130.20 126.32 130.14 127.98 C 130.62 128.47 131.09 128.96 131.57 129.45 C 130.28 129.91 128.98 130.36 127.69 130.84 C 129.08 132.33 130.48 133.82 131.88 135.32 C 131.33 135.91 130.78 136.50 130.23 137.09 C 135.23 139.07 137.45 142.96 139.90 147.44 C 138.31 148.19 136.73 148.97 135.15 149.74 L 134.57 148.31 C 134.96 147.46 135.36 146.62 135.77 145.78 C 133.03 142.85 129.18 141.54 126.47 138.49 C 126.23 137.57 125.95 136.67 125.64 135.77 C 126.36 134.81 127.14 133.89 127.91 132.96 C 126.83 132.06 125.75 131.15 124.67 130.24 C 125.74 128.84 126.80 127.44 127.85 126.03 C 126.33 123.72 125.44 121.87 125.37 119.06 C 124.29 118.66 123.20 118.27 122.12 117.87 C 123.39 116.26 124.58 114.62 125.72 112.91 C 124.43 112.78 123.15 112.67 121.86 112.58 C 124.51 111.82 126.66 112.37 129.20 113.16 Z" fill="#97979b" />
<path d="M 110.14 114.55 C 111.32 115.66 112.47 116.80 113.64 117.93 C 113.29 119.05 112.94 120.18 112.60 121.30 C 111.49 119.71 110.38 118.11 109.26 116.52 C 109.55 115.87 109.84 115.21 110.14 114.55 Z" fill="#363738" />
<path d="M 82.36 116.83 C 80.83 118.98 79.05 120.78 77.05 122.49 C 77.69 122.96 78.32 123.43 78.94 123.90 C 78.23 124.54 77.52 125.18 76.80 125.81 C 77.39 126.50 77.97 127.18 78.56 127.87 C 77.01 128.75 75.48 129.65 73.85 130.39 C 71.14 131.49 68.50 132.69 65.88 134.00 C 66.01 132.88 66.14 131.77 66.27 130.65 C 65.69 127.12 70.12 124.05 72.01 121.38 C 73.82 120.96 75.59 120.55 77.21 119.61 C 78.90 118.63 80.60 117.70 82.36 116.83 Z" fill="#000000" />
<path d="M 119.37 124.90 C 119.49 128.79 119.00 132.45 118.00 136.21 C 118.67 135.44 119.35 134.67 120.02 133.90 C 120.02 136.51 120.02 139.13 119.88 141.73 C 118.62 139.98 117.02 138.29 117.07 135.99 C 117.26 131.95 116.74 128.24 119.37 124.90 Z" fill="#4b4c4d" />
<path d="M 100.99 127.08 C 103.66 133.23 103.50 139.28 103.52 145.85 C 102.26 148.16 101.19 150.56 100.15 152.98 C 99.29 150.37 98.07 148.16 96.47 145.94 C 94.70 149.33 94.06 151.75 94.01 155.62 L 92.32 155.24 C 92.14 156.67 91.94 158.10 91.73 159.53 C 90.95 158.77 90.46 157.93 90.25 157.01 C 89.10 148.39 86.18 140.37 88.50 131.50 C 90.31 135.28 90.40 139.68 91.96 143.60 C 94.80 141.86 95.66 141.36 96.16 137.79 C 97.04 139.34 97.87 140.91 98.68 142.49 C 99.33 142.36 99.99 142.23 100.64 142.10 C 101.36 137.06 100.72 132.10 100.99 127.08 Z" fill="#000000" />
<path d="M 80.23 128.72 C 79.46 135.01 76.84 140.71 75.83 146.95 C 75.27 146.86 74.71 146.76 74.15 146.66 C 73.01 148.61 71.85 150.18 70.00 151.52 C 68.50 147.76 69.20 144.15 70.11 140.36 C 70.57 138.73 71.10 137.13 71.61 135.52 C 72.41 136.72 73.20 137.92 73.98 139.13 C 74.32 138.61 74.65 138.08 74.98 137.55 C 76.78 134.64 78.32 131.57 80.23 128.72 Z" fill="#000000" />
<path d="M 114.44 132.27 C 115.56 138.43 116.29 144.23 119.01 149.98 C 120.70 153.44 122.56 156.82 124.27 160.27 C 121.52 158.11 119.79 157.06 116.31 156.61 C 115.92 154.78 115.75 152.78 114.99 151.05 C 114.01 149.72 112.42 148.78 111.11 147.78 C 112.23 147.58 113.36 147.37 114.48 147.16 C 113.77 142.01 112.62 137.37 114.44 132.27 Z" fill="#000000" />
<path d="M 125.64 135.77 C 125.95 136.67 126.23 137.57 126.47 138.49 L 126.04 142.58 C 126.89 142.61 127.75 142.64 128.60 142.68 C 129.98 145.34 131.55 147.88 132.97 150.52 L 132.36 151.77 C 132.14 152.19 131.92 152.60 131.70 153.02 C 130.20 152.07 128.69 151.15 127.20 150.18 L 127.17 149.81 C 129.56 147.57 128.23 146.01 127.88 143.11 C 126.99 144.11 126.11 145.12 125.24 146.15 C 124.71 144.82 123.82 143.42 123.67 141.99 C 124.08 139.87 124.84 137.78 125.64 135.77 Z" fill="#010101" />
<path d="M 110.33 136.79 C 110.85 140.23 111.31 143.63 111.01 147.12 C 109.15 145.95 107.53 144.60 105.96 143.07 C 109.32 142.61 109.08 139.34 110.33 136.79 Z" fill="#000000" />
<path d="M 126.47 138.49 C 129.18 141.54 133.03 142.85 135.77 145.78 C 135.36 146.62 134.96 147.46 134.57 148.31 L 135.15 149.74 L 135.86 150.78 C 134.69 151.11 133.53 151.44 132.36 151.77 L 132.97 150.52 C 131.55 147.88 129.98 145.34 128.60 142.68 C 127.75 142.64 126.89 142.61 126.04 142.58 L 126.47 138.49 Z" fill="#c2c4c7" />
<path d="M 30.35 139.86 C 32.03 140.85 33.61 141.76 34.74 143.40 C 37.15 146.17 37.97 149.38 42.06 149.79 C 39.82 147.18 37.70 144.91 37.01 141.39 C 46.80 153.83 57.85 165.00 70.32 174.76 C 69.13 175.77 67.93 176.78 66.74 177.79 C 53.17 166.96 40.05 154.32 30.35 139.86 Z" fill="#8b7141" />
<path d="M 162.85 141.43 C 161.55 145.86 158.47 148.71 155.83 152.29 C 156.99 152.31 157.70 152.56 158.56 151.63 C 161.35 148.97 163.04 145.71 166.66 143.92 C 149.50 167.11 124.87 185.76 99.99 200.00 L 99.90 200.00 C 88.36 193.33 77.18 186.09 66.74 177.79 C 67.93 176.78 69.13 175.77 70.32 174.76 C 75.72 178.68 80.99 183.58 87.19 186.15 C 91.48 188.88 95.63 191.82 99.96 194.49 C 104.29 191.81 108.45 188.85 112.77 186.13 C 114.21 185.46 115.64 184.86 117.00 184.03 C 134.36 172.16 149.85 158.00 162.85 141.43 Z" fill="#836938" />
<path d="M 105.32 148.72 C 106.39 150.01 107.31 151.42 108.42 152.67 C 109.68 153.71 109.87 150.01 110.46 149.49 C 111.99 151.66 113.50 153.83 115.10 155.95 C 115.19 157.18 115.32 158.40 115.51 159.61 C 118.09 160.82 121.34 160.81 123.88 162.11 C 126.74 163.62 128.92 166.10 131.11 168.43 L 130.05 169.29 C 127.34 167.95 124.91 167.33 121.91 166.94 C 123.15 168.91 124.40 170.87 125.63 172.85 C 125.11 173.24 124.60 173.63 124.08 174.03 C 122.10 172.74 119.78 171.57 118.14 169.85 C 117.14 168.52 116.46 166.93 115.70 165.45 C 114.67 165.84 113.64 166.24 112.61 166.63 C 110.95 163.05 111.13 159.52 106.55 158.51 C 107.14 158.18 107.73 157.85 108.32 157.52 C 105.86 154.41 105.03 152.83 105.32 148.72 Z" fill="#000000" />
<path d="M 138.83 149.46 L 139.73 152.34 C 137.79 153.06 135.85 153.80 133.92 154.54 C 136.13 156.69 137.30 159.08 138.33 161.93 C 137.04 163.15 135.73 164.36 134.42 165.55 C 133.57 162.98 133.13 160.27 132.22 157.73 C 130.94 155.83 129.02 154.33 127.47 152.64 L 127.20 150.18 C 128.69 151.15 130.20 152.07 131.70 153.02 C 131.92 152.60 132.14 152.19 132.36 151.77 C 133.53 151.44 134.69 151.11 135.86 150.78 C 136.20 151.19 136.54 151.59 136.89 151.99 C 137.53 151.15 138.18 150.30 138.83 149.46 Z" fill="#98989c" />
<path d="M 81.10 150.53 C 81.87 153.32 82.52 156.01 84.22 158.42 C 84.72 157.45 85.21 156.49 85.71 155.52 C 86.97 158.66 88.43 161.67 90.30 164.49 C 90.07 165.74 89.84 166.98 89.61 168.23 C 88.52 167.40 87.35 166.59 86.40 165.61 C 85.54 163.70 85.25 161.56 84.38 159.63 C 82.86 159.22 81.27 159.02 79.73 158.74 C 80.02 155.97 80.41 153.22 81.10 150.53 Z" fill="#000000" />
<path d="M 70.43 151.83 C 71.00 155.05 71.46 158.29 72.05 161.51 C 73.08 159.50 74.10 157.48 75.27 155.54 C 74.74 159.67 74.63 163.31 75.78 167.37 C 77.32 166.55 78.85 165.73 80.39 164.94 C 79.73 166.17 79.06 167.39 78.36 168.61 C 78.79 169.20 79.22 169.78 79.65 170.37 C 79.10 170.72 78.56 171.07 78.02 171.42 C 79.32 172.70 80.61 174.00 81.89 175.31 C 81.29 175.95 80.69 176.58 80.09 177.22 C 75.61 173.99 71.41 170.35 67.05 166.95 C 67.20 165.21 67.34 163.47 67.52 161.73 C 69.44 158.88 69.09 155.05 70.43 151.83 Z" fill="#000000" />
<path d="M 121.91 166.94 C 124.91 167.33 127.34 167.95 130.05 169.29 C 128.59 170.50 127.13 171.70 125.63 172.85 C 124.40 170.87 123.15 168.91 121.91 166.94 Z" fill="#c1c3c6" />
<path d="M 102.54 170.75 C 105.85 170.06 105.94 172.93 107.26 175.17 C 107.52 173.74 107.79 172.31 108.05 170.88 C 109.44 170.86 110.82 170.85 112.21 170.83 L 112.18 172.23 C 111.12 172.24 110.06 172.25 109.00 172.26 L 109.00 173.68 C 111.14 174.11 113.30 174.22 113.17 177.02 C 113.47 179.47 111.44 179.87 109.94 181.27 C 108.27 180.05 107.22 179.11 106.45 177.12 C 107.85 177.78 109.28 178.88 110.83 179.08 C 112.55 176.75 111.52 176.78 110.21 174.78 C 109.56 175.24 108.92 175.70 108.28 176.17 C 107.67 175.78 107.07 175.40 106.47 175.02 C 105.57 176.68 104.66 178.33 103.75 179.98 C 103.08 180.17 102.41 180.36 101.74 180.55 C 102.21 179.57 102.68 178.59 103.16 177.61 C 102.40 177.38 101.64 177.16 100.88 176.94 C 99.78 174.28 99.46 172.04 102.54 170.75 Z" fill="#373839" />
<path d="M 87.73 170.86 C 88.82 170.86 89.91 170.86 91.00 170.86 C 91.13 174.24 90.49 177.18 92.09 180.30 C 90.79 180.27 89.49 180.25 88.19 180.23 C 88.61 179.56 89.03 178.89 89.45 178.22 C 89.40 176.46 89.35 174.71 89.21 172.96 C 88.73 172.26 88.23 171.55 87.73 170.86 Z" fill="#3f4041" />
<path d="M 99.04 172.98 C 99.17 175.06 100.83 178.43 98.81 179.93 C 97.38 180.78 95.45 180.14 93.88 180.04 C 93.78 178.37 93.81 176.76 93.94 175.09 C 94.00 174.13 94.08 173.18 94.21 172.24 C 95.29 169.96 99.08 170.05 99.04 172.98 Z" fill="#313132" />
<path d="M 97.99 173.79 C 97.00 175.59 95.56 174.55 95.01 173.08 C 96.12 171.66 98.35 171.42 97.99 173.79 Z" fill="#a8aaad" />
<path d="M 102.89 171.52 L 104.84 173.45 C 105.59 175.57 103.95 176.17 102.16 176.01 C 101.73 174.57 101.98 173.07 102.89 171.52 Z" fill="#c3c5c8" />
<path d="M 97.85 175.78 C 97.93 176.97 97.99 178.15 98.04 179.34 C 96.93 178.80 94.65 178.84 94.98 177.06 C 95.71 176.35 96.66 175.92 97.85 175.78 Z" fill="#bdbfc2" />
</svg>