<?xml version="1.0" encoding="UTF-8" standalone="no"?>
<!DOCTYPE svg PUBLIC "-//W3C//DTD SVG 1.1//EN" "http://www.w3.org/Graphics/SVG/1.1/DTD/svg11.dtd">
<svg xmlns="http://www.w3.org/2000/svg" version="1.1" viewBox="0 0 200 200" width="200.0pt" height="200.0pt">
<path d="M 0.00 0.00 L 200.00 0.00 L 200.00 200.00 L 0.00 200.00 L 0.00 0.00 Z" fill="#ffffff" />
<path d="M 100.04 2.04 C 103.17 4.48 106.36 6.65 110.15 7.95 C 124.44 13.26 140.43 11.99 155.08 8.88 C 156.14 16.03 158.07 22.90 161.85 29.12 C 165.16 34.71 169.69 38.51 175.63 41.09 C 168.44 52.12 163.71 64.91 162.23 78.00 C 160.89 89.84 162.84 101.95 168.52 112.47 C 171.58 118.02 173.93 123.87 174.89 130.16 C 176.24 138.96 174.41 148.52 168.14 155.13 C 163.05 160.64 155.41 163.22 147.99 162.37 C 140.51 161.56 132.86 157.32 125.87 155.24 C 122.52 154.19 119.30 154.88 116.13 156.12 C 110.56 158.34 105.25 161.49 100.02 164.41 C 94.79 161.46 89.48 158.32 83.89 156.10 C 80.72 154.86 77.48 154.19 74.14 155.25 C 67.69 157.19 60.86 160.85 54.03 162.08 C 47.72 163.28 40.93 162.03 35.64 158.34 C 31.02 155.14 27.72 150.34 26.13 144.97 C 23.95 137.94 24.56 130.68 26.66 123.72 C 28.88 115.99 33.85 109.73 35.89 101.91 C 41.92 81.73 35.65 58.38 24.45 41.09 C 27.90 39.41 31.18 37.68 33.83 34.84 C 40.49 27.84 43.63 18.27 44.98 8.88 C 56.90 11.36 68.72 12.64 80.82 10.45 C 87.87 9.17 94.51 6.71 100.04 2.04 Z" fill="#b48d01" />
<path d="M 100.03 7.57 C 115.63 17.30 134.15 16.79 151.66 13.95 C 154.13 25.33 158.99 35.79 168.91 42.49 C 160.94 42.30 152.97 42.43 145.00 42.39 C 107.05 42.46 69.08 42.27 31.13 42.49 C 41.09 35.83 45.93 25.34 48.41 13.95 C 65.90 16.78 84.45 17.31 100.03 7.57 Z" fill="#ffffff" />
<path d="M 93.17 19.30 C 96.85 19.34 100.54 19.35 104.22 19.30 C 104.37 20.57 104.52 21.84 104.68 23.10 C 106.17 23.07 107.67 23.04 109.16 23.01 C 109.63 22.28 110.10 21.54 110.56 20.81 C 110.57 22.70 110.60 24.59 110.61 26.48 C 110.16 27.02 109.71 27.56 109.26 28.10 C 109.26 29.30 109.25 30.50 109.25 31.69 C 110.41 32.03 111.57 32.35 112.74 32.67 C 109.31 33.16 107.70 35.16 105.50 37.52 C 103.73 39.00 102.89 36.47 102.06 35.36 C 99.77 36.46 98.35 34.98 96.14 35.03 C 94.51 36.00 93.03 38.11 91.00 37.88 C 89.04 37.71 87.46 35.68 86.03 34.48 C 84.54 35.80 83.13 37.76 81.00 37.91 C 78.59 37.89 77.48 36.02 75.88 34.54 C 74.47 35.72 72.88 37.62 70.99 37.89 C 68.56 38.02 67.52 36.31 65.92 34.85 C 64.24 34.82 62.57 34.81 60.90 34.81 C 60.05 36.27 59.92 37.68 58.04 38.10 C 56.04 37.39 56.22 35.75 55.53 34.03 C 54.01 33.78 52.48 33.52 50.96 33.22 C 54.35 31.45 57.74 32.87 60.88 29.97 C 57.32 29.06 58.62 25.59 58.85 22.94 C 60.04 22.89 61.23 22.83 62.43 22.78 C 62.42 21.74 62.42 20.70 62.41 19.66 L 64.44 19.66 C 64.46 20.70 64.48 21.74 64.49 22.78 C 69.35 22.97 73.93 22.75 78.74 22.08 C 79.15 21.14 79.56 20.20 79.98 19.26 C 80.44 20.14 80.90 21.03 81.36 21.92 C 85.03 21.23 88.69 21.37 92.40 21.31 C 92.66 20.64 92.92 19.97 93.17 19.30 Z" fill="#dd161b" />
<path d="M 96.68 21.56 C 98.60 21.66 101.08 21.28 102.80 22.19 C 102.93 24.07 102.36 24.26 101.08 25.48 C 100.72 28.62 100.56 31.77 100.57 34.93 L 99.44 34.93 C 99.43 31.62 99.22 28.35 98.97 25.05 C 98.04 24.87 97.11 24.68 96.19 24.48 C 96.32 23.51 96.49 22.54 96.68 21.56 Z" fill="#ffffff" />
<path d="M 118.97 23.43 C 125.51 23.26 132.06 23.54 138.61 23.32 C 141.82 25.80 140.99 28.25 141.06 31.86 C 142.02 31.96 142.98 32.05 143.95 32.15 L 143.93 33.13 C 143.16 33.17 142.40 33.20 141.63 33.24 C 139.91 34.78 138.31 37.40 136.02 38.00 C 134.21 37.71 133.14 35.68 132.05 34.38 C 130.89 35.83 130.20 37.91 128.06 37.96 C 126.40 37.66 125.21 35.60 124.10 34.46 C 122.94 35.90 121.75 38.94 119.39 37.63 C 116.93 35.58 115.01 33.26 111.91 32.07 L 115.25 31.95 C 115.27 29.87 115.26 27.79 115.33 25.71 C 116.34 24.75 117.42 23.28 118.97 23.43 Z" fill="#dd161b" />
<path d="M 70.03 26.36 C 72.39 26.04 73.94 27.23 75.85 28.38 C 79.65 25.63 82.22 25.62 86.04 28.36 C 87.97 27.18 89.58 26.02 91.98 26.37 C 94.57 26.53 95.94 28.20 97.37 30.14 C 95.41 29.03 93.33 26.94 90.99 27.18 C 88.79 27.15 87.69 28.53 86.09 29.74 C 84.42 28.52 83.27 27.09 81.00 27.18 C 78.67 27.04 77.50 28.49 75.78 29.73 C 74.23 28.54 73.15 27.20 71.02 27.18 C 68.22 26.95 66.86 28.61 65.07 30.38 C 63.96 30.24 62.85 30.09 61.74 29.91 C 62.73 29.73 63.72 29.56 64.71 29.38 C 66.41 27.97 67.65 26.45 70.03 26.36 Z" fill="#ffffff" />
<path d="M 32.59 46.21 C 54.46 46.21 76.33 46.29 98.20 46.17 C 98.43 57.72 98.40 69.35 98.22 80.90 C 93.82 81.87 89.73 83.19 86.45 86.44 C 82.82 89.77 81.17 94.10 80.35 98.86 C 67.28 99.18 54.17 98.94 41.09 98.98 C 42.73 89.99 42.90 81.02 41.21 72.01 C 39.71 62.91 36.26 54.60 32.59 46.21 Z" fill="#dd161b" />
<path d="M 101.76 46.19 C 118.37 46.30 134.98 46.20 151.59 46.24 C 136.72 58.29 121.59 70.01 106.68 82.01 C 105.04 81.67 103.40 81.33 101.75 81.00 C 101.73 69.40 101.72 57.79 101.76 46.19 Z" fill="#ffffff" />
<path d="M 156.46 50.21 C 157.04 50.98 157.63 51.74 158.22 52.50 C 157.08 52.21 155.93 51.92 154.79 51.64 C 154.31 53.32 153.62 54.54 154.74 56.16 C 155.78 57.65 158.01 59.69 159.74 57.95 C 160.12 56.83 160.47 55.70 160.79 54.55 C 160.99 55.51 161.25 56.49 161.32 57.47 C 159.98 59.18 157.44 61.05 155.26 59.73 C 153.13 58.71 151.84 56.23 152.61 53.92 C 153.29 52.15 155.02 51.28 156.46 50.21 Z" fill="#ffffff" />
<path d="M 150.23 55.36 L 151.46 56.33 C 150.08 56.57 149.08 57.07 148.46 57.84 C 149.89 60.11 151.71 62.04 153.80 63.70 C 152.95 64.28 152.10 64.86 151.25 65.45 C 149.66 62.89 147.95 60.74 145.81 58.62 C 147.26 57.49 148.68 56.33 150.23 55.36 Z" fill="#ffffff" />
<path d="M 62.12 56.94 C 68.42 59.74 74.95 61.27 80.13 66.10 C 77.44 66.32 75.00 66.19 72.35 65.71 C 72.98 66.53 73.61 67.35 74.24 68.17 C 71.98 68.20 69.37 68.53 67.20 67.80 C 65.85 67.09 64.64 66.04 63.41 65.14 C 64.43 66.28 65.56 68.13 67.19 68.36 C 70.46 68.94 73.90 68.68 77.21 68.85 C 76.52 71.95 75.78 73.53 73.20 75.46 C 72.06 77.98 71.07 80.57 70.16 83.18 C 70.94 83.60 71.71 84.02 72.49 84.43 C 70.35 84.55 69.00 84.87 67.20 86.00 C 65.66 85.40 64.63 85.44 63.08 86.00 C 62.39 85.51 61.70 85.01 61.02 84.50 C 62.41 83.92 63.79 83.54 65.29 83.41 C 66.63 80.77 67.74 78.04 68.79 75.28 C 64.64 75.26 60.95 75.38 57.93 72.07 C 54.77 68.90 56.05 64.83 53.40 61.16 C 52.45 61.16 51.51 61.16 50.56 61.18 C 52.16 59.91 53.50 58.35 55.08 57.06 C 57.20 55.58 59.87 55.99 62.12 56.94 Z" fill="#ffffff" />
<path d="M 57.44 58.08 C 59.17 56.85 60.33 59.67 58.27 60.09 C 57.17 59.78 56.89 59.11 57.44 58.08 Z" fill="#dd161b" />
<path d="M 91.42 57.49 C 89.26 59.43 86.71 60.13 84.09 61.14 C 82.37 61.73 81.12 63.58 79.85 64.83 C 78.35 63.86 76.84 62.90 75.32 61.95 C 80.73 59.90 85.47 57.49 91.42 57.49 Z" fill="#ffffff" />
<path d="M 151.10 58.56 C 152.49 57.54 153.76 59.93 151.97 60.32 C 150.98 60.04 150.69 59.45 151.10 58.56 Z" fill="#ffffff" />
<path d="M 142.45 61.31 C 144.08 64.03 145.84 66.65 147.64 69.25 C 144.76 68.67 141.90 67.96 139.02 67.31 C 140.46 69.05 141.93 70.50 143.76 71.81 C 143.13 72.16 142.50 72.50 141.87 72.85 C 140.61 70.91 138.98 66.42 136.12 66.89 C 136.09 70.06 138.03 73.17 138.90 76.23 C 136.96 75.31 135.11 74.24 133.30 73.10 C 134.04 75.10 134.75 77.10 135.27 79.17 C 132.42 77.42 129.65 75.53 126.79 73.79 C 127.50 73.19 128.19 72.58 128.88 71.95 C 130.29 73.19 131.71 74.42 133.15 75.64 C 132.47 73.63 131.79 71.62 131.14 69.60 C 133.12 70.63 135.06 71.72 137.01 72.81 C 136.07 71.14 135.11 69.47 134.15 67.81 C 135.46 66.78 136.77 65.76 138.09 64.74 C 140.33 65.34 142.57 65.91 144.83 66.40 C 143.55 64.91 142.20 63.49 140.79 62.12 C 141.34 61.84 141.90 61.57 142.45 61.31 Z" fill="#ffffff" />
<path d="M 160.12 65.96 C 157.39 76.98 156.85 87.82 158.97 99.00 C 145.70 98.96 132.42 99.12 119.15 98.92 C 122.24 95.60 125.90 93.19 129.38 90.33 C 139.62 82.20 149.87 74.08 160.12 65.96 Z" fill="#ffffff" />
<path d="M 73.52 66.68 C 76.79 66.64 79.68 66.05 82.45 68.16 C 79.77 68.22 75.17 69.49 73.52 66.68 Z" fill="#ffffff" />
<path d="M 72.36 74.19 C 71.25 77.81 69.92 81.32 67.81 84.49 C 66.37 82.22 68.20 79.30 68.99 77.06 C 69.76 75.09 70.30 74.78 72.36 74.19 Z" fill="#dd161b" />
<path d="M 124.93 75.33 C 127.64 75.35 130.00 77.25 130.27 79.99 C 130.58 82.41 128.29 84.54 125.99 84.57 C 123.93 84.33 123.04 82.87 121.66 81.56 C 120.46 81.30 119.26 81.05 118.05 80.82 C 119.57 83.58 121.23 85.63 123.58 87.72 C 122.75 88.24 121.91 88.76 121.08 89.29 C 119.63 86.68 118.00 84.59 115.87 82.50 C 115.73 83.65 115.59 84.80 115.45 85.96 C 114.93 85.26 114.41 84.56 113.89 83.86 C 115.81 82.32 117.75 80.80 119.57 79.15 L 120.13 80.69 C 121.48 78.86 122.73 76.18 124.93 75.33 Z" fill="#ffffff" />
<path d="M 124.07 76.94 C 125.64 76.10 129.99 81.12 128.72 82.68 C 126.69 84.07 124.84 81.77 123.72 80.27 C 123.15 79.50 122.32 76.60 124.07 76.94 Z" fill="#b48d01" />
<path d="M 102.02 82.94 C 110.35 83.78 117.07 90.67 117.92 98.97 C 118.51 103.64 116.71 107.36 114.91 111.49 C 114.45 111.05 114.00 110.60 113.55 110.15 C 118.33 103.86 117.50 94.76 111.90 89.27 C 113.14 93.44 115.38 96.49 115.09 101.01 C 115.03 104.77 113.50 107.78 112.05 111.13 C 112.63 111.61 113.22 112.09 113.81 112.57 C 108.69 117.51 102.05 120.14 94.99 117.96 C 85.76 115.33 79.92 105.12 82.78 95.86 C 85.05 87.57 93.46 81.85 102.02 82.94 Z" fill="#ffffff" />
<path d="M 97.36 84.36 C 99.14 84.15 100.98 84.18 102.77 84.16 C 103.01 86.23 103.23 88.31 103.44 90.38 C 101.17 90.37 98.89 90.37 96.62 90.38 C 96.82 88.38 96.97 86.33 97.36 84.36 Z" fill="#b48d01" />
<path d="M 95.83 84.58 C 95.65 86.62 95.40 88.64 95.18 90.67 C 93.00 91.06 90.82 91.45 88.63 91.86 C 89.47 90.11 90.16 87.97 91.52 86.57 C 92.83 85.71 94.39 85.18 95.83 84.58 Z" fill="#b48d01" />
<path d="M 104.32 84.47 C 105.84 85.25 107.71 85.82 108.98 87.00 C 110.02 88.46 110.69 90.24 111.42 91.87 C 109.23 91.46 107.05 91.04 104.86 90.65 C 104.67 88.59 104.49 86.53 104.32 84.47 Z" fill="#b48d01" />
<path d="M 88.18 89.28 C 87.08 93.01 84.95 96.23 84.95 99.99 C 84.77 104.64 86.94 107.93 88.07 112.30 C 81.98 105.84 81.73 95.59 88.18 89.28 Z" fill="#b48d01" />
<path d="M 110.83 93.30 C 112.58 93.66 112.90 96.07 113.72 97.40 C 104.03 95.75 96.06 95.73 86.37 97.40 C 87.14 96.14 87.49 93.67 89.16 93.32 C 95.41 91.14 104.58 91.13 110.83 93.30 Z" fill="#b48d01" />
<path d="M 113.98 98.99 C 113.89 100.22 113.81 101.45 113.74 102.68 C 106.16 104.34 98.59 104.06 90.90 103.62 C 90.98 104.09 91.06 104.55 91.14 105.02 C 98.68 105.55 106.00 105.46 113.48 104.26 C 112.96 105.53 112.44 106.80 111.91 108.07 C 103.24 110.49 96.73 110.51 88.07 108.03 C 87.62 106.78 87.17 105.53 86.71 104.28 C 89.58 104.47 88.75 104.42 90.96 103.29 C 89.41 103.08 87.86 102.89 86.31 102.70 C 86.25 101.47 86.19 100.24 86.12 99.01 C 95.01 97.05 105.08 97.10 113.98 98.99 Z" fill="#b48d01" />
<path d="M 40.30 102.57 C 53.69 102.31 67.19 102.52 80.60 102.48 C 63.85 116.18 46.69 129.44 29.80 142.97 C 27.50 133.08 30.24 123.67 34.99 114.99 C 37.28 111.04 38.53 106.73 40.30 102.57 Z" fill="#ffffff" />
<path d="M 120.31 102.59 C 133.41 102.23 146.66 102.61 159.78 102.42 C 162.60 112.08 168.76 119.58 170.51 129.45 C 172.01 137.17 170.88 145.49 165.65 151.62 C 161.57 156.44 155.25 158.82 148.99 158.25 C 140.37 157.48 132.34 151.91 124.01 150.62 C 116.51 149.81 108.39 155.28 101.83 158.43 C 101.76 145.79 101.53 133.09 101.94 120.46 C 109.17 119.45 115.59 115.20 118.20 108.23 C 118.95 106.47 119.19 104.09 120.31 102.59 Z" fill="#dd161b" />
<path d="M 88.62 109.75 C 90.83 110.15 93.04 110.58 95.25 111.00 C 95.44 113.03 95.62 115.05 95.78 117.08 C 94.67 116.56 93.57 116.03 92.48 115.47 C 90.31 114.62 89.61 111.65 88.62 109.75 Z" fill="#b48d01" />
<path d="M 111.44 109.75 C 110.64 111.39 110.02 113.39 108.77 114.74 C 107.38 115.70 105.74 116.34 104.23 117.09 C 104.43 115.07 104.61 113.06 104.89 111.05 C 107.06 110.54 109.24 110.14 111.44 109.75 Z" fill="#b48d01" />
<path d="M 79.50 111.29 C 81.31 113.89 83.12 116.50 84.93 119.11 C 82.03 118.58 79.18 117.86 76.32 117.18 C 77.73 118.80 79.17 120.36 80.76 121.81 C 80.20 122.13 79.63 122.44 79.07 122.75 C 77.93 120.56 76.67 118.65 75.07 116.77 C 74.30 116.56 73.54 116.35 72.77 116.14 C 76.12 113.82 78.46 115.59 82.10 116.21 C 80.74 114.82 79.38 113.44 78.00 112.06 C 78.50 111.80 79.00 111.54 79.50 111.29 Z" fill="#ffffff" />
<path d="M 96.66 111.09 C 98.92 111.10 101.18 111.10 103.44 111.08 C 103.25 113.11 103.05 115.15 102.83 117.18 C 100.95 117.16 99.08 117.14 97.20 117.11 C 97.01 115.10 96.83 113.09 96.66 111.09 Z" fill="#b48d01" />
<path d="M 70.38 118.40 C 74.23 116.82 78.58 122.41 75.64 125.59 C 73.79 127.83 71.16 127.83 69.21 125.72 C 66.96 123.38 67.36 119.83 70.38 118.40 Z" fill="#ffffff" />
<path d="M 69.66 119.65 C 70.68 119.62 71.70 119.83 72.71 120.27 C 73.59 121.67 76.98 125.15 73.82 125.89 C 71.69 125.73 67.89 121.54 69.66 119.65 Z" fill="#b48d01" />
<path d="M 92.96 119.29 C 94.80 119.68 96.60 120.17 98.43 120.63 C 98.21 133.29 98.39 145.97 98.34 158.64 C 92.68 155.54 86.43 151.81 80.02 150.69 C 73.68 149.62 66.72 153.78 60.77 155.76 C 55.30 157.94 50.21 158.88 44.32 157.94 C 60.38 144.88 76.69 132.09 92.96 119.29 Z" fill="#ffffff" />
<path d="M 124.58 121.71 C 123.56 125.73 122.58 129.75 121.62 133.78 C 122.42 134.34 123.21 134.90 124.00 135.47 C 121.49 135.43 118.99 135.41 116.48 135.48 C 117.52 134.66 119.06 133.96 119.70 132.79 C 120.64 130.34 121.09 127.67 121.73 125.13 L 118.40 125.66 C 119.61 124.79 120.83 123.93 122.09 123.15 C 122.92 122.67 123.75 122.19 124.58 121.71 Z" fill="#ffffff" />
<path d="M 135.36 123.52 C 136.28 125.24 134.30 126.25 133.59 127.63 C 133.62 126.26 133.71 124.90 133.81 123.53 C 132.73 123.47 131.87 123.39 130.90 123.98 C 130.59 126.61 133.46 127.46 134.00 130.10 C 134.75 132.30 133.29 133.44 132.37 135.25 C 131.67 134.98 130.96 134.71 130.25 134.45 C 133.58 132.72 131.82 131.21 130.93 128.69 C 129.78 129.96 128.71 131.27 127.71 132.65 C 128.52 133.74 129.32 134.83 130.10 135.94 L 127.46 134.97 C 124.34 132.33 127.51 130.16 129.48 128.28 C 129.31 126.53 128.36 125.09 129.66 123.59 C 131.20 121.72 133.92 121.31 135.36 123.52 Z" fill="#ffffff" />
<path d="M 138.50 122.33 C 141.09 122.41 143.68 122.44 146.27 122.46 C 144.19 125.28 141.66 128.02 140.14 131.18 C 139.09 133.17 139.17 135.17 136.96 136.29 C 136.50 131.26 141.04 127.91 143.49 124.01 C 141.17 123.96 139.18 124.56 137.52 125.80 C 137.86 124.64 138.18 123.49 138.50 122.33 Z" fill="#ffffff" />
<path d="M 151.84 122.26 C 155.36 124.02 154.48 128.92 152.66 131.63 C 150.90 134.48 148.20 135.11 145.21 135.99 L 145.07 134.62 C 146.88 133.96 149.50 133.80 150.25 131.70 C 150.94 129.67 152.18 127.23 151.90 125.06 C 151.63 123.91 150.85 122.36 149.53 123.55 C 147.44 125.91 149.16 128.94 150.19 131.35 C 149.09 130.96 148.04 130.48 147.04 129.90 C 144.80 126.71 147.59 120.90 151.84 122.26 Z" fill="#ffffff" />
<path d="M 64.10 124.06 C 67.13 123.65 69.59 127.05 68.78 129.86 C 67.88 131.60 66.20 132.99 64.87 134.40 C 63.19 131.74 61.34 129.37 59.03 127.23 C 60.65 126.13 62.29 124.84 64.10 124.06 Z" fill="#ffffff" />
<path d="M 61.40 125.72 C 65.46 124.95 68.75 128.55 66.34 132.33 C 64.54 130.23 62.85 128.07 61.40 125.72 Z" fill="#b48d01" />
<path d="M 57.55 128.60 C 59.45 131.14 61.28 133.74 63.12 136.33 C 60.24 135.83 57.41 135.18 54.57 134.52 C 55.86 136.15 57.17 137.53 58.89 138.71 C 58.39 139.17 57.90 139.63 57.40 140.09 C 55.80 136.96 54.12 134.93 51.34 132.79 C 54.50 131.63 57.10 132.88 60.19 133.55 C 58.88 131.99 57.51 130.49 56.01 129.12 C 56.52 128.94 57.03 128.77 57.55 128.60 Z" fill="#ffffff" />
<path d="M 50.43 134.26 C 51.94 136.99 53.57 139.06 55.95 141.09 C 55.16 141.73 54.37 142.37 53.59 143.02 C 52.10 140.12 50.50 138.13 47.98 136.07 C 48.79 135.46 49.60 134.84 50.43 134.26 Z" fill="#ffffff" />
<path d="M 47.17 136.71 C 48.14 140.01 49.30 143.23 50.41 146.48 C 48.82 145.57 47.24 144.69 45.75 143.62 C 45.19 143.70 44.62 143.78 44.05 143.86 C 43.58 142.50 43.15 141.12 42.74 139.74 C 44.72 140.82 46.66 141.99 48.70 142.96 C 47.76 141.20 46.75 139.64 45.39 138.17 C 45.98 137.68 46.57 137.20 47.17 136.71 Z" fill="#ffffff" />
<path d="M 40.39 142.41 C 42.15 143.77 43.78 145.05 45.92 145.80 C 46.22 146.94 46.51 148.09 46.79 149.23 C 44.34 147.97 42.26 146.53 40.19 144.70 C 38.59 145.40 37.00 146.08 35.41 146.80 C 36.57 149.68 41.38 146.61 42.08 150.07 C 42.98 151.93 40.29 153.44 39.19 154.54 C 38.40 153.84 37.60 153.13 36.80 152.42 C 39.36 152.70 40.06 153.35 41.65 150.83 C 39.71 150.59 37.70 150.62 35.79 150.19 C 34.70 149.53 34.04 147.99 34.74 146.84 C 36.52 145.25 38.49 143.85 40.39 142.41 Z" fill="#ffffff" />
<path d="M 20.97 159.05 C 22.10 159.60 23.23 160.14 24.36 160.68 C 31.64 164.17 39.20 166.95 46.98 169.13 C 49.83 170.04 53.06 170.78 55.58 172.44 C 56.82 173.24 56.35 175.51 56.50 176.81 C 85.47 181.61 114.57 181.63 143.53 176.81 C 143.83 174.95 143.03 172.99 145.07 172.05 C 148.04 170.47 151.51 169.65 154.72 168.65 C 163.14 166.24 171.28 162.98 179.09 159.04 C 175.86 164.20 172.73 169.43 169.35 174.49 C 176.61 175.20 183.98 175.42 191.27 175.88 C 182.90 179.50 174.11 182.15 165.67 185.62 C 165.17 187.94 165.56 189.97 162.92 190.94 C 156.05 193.73 148.29 194.73 141.01 195.95 C 113.92 199.76 86.09 199.76 59.00 195.94 C 51.73 194.72 43.96 193.72 37.10 190.92 C 34.50 189.92 34.84 187.91 34.37 185.59 C 25.91 182.17 17.14 179.47 8.75 175.88 C 16.06 175.49 23.37 175.06 30.68 174.62 C 27.45 169.42 24.19 164.25 20.97 159.05 Z" fill="#b48d01" />
<path d="M 75.67 162.55 C 77.40 163.26 79.49 163.86 80.94 165.09 C 82.50 166.79 83.30 168.86 85.41 170.07 C 84.62 167.67 84.00 165.31 83.78 162.79 C 87.03 164.91 89.21 166.79 89.47 170.95 C 89.79 171.27 90.11 171.59 90.43 171.91 C 90.09 169.63 89.94 167.42 89.98 165.10 C 93.13 167.92 93.52 169.06 93.34 173.29 C 95.45 175.27 97.47 177.22 98.73 179.88 C 96.07 178.24 94.06 176.03 91.85 173.86 C 89.05 175.79 87.40 176.30 83.89 176.29 C 85.35 174.67 86.93 173.18 88.53 171.70 C 86.06 171.19 85.29 172.24 83.49 173.55 C 81.68 175.10 79.31 174.78 77.08 175.09 C 78.52 173.15 80.20 171.45 81.93 169.76 C 80.06 170.07 78.92 170.21 77.61 171.61 C 75.90 173.46 73.87 173.68 71.53 174.14 C 72.38 172.67 73.15 171.17 73.96 169.67 C 70.93 171.93 68.79 174.29 64.71 174.42 C 65.18 173.57 65.65 172.72 66.13 171.88 C 62.94 172.32 61.50 171.99 58.82 170.36 C 62.44 168.94 64.48 168.75 68.21 169.98 C 66.29 168.82 64.91 167.60 63.56 165.80 C 67.82 165.55 69.95 167.69 73.41 169.51 C 72.30 167.60 71.22 165.68 70.31 163.66 C 74.35 164.45 75.89 167.66 79.26 169.39 C 77.89 167.18 76.53 165.02 75.67 162.55 Z" fill="#b48d01" />
<path d="M 116.29 162.78 C 116.08 165.31 115.46 167.67 114.65 170.07 C 116.73 168.85 117.57 166.83 119.10 165.12 C 120.53 163.85 122.72 163.34 124.43 162.56 C 123.43 164.95 122.16 167.18 120.83 169.40 C 124.18 167.67 125.72 164.46 129.73 163.65 C 128.86 165.68 127.78 167.59 126.66 169.50 C 130.15 167.73 132.23 165.53 136.51 165.81 C 135.14 167.62 133.76 168.83 131.81 169.99 C 135.57 168.76 137.59 168.92 141.25 170.36 C 138.60 171.98 137.09 172.34 133.93 171.87 C 134.40 172.72 134.88 173.57 135.35 174.42 C 131.26 174.28 129.11 171.92 126.10 169.63 C 126.88 171.16 127.69 172.68 128.53 174.18 L 126.12 173.64 C 122.72 173.12 121.90 169.62 118.12 169.76 C 119.88 171.43 121.55 173.15 122.98 175.11 C 121.68 175.01 120.40 174.87 119.11 174.69 C 115.92 174.28 115.13 170.80 111.54 171.71 C 113.14 173.18 114.72 174.68 116.17 176.31 C 112.71 176.31 110.95 175.72 108.17 173.87 C 105.99 176.05 103.96 178.25 101.34 179.93 C 102.49 177.24 104.62 175.58 106.45 173.40 C 106.86 169.70 106.98 167.62 109.96 165.07 C 110.16 167.47 110.05 169.81 109.77 172.20 C 110.58 170.22 111.18 168.12 112.19 166.24 C 113.23 164.84 114.89 163.80 116.29 162.78 Z" fill="#b48d01" />
<path d="M 26.81 164.23 C 33.87 166.97 40.82 169.76 48.21 171.52 C 46.27 171.74 44.18 171.74 42.33 172.36 C 38.54 174.88 36.39 179.29 34.78 183.40 C 29.63 181.59 24.29 179.89 19.41 177.42 C 24.30 176.92 29.18 176.80 34.08 176.46 C 31.88 172.24 28.97 168.46 26.81 164.23 Z" fill="#dd161b" />
<path d="M 173.27 164.22 C 171.06 168.44 168.22 172.26 165.96 176.45 C 170.85 176.80 175.73 176.93 180.60 177.41 C 175.76 179.96 170.41 181.62 165.24 183.37 C 163.60 179.07 161.58 175.00 157.70 172.30 C 155.77 171.46 152.56 171.39 151.09 173.17 C 152.35 173.37 153.62 173.58 154.89 173.77 C 151.49 175.05 148.13 176.02 144.48 176.14 C 145.90 173.79 147.97 174.41 150.33 173.90 C 150.96 170.82 153.68 171.31 156.17 170.28 C 162.10 168.82 167.56 166.31 173.27 164.22 Z" fill="#dd161b" />
<path d="M 45.04 173.51 C 48.09 173.99 53.77 173.19 55.56 176.13 C 51.70 176.00 48.51 175.15 45.04 173.51 Z" fill="#dd161b" />
<path d="M 42.68 175.41 C 46.96 177.15 51.24 178.48 55.81 179.21 C 81.95 183.69 108.74 184.20 135.02 180.65 C 142.44 179.60 150.59 178.55 157.37 175.30 C 160.74 178.82 163.25 182.78 162.86 187.86 C 161.03 189.28 158.39 189.86 156.19 190.46 C 148.97 192.25 141.57 193.35 134.21 194.29 C 106.01 197.46 77.07 196.96 49.15 191.66 C 45.25 190.74 40.51 190.16 37.17 187.84 C 36.85 182.94 39.23 178.70 42.68 175.41 Z" fill="#dd161b" />
<path d="M 50.33 180.94 C 49.87 182.06 49.42 183.18 48.98 184.30 C 48.93 183.07 48.61 182.01 48.01 181.13 C 44.64 182.65 47.95 185.52 48.56 187.91 C 49.24 186.77 49.99 185.68 50.80 184.64 C 50.50 185.97 50.35 187.44 49.76 188.69 C 49.00 188.64 48.24 188.40 47.45 187.96 C 45.37 189.35 40.01 189.67 41.92 185.80 C 42.59 186.69 43.30 187.55 44.04 188.38 C 47.94 188.02 45.19 184.88 44.70 182.77 C 46.45 180.27 47.62 180.66 50.33 180.94 Z" fill="#ffffff" />
<path d="M 150.52 180.26 C 152.29 179.03 153.34 181.83 151.30 182.26 C 150.22 181.94 149.96 181.27 150.52 180.26 Z" fill="#ffffff" />
<path d="M 61.77 182.52 C 57.67 182.11 57.89 185.59 56.24 188.31 C 56.51 189.08 56.75 189.85 56.97 190.63 C 55.80 190.38 54.94 190.01 53.91 189.39 L 50.80 190.18 C 51.29 188.43 52.04 186.85 52.94 185.28 L 50.80 184.64 C 52.10 184.39 53.41 184.24 54.72 184.09 C 54.10 185.82 53.53 187.57 53.01 189.33 C 56.18 188.31 56.07 183.25 58.84 181.73 C 60.22 181.10 60.63 181.79 61.77 182.52 Z" fill="#ffffff" />
<path d="M 157.18 181.32 C 157.55 183.69 156.28 185.92 159.01 187.01 C 156.21 188.51 153.01 188.10 150.31 189.65 C 150.35 188.09 150.39 186.52 150.44 184.95 C 147.57 184.16 147.73 189.05 146.39 190.85 C 146.31 189.00 146.27 187.15 146.25 185.30 C 145.27 185.56 144.31 185.87 143.36 186.22 C 143.12 187.34 142.92 188.46 142.75 189.59 C 143.68 189.17 144.62 188.75 145.55 188.33 C 144.43 189.54 143.23 190.61 141.93 191.62 C 141.88 189.90 141.86 188.18 141.89 186.45 C 140.71 186.47 139.52 186.49 138.34 186.51 C 139.14 187.62 139.84 188.78 140.44 189.99 C 139.77 190.73 139.06 191.44 138.30 192.10 C 137.66 191.77 137.02 191.44 136.38 191.12 C 134.63 191.63 132.90 192.17 131.14 192.65 C 131.00 190.77 130.68 188.92 130.38 187.05 C 131.16 186.77 131.93 186.50 132.70 186.22 C 132.50 188.06 132.32 189.90 132.19 191.74 C 133.61 190.09 133.98 188.27 134.40 186.19 L 135.67 186.26 C 135.41 187.63 135.14 189.01 134.86 190.38 C 136.40 190.38 137.86 190.47 139.37 190.77 C 138.65 189.57 137.81 188.36 137.34 187.04 C 137.80 186.34 138.29 185.65 138.80 184.98 C 139.57 185.32 140.34 185.67 141.11 186.02 C 141.76 185.02 142.41 184.01 143.03 183.00 L 143.83 185.21 C 146.55 184.55 149.19 183.66 151.94 183.12 C 151.86 184.82 151.80 186.53 151.75 188.23 C 153.27 185.28 154.10 182.92 157.18 181.32 Z" fill="#ffffff" />
<path d="M 70.08 182.59 L 71.19 183.22 C 69.54 183.92 68.29 184.41 67.18 185.89 C 68.31 186.46 69.44 187.01 70.58 187.56 C 73.85 186.30 75.92 186.86 79.04 187.99 C 79.73 187.22 80.41 186.44 81.07 185.66 C 81.24 186.56 81.41 187.46 81.58 188.36 C 79.75 190.16 80.18 190.74 80.65 193.03 C 79.84 193.18 79.03 193.33 78.22 193.48 C 78.16 192.20 80.06 188.62 78.01 188.56 C 75.99 189.09 76.85 191.78 76.47 193.37 C 75.85 193.10 75.24 192.81 74.64 192.51 C 74.92 191.01 75.39 189.54 75.76 188.06 C 72.28 188.50 72.58 191.22 70.32 193.14 C 70.63 191.27 71.08 189.43 71.52 187.59 C 69.74 189.50 68.60 191.48 65.91 192.15 C 64.41 189.94 60.43 191.74 58.08 191.14 C 58.72 189.13 59.21 187.08 59.67 185.02 C 62.46 185.39 59.80 188.83 59.89 190.52 C 61.35 188.77 62.72 186.96 64.31 185.32 C 63.76 186.97 63.17 188.61 62.54 190.24 C 63.35 190.29 64.15 190.33 64.95 190.37 C 65.92 186.95 65.87 183.39 70.08 182.59 Z" fill="#ffffff" />
<path d="M 132.36 182.80 C 131.35 183.45 130.33 184.06 129.27 184.64 C 129.09 187.21 127.58 190.18 129.77 192.20 C 127.53 192.79 125.79 192.90 123.48 192.45 C 122.70 192.87 121.92 193.29 121.14 193.72 C 121.21 191.92 121.29 190.12 121.37 188.33 C 120.30 190.25 119.48 192.29 118.41 194.21 C 118.43 192.10 118.41 190.00 118.27 187.89 C 119.90 187.71 121.52 187.55 123.13 187.28 C 122.96 188.99 122.80 190.70 122.64 192.41 C 124.07 190.27 125.54 188.25 127.20 186.28 C 128.77 184.06 129.24 182.68 132.36 182.80 Z" fill="#ffffff" />
<path d="M 77.03 184.34 C 78.85 183.17 79.90 185.82 77.83 186.29 C 76.69 185.97 76.42 185.32 77.03 184.34 Z" fill="#ffffff" />
<path d="M 155.87 183.89 C 156.36 185.05 156.09 186.22 155.05 187.40 C 153.69 186.73 154.11 183.00 155.87 183.89 Z" fill="#dd161b" />
<path d="M 104.54 185.95 C 104.33 186.56 104.13 187.16 103.92 187.76 C 103.23 187.21 102.54 186.66 101.85 186.10 C 101.11 187.10 100.39 188.11 99.68 189.13 C 100.77 189.17 101.85 189.21 102.94 189.25 L 102.64 190.64 C 101.77 190.38 100.90 190.12 100.03 189.87 C 99.68 190.94 99.33 192.02 98.98 193.10 C 100.00 193.14 101.01 193.18 102.02 193.22 C 102.81 192.69 103.60 192.17 104.39 191.65 C 103.62 195.80 98.87 193.66 95.98 193.90 C 96.58 193.48 97.18 193.06 97.78 192.63 C 98.33 190.54 98.86 188.44 99.37 186.33 C 98.54 186.92 97.70 187.50 96.85 188.08 C 96.80 189.29 96.75 190.50 96.68 191.71 C 95.83 190.16 95.27 189.04 96.47 187.46 C 98.07 185.19 102.13 185.89 104.54 185.95 Z" fill="#ffffff" />
<path d="M 114.60 185.78 C 115.63 185.51 116.66 185.27 117.70 185.05 C 115.72 188.00 115.06 190.16 115.52 193.77 C 114.38 193.84 113.24 193.91 112.09 193.98 C 114.63 191.63 114.45 188.93 114.60 185.78 Z" fill="#ffffff" />
<path d="M 107.08 186.46 C 107.68 187.08 108.16 187.78 108.64 188.49 C 107.40 189.51 106.95 190.92 106.08 192.35 C 107.14 192.41 108.19 192.48 109.25 192.54 C 107.85 193.14 106.45 193.76 105.05 194.37 C 105.22 192.37 105.41 190.37 105.60 188.37 C 106.07 187.71 106.56 187.08 107.08 186.46 Z" fill="#ffffff" />
<path d="M 68.08 188.02 C 68.59 188.93 67.46 191.39 66.26 190.90 C 65.78 190.02 66.96 187.59 68.08 188.02 Z" fill="#dd161b" />
<path d="M 84.87 187.81 L 87.98 187.72 C 87.49 189.23 87.01 190.74 86.54 192.25 C 88.08 192.40 89.62 192.71 91.16 193.15 C 90.45 191.90 89.82 190.62 89.27 189.30 C 90.41 187.94 91.88 188.33 93.48 188.02 C 92.95 188.98 92.03 189.36 90.72 189.15 C 91.37 190.38 91.84 191.65 92.13 192.95 C 90.44 194.33 89.41 193.74 87.55 193.18 C 87.04 193.36 86.53 193.54 86.02 193.73 C 84.81 193.64 83.62 193.56 82.44 193.32 C 82.29 191.95 82.50 190.55 83.05 189.11 C 83.63 190.33 84.19 191.56 84.76 192.77 C 85.16 191.82 85.55 190.86 85.92 189.89 C 85.60 189.18 85.25 188.49 84.87 187.81 Z" fill="#ffffff" />
<path d="M 125.99 189.22 L 126.78 189.14 L 127.13 189.91 L 126.69 190.73 L 125.91 190.80 L 125.56 190.05 L 125.99 189.22 Z" fill="#dd161b" />
</svg>