<?xml version="1.0" encoding="UTF-8" standalone="no"?>
<!DOCTYPE svg PUBLIC "-//W3C//DTD SVG 1.1//EN" "http://www.w3.org/Graphics/SVG/1.1/DTD/svg11.dtd">
<svg xmlns="http://www.w3.org/2000/svg" version="1.1" viewBox="0 0 200 200" width="200.0pt" height="200.0pt">
<path d="M 0.00 0.00 L 92.65 0.00 C 86.40 0.84 80.08 1.03 73.83 1.90 C 58.03 4.62 41.69 8.94 27.46 16.50 C 28.85 33.96 29.35 51.54 30.92 68.98 C 31.61 79.14 32.09 89.32 32.80 99.48 C 35.14 119.26 38.90 139.34 51.93 155.15 C 47.65 157.59 43.20 160.19 39.20 163.18 C 38.52 163.97 37.99 164.89 37.59 165.93 L 36.18 164.81 C 30.97 167.96 25.60 170.56 19.89 172.67 C 18.86 169.47 17.80 166.37 17.68 162.97 C 17.45 161.67 17.72 159.31 16.21 158.74 C 13.69 158.02 10.86 159.52 8.79 160.84 C 6.28 162.53 3.87 164.65 4.05 167.97 C 4.55 170.94 6.76 173.80 8.38 176.27 C 8.68 177.92 8.64 179.16 10.78 178.19 C 9.82 182.03 12.45 186.48 16.18 187.66 C 19.85 188.48 23.43 186.79 26.84 185.60 C 39.72 179.93 50.26 170.73 63.09 164.89 C 64.00 165.86 64.90 166.84 65.79 167.83 C 66.86 166.08 67.88 164.35 69.03 162.65 C 69.51 165.04 67.64 166.51 66.52 168.40 C 65.74 168.39 64.96 168.37 64.18 168.35 C 60.94 172.02 62.40 175.71 62.98 180.05 C 63.95 183.70 64.81 187.47 66.07 191.03 C 68.66 192.96 71.96 194.27 75.09 195.05 C 72.45 193.49 69.50 192.62 66.81 191.16 C 65.10 187.73 64.96 183.45 63.19 179.91 C 63.78 179.31 64.36 178.71 64.94 178.11 C 65.12 179.64 65.38 181.15 65.74 182.64 C 65.69 181.22 65.61 179.80 65.50 178.38 C 66.41 178.31 67.33 178.27 68.25 178.24 C 66.55 177.71 64.84 176.84 63.06 176.61 C 62.40 174.62 62.16 172.74 63.47 170.95 C 65.03 175.41 70.74 178.04 74.67 180.11 C 78.63 182.61 83.36 183.99 87.84 185.22 C 85.47 186.36 86.57 186.54 83.41 186.02 C 84.08 186.68 84.74 187.33 85.40 188.00 C 85.44 189.79 85.49 191.58 85.55 193.37 C 85.00 193.95 84.45 194.53 83.91 195.12 C 85.71 195.23 87.49 195.47 89.25 195.87 C 88.72 195.27 88.19 194.68 87.66 194.08 C 87.66 191.17 87.66 188.25 87.65 185.34 C 89.52 185.52 91.39 185.67 93.28 185.65 C 86.89 184.89 80.51 182.83 74.86 179.75 C 75.37 178.01 76.58 176.76 76.33 174.87 C 81.34 177.32 85.93 180.49 90.95 182.94 C 93.09 183.96 95.01 185.12 96.87 186.60 C 98.95 186.67 101.03 186.65 103.11 186.55 C 104.52 185.43 105.98 184.40 107.60 183.60 C 112.65 181.12 117.40 178.26 122.21 175.34 C 124.10 176.93 124.53 177.29 125.00 179.75 C 121.81 181.55 118.89 182.78 115.29 183.56 C 120.25 183.82 124.16 180.31 128.46 178.44 C 131.23 176.73 134.35 174.83 136.18 172.09 C 135.16 170.73 134.21 169.33 133.28 167.91 C 134.63 168.47 135.93 169.13 137.19 169.90 C 136.23 168.99 135.24 168.12 134.27 167.22 C 135.23 166.33 136.20 165.44 137.16 164.54 C 129.77 161.62 120.89 158.90 113.03 161.26 C 113.64 158.21 115.98 155.41 117.34 152.60 C 120.06 152.24 120.57 152.21 120.74 149.21 C 124.58 149.09 128.18 148.77 132.01 149.34 C 142.50 152.22 152.17 157.63 160.98 163.94 L 160.71 164.77 C 159.86 167.07 158.75 168.97 157.13 170.83 L 154.82 170.19 C 153.60 168.03 156.30 165.31 157.81 163.97 C 157.01 163.34 156.20 162.72 155.40 162.10 C 155.07 163.85 154.26 165.27 153.31 166.74 C 151.54 166.74 149.66 167.14 148.02 166.27 C 149.25 164.03 150.10 161.81 152.30 160.33 C 151.39 159.73 150.48 159.13 149.57 158.53 C 149.13 160.97 147.90 162.97 146.70 165.09 C 145.60 162.79 144.88 163.51 142.73 163.63 C 141.20 161.19 142.55 155.85 146.19 157.73 C 146.46 158.80 146.72 159.87 146.95 160.95 C 147.36 160.08 147.71 159.18 148.14 158.32 C 146.83 157.53 145.49 156.41 143.99 156.03 C 141.39 156.48 138.83 159.16 140.16 161.88 C 141.23 164.20 143.32 164.56 145.64 164.11 C 145.42 166.80 150.39 167.85 152.34 168.31 C 152.55 168.90 152.75 169.50 152.94 170.09 C 154.30 170.75 155.95 172.12 157.50 171.41 C 159.08 169.93 160.09 167.96 161.77 166.54 L 160.71 164.77 L 161.69 164.11 C 167.58 167.94 173.87 171.02 180.47 173.40 C 183.53 174.16 186.94 174.76 190.06 174.12 C 190.93 173.88 191.81 174.04 192.68 174.62 C 193.95 172.42 195.95 169.63 195.85 167.03 C 195.23 162.99 190.67 160.18 187.15 158.89 C 185.63 158.46 182.85 158.06 182.47 160.19 C 182.61 164.61 181.41 168.49 180.00 172.62 C 168.01 168.63 158.73 161.25 147.94 155.12 C 158.23 142.76 163.16 126.47 165.46 110.80 C 167.66 99.91 167.48 89.02 168.33 77.99 C 170.16 57.58 170.72 37.10 172.47 16.69 C 159.06 9.15 143.01 5.05 127.98 2.22 C 120.97 1.06 113.79 0.80 106.72 0.07 L 105.91 0.00 L 200.00 0.00 L 200.00 200.00 L 107.14 200.00 C 109.37 198.84 111.63 198.73 114.06 198.28 C 111.87 198.18 109.93 198.29 107.86 199.05 C 102.38 200.08 96.31 198.47 90.90 200.00 L 0.00 200.00 L 0.00 0.00 Z" fill="#ffffff" />
<path d="M 92.65 0.00 L 105.91 0.00 L 106.72 0.07 C 113.79 0.80 120.97 1.06 127.98 2.22 C 143.01 5.05 159.06 9.15 172.47 16.69 C 170.72 37.10 170.16 57.58 168.33 77.99 C 167.48 89.02 167.66 99.91 165.46 110.80 C 163.16 126.47 158.23 142.76 147.94 155.12 C 158.73 161.25 168.01 168.63 180.00 172.62 C 181.41 168.49 182.61 164.61 182.47 160.19 C 182.85 158.06 185.63 158.46 187.15 158.89 C 190.67 160.18 195.23 162.99 195.85 167.03 C 195.95 169.63 193.95 172.42 192.68 174.62 C 191.81 174.04 190.93 173.88 190.06 174.12 C 186.94 174.76 183.53 174.16 180.47 173.40 C 173.87 171.02 167.58 167.94 161.69 164.11 L 160.71 164.77 L 160.98 163.94 C 152.17 157.63 142.50 152.22 132.01 149.34 C 128.18 148.77 124.58 149.09 120.74 149.21 C 120.57 152.21 120.06 152.24 117.34 152.60 C 115.98 155.41 113.64 158.21 113.03 161.26 C 120.89 158.90 129.77 161.62 137.16 164.54 C 136.20 165.44 135.23 166.33 134.27 167.22 C 135.24 168.12 136.23 168.99 137.19 169.90 C 135.93 169.13 134.63 168.47 133.28 167.91 C 134.21 169.33 135.16 170.73 136.18 172.09 C 134.35 174.83 131.23 176.73 128.46 178.44 C 124.16 180.31 120.25 183.82 115.29 183.56 C 118.89 182.78 121.81 181.55 125.00 179.75 C 124.53 177.29 124.10 176.93 122.21 175.34 C 117.40 178.26 112.65 181.12 107.60 183.60 C 105.98 184.40 104.52 185.43 103.11 186.55 C 101.03 186.65 98.95 186.67 96.87 186.60 C 95.01 185.12 93.09 183.96 90.95 182.94 C 85.93 180.49 81.34 177.32 76.33 174.87 C 76.58 176.76 75.37 178.01 74.86 179.75 C 80.51 182.83 86.89 184.89 93.28 185.65 C 91.39 185.67 89.52 185.52 87.65 185.34 C 87.66 188.25 87.66 191.17 87.66 194.08 C 88.19 194.68 88.72 195.27 89.25 195.87 C 87.49 195.47 85.71 195.23 83.91 195.12 C 84.45 194.53 85.00 193.95 85.55 193.37 C 85.49 191.58 85.44 189.79 85.40 188.00 C 84.74 187.33 84.08 186.68 83.41 186.02 C 86.57 186.54 85.47 186.36 87.84 185.22 C 83.36 183.99 78.63 182.61 74.67 180.11 C 70.74 178.04 65.03 175.41 63.47 170.95 C 62.16 172.74 62.40 174.62 63.06 176.61 C 64.84 176.84 66.55 177.71 68.25 178.24 C 67.33 178.27 66.41 178.31 65.50 178.38 C 65.61 179.80 65.69 181.22 65.74 182.64 C 65.38 181.15 65.12 179.64 64.94 178.11 C 64.36 178.71 63.78 179.31 63.19 179.91 C 64.96 183.45 65.10 187.73 66.81 191.16 C 69.50 192.62 72.45 193.49 75.09 195.05 C 71.96 194.27 68.66 192.96 66.07 191.03 C 64.81 187.47 63.95 183.70 62.98 180.05 C 62.40 175.71 60.94 172.02 64.18 168.35 C 64.96 168.37 65.74 168.39 66.52 168.40 C 67.64 166.51 69.51 165.04 69.03 162.65 C 67.88 164.35 66.86 166.08 65.79 167.83 C 64.90 166.84 64.00 165.86 63.09 164.89 C 50.26 170.73 39.72 179.93 26.84 185.60 C 23.43 186.79 19.85 188.48 16.18 187.66 C 12.45 186.48 9.82 182.03 10.78 178.19 C 8.64 179.16 8.68 177.92 8.38 176.27 C 6.76 173.80 4.55 170.94 4.05 167.97 C 3.87 164.65 6.28 162.53 8.79 160.84 C 10.86 159.52 13.69 158.02 16.21 158.74 C 17.72 159.31 17.45 161.67 17.68 162.97 C 17.80 166.37 18.86 169.47 19.89 172.67 C 25.60 170.56 30.97 167.96 36.18 164.81 L 37.59 165.93 C 37.99 164.89 38.52 163.97 39.20 163.18 C 43.20 160.19 47.65 157.59 51.93 155.15 C 38.90 139.34 35.14 119.26 32.80 99.48 C 32.09 89.32 31.61 79.14 30.92 68.98 C 29.35 51.54 28.85 33.96 27.46 16.50 C 41.69 8.94 58.03 4.62 73.83 1.90 C 80.08 1.03 86.40 0.84 92.65 0.00 Z" fill="#c30606" />
<path d="M 82.19 7.81 C 110.19 5.14 139.69 8.69 165.29 20.71 C 164.49 27.62 164.41 34.61 164.06 41.55 C 149.65 35.42 134.53 31.51 118.99 29.59 C 105.76 28.27 92.43 28.33 79.21 29.77 C 64.28 31.90 49.68 35.49 35.87 41.62 C 35.45 34.62 35.27 27.61 34.61 20.62 C 49.51 13.69 65.90 9.69 82.19 7.81 Z" fill="#ffffff" />
<path d="M 86.30 13.63 C 88.79 13.60 91.28 13.54 93.77 13.39 C 94.03 14.31 94.30 15.22 94.57 16.13 C 93.15 14.88 91.99 14.26 90.11 13.92 C 90.01 15.32 89.93 16.73 89.86 18.14 C 90.71 17.71 91.57 17.29 92.43 16.89 C 92.54 17.95 92.66 19.02 92.79 20.08 C 91.80 19.61 90.81 19.13 89.82 18.66 C 90.03 20.13 90.26 21.61 90.50 23.09 C 93.07 22.84 94.30 20.97 96.52 20.06 C 97.57 21.92 97.74 23.43 100.38 22.34 C 102.10 19.97 98.82 19.49 97.40 18.54 C 95.54 17.69 95.45 15.09 96.74 13.70 C 98.30 13.07 100.32 13.40 101.98 13.28 C 102.04 14.29 102.11 15.31 102.18 16.32 C 100.38 14.45 99.68 13.13 97.01 14.87 C 98.72 17.46 102.78 16.58 102.76 20.00 C 103.36 23.57 96.89 24.70 95.96 21.92 C 93.58 24.31 90.58 23.20 87.25 23.79 C 88.04 20.93 87.72 17.79 87.41 14.85 C 87.04 14.44 86.67 14.03 86.30 13.63 Z" fill="#c30606" />
<path d="M 103.34 13.18 C 105.53 13.33 108.17 12.98 110.23 13.75 C 112.01 15.35 110.84 16.69 109.30 17.87 C 110.10 18.52 110.75 19.25 111.27 20.07 C 111.75 22.95 109.36 23.37 107.06 23.60 C 109.21 21.62 110.08 19.23 106.64 18.12 C 106.42 19.92 106.44 21.59 106.68 23.39 L 103.50 23.35 C 104.48 20.57 104.55 17.71 104.46 14.80 C 104.08 14.26 103.71 13.72 103.34 13.18 Z" fill="#c30606" />
<path d="M 112.53 13.53 C 114.77 13.84 119.08 13.29 120.46 15.49 C 121.67 17.49 119.70 18.19 118.59 19.54 C 119.50 21.29 120.21 23.07 120.88 24.92 C 117.93 23.55 115.51 23.51 112.31 23.85 C 113.21 20.95 113.67 17.97 113.80 14.94 C 113.37 14.47 112.95 14.00 112.53 13.53 Z" fill="#c30606" />
<path d="M 82.03 13.98 C 81.61 14.59 81.18 15.21 80.75 15.82 C 81.10 18.35 81.35 20.88 81.54 23.43 C 84.62 23.50 84.72 22.13 86.23 19.93 C 86.26 21.22 86.29 22.52 86.33 23.81 C 83.54 23.91 80.82 24.09 78.14 24.94 C 79.20 23.07 79.11 21.23 79.13 19.13 C 78.70 19.10 78.27 19.07 77.84 19.03 C 77.75 20.81 78.05 22.28 76.79 23.71 C 75.09 26.14 70.84 25.77 68.16 26.45 C 68.54 25.69 68.92 24.92 69.29 24.16 C 68.72 21.24 69.03 18.52 67.14 16.17 C 70.63 15.91 76.01 13.82 77.14 18.79 C 77.78 18.18 78.41 17.58 79.05 16.97 L 76.99 14.47 C 78.68 14.34 80.35 14.15 82.03 13.98 Z" fill="#c30606" />
<path d="M 107.12 14.23 C 109.57 12.98 109.26 18.25 106.86 17.25 C 106.43 16.07 106.51 15.06 107.12 14.23 Z" fill="#ffffff" />
<path d="M 117.01 14.12 C 118.96 16.53 118.76 17.31 116.11 18.78 C 117.04 20.19 117.58 21.74 117.75 23.42 C 116.91 23.29 116.07 23.15 115.23 23.01 C 115.46 20.84 115.62 18.66 115.77 16.48 C 115.79 15.35 116.20 14.56 117.01 14.12 Z" fill="#ffffff" />
<path d="M 124.48 15.54 C 127.39 13.93 131.56 16.56 131.17 20.00 C 131.31 23.62 127.48 26.81 124.04 25.04 C 119.98 23.16 120.53 17.22 124.48 15.54 Z" fill="#c30606" />
<path d="M 128.16 16.86 C 129.70 19.33 128.34 23.55 125.94 25.10 C 122.86 23.13 123.77 20.41 124.62 17.45 C 125.41 16.08 127.08 15.19 128.16 16.86 Z" fill="#ffffff" />
<path d="M 62.88 17.26 C 67.36 17.46 69.33 24.04 65.58 26.57 C 60.03 29.04 53.42 28.90 48.22 31.89 C 49.25 29.24 47.89 27.13 47.06 24.66 C 46.77 27.27 46.67 29.88 46.55 32.49 C 44.56 30.64 42.68 28.70 40.76 26.78 C 41.77 29.26 41.03 31.98 44.02 32.84 C 42.99 33.29 41.96 33.73 40.95 34.22 C 41.98 30.87 39.96 26.67 37.60 24.28 C 38.64 24.07 39.69 23.85 40.74 23.63 C 42.35 25.34 43.66 27.12 45.81 28.22 C 45.93 26.12 45.98 24.03 45.98 21.93 C 46.91 21.45 47.85 20.97 48.79 20.48 C 48.67 23.74 50.11 26.21 50.95 29.30 C 51.99 29.36 53.03 29.40 54.06 29.43 C 53.68 26.06 53.10 22.87 51.16 20.00 C 52.40 19.69 53.63 19.36 54.87 19.02 C 53.58 21.93 56.12 25.82 56.88 28.73 C 57.75 28.22 58.63 27.74 59.52 27.28 C 58.66 24.30 58.77 20.55 56.35 18.42 C 58.53 18.09 60.68 17.40 62.88 17.26 Z" fill="#c30606" />
<path d="M 70.37 16.43 C 75.81 15.33 77.51 24.47 71.86 25.26 C 71.15 22.35 70.74 19.40 70.37 16.43 Z" fill="#ffffff" />
<path d="M 132.13 16.03 C 133.53 16.33 134.94 16.61 136.35 16.87 C 134.17 19.38 134.23 22.23 133.97 25.35 C 135.56 25.55 137.12 27.04 138.23 25.17 C 139.64 22.85 139.95 19.78 139.08 17.21 C 140.20 17.57 141.33 17.92 142.46 18.25 C 141.82 18.74 141.18 19.22 140.54 19.70 C 140.02 21.76 140.02 24.89 138.51 26.45 C 136.94 27.38 133.57 27.20 132.22 25.80 C 130.99 24.22 132.33 21.52 132.61 19.71 C 132.99 18.43 132.83 17.20 132.13 16.03 Z" fill="#c30606" />
<path d="M 60.68 17.91 C 65.13 18.53 67.68 26.24 61.82 26.98 C 61.19 24.39 59.36 20.45 60.68 17.91 Z" fill="#ffffff" />
<path d="M 145.20 19.49 C 147.39 19.09 149.62 20.71 151.52 21.64 C 151.17 22.58 150.78 23.51 150.35 24.43 C 150.37 25.17 150.40 25.90 150.43 26.64 C 149.86 27.64 149.23 28.60 148.53 29.52 C 146.51 29.93 143.35 29.91 142.02 28.03 C 139.19 25.20 141.41 19.92 145.20 19.49 Z" fill="#c30606" />
<path d="M 148.11 20.47 C 150.05 22.27 150.36 23.61 149.49 26.04 L 146.10 24.82 C 146.70 25.50 147.31 26.17 147.94 26.82 C 147.44 27.86 146.80 28.65 146.00 29.19 C 140.77 28.65 143.54 19.08 148.11 20.47 Z" fill="#ffffff" />
<path d="M 153.08 21.21 C 154.31 21.77 155.56 22.30 156.81 22.81 C 155.93 23.96 155.22 25.14 154.59 26.45 L 156.59 27.22 C 153.77 28.35 152.90 29.28 153.47 32.52 C 152.12 31.90 150.74 31.34 149.35 30.85 C 150.74 30.00 151.57 29.55 152.02 27.89 C 152.73 25.55 154.04 23.68 153.08 21.21 Z" fill="#c30606" />
<path d="M 158.21 22.99 C 159.89 23.74 161.56 24.51 163.25 25.24 C 162.59 25.48 161.93 25.71 161.28 25.95 C 160.38 28.25 159.46 30.54 158.56 32.83 C 158.94 33.46 159.33 34.09 159.71 34.72 C 158.19 34.01 156.65 33.37 155.11 32.73 C 156.45 31.74 159.26 29.63 156.35 28.53 C 157.06 28.13 157.78 27.74 158.49 27.35 C 158.69 26.55 158.86 25.75 159.03 24.94 C 158.76 24.29 158.49 23.64 158.21 22.99 Z" fill="#c30606" />
<path d="M 99.00 30.27 C 121.28 30.42 143.34 34.39 163.81 43.33 C 163.00 57.57 161.72 71.77 161.05 86.02 C 160.59 96.79 159.34 107.44 157.22 118.01 C 154.46 130.05 150.00 143.06 141.20 152.09 C 137.97 150.86 134.44 148.96 130.97 148.74 C 126.93 148.44 122.99 148.27 118.96 148.84 C 116.85 152.65 114.54 156.39 112.45 160.21 C 112.16 161.62 114.42 163.14 115.35 163.95 C 115.52 166.58 117.45 167.36 119.13 169.10 C 112.98 172.90 106.60 176.73 99.99 179.64 C 93.43 176.84 86.92 173.05 80.96 169.10 C 81.69 168.44 82.41 167.77 83.11 167.07 C 83.38 164.67 85.01 164.03 86.36 162.30 C 86.98 161.26 87.99 160.93 87.16 159.66 C 86.07 157.73 84.90 155.85 83.91 153.86 C 82.87 151.27 79.14 152.01 80.44 148.63 C 76.27 148.53 72.37 148.02 68.20 148.77 C 64.83 149.29 62.12 150.88 58.94 151.90 L 58.02 151.47 C 49.34 142.01 45.19 129.33 42.42 117.04 C 40.17 105.46 39.08 93.77 38.54 82.00 C 37.97 69.13 36.82 56.28 36.01 43.42 C 55.69 34.58 77.51 30.70 99.00 30.27 Z" fill="#ffffff" />
<path d="M 109.63 34.98 C 108.22 36.32 106.54 37.29 105.13 38.62 C 109.23 38.78 112.29 37.29 115.73 35.29 C 115.83 38.99 112.56 39.90 110.20 42.00 C 115.36 44.14 116.72 38.90 120.93 37.93 C 119.25 42.10 117.55 45.77 113.07 47.47 C 113.80 48.95 114.59 50.17 115.73 51.37 C 117.46 51.11 119.16 50.70 120.88 50.41 C 120.83 48.96 121.29 47.92 122.27 47.30 C 125.27 45.23 128.69 43.67 132.26 42.90 C 130.34 45.09 127.51 45.20 126.17 48.18 C 123.94 51.73 127.99 53.70 128.57 56.96 C 128.30 59.57 127.23 62.12 126.57 64.66 C 129.32 63.03 130.37 61.46 131.61 58.57 C 134.10 61.09 132.04 64.91 130.09 67.07 C 127.63 69.63 124.58 70.85 125.05 75.03 C 125.55 78.33 127.65 82.82 130.31 84.93 C 130.68 81.72 130.38 79.62 129.24 76.66 C 134.00 80.44 134.68 84.10 133.60 89.96 C 136.10 91.89 137.95 94.29 139.80 96.82 C 139.92 93.97 139.88 91.17 139.68 88.33 C 144.86 93.70 143.63 103.38 137.14 107.16 C 132.58 110.28 127.99 109.31 123.07 107.87 C 123.37 109.62 123.57 111.38 123.78 113.14 C 125.76 111.77 127.21 110.23 129.83 111.25 C 130.32 112.36 130.73 113.50 131.04 114.67 C 133.76 114.22 135.01 110.88 136.71 108.93 C 137.16 113.07 136.65 114.77 134.55 118.25 C 136.93 117.29 138.23 115.18 140.38 113.96 C 140.07 118.27 139.50 119.43 136.01 121.98 C 137.44 121.75 138.87 121.55 140.31 121.37 C 139.68 123.41 138.96 124.31 137.34 125.62 C 137.47 126.44 137.57 127.26 137.64 128.08 C 136.67 129.03 135.60 129.75 134.45 130.45 C 134.14 131.91 133.69 133.33 133.13 134.73 C 135.06 134.66 136.53 134.32 138.27 133.47 C 137.33 135.85 136.96 136.10 134.59 137.02 C 134.20 135.16 132.83 135.40 131.39 134.80 C 131.40 136.18 131.39 137.55 131.35 138.93 L 128.26 140.86 C 130.06 142.06 130.84 142.50 133.09 142.32 C 130.59 144.04 130.03 144.75 127.24 142.80 L 129.12 141.64 C 127.46 141.23 125.84 140.73 124.21 140.22 C 123.78 141.13 123.34 142.03 122.89 142.93 C 121.97 142.60 121.05 142.28 120.12 141.97 C 119.50 143.26 119.20 144.67 119.22 146.18 C 117.01 144.40 117.06 142.70 118.89 140.59 C 118.59 139.72 118.30 138.85 118.03 137.97 C 118.82 137.36 119.60 136.75 120.38 136.12 C 119.92 135.02 119.47 133.92 119.01 132.83 C 118.08 134.21 117.18 135.61 116.25 136.99 C 114.01 134.80 116.32 133.22 118.63 132.89 C 118.65 132.18 118.69 131.46 118.73 130.75 C 120.78 129.71 122.20 130.68 124.12 131.39 C 125.68 129.90 127.38 128.35 127.29 126.00 C 127.35 124.24 126.10 123.47 125.05 122.29 C 121.94 125.06 119.80 126.67 115.39 126.44 C 115.01 131.24 113.70 135.19 109.60 138.07 C 110.11 135.82 110.67 133.60 111.12 131.34 C 108.11 132.96 107.51 135.92 105.27 138.18 C 104.15 133.12 106.79 129.68 107.62 124.94 C 107.15 122.67 105.48 120.32 105.70 118.01 C 106.00 112.66 109.37 109.38 108.71 104.17 C 107.71 100.67 105.19 98.87 102.40 96.85 C 106.04 93.34 108.41 89.83 108.53 84.58 C 110.84 87.61 113.35 90.36 115.43 93.56 C 118.42 98.36 122.99 102.39 128.20 104.60 C 130.69 105.50 135.06 104.05 135.31 100.99 C 135.28 98.95 134.05 96.76 131.84 96.57 C 127.97 95.93 123.63 95.18 120.86 92.11 C 119.35 90.30 119.44 88.31 119.39 86.08 C 121.30 87.21 120.85 89.93 123.10 90.95 C 124.38 91.92 126.65 90.78 128.14 90.68 C 127.52 86.08 122.09 84.26 121.09 79.81 C 119.59 74.69 120.71 68.93 119.86 64.10 C 119.08 61.51 116.90 59.17 115.23 57.09 C 117.70 57.03 119.43 57.18 121.60 58.48 C 121.06 56.07 120.70 53.70 120.48 51.24 C 119.98 51.45 119.48 51.67 118.98 51.88 C 118.23 55.05 115.88 56.22 112.82 56.26 C 113.63 58.98 113.85 61.80 114.51 64.54 C 115.55 66.56 117.27 65.56 119.10 65.53 C 118.12 66.91 117.50 68.30 115.97 69.17 C 114.44 69.70 112.81 69.43 111.21 69.39 C 111.08 74.72 115.92 75.53 117.38 79.96 C 117.88 83.33 115.62 87.21 113.80 89.92 C 112.89 88.20 112.68 86.40 112.41 84.52 C 110.73 84.17 109.04 83.87 107.34 83.63 C 107.14 86.91 106.82 89.99 104.82 92.74 C 102.82 94.88 100.36 96.67 97.93 98.31 C 98.65 96.17 99.38 94.04 99.83 91.82 C 98.04 92.82 97.26 94.47 95.87 95.88 C 93.81 97.19 91.33 97.90 89.11 98.92 C 91.97 94.74 90.09 91.53 90.14 87.02 C 86.31 88.22 82.79 89.22 79.77 92.09 C 80.44 88.93 81.38 86.80 83.23 84.26 C 81.12 84.36 79.05 84.20 76.96 83.95 C 74.97 83.32 73.43 85.95 72.01 86.90 C 71.94 82.84 73.98 80.82 76.44 78.08 C 74.50 78.27 72.55 78.46 70.61 78.65 C 72.18 77.39 73.78 76.42 75.58 75.55 C 79.44 73.73 80.89 69.74 85.19 68.38 C 89.01 66.66 93.38 67.15 96.07 64.06 C 93.96 64.85 92.40 66.87 90.37 64.70 C 88.60 65.78 86.91 65.83 84.90 65.83 C 85.67 64.87 86.45 63.91 87.24 62.96 C 87.05 62.04 86.85 61.12 86.65 60.20 C 85.11 59.91 83.26 59.93 81.86 59.18 C 80.45 57.83 79.40 56.08 78.30 54.49 C 76.36 55.31 74.06 57.94 72.59 54.98 C 74.02 52.66 76.08 50.31 79.09 50.64 C 81.45 51.48 81.40 55.10 83.52 56.34 C 84.77 57.06 86.18 56.51 87.47 56.19 C 87.28 55.33 85.36 54.89 84.72 54.24 C 83.20 52.28 82.16 49.98 80.66 47.99 C 82.74 44.93 85.39 46.07 88.54 45.40 C 90.73 44.53 92.44 42.46 94.75 41.72 C 97.43 40.70 99.88 41.28 101.48 38.47 C 103.58 35.43 105.70 33.71 109.63 34.98 Z" fill="#c30606" />
<path d="M 59.14 44.03 C 61.64 44.65 63.17 44.48 61.53 47.58 C 64.73 48.12 63.68 48.70 63.96 51.34 C 65.98 49.21 67.88 50.16 68.43 46.49 C 70.06 48.94 67.86 50.40 68.61 52.95 C 67.32 53.71 65.22 54.14 64.39 55.35 C 64.06 57.31 64.54 59.03 64.94 60.92 C 67.04 61.90 69.21 62.72 71.28 63.75 C 73.16 64.68 74.44 66.57 75.98 67.98 C 77.43 68.71 79.05 69.17 80.57 69.73 C 79.10 71.27 77.64 72.76 75.77 73.81 C 73.05 75.53 69.76 75.48 66.81 76.91 L 66.77 74.08 C 63.77 74.04 61.48 74.53 59.70 71.63 C 62.08 71.26 63.85 70.68 65.87 69.41 C 62.11 69.44 59.52 67.17 55.75 68.56 C 56.86 66.07 58.48 64.98 60.75 63.65 C 60.40 63.37 60.14 63.03 60.00 62.64 C 58.00 63.34 57.03 63.64 55.00 62.65 C 54.33 63.55 53.66 64.44 52.98 65.34 C 53.10 64.35 53.20 63.36 53.31 62.37 L 54.88 62.52 C 53.88 59.34 55.62 58.92 58.11 57.94 C 56.74 57.70 55.38 57.42 54.02 57.17 C 53.62 56.47 53.23 55.78 52.84 55.08 C 51.62 55.59 50.41 56.11 49.17 56.58 C 50.38 54.16 50.81 53.30 53.61 52.64 C 54.09 51.99 54.55 51.34 55.01 50.67 C 56.01 50.64 57.01 50.61 58.02 50.58 C 58.08 49.55 58.19 48.52 58.34 47.51 L 60.81 47.46 C 60.21 46.34 59.66 45.19 59.14 44.03 Z" fill="#c30606" />
<path d="M 90.26 58.13 C 91.09 57.13 94.48 57.62 93.31 59.37 C 92.14 61.08 89.63 60.19 90.26 58.13 Z" fill="#ffffff" />
<path d="M 80.98 85.89 C 79.39 88.45 78.04 90.15 80.08 92.98 C 82.23 91.35 84.28 89.82 86.99 89.28 C 90.05 88.13 89.88 92.55 89.81 94.36 C 88.53 93.65 87.23 92.96 85.92 92.29 C 82.85 92.96 84.52 97.08 84.94 99.11 C 81.66 99.39 80.29 97.56 77.86 95.87 C 77.52 98.76 79.90 98.81 81.90 99.93 C 80.11 100.60 77.90 101.76 75.95 101.42 C 73.76 100.60 72.42 98.61 70.22 97.75 C 70.54 98.54 70.89 99.32 71.28 100.08 C 69.78 100.92 68.28 101.68 66.71 102.35 C 68.17 103.20 71.39 103.48 70.69 105.70 C 68.48 105.10 65.64 103.02 63.39 103.74 C 61.60 104.83 59.97 104.49 58.05 104.00 C 56.60 103.62 55.07 102.73 55.89 100.99 C 56.79 98.89 55.28 98.59 54.23 97.07 C 53.32 97.63 51.88 100.60 50.65 99.65 C 50.62 96.72 51.06 96.15 53.92 95.41 C 54.64 92.84 57.30 92.42 58.37 89.95 C 57.14 89.79 55.91 89.62 54.68 89.45 C 56.28 87.04 58.31 87.52 60.89 87.53 C 60.26 88.43 59.63 89.32 58.99 90.21 C 60.33 89.15 61.70 88.14 63.15 87.24 C 63.73 89.14 64.03 91.07 64.27 93.03 C 67.84 91.78 70.10 90.42 72.80 87.78 C 75.14 85.92 78.20 82.77 80.98 85.89 Z" fill="#c30606" />
<path d="M 105.39 99.96 C 107.59 103.21 108.72 106.67 106.10 110.09 C 103.89 111.46 101.33 111.08 99.66 113.56 C 98.59 115.36 99.29 116.63 100.85 117.76 C 102.12 117.13 103.40 116.50 104.68 115.87 C 103.55 119.78 102.80 120.97 99.31 122.95 C 100.70 125.71 100.85 126.06 104.14 125.46 C 102.39 127.78 101.81 128.49 98.81 128.61 C 99.94 131.17 100.53 131.67 103.14 132.85 C 100.01 134.99 97.42 133.80 93.99 133.40 C 94.86 134.38 95.83 135.26 96.91 136.05 C 95.99 136.35 95.06 136.57 94.13 136.71 C 91.28 136.36 90.77 133.31 90.09 131.06 C 89.16 131.76 88.53 132.59 87.93 133.59 C 88.68 134.40 89.43 135.21 90.18 136.03 C 87.65 136.94 84.54 138.53 82.03 136.88 C 79.84 139.59 79.58 138.71 76.15 137.87 C 77.34 138.97 77.56 140.34 76.79 141.98 C 75.12 140.25 74.39 139.22 76.46 137.32 C 75.14 136.97 74.87 135.70 75.68 133.52 L 73.10 135.08 C 71.00 134.66 71.16 132.83 70.85 131.15 C 72.05 129.98 72.68 128.94 73.23 127.36 C 75.00 126.33 76.31 124.77 77.99 123.66 C 79.71 124.05 80.00 126.72 81.31 127.74 C 83.93 128.16 86.32 125.63 87.42 123.53 C 88.70 121.00 87.74 118.89 87.35 116.29 C 86.23 116.31 85.11 116.32 83.99 116.33 C 82.97 115.56 81.98 114.76 80.97 113.98 C 79.66 114.92 78.58 116.03 77.51 117.24 C 77.29 115.72 77.44 114.31 77.95 113.04 C 79.14 110.87 82.46 111.14 84.61 110.80 C 85.33 107.56 85.76 103.74 89.18 102.19 C 92.59 100.68 97.33 102.80 100.83 102.64 C 102.49 102.21 103.96 100.87 105.39 99.96 Z" fill="#c30606" />
<path d="M 60.73 105.42 C 61.34 106.14 61.52 107.08 61.28 108.24 C 60.03 108.01 59.09 107.15 58.47 105.66 C 58.81 104.97 59.57 104.89 60.73 105.42 Z" fill="#c30606" />
<path d="M 75.44 123.95 C 74.70 125.63 72.53 125.95 71.20 124.83 C 70.97 123.26 74.76 122.62 75.44 123.95 Z" fill="#c30606" />
<path d="M 68.71 132.15 C 71.34 129.67 70.51 136.49 68.35 134.96 C 67.95 134.10 68.07 133.16 68.71 132.15 Z" fill="#c30606" />
<path d="M 87.57 138.17 C 88.01 139.35 88.46 140.52 88.89 141.70 C 87.39 141.01 85.92 140.45 84.81 139.16 C 85.73 138.83 86.65 138.50 87.57 138.17 Z" fill="#c30606" />
<path d="M 68.86 149.07 C 72.63 148.30 76.20 149.52 79.96 149.05 C 78.40 151.64 81.81 151.51 82.86 153.24 C 84.28 155.72 85.97 158.23 86.98 160.89 L 86.15 161.85 C 84.75 160.76 83.86 160.21 82.04 160.30 C 76.70 160.43 71.15 161.16 66.21 163.27 C 51.07 168.66 39.44 180.28 24.55 185.94 C 20.98 187.06 15.65 188.59 13.08 184.86 C 10.14 181.66 11.47 178.42 11.14 174.51 C 19.74 174.38 26.81 170.64 34.11 166.52 L 35.46 166.96 C 34.20 169.17 32.70 170.04 33.14 172.88 C 30.15 170.03 26.10 171.94 25.80 175.86 L 24.53 174.27 C 22.50 175.03 20.55 175.97 18.45 176.55 C 20.47 177.93 20.80 180.24 21.83 182.37 C 21.57 182.91 21.30 183.44 21.02 183.97 C 22.32 183.54 23.62 183.15 24.93 182.79 C 23.40 181.67 22.98 181.10 22.62 179.10 L 25.13 179.87 C 24.66 178.90 24.18 177.93 23.71 176.97 C 23.19 177.67 22.66 178.37 22.14 179.08 L 21.58 175.86 C 22.75 175.72 23.86 175.78 24.93 176.03 C 26.62 177.16 26.75 179.63 29.16 179.69 C 32.56 180.27 34.65 176.45 33.60 173.49 C 36.10 176.62 39.64 175.64 41.17 172.41 C 41.80 170.06 40.49 168.84 39.19 167.10 C 40.09 166.02 40.86 165.41 42.09 164.80 C 43.27 166.90 44.89 168.43 44.76 171.00 C 45.88 170.32 46.92 169.53 48.05 168.86 C 45.42 167.82 44.48 165.54 43.58 163.08 C 44.78 162.99 45.97 162.90 47.17 162.82 C 46.73 162.26 46.28 161.71 45.84 161.15 C 44.61 162.33 43.50 162.65 42.52 162.10 L 42.92 161.18 C 46.79 158.52 50.98 156.26 55.16 154.14 C 59.34 151.94 63.90 150.84 68.25 148.93 C 70.03 151.83 70.82 154.63 71.15 158.01 C 70.07 157.97 69.38 157.29 69.08 155.96 C 68.43 157.95 68.01 158.37 66.04 159.15 C 65.47 157.30 64.84 155.47 64.14 153.66 C 64.38 153.08 64.63 152.51 64.89 151.94 C 63.50 152.40 62.11 152.87 60.71 153.33 C 61.38 153.69 62.04 154.07 62.69 154.47 C 63.25 156.49 63.74 158.53 64.21 160.57 C 68.22 158.61 72.33 158.09 76.68 157.45 C 76.78 156.43 76.89 155.42 77.01 154.42 C 75.77 155.82 74.81 157.20 72.86 157.64 C 72.69 155.41 71.57 152.52 72.60 150.41 C 71.05 150.36 70.12 149.92 68.86 149.07 Z" fill="#ffffff" />
<path d="M 119.53 150.43 C 119.53 150.44 119.53 150.44 119.53 150.43 Z" fill="#ffffff" />
<path d="M 55.91 154.99 C 58.26 157.05 60.51 159.22 62.97 161.17 C 62.02 161.45 61.07 161.73 60.13 162.02 C 59.75 161.28 59.38 160.54 59.01 159.80 C 58.26 160.25 57.49 160.68 56.71 161.07 C 57.09 162.02 57.48 162.97 57.86 163.92 L 56.24 164.29 C 56.53 161.17 56.27 158.09 55.91 154.99 Z" fill="#c30606" />
<path d="M 143.99 156.03 C 145.49 156.41 146.83 157.53 148.14 158.32 C 147.71 159.18 147.36 160.08 146.95 160.95 C 146.72 159.87 146.46 158.80 146.19 157.73 C 142.55 155.85 141.20 161.19 142.73 163.63 C 144.88 163.51 145.60 162.79 146.70 165.09 C 147.90 162.97 149.13 160.97 149.57 158.53 C 150.48 159.13 151.39 159.73 152.30 160.33 C 150.10 161.81 149.25 164.03 148.02 166.27 C 149.66 167.14 151.54 166.74 153.31 166.74 C 154.26 165.27 155.07 163.85 155.40 162.10 C 156.20 162.72 157.01 163.34 157.81 163.97 C 156.30 165.31 153.60 168.03 154.82 170.19 L 157.13 170.83 C 158.75 168.97 159.86 167.07 160.71 164.77 L 161.77 166.54 C 160.09 167.96 159.08 169.93 157.50 171.41 C 155.95 172.12 154.30 170.75 152.94 170.09 C 152.75 169.50 152.55 168.90 152.34 168.31 C 150.39 167.85 145.42 166.80 145.64 164.11 C 143.32 164.56 141.23 164.20 140.16 161.88 C 138.83 159.16 141.39 156.48 143.99 156.03 Z" fill="#c30606" />
<path d="M 50.36 157.78 C 52.68 158.80 52.92 158.41 53.03 161.07 C 54.56 161.94 55.18 162.07 55.34 164.02 C 54.15 165.55 52.16 166.53 50.57 167.61 C 50.27 164.70 48.48 162.82 47.00 160.42 L 49.68 158.53 C 49.18 160.04 49.63 161.36 51.02 162.51 C 51.10 160.96 50.88 159.39 50.36 157.78 Z" fill="#c30606" />
<path d="M 45.84 161.15 C 46.28 161.71 46.73 162.26 47.17 162.82 C 45.97 162.90 44.78 162.99 43.58 163.08 C 44.48 165.54 45.42 167.82 48.05 168.86 C 46.92 169.53 45.88 170.32 44.76 171.00 C 44.89 168.43 43.27 166.90 42.09 164.80 C 40.86 165.41 40.09 166.02 39.19 167.10 C 40.49 168.84 41.80 170.06 41.17 172.41 C 39.64 175.64 36.10 176.62 33.60 173.49 C 34.65 176.45 32.56 180.27 29.16 179.69 C 26.75 179.63 26.62 177.16 24.93 176.03 C 23.86 175.78 22.75 175.72 21.58 175.86 L 22.14 179.08 C 22.66 178.37 23.19 177.67 23.71 176.97 C 24.18 177.93 24.66 178.90 25.13 179.87 L 22.62 179.10 C 22.98 181.10 23.40 181.67 24.93 182.79 C 23.62 183.15 22.32 183.54 21.02 183.97 C 21.30 183.44 21.57 182.91 21.83 182.37 C 20.80 180.24 20.47 177.93 18.45 176.55 C 20.55 175.97 22.50 175.03 24.53 174.27 L 25.80 175.86 C 26.10 171.94 30.15 170.03 33.14 172.88 C 32.70 170.04 34.20 169.17 35.46 166.96 C 36.71 166.86 37.94 166.63 39.17 166.40 C 39.77 164.65 40.28 162.28 42.52 162.10 C 43.50 162.65 44.61 162.33 45.84 161.15 Z" fill="#c30606" />
<path d="M 52.06 162.39 C 53.52 162.59 54.22 165.09 52.45 165.30 C 51.42 164.95 50.28 162.40 52.06 162.39 Z" fill="#ffffff" />
<path d="M 17.01 162.43 C 17.33 166.19 18.09 169.43 19.46 172.93 C 18.21 173.21 16.97 173.50 15.73 173.81 C 13.97 171.84 12.31 169.79 10.62 167.77 C 13.33 166.36 15.13 164.85 17.01 162.43 Z" fill="#ffffff" />
<path d="M 131.37 163.43 C 132.38 164.79 133.16 166.23 133.69 167.74 C 132.73 167.32 129.70 164.24 131.37 163.43 Z" fill="#ffffff" />
<path d="M 182.98 162.88 C 183.67 163.56 184.37 164.23 185.06 164.91 C 186.33 166.04 187.75 166.96 189.21 167.84 C 187.52 169.78 185.87 171.78 184.24 173.77 C 182.99 173.56 181.73 173.35 180.48 173.15 C 181.19 170.98 181.86 168.76 182.34 166.53 C 182.57 165.31 182.79 164.10 182.98 162.88 Z" fill="#ffffff" />
<path d="M 163.59 167.11 C 164.30 167.72 164.67 168.33 165.00 169.20 C 164.13 171.41 161.95 173.06 161.53 175.37 L 163.76 174.77 C 163.97 172.18 165.47 170.75 166.94 168.81 C 167.74 171.29 168.14 171.94 165.48 173.06 C 166.16 175.06 165.89 175.53 164.07 176.52 C 162.23 176.34 160.66 174.90 159.18 173.88 C 161.32 172.00 162.33 169.59 163.59 167.11 Z" fill="#c30606" />
<path d="M 36.07 168.05 C 38.20 168.31 39.64 171.18 39.79 173.07 C 37.25 177.07 32.63 169.45 36.07 168.05 Z" fill="#ffffff" />
<path d="M 31.63 178.69 C 29.06 179.63 27.79 175.63 27.13 173.89 C 29.85 170.18 33.80 176.21 31.63 178.69 Z" fill="#ffffff" />
<path d="M 7.85 173.91 C 8.95 173.75 9.63 174.05 9.87 174.82 C 9.13 176.72 7.51 175.51 7.85 173.91 Z" fill="#ffffff" />
<path d="M 135.09 183.29 C 136.52 182.94 136.64 186.10 135.16 185.67 C 134.53 184.86 134.51 184.07 135.09 183.29 Z" fill="#c30606" />
<path d="M 114.55 183.88 C 114.61 184.83 114.66 185.78 114.71 186.74 C 114.25 187.59 113.78 188.43 113.30 189.27 C 115.41 188.64 116.66 188.76 118.69 189.43 C 118.86 192.92 118.49 193.20 115.44 195.29 C 115.65 193.02 117.04 190.97 114.95 189.20 C 113.62 190.75 111.55 192.88 114.46 194.22 C 113.92 194.63 113.36 195.04 112.81 195.43 C 109.56 193.53 110.45 188.23 113.58 186.84 C 113.12 186.29 112.66 185.74 112.19 185.19 C 110.31 185.57 108.51 185.78 106.59 185.67 C 109.34 185.22 112.01 185.14 114.55 183.88 Z" fill="#c30606" />
<path d="M 116.09 185.24 C 116.93 185.31 117.76 185.42 118.59 185.57 C 119.67 187.47 118.13 187.41 116.98 188.53 C 116.64 187.45 116.34 186.35 116.09 185.24 Z" fill="#c30606" />
<path d="M 109.46 186.91 C 108.56 188.84 107.32 190.90 107.06 193.01 C 106.73 194.44 106.95 195.72 105.79 196.79 C 105.15 196.53 104.51 196.27 103.87 196.02 C 104.95 193.66 106.10 191.33 107.24 189.00 C 104.90 189.35 103.22 189.87 101.35 191.26 C 101.62 190.12 101.89 188.97 102.15 187.83 C 104.63 187.75 107.03 187.41 109.46 186.91 Z" fill="#c30606" />
<path d="M 99.36 189.94 C 98.90 190.56 98.45 191.18 98.01 191.80 C 98.55 192.53 99.10 193.26 99.65 193.98 C 98.49 197.39 94.98 197.88 92.50 195.49 C 91.15 194.33 92.64 193.35 93.24 192.29 C 92.73 190.87 91.60 190.27 92.76 188.85 C 94.52 187.20 98.11 187.77 99.36 189.94 Z" fill="#c30606" />
<path d="M 94.24 189.08 C 95.57 187.94 97.83 188.84 97.36 190.74 C 96.84 192.33 93.24 190.44 94.24 189.08 Z" fill="#ffffff" />
<path d="M 94.19 193.22 C 95.25 192.11 96.89 194.07 97.56 194.85 C 96.65 197.45 92.05 195.35 94.19 193.22 Z" fill="#ffffff" />
<path d="M 116.33 197.06 L 117.02 196.65 L 117.72 197.08 L 117.72 197.91 L 117.02 198.33 L 116.33 197.90 L 116.33 197.06 Z" fill="#c30606" />
<path d="M 114.06 198.28 C 111.63 198.73 109.37 198.84 107.14 200.00 L 90.90 200.00 C 96.31 198.47 102.38 200.08 107.86 199.05 C 109.93 198.29 111.87 198.18 114.06 198.28 Z" fill="#c30606" />
</svg>