<?xml version="1.0" encoding="UTF-8" standalone="no"?>
<!DOCTYPE svg PUBLIC "-//W3C//DTD SVG 1.1//EN" "http://www.w3.org/Graphics/SVG/1.1/DTD/svg11.dtd">
<svg xmlns="http://www.w3.org/2000/svg" version="1.1" viewBox="0 0 200 200" width="200.0pt" height="200.0pt">
<path d="M 0.00 0.00 L 31.15 0.00 C 31.00 20.32 31.12 40.67 31.08 61.00 C 31.20 68.03 30.71 74.97 31.33 81.99 C 32.95 103.75 40.52 125.70 53.98 143.01 C 65.39 157.76 80.89 168.93 98.17 175.80 C 99.81 176.48 101.19 176.10 102.78 175.48 C 120.11 168.31 135.59 156.98 146.89 141.93 C 162.19 121.61 169.23 96.25 169.16 71.00 C 169.10 47.33 169.16 23.67 169.13 0.00 L 200.00 0.00 L 200.00 200.00 L 106.69 200.00 C 116.92 199.16 127.05 196.78 136.80 193.59 C 146.78 190.28 157.54 184.59 163.74 175.82 C 165.69 173.15 166.50 170.31 164.74 167.27 C 162.32 162.85 161.21 159.04 160.70 154.01 C 160.44 149.35 157.17 145.40 152.51 144.64 C 147.36 143.75 142.26 147.77 141.80 152.95 C 142.01 157.30 145.11 160.50 145.31 164.98 C 145.36 167.44 146.10 170.05 143.41 171.37 C 132.01 177.70 119.00 181.29 105.99 181.95 C 88.08 183.08 69.98 179.40 54.48 170.17 C 54.59 166.91 54.36 163.54 55.58 160.47 C 56.32 158.38 57.74 156.23 57.93 154.02 C 58.63 148.79 53.08 143.85 47.98 144.61 C 44.30 145.03 40.95 147.15 39.82 150.81 C 38.65 155.22 38.93 159.52 36.82 163.80 C 35.41 167.07 33.16 169.44 34.70 173.21 C 37.64 179.06 43.25 183.86 48.80 187.18 C 64.34 195.68 81.37 199.27 98.96 200.00 L 0.00 200.00 L 0.00 0.00 Z" fill="#ffffff" />
<path d="M 31.15 0.00 L 169.13 0.00 C 169.16 23.67 169.10 47.33 169.16 71.00 C 169.23 96.25 162.19 121.61 146.89 141.93 C 135.59 156.98 120.11 168.31 102.78 175.48 C 101.19 176.10 99.81 176.48 98.17 175.80 C 80.89 168.93 65.39 157.76 53.98 143.01 C 40.52 125.70 32.95 103.75 31.33 81.99 C 30.71 74.97 31.20 68.03 31.08 61.00 C 31.12 40.67 31.00 20.32 31.15 0.00 Z" fill="#0e0e0b" />
<path d="M 32.54 1.48 C 77.54 1.49 122.54 1.49 167.55 1.48 C 167.55 23.99 167.53 46.49 167.56 69.00 C 168.30 93.99 161.25 120.08 146.29 140.31 C 135.10 155.53 119.46 167.10 102.01 174.18 C 100.19 174.99 98.90 174.53 97.16 173.86 C 80.90 166.97 66.33 156.51 55.44 142.53 C 42.59 126.11 35.39 106.14 33.10 85.52 C 32.21 78.30 32.58 71.25 32.54 64.00 C 32.53 43.16 32.54 22.32 32.54 1.48 Z" fill="#eebb2c" />
<path d="M 34.88 3.85 C 78.32 3.81 121.76 3.79 165.20 3.86 C 165.25 25.57 165.19 47.29 165.23 69.00 C 165.97 94.56 158.44 121.29 142.41 141.46 C 131.34 155.54 116.52 165.78 100.01 172.51 C 79.66 164.31 61.94 150.33 50.64 131.37 C 39.44 112.82 34.17 90.59 34.84 69.00 C 34.89 47.28 34.82 25.56 34.88 3.85 Z" fill="#0e0e0b" />
<path d="M 36.53 5.51 C 40.67 5.20 44.85 5.46 49.00 5.40 C 87.23 5.36 125.46 5.43 163.68 5.37 C 163.72 26.58 163.67 47.79 163.71 69.00 C 164.45 94.39 156.94 120.99 140.91 140.95 C 130.17 154.43 115.88 164.35 100.01 170.88 C 80.97 163.08 64.31 150.22 53.25 132.74 C 41.48 114.26 35.79 91.84 36.39 70.00 C 36.53 48.56 36.23 26.92 36.53 5.51 Z" fill="#4f86c4" />
<path d="M 52.98 7.13 C 57.32 6.93 60.23 10.25 64.05 10.82 C 65.52 10.22 66.90 9.47 68.29 8.72 C 68.98 9.63 70.84 10.70 70.24 11.96 C 67.74 15.14 63.86 17.32 60.74 19.86 C 62.85 21.71 65.21 23.08 65.94 25.97 C 67.04 30.10 64.27 34.23 60.19 35.19 C 55.14 36.53 51.53 34.27 46.79 33.24 C 44.48 32.60 41.93 34.34 39.82 35.17 C 39.23 34.21 38.39 33.23 38.13 32.12 C 41.32 28.33 45.98 25.84 49.64 22.48 C 46.77 20.74 44.06 19.51 43.48 15.83 C 43.03 10.99 48.52 7.03 52.98 7.13 Z" fill="#0e0e0b" />
<path d="M 93.99 7.04 C 100.77 5.95 107.10 7.88 112.90 11.29 C 115.07 10.62 117.51 9.15 119.73 10.30 C 121.13 10.94 122.79 12.30 122.39 14.03 C 121.37 15.77 119.81 17.21 118.94 19.02 C 119.10 22.04 120.31 24.94 120.60 27.98 C 121.16 32.42 120.51 36.77 119.29 41.03 C 120.57 42.89 122.19 44.94 122.75 47.14 C 123.45 50.31 122.58 53.73 123.17 56.87 C 124.08 58.91 125.65 60.82 126.28 62.95 C 126.52 65.31 125.41 67.86 124.76 70.11 C 125.61 72.29 126.99 74.64 127.10 77.00 C 126.72 79.38 125.34 81.56 125.05 83.93 C 125.40 87.48 126.80 90.37 125.85 94.01 C 125.20 97.01 123.11 98.99 121.17 101.22 C 121.66 103.35 122.13 105.49 122.59 107.64 C 127.38 106.36 132.05 106.94 136.91 107.15 C 135.54 105.54 133.81 103.90 132.90 101.98 C 132.50 100.28 133.40 98.30 133.81 96.63 C 131.16 95.71 128.64 95.47 127.40 92.58 C 126.78 89.94 127.46 86.86 127.56 84.15 C 130.41 84.87 132.68 85.91 135.13 87.53 C 137.24 85.31 139.31 83.06 141.34 80.76 C 142.81 81.83 144.63 82.86 145.48 84.51 C 146.37 86.00 145.94 88.10 145.94 89.78 C 149.50 89.49 152.31 89.73 155.66 90.98 C 152.65 95.50 148.35 97.82 143.01 98.44 C 141.43 98.88 137.90 98.58 138.02 100.98 C 138.87 104.25 141.99 105.14 145.00 105.35 C 149.07 105.72 152.27 102.48 155.31 100.26 C 156.29 102.64 158.10 104.86 156.38 107.39 C 154.62 109.93 151.37 109.85 148.63 110.38 C 147.49 112.67 146.84 115.22 144.20 116.20 C 139.27 117.70 132.54 114.76 128.38 118.32 C 125.73 120.22 125.43 122.74 125.11 125.75 C 130.56 124.69 136.01 123.07 140.49 127.50 C 142.50 129.38 139.14 131.02 137.71 131.71 C 133.69 133.74 130.18 132.46 126.02 131.91 C 126.72 134.86 128.95 137.83 126.53 140.53 C 125.30 141.95 122.04 145.10 120.40 142.64 C 117.37 139.67 117.17 137.59 118.82 133.71 C 116.62 133.99 114.17 134.52 111.97 134.12 C 109.55 133.59 108.17 131.96 106.42 130.37 C 109.50 129.28 112.20 127.57 115.10 126.12 C 116.99 125.71 119.10 126.20 121.02 126.32 C 121.04 124.17 122.37 120.87 121.01 118.99 C 117.05 119.02 113.08 120.01 109.41 121.47 C 106.42 122.69 104.55 125.27 101.91 126.98 C 100.36 128.01 98.04 127.22 96.32 126.99 C 95.79 125.16 95.22 123.33 94.57 121.53 C 93.10 123.41 92.71 125.59 92.08 127.83 C 89.19 126.36 87.77 124.58 86.16 121.86 C 85.71 123.20 85.25 124.53 84.79 125.87 C 85.69 126.64 86.60 127.41 87.51 128.17 C 83.70 131.07 81.01 134.39 75.85 134.63 C 76.93 135.97 78.42 137.39 78.99 139.05 C 78.58 140.74 77.21 142.17 76.18 143.54 C 71.93 142.03 69.69 140.74 67.35 136.78 C 64.37 138.45 62.31 138.94 58.89 138.98 C 59.18 135.75 59.17 132.06 61.55 129.55 C 63.44 127.86 66.59 127.46 68.98 126.86 C 70.15 124.97 72.33 122.22 71.54 119.92 C 70.10 117.44 66.75 117.78 64.39 118.41 C 61.92 119.24 61.04 122.92 59.92 124.99 C 58.26 123.28 55.94 121.64 55.94 119.00 C 56.24 117.64 56.72 116.37 57.18 115.06 C 52.04 111.81 47.35 108.13 43.83 103.11 C 42.84 101.64 41.75 99.83 41.88 97.99 C 42.61 94.54 46.38 93.13 49.11 91.56 C 50.38 95.14 51.33 99.20 53.92 102.05 C 55.60 103.97 57.74 105.04 59.91 106.31 C 59.01 102.36 58.55 98.89 59.64 94.90 C 57.28 93.57 54.30 92.52 53.16 89.84 C 51.91 87.45 53.71 84.27 54.40 81.89 C 57.90 82.88 60.01 84.44 62.48 87.06 C 63.37 84.98 63.79 83.05 65.92 81.88 C 68.69 80.45 71.95 79.86 74.94 79.01 C 70.89 67.09 71.19 54.23 77.38 43.10 C 76.31 39.08 75.38 35.17 75.58 30.97 C 75.68 26.93 77.29 23.26 78.80 19.58 C 76.77 17.99 74.39 16.74 73.76 14.04 C 73.17 11.48 74.25 8.62 77.13 8.31 C 79.80 8.30 82.00 10.42 84.00 11.94 C 87.12 9.96 90.30 7.76 93.99 7.04 Z" fill="#0e0e0b" />
<path d="M 96.03 8.40 C 98.53 8.38 101.00 8.65 103.48 8.94 C 101.19 10.23 99.42 11.56 97.81 13.66 C 96.26 11.94 94.60 10.36 92.86 8.83 C 93.92 8.68 94.97 8.53 96.03 8.40 Z" fill="#ffffff" />
<path d="M 128.97 8.44 C 137.31 8.26 145.66 8.51 154.00 8.36 C 157.30 8.54 159.82 7.50 161.81 10.82 C 160.44 11.86 159.00 12.89 157.76 14.07 C 158.12 18.08 161.52 21.60 161.31 26.01 C 161.35 31.16 156.97 35.11 151.98 35.26 C 148.83 35.41 145.85 33.51 143.11 32.17 C 140.46 33.54 138.06 34.94 135.00 35.12 C 129.39 35.47 124.17 29.74 125.48 24.15 C 126.30 20.55 128.75 17.16 130.55 13.96 C 129.21 13.15 127.79 12.39 126.56 11.41 C 125.18 9.85 127.48 8.29 128.97 8.44 Z" fill="#0e0e0b" />
<path d="M 51.97 8.49 C 56.36 7.83 59.30 11.11 63.20 12.21 C 65.04 12.68 67.56 9.69 68.99 10.95 L 68.87 11.82 C 65.55 14.94 61.58 17.36 58.12 20.35 C 60.16 21.54 63.01 22.71 64.17 24.87 C 65.70 28.07 64.61 31.81 61.31 33.31 C 56.35 35.60 52.18 33.10 47.40 31.95 C 44.49 31.13 41.99 32.84 39.15 33.42 C 42.50 28.68 48.33 25.80 52.63 21.90 C 49.41 20.54 45.93 19.91 44.82 16.09 C 44.21 12.12 48.44 8.96 51.97 8.49 Z" fill="#ffffff" />
<path d="M 76.20 10.21 C 79.75 9.50 81.10 12.54 84.00 13.64 C 86.69 12.63 89.09 9.87 92.10 10.56 C 94.84 11.93 96.04 14.56 97.80 16.91 C 99.71 14.79 100.26 12.13 103.09 11.13 C 107.00 9.46 109.62 11.54 112.97 13.18 C 116.32 11.69 117.78 10.81 121.28 12.87 C 120.06 14.67 118.40 16.26 117.41 18.19 C 116.76 20.10 117.86 22.60 118.25 24.52 C 119.70 29.71 119.16 34.87 117.92 40.03 C 116.13 39.47 114.34 38.93 112.51 38.51 C 113.15 38.16 113.78 37.81 114.41 37.45 C 113.43 36.82 112.45 36.20 111.46 35.59 L 115.25 35.24 C 114.20 34.42 113.15 33.60 112.09 32.79 C 113.36 32.66 114.63 32.52 115.90 32.38 C 114.86 31.62 113.82 30.85 112.77 30.09 L 115.78 29.18 C 115.28 28.54 114.30 28.06 112.83 27.75 C 113.96 27.13 115.06 26.45 116.17 25.80 L 112.72 25.13 C 113.66 24.49 114.59 23.84 115.52 23.19 L 112.65 23.15 C 113.37 22.24 114.08 21.32 114.78 20.40 L 111.51 20.85 L 114.00 17.76 L 110.52 19.05 L 112.12 15.62 C 108.45 16.58 105.45 18.23 103.86 21.83 C 101.72 27.13 101.51 33.90 104.48 38.94 C 102.76 40.31 101.13 41.74 99.55 43.26 C 97.40 41.66 95.20 40.23 92.87 38.89 C 96.18 33.43 95.90 26.44 93.23 20.81 C 91.54 17.55 88.56 16.49 85.21 15.63 L 87.24 19.00 L 83.53 17.99 C 84.37 18.91 85.22 19.83 86.07 20.75 L 82.65 20.52 L 84.93 23.10 L 82.12 23.10 C 82.72 23.65 83.32 24.20 83.92 24.75 C 83.20 25.24 82.47 25.73 81.75 26.22 C 82.89 26.75 84.03 27.29 85.16 27.85 C 83.96 28.16 82.76 28.48 81.56 28.81 C 82.68 29.29 83.83 29.72 84.97 30.14 C 83.86 30.84 82.77 31.56 81.69 32.30 C 82.94 32.49 84.20 32.68 85.45 32.87 C 84.43 33.62 83.40 34.36 82.38 35.10 C 83.47 35.40 84.56 35.69 85.65 35.98 C 84.71 36.36 83.77 36.74 82.83 37.11 C 83.47 37.58 84.11 38.05 84.75 38.52 C 82.62 39.49 80.58 40.61 78.57 41.81 C 77.65 37.49 76.83 33.43 77.39 28.98 C 77.92 25.38 79.73 22.40 80.60 18.99 C 79.25 17.78 77.72 16.79 76.41 15.54 C 75.00 14.11 74.92 11.77 76.20 10.21 Z" fill="#ffffff" />
<path d="M 127.24 10.01 C 138.23 9.85 149.29 9.80 160.27 10.03 C 159.06 11.30 156.79 12.45 156.24 14.13 C 156.64 18.34 160.16 21.36 159.83 26.02 C 159.95 30.97 155.67 34.01 151.00 33.90 C 147.54 34.25 145.88 31.30 143.05 30.61 C 140.19 31.82 138.34 33.93 135.00 33.80 C 130.66 33.90 126.63 30.49 126.69 26.01 C 126.61 20.97 131.07 17.66 131.76 13.36 C 130.47 12.03 128.72 11.11 127.24 10.01 Z" fill="#ffffff" />
<path d="M 54.00 11.24 C 57.27 11.12 59.28 13.06 61.07 15.51 C 59.22 16.94 57.25 18.82 55.01 19.58 C 52.34 19.30 50.84 16.88 49.28 15.00 C 50.64 13.30 51.48 11.18 54.00 11.24 Z" fill="#0e0e0b" />
<path d="M 138.47 11.50 C 141.43 10.85 142.64 13.37 142.35 15.99 C 142.06 19.68 142.69 25.89 139.42 28.38 C 136.09 30.96 132.18 28.50 131.25 24.88 C 130.23 19.98 133.80 13.34 138.47 11.50 Z" fill="#0e0e0b" />
<path d="M 150.84 12.16 C 154.64 15.46 156.58 21.30 155.17 26.18 C 154.30 28.74 152.25 29.38 150.06 30.51 C 147.42 29.45 144.98 29.04 144.15 25.91 C 143.49 22.45 144.19 18.62 144.48 15.12 C 144.64 12.15 148.47 10.30 150.84 12.16 Z" fill="#0e0e0b" />
<path d="M 52.18 13.14 C 55.15 11.80 57.16 13.47 59.54 15.02 C 57.81 16.13 55.77 19.01 53.48 17.60 C 51.50 16.67 50.48 14.99 52.18 13.14 Z" fill="#4f86c4" />
<path d="M 138.14 13.09 C 138.75 12.56 139.58 12.65 140.63 13.38 C 140.97 16.89 140.78 20.54 140.40 24.04 C 140.24 26.07 138.86 27.50 136.98 28.09 C 134.73 28.33 132.61 26.25 132.48 24.04 C 132.11 19.74 134.45 15.31 138.14 13.09 Z" fill="#4f86c4" />
<path d="M 147.21 13.14 C 148.53 12.24 150.04 12.89 150.95 14.03 C 153.47 17.09 155.18 22.00 153.82 25.86 C 152.65 28.91 148.93 29.63 146.62 27.42 C 144.72 25.42 145.33 21.53 145.42 18.99 C 145.74 17.20 145.39 14.13 147.21 13.14 Z" fill="#4f86c4" />
<path d="M 88.94 18.85 C 91.73 20.44 92.40 22.96 93.49 25.76 C 93.14 26.19 92.77 26.61 92.40 27.03 C 89.64 24.39 86.25 26.58 87.43 30.06 C 89.31 33.18 91.47 30.20 94.02 30.50 C 93.28 32.70 93.10 36.61 90.94 38.05 C 89.45 38.27 88.36 36.32 87.82 35.18 C 85.69 30.11 85.49 23.42 88.94 18.85 Z" fill="#eebb2c" />
<path d="M 108.04 19.01 C 109.35 20.53 110.58 21.89 110.75 23.99 C 111.18 28.24 111.30 33.91 108.44 37.43 C 107.97 38.17 107.17 38.39 106.06 38.09 C 103.55 35.15 103.94 30.57 104.17 26.96 C 104.44 23.67 105.68 21.30 108.04 19.01 Z" fill="#eebb2c" />
<path d="M 55.53 22.76 C 57.74 22.24 61.10 25.66 60.65 27.86 C 59.48 31.07 55.62 32.38 52.48 31.32 C 51.21 31.01 47.81 29.80 48.17 28.13 C 50.33 26.10 52.83 23.99 55.53 22.76 Z" fill="#0e0e0b" />
<path d="M 56.06 23.71 C 57.08 24.47 58.08 25.19 58.91 26.15 C 59.97 28.18 57.88 29.88 56.04 30.11 C 53.67 30.55 51.76 29.68 49.59 28.92 C 51.54 26.92 53.64 25.13 56.06 23.71 Z" fill="#4f86c4" />
<path d="M 106.15 26.05 C 108.36 25.04 110.47 26.76 110.52 29.04 C 109.80 30.93 107.89 32.58 105.93 31.13 C 103.80 29.50 104.16 27.58 106.15 26.05 Z" fill="#0e0e0b" />
<path d="M 89.03 39.54 C 93.09 40.11 96.82 43.10 99.69 45.86 C 102.21 42.70 104.58 39.82 108.99 39.73 C 112.97 39.82 118.11 41.06 120.07 44.94 C 122.40 48.75 120.91 52.70 121.31 56.88 C 122.14 59.01 123.71 60.83 124.65 62.93 C 124.95 65.25 123.55 67.72 123.21 70.04 C 123.47 72.43 125.33 74.60 125.45 77.02 C 125.06 79.09 123.93 81.03 123.29 83.07 C 123.23 85.05 124.05 87.05 124.36 88.99 C 125.43 93.60 122.78 98.52 118.66 100.64 C 115.01 102.34 110.86 101.16 107.37 99.63 C 102.43 97.33 97.74 93.77 94.81 89.12 C 90.57 82.60 87.35 75.22 86.14 67.50 C 85.59 67.47 85.05 67.44 84.50 67.42 C 85.18 71.46 86.12 75.43 87.76 79.20 C 90.71 86.05 94.31 93.00 100.52 97.44 C 106.35 101.59 112.66 104.71 119.92 102.21 C 120.58 105.91 121.67 110.12 119.42 113.50 C 117.13 116.89 112.59 117.11 108.98 116.06 C 103.63 114.42 99.79 110.81 96.79 106.21 C 95.11 106.56 95.46 107.61 95.19 108.99 C 94.94 111.55 96.30 113.52 97.35 115.73 C 92.96 117.80 92.12 121.37 90.79 125.62 C 88.78 123.40 88.26 121.47 87.77 118.56 C 85.13 120.26 84.17 122.60 82.95 125.38 C 81.66 123.14 80.52 121.57 81.48 118.91 C 82.62 115.61 85.72 115.32 88.24 113.24 C 83.18 112.46 81.41 115.78 79.09 119.46 C 78.72 116.81 77.48 114.82 79.54 112.51 C 83.15 108.58 88.78 108.24 93.69 107.31 C 84.76 96.51 77.35 85.01 74.66 71.02 C 73.20 61.80 73.94 52.03 79.00 43.98 C 81.25 41.50 85.67 39.39 89.03 39.54 Z" fill="#ffffff" />
<path d="M 116.46 52.36 C 116.42 54.52 116.18 56.63 115.40 58.67 C 112.83 59.57 110.40 55.01 110.08 52.91 C 111.80 53.92 112.94 55.43 114.22 56.93 C 114.94 55.35 114.12 52.53 116.46 52.36 Z" fill="#0e0e0b" />
<path d="M 89.98 54.25 C 90.76 55.82 91.49 57.40 92.24 58.98 C 92.88 57.44 93.49 55.90 94.10 54.36 C 94.54 54.76 94.97 55.16 95.41 55.56 C 94.77 57.21 94.15 58.96 93.29 60.51 C 91.87 61.35 90.99 59.63 90.29 58.68 C 89.58 57.16 88.30 55.57 89.98 54.25 Z" fill="#0e0e0b" />
<path d="M 104.79 54.44 C 105.19 56.55 104.46 58.65 103.62 60.56 L 103.40 60.66 C 100.64 59.62 99.19 57.47 98.63 54.63 C 100.14 55.78 101.50 57.09 102.88 58.39 C 103.48 57.24 102.58 53.36 104.79 54.44 Z" fill="#0e0e0b" />
<path d="M 103.62 60.56 L 103.55 60.73 L 103.40 60.66 L 103.62 60.56 Z" fill="#4f86c4" />
<path d="M 111.13 65.17 C 112.55 66.38 113.71 67.76 115.03 69.14 C 115.22 67.68 115.42 66.22 115.62 64.76 L 117.10 65.52 C 117.15 67.78 116.48 69.78 115.32 71.70 C 113.41 69.74 110.83 68.29 111.13 65.17 Z" fill="#0e0e0b" />
<path d="M 107.09 67.50 C 107.55 67.79 108.01 68.09 108.46 68.41 C 108.14 70.52 107.61 72.57 107.06 74.63 C 104.43 72.92 102.30 71.37 102.16 67.96 C 103.59 69.24 104.81 70.69 106.11 72.09 C 106.43 70.56 106.68 69.01 107.09 67.50 Z" fill="#0e0e0b" />
<path d="M 97.99 69.19 L 99.85 69.37 C 99.47 71.53 99.02 73.66 98.37 75.76 C 95.82 74.09 93.52 72.60 93.56 69.21 C 94.99 70.55 96.29 72.01 97.66 73.42 C 97.77 72.01 97.88 70.60 97.99 69.19 Z" fill="#0e0e0b" />
<path d="M 75.40 79.73 C 78.49 89.60 84.19 98.03 90.57 106.05 C 88.28 106.60 86.01 107.18 83.74 107.79 C 83.14 107.11 82.55 106.43 81.95 105.75 C 76.72 104.83 75.23 110.26 70.05 109.95 C 67.53 109.25 65.31 107.03 64.47 104.57 C 63.64 101.65 64.46 99.13 65.39 96.39 C 69.38 96.99 72.91 97.06 75.56 93.55 C 77.27 91.89 73.66 90.45 72.73 89.37 C 75.58 86.20 75.64 83.82 75.40 79.73 Z" fill="#4f86c4" />
<path d="M 116.63 80.42 C 117.19 80.43 117.76 80.44 118.32 80.45 C 118.11 82.63 117.84 84.80 117.42 86.95 C 115.07 86.21 113.96 85.01 112.52 83.02 C 112.19 83.27 111.86 83.51 111.52 83.76 C 111.24 85.44 110.91 87.10 110.51 88.76 C 107.59 87.20 106.36 85.89 104.96 82.89 C 107.04 83.44 108.10 84.98 109.60 86.37 C 109.73 84.95 109.86 83.53 110.00 82.11 C 110.86 82.27 111.73 82.43 112.60 82.59 L 112.56 80.68 C 113.81 82.10 115.05 83.53 116.32 84.94 C 116.43 83.43 116.53 81.93 116.63 80.42 Z" fill="#0e0e0b" />
<path d="M 73.85 81.11 C 73.73 82.68 73.99 84.73 73.15 86.11 C 72.01 87.94 69.66 89.14 67.96 90.38 C 70.15 91.06 72.40 91.41 74.55 92.20 C 71.87 95.87 68.71 95.16 64.71 94.66 C 62.62 98.10 61.78 102.00 63.30 105.85 C 64.92 109.58 68.77 112.71 73.04 111.24 C 76.67 110.28 77.86 106.70 81.96 107.49 C 80.44 109.39 78.52 111.08 77.24 113.16 C 75.84 115.68 77.33 118.18 78.14 120.63 C 74.73 122.90 71.99 125.54 70.33 129.36 C 73.65 129.93 76.20 128.55 79.21 127.52 C 78.88 128.55 78.53 129.58 78.18 130.60 L 81.23 129.75 C 80.76 128.82 80.28 128.05 80.30 126.98 C 81.97 127.16 83.62 127.42 85.27 127.75 C 83.22 129.38 81.09 131.69 78.56 132.54 C 76.18 133.02 73.62 132.72 71.20 132.83 C 73.25 134.93 75.49 136.83 77.57 138.89 C 77.02 139.79 76.46 140.68 75.90 141.58 C 72.71 140.53 71.08 139.44 68.93 136.81 C 69.49 136.46 70.05 136.11 70.62 135.76 C 71.85 137.45 72.93 138.75 75.01 139.32 C 72.99 136.92 70.88 134.84 69.83 131.79 C 71.93 131.71 74.04 131.65 76.14 131.58 C 76.36 131.07 76.57 130.56 76.79 130.05 C 73.57 131.08 70.56 130.32 67.31 130.39 C 64.97 131.06 63.51 132.80 62.56 134.97 C 64.54 133.66 66.45 132.23 68.43 130.93 C 68.67 131.92 68.90 132.92 69.11 133.93 C 66.19 135.27 63.63 136.99 60.42 137.63 C 60.91 135.47 61.10 132.40 62.70 130.72 C 64.71 129.12 67.90 129.25 70.00 127.97 C 72.01 125.93 73.56 122.77 73.28 119.86 C 71.69 115.93 67.36 115.81 63.83 116.85 C 61.30 117.70 60.44 120.24 59.08 122.29 C 58.50 121.21 57.88 120.19 57.56 118.99 C 58.06 117.46 58.80 116.13 59.52 114.71 C 53.49 110.68 47.35 106.67 43.93 99.95 C 42.44 96.70 46.01 95.32 48.08 93.80 C 49.17 97.00 50.08 100.03 52.31 102.65 C 54.96 105.92 58.62 107.74 62.67 108.66 C 61.88 106.11 60.87 103.67 60.60 101.01 C 60.42 98.84 61.26 96.52 61.45 94.36 C 60.00 92.41 55.66 91.89 54.67 89.25 C 53.87 87.57 54.97 85.51 55.34 83.82 C 59.13 85.24 60.92 88.42 64.06 90.69 C 64.53 88.56 63.98 85.34 65.90 83.90 C 67.97 82.17 71.29 81.83 73.85 81.11 Z" fill="#ffffff" />
<path d="M 72.71 82.46 C 70.59 85.78 67.63 87.89 66.49 91.87 C 68.22 91.92 69.95 91.98 71.68 92.06 L 70.92 93.53 C 65.28 94.86 56.84 92.39 55.94 85.74 C 58.88 88.08 60.80 90.85 64.54 92.14 C 66.29 87.76 67.78 83.99 72.71 82.46 Z" fill="#4f86c4" />
<path d="M 102.61 83.46 C 102.59 85.76 102.29 87.97 101.77 90.21 C 98.40 89.00 97.18 87.54 96.26 84.11 C 97.95 85.16 99.21 86.61 100.54 88.07 C 100.70 86.69 100.88 85.31 101.10 83.94 C 101.60 83.76 102.10 83.60 102.61 83.46 Z" fill="#0e0e0b" />
<path d="M 142.01 82.70 C 143.36 84.36 144.75 85.67 144.49 88.03 C 143.46 89.68 142.14 91.15 141.01 92.74 C 142.81 92.35 144.60 91.91 146.36 91.36 C 146.77 91.89 147.19 92.41 147.60 92.94 C 145.18 93.51 142.76 94.10 140.33 94.64 C 139.47 90.63 142.56 88.44 142.16 84.57 C 140.49 87.67 138.91 90.47 138.99 94.12 L 137.00 94.26 C 137.25 93.26 137.51 92.26 137.77 91.27 C 137.28 90.45 136.80 89.63 136.31 88.81 C 138.13 86.70 140.00 84.64 142.01 82.70 Z" fill="#ffffff" />
<path d="M 128.98 86.13 C 132.66 87.38 134.63 89.31 136.91 92.38 C 136.26 92.63 135.61 92.89 134.96 93.15 C 133.38 91.56 131.83 89.97 129.90 88.79 C 131.09 91.36 132.82 93.43 135.51 94.49 C 138.42 95.85 141.54 94.99 144.35 96.59 C 141.92 97.22 138.56 96.58 136.97 98.96 C 135.66 100.79 136.72 102.56 137.93 104.09 C 139.92 106.46 143.10 107.09 146.05 107.16 C 149.50 106.96 152.36 104.43 155.20 102.68 C 155.21 104.59 156.06 106.04 154.18 107.33 C 152.37 108.52 149.65 108.38 147.54 108.67 C 146.57 110.51 145.86 113.96 143.66 114.63 C 139.88 115.35 135.77 114.45 131.94 114.95 C 128.23 115.68 124.97 118.35 123.99 122.08 C 123.26 124.33 124.38 127.00 124.72 129.33 C 120.44 130.26 117.08 128.44 113.21 130.65 C 116.38 130.69 119.38 130.42 122.45 131.46 C 121.86 134.64 121.32 137.43 122.42 140.60 C 123.60 137.52 122.82 133.83 123.52 130.59 C 126.84 128.35 132.14 129.27 135.98 129.18 L 135.90 128.12 C 132.11 128.09 128.66 128.56 125.03 127.41 C 130.47 126.22 135.16 124.73 139.77 128.88 C 138.69 129.41 137.61 129.92 136.50 130.38 C 132.62 132.18 128.88 129.76 124.56 130.72 C 124.87 133.16 125.54 135.53 125.88 137.96 C 125.86 139.86 123.27 141.17 122.01 142.31 C 121.15 141.11 120.10 139.90 119.53 138.52 C 118.83 136.74 121.76 133.16 119.81 132.21 C 116.01 132.09 113.05 133.49 109.46 131.29 C 111.52 130.07 113.63 128.30 115.97 127.71 C 117.94 127.71 119.99 128.09 121.92 127.85 C 123.14 125.41 123.41 121.73 123.21 119.01 C 121.52 116.74 119.60 117.52 117.18 117.53 C 120.64 115.08 121.59 113.65 122.55 109.51 C 125.75 108.37 128.66 108.28 132.01 108.62 C 134.36 108.62 137.62 109.42 139.10 107.00 C 137.65 105.15 135.53 103.61 134.43 101.54 C 133.85 99.71 135.74 97.47 136.40 95.82 C 133.53 94.85 130.83 94.45 128.69 92.11 C 128.75 90.11 128.87 88.13 128.98 86.13 Z" fill="#ffffff" />
<path d="M 153.14 91.63 C 150.94 94.38 147.96 95.42 144.84 96.74 C 144.17 96.17 143.51 95.61 142.85 95.04 C 144.83 94.66 146.82 94.27 148.81 93.91 C 148.17 93.00 147.54 92.08 146.91 91.15 C 148.99 91.28 151.07 91.37 153.14 91.63 Z" fill="#ffffff" />
<path d="M 96.47 109.16 C 101.14 114.44 106.70 118.32 114.01 118.45 C 110.01 119.28 106.45 120.55 103.56 123.57 C 101.52 125.60 100.83 125.84 97.90 125.83 C 97.15 123.30 96.22 121.62 94.47 119.65 C 96.34 118.20 98.01 117.50 100.30 116.97 C 99.33 115.50 98.37 114.05 97.52 112.52 C 97.15 111.41 96.80 110.29 96.47 109.16 Z" fill="#ffffff" />
<path d="M 79.37 121.97 C 79.91 123.08 80.43 124.19 80.95 125.30 C 78.18 126.18 75.43 127.13 72.67 128.02 C 74.52 125.47 76.54 123.43 79.37 121.97 Z" fill="#4f86c4" />
<path d="M 89.55 137.49 C 93.21 137.97 96.41 137.53 100.02 137.01 C 103.74 137.77 106.59 138.90 110.45 137.69 C 110.08 141.48 110.58 143.29 112.18 146.60 C 112.72 149.97 112.20 152.56 114.59 155.42 C 110.13 156.78 108.67 160.96 104.46 162.56 C 102.09 163.51 100.99 165.40 99.62 167.41 C 97.51 164.19 95.19 162.79 91.86 161.06 C 89.26 158.74 87.11 156.51 83.73 155.29 C 85.88 152.61 86.07 149.79 86.77 146.57 C 88.25 143.45 89.10 140.96 89.55 137.49 Z" fill="#ffffff" />
<path d="M 99.81 138.79 C 102.72 139.52 105.00 140.86 108.14 140.27 C 108.01 143.11 109.28 145.03 110.43 147.46 C 110.64 150.18 109.73 152.00 111.50 154.49 C 108.96 155.54 108.02 157.36 106.43 159.41 C 103.94 160.91 101.36 161.16 99.39 163.62 C 97.76 161.71 96.11 160.97 93.80 160.12 C 91.59 159.44 90.99 157.65 89.83 155.87 C 88.68 155.42 87.53 154.98 86.37 154.55 C 88.14 152.22 88.12 149.97 88.49 147.20 C 89.60 144.52 90.92 142.35 90.93 139.32 C 92.23 139.57 93.54 139.82 94.86 140.00 C 96.47 139.61 98.14 138.82 99.81 138.79 Z" fill="#0e0e0b" />
<path d="M 96.19 140.97 L 99.04 139.87 C 98.54 140.83 98.02 141.79 97.48 142.73 C 98.80 142.53 100.11 142.40 101.44 142.34 C 101.50 141.54 101.56 140.73 101.63 139.92 C 102.60 140.80 103.56 141.70 104.49 142.62 C 103.58 144.08 102.66 145.53 101.82 147.03 C 102.87 146.12 103.90 145.19 104.92 144.25 C 105.92 144.45 106.92 144.66 107.92 144.87 C 107.70 146.45 107.50 148.04 107.29 149.63 L 110.33 149.43 C 109.50 150.25 108.66 151.04 107.78 151.79 C 105.96 151.88 104.09 151.51 102.29 151.30 C 104.27 152.62 107.12 153.45 107.52 156.14 C 106.34 157.91 104.23 159.62 102.07 159.86 C 99.78 159.41 99.69 155.46 99.28 153.69 C 98.61 156.72 99.11 159.28 95.53 160.46 C 95.52 159.62 95.52 158.79 95.52 157.96 C 94.83 157.39 94.14 156.82 93.46 156.25 C 92.95 156.84 92.44 157.44 91.93 158.04 C 91.26 155.29 91.32 154.89 93.00 152.79 C 94.04 152.53 95.09 152.25 96.13 151.96 C 94.96 151.79 93.85 151.99 92.69 152.17 C 89.67 151.42 89.71 151.24 88.83 148.34 C 89.86 148.46 90.90 148.58 91.93 148.70 C 91.57 147.29 91.09 145.99 90.49 144.66 C 93.45 143.72 94.57 145.20 96.73 146.85 C 96.03 145.19 93.87 142.14 96.19 140.97 Z" fill="#ffffff" />
<path d="M 152.51 144.64 C 157.17 145.40 160.44 149.35 160.70 154.01 C 161.21 159.04 162.32 162.85 164.74 167.27 C 166.50 170.31 165.69 173.15 163.74 175.82 C 157.54 184.59 146.78 190.28 136.80 193.59 C 127.05 196.78 116.92 199.16 106.69 200.00 L 98.96 200.00 C 81.37 199.27 64.34 195.68 48.80 187.18 C 43.25 183.86 37.64 179.06 34.70 173.21 C 33.16 169.44 35.41 167.07 36.82 163.80 C 38.93 159.52 38.65 155.22 39.82 150.81 C 40.95 147.15 44.30 145.03 47.98 144.61 C 53.08 143.85 58.63 148.79 57.93 154.02 C 57.74 156.23 56.32 158.38 55.58 160.47 C 54.36 163.54 54.59 166.91 54.48 170.17 C 69.98 179.40 88.08 183.08 105.99 181.95 C 119.00 181.29 132.01 177.70 143.41 171.37 C 146.10 170.05 145.36 167.44 145.31 164.98 C 145.11 160.50 142.01 157.30 141.80 152.95 C 142.26 147.77 147.36 143.75 152.51 144.64 Z" fill="#0e0e0b" />
<path d="M 48.97 145.58 C 51.66 146.97 51.61 147.43 51.83 150.39 C 50.48 148.92 49.63 147.47 48.97 145.58 Z" fill="#eebb2c" />
<path d="M 150.90 145.77 C 149.65 148.62 148.72 149.90 145.91 151.36 C 146.43 152.35 146.93 153.34 147.44 154.34 C 145.26 153.62 144.46 152.99 143.18 151.11 C 145.48 148.74 147.93 147.16 150.90 145.77 Z" fill="#eebb2c" />
<path d="M 155.83 146.88 C 155.73 147.78 155.63 148.68 155.52 149.58 L 158.70 149.92 C 158.07 150.60 157.45 151.29 156.84 151.99 C 157.71 153.10 158.63 154.17 159.52 155.26 C 158.27 154.77 157.02 154.27 155.79 153.73 C 155.35 151.94 154.36 151.01 152.81 150.95 C 153.68 150.56 154.54 150.17 155.41 149.78 C 154.97 149.28 154.54 148.78 154.10 148.29 C 152.84 149.07 151.57 149.83 150.29 150.58 C 150.69 149.57 151.14 148.58 151.63 147.60 C 152.89 145.94 154.10 146.77 155.83 146.88 Z" fill="#eebb2c" />
<path d="M 53.15 148.49 C 54.77 148.07 54.72 150.99 53.12 150.61 C 52.44 149.91 52.44 149.20 53.15 148.49 Z" fill="#eebb2c" />
<path d="M 97.52 148.56 C 99.61 146.45 103.05 149.09 101.61 151.60 C 100.89 153.13 99.62 152.95 98.18 152.73 C 96.62 151.95 96.21 149.84 97.52 148.56 Z" fill="#0e0e0b" />
<path d="M 99.09 149.16 C 100.66 148.97 101.21 151.09 99.74 151.70 C 98.00 152.02 97.43 149.77 99.09 149.16 Z" fill="#eebb2c" />
<path d="M 56.03 150.40 C 56.84 151.33 55.57 153.38 54.38 152.93 C 53.74 152.03 54.85 149.96 56.03 150.40 Z" fill="#eebb2c" />
<path d="M 52.31 152.80 C 50.61 154.09 48.93 155.36 47.41 156.87 C 47.16 155.47 46.41 154.53 47.27 153.20 C 48.10 151.08 50.79 152.56 52.31 152.80 Z" fill="#ffffff" />
<path d="M 150.00 151.36 C 152.54 152.58 153.88 153.83 152.53 156.75 C 150.96 155.78 149.50 154.62 148.04 153.50 C 148.56 152.70 149.21 151.99 150.00 151.36 Z" fill="#ffffff" />
<path d="M 56.35 154.22 C 56.27 155.59 55.51 156.24 54.08 156.17 C 54.15 154.84 54.91 154.19 56.35 154.22 Z" fill="#eebb2c" />
<path d="M 44.69 155.20 C 45.38 156.06 42.06 159.06 41.24 158.36 C 40.48 156.83 43.29 154.60 44.69 155.20 Z" fill="#eebb2c" />
<path d="M 155.08 155.31 C 156.38 154.90 158.99 156.67 158.63 158.12 C 157.87 158.92 154.50 156.22 155.08 155.31 Z" fill="#eebb2c" />
<path d="M 50.12 156.08 C 51.77 154.98 53.26 157.76 51.10 158.12 C 49.92 157.76 49.59 157.08 50.12 156.08 Z" fill="#eebb2c" />
<path d="M 105.36 156.21 C 105.22 157.52 104.37 158.17 102.81 158.16 C 102.97 156.93 103.82 156.29 105.36 156.21 Z" fill="#4f86c4" />
<path d="M 148.25 155.96 C 149.93 154.74 151.02 157.79 149.08 158.13 C 148.00 157.75 147.73 157.03 148.25 155.96 Z" fill="#eebb2c" />
<path d="M 54.26 157.24 L 55.09 157.24 L 55.46 157.95 L 54.99 158.66 L 54.16 158.66 L 53.79 157.95 L 54.26 157.24 Z" fill="#eebb2c" />
<path d="M 44.54 157.83 C 44.66 158.87 44.89 159.88 45.21 160.86 C 45.73 159.96 46.22 159.04 46.68 158.09 C 49.06 159.26 51.06 159.83 53.73 160.08 C 53.41 163.14 53.18 166.20 53.00 169.27 C 49.60 167.42 46.56 165.76 45.04 161.96 C 44.31 161.67 43.63 161.31 43.02 160.87 C 42.53 159.84 44.02 158.67 44.54 157.83 Z" fill="#eebb2c" />
<path d="M 153.46 158.15 C 153.78 160.10 154.03 162.07 154.29 164.03 C 151.93 165.92 149.50 167.68 146.95 169.29 C 146.77 166.34 146.55 163.40 146.14 160.47 C 148.62 159.81 151.03 158.96 153.46 158.15 Z" fill="#eebb2c" />
<path d="M 39.92 159.18 C 42.38 162.67 45.11 165.88 48.68 168.28 C 62.97 177.76 79.82 183.26 97.00 183.54 C 114.78 183.95 132.39 180.08 147.53 170.53 C 152.47 167.59 156.80 164.09 160.01 159.26 C 161.02 163.37 163.55 166.98 164.49 171.03 C 163.09 175.59 159.09 179.50 155.48 182.45 C 145.11 190.38 131.52 194.50 118.84 196.84 C 101.21 200.42 82.99 198.79 66.01 193.03 C 56.64 189.73 47.85 186.54 40.83 179.16 C 38.67 176.83 35.23 173.40 35.62 169.97 C 36.90 166.30 38.97 163.01 39.92 159.18 Z" fill="#eebb2c" />
<path d="M 153.67 171.70 C 152.74 172.45 151.80 173.20 150.86 173.94 C 153.03 174.69 155.49 174.53 156.50 176.93 C 155.73 179.82 154.39 180.59 151.43 180.43 C 152.32 179.37 153.24 178.32 154.17 177.28 C 152.48 176.65 149.90 176.70 149.03 174.91 C 148.66 172.23 151.13 170.03 153.67 171.70 Z" fill="#0e0e0b" />
<path d="M 46.95 171.59 C 49.51 171.20 50.25 172.53 51.45 174.44 C 50.22 174.22 49.00 173.97 47.78 173.70 C 47.07 174.99 46.39 176.29 45.72 177.60 C 46.45 178.71 49.61 181.16 46.21 180.93 C 41.77 178.62 43.58 173.80 46.95 171.59 Z" fill="#0e0e0b" />
<path d="M 146.40 173.99 C 147.69 176.59 149.22 179.20 150.08 181.98 L 148.99 184.08 C 148.07 182.60 147.17 181.12 146.40 179.56 C 145.66 177.37 143.69 175.57 146.40 173.99 Z" fill="#0e0e0b" />
<path d="M 52.42 175.46 C 53.90 174.01 56.09 175.79 57.04 177.04 C 57.44 179.62 56.08 182.86 54.08 184.51 C 51.93 184.62 50.69 183.86 49.60 182.08 C 49.55 179.66 50.56 177.04 52.42 175.46 Z" fill="#0e0e0b" />
<path d="M 55.05 176.69 C 54.65 179.46 54.07 181.04 52.07 183.02 C 52.07 180.12 52.43 178.25 55.05 176.69 Z" fill="#eebb2c" />
<path d="M 141.95 176.91 C 143.84 179.35 145.46 182.17 146.41 185.11 C 145.41 185.15 144.43 184.93 143.46 184.45 C 143.10 185.38 142.71 186.31 142.31 187.22 C 141.69 186.43 141.07 185.63 140.46 184.82 C 140.46 185.96 140.35 187.09 140.13 188.19 L 138.92 188.18 C 137.66 185.31 136.96 182.09 136.76 178.97 C 138.41 177.69 139.69 180.88 140.76 181.87 C 140.87 180.76 139.66 175.83 141.95 176.91 Z" fill="#0e0e0b" />
<path d="M 59.94 178.00 L 61.48 178.61 C 61.66 179.70 61.82 180.79 61.96 181.88 C 62.82 180.94 63.61 178.56 64.97 180.15 C 64.53 183.12 63.34 186.02 62.42 188.87 C 61.70 188.65 60.98 188.43 60.25 188.21 C 60.25 187.11 60.24 186.02 60.23 184.93 C 59.43 185.94 58.62 186.94 57.80 187.94 C 56.00 185.06 59.16 180.92 59.94 178.00 Z" fill="#0e0e0b" />
<path d="M 134.03 180.70 C 135.07 183.57 135.91 186.52 136.71 189.46 C 135.95 189.57 135.18 189.69 134.42 189.81 C 133.51 186.85 132.58 183.92 131.86 180.91 C 132.58 180.82 133.30 180.75 134.03 180.70 Z" fill="#0e0e0b" />
<path d="M 67.15 182.09 C 69.06 180.65 71.12 182.34 71.66 184.36 L 68.28 183.68 C 69.04 185.63 70.91 187.81 70.02 189.93 C 67.75 191.98 65.35 190.84 64.51 188.10 C 65.76 188.35 67.00 188.61 68.24 188.87 C 67.58 186.90 64.93 183.85 67.15 182.09 Z" fill="#0e0e0b" />
<path d="M 73.70 183.56 C 74.38 183.47 75.06 183.40 75.74 183.36 C 75.39 186.56 74.58 189.62 73.80 192.74 C 73.04 192.60 72.28 192.46 71.52 192.33 C 72.19 189.41 72.68 186.38 73.70 183.56 Z" fill="#0e0e0b" />
<path d="M 124.96 182.91 C 126.31 183.65 127.41 184.64 128.55 185.64 C 128.18 184.53 127.82 183.41 127.47 182.29 L 129.23 182.38 C 130.93 184.56 131.54 188.12 131.85 190.86 C 130.91 192.88 129.06 189.69 127.99 189.06 C 128.15 190.24 128.30 191.42 128.43 192.60 C 126.79 192.58 125.89 191.88 125.74 190.49 C 125.30 188.29 123.86 184.97 124.96 182.91 Z" fill="#0e0e0b" />
<path d="M 78.26 184.59 C 78.92 184.63 79.57 184.69 80.22 184.78 C 79.87 187.06 79.42 189.31 79.02 191.58 C 79.96 192.44 80.84 193.37 81.68 194.37 C 79.86 194.16 78.05 193.89 76.25 193.60 C 76.80 190.65 77.02 187.34 78.26 184.59 Z" fill="#0e0e0b" />
<path d="M 85.77 185.49 C 85.84 188.58 85.51 191.61 85.18 194.67 C 84.35 194.78 83.52 194.89 82.68 195.00 C 83.03 191.97 83.37 188.90 83.95 185.91 C 84.56 185.76 85.16 185.62 85.77 185.49 Z" fill="#0e0e0b" />
<path d="M 120.03 184.32 C 122.05 187.10 123.51 190.34 124.90 193.46 C 123.50 193.25 122.31 192.86 121.04 192.25 C 120.08 193.29 119.25 194.28 117.87 194.79 C 118.10 191.90 118.31 188.99 118.82 186.14 C 118.88 185.38 119.29 184.78 120.03 184.32 Z" fill="#0e0e0b" />
<path d="M 111.93 186.39 C 111.55 187.30 111.05 188.16 110.43 188.97 C 110.55 191.24 110.73 193.51 110.90 195.77 C 110.11 195.71 109.32 195.64 108.52 195.58 C 108.36 192.18 108.54 189.40 106.09 186.70 C 108.04 186.56 109.97 186.39 111.93 186.39 Z" fill="#0e0e0b" />
<path d="M 89.06 186.94 C 91.09 185.73 93.59 186.59 94.08 189.02 C 94.54 191.27 94.28 196.07 91.00 195.95 C 86.35 196.35 87.08 189.23 89.06 186.94 Z" fill="#0e0e0b" />
<path d="M 100.71 186.66 C 102.51 186.80 104.22 186.81 105.86 187.67 C 104.70 188.46 103.54 189.23 102.37 190.00 C 103.38 190.29 104.39 190.59 105.41 190.88 C 104.47 191.92 103.53 192.94 102.60 193.99 C 103.79 194.23 104.99 194.48 106.18 194.74 C 104.72 196.65 102.92 196.14 100.77 196.44 C 100.70 193.18 100.68 189.92 100.71 186.66 Z" fill="#0e0e0b" />
<path d="M 91.76 188.06 C 91.55 190.36 92.63 193.30 89.92 194.38 C 90.32 192.59 89.29 188.47 91.76 188.06 Z" fill="#eebb2c" />
</svg>