<?xml version="1.0" encoding="UTF-8" standalone="no"?>
<!DOCTYPE svg PUBLIC "-//W3C//DTD SVG 1.1//EN" "http://www.w3.org/Graphics/SVG/1.1/DTD/svg11.dtd">
<svg xmlns="http://www.w3.org/2000/svg" version="1.1" viewBox="0 0 200 200" width="200.0pt" height="200.0pt">
<path d="M 0.00 0.00 L 113.61 0.00 C 108.45 1.40 105.15 6.51 107.34 11.66 C 108.71 14.96 116.04 16.48 117.30 12.44 C 115.40 12.14 113.24 12.22 111.45 11.50 C 108.65 9.32 110.16 4.40 113.09 3.03 C 114.71 2.64 116.47 2.72 118.13 2.65 C 118.25 1.77 118.37 0.88 118.49 0.00 L 200.00 0.00 L 200.00 200.00 L 137.43 200.00 C 142.48 198.51 145.03 192.83 143.03 188.06 C 141.36 184.74 137.10 184.57 134.15 186.11 C 130.66 188.10 129.39 192.87 130.54 196.54 C 131.20 198.28 132.82 199.08 134.31 200.00 L 0.00 200.00 L 0.00 0.00 Z" fill="#ffffff" />
<path d="M 113.61 0.00 L 118.49 0.00 C 118.37 0.88 118.25 1.77 118.13 2.65 C 116.47 2.72 114.71 2.64 113.09 3.03 C 110.16 4.40 108.65 9.32 111.45 11.50 C 113.24 12.22 115.40 12.14 117.30 12.44 C 116.04 16.48 108.71 14.96 107.34 11.66 C 105.15 6.51 108.45 1.40 113.61 0.00 Z" fill="#0464fa" />
<path d="M 92.13 0.13 C 92.53 4.95 93.08 9.75 93.74 14.55 C 92.66 14.54 91.57 14.54 90.48 14.54 C 90.38 13.27 90.28 12.01 90.17 10.74 C 88.88 10.76 87.60 10.79 86.31 10.82 C 84.71 13.51 84.76 14.68 81.09 14.86 C 83.03 10.58 85.16 6.38 87.11 2.11 C 88.31 -0.26 89.88 0.42 92.13 0.13 Z" fill="#0464fa" />
<path d="M 97.98 0.31 C 100.95 0.16 103.92 0.23 106.88 0.41 C 105.61 3.84 103.21 2.61 100.30 3.14 C 100.21 4.17 100.11 5.19 100.02 6.22 C 101.61 6.22 103.21 6.23 104.81 6.23 C 104.69 7.06 104.58 7.89 104.47 8.71 C 102.83 8.70 101.19 8.68 99.55 8.66 C 99.11 10.60 98.70 12.54 98.28 14.48 C 97.26 14.51 96.23 14.55 95.21 14.58 C 96.20 9.84 96.96 5.04 97.98 0.31 Z" fill="#0464fa" />
<path d="M 89.80 2.57 C 89.93 4.64 90.03 6.70 90.10 8.77 C 88.99 8.71 87.88 8.66 86.76 8.61 C 87.70 6.56 88.70 4.54 89.80 2.57 Z" fill="#b7d3fe" />
<path d="M 40.09 19.82 C 79.96 19.82 119.83 19.81 159.70 19.82 C 161.20 32.83 161.60 45.92 161.18 59.00 C 160.38 77.71 158.24 95.99 153.11 114.04 C 149.03 128.46 142.86 142.85 134.05 155.03 C 125.11 167.51 113.80 177.04 99.94 183.67 C 93.91 180.73 88.16 177.33 82.93 173.12 C 70.22 163.06 60.82 149.51 54.23 134.80 C 46.19 116.82 42.10 97.50 39.98 78.00 C 38.11 58.69 38.04 39.12 40.09 19.82 Z" fill="#000000" />
<path d="M 41.86 21.89 C 80.56 21.90 119.26 21.88 157.96 21.89 C 159.22 34.89 159.64 47.97 159.07 61.02 C 157.84 88.56 152.85 118.07 139.53 142.53 C 130.57 159.24 117.09 173.15 99.94 181.47 C 86.78 175.03 75.80 165.59 67.29 153.67 C 55.26 136.88 48.51 116.64 44.70 96.50 C 40.19 72.03 39.59 46.63 41.86 21.89 Z" fill="#fefefe" />
<path d="M 149.18 27.00 C 152.46 34.70 150.83 41.99 148.58 49.67 C 150.38 48.71 152.16 47.72 153.98 46.81 C 153.47 52.19 150.91 56.51 148.23 61.04 C 149.45 60.49 150.68 59.95 151.91 59.41 C 151.43 63.65 149.58 67.02 147.23 70.47 C 148.51 69.89 149.81 69.31 151.10 68.75 C 150.58 73.62 148.40 75.62 144.63 78.19 C 145.91 78.89 147.20 79.57 148.49 80.25 C 147.42 83.21 146.20 84.35 143.62 86.12 L 147.54 86.31 C 146.21 88.84 144.80 90.86 142.35 92.44 C 142.91 92.92 143.45 93.42 143.99 93.92 C 142.36 98.04 140.72 99.57 136.49 100.95 C 137.08 101.61 137.68 102.28 138.28 102.94 C 135.93 104.59 133.74 105.76 130.87 106.22 C 130.83 109.96 126.44 109.00 123.95 109.27 C 121.82 108.96 121.74 110.72 120.59 112.04 C 114.91 111.18 111.33 109.53 107.34 105.35 C 107.69 106.72 107.96 108.14 108.47 109.46 C 111.15 112.64 114.51 115.24 117.34 118.29 L 116.36 120.29 C 115.77 121.27 115.15 122.23 114.55 123.20 C 113.76 124.42 112.98 125.63 112.19 126.84 C 109.26 124.35 107.03 121.32 104.57 118.39 C 105.87 124.25 109.41 128.46 112.94 133.06 C 113.81 135.11 113.51 137.91 113.70 140.13 C 110.18 139.72 107.71 137.82 104.87 135.89 C 105.03 137.91 105.37 139.67 106.07 141.57 C 111.56 142.80 116.20 142.94 121.73 141.78 C 121.78 143.40 121.93 145.07 121.81 146.69 C 120.50 148.11 118.83 148.95 117.18 149.91 C 117.65 151.71 118.83 154.15 118.11 155.95 C 117.53 157.70 116.90 157.83 115.19 157.55 C 110.93 156.30 107.17 152.49 103.53 150.00 C 105.11 154.79 107.13 158.77 105.82 164.01 C 105.08 167.66 102.69 169.88 99.95 172.15 C 97.16 169.91 94.74 167.70 94.05 164.01 C 92.84 158.80 94.72 154.73 96.30 149.95 C 92.45 152.62 87.81 157.59 82.94 157.72 C 80.40 155.68 82.00 152.46 82.65 149.92 C 81.07 148.97 79.52 147.98 78.00 146.95 C 78.08 145.22 78.15 143.50 78.21 141.78 C 83.25 142.76 88.64 143.11 93.58 141.42 C 94.86 139.74 94.83 137.92 94.92 135.91 C 92.10 137.85 89.63 139.73 86.12 140.15 C 86.32 137.90 86.07 135.11 86.94 133.04 C 90.48 128.49 93.82 124.20 95.38 118.51 C 92.79 121.27 90.58 124.31 87.71 126.82 C 86.86 125.58 86.02 124.35 85.21 123.09 C 84.61 122.13 84.02 121.16 83.45 120.18 L 82.50 118.27 C 85.46 115.28 88.55 112.43 91.58 109.51 C 91.88 108.16 92.18 106.81 92.49 105.46 C 88.41 109.59 84.83 111.16 79.10 112.10 C 78.48 111.09 77.85 110.08 77.21 109.08 C 74.63 109.08 68.94 110.33 68.98 106.24 C 66.07 105.73 63.94 104.61 61.55 102.92 C 62.15 102.26 62.76 101.59 63.36 100.93 C 61.93 100.33 60.31 99.85 59.06 98.92 C 57.55 97.54 56.57 95.43 55.52 93.69 C 56.27 93.38 57.02 93.07 57.77 92.76 C 55.12 90.85 53.77 89.17 52.39 86.24 L 56.26 86.14 C 53.71 84.43 52.49 83.25 51.31 80.40 C 52.04 79.71 54.84 79.08 54.69 77.87 C 53.39 76.70 51.85 75.65 50.69 74.34 C 49.44 72.93 49.27 70.54 48.76 68.79 L 52.56 70.43 C 50.24 66.98 48.43 63.64 47.99 59.41 L 51.71 61.12 C 48.94 56.60 46.39 52.26 45.91 46.85 C 47.75 47.76 49.56 48.75 51.38 49.70 C 49.11 42.96 46.96 33.15 51.16 26.84 C 52.00 33.93 52.03 40.38 56.46 46.39 C 55.52 40.85 54.65 35.83 57.61 30.68 C 58.39 33.75 58.88 36.70 60.30 39.57 C 63.05 45.16 67.57 49.76 72.58 53.39 C 76.81 56.50 81.30 58.08 84.74 62.27 C 88.51 66.37 90.33 71.26 92.29 76.36 C 92.98 66.21 90.05 56.92 84.54 48.49 C 83.54 46.64 82.65 44.72 81.75 42.82 L 81.50 43.03 C 78.24 43.62 74.98 44.23 71.67 44.54 C 73.44 43.81 75.25 43.18 77.12 42.64 C 78.49 42.34 79.86 42.02 81.23 41.71 C 79.66 39.18 78.27 36.71 75.83 34.92 C 76.71 32.90 76.97 31.06 79.44 30.51 C 83.85 29.70 89.01 32.54 92.95 34.32 C 93.81 33.77 94.69 33.23 95.56 32.70 C 94.82 35.86 93.98 38.72 94.94 41.98 C 96.62 47.80 98.42 53.59 99.88 59.48 C 101.51 53.82 103.04 48.15 104.76 42.52 C 105.86 39.09 105.04 36.01 104.26 32.65 C 105.16 33.20 106.07 33.75 106.97 34.30 C 110.89 32.53 116.14 29.62 120.54 30.55 C 123.01 31.14 123.19 33.13 124.04 35.14 L 123.15 35.33 C 121.34 37.36 119.95 39.65 118.57 41.97 C 120.97 42.30 123.31 42.64 125.74 42.47 L 124.71 42.97 L 128.68 44.06 L 128.57 44.65 C 125.00 44.24 121.49 43.48 117.92 43.04 C 117.11 44.85 116.29 46.68 115.37 48.44 C 113.94 51.03 112.33 53.42 111.11 56.13 C 108.22 62.53 107.23 69.47 107.61 76.45 C 109.33 71.73 110.96 67.18 114.26 63.28 C 118.72 57.31 125.19 55.84 130.67 50.68 C 137.19 45.11 140.69 39.08 142.34 30.65 C 145.07 35.87 144.48 40.97 143.36 46.51 C 146.25 42.32 147.60 38.05 147.94 32.98 C 148.25 31.09 147.93 28.52 149.18 27.00 Z" fill="#000000" />
<path d="M 75.83 34.92 C 78.27 36.71 79.66 39.18 81.23 41.71 C 79.86 42.02 78.49 42.34 77.12 42.64 C 72.06 42.25 68.74 39.05 63.99 41.38 C 64.41 39.61 64.23 37.02 65.99 36.01 C 68.65 34.26 72.79 34.81 75.83 34.92 Z" fill="#d22b26" />
<path d="M 123.15 35.33 L 124.04 35.14 C 127.17 34.73 131.14 34.23 133.92 36.05 C 135.61 37.06 135.39 39.56 135.86 41.29 C 132.01 39.45 129.35 41.05 125.74 42.47 C 123.31 42.64 120.97 42.30 118.57 41.97 C 119.95 39.65 121.34 37.36 123.15 35.33 Z" fill="#d22b26" />
<path d="M 85.98 36.75 C 84.13 38.26 83.45 39.93 80.76 39.02 C 81.66 35.73 83.04 35.89 85.98 36.75 Z" fill="#b52622" />
<path d="M 116.98 36.06 C 118.05 36.96 118.71 38.05 119.52 39.17 C 116.57 39.33 115.88 38.72 113.85 36.76 C 114.88 36.49 115.93 36.25 116.98 36.06 Z" fill="#af2521" />
<path d="M 81.75 42.82 C 82.65 44.72 83.54 46.64 84.54 48.49 C 81.82 49.66 79.25 51.33 76.17 50.57 C 73.69 50.13 72.42 48.48 70.71 46.85 C 72.14 47.11 73.59 47.44 75.03 47.46 C 77.85 46.80 79.44 44.91 81.50 43.03 L 81.75 42.82 Z" fill="#d22b26" />
<path d="M 117.92 43.04 C 119.97 44.74 122.29 46.89 124.96 47.48 C 126.38 47.39 127.74 47.13 129.14 46.89 C 127.46 48.45 126.20 50.06 123.83 50.53 C 120.54 51.38 118.21 49.74 115.37 48.44 C 116.29 46.68 117.11 44.85 117.92 43.04 Z" fill="#d22b26" />
<path d="M 127.63 66.03 C 129.15 67.92 130.57 69.87 132.01 71.82 C 132.95 70.56 133.89 69.29 134.83 68.03 C 135.91 68.82 136.98 69.61 138.05 70.40 C 136.89 71.99 135.71 73.57 134.53 75.14 C 136.02 77.09 137.50 79.05 138.99 81.00 C 137.50 82.96 136.02 84.93 134.53 86.90 C 135.71 88.46 136.89 90.03 138.05 91.60 C 136.98 92.39 135.90 93.18 134.83 93.97 C 133.89 92.71 132.95 91.45 132.01 90.19 C 130.55 92.15 129.09 94.11 127.64 96.08 C 126.12 94.14 124.62 92.19 123.13 90.23 C 122.19 91.48 121.26 92.72 120.32 93.97 C 119.24 93.18 118.15 92.38 117.07 91.59 C 118.25 90.02 119.45 88.46 120.64 86.90 C 119.15 84.93 117.66 82.97 116.16 81.00 C 117.65 79.05 119.14 77.10 120.62 75.15 C 119.50 73.69 118.30 72.25 117.33 70.69 C 118.17 69.67 119.20 68.80 120.12 67.84 C 121.13 69.15 122.13 70.46 123.12 71.77 C 124.61 69.82 126.04 67.89 127.63 66.03 Z" fill="#ed9e22" />
<path d="M 83.19 69.81 C 86.40 75.23 87.45 79.07 87.60 85.44 C 83.56 90.28 79.81 92.60 73.89 94.68 C 68.79 92.31 64.25 89.54 61.40 84.50 C 60.90 78.82 63.61 73.42 66.99 69.03 C 72.73 67.71 77.61 68.00 83.19 69.81 Z" fill="#ef9d24" />
<path d="M 80.62 70.94 C 79.65 72.43 78.75 74.23 77.37 75.39 C 75.63 75.68 73.77 75.48 72.01 75.45 C 71.16 73.88 70.31 72.30 69.50 70.71 C 73.25 69.85 76.89 70.26 80.62 70.94 Z" fill="#fef300" />
<path d="M 67.26 72.04 C 68.47 73.32 70.05 74.95 70.41 76.71 C 70.16 78.34 69.40 80.11 68.23 81.28 C 66.66 81.99 64.77 82.08 63.08 82.37 C 64.01 78.69 65.01 75.16 67.26 72.04 Z" fill="#fef200" />
<path d="M 82.68 72.74 C 84.46 76.22 85.21 79.70 85.52 83.58 C 83.76 83.02 82.00 82.46 80.24 81.88 C 79.75 80.20 79.26 78.52 78.76 76.85 C 80.03 75.45 81.31 74.05 82.68 72.74 Z" fill="#fef300" />
<path d="M 127.40 72.85 C 128.17 73.48 128.92 74.13 129.64 74.82 C 129.00 75.84 128.34 76.85 127.67 77.85 C 126.93 76.89 126.19 75.92 125.48 74.94 C 126.10 74.22 126.74 73.52 127.40 72.85 Z" fill="#312107" />
<path d="M 74.22 77.39 C 76.10 77.23 78.04 78.97 77.80 80.92 C 77.60 83.78 73.99 85.16 72.06 82.92 C 70.11 80.80 71.52 77.78 74.22 77.39 Z" fill="#fef200" />
<path d="M 122.81 78.33 C 123.68 79.18 124.55 80.05 125.40 80.93 C 124.53 81.91 123.67 82.89 122.79 83.86 C 122.30 82.91 121.85 81.94 121.46 80.95 C 121.85 80.05 122.30 79.18 122.81 78.33 Z" fill="#342208" />
<path d="M 131.93 78.44 C 132.69 79.26 133.43 80.08 134.17 80.91 C 133.43 81.87 132.68 82.82 131.93 83.77 C 131.28 82.83 130.64 81.88 130.01 80.92 C 130.63 80.08 131.27 79.25 131.93 78.44 Z" fill="#342208" />
<path d="M 71.36 84.63 C 74.02 86.43 72.86 89.25 73.00 92.00 C 69.16 90.20 66.55 88.04 63.83 84.80 C 66.72 84.13 68.81 82.10 71.36 84.63 Z" fill="#fef200" />
<path d="M 79.21 83.98 C 81.08 83.95 83.02 85.18 84.72 85.86 C 81.74 88.76 78.91 90.56 75.07 92.14 C 75.13 90.20 75.17 88.24 75.32 86.30 C 76.56 85.42 77.80 84.59 79.21 83.98 Z" fill="#fef200" />
<path d="M 127.58 84.32 C 128.31 85.21 129.04 86.10 129.75 87.01 C 128.90 87.86 128.05 88.70 127.20 89.54 C 126.67 88.64 126.16 87.72 125.65 86.80 C 126.27 85.96 126.91 85.12 127.58 84.32 Z" fill="#3b2809" />
<path d="M 72.42 115.38 C 74.05 115.54 76.32 115.20 77.58 116.38 C 79.65 117.85 80.78 119.89 83.45 120.18 C 84.02 121.16 84.61 122.13 85.21 123.09 C 83.57 128.19 82.40 133.31 79.94 138.12 C 79.33 137.30 78.72 136.49 78.11 135.67 C 78.37 135.14 78.63 134.61 78.90 134.07 C 78.38 133.39 77.86 132.71 77.34 132.03 C 78.76 130.42 80.17 128.82 81.41 127.06 C 80.12 127.46 78.67 127.79 77.50 128.48 C 76.14 129.83 75.16 131.58 73.86 133.01 C 72.24 133.51 70.53 133.76 68.87 134.12 C 67.66 133.77 66.45 133.44 65.23 133.12 C 67.93 129.45 72.58 128.79 75.48 125.17 C 73.00 125.45 70.58 126.02 68.15 126.58 C 66.00 125.14 63.82 123.97 61.43 122.97 C 62.33 122.43 63.22 121.86 64.17 121.41 C 68.74 121.17 73.63 121.78 78.13 122.57 C 77.44 121.60 76.71 120.66 75.95 119.74 C 74.62 119.73 73.30 119.77 71.97 119.88 C 70.00 118.52 68.05 117.15 66.15 115.71 C 68.56 114.73 69.91 114.74 72.42 115.38 Z" fill="#d12a25" />
<path d="M 133.64 115.79 C 131.71 117.21 129.76 118.59 127.85 120.02 C 126.51 119.82 125.17 119.62 123.83 119.43 C 123.22 120.51 122.60 121.58 122.00 122.66 C 127.24 121.52 132.51 121.05 137.86 121.70 C 137.08 122.68 136.30 123.66 135.53 124.64 C 134.05 125.25 132.59 125.93 131.07 126.39 C 128.84 126.06 126.67 125.47 124.44 125.13 C 127.16 128.76 131.60 129.41 134.42 132.78 C 133.25 133.32 132.09 133.87 130.93 134.42 C 130.31 134.11 129.69 133.81 129.07 133.51 C 128.08 133.45 127.09 133.35 126.10 133.22 C 124.60 131.66 123.62 129.35 121.84 128.13 C 120.68 127.77 119.50 127.46 118.31 127.20 C 119.64 128.83 121.07 130.37 122.49 131.93 C 122.01 132.66 121.54 133.40 121.06 134.14 C 121.27 134.66 121.48 135.19 121.69 135.72 C 121.14 136.53 120.59 137.35 120.04 138.16 C 117.22 133.43 116.54 128.21 114.55 123.20 C 115.15 122.23 115.77 121.27 116.36 120.29 C 119.18 120.00 120.58 117.26 123.05 115.86 C 124.46 115.44 126.02 115.46 127.48 115.34 C 130.01 114.75 131.26 114.69 133.64 115.79 Z" fill="#d22b25" />
<path d="M 56.18 185.65 C 57.17 185.44 58.17 185.26 59.17 185.11 C 57.26 190.01 54.97 194.74 52.97 199.61 C 51.81 199.66 50.65 199.71 49.50 199.75 C 49.48 196.44 49.48 193.12 49.42 189.81 C 48.03 193.14 46.72 196.50 45.32 199.82 C 44.15 199.73 42.99 199.65 41.83 199.56 C 41.75 194.84 41.62 190.12 41.41 185.41 L 44.51 185.40 C 44.48 188.98 44.43 192.56 44.47 196.14 C 45.93 192.55 47.27 188.92 48.73 185.33 C 49.86 185.39 50.99 185.44 52.12 185.49 C 52.08 188.76 52.06 192.03 52.16 195.30 C 53.51 192.14 54.34 188.54 56.18 185.65 Z" fill="#0464fa" />
<path d="M 63.86 185.05 C 63.03 189.83 62.34 194.72 61.04 199.39 L 58.15 199.99 C 58.99 195.28 59.59 190.42 60.93 185.83 C 61.89 185.53 62.87 185.27 63.86 185.05 Z" fill="#0464fa" />
<path d="M 67.36 185.56 C 68.68 185.41 70.03 185.38 71.36 185.33 C 71.59 188.62 71.83 191.90 72.05 195.19 C 73.54 191.89 75.09 188.62 76.70 185.38 C 78.07 185.40 79.44 185.42 80.82 185.44 C 80.19 190.17 79.52 194.89 78.95 199.63 C 77.91 199.64 76.88 199.64 75.84 199.65 C 76.47 196.00 77.11 192.40 77.64 188.75 C 75.71 192.26 74.28 196.09 72.09 199.43 L 70.04 199.44 C 69.49 195.91 69.39 192.32 68.95 188.77 C 68.09 192.31 67.59 196.07 66.29 199.48 L 63.57 199.96 C 64.91 195.19 65.72 190.23 67.36 185.56 Z" fill="#0464fa" />
<path d="M 84.32 185.56 C 86.88 185.27 91.08 184.71 92.66 187.34 C 93.70 189.23 91.95 190.70 91.00 192.16 C 91.70 193.82 93.01 195.06 91.99 196.92 C 89.95 200.58 84.89 199.63 81.40 199.78 C 82.38 195.08 82.82 190.13 84.32 185.56 Z" fill="#0464fa" />
<path d="M 115.09 185.37 C 115.03 186.17 114.97 186.97 114.91 187.77 C 113.04 187.88 111.17 187.99 109.30 188.12 C 109.10 189.11 108.90 190.10 108.70 191.10 C 110.40 191.10 112.10 191.10 113.80 191.10 C 113.69 191.91 113.58 192.72 113.47 193.53 C 111.69 193.58 109.91 193.63 108.13 193.69 C 107.99 194.83 107.84 195.98 107.70 197.13 C 109.69 197.14 111.69 197.16 113.68 197.20 L 112.62 199.43 C 109.84 199.92 106.88 199.70 104.06 199.72 C 104.95 194.99 105.77 190.24 106.79 185.53 C 109.55 185.36 112.33 185.39 115.09 185.37 Z" fill="#0464fa" />
<path d="M 128.00 188.06 C 129.88 191.81 127.98 197.49 123.94 199.02 C 121.26 200.07 117.86 199.73 115.03 199.74 C 115.93 195.01 116.68 190.25 117.75 185.55 C 121.23 185.36 125.81 184.58 128.00 188.06 Z" fill="#0464fa" />
<path d="M 143.03 188.06 C 145.03 192.83 142.48 198.51 137.43 200.00 L 134.31 200.00 C 132.82 199.08 131.20 198.28 130.54 196.54 C 129.39 192.87 130.66 188.10 134.15 186.11 C 137.10 184.57 141.36 184.74 143.03 188.06 Z" fill="#0464fa" />
<path d="M 147.30 185.55 C 148.39 185.41 149.50 185.33 150.61 185.30 C 151.87 188.51 152.86 191.83 154.00 195.08 C 154.45 191.99 154.67 188.69 155.67 185.72 L 158.44 185.08 C 157.54 189.79 156.92 194.60 155.74 199.25 C 154.74 199.53 153.73 199.77 152.71 199.99 C 151.43 196.53 150.29 193.02 149.17 189.51 C 148.50 192.78 148.12 196.18 147.13 199.37 L 144.41 199.99 C 145.32 195.19 145.91 190.24 147.30 185.55 Z" fill="#0464fa" />
<path d="M 96.27 185.71 C 97.36 185.55 98.46 185.40 99.55 185.27 C 98.80 189.17 98.03 193.06 97.28 196.96 C 99.13 197.03 100.98 197.08 102.83 197.13 C 102.61 198.00 102.40 198.87 102.19 199.74 C 99.36 199.71 96.54 199.71 93.71 199.70 C 94.62 195.05 95.54 190.40 96.27 185.71 Z" fill="#0464fa" />
<path d="M 90.08 189.91 C 88.75 191.07 87.22 191.07 85.57 191.50 C 85.94 190.19 86.37 188.90 86.86 187.63 C 88.68 187.59 90.26 187.51 90.08 189.91 Z" fill="#c3dafe" />
<path d="M 120.36 187.59 C 121.92 187.96 123.94 187.76 124.99 189.11 C 126.04 191.44 125.36 194.70 123.28 196.27 C 121.90 197.13 120.06 197.27 118.52 197.70 C 119.11 194.32 119.76 190.96 120.36 187.59 Z" fill="#ffffff" />
<path d="M 135.49 188.54 C 137.16 186.90 139.81 187.62 140.32 189.91 C 140.89 192.74 139.35 197.31 135.98 197.49 C 131.80 196.65 133.09 190.58 135.49 188.54 Z" fill="#ffffff" />
<path d="M 85.56 193.20 C 87.26 193.31 88.60 193.22 89.37 195.05 C 88.72 197.27 86.85 197.11 85.03 197.93 C 85.16 196.34 85.29 194.77 85.56 193.20 Z" fill="#ffffff" />
</svg>