<?xml version="1.0" encoding="UTF-8" standalone="no"?>
<!DOCTYPE svg PUBLIC "-//W3C//DTD SVG 1.1//EN" "http://www.w3.org/Graphics/SVG/1.1/DTD/svg11.dtd">
<svg xmlns="http://www.w3.org/2000/svg" version="1.1" viewBox="0 0 200 200" width="200.0pt" height="200.0pt">
<path d="M 0.00 0.00 L 200.00 0.00 L 200.00 200.00 L 0.00 200.00 L 0.00 0.00 Z" fill="#ffffff" />
<path d="M 86.50 4.75 C 98.26 3.27 110.46 3.59 122.01 6.38 C 152.06 13.24 177.71 35.32 189.15 63.92 C 196.45 81.90 198.12 102.06 193.85 120.99 C 189.99 138.48 181.08 154.77 168.48 167.49 C 157.08 179.12 142.64 187.77 127.00 192.32 C 107.82 197.96 86.96 197.41 68.10 190.75 C 39.83 180.97 17.11 157.47 8.23 128.90 C 1.74 108.24 2.45 85.26 10.35 65.09 C 16.29 49.84 26.17 36.18 38.82 25.80 C 52.38 14.53 69.06 7.22 86.50 4.75 Z" fill="#000000" />
<path d="M 118.44 8.09 C 114.63 9.15 110.77 9.98 106.95 10.99 C 106.85 12.44 106.71 13.89 106.54 15.33 L 106.20 16.22 C 106.22 14.40 106.22 12.58 106.25 10.76 C 104.91 10.57 103.58 10.35 102.25 10.17 C 102.05 12.81 101.82 15.45 101.54 18.08 C 101.36 17.14 101.15 16.20 100.92 15.27 C 100.38 15.27 99.85 15.29 99.31 15.32 L 98.37 15.50 C 97.98 16.30 97.59 17.10 97.21 17.91 C 97.21 15.20 97.39 12.83 94.73 11.31 C 91.59 10.25 87.59 11.27 84.32 11.47 C 84.49 13.20 84.66 14.93 84.84 16.65 C 82.16 16.21 79.80 17.16 77.58 18.61 C 76.36 17.12 75.12 15.65 73.77 14.27 C 72.25 14.82 70.75 15.46 69.27 16.10 C 69.25 18.59 69.16 21.07 69.02 23.56 C 66.56 23.27 64.56 23.97 62.31 24.90 C 61.30 23.34 60.34 21.75 59.39 20.14 C 57.63 21.13 55.86 21.37 55.96 23.84 C 54.40 25.28 52.66 26.03 50.68 26.72 C 50.22 26.54 49.75 26.36 49.28 26.17 C 48.35 27.02 47.42 27.87 46.49 28.71 L 46.29 28.44 C 43.57 28.37 40.67 30.81 38.30 29.29 C 59.96 10.28 90.20 2.15 118.44 8.09 Z" fill="#b4b4b3" />
<path d="M 118.44 8.09 C 121.25 8.53 123.98 9.29 126.70 10.14 C 123.63 11.14 120.44 10.67 117.46 11.88 C 116.43 11.68 115.39 11.51 114.35 11.38 C 114.04 11.98 113.74 12.59 113.45 13.20 C 111.14 14.32 109.09 14.96 106.54 15.33 C 106.71 13.89 106.85 12.44 106.95 10.99 C 110.77 9.98 114.63 9.15 118.44 8.09 Z" fill="#999797" />
<path d="M 102.25 10.17 C 103.58 10.35 104.91 10.57 106.25 10.76 C 106.22 12.58 106.22 14.40 106.20 16.22 C 105.95 18.24 105.73 20.27 105.60 22.31 L 106.10 23.67 C 108.44 23.95 110.77 24.27 113.10 24.63 C 112.88 25.50 112.68 26.37 112.49 27.24 C 111.21 26.20 111.10 26.99 110.05 27.86 C 107.10 27.84 104.16 27.62 101.20 27.65 L 101.18 26.83 C 100.98 23.90 101.26 21.00 101.54 18.08 C 101.82 15.45 102.05 12.81 102.25 10.17 Z" fill="#fefefe" />
<path d="M 126.70 10.14 C 128.75 10.65 130.74 11.32 132.73 12.02 C 130.30 13.91 128.86 14.86 125.65 14.00 C 122.91 13.32 120.19 12.56 117.46 11.88 C 120.44 10.67 123.63 11.14 126.70 10.14 Z" fill="#7e7c7d" />
<path d="M 84.32 11.47 C 87.59 11.27 91.59 10.25 94.73 11.31 C 97.39 12.83 97.21 15.20 97.21 17.91 C 96.53 19.05 95.49 20.03 94.59 21.01 C 96.43 23.01 98.23 25.05 100.17 26.95 C 98.42 27.19 96.68 27.47 94.92 27.68 L 94.38 27.11 C 92.92 25.39 91.55 23.61 90.10 21.89 C 90.21 24.01 90.34 26.14 90.47 28.26 C 88.97 28.30 87.48 28.34 85.98 28.38 C 85.70 25.56 85.42 22.73 85.17 19.91 C 85.07 18.82 84.96 17.74 84.84 16.65 C 84.66 14.93 84.49 13.20 84.32 11.47 Z" fill="#fefefe" />
<path d="M 114.35 11.38 C 115.39 11.51 116.43 11.68 117.46 11.88 C 120.19 12.56 122.91 13.32 125.65 14.00 C 125.44 15.14 125.22 16.29 125.01 17.43 C 123.70 17.30 122.40 17.17 121.09 17.05 C 120.72 18.78 120.34 20.52 119.97 22.25 C 119.43 24.60 119.00 27.03 118.10 29.23 C 116.73 29.32 115.35 29.22 113.96 28.91 C 114.43 26.25 115.00 23.58 115.31 20.90 C 115.96 19.31 116.49 17.68 117.00 16.05 C 115.77 15.64 114.54 15.22 113.32 14.75 L 113.45 13.20 C 113.74 12.59 114.04 11.98 114.35 11.38 Z" fill="#fefefe" />
<path d="M 132.73 12.02 C 136.57 13.23 139.89 15.31 143.54 16.90 C 142.02 17.35 140.62 18.02 139.24 18.81 C 136.53 17.62 133.93 16.77 130.97 17.64 C 128.59 18.26 127.21 19.93 125.77 21.78 C 123.70 22.43 122.11 22.55 119.97 22.25 C 120.34 20.52 120.72 18.78 121.09 17.05 C 122.40 17.17 123.70 17.30 125.01 17.43 C 125.22 16.29 125.44 15.14 125.65 14.00 C 128.86 14.86 130.30 13.91 132.73 12.02 Z" fill="#5a5758" />
<path d="M 113.45 13.20 L 113.32 14.75 C 114.54 15.22 115.77 15.64 117.00 16.05 C 116.49 17.68 115.96 19.31 115.31 20.90 C 113.80 20.59 112.45 21.77 111.01 22.29 C 109.14 23.36 107.54 22.68 105.60 22.31 C 105.73 20.27 105.95 18.24 106.20 16.22 L 106.54 15.33 C 109.09 14.96 111.14 14.32 113.45 13.20 Z" fill="#787576" />
<path d="M 73.77 14.27 C 75.12 15.65 76.36 17.12 77.58 18.61 C 78.55 19.78 79.54 20.93 80.53 22.08 C 82.23 24.08 83.87 26.13 85.54 28.16 C 84.11 28.78 82.68 29.38 81.24 29.97 C 80.51 29.16 79.78 28.35 79.05 27.54 C 77.17 28.17 75.30 28.79 73.42 29.39 C 73.26 30.49 73.10 31.59 72.93 32.69 C 72.08 33.03 71.24 33.37 70.39 33.73 L 69.03 34.34 C 68.98 30.74 68.80 27.16 69.02 23.56 C 69.16 21.07 69.25 18.59 69.27 16.10 C 70.75 15.46 72.25 14.82 73.77 14.27 Z" fill="#fefefe" />
<path d="M 89.32 14.14 C 90.46 14.52 92.68 14.49 92.81 16.06 C 93.14 18.41 91.00 18.12 89.43 18.91 C 89.39 17.32 89.35 15.73 89.32 14.14 Z" fill="#9a9999" />
<path d="M 98.37 15.50 L 99.31 15.32 C 99.85 15.29 100.38 15.27 100.92 15.27 C 101.15 16.20 101.36 17.14 101.54 18.08 C 101.26 21.00 100.98 23.90 101.18 26.83 L 100.17 26.95 C 98.23 25.05 96.43 23.01 94.59 21.01 C 95.49 20.03 96.53 19.05 97.21 17.91 C 97.59 17.10 97.98 16.30 98.37 15.50 Z" fill="#7d7a7b" />
<path d="M 84.84 16.65 C 84.96 17.74 85.07 18.82 85.17 19.91 C 83.62 20.63 82.07 21.36 80.53 22.08 C 79.54 20.93 78.55 19.78 77.58 18.61 C 79.80 17.16 82.16 16.21 84.84 16.65 Z" fill="#a1a0a0" />
<path d="M 143.54 16.90 C 145.59 17.70 147.21 18.97 148.80 20.45 C 146.69 21.01 144.58 21.59 142.48 22.18 C 141.50 20.96 140.42 19.85 139.24 18.81 C 140.62 18.02 142.02 17.35 143.54 16.90 Z" fill="#1d1c1e" />
<path d="M 130.97 17.64 C 133.93 16.77 136.53 17.62 139.24 18.81 C 140.42 19.85 141.50 20.96 142.48 22.18 C 144.95 27.19 142.97 32.69 138.01 35.04 C 132.40 37.37 126.04 33.71 124.66 27.92 C 124.67 25.78 124.91 23.76 125.77 21.78 C 127.21 19.93 128.59 18.26 130.97 17.64 Z" fill="#fefefe" />
<path d="M 59.39 20.14 C 60.34 21.75 61.30 23.34 62.31 24.90 C 64.42 28.12 66.39 31.42 68.33 34.75 C 67.08 35.47 65.86 36.18 64.56 36.80 L 64.07 36.04 C 63.03 34.37 62.01 32.69 60.87 31.08 C 58.93 32.09 57.17 33.32 55.49 34.74 C 56.50 36.14 57.49 37.53 58.43 38.98 L 59.11 40.09 C 58.55 40.68 57.98 41.26 57.39 41.83 C 56.71 42.16 56.02 42.45 55.31 42.69 C 54.88 42.06 54.46 41.42 54.06 40.76 C 52.54 37.91 50.72 35.26 48.97 32.55 C 48.15 31.26 47.34 29.98 46.49 28.71 C 47.42 27.87 48.35 27.02 49.28 26.17 C 49.75 26.36 50.22 26.54 50.68 26.72 C 51.61 28.40 52.64 29.98 53.80 31.51 C 55.55 30.29 57.32 29.10 59.11 27.93 C 58.09 26.54 57.05 25.18 55.96 23.84 C 55.86 21.37 57.63 21.13 59.39 20.14 Z" fill="#fefefe" />
<path d="M 73.30 20.09 C 74.62 21.58 75.85 23.11 77.01 24.73 C 75.71 25.14 74.40 25.56 73.09 25.97 C 73.14 24.01 73.20 22.05 73.30 20.09 Z" fill="#b0afaf" />
<path d="M 85.17 19.91 C 85.42 22.73 85.70 25.56 85.98 28.38 C 87.48 28.34 88.97 28.30 90.47 28.26 C 90.34 26.14 90.21 24.01 90.10 21.89 C 91.55 23.61 92.92 25.39 94.38 27.11 C 93.51 27.32 92.65 27.56 91.80 27.82 C 89.96 28.52 88.16 28.98 86.21 29.30 C 86.35 29.71 86.48 30.12 86.61 30.53 C 82.26 31.77 77.99 33.37 73.59 34.44 C 72.54 34.79 71.47 34.55 70.39 33.73 C 71.24 33.37 72.08 33.03 72.93 32.69 C 73.10 31.59 73.26 30.49 73.42 29.39 C 75.30 28.79 77.17 28.17 79.05 27.54 C 79.78 28.35 80.51 29.16 81.24 29.97 C 82.68 29.38 84.11 28.78 85.54 28.16 C 83.87 26.13 82.23 24.08 80.53 22.08 C 82.07 21.36 83.62 20.63 85.17 19.91 Z" fill="#6b6769" />
<path d="M 115.31 20.90 C 115.00 23.58 114.43 26.25 113.96 28.91 C 115.35 29.22 116.73 29.32 118.10 29.23 C 119.00 27.03 119.43 24.60 119.97 22.25 C 122.11 22.55 123.70 22.43 125.77 21.78 C 124.91 23.76 124.67 25.78 124.66 27.92 C 123.35 26.66 122.68 27.79 121.35 28.30 C 120.74 28.33 120.13 28.36 119.53 28.39 C 117.77 30.24 115.05 29.53 112.56 30.39 C 108.92 31.75 105.01 31.49 101.47 33.03 C 93.33 33.10 85.34 34.17 77.64 36.89 C 79.53 33.44 84.46 34.40 87.90 32.77 C 91.92 31.10 98.37 31.10 101.20 27.65 C 104.16 27.62 107.10 27.84 110.05 27.86 C 111.10 26.99 111.21 26.20 112.49 27.24 C 112.68 26.37 112.88 25.50 113.10 24.63 C 110.77 24.27 108.44 23.95 106.10 23.67 L 105.60 22.31 C 107.54 22.68 109.14 23.36 111.01 22.29 C 112.45 21.77 113.80 20.59 115.31 20.90 Z" fill="#2b292a" />
<path d="M 133.54 21.71 C 136.50 21.43 139.31 23.96 138.92 27.02 C 138.51 30.72 133.75 32.68 130.94 30.11 C 127.81 27.37 129.44 22.21 133.54 21.71 Z" fill="#030303" />
<path d="M 69.02 23.56 C 68.80 27.16 68.98 30.74 69.03 34.34 L 68.33 34.75 C 66.39 31.42 64.42 28.12 62.31 24.90 C 64.56 23.97 66.56 23.27 69.02 23.56 Z" fill="#8c8a8b" />
<path d="M 55.96 23.84 C 57.05 25.18 58.09 26.54 59.11 27.93 C 57.32 29.10 55.55 30.29 53.80 31.51 C 52.64 29.98 51.61 28.40 50.68 26.72 C 52.66 26.03 54.40 25.28 55.96 23.84 Z" fill="#9c9b9b" />
<path d="M 150.96 25.91 C 152.09 26.86 153.16 27.86 154.25 28.86 C 154.01 33.22 153.81 37.59 153.64 41.95 C 156.04 39.45 158.24 36.79 160.36 34.06 C 161.56 35.03 162.75 36.01 163.94 36.99 C 160.18 41.29 156.40 45.59 152.84 50.06 C 151.68 49.07 150.52 48.09 149.36 47.10 C 149.62 42.72 149.84 38.35 149.86 33.96 C 147.59 36.55 145.37 39.19 143.14 41.81 C 142.02 40.86 140.89 39.90 139.76 38.95 C 143.47 34.59 147.09 30.13 150.96 25.91 Z" fill="#fefefe" />
<path d="M 91.80 27.82 C 92.65 27.56 93.51 27.32 94.38 27.11 L 94.92 27.68 C 96.68 27.47 98.42 27.19 100.17 26.95 L 101.18 26.83 L 101.20 27.65 C 98.37 31.10 91.92 31.10 87.90 32.77 C 84.46 34.40 79.53 33.44 77.64 36.89 C 74.20 38.27 70.89 39.92 67.50 41.43 C 64.83 41.47 62.46 42.39 59.91 43.04 C 59.03 43.11 58.20 42.71 57.39 41.83 C 57.98 41.26 58.55 40.68 59.11 40.09 L 58.43 38.98 C 60.37 38.09 62.25 37.15 64.07 36.04 L 64.56 36.80 C 65.86 36.18 67.08 35.47 68.33 34.75 L 69.03 34.34 L 70.39 33.73 C 71.47 34.55 72.54 34.79 73.59 34.44 C 77.99 33.37 82.26 31.77 86.61 30.53 C 86.48 30.12 86.35 29.71 86.21 29.30 C 88.16 28.98 89.96 28.52 91.80 27.82 Z" fill="#474446" />
<path d="M 46.29 28.44 L 46.49 28.71 C 47.34 29.98 48.15 31.26 48.97 32.55 C 47.72 33.77 46.55 35.05 45.39 36.36 C 44.58 36.50 43.77 36.65 42.96 36.81 C 43.80 36.27 44.64 35.73 45.49 35.21 C 44.33 34.20 43.18 33.17 42.00 32.18 C 40.43 33.18 39.04 34.30 37.76 35.65 C 35.06 35.52 32.75 38.15 30.26 37.25 C 32.80 34.44 35.42 31.75 38.30 29.29 C 40.67 30.81 43.57 28.37 46.29 28.44 Z" fill="#9b9999" />
<path d="M 60.87 31.08 C 62.01 32.69 63.03 34.37 64.07 36.04 C 62.25 37.15 60.37 38.09 58.43 38.98 C 57.49 37.53 56.50 36.14 55.49 34.74 C 57.17 33.32 58.93 32.09 60.87 31.08 Z" fill="#706c6e" />
<path d="M 42.00 32.18 C 43.18 33.17 44.33 34.20 45.49 35.21 C 44.64 35.73 43.80 36.27 42.96 36.81 C 40.50 38.34 40.32 40.41 41.13 43.03 C 42.72 44.57 44.11 45.95 46.50 45.36 C 49.09 44.66 49.63 42.48 50.63 40.31 L 51.55 40.74 C 52.25 41.73 53.60 42.75 53.79 43.99 C 51.90 49.21 45.30 51.51 40.44 48.82 C 39.21 47.62 38.08 46.33 36.97 45.02 C 36.35 43.05 36.13 41.05 36.15 38.99 C 36.68 37.87 37.21 36.76 37.76 35.65 C 39.04 34.30 40.43 33.18 42.00 32.18 Z" fill="#fefefe" />
<path d="M 48.97 32.55 C 50.72 35.26 52.54 37.91 54.06 40.76 L 51.55 40.74 L 50.63 40.31 C 47.23 40.47 44.25 41.81 41.13 43.03 C 40.32 40.41 40.50 38.34 42.96 36.81 C 43.77 36.65 44.58 36.50 45.39 36.36 C 46.55 35.05 47.72 33.77 48.97 32.55 Z" fill="#737071" />
<path d="M 101.47 33.03 C 114.28 33.57 126.81 37.32 137.42 44.59 C 153.62 55.47 164.57 73.56 166.49 93.00 C 167.39 102.48 166.53 112.07 163.45 121.11 C 159.07 134.34 150.43 146.05 139.14 154.20 C 127.83 162.39 113.99 166.97 100.00 166.83 C 86.02 166.96 72.14 162.41 60.85 154.21 C 48.08 145.04 38.76 131.27 35.05 115.99 C 31.50 101.72 32.85 86.36 38.84 72.93 C 44.66 59.67 54.93 48.57 67.50 41.43 C 70.89 39.92 74.20 38.27 77.64 36.89 C 85.34 34.17 93.33 33.10 101.47 33.03 Z" fill="#fefefe" />
<path d="M 37.76 35.65 C 37.21 36.76 36.68 37.87 36.15 38.99 C 33.42 41.38 28.88 43.39 25.24 43.29 C 26.83 41.20 28.49 39.18 30.26 37.25 C 32.75 38.15 35.06 35.52 37.76 35.65 Z" fill="#848182" />
<path d="M 90.52 37.79 C 105.31 35.60 120.68 38.66 133.33 46.67 C 146.80 55.04 156.84 68.64 160.82 83.99 C 164.76 98.92 163.01 115.25 155.84 128.94 C 149.09 141.99 137.69 152.47 124.12 158.10 C 112.45 163.00 99.23 164.12 86.86 161.53 C 71.32 158.26 57.24 148.86 48.25 135.76 C 40.39 124.52 36.47 110.70 37.17 97.00 C 37.73 83.63 42.78 70.57 51.25 60.23 C 61.02 48.21 75.20 40.10 90.52 37.79 Z" fill="#c13735" />
<path d="M 36.15 38.99 C 36.13 41.05 36.35 43.05 36.97 45.02 C 34.55 46.64 32.01 47.56 29.21 48.28 C 26.33 49.01 23.28 50.44 20.33 50.40 C 21.89 47.97 23.47 45.57 25.24 43.29 C 28.88 43.39 33.42 41.38 36.15 38.99 Z" fill="#696567" />
<path d="M 50.63 40.31 C 49.63 42.48 49.09 44.66 46.50 45.36 C 44.11 45.95 42.72 44.57 41.13 43.03 C 44.25 41.81 47.23 40.47 50.63 40.31 Z" fill="#524f51" />
<path d="M 92.00 40.10 C 103.88 38.81 115.75 39.83 126.54 45.30 C 119.25 48.51 111.84 45.61 104.60 48.56 C 103.52 47.54 103.26 46.25 101.54 46.57 L 100.67 45.46 C 100.25 44.96 99.82 44.48 99.38 44.00 C 98.71 44.97 98.05 45.96 97.43 46.95 C 96.08 47.64 95.48 48.29 94.80 49.60 C 88.15 49.73 81.66 51.18 75.00 51.05 C 71.05 50.96 67.86 53.19 64.32 51.15 C 72.48 45.16 81.97 41.42 92.00 40.10 Z" fill="#eb5d5c" />
<path d="M 99.38 44.00 C 99.82 44.48 100.25 44.96 100.67 45.46 C 99.25 47.84 99.90 51.31 99.78 54.00 C 99.76 74.90 99.90 95.81 99.71 116.71 C 98.60 116.67 97.49 116.63 96.38 116.59 C 95.95 97.74 96.47 78.85 96.12 59.99 C 96.01 57.18 96.75 54.79 95.20 52.25 C 95.77 50.43 96.61 48.67 97.43 46.95 C 98.05 45.96 98.71 44.97 99.38 44.00 Z" fill="#cfcfd0" />
<path d="M 36.97 45.02 C 38.08 46.33 39.21 47.62 40.44 48.82 C 36.03 51.73 31.44 51.97 26.52 53.75 C 23.60 54.83 20.67 55.60 17.57 56.00 C 18.25 53.94 19.12 52.19 20.33 50.40 C 23.28 50.44 26.33 49.01 29.21 48.28 C 32.01 47.56 34.55 46.64 36.97 45.02 Z" fill="#3f3d3e" />
<path d="M 126.54 45.30 C 131.97 47.67 136.36 51.21 140.73 55.13 C 138.22 56.40 135.71 56.11 133.00 56.09 C 125.65 55.83 118.30 57.87 111.00 58.16 C 108.24 58.36 107.24 56.47 105.36 54.92 C 104.33 52.03 103.03 49.25 101.54 46.57 C 103.26 46.25 103.52 47.54 104.60 48.56 C 111.84 45.61 119.25 48.51 126.54 45.30 Z" fill="#e94f4f" />
<path d="M 100.67 45.46 L 101.54 46.57 C 103.03 49.25 104.33 52.03 105.36 54.92 C 106.64 59.81 106.53 64.49 106.83 69.50 C 107.02 81.14 106.73 92.79 107.07 104.43 C 106.93 108.58 107.22 112.63 107.34 116.79 C 115.19 117.71 122.61 115.15 129.60 120.25 C 130.19 121.67 131.74 123.67 129.95 124.87 C 127.33 126.08 124.16 122.33 121.47 121.95 C 109.18 119.99 96.02 121.64 83.49 121.26 C 80.78 120.84 76.96 121.32 75.13 118.89 C 73.68 117.29 73.90 115.28 73.58 113.26 C 75.07 111.90 75.73 110.36 78.07 110.65 C 79.59 110.99 80.02 113.01 80.79 114.20 C 81.46 115.94 82.85 116.47 84.45 117.13 C 87.02 117.42 89.58 117.31 92.16 117.18 C 93.54 102.22 92.48 87.00 93.02 72.00 C 93.27 65.17 93.10 58.85 95.20 52.25 C 96.75 54.79 96.01 57.18 96.12 59.99 C 96.47 78.85 95.95 97.74 96.38 116.59 C 97.49 116.63 98.60 116.67 99.71 116.71 C 99.90 95.81 99.76 74.90 99.78 54.00 C 99.90 51.31 99.25 47.84 100.67 45.46 Z" fill="#fefefe" />
<path d="M 97.43 46.95 C 96.61 48.67 95.77 50.43 95.20 52.25 C 93.10 58.85 93.27 65.17 93.02 72.00 C 92.48 87.00 93.54 102.22 92.16 117.18 C 89.58 117.31 87.02 117.42 84.45 117.13 C 86.40 116.03 88.38 115.83 90.56 115.70 C 90.67 104.51 91.47 93.23 90.97 82.04 C 90.61 74.47 91.78 67.33 91.89 59.76 C 92.33 56.18 93.52 52.95 94.80 49.60 C 95.48 48.29 96.08 47.64 97.43 46.95 Z" fill="#bf3535" />
<path d="M 94.80 49.60 C 93.52 52.95 92.33 56.18 91.89 59.76 C 82.76 59.44 73.79 62.24 64.73 61.77 C 60.79 61.92 56.96 62.67 53.16 63.72 L 52.91 61.94 C 56.39 57.92 59.88 54.11 64.32 51.15 C 67.86 53.19 71.05 50.96 75.00 51.05 C 81.66 51.18 88.15 49.73 94.80 49.60 Z" fill="#e94f4f" />
<path d="M 105.36 54.92 C 107.24 56.47 108.24 58.36 111.00 58.16 C 118.30 57.87 125.65 55.83 133.00 56.09 C 135.71 56.11 138.22 56.40 140.73 55.13 C 145.04 58.76 148.49 63.14 151.52 67.86 L 150.64 69.57 C 144.47 71.66 138.15 70.29 132.00 72.13 C 128.66 73.15 125.38 72.38 122.01 72.97 C 118.67 73.54 115.33 74.10 112.00 74.70 C 111.13 74.51 110.26 74.33 109.39 74.14 C 109.12 75.84 108.85 77.54 108.55 79.23 C 108.10 76.19 108.76 72.03 106.83 69.50 C 106.53 64.49 106.64 59.81 105.36 54.92 Z" fill="#e63b3e" />
<path d="M 91.89 59.76 C 91.78 67.33 90.61 74.47 90.97 82.04 C 90.13 81.34 89.29 79.55 88.04 80.13 C 80.61 81.85 73.61 80.15 66.02 81.07 C 61.57 81.70 57.22 82.37 52.96 83.84 C 49.44 85.11 45.88 84.99 42.24 85.83 C 42.04 84.79 41.84 83.74 41.66 82.69 C 43.91 75.16 47.78 67.91 52.91 61.94 L 53.16 63.72 C 56.96 62.67 60.79 61.92 64.73 61.77 C 73.79 62.24 82.76 59.44 91.89 59.76 Z" fill="#e63b3e" />
<path d="M 151.52 67.86 C 155.49 73.57 157.80 79.97 159.39 86.70 C 149.93 89.20 139.84 91.61 130.00 91.19 C 122.89 91.04 116.10 91.74 109.09 90.09 C 107.46 94.87 108.91 99.74 107.07 104.43 C 106.73 92.79 107.02 81.14 106.83 69.50 C 108.76 72.03 108.10 76.19 108.55 79.23 C 108.85 77.54 109.12 75.84 109.39 74.14 C 110.26 74.33 111.13 74.51 112.00 74.70 C 115.33 74.10 118.67 73.54 122.01 72.97 C 125.38 72.38 128.66 73.15 132.00 72.13 C 138.15 70.29 144.47 71.66 150.64 69.57 L 151.52 67.86 Z" fill="#e02d34" />
<path d="M 88.04 80.13 C 89.29 79.55 90.13 81.34 90.97 82.04 C 91.47 93.23 90.67 104.51 90.56 115.70 C 88.38 115.83 86.40 116.03 84.45 117.13 C 82.85 116.47 81.46 115.94 80.79 114.20 C 80.02 113.01 79.59 110.99 78.07 110.65 C 75.73 110.36 75.07 111.90 73.58 113.26 C 71.45 114.95 71.71 115.74 72.29 118.27 C 70.30 118.84 68.33 118.78 66.29 118.69 C 61.49 118.49 57.21 120.33 52.36 120.32 C 49.18 120.25 46.19 121.01 43.11 121.72 C 38.26 109.59 37.30 95.10 41.66 82.69 C 41.84 83.74 42.04 84.79 42.24 85.83 C 45.88 84.99 49.44 85.11 52.96 83.84 C 57.22 82.37 61.57 81.70 66.02 81.07 C 73.61 80.15 80.61 81.85 88.04 80.13 Z" fill="#db3334" />
<path d="M 159.39 86.70 C 162.23 97.80 161.09 109.11 157.46 119.87 C 157.24 118.95 157.02 118.03 156.80 117.11 C 152.61 117.81 148.61 118.80 144.32 118.49 C 139.35 119.08 134.73 120.73 129.60 120.25 C 122.61 115.15 115.19 117.71 107.34 116.79 C 107.22 112.63 106.93 108.58 107.07 104.43 C 108.91 99.74 107.46 94.87 109.09 90.09 C 116.10 91.74 122.89 91.04 130.00 91.19 C 139.84 91.61 149.93 89.20 159.39 86.70 Z" fill="#d43635" />
<path d="M 73.58 113.26 C 73.90 115.28 73.68 117.29 75.13 118.89 C 76.96 121.32 80.78 120.84 83.49 121.26 C 78.78 122.65 75.37 122.31 72.29 118.27 C 71.71 115.74 71.45 114.95 73.58 113.26 Z" fill="#af3534" />
<path d="M 91.15 123.16 L 92.74 123.01 C 93.90 123.91 95.23 124.29 95.28 125.99 C 96.21 133.90 97.77 141.72 98.75 149.62 C 98.08 150.04 97.42 150.46 96.75 150.88 C 94.58 149.10 92.89 147.00 93.00 144.05 C 93.24 142.41 93.72 140.76 94.14 139.14 C 93.38 138.45 92.62 137.76 91.87 137.07 C 92.19 136.06 92.49 135.05 92.79 134.03 C 92.11 133.15 91.41 132.28 90.69 131.43 C 92.17 128.51 89.88 126.08 91.15 123.16 Z" fill="#deddde" />
<path d="M 92.74 123.01 C 96.49 122.95 100.25 122.87 104.00 122.98 C 107.23 122.98 109.79 124.66 112.99 124.94 C 124.95 125.97 137.08 128.42 148.22 132.94 C 147.86 133.44 147.49 133.94 147.12 134.44 C 141.71 142.19 134.54 147.72 126.43 152.39 C 120.66 147.86 114.26 142.30 107.22 139.98 C 107.49 140.89 107.76 141.80 108.04 142.71 C 108.88 146.81 106.51 149.61 103.24 151.64 C 100.98 151.81 98.88 151.73 96.75 150.88 C 97.42 150.46 98.08 150.04 98.75 149.62 C 97.77 141.72 96.21 133.90 95.28 125.99 C 95.23 124.29 93.90 123.91 92.74 123.01 Z" fill="#fefefe" />
<path d="M 90.69 131.43 C 91.41 132.28 92.11 133.15 92.79 134.03 C 92.49 135.05 92.19 136.06 91.87 137.07 C 92.62 137.76 93.38 138.45 94.14 139.14 C 93.72 140.76 93.24 142.41 93.00 144.05 C 92.89 147.00 94.58 149.10 96.75 150.88 C 98.88 151.73 100.98 151.81 103.24 151.64 L 102.55 152.91 C 97.76 154.40 94.73 152.73 91.78 149.06 C 90.95 146.30 91.32 143.91 91.91 141.16 C 91.10 138.32 89.53 134.28 90.69 131.43 Z" fill="#982e2d" />
<path d="M 147.12 134.44 C 148.14 136.11 147.86 136.45 146.89 137.98 C 137.41 150.83 122.65 158.64 106.99 160.91 C 95.73 162.33 83.99 160.12 73.71 155.42 C 72.48 154.66 69.75 153.88 70.00 152.07 C 74.41 151.55 78.64 152.21 83.00 150.97 C 86.12 150.15 88.83 149.51 92.02 150.49 L 91.78 149.06 C 94.73 152.73 97.76 154.40 102.55 152.91 L 103.24 151.64 C 106.51 149.61 108.88 146.81 108.04 142.71 C 114.43 144.93 119.68 150.20 124.99 154.32 C 125.46 153.67 125.94 153.02 126.43 152.39 C 134.54 147.72 141.71 142.19 147.12 134.44 Z" fill="#ac3533" />
<path d="M 107.22 139.98 C 114.26 142.30 120.66 147.86 126.43 152.39 C 125.94 153.02 125.46 153.67 124.99 154.32 C 119.68 150.20 114.43 144.93 108.04 142.71 C 107.76 141.80 107.49 140.89 107.22 139.98 Z" fill="#963332" />
<path d="M 175.01 155.18 C 173.36 159.18 170.53 162.19 167.39 165.07 C 163.41 165.45 159.40 166.23 155.61 167.49 C 154.46 167.87 153.77 169.38 153.04 170.29 C 152.19 168.96 151.35 167.63 150.52 166.30 C 149.31 168.19 148.48 169.91 146.04 170.36 C 142.17 170.90 139.07 165.81 141.70 162.75 C 143.16 160.96 144.86 160.65 147.07 161.17 C 148.19 161.31 149.49 161.71 150.59 161.39 C 158.66 158.97 167.01 157.90 175.01 155.18 Z" fill="#1c1b1c" />
<path d="M 144.12 156.45 C 145.18 157.98 146.17 159.54 147.07 161.17 C 144.86 160.65 143.16 160.96 141.70 162.75 C 139.07 165.81 142.17 170.90 146.04 170.36 C 148.48 169.91 149.31 168.19 150.52 166.30 C 151.35 167.63 152.19 168.96 153.04 170.29 C 152.50 171.03 151.94 171.77 151.36 172.49 C 150.24 173.14 149.15 173.82 148.10 174.56 C 145.14 174.91 142.34 175.20 139.87 173.22 C 136.06 170.31 135.03 164.84 137.74 160.83 C 139.27 158.38 141.61 157.56 144.12 156.45 Z" fill="#fefefe" />
<path d="M 60.73 159.12 C 62.04 160.02 63.38 160.90 64.70 161.78 C 63.50 167.75 62.43 173.74 61.34 179.72 C 59.96 178.86 58.57 178.01 57.19 177.15 C 57.43 176.15 57.66 175.15 57.90 174.15 C 56.12 172.99 54.30 171.90 52.41 170.93 C 51.68 171.62 50.89 172.20 50.05 172.68 C 48.59 172.13 47.26 171.11 45.94 170.29 C 51.00 166.74 55.71 162.72 60.73 159.12 Z" fill="#fefefe" />
<path d="M 67.60 163.34 C 71.12 164.98 74.76 166.32 78.33 167.85 C 77.85 168.99 77.38 170.14 76.91 171.28 C 75.81 170.82 74.72 170.35 73.63 169.88 C 72.00 173.54 70.64 177.30 69.10 180.99 C 68.86 181.45 68.61 181.91 68.35 182.36 C 67.07 181.84 65.78 181.34 64.48 180.87 C 65.80 176.49 67.95 172.46 69.36 168.12 C 68.21 167.71 67.06 167.30 65.91 166.89 C 66.48 165.71 67.03 164.52 67.60 163.34 Z" fill="#fefefe" />
<path d="M 131.88 163.63 C 133.96 168.16 136.17 172.64 138.08 177.25 L 138.82 179.21 C 137.52 179.85 136.22 180.49 134.87 181.03 C 134.11 179.40 133.36 177.76 132.61 176.11 C 131.08 172.69 129.57 169.26 128.09 165.82 L 128.46 165.20 C 129.59 164.66 130.74 164.14 131.88 163.63 Z" fill="#fefefe" />
<path d="M 60.05 164.80 C 59.66 166.84 59.15 168.84 58.55 170.82 C 57.47 170.08 56.39 169.34 55.31 168.59 C 56.83 167.25 58.39 165.96 60.05 164.80 Z" fill="#525252" />
<path d="M 128.46 165.20 L 128.09 165.82 C 129.57 169.26 131.08 172.69 132.61 176.11 C 130.29 176.35 128.63 176.01 127.06 178.12 C 126.29 175.65 125.50 173.19 124.66 170.75 C 125.80 170.39 126.95 170.04 128.10 169.69 C 127.76 168.41 127.40 167.13 126.99 165.87 C 127.48 165.65 127.97 165.43 128.46 165.20 Z" fill="#272527" />
<path d="M 167.39 165.07 C 164.82 167.70 162.42 170.41 159.39 172.54 C 156.67 172.16 154.00 173.19 151.36 172.49 C 151.94 171.77 152.50 171.03 153.04 170.29 C 153.77 169.38 154.46 167.87 155.61 167.49 C 159.40 166.23 163.41 165.45 167.39 165.07 Z" fill="#323032" />
<path d="M 126.99 165.87 C 127.40 167.13 127.76 168.41 128.10 169.69 C 126.95 170.04 125.80 170.39 124.66 170.75 C 125.50 173.19 126.29 175.65 127.06 178.12 C 127.63 179.93 128.12 181.77 128.57 183.62 C 127.25 184.02 125.93 184.40 124.61 184.77 C 124.26 183.87 123.93 182.98 123.62 182.08 C 123.01 180.12 122.42 178.15 121.76 176.21 L 121.70 176.03 C 121.28 174.72 120.87 173.40 120.48 172.08 C 119.30 172.45 118.11 172.79 116.94 173.17 C 116.58 171.93 116.22 170.70 115.86 169.46 C 119.56 168.20 123.34 167.21 126.99 165.87 Z" fill="#fefefe" />
<path d="M 78.63 168.14 C 80.12 168.40 81.61 168.66 83.11 168.93 C 82.63 171.13 82.27 173.31 82.03 175.55 C 84.06 175.86 86.09 176.23 88.11 176.62 C 88.54 174.42 89.02 172.23 89.53 170.05 C 90.96 170.41 92.38 170.77 93.81 171.13 C 93.36 173.39 92.93 175.65 92.45 177.90 C 92.01 179.87 91.60 181.85 91.27 183.84 C 91.05 185.17 90.83 186.50 90.61 187.83 C 89.09 187.56 87.56 187.33 86.05 186.99 C 86.57 184.68 87.03 182.37 87.46 180.04 C 85.34 179.67 83.23 179.27 81.12 178.87 C 80.86 180.20 80.63 181.52 80.43 182.85 C 80.29 183.79 80.15 184.73 80.02 185.67 C 78.52 185.47 77.01 185.28 75.51 185.08 C 75.73 183.80 75.94 182.52 76.16 181.24 C 76.87 176.84 78.06 172.56 78.63 168.14 Z" fill="#fefefe" />
<path d="M 105.47 170.49 L 106.92 170.44 L 105.89 171.26 C 106.09 173.45 106.44 175.59 106.78 177.75 C 105.31 177.96 103.85 178.19 102.39 178.45 C 101.50 179.34 100.68 180.27 99.84 181.20 C 99.84 178.55 99.87 175.90 99.88 173.25 C 101.58 173.46 103.09 172.95 104.73 172.56 C 104.97 171.87 105.22 171.18 105.47 170.49 Z" fill="#1b1a1b" />
<path d="M 106.92 170.44 C 109.77 170.35 112.55 169.87 115.35 169.44 C 115.60 170.70 115.85 171.96 116.10 173.22 C 114.35 173.49 112.59 173.71 110.82 173.90 C 110.95 174.85 111.09 175.81 111.22 176.76 C 112.89 176.49 114.56 176.22 116.22 175.94 C 116.37 177.23 116.51 178.51 116.65 179.80 C 114.94 180.06 113.21 180.28 111.49 180.49 L 112.15 183.23 C 113.86 183.28 115.62 182.94 117.31 182.70 C 117.52 183.89 117.71 185.07 117.90 186.26 C 114.70 186.94 111.42 187.26 108.19 187.84 C 108.04 186.88 107.89 185.92 107.75 184.97 C 107.47 182.56 107.15 180.15 106.78 177.75 C 106.44 175.59 106.09 173.45 105.89 171.26 L 106.92 170.44 Z" fill="#fefefe" />
<path d="M 95.36 171.03 C 96.86 170.97 98.36 170.91 99.86 170.87 L 99.88 173.25 C 99.87 175.90 99.84 178.55 99.84 181.20 C 99.83 182.22 99.84 183.25 99.84 184.27 C 101.63 184.27 103.42 184.25 105.21 184.24 C 105.15 185.49 105.10 186.75 105.05 188.01 C 101.94 187.98 98.85 188.07 95.74 188.18 L 95.29 188.09 C 95.33 185.48 95.39 182.86 95.35 180.25 C 95.36 177.17 95.42 174.10 95.36 171.03 Z" fill="#ffffff" />
<path d="M 151.36 172.49 C 154.00 173.19 156.67 172.16 159.39 172.54 C 139.54 189.01 113.00 196.70 87.43 192.94 C 92.58 190.20 99.40 190.21 105.10 189.38 C 101.95 188.95 98.86 188.80 95.74 188.18 C 98.85 188.07 101.94 187.98 105.05 188.01 C 105.10 186.75 105.15 185.49 105.21 184.24 C 105.59 185.19 105.97 186.15 106.35 187.11 C 106.83 186.40 107.30 185.69 107.75 184.97 C 107.89 185.92 108.04 186.88 108.19 187.84 C 111.42 187.26 114.70 186.94 117.90 186.26 C 118.48 185.61 119.08 184.98 119.68 184.36 C 121.04 183.25 122.83 183.99 123.62 182.08 C 123.93 182.98 124.26 183.87 124.61 184.77 C 125.93 184.40 127.25 184.02 128.57 183.62 C 130.64 182.55 132.65 181.74 134.87 181.03 C 136.22 180.49 137.52 179.85 138.82 179.21 L 138.08 177.25 C 138.56 176.33 139.05 175.41 139.56 174.51 C 142.06 175.65 144.59 175.72 147.28 175.37 L 148.10 174.56 C 149.15 173.82 150.24 173.14 151.36 172.49 Z" fill="#524e51" />
<path d="M 121.70 176.03 L 121.76 176.21 C 122.42 178.15 123.01 180.12 123.62 182.08 C 122.83 183.99 121.04 183.25 119.68 184.36 C 119.08 184.98 118.48 185.61 117.90 186.26 C 117.71 185.07 117.52 183.89 117.31 182.70 C 115.62 182.94 113.86 183.28 112.15 183.23 L 111.49 180.49 C 113.21 180.28 114.94 180.06 116.65 179.80 L 117.31 179.56 C 117.52 178.64 117.72 177.73 117.91 176.81 C 119.17 176.53 120.43 176.27 121.70 176.03 Z" fill="#3b383a" />
<path d="M 132.61 176.11 C 133.36 177.76 134.11 179.40 134.87 181.03 C 132.65 181.74 130.64 182.55 128.57 183.62 C 128.12 181.77 127.63 179.93 127.06 178.12 C 128.63 176.01 130.29 176.35 132.61 176.11 Z" fill="#403d3f" />
<path d="M 92.45 177.90 C 93.44 178.66 94.40 179.44 95.35 180.25 C 95.39 182.86 95.33 185.48 95.29 188.09 L 94.42 187.69 C 94.15 186.98 93.88 186.26 93.62 185.54 C 93.10 185.57 92.57 185.59 92.05 185.61 L 91.27 183.84 C 91.60 181.85 92.01 179.87 92.45 177.90 Z" fill="#2d2b2d" />
<path d="M 102.39 178.45 C 103.85 178.19 105.31 177.96 106.78 177.75 C 107.15 180.15 107.47 182.56 107.75 184.97 C 107.30 185.69 106.83 186.40 106.35 187.11 C 105.97 186.15 105.59 185.19 105.21 184.24 C 103.42 184.25 101.63 184.27 99.84 184.27 C 99.84 183.25 99.83 182.22 99.84 181.20 C 100.68 180.27 101.50 179.34 102.39 178.45 Z" fill="#302e30" />
<path d="M 73.86 178.73 C 74.64 179.56 75.41 180.40 76.16 181.24 C 75.94 182.52 75.73 183.80 75.51 185.08 C 77.01 185.28 78.52 185.47 80.02 185.67 L 79.80 186.99 C 76.22 187.44 72.93 186.97 69.61 188.70 C 65.36 187.44 61.26 185.91 57.76 183.12 C 61.33 182.10 64.76 182.70 68.35 182.36 C 68.61 181.91 68.86 181.45 69.10 180.99 C 70.63 180.08 72.13 179.20 73.86 178.73 Z" fill="#1f1e1f" />
<path d="M 81.12 178.87 C 83.23 179.27 85.34 179.67 87.46 180.04 C 87.03 182.37 86.57 184.68 86.05 186.99 L 85.18 186.71 C 84.93 185.96 84.70 185.21 84.46 184.46 C 83.35 184.98 82.24 185.51 81.12 186.03 C 80.88 184.97 80.65 183.91 80.43 182.85 C 80.63 181.52 80.86 180.20 81.12 178.87 Z" fill="#201f20" />
<path d="M 80.43 182.85 C 80.65 183.91 80.88 184.97 81.12 186.03 C 82.24 185.51 83.35 184.98 84.46 184.46 C 84.70 185.21 84.93 185.96 85.18 186.71 L 86.05 186.99 C 87.56 187.33 89.09 187.56 90.61 187.83 C 90.83 186.50 91.05 185.17 91.27 183.84 L 92.05 185.61 C 92.57 185.59 93.10 185.57 93.62 185.54 C 93.88 186.26 94.15 186.98 94.42 187.69 L 95.29 188.09 L 95.74 188.18 C 98.86 188.80 101.95 188.95 105.10 189.38 C 99.40 190.21 92.58 190.20 87.43 192.94 C 81.18 192.47 75.54 190.50 69.61 188.70 C 72.93 186.97 76.22 187.44 79.80 186.99 L 80.02 185.67 C 80.15 184.73 80.29 183.79 80.43 182.85 Z" fill="#3e3b3d" />
</svg>