<?xml version="1.0" encoding="UTF-8" standalone="no"?>
<!DOCTYPE svg PUBLIC "-//W3C//DTD SVG 1.1//EN" "http://www.w3.org/Graphics/SVG/1.1/DTD/svg11.dtd">
<svg xmlns="http://www.w3.org/2000/svg" version="1.1" viewBox="0 0 200 200" width="200.0pt" height="200.0pt">
<path d="M 0.00 0.00 L 114.60 0.00 C 113.91 3.15 112.69 6.30 111.64 9.36 C 108.50 9.33 105.37 9.30 102.23 9.29 C 104.78 11.19 107.34 13.05 109.92 14.91 C 108.79 18.10 107.79 21.34 106.81 24.59 C 109.48 22.69 112.15 20.80 114.82 18.92 C 117.53 20.79 120.22 22.68 122.93 24.54 C 121.93 21.31 120.88 18.09 119.90 14.84 C 122.44 13.01 124.98 11.17 127.48 9.30 C 124.39 9.31 121.30 9.33 118.20 9.36 C 117.05 6.35 116.01 3.31 114.91 0.28 L 114.81 0.00 L 200.00 0.00 L 200.00 200.00 L 108.20 200.00 C 108.20 198.16 108.21 196.31 108.22 194.47 C 105.18 194.02 102.30 194.37 100.23 191.68 C 97.16 187.08 101.41 181.01 96.52 177.19 C 97.54 175.90 99.01 174.82 99.01 173.06 C 99.06 170.26 99.69 166.77 96.88 165.07 C 93.52 163.99 89.50 164.60 86.00 164.46 C 86.00 173.57 86.00 182.67 86.00 191.77 C 87.77 191.76 89.53 191.75 91.30 191.75 C 91.30 187.50 91.29 183.25 91.37 179.00 C 92.02 179.32 92.68 179.64 93.33 179.97 C 93.54 184.01 93.06 188.26 93.81 192.24 C 95.34 196.93 99.51 198.70 103.88 200.00 L 0.00 200.00 L 0.00 0.00 Z" fill="#ffffff" />
<path d="M 114.60 0.00 L 114.81 0.00 L 114.91 0.28 C 116.01 3.31 117.05 6.35 118.20 9.36 C 121.30 9.33 124.39 9.31 127.48 9.30 C 124.98 11.17 122.44 13.01 119.90 14.84 C 120.88 18.09 121.93 21.31 122.93 24.54 C 120.22 22.68 117.53 20.79 114.82 18.92 C 112.15 20.80 109.48 22.69 106.81 24.59 C 107.79 21.34 108.79 18.10 109.92 14.91 C 107.34 13.05 104.78 11.19 102.23 9.29 C 105.37 9.30 108.50 9.33 111.64 9.36 C 112.69 6.30 113.91 3.15 114.60 0.00 Z" fill="#d0112b" />
<path d="M 84.57 0.10 C 85.69 3.17 86.78 6.25 87.80 9.35 C 90.93 9.33 94.07 9.30 97.20 9.29 C 94.69 11.20 92.14 13.06 89.58 14.90 C 90.67 18.11 91.66 21.35 92.65 24.60 C 89.98 22.69 87.29 20.80 84.59 18.93 C 81.88 20.79 79.19 22.67 76.48 24.53 C 77.54 21.32 78.57 18.10 79.51 14.86 C 76.98 13.01 74.46 11.16 71.96 9.28 C 75.08 9.31 78.20 9.33 81.32 9.36 C 82.42 6.28 83.46 3.18 84.57 0.10 Z" fill="#d0112b" />
<path d="M 102.03 33.94 C 107.32 34.39 110.68 37.62 113.92 41.48 C 118.38 41.51 122.48 41.88 125.66 45.37 C 128.76 48.90 128.95 53.07 128.24 57.52 C 130.39 58.86 132.48 59.95 134.09 61.97 C 135.89 64.16 136.17 67.17 136.74 69.85 C 138.42 71.27 140.46 72.59 141.11 74.81 C 141.72 77.06 141.55 79.60 141.62 81.92 C 143.81 84.18 145.91 86.12 146.79 89.26 C 148.49 95.28 144.68 101.73 139.06 104.06 C 135.92 105.53 132.91 105.17 129.57 105.06 C 126.80 107.85 124.00 110.29 120.03 111.14 C 116.42 112.19 113.32 111.13 109.88 110.12 C 109.90 115.99 109.88 121.87 109.88 127.75 C 116.87 124.06 124.94 120.19 133.04 120.76 C 136.43 120.92 139.02 122.48 141.90 124.07 C 141.88 126.92 141.91 129.76 141.97 132.60 C 138.23 130.39 134.55 128.57 130.06 128.84 C 119.65 129.08 113.57 136.71 102.94 138.34 C 103.04 125.12 102.86 111.91 102.89 98.69 C 110.03 104.32 121.93 104.01 126.39 95.18 C 128.16 96.25 129.82 97.78 132.02 97.59 C 135.76 97.39 138.53 93.69 137.97 90.03 C 137.71 87.34 135.04 86.08 133.17 84.54 C 133.44 82.08 134.21 79.60 132.72 77.37 C 131.59 76.02 129.60 75.29 128.08 74.48 C 128.23 71.97 129.00 69.82 127.42 67.59 C 125.67 64.88 122.89 64.43 120.01 63.62 C 121.33 59.25 122.32 54.98 118.58 51.47 C 115.59 48.45 112.34 49.07 108.47 49.44 C 106.83 45.70 104.44 42.78 100.01 42.82 C 95.40 42.74 92.92 45.65 90.82 49.33 C 87.52 49.35 84.66 48.63 82.01 51.07 C 78.20 54.63 78.09 59.21 80.70 63.54 C 77.51 64.23 74.67 64.85 72.70 67.71 C 71.15 69.99 72.20 72.88 72.64 75.37 C 70.41 76.03 67.46 75.99 66.33 78.39 C 65.01 80.87 66.88 83.37 67.93 85.56 C 66.17 86.86 63.86 88.00 63.11 90.19 C 61.90 93.28 63.85 97.12 67.16 97.73 C 69.88 98.29 71.87 97.09 74.24 96.05 C 76.35 98.79 78.43 101.20 81.96 102.05 C 87.74 103.88 93.23 102.06 98.04 98.75 C 97.98 111.90 98.04 125.06 98.01 138.21 C 91.68 137.11 86.49 134.00 80.82 131.25 C 73.72 127.73 65.47 128.41 58.91 132.80 C 58.98 130.01 58.81 127.13 59.25 124.37 C 62.88 120.92 68.26 120.28 73.04 120.87 C 79.55 121.89 85.51 124.84 91.26 127.91 C 91.23 121.94 91.23 115.97 91.25 110.01 C 87.85 111.38 84.80 112.73 81.02 111.90 C 76.90 111.08 74.04 108.52 71.51 105.32 C 66.34 106.10 61.55 106.24 57.36 102.66 C 52.87 98.88 52.08 92.91 53.67 87.50 C 54.55 85.00 56.64 83.13 58.47 81.31 C 58.60 79.33 58.57 77.11 59.26 75.25 C 60.15 73.26 62.28 71.77 63.57 70.03 C 63.79 67.76 63.45 65.27 64.03 63.06 C 65.26 60.16 68.58 59.13 71.18 57.84 C 70.82 53.40 70.74 49.38 73.66 45.71 C 76.73 41.98 80.90 41.36 85.43 40.89 C 89.77 35.65 95.12 33.04 102.03 33.94 Z" fill="#d0112b" />
<path d="M 74.52 132.65 C 81.20 133.79 85.32 138.55 91.64 140.38 C 97.49 142.18 104.02 141.88 109.77 139.86 C 115.92 137.88 120.21 133.55 126.79 132.51 C 132.30 131.27 137.37 133.02 141.89 136.14 C 141.88 138.88 141.89 141.62 141.93 144.35 C 138.85 142.26 135.80 140.46 132.03 139.99 C 126.84 139.40 122.11 141.13 117.70 143.72 C 110.88 147.83 102.46 150.24 94.52 148.61 C 86.14 146.91 80.78 140.92 72.02 140.09 C 66.96 139.35 62.84 141.46 58.96 144.43 C 58.98 141.62 58.99 138.81 58.97 136.01 C 63.66 132.52 68.77 131.32 74.52 132.65 Z" fill="#d0112b" />
<path d="M 79.74 145.26 C 82.44 146.50 84.79 148.22 87.41 149.59 C 93.93 153.10 102.23 153.32 109.23 151.26 C 116.72 149.09 120.77 143.47 129.00 143.33 C 134.10 142.92 138.05 144.97 141.90 148.04 C 141.89 151.08 141.91 154.12 141.97 157.15 C 139.28 154.73 136.92 152.42 133.26 151.57 C 127.58 150.09 121.95 152.31 117.05 155.05 C 109.67 159.14 100.47 161.80 92.20 158.92 C 84.17 156.48 78.87 150.51 69.98 151.25 C 65.31 151.53 62.14 154.19 58.95 157.31 C 58.99 154.18 59.00 151.04 58.95 147.91 C 64.66 142.61 72.83 142.11 79.74 145.26 Z" fill="#d0112b" />
<path d="M 83.85 169.03 C 84.12 174.85 84.17 181.09 83.82 186.90 C 83.14 193.35 72.65 193.72 70.90 187.93 C 70.39 184.68 70.68 181.28 70.62 178.00 C 70.95 174.31 69.57 168.18 72.59 165.48 C 76.16 162.88 83.43 163.57 83.85 169.03 Z" fill="#d0112b" />
<path d="M 86.00 164.46 C 89.50 164.60 93.52 163.99 96.88 165.07 C 99.69 166.77 99.06 170.26 99.01 173.06 C 99.01 174.82 97.54 175.90 96.52 177.19 C 101.41 181.01 97.16 187.08 100.23 191.68 C 102.30 194.37 105.18 194.02 108.22 194.47 C 108.21 196.31 108.20 198.16 108.20 200.00 L 103.88 200.00 C 99.51 198.70 95.34 196.93 93.81 192.24 C 93.06 188.26 93.54 184.01 93.33 179.97 C 92.68 179.64 92.02 179.32 91.37 179.00 C 91.29 183.25 91.30 187.50 91.30 191.75 C 89.53 191.75 87.77 191.76 86.00 191.77 C 86.00 182.67 86.00 173.57 86.00 164.46 Z" fill="#d0112b" />
<path d="M 106.00 164.20 C 109.20 164.03 112.28 163.88 113.55 167.43 C 114.34 171.23 113.82 175.39 113.91 179.26 C 111.35 179.26 108.79 179.26 106.24 179.26 C 106.51 182.43 105.32 185.62 108.01 187.88 C 108.30 185.93 108.51 183.97 108.69 181.99 C 110.47 182.00 112.26 182.01 114.04 182.01 C 113.75 185.46 114.71 189.16 111.19 191.22 C 108.40 192.41 103.34 192.41 101.69 189.30 C 100.71 186.79 101.07 183.66 100.99 181.00 C 101.13 176.73 100.73 172.37 101.25 168.14 C 101.63 165.76 103.67 164.33 106.00 164.20 Z" fill="#d0112b" />
<path d="M 126.12 164.89 C 129.29 166.98 128.68 169.89 129.00 173.20 C 127.20 173.21 125.39 173.21 123.59 173.22 C 123.18 171.39 123.63 169.65 122.01 168.42 C 121.14 169.89 120.80 171.95 121.55 173.54 C 123.51 175.71 126.96 176.97 128.52 179.46 C 129.18 182.31 129.12 185.76 128.64 188.64 C 126.99 192.10 121.98 192.62 118.87 191.19 C 115.34 189.13 116.39 185.49 116.06 182.03 C 117.77 182.02 119.47 182.01 121.18 181.99 C 121.38 184.36 121.38 186.19 123.07 188.05 C 123.33 185.71 124.87 182.38 122.19 180.89 C 119.90 178.89 116.07 177.63 116.03 174.06 C 115.87 171.07 115.43 167.13 118.27 165.18 C 120.25 163.80 124.02 163.83 126.12 164.89 Z" fill="#d0112b" />
<path d="M 59.03 164.48 C 62.40 164.48 65.77 164.47 69.14 164.46 C 69.13 165.95 69.13 167.44 69.13 168.93 C 67.52 168.92 65.91 168.90 64.29 168.88 C 64.27 170.85 64.26 172.82 64.24 174.78 C 65.74 174.79 67.25 174.79 68.75 174.80 C 68.74 176.28 68.72 177.76 68.70 179.25 C 67.22 179.24 65.74 179.24 64.25 179.24 C 64.26 183.42 64.26 187.59 64.25 191.77 C 62.51 191.76 60.77 191.76 59.03 191.75 C 59.03 182.66 59.04 173.57 59.03 164.48 Z" fill="#d0112b" />
<path d="M 129.53 164.47 C 133.61 164.48 137.69 164.48 141.78 164.48 C 141.78 165.94 141.78 167.41 141.78 168.87 C 140.64 168.88 139.49 168.90 138.34 168.91 C 138.29 176.53 138.33 184.16 138.31 191.78 C 136.58 191.77 134.85 191.75 133.12 191.75 C 133.12 184.23 133.11 176.72 133.13 169.21 C 131.92 169.08 130.72 168.94 129.51 168.80 C 129.52 167.36 129.52 165.91 129.53 164.47 Z" fill="#d0112b" />
<path d="M 76.33 168.97 C 77.02 168.82 77.74 168.84 78.48 169.04 C 78.75 174.80 78.82 180.84 78.46 186.58 C 77.75 186.89 77.02 187.18 76.28 187.44 C 76.16 181.30 75.94 175.10 76.33 168.97 Z" fill="#ffffff" />
<path d="M 91.38 168.51 C 92.10 168.85 92.82 169.20 93.53 169.56 C 93.60 171.16 93.59 172.77 93.58 174.38 C 92.83 174.56 92.08 174.75 91.33 174.94 C 91.33 172.79 91.34 170.65 91.38 168.51 Z" fill="#ffffff" />
<path d="M 108.39 168.57 C 108.48 170.64 108.53 172.72 108.57 174.79 C 107.77 174.79 106.98 174.80 106.18 174.80 C 106.65 172.18 105.15 169.50 108.39 168.57 Z" fill="#ffffff" />
</svg>