<?xml version="1.0" encoding="UTF-8" standalone="no"?>
<!DOCTYPE svg PUBLIC "-//W3C//DTD SVG 1.1//EN" "http://www.w3.org/Graphics/SVG/1.1/DTD/svg11.dtd">
<svg xmlns="http://www.w3.org/2000/svg" version="1.1" viewBox="0 0 200 200" width="200.0pt" height="200.0pt">
<path d="M 0.00 0.00 L 95.20 0.00 C 85.03 1.20 75.04 2.72 65.43 6.42 C 38.35 16.30 16.32 38.36 6.42 65.43 C 2.74 74.95 1.27 84.83 0.00 94.89 L 0.00 0.00 Z" fill="#ffffff" />
<path d="M 95.20 0.00 L 107.07 0.00 L 109.21 0.57 C 129.20 2.47 148.45 10.25 163.90 23.13 C 179.42 35.86 190.90 53.50 196.34 72.82 C 198.31 79.32 199.04 85.95 200.00 92.64 L 200.00 108.18 C 198.52 120.38 195.88 132.28 190.35 143.34 C 180.66 163.79 163.79 180.66 143.34 190.35 C 132.23 195.88 120.29 198.56 108.04 200.00 L 92.48 200.00 C 83.41 198.83 74.50 197.38 65.91 194.12 C 46.58 187.09 29.58 173.99 17.92 157.04 C 8.27 143.12 2.37 126.84 0.68 109.99 C 0.47 108.96 0.24 107.94 0.00 106.91 L 0.00 94.89 C 1.27 84.83 2.74 74.95 6.42 65.43 C 16.32 38.36 38.35 16.30 65.43 6.42 C 75.04 2.72 85.03 1.20 95.20 0.00 Z" fill="#db2f36" />
<path d="M 107.07 0.00 L 200.00 0.00 L 200.00 92.64 C 199.04 85.95 198.31 79.32 196.34 72.82 C 190.90 53.50 179.42 35.86 163.90 23.13 C 148.45 10.25 129.20 2.47 109.21 0.57 L 107.07 0.00 Z" fill="#ffffff" />
<path d="M 93.17 3.21 C 104.41 2.61 115.58 3.38 126.42 6.54 C 146.94 12.23 165.35 24.90 178.07 41.97 C 197.52 67.58 202.69 102.63 191.78 132.85 C 184.69 152.90 170.80 170.38 152.91 181.87 C 126.55 199.16 92.03 202.19 62.98 190.03 C 43.61 182.05 27.04 167.64 16.41 149.59 C 0.86 123.58 -1.29 90.40 10.50 62.53 C 17.55 45.65 29.49 30.94 44.48 20.47 C 58.75 10.44 75.76 4.39 93.17 3.21 Z" fill="#010100" />
<path d="M 90.01 6.41 C 106.80 4.51 124.20 7.40 139.55 14.44 C 157.68 22.74 172.98 36.94 182.65 54.37 C 196.86 79.65 198.38 111.27 186.68 137.82 C 178.29 157.24 163.16 173.56 144.47 183.47 C 118.93 197.21 87.33 198.15 61.00 186.01 C 41.05 176.92 24.51 160.70 15.07 140.91 C 8.14 126.45 4.93 110.03 6.07 94.04 C 7.55 68.48 20.06 44.07 39.74 27.75 C 53.92 15.88 71.61 8.32 90.01 6.41 Z" fill="#ffffff" />
<path d="M 100.54 12.66 C 102.37 11.87 104.90 12.15 106.84 12.39 C 111.30 14.01 113.11 19.57 110.46 23.49 C 107.83 27.99 100.15 27.94 97.59 23.42 C 95.25 19.71 96.59 14.64 100.54 12.66 Z" fill="#005aa1" />
<path d="M 83.47 13.66 C 86.47 13.06 89.43 12.88 91.69 15.31 C 95.21 18.67 94.38 24.80 90.17 27.19 C 86.26 29.55 81.17 27.85 79.33 23.72 C 77.56 19.84 79.42 15.10 83.47 13.66 Z" fill="#005aa1" />
<path d="M 102.11 13.12 C 104.59 12.05 107.38 13.02 108.59 15.45 C 109.92 18.29 109.68 22.15 107.58 24.57 C 105.50 26.84 101.68 26.66 99.96 24.04 C 97.79 20.95 98.33 14.81 102.11 13.12 Z" fill="#ffffff" />
<path d="M 114.08 13.00 C 118.15 14.14 122.26 15.55 126.51 15.78 C 126.32 16.88 126.14 17.98 125.96 19.08 C 125.61 18.37 125.25 17.66 124.90 16.95 C 123.61 16.50 122.31 16.05 121.01 15.60 C 120.46 19.90 117.78 25.00 118.86 29.19 C 117.54 28.83 116.22 28.49 114.88 28.16 C 117.37 25.86 117.01 22.98 117.97 19.88 C 118.20 18.32 119.31 16.18 118.38 14.76 C 116.07 14.41 115.08 14.86 113.20 15.99 C 113.47 14.99 113.77 13.99 114.08 13.00 Z" fill="#005aa1" />
<path d="M 89.60 15.40 C 92.72 19.00 92.46 24.86 88.17 27.47 C 87.04 27.45 85.91 27.44 84.78 27.44 C 81.07 25.09 79.73 19.87 81.99 16.11 C 83.47 13.59 87.67 13.29 89.60 15.40 Z" fill="#ffffff" />
<path d="M 73.97 16.12 C 74.55 16.94 75.01 17.85 75.34 18.85 C 74.61 18.37 73.88 17.90 73.15 17.42 C 71.67 17.96 70.19 18.48 68.70 18.99 C 69.33 20.84 69.99 22.68 70.69 24.51 C 71.91 24.05 73.12 23.61 74.34 23.17 C 74.79 22.45 75.23 21.73 75.67 21.01 C 76.06 22.32 76.46 23.62 76.88 24.92 C 76.24 24.58 75.61 24.24 74.97 23.90 C 73.60 24.35 72.10 24.67 70.96 25.59 C 72.23 27.87 71.87 30.74 75.03 31.02 C 73.37 31.63 71.73 32.28 70.11 32.99 C 71.47 30.38 69.78 28.47 69.06 25.94 C 67.88 23.31 67.96 20.50 65.08 19.17 C 68.17 18.48 71.04 17.27 73.97 16.12 Z" fill="#005aa1" />
<path d="M 130.26 17.40 C 132.71 18.74 137.51 19.68 137.83 23.00 C 137.77 25.53 136.29 25.95 134.17 26.56 C 136.20 28.76 136.61 31.92 133.49 33.28 C 130.40 34.06 127.15 31.23 124.03 30.72 C 127.26 28.87 127.85 23.78 129.64 20.66 C 129.89 19.58 130.09 18.49 130.26 17.40 Z" fill="#005aa1" />
<path d="M 132.71 18.99 C 134.30 20.29 136.66 21.08 135.62 23.61 C 134.45 26.03 132.83 25.38 130.58 25.24 C 130.09 23.20 131.88 20.80 132.71 18.99 Z" fill="#ffffff" />
<path d="M 54.69 25.06 C 55.51 26.25 56.33 27.45 57.16 28.63 C 54.46 27.07 52.25 26.40 49.66 28.68 C 46.88 32.01 49.23 36.55 52.37 38.62 C 55.07 40.52 58.46 39.80 60.21 37.02 C 58.72 34.92 58.50 33.49 55.54 33.55 C 57.32 32.60 59.02 31.53 60.70 30.42 C 60.39 31.18 60.07 31.95 59.75 32.71 C 60.67 34.08 61.58 35.46 62.49 36.84 C 60.10 38.81 57.28 41.27 53.99 41.21 C 48.59 41.30 45.04 34.28 47.88 29.85 C 49.16 27.19 52.20 26.63 54.69 25.06 Z" fill="#005aa1" />
<path d="M 129.90 25.18 C 131.21 25.99 132.79 26.46 133.50 27.93 C 134.16 29.47 133.33 31.26 131.93 32.04 C 130.32 32.96 129.07 31.68 127.63 31.06 C 127.98 29.97 128.35 28.89 128.73 27.81 C 129.11 26.93 129.50 26.05 129.90 25.18 Z" fill="#ffffff" />
<path d="M 147.92 26.32 L 149.24 26.95 C 148.03 31.37 146.67 35.75 145.51 40.18 L 145.87 42.52 C 144.58 41.53 143.25 40.62 141.87 39.76 C 144.60 39.34 144.12 36.95 144.99 34.90 C 143.76 33.94 142.47 33.09 141.15 32.27 C 140.07 33.17 138.98 34.08 137.89 34.97 C 137.78 35.62 137.67 36.26 137.57 36.90 C 136.59 36.14 135.61 35.38 134.62 34.64 L 137.00 34.35 C 140.70 31.77 144.17 28.83 147.92 26.32 Z" fill="#005aa1" />
<path d="M 146.87 28.05 C 146.38 29.99 145.84 31.92 145.22 33.82 C 144.23 33.06 143.27 32.28 142.32 31.48 C 143.82 30.31 145.34 29.17 146.87 28.05 Z" fill="#ffffff" />
<path d="M 89.52 33.83 C 98.99 32.50 108.95 32.80 118.18 35.45 C 133.11 39.55 146.43 49.01 155.26 61.73 C 163.08 72.86 167.36 86.39 167.33 100.00 C 167.44 112.43 163.93 124.83 157.39 135.39 C 149.12 148.85 136.03 159.20 121.00 164.07 C 108.19 168.25 94.09 168.43 81.18 164.62 C 66.25 160.26 53.01 150.54 44.39 137.60 C 36.96 126.56 32.87 113.32 33.08 100.00 C 32.89 83.85 39.10 67.84 49.77 55.77 C 59.97 44.13 74.24 36.27 89.52 33.83 Z" fill="#010100" />
<path d="M 156.53 32.55 C 157.85 33.87 159.23 35.13 160.64 36.36 C 159.81 36.36 158.98 36.37 158.15 36.37 C 155.60 39.31 152.85 42.06 150.32 45.00 C 152.75 47.30 153.78 49.86 157.70 48.33 C 156.63 49.04 155.55 49.70 154.41 50.28 C 151.93 47.92 149.60 45.57 146.91 43.46 L 149.02 43.10 C 151.77 40.59 154.30 37.67 156.74 34.85 L 156.53 32.55 Z" fill="#005aa1" />
<path d="M 41.63 33.95 C 41.52 35.09 41.70 36.03 42.17 36.76 C 45.06 39.80 48.36 42.44 51.27 45.47 C 45.79 45.43 40.38 44.65 34.91 44.48 C 37.68 46.82 40.18 49.47 42.97 51.78 L 45.34 51.34 C 44.32 52.42 43.34 53.54 42.42 54.72 C 42.31 53.88 42.13 53.05 41.89 52.25 C 39.43 49.73 36.71 47.12 33.94 44.95 L 31.50 44.76 C 32.33 44.01 33.15 43.25 33.97 42.49 C 38.66 42.69 43.30 43.31 47.99 43.49 C 45.62 41.36 43.30 39.19 40.95 37.05 C 40.19 37.21 39.42 37.38 38.65 37.54 C 39.67 36.36 40.67 35.17 41.63 33.95 Z" fill="#005aa1" />
<path d="M 88.47 36.58 C 97.33 34.96 106.21 35.19 114.98 37.23 C 131.49 41.02 146.12 51.60 155.05 65.97 C 162.13 77.24 165.53 90.71 164.71 103.99 C 164.03 117.01 159.14 129.80 151.09 140.04 C 142.35 151.28 129.80 159.44 115.99 162.89 C 105.38 165.56 94.07 165.46 83.49 162.65 C 66.67 158.29 51.92 146.66 43.57 131.43 C 36.78 119.26 34.15 104.76 36.19 90.98 C 38.08 77.27 44.62 64.20 54.47 54.47 C 63.60 45.22 75.68 38.88 88.47 36.58 Z" fill="#ebb300" />
<path d="M 100.20 38.44 C 100.19 43.59 100.19 48.75 100.19 53.90 C 86.56 53.91 72.92 53.86 59.29 53.93 C 70.43 43.97 85.25 38.36 100.20 38.44 Z" fill="#ffffff" />
<path d="M 100.20 38.44 C 117.07 38.39 133.65 45.52 145.13 57.88 C 155.83 69.11 162.01 84.61 161.87 100.13 C 149.47 100.18 137.06 100.14 124.66 100.15 C 124.55 94.59 122.78 89.13 119.19 84.83 C 114.60 79.03 107.55 75.82 100.19 75.63 C 100.18 73.54 100.18 71.44 100.18 69.34 C 100.20 64.20 100.19 59.05 100.19 53.90 C 100.19 48.75 100.19 43.59 100.20 38.44 Z" fill="#db2f36" />
<path d="M 167.56 43.15 C 168.34 44.39 169.13 45.62 170.06 46.75 L 167.91 46.70 C 164.70 48.89 161.29 51.23 158.46 53.90 C 159.57 55.37 160.70 56.82 161.89 58.22 C 162.78 58.27 163.58 58.34 164.43 58.58 C 163.50 58.98 162.55 59.31 161.58 59.59 C 159.57 56.82 157.55 54.05 155.42 51.38 C 158.35 52.12 159.49 50.11 161.66 48.70 C 163.90 46.89 166.26 45.86 167.56 43.15 Z" fill="#005aa1" />
<path d="M 29.36 47.92 C 29.10 51.00 32.47 51.90 34.42 53.61 C 36.61 54.89 38.41 57.47 41.24 56.36 C 40.21 57.62 39.20 58.88 38.21 60.17 C 37.70 57.78 35.88 57.18 34.12 55.84 C 31.54 54.20 29.75 52.18 26.64 51.63 C 27.62 50.44 28.53 49.21 29.36 47.92 Z" fill="#005aa1" />
<path d="M 58.93 54.23 L 59.29 53.93 C 72.92 53.86 86.56 53.91 100.19 53.90 C 100.19 59.05 100.20 64.20 100.18 69.34 C 82.35 69.35 64.51 69.41 46.67 69.32 C 49.89 63.74 54.12 58.51 58.93 54.23 Z" fill="#005aa1" />
<path d="M 34.70 63.12 C 35.43 67.06 32.02 70.99 30.79 74.73 C 30.13 71.52 27.42 71.45 25.00 70.01 C 22.51 68.98 20.75 67.14 17.92 67.86 C 19.71 65.00 20.86 60.63 23.71 58.74 C 27.59 56.01 33.88 58.37 34.70 63.12 Z" fill="#005aa1" />
<path d="M 139.91 58.18 C 141.79 59.17 143.72 60.55 143.22 62.99 C 143.31 67.15 140.42 69.21 139.06 73.00 C 140.21 74.94 141.02 76.14 143.21 76.97 C 143.04 77.75 142.32 78.08 141.04 77.95 C 137.85 76.87 138.25 73.58 134.40 73.31 C 133.90 73.91 133.39 74.51 132.88 75.10 C 133.21 76.08 133.52 77.05 133.84 78.03 C 132.79 77.82 131.80 77.49 130.86 77.04 C 131.37 75.53 131.83 74.02 132.24 72.48 C 130.54 72.21 128.88 71.85 127.24 71.33 C 126.87 72.23 126.53 73.14 126.20 74.05 C 126.07 75.80 128.76 76.75 129.98 77.69 C 126.98 78.71 126.26 77.35 124.20 75.63 C 124.19 74.64 124.18 73.65 124.17 72.66 C 122.67 73.57 121.14 74.43 119.56 75.22 C 119.56 76.21 119.56 77.19 119.56 78.18 C 118.42 77.70 117.68 76.98 117.35 76.01 C 115.17 76.18 111.95 76.98 110.94 74.32 C 113.11 74.12 113.78 74.26 115.57 75.62 C 115.51 73.66 115.04 71.40 115.56 69.48 C 117.63 66.60 120.75 66.86 124.01 65.38 C 126.93 65.45 129.82 65.29 132.70 64.73 C 135.58 62.51 135.50 58.78 139.91 58.18 Z" fill="#010100" />
<path d="M 24.94 59.71 C 28.35 58.87 33.10 61.32 33.71 64.98 C 33.80 67.19 32.89 69.36 31.17 70.75 C 27.44 68.97 23.68 67.19 20.03 65.26 C 21.27 62.92 22.16 60.54 24.94 59.71 Z" fill="#ffffff" />
<path d="M 139.16 60.37 C 140.72 60.30 142.40 62.66 140.05 63.27 C 137.73 63.82 137.59 61.29 139.16 60.37 Z" fill="#db2f36" />
<path d="M 180.79 65.24 C 182.71 67.44 182.34 69.79 183.55 72.51 C 182.11 73.04 180.67 73.56 179.24 74.10 C 180.46 72.39 182.18 71.33 181.74 68.96 C 181.54 66.23 178.63 64.17 175.98 64.60 C 172.39 65.07 168.06 67.86 168.84 72.03 C 169.74 74.84 171.90 75.52 174.22 76.85 C 170.04 76.80 167.03 73.28 167.47 69.15 C 167.86 62.90 177.01 60.50 180.79 65.24 Z" fill="#005aa1" />
<path d="M 121.95 67.30 C 119.86 69.82 120.08 73.00 117.98 75.56 C 117.31 75.11 116.63 74.65 115.96 74.20 C 116.01 72.69 115.57 70.78 116.51 69.51 C 118.02 67.90 119.87 67.68 121.95 67.30 Z" fill="#db2f36" />
<path d="M 46.67 69.32 C 64.51 69.41 82.35 69.35 100.18 69.34 C 100.18 71.44 100.18 73.54 100.19 75.63 C 107.55 75.82 114.60 79.03 119.19 84.83 C 122.78 89.13 124.55 94.59 124.66 100.15 C 124.55 106.01 122.80 110.90 119.21 115.53 C 132.81 115.56 146.42 115.53 160.02 115.54 C 158.66 121.01 156.44 126.20 153.65 131.08 C 135.84 131.03 118.00 131.23 100.20 130.98 C 100.20 128.90 100.19 126.82 100.18 124.74 C 94.55 124.44 89.22 122.83 84.83 119.20 C 79.11 114.65 75.67 107.49 75.70 100.18 C 75.66 94.50 77.75 89.28 81.09 84.76 C 67.51 84.84 53.93 84.69 40.35 84.84 C 41.74 79.41 43.85 74.16 46.67 69.32 Z" fill="#ffffff" />
<path d="M 30.39 75.89 C 29.98 77.25 29.60 78.63 29.25 80.01 C 27.38 78.89 25.60 79.37 23.55 79.44 C 23.08 80.91 22.71 82.38 22.44 83.90 C 23.68 84.67 24.92 85.44 26.16 86.22 C 26.75 85.94 27.34 85.66 27.93 85.37 C 27.62 86.60 27.30 87.83 27.01 89.06 C 24.24 84.49 17.61 82.98 14.06 78.98 C 18.81 76.46 25.95 79.04 30.39 75.89 Z" fill="#005aa1" />
<path d="M 184.81 76.31 L 185.01 75.97 C 185.35 77.65 185.74 79.32 186.16 80.99 C 185.47 80.65 184.78 80.32 184.10 79.98 C 180.31 80.90 176.17 81.30 172.61 82.88 C 173.10 84.60 173.51 86.34 173.91 88.08 C 174.92 88.53 175.93 88.97 176.94 89.41 C 175.75 89.40 174.56 89.38 173.37 89.37 C 172.34 85.99 171.90 82.49 170.89 79.11 C 171.58 79.53 172.26 79.95 172.95 80.38 C 176.59 79.50 180.31 78.87 183.89 77.81 C 184.21 77.32 184.51 76.81 184.81 76.31 Z" fill="#005aa1" />
<path d="M 97.50 77.76 C 108.68 76.38 119.52 84.02 122.02 94.99 C 124.58 105.60 118.93 116.61 108.98 120.91 C 100.59 124.59 90.36 122.59 84.00 116.00 C 78.00 110.02 75.97 100.78 78.74 92.80 C 81.52 84.69 88.97 78.69 97.50 77.76 Z" fill="#010100" />
<path d="M 20.20 79.73 C 20.96 79.70 21.72 79.67 22.48 79.64 C 22.11 80.83 21.74 82.02 21.37 83.21 C 19.73 82.18 18.11 81.11 16.52 80.00 C 17.75 79.90 18.97 79.81 20.20 79.73 Z" fill="#ffffff" />
<path d="M 95.90 79.56 C 98.71 79.08 101.34 79.13 104.14 79.53 C 103.71 82.07 103.21 84.60 102.69 87.12 C 100.92 87.13 99.15 87.10 97.38 87.03 C 96.87 84.54 96.35 82.06 95.90 79.56 Z" fill="#ebb300" />
<path d="M 105.56 79.97 C 107.71 80.42 109.54 81.35 111.41 82.46 C 111.87 84.02 112.35 85.57 112.83 87.12 C 110.88 87.77 108.92 88.38 106.98 89.03 C 106.01 88.50 105.04 87.98 104.06 87.47 C 104.64 84.99 105.13 82.48 105.56 79.97 Z" fill="#ebb300" />
<path d="M 91.09 81.11 C 92.20 80.70 93.31 80.29 94.41 79.88 C 94.94 82.43 95.47 84.97 96.05 87.50 C 92.85 90.09 90.67 87.95 87.31 87.14 C 88.21 84.35 88.06 82.33 91.09 81.11 Z" fill="#ebb300" />
<path d="M 86.76 83.86 C 86.26 88.52 82.23 90.73 81.04 94.94 C 82.07 98.96 81.77 101.88 81.04 105.88 C 82.76 109.87 86.24 112.02 86.77 116.54 C 84.12 114.27 82.05 111.51 80.66 108.31 C 77.13 99.76 79.59 89.73 86.76 83.86 Z" fill="#ebb300" />
<path d="M 40.35 84.84 C 53.93 84.69 67.51 84.84 81.09 84.76 C 77.75 89.28 75.66 94.50 75.70 100.18 C 63.27 100.16 50.84 100.27 38.42 100.12 C 38.44 94.91 39.07 89.89 40.35 84.84 Z" fill="#005aa1" />
<path d="M 113.39 83.85 C 114.21 84.63 115.02 85.42 115.82 86.22 C 123.65 95.02 122.56 109.06 113.37 116.45 C 113.95 112.05 117.21 109.85 119.13 105.93 C 118.81 103.70 118.14 101.26 118.41 99.00 C 118.50 97.43 119.26 95.66 118.90 94.12 C 117.76 91.78 115.98 89.60 114.43 87.53 C 114.06 86.31 113.71 85.09 113.39 83.85 Z" fill="#ebb300" />
<path d="M 86.77 88.52 C 88.97 88.94 91.82 90.70 94.00 90.10 C 97.25 88.21 101.94 87.86 105.26 89.72 C 107.49 91.24 110.99 89.00 113.35 88.47 C 114.76 90.65 118.12 93.66 117.50 96.39 C 112.06 94.85 106.62 94.65 101.00 94.54 C 94.74 94.56 88.73 94.72 82.66 96.35 C 81.93 93.73 85.36 90.59 86.77 88.52 Z" fill="#ebb300" />
<path d="M 187.46 89.00 C 187.54 90.68 187.64 92.37 187.77 94.05 C 187.18 93.60 186.58 93.15 185.98 92.71 C 182.78 92.82 179.45 92.74 176.30 93.34 C 172.72 94.52 174.35 101.22 177.96 100.60 C 181.18 100.27 185.40 101.03 188.07 99.03 C 188.10 100.46 188.15 101.89 188.21 103.32 C 187.50 102.80 186.76 102.45 185.98 102.28 C 182.73 102.29 179.44 102.50 176.19 102.71 C 175.30 102.81 174.51 103.62 173.74 104.06 C 173.74 102.31 173.41 101.52 174.88 100.28 C 172.58 97.67 172.19 93.44 175.59 91.58 C 178.85 90.58 182.66 91.03 186.05 90.57 C 186.53 90.05 186.99 89.53 187.46 89.00 Z" fill="#005aa1" />
<path d="M 12.60 90.32 C 13.39 90.12 14.18 89.94 14.98 89.78 C 14.45 90.46 13.93 91.14 13.40 91.81 C 13.29 93.43 13.19 95.05 13.08 96.68 C 15.04 96.92 16.90 97.07 18.88 97.01 C 19.03 95.67 19.20 94.32 19.38 92.98 C 18.92 92.39 18.47 91.80 18.02 91.20 C 18.98 91.21 19.95 91.21 20.92 91.21 C 20.09 93.17 19.75 95.09 19.58 97.21 C 21.53 97.34 23.48 97.46 25.43 97.58 C 25.75 95.81 25.85 94.05 25.85 92.25 C 25.22 91.47 24.60 90.68 23.98 89.89 C 24.94 90.25 25.89 90.61 26.85 90.97 C 26.65 94.33 26.46 97.69 26.30 101.06 L 24.45 99.60 C 20.97 99.18 17.45 99.15 13.97 98.76 C 13.27 99.17 12.56 99.58 11.86 99.99 C 12.42 96.78 12.34 93.55 12.60 90.32 Z" fill="#005aa1" />
<path d="M 99.01 96.07 C 104.85 96.10 111.30 96.09 116.93 97.77 C 116.90 99.41 116.87 101.05 116.86 102.68 C 111.29 104.09 105.72 104.25 100.00 104.34 C 94.29 104.25 88.75 104.07 83.20 102.66 C 83.19 101.06 83.17 99.46 83.12 97.86 C 88.05 96.19 93.85 96.19 99.01 96.07 Z" fill="#ebb300" />
<path d="M 38.42 100.12 C 50.84 100.27 63.27 100.16 75.70 100.18 C 75.67 107.49 79.11 114.65 84.83 119.20 C 89.22 122.83 94.55 124.44 100.18 124.74 C 100.19 126.82 100.20 128.90 100.20 130.98 C 100.18 136.12 100.18 141.25 100.19 146.39 C 100.18 151.55 100.18 156.71 100.21 161.87 C 79.76 162.12 59.93 151.35 48.72 134.29 C 41.98 124.22 38.45 112.23 38.42 100.12 Z" fill="#db2f36" />
<path d="M 124.66 100.15 C 137.06 100.14 149.47 100.18 161.87 100.13 C 161.91 105.41 161.29 110.42 160.02 115.54 C 146.42 115.53 132.81 115.56 119.21 115.53 C 122.80 110.90 124.55 106.01 124.66 100.15 Z" fill="#005aa1" />
<path d="M 26.06 102.40 C 26.25 103.43 26.36 104.46 26.39 105.50 C 24.53 107.56 19.66 109.73 20.75 113.04 C 22.33 112.88 23.91 112.72 25.48 112.56 C 26.06 112.00 26.65 111.43 27.23 110.87 C 27.41 112.57 27.62 114.26 27.87 115.96 C 27.30 115.46 26.73 114.97 26.15 114.48 C 22.08 115.30 17.10 114.83 13.49 116.98 C 13.27 115.04 12.91 113.10 12.75 111.15 C 12.65 109.03 13.84 107.11 15.97 106.58 C 17.96 106.44 18.64 107.48 19.92 108.71 C 21.32 107.18 22.89 105.87 24.45 104.52 C 25.00 103.82 25.53 103.11 26.06 102.40 Z" fill="#005aa1" />
<path d="M 82.77 103.99 C 88.58 105.67 94.99 105.78 101.00 105.84 C 106.37 105.69 112.16 105.54 117.32 103.96 C 118.43 106.50 114.62 109.85 113.33 111.90 C 111.19 111.36 108.36 109.71 106.15 110.21 C 103.01 112.11 98.48 112.50 95.20 110.78 C 92.70 109.03 89.41 111.29 86.77 111.89 C 85.53 109.85 81.68 106.50 82.77 103.99 Z" fill="#ebb300" />
<path d="M 173.78 105.86 C 174.34 106.43 174.90 107.00 175.47 107.55 C 179.01 108.27 182.61 108.70 186.15 109.40 C 186.77 108.94 187.38 108.49 188.00 108.03 C 187.32 110.77 187.58 115.35 185.11 117.16 C 182.77 118.54 180.91 117.36 180.01 114.98 C 178.31 117.12 176.01 118.44 173.64 116.34 C 171.47 113.70 173.60 108.98 173.78 105.86 Z" fill="#005aa1" />
<path d="M 0.00 106.91 C 0.24 107.94 0.47 108.96 0.68 109.99 C 2.37 126.84 8.27 143.12 17.92 157.04 C 29.58 173.99 46.58 187.09 65.91 194.12 C 74.50 197.38 83.41 198.83 92.48 200.00 L 0.00 200.00 L 0.00 106.91 Z" fill="#ffffff" />
<path d="M 17.01 108.61 C 19.81 109.15 19.65 110.96 20.23 113.21 C 18.04 113.52 15.85 113.78 13.65 113.99 C 13.29 111.20 13.80 108.85 17.01 108.61 Z" fill="#ffffff" />
<path d="M 200.00 108.18 L 200.00 200.00 L 108.04 200.00 C 120.29 198.56 132.23 195.88 143.34 190.35 C 163.79 180.66 180.66 163.79 190.35 143.34 C 195.88 132.28 198.52 120.38 200.00 108.18 Z" fill="#ffffff" />
<path d="M 173.69 109.76 C 175.98 109.53 178.12 109.99 180.33 110.49 C 179.68 112.97 179.15 115.39 175.99 115.11 C 172.98 114.32 173.47 112.28 173.69 109.76 Z" fill="#ffffff" />
<path d="M 180.66 110.51 C 182.74 110.76 184.78 111.13 186.82 111.61 C 186.64 114.07 184.74 116.80 182.05 115.24 C 180.17 114.13 180.74 112.34 180.66 110.51 Z" fill="#ffffff" />
<path d="M 90.19 112.25 C 91.17 111.97 92.15 111.68 93.14 111.40 C 94.14 111.80 95.11 112.31 96.05 112.92 C 95.45 115.45 94.97 118.00 94.37 120.52 C 92.43 119.80 90.62 118.97 88.81 117.99 C 88.26 116.39 87.82 114.76 87.39 113.13 C 88.32 112.84 89.25 112.55 90.19 112.25 Z" fill="#ebb300" />
<path d="M 106.93 111.40 C 108.99 111.90 110.94 112.52 112.86 113.43 C 112.30 114.95 111.88 116.60 111.11 118.03 C 109.49 119.12 107.47 119.81 105.66 120.52 C 105.15 118.01 104.63 115.50 104.07 113.00 C 104.90 112.31 105.85 111.78 106.93 111.40 Z" fill="#ebb300" />
<path d="M 97.40 113.20 C 99.16 113.20 100.92 113.20 102.68 113.20 C 103.23 115.73 103.73 118.27 104.07 120.85 C 101.50 121.05 98.30 121.56 95.87 120.53 C 96.42 118.10 96.92 115.65 97.40 113.20 Z" fill="#ebb300" />
<path d="M 67.08 116.31 C 68.11 116.24 69.15 116.19 70.18 116.16 C 70.55 117.52 70.84 118.89 71.07 120.28 C 70.37 120.44 69.66 120.61 68.96 120.78 C 71.09 122.08 71.79 122.24 74.00 121.05 C 77.21 119.35 80.02 120.32 82.70 122.41 C 82.90 125.63 82.80 128.13 81.18 130.99 L 79.87 129.99 C 81.26 127.46 82.14 125.64 81.14 122.69 C 79.78 122.25 78.39 121.36 76.97 121.61 C 74.40 122.28 72.48 123.78 69.71 123.29 L 69.37 124.80 C 71.92 123.81 76.17 122.70 78.61 124.41 C 80.90 126.53 79.09 129.55 77.97 131.78 C 79.18 131.66 80.39 131.56 81.59 131.46 C 80.17 134.00 78.00 134.90 78.31 138.16 C 72.08 134.44 64.98 134.44 58.74 138.15 C 58.96 134.98 56.88 133.98 55.49 131.50 C 56.69 131.57 57.89 131.65 59.08 131.75 C 57.97 129.59 56.09 126.44 58.43 124.44 C 60.72 122.59 62.89 124.51 65.40 123.25 C 61.77 122.25 59.49 120.60 55.85 122.70 C 55.60 123.86 55.46 125.03 55.44 126.19 C 55.66 127.99 58.29 129.90 55.87 131.05 C 54.29 128.09 54.07 125.71 54.30 122.40 C 56.66 120.86 58.66 119.52 61.61 120.48 C 64.11 121.42 65.54 122.80 68.03 120.78 C 67.34 120.61 66.65 120.45 65.95 120.29 C 66.27 119.12 66.12 117.16 67.08 116.31 Z" fill="#010100" />
<path d="M 66.38 123.52 C 66.39 123.55 66.39 123.55 66.38 123.52 Z" fill="#db2f36" />
<path d="M 67.58 131.17 C 67.58 132.07 67.57 132.98 67.57 133.88 C 66.69 133.89 65.80 133.89 64.91 133.89 L 64.51 131.63 C 65.53 131.48 66.56 131.32 67.58 131.17 Z" fill="#db2f36" />
<path d="M 69.40 131.26 C 70.46 131.35 71.52 131.45 72.57 131.58 C 72.40 132.35 72.23 133.12 72.06 133.89 C 71.19 133.88 70.32 133.87 69.45 133.87 C 69.42 133.00 69.40 132.13 69.40 131.26 Z" fill="#db2f36" />
<path d="M 100.20 130.98 C 118.00 131.23 135.84 131.03 153.65 131.08 C 150.33 136.74 146.13 142.06 141.16 146.36 C 127.50 146.43 113.85 146.36 100.19 146.39 C 100.18 141.25 100.18 136.12 100.20 130.98 Z" fill="#005aa1" />
<path d="M 62.90 132.01 C 62.93 134.72 63.25 134.46 60.57 135.60 C 60.13 134.81 59.69 134.03 59.25 133.24 C 60.45 132.78 61.66 132.36 62.90 132.01 Z" fill="#db2f36" />
<path d="M 74.14 132.06 C 75.37 132.35 76.57 132.72 77.77 133.08 C 77.34 133.93 76.90 134.77 76.47 135.61 C 73.86 134.47 73.99 134.79 74.14 132.06 Z" fill="#db2f36" />
<path d="M 100.19 146.39 C 113.85 146.36 127.50 146.43 141.16 146.36 C 130.00 156.33 115.21 162.05 100.21 161.87 C 100.18 156.71 100.18 151.55 100.19 146.39 Z" fill="#ffffff" />
<path d="M 60.23 162.29 C 63.00 164.17 66.05 165.50 68.88 167.25 C 68.79 168.07 68.44 168.62 67.86 168.90 C 67.06 166.41 64.72 166.12 62.70 164.84 C 61.73 166.55 60.78 168.28 59.86 170.02 C 62.05 170.99 63.39 172.59 65.91 171.50 C 65.23 172.63 64.57 173.77 63.93 174.93 C 63.62 172.11 61.45 171.97 59.37 170.82 C 58.44 172.48 57.57 174.16 56.74 175.87 C 59.53 177.30 61.09 179.23 64.34 177.42 C 63.59 178.25 62.85 179.08 62.10 179.91 C 59.34 178.30 56.51 176.78 53.70 175.25 C 56.94 172.77 58.21 168.12 60.45 164.75 C 60.38 163.93 60.31 163.11 60.23 162.29 Z" fill="#005aa1" />
<path d="M 136.63 164.13 C 138.56 167.63 140.40 171.18 142.33 174.68 C 142.78 175.65 143.60 176.35 144.77 176.78 C 143.21 177.31 141.85 177.96 140.47 178.84 C 140.83 178.23 141.20 177.63 141.56 177.02 C 139.83 173.77 138.07 170.54 136.35 167.29 C 135.57 167.77 134.78 168.24 134.00 168.72 C 134.93 167.22 135.77 165.68 136.63 164.13 Z" fill="#005aa1" />
<path d="M 131.30 167.35 C 131.51 172.39 131.82 177.50 131.65 182.54 L 130.15 183.40 C 129.98 178.70 130.30 173.94 130.45 169.23 C 128.43 170.01 126.40 170.78 124.36 171.54 C 123.91 172.42 123.46 173.30 123.01 174.18 C 122.82 172.94 122.63 171.70 122.44 170.45 C 125.49 169.65 128.31 168.29 131.30 167.35 Z" fill="#005aa1" />
<path d="M 78.42 170.98 C 77.96 172.04 77.48 173.10 77.02 174.16 C 76.84 173.02 76.66 171.89 76.48 170.76 C 74.89 170.17 73.99 169.29 72.31 170.30 C 70.25 172.71 73.73 175.11 74.91 177.10 C 76.76 179.49 75.71 182.75 72.87 183.66 C 70.18 184.06 68.66 182.55 66.45 181.42 C 66.99 180.22 67.55 179.02 68.08 177.81 L 68.18 180.03 C 67.95 182.29 71.62 183.90 73.14 182.21 C 74.48 181.12 73.70 179.32 72.82 178.20 C 71.32 176.01 68.88 174.14 70.22 171.19 C 71.82 167.69 76.02 169.47 78.42 170.98 Z" fill="#005aa1" />
<path d="M 80.49 171.20 C 84.27 172.82 88.89 173.43 92.98 173.60 C 92.85 174.63 92.72 175.66 92.59 176.69 C 90.99 174.33 90.13 174.26 87.42 173.98 C 86.73 178.01 85.81 182.02 85.35 186.08 C 85.80 186.53 86.26 186.98 86.72 187.43 C 85.08 187.11 83.44 186.80 81.79 186.53 C 82.65 185.60 83.50 184.93 83.64 183.57 C 84.31 180.22 84.82 176.85 85.51 173.50 C 83.08 173.06 81.82 172.65 79.71 174.27 C 79.98 173.25 80.24 172.22 80.49 171.20 Z" fill="#005aa1" />
<path d="M 120.64 173.34 C 121.71 175.34 120.49 176.43 119.57 178.11 C 121.42 179.39 122.95 180.41 122.87 182.92 C 122.39 186.53 117.10 187.97 115.01 184.91 C 113.84 182.66 114.89 181.11 116.55 179.49 C 114.67 178.15 113.05 177.02 113.44 174.44 C 114.40 171.26 118.82 170.56 120.64 173.34 Z" fill="#005aa1" />
<path d="M 118.08 172.49 C 119.88 174.15 119.80 175.45 119.34 177.75 C 117.66 177.51 115.32 176.91 114.82 175.03 C 114.63 172.85 116.06 172.09 118.08 172.49 Z" fill="#ffffff" />
<path d="M 107.32 173.49 C 107.64 177.98 108.11 182.45 108.35 186.94 C 108.88 187.35 109.41 187.75 109.94 188.16 C 108.36 188.30 106.77 188.45 105.19 188.61 C 105.68 188.13 106.17 187.64 106.66 187.16 C 106.38 183.60 106.03 180.04 105.85 176.47 L 103.26 176.85 C 103.89 176.31 104.52 175.78 105.15 175.26 C 105.87 174.67 106.60 174.08 107.32 173.49 Z" fill="#005aa1" />
<path d="M 117.04 179.77 C 118.76 179.90 121.06 181.09 121.36 182.95 C 121.44 185.32 118.83 186.40 117.12 184.96 C 115.36 183.68 115.98 181.32 117.04 179.77 Z" fill="#ffffff" />
<path d="M 92.47 186.65 C 94.53 186.58 94.49 188.36 92.98 189.54 C 91.61 188.66 90.79 187.76 92.47 186.65 Z" fill="#005aa1" />
</svg>