<?xml version="1.0" encoding="UTF-8" standalone="no"?>
<!DOCTYPE svg PUBLIC "-//W3C//DTD SVG 1.1//EN" "http://www.w3.org/Graphics/SVG/1.1/DTD/svg11.dtd">
<svg xmlns="http://www.w3.org/2000/svg" version="1.1" viewBox="0 0 200 200" width="200.0pt" height="200.0pt">
<path d="M 0.00 0.00 L 200.00 0.00 L 200.00 200.00 L 0.00 200.00 L 0.00 0.00 Z" fill="#ffffff" />
<path d="M 27.07 3.50 C 75.50 3.32 124.50 3.51 172.99 3.41 C 173.07 49.20 172.97 95.01 173.05 140.80 C 168.29 139.42 163.59 138.08 158.63 137.70 C 158.71 135.03 159.06 132.41 158.75 129.73 C 158.50 128.33 159.04 127.32 159.57 126.08 C 159.26 125.53 158.95 124.98 158.64 124.43 C 159.11 123.96 159.58 123.49 160.05 123.02 C 159.39 122.07 158.73 121.12 158.07 120.18 C 158.98 119.96 159.90 119.75 160.82 119.54 C 157.96 117.21 154.34 115.34 155.08 111.00 C 156.12 107.26 158.22 104.56 157.65 100.43 C 158.98 100.58 160.36 100.83 161.69 100.71 C 163.54 99.62 164.22 98.14 164.32 96.03 C 164.84 90.63 162.06 86.21 162.28 80.92 C 162.24 78.08 163.28 75.71 164.20 73.08 C 163.17 74.15 162.15 75.22 161.12 76.28 C 161.24 75.31 161.36 74.34 161.48 73.37 C 161.06 72.93 160.65 72.48 160.23 72.04 C 161.93 68.65 162.42 66.79 161.64 62.96 C 160.91 65.30 161.09 67.89 158.98 69.42 C 157.05 63.70 159.31 56.76 161.29 51.30 C 162.84 47.70 164.16 44.15 168.91 45.04 C 169.81 50.77 168.06 55.73 165.85 60.89 C 163.98 65.27 165.85 68.81 166.86 73.06 C 167.80 75.96 166.50 79.43 166.03 82.38 C 169.32 79.68 171.03 77.10 170.68 72.70 C 171.08 72.19 171.49 71.69 171.89 71.19 C 170.68 69.84 169.05 68.50 168.29 66.83 C 168.04 65.37 167.99 63.87 167.90 62.39 C 168.61 62.44 169.32 62.49 170.03 62.54 C 171.74 57.20 172.64 51.82 171.66 46.24 C 170.95 42.82 166.06 40.84 163.41 43.41 C 160.89 45.63 159.59 49.47 158.56 52.58 C 157.06 57.78 155.36 63.59 156.05 69.01 C 156.84 76.09 159.14 83.39 160.72 90.15 C 161.29 92.43 161.09 94.66 160.86 96.96 C 158.27 97.19 156.38 96.21 155.29 93.83 C 152.79 87.15 150.00 81.09 149.47 73.86 C 148.96 70.33 149.82 66.86 149.60 63.36 C 148.14 59.67 145.54 57.31 146.12 52.99 C 146.85 54.31 147.55 55.64 148.24 56.98 C 148.73 56.43 149.21 55.87 149.70 55.32 C 149.67 57.37 149.73 59.41 149.87 61.46 C 150.84 60.41 151.80 59.35 152.75 58.27 C 151.42 61.33 150.65 63.90 151.20 67.29 C 155.12 63.49 155.53 57.12 155.26 52.00 C 154.92 48.86 155.16 45.06 151.71 43.63 C 149.83 42.88 148.87 41.75 147.71 40.12 C 148.21 39.46 148.72 38.80 149.22 38.14 C 149.48 39.34 149.74 40.54 150.00 41.73 C 150.69 41.62 151.37 41.50 152.05 41.39 C 152.81 42.21 153.56 43.04 154.32 43.86 C 156.20 40.37 155.95 37.22 155.41 33.44 C 156.11 32.57 156.81 31.70 157.51 30.84 C 155.43 29.16 157.17 28.38 157.85 26.49 L 156.14 25.60 C 156.75 24.34 157.36 23.09 157.97 21.84 C 156.56 22.41 155.13 22.97 153.72 23.53 C 153.18 23.12 152.63 22.73 152.06 22.37 C 149.92 22.90 147.88 23.87 145.83 24.67 C 146.80 23.67 147.77 22.67 148.73 21.66 C 145.99 21.09 143.02 20.20 140.21 20.35 C 138.60 20.99 137.22 22.31 135.84 23.33 C 133.66 22.40 131.45 21.63 129.19 20.96 C 128.96 22.64 128.73 24.32 128.49 26.01 C 129.88 27.25 131.23 28.48 132.67 29.66 C 129.35 28.78 124.77 26.73 124.03 22.97 C 123.85 19.02 126.01 16.76 129.09 14.72 C 126.75 15.36 124.61 16.06 122.97 17.96 C 121.14 20.02 120.93 22.44 121.03 25.08 C 119.68 23.09 118.72 21.52 115.99 21.75 C 114.38 21.47 113.67 23.83 112.86 24.89 C 113.23 25.64 113.59 26.39 113.95 27.14 C 111.08 27.14 108.21 27.20 105.35 27.26 C 106.83 24.88 108.12 22.74 108.34 19.86 C 103.82 19.91 99.30 19.89 94.78 19.86 C 95.00 22.45 96.19 24.23 97.34 26.44 C 97.85 30.18 97.33 34.15 97.52 37.94 C 96.85 37.93 96.18 37.91 95.51 37.90 C 95.47 35.48 95.40 33.06 95.39 30.64 L 96.01 29.83 C 96.48 29.11 98.13 27.72 96.68 27.14 C 95.02 27.07 93.36 27.07 91.69 27.15 C 92.01 25.47 92.34 23.80 92.66 22.12 C 90.86 23.59 89.45 24.83 87.04 25.11 C 87.25 24.54 87.45 23.97 87.66 23.40 C 81.17 23.15 74.52 20.59 68.16 21.62 C 67.44 17.88 66.59 14.40 63.98 11.48 C 63.77 14.02 63.86 16.49 64.15 19.02 C 64.72 18.01 65.27 16.99 65.83 15.96 C 65.85 18.24 65.85 20.52 65.84 22.80 C 64.85 23.34 63.86 23.88 62.87 24.41 C 61.75 28.24 60.70 31.85 61.36 35.90 C 62.01 44.32 66.18 53.53 62.02 61.59 C 58.68 58.03 60.32 53.30 58.13 48.86 C 59.10 46.11 60.28 43.83 59.26 40.86 C 57.69 35.78 56.24 30.83 55.53 25.54 C 52.36 30.33 52.93 35.30 53.53 40.72 C 52.72 40.70 51.91 40.67 51.10 40.65 C 53.50 47.98 56.12 55.25 58.43 62.61 C 59.22 65.00 59.24 67.38 59.06 69.87 C 54.23 69.01 52.58 65.23 50.89 61.13 C 49.92 58.40 48.73 55.69 48.08 52.86 C 48.19 50.97 48.63 49.11 48.74 47.19 C 46.47 43.65 43.03 40.87 40.45 37.53 C 37.03 33.63 35.09 28.95 32.04 24.80 C 31.08 28.77 32.56 32.13 32.89 36.00 C 32.60 39.15 30.67 41.30 31.38 44.56 C 32.00 47.23 31.11 49.47 30.39 52.00 C 31.34 53.29 32.38 54.61 33.12 56.02 C 33.46 57.93 32.38 60.11 31.94 61.98 C 33.41 63.12 35.11 64.18 36.30 65.62 C 36.75 66.94 37.01 68.32 37.33 69.67 C 39.33 71.15 40.61 73.01 42.04 74.99 C 43.62 76.44 45.56 77.53 47.36 78.68 C 50.24 80.60 53.90 80.10 56.90 82.14 C 58.34 83.03 59.14 84.35 60.13 85.67 C 56.94 83.40 54.12 81.43 50.10 80.98 C 46.17 84.85 42.88 89.47 39.95 94.13 C 37.97 93.68 35.99 93.23 34.01 92.77 C 35.22 89.59 34.78 85.77 39.26 85.84 C 38.00 87.01 36.71 88.15 35.43 89.28 C 39.37 91.55 42.88 88.43 41.73 84.30 C 40.17 81.24 35.99 84.08 33.80 84.91 C 33.28 83.04 32.98 81.24 32.89 79.30 C 33.95 79.76 35.01 80.23 36.07 80.70 C 36.69 78.47 37.29 76.23 37.89 73.99 C 35.04 74.55 32.21 74.96 29.33 75.24 C 31.39 77.89 30.03 80.01 29.94 83.02 C 29.88 84.95 31.24 85.42 32.44 86.59 C 31.09 89.19 30.66 90.67 31.28 93.64 C 29.64 95.45 28.09 97.30 26.88 99.43 C 26.92 70.95 26.88 42.47 26.90 14.00 C 26.93 10.52 26.71 6.96 27.07 3.50 Z" fill="#8b2e45" />
<path d="M 63.98 11.48 C 66.59 14.40 67.44 17.88 68.16 21.62 C 74.52 20.59 81.17 23.15 87.66 23.40 C 87.45 23.97 87.25 24.54 87.04 25.11 C 85.81 25.68 85.51 26.69 84.95 27.83 C 82.87 27.98 80.79 28.01 78.72 28.16 C 76.55 28.36 74.84 29.24 73.02 30.34 C 75.87 30.46 78.73 30.56 81.58 30.77 L 80.86 32.50 C 78.16 32.69 75.44 32.46 72.74 32.53 C 72.27 38.07 74.40 42.83 78.75 46.24 C 81.82 48.48 83.78 51.51 86.17 54.38 C 85.35 50.78 82.90 48.67 80.62 45.98 C 82.68 42.33 83.46 37.65 88.14 36.70 L 88.06 37.91 C 87.32 38.34 86.57 38.76 85.82 39.17 C 85.66 43.58 86.11 46.48 88.76 50.07 C 87.83 53.19 87.22 56.59 85.81 59.53 L 84.14 60.58 C 83.91 66.01 84.03 71.47 84.00 76.91 C 80.43 81.66 76.21 85.42 70.61 87.59 C 65.40 89.74 60.44 92.73 59.95 98.93 C 61.50 96.55 62.77 93.80 65.11 92.14 C 67.36 90.38 69.91 89.46 72.67 88.85 C 73.55 93.62 74.95 98.28 75.87 103.03 C 76.21 104.45 75.45 105.54 74.74 106.67 C 72.74 109.68 69.80 112.01 67.92 115.07 C 67.46 119.44 71.98 119.05 74.96 119.10 C 74.95 116.81 74.71 114.39 75.12 112.12 C 76.02 110.64 77.78 109.59 79.16 108.60 L 80.12 109.17 L 80.11 109.42 C 78.68 112.07 77.34 114.41 78.25 117.52 C 78.54 121.95 77.37 126.70 76.83 131.12 L 76.31 131.19 C 75.74 128.78 75.30 126.06 74.11 123.86 C 70.43 121.30 65.55 122.16 61.08 121.12 C 61.34 116.87 62.39 113.33 59.42 109.74 C 58.20 112.82 57.54 115.73 55.27 118.26 C 52.94 121.19 49.38 123.21 47.36 126.32 C 46.31 129.40 46.78 133.16 47.16 136.34 C 47.46 137.86 47.85 139.38 48.22 140.88 C 52.43 140.75 55.81 140.23 59.40 142.92 C 58.55 143.40 57.71 143.89 56.88 144.40 C 54.14 143.81 51.49 142.96 48.83 142.08 C 50.56 143.59 52.40 144.88 54.37 146.04 L 53.49 146.66 C 50.63 146.17 49.15 144.95 47.28 142.87 C 47.80 144.88 47.95 146.89 47.96 148.96 C 46.20 147.35 44.54 145.64 42.89 143.91 C 39.06 145.51 35.39 145.44 31.33 145.34 C 32.73 144.10 34.13 142.40 35.97 141.90 C 37.93 141.80 39.91 141.98 41.86 142.08 C 41.92 140.16 41.97 138.24 41.96 136.31 C 41.66 130.67 39.83 126.16 36.45 121.69 C 38.77 117.93 41.08 114.62 40.88 109.98 C 40.92 107.54 39.79 105.70 38.58 103.69 C 38.23 104.75 37.88 105.80 37.54 106.85 C 31.92 107.21 29.27 105.83 26.88 100.73 L 26.88 99.43 C 28.09 97.30 29.64 95.45 31.28 93.64 C 30.66 90.67 31.09 89.19 32.44 86.59 C 31.24 85.42 29.88 84.95 29.94 83.02 C 30.03 80.01 31.39 77.89 29.33 75.24 C 32.21 74.96 35.04 74.55 37.89 73.99 C 37.29 76.23 36.69 78.47 36.07 80.70 C 35.01 80.23 33.95 79.76 32.89 79.30 C 32.98 81.24 33.28 83.04 33.80 84.91 C 35.99 84.08 40.17 81.24 41.73 84.30 C 42.88 88.43 39.37 91.55 35.43 89.28 C 36.71 88.15 38.00 87.01 39.26 85.84 C 34.78 85.77 35.22 89.59 34.01 92.77 C 35.99 93.23 37.97 93.68 39.95 94.13 C 42.88 89.47 46.17 84.85 50.10 80.98 C 54.12 81.43 56.94 83.40 60.13 85.67 C 59.14 84.35 58.34 83.03 56.90 82.14 C 53.90 80.10 50.24 80.60 47.36 78.68 C 45.56 77.53 43.62 76.44 42.04 74.99 C 40.61 73.01 39.33 71.15 37.33 69.67 C 37.01 68.32 36.75 66.94 36.30 65.62 C 35.11 64.18 33.41 63.12 31.94 61.98 C 32.38 60.11 33.46 57.93 33.12 56.02 C 32.38 54.61 31.34 53.29 30.39 52.00 C 31.11 49.47 32.00 47.23 31.38 44.56 C 30.67 41.30 32.60 39.15 32.89 36.00 C 32.56 32.13 31.08 28.77 32.04 24.80 C 35.09 28.95 37.03 33.63 40.45 37.53 C 43.03 40.87 46.47 43.65 48.74 47.19 C 48.63 49.11 48.19 50.97 48.08 52.86 C 48.73 55.69 49.92 58.40 50.89 61.13 C 52.58 65.23 54.23 69.01 59.06 69.87 C 59.24 67.38 59.22 65.00 58.43 62.61 C 56.12 55.25 53.50 47.98 51.10 40.65 C 51.91 40.67 52.72 40.70 53.53 40.72 C 52.93 35.30 52.36 30.33 55.53 25.54 C 56.24 30.83 57.69 35.78 59.26 40.86 C 60.28 43.83 59.10 46.11 58.13 48.86 C 60.32 53.30 58.68 58.03 62.02 61.59 C 66.18 53.53 62.01 44.32 61.36 35.90 C 60.70 31.85 61.75 28.24 62.87 24.41 C 63.86 23.88 64.85 23.34 65.84 22.80 C 65.85 20.52 65.85 18.24 65.83 15.96 C 65.27 16.99 64.72 18.01 64.15 19.02 C 63.86 16.49 63.77 14.02 63.98 11.48 Z" fill="#977c4f" />
<path d="M 129.09 14.72 C 126.01 16.76 123.85 19.02 124.03 22.97 C 124.77 26.73 129.35 28.78 132.67 29.66 L 133.96 29.88 C 135.80 30.11 138.24 30.52 139.95 29.72 L 141.34 28.97 L 142.70 30.00 C 140.77 32.18 136.69 31.76 134.00 32.00 C 129.42 31.94 123.53 31.25 121.52 26.39 C 121.35 25.96 121.19 25.52 121.03 25.08 C 120.93 22.44 121.14 20.02 122.97 17.96 C 124.61 16.06 126.75 15.36 129.09 14.72 Z" fill="#ffffff" />
<path d="M 61.21 19.51 C 62.25 18.78 64.32 20.83 63.71 21.90 C 62.55 22.62 60.55 20.71 61.21 19.51 Z" fill="#925d4b" />
<path d="M 94.78 19.86 C 99.30 19.89 103.82 19.91 108.34 19.86 C 108.12 22.74 106.83 24.88 105.35 27.26 C 108.21 27.20 111.08 27.14 113.95 27.14 C 115.12 27.15 116.30 27.17 117.48 27.20 C 116.88 28.89 116.05 30.47 115.29 32.09 C 114.87 33.96 115.02 35.98 114.97 37.89 C 115.83 38.36 116.69 38.82 117.55 39.29 C 117.52 40.38 117.48 41.46 117.42 42.55 C 117.09 45.33 116.00 47.68 114.54 50.03 C 114.85 51.53 115.17 53.03 115.48 54.53 L 113.95 54.27 C 114.02 52.69 113.42 51.21 111.98 50.42 L 111.18 51.40 C 108.41 51.50 105.72 51.21 102.97 51.01 L 106.10 54.08 C 104.56 53.37 102.75 51.86 101.01 51.98 C 98.38 53.10 96.17 54.69 95.67 57.76 C 97.55 55.96 99.32 54.29 101.70 53.22 C 103.11 54.12 104.52 55.01 105.94 55.89 C 105.79 57.25 105.64 58.61 105.48 59.97 C 109.39 59.92 113.30 59.91 117.22 59.94 C 117.26 68.96 117.43 77.98 117.21 87.00 C 117.16 90.76 115.95 94.27 116.10 98.04 L 116.25 100.14 C 118.42 100.26 120.62 100.27 122.79 100.29 C 123.08 102.35 123.37 104.41 123.68 106.47 C 123.09 106.94 122.51 107.41 121.92 107.89 C 122.07 109.71 122.22 111.52 122.38 113.33 C 122.91 118.74 122.99 124.18 123.44 129.59 C 123.71 132.27 123.98 134.95 124.22 137.64 C 128.58 138.28 131.43 140.73 134.73 143.35 L 135.72 143.31 C 136.73 143.24 137.74 143.18 138.74 143.12 L 139.27 143.31 C 141.58 144.24 143.70 145.43 145.68 146.94 C 147.20 148.20 148.64 149.55 150.08 150.91 C 144.34 150.71 139.47 150.96 134.16 153.36 C 133.82 155.58 134.07 157.57 132.06 159.06 C 127.44 162.06 122.29 162.13 116.98 162.04 C 117.03 164.68 117.25 167.39 116.99 170.03 C 116.78 172.12 115.16 172.96 113.80 174.30 C 114.10 175.29 114.41 176.27 114.71 177.26 C 113.60 176.96 112.48 176.65 111.37 176.35 C 110.85 177.52 110.36 178.67 109.73 179.79 C 107.36 180.58 104.47 179.86 101.99 179.90 C 98.98 179.77 95.62 181.22 92.80 180.18 C 90.96 179.73 90.40 178.18 89.08 176.91 C 88.07 177.17 87.07 177.47 86.08 177.81 C 86.41 176.72 86.73 175.64 87.04 174.55 C 85.61 173.59 84.13 173.18 83.59 171.37 C 82.77 168.30 83.26 164.82 83.02 161.65 C 78.02 161.95 71.84 161.34 67.65 158.34 C 65.70 156.85 66.16 155.01 65.96 152.83 C 60.71 150.13 55.65 149.74 49.83 149.93 C 51.04 148.83 52.24 147.72 53.49 146.66 L 54.37 146.04 C 55.20 145.47 56.03 144.92 56.88 144.40 C 57.71 143.89 58.55 143.40 59.40 142.92 C 61.45 142.48 63.50 142.50 65.59 142.60 C 68.76 139.81 71.62 137.96 75.83 137.14 C 76.15 135.13 76.48 133.12 76.83 131.12 C 77.37 126.70 78.54 121.95 78.25 117.52 C 77.34 114.41 78.68 112.07 80.11 109.42 L 80.19 111.72 C 82.99 111.71 85.79 111.70 88.59 111.69 C 88.58 110.18 88.58 108.66 88.57 107.15 C 85.79 107.16 83.01 107.15 80.24 107.10 L 80.12 109.17 L 79.16 108.60 C 78.34 108.08 77.53 107.55 76.72 107.02 C 76.86 104.76 76.99 102.51 77.11 100.25 C 79.42 100.25 81.73 100.24 84.03 100.23 C 84.50 92.47 83.61 84.70 84.00 76.91 C 84.03 71.47 83.91 66.01 84.14 60.58 L 85.81 59.53 C 87.22 56.59 87.83 53.19 88.76 50.07 C 86.11 46.48 85.66 43.58 85.82 39.17 C 86.57 38.76 87.32 38.34 88.06 37.91 L 88.14 36.70 C 88.47 32.83 87.59 30.81 85.48 27.66 C 87.36 26.72 89.58 27.23 91.69 27.15 C 93.36 27.07 95.02 27.07 96.68 27.14 C 98.13 27.72 96.48 29.11 96.01 29.83 C 93.95 29.51 91.77 29.59 89.98 28.62 C 88.71 30.70 89.50 32.52 89.71 34.77 C 91.12 34.74 92.53 34.72 93.95 34.70 C 93.72 32.61 94.19 31.08 95.36 30.10 L 95.39 30.64 C 95.40 33.06 95.47 35.48 95.51 37.90 C 96.18 37.91 96.85 37.93 97.52 37.94 C 97.33 34.15 97.85 30.18 97.34 26.44 C 96.19 24.23 95.00 22.45 94.78 19.86 Z" fill="#000000" />
<path d="M 140.21 20.35 C 143.02 20.20 145.99 21.09 148.73 21.66 C 147.77 22.67 146.80 23.67 145.83 24.67 C 147.88 23.87 149.92 22.90 152.06 22.37 C 152.63 22.73 153.18 23.12 153.72 23.53 C 155.13 22.97 156.56 22.41 157.97 21.84 C 157.36 23.09 156.75 24.34 156.14 25.60 L 157.85 26.49 C 157.17 28.38 155.43 29.16 157.51 30.84 C 156.81 31.70 156.11 32.57 155.41 33.44 C 155.95 37.22 156.20 40.37 154.32 43.86 C 153.56 43.04 152.81 42.21 152.05 41.39 C 151.37 41.50 150.69 41.62 150.00 41.73 C 149.74 40.54 149.48 39.34 149.22 38.14 C 148.72 38.80 148.21 39.46 147.71 40.12 C 148.87 41.75 149.83 42.88 151.71 43.63 C 155.16 45.06 154.92 48.86 155.26 52.00 C 155.53 57.12 155.12 63.49 151.20 67.29 C 150.65 63.90 151.42 61.33 152.75 58.27 C 151.80 59.35 150.84 60.41 149.87 61.46 C 149.73 59.41 149.67 57.37 149.70 55.32 C 149.21 55.87 148.73 56.43 148.24 56.98 C 147.55 55.64 146.85 54.31 146.12 52.99 C 145.54 57.31 148.14 59.67 149.60 63.36 C 149.82 66.86 148.96 70.33 149.47 73.86 C 150.00 81.09 152.79 87.15 155.29 93.83 C 156.38 96.21 158.27 97.19 160.86 96.96 C 161.09 94.66 161.29 92.43 160.72 90.15 C 159.14 83.39 156.84 76.09 156.05 69.01 C 155.36 63.59 157.06 57.78 158.56 52.58 C 159.59 49.47 160.89 45.63 163.41 43.41 C 166.06 40.84 170.95 42.82 171.66 46.24 C 172.64 51.82 171.74 57.20 170.03 62.54 C 169.32 62.49 168.61 62.44 167.90 62.39 C 167.99 63.87 168.04 65.37 168.29 66.83 C 169.05 68.50 170.68 69.84 171.89 71.19 C 171.49 71.69 171.08 72.19 170.68 72.70 C 171.03 77.10 169.32 79.68 166.03 82.38 C 166.50 79.43 167.80 75.96 166.86 73.06 C 165.85 68.81 163.98 65.27 165.85 60.89 C 168.06 55.73 169.81 50.77 168.91 45.04 C 164.16 44.15 162.84 47.70 161.29 51.30 C 159.31 56.76 157.05 63.70 158.98 69.42 C 161.09 67.89 160.91 65.30 161.64 62.96 C 162.42 66.79 161.93 68.65 160.23 72.04 C 160.65 72.48 161.06 72.93 161.48 73.37 C 161.36 74.34 161.24 75.31 161.12 76.28 C 162.15 75.22 163.17 74.15 164.20 73.08 C 163.28 75.71 162.24 78.08 162.28 80.92 C 162.06 86.21 164.84 90.63 164.32 96.03 C 164.22 98.14 163.54 99.62 161.69 100.71 C 160.36 100.83 158.98 100.58 157.65 100.43 C 158.22 104.56 156.12 107.26 155.08 111.00 C 154.34 115.34 157.96 117.21 160.82 119.54 C 159.90 119.75 158.98 119.96 158.07 120.18 C 158.73 121.12 159.39 122.07 160.05 123.02 C 159.58 123.49 159.11 123.96 158.64 124.43 C 158.95 124.98 159.26 125.53 159.57 126.08 C 159.04 127.32 158.50 128.33 158.75 129.73 C 159.06 132.41 158.71 135.03 158.63 137.70 L 157.64 138.21 C 157.23 139.31 156.84 140.40 156.46 141.51 C 152.65 142.97 149.08 144.66 145.68 146.94 C 143.70 145.43 141.58 144.24 139.27 143.31 C 140.49 142.90 141.66 142.31 142.76 141.54 C 141.02 140.19 139.35 141.22 138.74 143.12 C 137.74 143.18 136.73 143.24 135.72 143.31 C 136.67 142.21 137.49 140.11 138.97 139.73 C 142.47 139.32 145.95 140.52 149.01 138.95 L 149.00 137.21 C 148.76 132.70 147.22 128.14 144.36 124.61 C 141.74 121.21 139.02 118.54 138.54 114.02 C 138.00 109.71 140.01 106.38 141.49 102.55 C 143.25 98.24 143.45 93.90 143.86 89.33 C 143.34 89.85 142.82 90.38 142.30 90.91 C 140.55 88.24 138.96 85.64 136.43 83.61 C 133.31 81.02 129.71 78.09 128.51 74.03 C 128.23 72.76 129.11 71.45 129.52 70.24 C 128.76 70.43 128.01 70.62 127.25 70.81 C 126.62 70.47 126.00 70.12 125.37 69.77 C 124.96 70.05 124.55 70.33 124.14 70.61 C 122.95 69.46 121.76 68.32 120.56 67.17 C 119.98 67.95 119.39 68.72 118.80 69.49 C 116.80 66.46 117.46 63.40 117.22 59.94 C 113.30 59.91 109.39 59.92 105.48 59.97 C 105.64 58.61 105.79 57.25 105.94 55.89 L 106.10 54.08 L 102.97 51.01 C 105.72 51.21 108.41 51.50 111.18 51.40 C 111.89 52.47 112.81 53.64 113.95 54.27 C 116.51 55.76 119.15 55.65 122.01 56.04 C 125.26 56.35 128.47 56.93 131.66 57.62 C 130.82 53.70 133.81 51.79 134.08 47.98 C 133.18 49.61 132.44 51.23 130.99 52.46 C 131.06 49.72 131.35 47.08 132.58 44.59 C 134.00 41.47 136.78 39.28 139.20 36.95 C 135.82 37.30 132.44 37.60 129.04 37.80 C 128.62 34.89 131.61 33.44 134.11 33.59 C 137.06 33.83 140.35 31.31 141.92 34.83 C 142.91 32.39 143.48 30.59 142.97 27.88 C 142.43 28.25 141.89 28.61 141.34 28.97 L 139.95 29.72 C 137.61 28.15 136.24 28.40 133.96 29.88 L 132.67 29.66 C 131.23 28.48 129.88 27.25 128.49 26.01 C 128.73 24.32 128.96 22.64 129.19 20.96 C 131.45 21.63 133.66 22.40 135.84 23.33 C 137.22 22.31 138.60 20.99 140.21 20.35 Z" fill="#977c4f" />
<path d="M 95.90 20.98 C 96.74 21.47 97.57 21.97 98.39 22.48 C 98.93 21.94 99.48 21.40 100.02 20.86 C 100.55 21.58 101.08 22.31 101.61 23.04 C 102.11 22.26 102.60 21.47 103.10 20.69 C 103.54 21.42 103.98 22.15 104.42 22.88 C 105.35 22.17 106.28 21.47 107.23 20.77 C 106.37 23.66 105.46 25.47 102.00 25.17 C 97.92 25.31 97.24 24.57 95.90 20.98 Z" fill="#7f8f9c" />
<path d="M 92.66 22.12 C 92.34 23.80 92.01 25.47 91.69 27.15 C 89.58 27.23 87.36 26.72 85.48 27.66 L 85.57 29.22 C 82.76 29.47 79.95 29.66 77.14 29.82 C 77.67 29.27 78.19 28.71 78.72 28.16 C 80.79 28.01 82.87 27.98 84.95 27.83 C 85.51 26.69 85.81 25.68 87.04 25.11 C 89.45 24.83 90.86 23.59 92.66 22.12 Z" fill="#faf6f7" />
<path d="M 115.99 21.75 C 118.72 21.52 119.68 23.09 121.03 25.08 C 121.19 25.52 121.35 25.96 121.52 26.39 C 120.77 29.52 120.61 32.56 122.85 35.14 C 125.49 37.94 129.21 39.83 132.36 42.02 C 131.00 46.05 130.29 50.10 129.85 54.31 C 127.95 53.31 126.22 52.20 124.56 50.83 C 124.92 50.29 125.27 49.75 125.63 49.20 C 124.37 48.81 123.11 48.41 121.86 48.00 C 120.87 45.77 119.15 44.22 117.42 42.55 C 117.48 41.46 117.52 40.38 117.55 39.29 C 116.69 38.82 115.83 38.36 114.97 37.89 C 115.02 35.98 114.87 33.96 115.29 32.09 C 116.05 30.47 116.88 28.89 117.48 27.20 C 116.30 27.17 115.12 27.15 113.95 27.14 C 113.59 26.39 113.23 25.64 112.86 24.89 C 113.67 23.83 114.38 21.47 115.99 21.75 Z" fill="#977c4f" />
<path d="M 111.32 23.13 C 113.58 23.65 111.37 27.12 109.64 25.94 C 109.07 24.93 110.32 23.35 111.32 23.13 Z" fill="#96774e" />
<path d="M 138.39 23.52 C 139.57 22.64 140.70 22.51 141.79 23.13 C 142.92 25.38 137.06 26.07 138.39 23.52 Z" fill="#8c3546" />
<path d="M 76.89 24.05 C 76.52 24.62 76.15 25.19 75.78 25.76 C 74.11 25.45 72.44 25.13 70.79 24.74 C 72.03 22.93 75.04 24.00 76.89 24.05 Z" fill="#8d3947" />
<path d="M 98.98 25.80 C 100.71 25.82 102.44 25.83 104.16 25.83 C 104.17 26.94 104.18 28.05 104.18 29.16 C 102.45 29.18 100.71 29.20 98.97 29.21 C 98.97 28.08 98.98 26.94 98.98 25.80 Z" fill="#b3c8db" />
<path d="M 121.52 26.39 C 123.53 31.25 129.42 31.94 134.00 32.00 C 136.69 31.76 140.77 32.18 142.70 30.00 L 141.34 28.97 C 141.89 28.61 142.43 28.25 142.97 27.88 C 143.48 30.59 142.91 32.39 141.92 34.83 C 140.35 31.31 137.06 33.83 134.11 33.59 C 131.61 33.44 128.62 34.89 129.04 37.80 C 132.44 37.60 135.82 37.30 139.20 36.95 C 136.78 39.28 134.00 41.47 132.58 44.59 C 131.35 47.08 131.06 49.72 130.99 52.46 C 132.44 51.23 133.18 49.61 134.08 47.98 C 133.81 51.79 130.82 53.70 131.66 57.62 C 128.47 56.93 125.26 56.35 122.01 56.04 C 119.15 55.65 116.51 55.76 113.95 54.27 L 115.48 54.53 C 115.17 53.03 114.85 51.53 114.54 50.03 C 116.00 47.68 117.09 45.33 117.42 42.55 C 119.15 44.22 120.87 45.77 121.86 48.00 C 123.11 48.41 124.37 48.81 125.63 49.20 C 125.27 49.75 124.92 50.29 124.56 50.83 C 126.22 52.20 127.95 53.31 129.85 54.31 C 130.29 50.10 131.00 46.05 132.36 42.02 C 129.21 39.83 125.49 37.94 122.85 35.14 C 120.61 32.56 120.77 29.52 121.52 26.39 Z" fill="#8b2e45" />
<path d="M 78.72 28.16 C 78.19 28.71 77.67 29.27 77.14 29.82 C 79.95 29.66 82.76 29.47 85.57 29.22 L 85.48 27.66 C 87.59 30.81 88.47 32.83 88.14 36.70 C 83.46 37.65 82.68 42.33 80.62 45.98 C 82.90 48.67 85.35 50.78 86.17 54.38 C 83.78 51.51 81.82 48.48 78.75 46.24 C 74.40 42.83 72.27 38.07 72.74 32.53 C 75.44 32.46 78.16 32.69 80.86 32.50 L 81.58 30.77 C 78.73 30.56 75.87 30.46 73.02 30.34 C 74.84 29.24 76.55 28.36 78.72 28.16 Z" fill="#8b2e45" />
<path d="M 89.98 28.62 C 91.77 29.59 93.95 29.51 96.01 29.83 L 95.39 30.64 L 95.36 30.10 C 94.19 31.08 93.72 32.61 93.95 34.70 C 92.53 34.72 91.12 34.74 89.71 34.77 C 89.50 32.52 88.71 30.70 89.98 28.62 Z" fill="#b4cadd" />
<path d="M 111.53 29.23 C 112.61 28.88 113.76 28.88 114.98 29.21 C 114.69 29.90 114.39 30.60 114.10 31.29 C 112.02 31.24 110.05 31.41 108.10 30.52 L 106.82 29.55 C 108.40 29.14 109.89 28.92 111.53 29.23 Z" fill="#768491" />
<path d="M 139.95 29.72 C 138.24 30.52 135.80 30.11 133.96 29.88 C 136.24 28.40 137.61 28.15 139.95 29.72 Z" fill="#8f4c48" />
<path d="M 99.04 29.81 C 101.91 29.52 102.10 34.57 99.01 34.16 C 99.01 32.71 99.02 31.26 99.04 29.81 Z" fill="#a9becf" />
<path d="M 104.13 29.68 C 104.15 31.18 104.16 32.69 104.15 34.19 C 101.04 34.56 101.18 29.54 104.13 29.68 Z" fill="#a7bcce" />
<path d="M 106.82 29.55 L 108.10 30.52 C 108.06 33.00 107.95 35.48 107.87 37.96 L 105.71 38.06 C 105.96 35.60 104.58 31.15 106.82 29.55 Z" fill="#77283b" />
<path d="M 109.18 31.90 C 110.69 31.92 112.20 31.96 113.71 31.99 C 113.66 32.91 113.61 33.82 113.56 34.73 C 112.11 34.73 110.66 34.72 109.20 34.72 C 109.20 33.78 109.19 32.84 109.18 31.90 Z" fill="#bbd2e6" />
<path d="M 70.09 33.66 C 71.49 36.69 72.08 40.14 73.01 43.35 C 70.22 40.65 69.69 37.41 70.09 33.66 Z" fill="#8e4248" />
<path d="M 68.10 34.53 C 69.61 37.29 69.31 40.37 70.88 43.15 C 73.72 48.32 78.73 53.14 79.84 59.06 C 80.71 63.98 81.00 69.73 78.05 74.04 C 75.27 78.28 71.43 81.95 66.68 83.88 C 67.95 82.38 69.38 81.11 70.96 79.94 C 74.39 77.44 77.32 73.83 78.66 69.78 C 79.75 63.65 78.94 57.04 75.08 51.97 C 71.27 46.42 66.72 41.87 68.10 34.53 Z" fill="#8d3c47" />
<path d="M 98.82 34.86 C 100.61 34.86 102.39 34.85 104.18 34.86 C 104.18 36.19 104.17 37.53 104.17 38.87 C 102.77 38.79 101.37 38.71 99.97 38.63 C 100.73 39.98 101.18 41.41 101.29 42.93 C 99.67 42.93 98.05 42.93 96.43 42.92 C 96.43 41.80 96.43 40.67 96.43 39.54 C 97.62 39.68 98.81 39.83 100.01 39.98 C 99.28 38.40 98.88 36.69 98.82 34.86 Z" fill="#b6ccdf" />
<path d="M 34.74 35.76 C 37.99 37.03 40.14 39.50 42.11 42.26 C 39.06 40.76 36.42 38.78 34.74 35.76 Z" fill="#8f4548" />
<path d="M 89.68 35.71 C 91.15 35.70 92.61 35.70 94.08 35.71 C 94.10 36.77 94.12 37.83 94.14 38.88 C 92.68 38.90 91.21 38.91 89.74 38.92 C 89.72 37.85 89.68 36.78 89.68 35.71 Z" fill="#9db1c1" />
<path d="M 109.09 35.80 C 110.54 35.76 111.98 35.71 113.42 35.67 C 113.47 36.70 113.52 37.74 113.56 38.78 C 112.08 38.78 110.59 38.77 109.11 38.77 C 109.10 37.78 109.10 36.79 109.09 35.80 Z" fill="#bad0e4" />
<path d="M 141.86 36.85 C 141.99 38.34 142.13 39.83 142.27 41.32 C 143.07 39.96 143.88 38.59 144.69 37.23 C 145.50 39.44 146.27 41.67 146.99 43.92 C 146.11 43.02 145.24 42.11 144.37 41.21 C 143.27 41.77 142.18 42.34 141.09 42.91 C 140.82 41.29 140.56 39.68 140.29 38.06 C 140.81 37.66 141.33 37.25 141.86 36.85 Z" fill="#8e4348" />
<path d="M 90.63 39.96 C 90.64 40.95 90.65 41.94 90.65 42.92 C 89.45 42.96 88.26 43.00 87.07 43.02 C 87.04 41.98 87.01 40.94 87.00 39.90 C 88.34 39.59 89.31 39.45 90.63 39.96 Z" fill="#8e9fae" />
<path d="M 105.28 39.69 C 106.48 39.63 107.68 39.65 108.88 39.66 C 108.84 40.75 108.80 41.84 108.77 42.94 C 107.54 42.94 106.30 42.94 105.07 42.95 C 105.11 41.86 105.18 40.77 105.28 39.69 Z" fill="#b5cbde" />
<path d="M 114.23 39.95 C 116.61 38.44 116.77 44.31 114.31 42.82 C 113.73 41.88 113.70 40.92 114.23 39.95 Z" fill="#afc4d7" />
<path d="M 87.34 43.96 C 89.76 43.90 92.17 43.85 94.59 43.82 C 94.60 45.61 94.61 47.41 94.62 49.21 C 93.06 49.19 91.50 49.18 89.94 49.17 C 89.37 48.38 88.81 47.58 88.27 46.77 C 87.95 45.84 87.64 44.90 87.34 43.96 Z" fill="#b4cadd" />
<path d="M 95.64 43.90 C 98.71 43.92 101.77 43.88 104.83 43.84 C 104.84 45.62 104.85 47.40 104.86 49.18 C 101.78 49.18 98.70 49.19 95.62 49.20 C 95.63 47.43 95.64 45.67 95.64 43.90 Z" fill="#b4cadd" />
<path d="M 105.83 43.94 C 109.21 43.84 112.58 43.82 115.96 43.96 C 115.27 45.90 114.47 47.64 113.15 49.24 C 110.70 49.18 108.25 49.18 105.81 49.19 C 105.82 47.44 105.82 45.69 105.83 43.94 Z" fill="#b4cadd" />
<path d="M 35.26 45.20 C 36.81 44.46 38.03 48.46 36.36 48.49 C 35.47 47.89 34.66 46.20 35.26 45.20 Z" fill="#90514a" />
<path d="M 75.07 45.30 C 76.21 44.77 77.61 46.66 76.92 47.65 C 75.78 48.16 74.39 46.29 75.07 45.30 Z" fill="#8f4848" />
<path d="M 136.52 49.01 C 137.05 51.28 136.53 55.55 138.04 57.12 C 139.22 56.03 139.94 54.39 140.73 53.01 C 140.85 54.34 140.97 55.67 141.09 57.01 C 140.00 57.79 138.91 58.58 137.82 59.36 C 136.47 58.69 135.36 58.62 133.87 58.64 C 135.90 55.66 136.20 52.51 136.52 49.01 Z" fill="#8f4448" />
<path d="M 111.98 50.42 C 113.42 51.21 114.02 52.69 113.95 54.27 C 112.81 53.64 111.89 52.47 111.18 51.40 L 111.98 50.42 Z" fill="#8591a1" />
<path d="M 34.02 51.87 C 36.77 51.91 39.50 52.06 42.22 52.47 C 39.50 53.05 36.80 53.13 34.03 53.03 L 34.02 51.87 Z" fill="#8e4348" />
<path d="M 89.91 51.48 C 93.29 51.53 96.66 51.51 100.04 51.31 C 98.32 52.62 96.66 53.98 95.18 55.56 C 93.02 55.59 90.86 55.59 88.69 55.58 C 89.09 54.21 89.50 52.84 89.91 51.48 Z" fill="#b4cadd" />
<path d="M 101.01 51.98 C 102.75 51.86 104.56 53.37 106.10 54.08 L 105.94 55.89 C 104.52 55.01 103.11 54.12 101.70 53.22 C 99.32 54.29 97.55 55.96 95.67 57.76 C 96.17 54.69 98.38 53.10 101.01 51.98 Z" fill="#5f6772" />
<path d="M 35.83 54.38 C 39.45 55.03 43.82 54.70 47.06 56.45 C 44.01 57.00 41.32 57.86 38.29 56.78 C 37.75 57.27 37.21 57.77 36.66 58.26 C 36.37 56.97 36.07 55.68 35.83 54.38 Z" fill="#935f4b" />
<path d="M 144.61 54.16 C 145.03 55.67 145.46 57.19 145.88 58.70 C 144.17 59.06 142.47 59.42 140.76 59.78 C 142.05 57.90 143.33 56.03 144.61 54.16 Z" fill="#904949" />
<path d="M 88.22 56.77 C 89.31 56.71 90.39 56.64 91.47 56.58 C 91.46 57.71 91.46 58.83 91.45 59.96 C 90.17 59.96 88.89 59.96 87.60 59.96 C 87.81 58.90 88.02 57.84 88.22 56.77 Z" fill="#b7cee1" />
<path d="M 95.23 58.86 C 94.86 59.69 94.13 59.96 93.06 59.70 L 92.73 57.91 C 93.52 55.86 95.56 57.03 95.23 58.86 Z" fill="#bdd4e8" />
<path d="M 36.00 60.02 C 39.02 59.94 42.02 60.01 45.01 60.42 C 42.02 61.00 39.00 61.20 35.96 61.24 L 36.00 60.02 Z" fill="#8f4748" />
<path d="M 117.22 59.94 C 117.46 63.40 116.80 66.46 118.80 69.49 C 119.39 68.72 119.98 67.95 120.56 67.17 C 121.76 68.32 122.95 69.46 124.14 70.61 C 124.55 70.33 124.96 70.05 125.37 69.77 C 126.00 70.12 126.62 70.47 127.25 70.81 C 128.01 70.62 128.76 70.43 129.52 70.24 C 129.11 71.45 128.23 72.76 128.51 74.03 C 129.71 78.09 133.31 81.02 136.43 83.61 C 138.96 85.64 140.55 88.24 142.30 90.91 C 142.82 90.38 143.34 89.85 143.86 89.33 C 143.45 93.90 143.25 98.24 141.49 102.55 C 140.01 106.38 138.00 109.71 138.54 114.02 C 139.02 118.54 141.74 121.21 144.36 124.61 C 147.22 128.14 148.76 132.70 149.00 137.21 C 144.31 134.91 139.26 132.27 133.98 131.87 C 130.43 131.27 127.02 130.07 123.44 129.59 C 122.99 124.18 122.91 118.74 122.38 113.33 C 124.44 114.09 125.26 115.50 126.22 117.32 C 128.39 116.41 130.52 116.37 132.88 115.94 C 133.47 116.09 134.06 116.25 134.66 116.40 C 135.53 115.64 136.40 114.87 137.27 114.10 C 137.13 107.62 140.97 103.07 142.19 97.01 C 142.56 95.82 142.48 94.87 141.95 94.16 C 138.81 93.24 132.16 91.61 130.72 95.78 C 129.93 99.68 132.19 104.63 130.68 108.68 C 129.23 111.48 125.27 109.52 124.85 107.01 C 123.67 102.79 125.26 98.56 121.16 95.80 C 120.59 96.40 120.02 97.00 119.46 97.60 C 118.34 97.75 117.22 97.90 116.10 98.04 C 115.95 94.27 117.16 90.76 117.21 87.00 C 117.43 77.98 117.26 68.96 117.22 59.94 Z" fill="#8b2e45" />
<path d="M 85.69 61.40 C 95.76 61.06 105.88 61.19 115.95 61.37 C 115.88 70.24 116.05 79.13 115.88 88.01 C 115.74 89.58 115.95 91.53 114.83 92.77 C 112.21 95.87 108.79 98.33 105.82 101.09 C 105.50 100.86 105.19 100.63 104.87 100.40 C 107.55 97.79 110.57 94.87 112.23 91.49 C 113.08 85.42 112.46 79.06 112.80 72.94 C 113.43 69.81 115.06 67.71 112.76 64.74 C 112.71 63.79 112.66 62.84 112.61 61.89 C 104.74 61.71 96.85 61.73 88.98 61.88 C 88.84 69.60 88.82 77.31 88.80 85.03 C 88.98 87.57 87.07 90.04 86.08 92.31 C 87.53 94.36 89.94 93.71 91.40 95.57 C 94.51 99.14 98.21 101.98 101.69 105.16 C 96.46 102.16 91.13 98.36 86.69 94.28 C 84.63 92.49 85.40 90.43 85.22 88.00 C 85.30 79.14 85.28 70.25 85.69 61.40 Z" fill="#ffffff" />
<path d="M 37.21 62.50 C 38.54 61.90 39.71 64.63 38.90 65.56 C 37.64 66.06 36.49 63.39 37.21 62.50 Z" fill="#904b49" />
<path d="M 90.39 63.29 C 95.88 62.99 101.39 63.36 106.88 63.08 C 102.95 66.12 101.47 70.09 99.26 74.30 C 96.37 77.77 92.92 80.75 90.10 84.31 C 90.32 77.31 90.04 70.28 90.39 63.29 Z" fill="#8b2e45" />
<path d="M 63.77 63.86 C 64.60 68.21 62.79 72.06 59.88 75.18 C 60.70 72.13 61.53 69.08 62.39 66.05 C 62.59 65.22 63.05 64.49 63.77 63.86 Z" fill="#8e4047" />
<path d="M 108.96 64.01 C 110.62 64.38 112.15 65.61 113.00 67.07 C 113.52 70.55 110.16 73.69 108.26 76.27 C 104.93 80.28 104.33 86.16 99.69 88.69 C 95.94 90.70 91.80 92.79 87.53 93.28 C 88.30 87.12 93.79 81.26 98.16 77.16 C 101.52 74.15 101.79 70.03 104.69 66.69 C 105.81 65.46 107.19 64.04 108.96 64.01 Z" fill="#977c4f" />
<path d="M 47.25 66.03 C 44.61 67.73 41.77 68.83 38.74 69.64 C 39.71 66.76 44.73 66.55 47.25 66.03 Z" fill="#904d49" />
<path d="M 106.40 67.35 C 107.22 66.91 108.09 66.57 109.01 66.33 C 112.93 67.81 108.22 73.79 105.45 72.51 C 103.38 71.05 105.15 68.69 106.40 67.35 Z" fill="#ffffff" />
<path d="M 132.35 68.21 C 133.29 67.04 136.02 68.13 133.99 69.23 C 132.73 69.37 132.19 69.03 132.35 68.21 Z" fill="#8f4849" />
<path d="M 50.04 71.94 C 47.65 73.74 45.68 74.64 42.70 75.09 C 44.70 72.83 47.18 72.30 50.04 71.94 Z" fill="#904e49" />
<path d="M 103.35 75.06 L 104.09 74.70 L 104.82 75.14 L 104.81 75.94 L 104.07 76.30 L 103.34 75.87 L 103.35 75.06 Z" fill="#8d3a47" />
<path d="M 111.06 74.47 C 111.26 78.97 111.10 83.48 111.06 88.01 C 110.95 89.52 111.17 90.97 110.26 92.26 C 107.63 96.06 104.12 99.32 100.87 102.59 C 97.51 99.82 94.40 96.90 91.42 93.73 C 95.28 91.65 101.01 90.24 103.59 86.56 C 106.19 82.46 107.43 77.95 111.06 74.47 Z" fill="#8b2e45" />
<path d="M 84.00 76.91 C 83.61 84.70 84.50 92.47 84.03 100.23 C 81.73 100.24 79.42 100.25 77.11 100.25 C 76.99 102.51 76.86 104.76 76.72 107.02 C 77.53 107.55 78.34 108.08 79.16 108.60 C 77.78 109.59 76.02 110.64 75.12 112.12 C 74.71 114.39 74.95 116.81 74.96 119.10 C 71.98 119.05 67.46 119.44 67.92 115.07 C 69.80 112.01 72.74 109.68 74.74 106.67 C 75.45 105.54 76.21 104.45 75.87 103.03 C 74.95 98.28 73.55 93.62 72.67 88.85 C 69.91 89.46 67.36 90.38 65.11 92.14 C 62.77 93.80 61.50 96.55 59.95 98.93 C 60.44 92.73 65.40 89.74 70.61 87.59 C 76.21 85.42 80.43 81.66 84.00 76.91 Z" fill="#8b2e45" />
<path d="M 102.33 77.07 L 103.06 76.70 L 103.79 77.13 L 103.80 77.93 L 103.06 78.30 L 102.33 77.87 L 102.33 77.07 Z" fill="#8d3d47" />
<path d="M 101.23 79.07 C 102.58 78.09 104.09 80.37 102.22 80.76 C 101.18 80.49 100.85 79.92 101.23 79.07 Z" fill="#8e4047" />
<path d="M 97.51 80.25 C 98.65 79.82 101.42 81.44 100.68 82.79 C 99.51 83.69 97.11 81.49 97.51 80.25 Z" fill="#8f4448" />
<path d="M 95.41 83.16 C 96.36 82.67 98.67 83.82 98.69 84.95 C 98.03 87.04 94.87 84.57 95.41 83.16 Z" fill="#8f4548" />
<path d="M 141.95 94.16 C 142.48 94.87 142.56 95.82 142.19 97.01 C 140.97 103.07 137.13 107.62 137.27 114.10 C 136.40 114.87 135.53 115.64 134.66 116.40 C 134.06 116.25 133.47 116.09 132.88 115.94 C 130.52 116.37 128.39 116.41 126.22 117.32 C 125.26 115.50 124.44 114.09 122.38 113.33 C 122.22 111.52 122.07 109.71 121.92 107.89 C 122.51 107.41 123.09 106.94 123.68 106.47 C 123.37 104.41 123.08 102.35 122.79 100.29 C 120.62 100.27 118.42 100.26 116.25 100.14 L 116.10 98.04 C 117.22 97.90 118.34 97.75 119.46 97.60 C 120.02 97.00 120.59 96.40 121.16 95.80 C 125.26 98.56 123.67 102.79 124.85 107.01 C 125.27 109.52 129.23 111.48 130.68 108.68 C 132.19 104.63 129.93 99.68 130.72 95.78 C 132.16 91.61 138.81 93.24 141.95 94.16 Z" fill="#977c4f" />
<path d="M 114.97 95.26 C 115.13 96.18 115.08 97.04 114.82 97.86 C 113.98 98.18 113.05 98.24 112.04 98.02 C 112.23 96.53 113.58 95.56 114.97 95.26 Z" fill="#92a4b3" />
<path d="M 34.33 97.31 C 35.86 96.67 37.54 97.69 39.03 98.11 C 37.97 99.28 36.93 100.74 35.55 101.54 C 34.47 101.93 33.05 100.98 31.98 100.77 C 32.62 99.41 32.92 98.10 34.33 97.31 Z" fill="#8b2e45" />
<path d="M 91.15 100.08 C 89.33 100.47 87.37 100.51 85.60 99.88 C 87.07 98.59 89.71 98.85 91.15 100.08 Z" fill="#bdd4e8" />
<path d="M 114.91 99.94 C 113.31 100.62 111.21 100.36 109.53 100.10 C 110.46 99.01 114.34 98.49 114.91 99.94 Z" fill="#bfd6ea" />
<path d="M 26.88 100.73 C 29.27 105.83 31.92 107.21 37.54 106.85 C 37.88 105.80 38.23 104.75 38.58 103.69 C 39.79 105.70 40.92 107.54 40.88 109.98 C 41.08 114.62 38.77 117.93 36.45 121.69 C 39.83 126.16 41.66 130.67 41.96 136.31 C 36.44 136.89 31.61 135.94 26.85 139.46 C 26.94 126.55 26.89 113.63 26.88 100.73 Z" fill="#8b2e45" />
<path d="M 78.34 101.88 C 83.27 101.87 88.22 101.33 93.13 101.58 C 95.68 102.61 97.93 104.66 100.23 106.17 C 92.84 106.20 85.43 106.20 78.04 106.07 C 78.14 104.67 78.24 103.27 78.34 101.88 Z" fill="#b4cadd" />
<path d="M 103.45 102.51 C 103.51 102.45 103.51 102.45 103.45 102.51 Z" fill="#b8b8b8" />
<path d="M 107.20 101.59 C 112.02 101.35 116.82 101.88 121.66 101.82 C 121.80 103.23 121.94 104.63 122.08 106.03 C 115.22 106.25 108.35 106.15 101.49 106.20 C 103.36 104.63 105.25 103.06 107.20 101.59 Z" fill="#b4cadd" />
<path d="M 80.24 107.10 C 83.01 107.15 85.79 107.16 88.57 107.15 C 88.58 108.66 88.58 110.18 88.59 111.69 C 85.79 111.70 82.99 111.71 80.19 111.72 L 80.11 109.42 L 80.12 109.17 L 80.24 107.10 Z" fill="#b5ccdf" />
<path d="M 89.66 107.12 C 91.42 107.07 93.18 107.02 94.94 106.95 C 93.02 108.50 91.29 110.17 89.62 111.99 C 89.64 110.36 89.65 108.74 89.66 107.12 Z" fill="#acc1d3" />
<path d="M 98.64 107.12 C 99.95 107.10 101.25 107.11 102.56 107.12 C 102.27 108.04 101.96 108.95 101.63 109.86 C 100.61 110.15 99.56 110.06 98.49 109.57 C 96.80 111.27 95.25 113.02 93.76 114.90 C 94.07 115.38 94.37 115.85 94.68 116.32 L 95.83 114.42 L 96.11 117.32 C 95.09 116.94 94.07 116.55 93.05 116.16 C 92.49 125.14 92.86 134.18 92.82 143.18 C 91.66 142.78 90.51 142.38 89.35 141.98 C 89.38 136.21 89.36 130.44 89.38 124.67 C 88.18 123.45 87.10 122.82 87.81 120.86 C 89.61 117.52 89.63 113.80 91.96 110.94 C 93.24 109.26 94.98 108.54 96.76 107.49 L 97.11 109.95 C 97.61 109.00 98.10 108.05 98.64 107.12 Z" fill="#b8cee1" />
<path d="M 106.11 106.95 C 107.75 107.01 109.39 107.06 111.04 107.10 C 111.07 108.65 111.10 110.19 111.13 111.74 C 109.57 109.99 107.95 108.41 106.11 106.95 Z" fill="#adc2d4" />
<path d="M 103.82 107.31 C 105.77 108.37 107.69 109.09 109.08 110.90 C 111.47 113.83 111.39 117.40 113.24 120.82 C 114.30 123.02 111.55 123.80 111.74 125.90 C 111.66 131.28 111.76 136.66 111.75 142.04 C 110.54 142.36 109.34 142.68 108.13 143.00 C 108.15 133.86 108.33 124.71 108.02 115.57 C 106.47 116.69 105.91 118.33 104.28 115.86 C 105.39 115.26 106.50 114.66 107.58 114.02 C 105.21 113.11 103.17 113.78 100.82 114.14 C 100.85 113.02 100.87 111.89 100.90 110.76 C 102.56 111.70 104.23 112.62 105.96 113.42 C 105.21 111.85 103.84 111.20 102.49 110.24 C 102.93 109.27 103.37 108.29 103.82 107.31 Z" fill="#b5ccdf" />
<path d="M 112.13 107.14 C 114.96 107.15 117.79 107.14 120.62 107.12 C 120.72 108.65 120.81 110.18 120.91 111.71 C 117.98 111.71 115.05 111.70 112.12 111.70 C 112.12 110.18 112.13 108.66 112.13 107.14 Z" fill="#b4cadd" />
<path d="M 59.42 109.74 C 62.39 113.33 61.34 116.87 61.08 121.12 C 65.55 122.16 70.43 121.30 74.11 123.86 C 75.30 126.06 75.74 128.78 76.31 131.19 C 70.80 131.81 65.49 131.60 60.14 133.32 C 55.68 134.16 51.38 134.47 47.16 136.34 C 46.78 133.16 46.31 129.40 47.36 126.32 C 49.38 123.21 52.94 121.19 55.27 118.26 C 57.54 115.73 58.20 112.82 59.42 109.74 Z" fill="#8b2e45" />
<path d="M 99.79 113.82 L 97.99 114.06 C 95.79 113.58 97.39 111.84 98.55 111.24 C 100.20 110.44 100.06 112.90 99.79 113.82 Z" fill="#a2b5c6" />
<path d="M 80.32 112.73 C 81.13 112.74 81.95 112.75 82.76 112.75 C 82.75 114.48 82.74 116.21 82.73 117.93 C 81.64 117.94 80.55 117.94 79.45 117.94 C 79.79 116.21 80.08 114.48 80.32 112.73 Z" fill="#b9d0e4" />
<path d="M 83.77 112.75 C 85.70 112.71 87.63 112.67 89.56 112.62 C 89.01 114.42 88.47 116.22 87.93 118.01 C 86.55 118.02 85.16 118.03 83.77 118.03 C 83.77 116.27 83.77 114.51 83.77 112.75 Z" fill="#b4cadd" />
<path d="M 111.51 112.65 C 113.56 112.69 115.61 112.71 117.66 112.74 C 117.65 114.51 117.63 116.28 117.61 118.05 C 116.11 118.04 114.62 118.03 113.12 118.02 C 112.87 117.17 112.62 116.33 112.37 115.49 C 112.09 114.54 111.80 113.60 111.51 112.65 Z" fill="#b4cadd" />
<path d="M 118.79 112.88 L 120.92 112.67 C 121.03 114.43 121.09 116.19 121.16 117.95 L 118.70 117.97 C 118.70 116.27 118.68 114.59 118.79 112.88 Z" fill="#c1d9ed" />
<path d="M 97.16 115.34 C 98.21 114.37 100.91 115.09 99.83 116.78 C 98.73 117.85 96.03 117.10 97.16 115.34 Z" fill="#9fb2c3" />
<path d="M 101.06 115.26 C 102.06 114.33 104.78 115.12 103.75 116.71 C 102.58 117.82 99.95 117.11 101.06 115.26 Z" fill="#a9bed0" />
<path d="M 94.13 118.22 C 95.84 116.94 97.08 119.81 94.99 120.20 C 93.83 119.93 93.54 119.28 94.13 118.22 Z" fill="#afc4d6" />
<path d="M 97.09 118.35 C 98.00 117.75 98.91 117.75 99.82 118.37 C 101.47 120.80 95.46 120.81 97.09 118.35 Z" fill="#8fa1b0" />
<path d="M 101.02 118.27 C 101.86 117.31 105.03 118.22 103.87 119.65 C 102.70 120.58 99.95 120.25 101.02 118.27 Z" fill="#99abbb" />
<path d="M 105.13 118.27 C 106.93 117.15 108.26 119.78 105.99 120.17 C 104.77 119.87 104.48 119.24 105.13 118.27 Z" fill="#adc3d5" />
<path d="M 79.61 118.62 C 81.95 118.87 84.27 118.98 86.62 118.98 C 86.62 120.73 86.62 122.48 86.63 124.23 C 84.19 124.24 81.75 124.24 79.31 124.24 C 79.52 122.36 79.64 120.51 79.61 118.62 Z" fill="#b4cadd" />
<path d="M 114.46 118.96 C 116.72 118.94 118.99 118.91 121.25 118.88 C 121.41 120.67 121.56 122.45 121.71 124.23 C 119.30 124.24 116.88 124.24 114.47 124.22 C 114.47 122.47 114.47 120.72 114.46 118.96 Z" fill="#b4cadd" />
<path d="M 94.10 121.18 C 95.93 120.07 97.26 122.63 94.98 123.07 C 93.77 122.78 93.48 122.15 94.10 121.18 Z" fill="#c1d9ee" />
<path d="M 104.22 121.99 C 103.76 123.33 100.94 123.65 100.70 121.98 C 100.93 120.33 103.81 120.62 104.22 121.99 Z" fill="#aabed0" />
<path d="M 105.09 121.19 C 106.92 120.07 108.29 122.61 105.99 123.07 C 104.77 122.78 104.47 122.15 105.09 121.19 Z" fill="#c0d8ec" />
<path d="M 94.10 124.14 C 95.37 123.58 95.94 123.82 95.81 124.85 C 94.55 125.39 93.98 125.15 94.10 124.14 Z" fill="#d6f0ff" />
<path d="M 99.99 124.79 C 98.97 125.18 97.95 125.19 96.93 124.80 C 97.18 123.45 99.72 123.46 99.99 124.79 Z" fill="#afc5d7" />
<path d="M 100.94 124.18 C 102.46 123.57 103.46 123.77 103.93 124.78 C 102.90 125.19 101.91 125.21 100.95 124.83 L 100.94 124.18 Z" fill="#bbd2e2" />
<path d="M 105.08 124.15 C 106.38 123.60 106.97 123.83 106.84 124.84 C 105.54 125.37 104.96 125.14 105.08 124.15 Z" fill="#d4eeff" />
<path d="M 79.23 125.23 C 80.25 125.21 81.27 125.19 82.29 125.17 C 82.32 126.78 82.34 128.40 82.37 130.02 C 81.10 130.04 79.83 130.05 78.56 130.06 C 78.78 128.45 79.01 126.84 79.23 125.23 Z" fill="#b5cbde" />
<path d="M 119.15 125.32 C 120.00 125.24 120.86 125.18 121.71 125.13 C 121.81 126.74 121.90 128.36 121.98 129.97 C 120.98 129.95 119.98 129.94 118.98 129.92 C 119.01 128.39 119.02 126.84 119.15 125.32 Z" fill="#b8cfe2" />
<path d="M 83.39 125.25 C 85.04 125.22 86.70 125.20 88.35 125.18 C 88.34 126.80 88.33 128.41 88.32 130.03 C 86.69 130.03 85.06 130.04 83.43 130.04 C 83.42 128.44 83.40 126.84 83.39 125.25 Z" fill="#b5cbde" />
<path d="M 112.74 125.17 C 114.52 125.21 116.30 125.25 118.08 125.29 C 118.09 126.83 118.10 128.38 118.10 129.92 C 116.32 129.94 114.55 129.97 112.77 129.99 C 112.76 128.39 112.75 126.78 112.74 125.17 Z" fill="#b5cbde" />
<path d="M 123.44 129.59 C 127.02 130.07 130.43 131.27 133.98 131.87 C 139.26 132.27 144.31 134.91 149.00 137.21 L 149.01 138.95 C 145.95 140.52 142.47 139.32 138.97 139.73 C 137.49 140.11 136.67 142.21 135.72 143.31 L 134.73 143.35 C 131.43 140.73 128.58 138.28 124.22 137.64 C 123.98 134.95 123.71 132.27 123.44 129.59 Z" fill="#4ab76a" />
<path d="M 76.31 131.19 L 76.83 131.12 C 76.48 133.12 76.15 135.13 75.83 137.14 C 71.62 137.96 68.76 139.81 65.59 142.60 C 63.50 142.50 61.45 142.48 59.40 142.92 C 55.81 140.23 52.43 140.75 48.22 140.88 C 47.85 139.38 47.46 137.86 47.16 136.34 C 51.38 134.47 55.68 134.16 60.14 133.32 C 65.49 131.60 70.80 131.81 76.31 131.19 Z" fill="#4ab76a" />
<path d="M 78.22 130.99 C 81.60 130.97 84.97 130.96 88.35 130.97 C 88.35 132.66 88.35 134.36 88.36 136.05 C 84.73 136.06 81.10 136.04 77.47 136.02 C 77.73 134.35 77.98 132.67 78.22 130.99 Z" fill="#b4cadd" />
<path d="M 112.75 130.94 C 115.83 130.94 118.91 130.94 121.99 130.94 C 122.25 132.62 122.50 134.31 122.76 135.99 C 119.42 136.02 116.08 136.07 112.74 136.05 C 112.74 134.35 112.74 132.64 112.75 130.94 Z" fill="#b4cadd" />
<path d="M 41.96 136.31 C 41.97 138.24 41.92 140.16 41.86 142.08 C 39.91 141.98 37.93 141.80 35.97 141.90 C 34.13 142.40 32.73 144.10 31.33 145.34 C 35.39 145.44 39.06 145.51 42.89 143.91 C 44.54 145.64 46.20 147.35 47.96 148.96 C 47.95 146.89 47.80 144.88 47.28 142.87 C 49.15 144.95 50.63 146.17 53.49 146.66 C 52.24 147.72 51.04 148.83 49.83 149.93 C 55.65 149.74 60.71 150.13 65.96 152.83 C 66.16 155.01 65.70 156.85 67.65 158.34 C 71.84 161.34 78.02 161.95 83.02 161.65 C 83.26 164.82 82.77 168.30 83.59 171.37 C 84.13 173.18 85.61 173.59 87.04 174.55 C 86.73 175.64 86.41 176.72 86.08 177.81 C 87.07 177.47 88.07 177.17 89.08 176.91 C 90.40 178.18 90.96 179.73 92.80 180.18 C 95.62 181.22 98.98 179.77 101.99 179.90 C 104.47 179.86 107.36 180.58 109.73 179.79 C 110.36 178.67 110.85 177.52 111.37 176.35 C 112.48 176.65 113.60 176.96 114.71 177.26 C 114.41 176.27 114.10 175.29 113.80 174.30 C 115.16 172.96 116.78 172.12 116.99 170.03 C 117.25 167.39 117.03 164.68 116.98 162.04 C 122.29 162.13 127.44 162.06 132.06 159.06 C 134.07 157.57 133.82 155.58 134.16 153.36 C 139.47 150.96 144.34 150.71 150.08 150.91 C 148.64 149.55 147.20 148.20 145.68 146.94 C 149.08 144.66 152.65 142.97 156.46 141.51 C 156.84 140.40 157.23 139.31 157.64 138.21 L 158.63 137.70 C 163.59 138.08 168.29 139.42 173.05 140.80 C 173.27 148.28 167.64 153.44 161.44 156.50 C 157.97 155.72 153.84 155.37 150.41 156.39 C 145.34 158.87 141.20 163.37 136.57 166.60 C 126.37 174.13 113.95 181.91 101.01 182.75 C 89.07 182.91 77.35 176.79 67.59 170.41 C 62.13 166.97 57.28 162.72 51.98 159.08 C 47.73 155.93 41.63 156.55 37.01 158.47 C 30.96 153.76 25.94 147.62 26.85 139.46 C 31.61 135.94 36.44 136.89 41.96 136.31 Z" fill="#4ab76a" />
<path d="M 76.57 137.06 C 78.41 137.00 80.26 136.98 82.11 136.95 L 82.26 138.90 C 81.52 138.83 79.52 138.61 80.48 139.92 C 82.27 141.11 83.73 142.20 84.99 143.97 C 83.67 145.46 82.43 146.84 80.51 147.55 C 77.27 149.04 74.30 148.07 70.86 147.98 C 69.19 146.77 67.53 145.55 65.89 144.30 C 68.10 142.38 70.38 140.19 73.21 139.25 C 75.63 138.90 78.06 139.12 80.45 138.52 L 76.57 137.06 Z" fill="#b4cadd" />
<path d="M 83.29 137.15 C 84.96 137.01 86.65 137.02 88.33 137.00 C 88.33 138.66 88.34 140.33 88.34 142.00 C 87.35 142.00 86.36 142.01 85.36 142.02 C 84.61 141.24 83.88 140.44 83.15 139.64 C 83.17 138.80 83.21 137.97 83.29 137.15 Z" fill="#b4cadd" />
<path d="M 112.77 137.05 C 114.55 137.05 116.33 137.04 118.11 137.03 C 118.12 137.90 118.12 138.78 118.13 139.65 C 116.41 140.85 114.96 142.13 112.75 142.29 C 112.75 140.54 112.76 138.79 112.77 137.05 Z" fill="#b4cadd" />
<path d="M 122.89 137.17 C 123.60 138.47 118.78 140.06 118.79 138.09 C 119.08 136.53 121.81 136.53 122.89 137.17 Z" fill="#91a3b2" />
<path d="M 125.02 139.37 C 128.72 139.72 131.53 142.63 134.19 144.94 C 132.46 146.25 130.71 147.54 128.93 148.78 C 125.41 148.72 122.44 149.58 119.21 147.79 C 117.54 146.92 114.68 145.35 115.99 143.06 C 118.05 140.56 121.90 139.47 125.02 139.37 Z" fill="#b4cadd" />
<path d="M 142.76 141.54 C 141.66 142.31 140.49 142.90 139.27 143.31 L 138.74 143.12 C 139.35 141.22 141.02 140.19 142.76 141.54 Z" fill="#60a964" />
<path d="M 48.83 142.08 C 51.49 142.96 54.14 143.81 56.88 144.40 C 56.03 144.92 55.20 145.47 54.37 146.04 C 52.40 144.88 50.56 143.59 48.83 142.08 Z" fill="#649a5c" />
<path d="M 147.46 142.26 C 147.29 143.53 144.10 143.87 143.03 143.75 C 143.42 141.64 145.87 141.38 147.46 142.26 Z" fill="#6d9d5e" />
<path d="M 86.58 143.18 C 88.53 143.36 90.49 143.88 92.39 144.31 C 90.72 146.55 89.20 148.49 86.54 149.61 C 84.71 150.35 84.04 151.74 83.04 153.32 C 81.59 152.09 80.12 150.89 78.64 149.70 C 82.76 148.31 84.80 147.29 86.58 143.18 Z" fill="#b4cadd" />
<path d="M 63.06 143.85 C 65.21 145.27 67.15 147.01 69.24 148.52 C 68.40 149.48 67.57 150.44 66.74 151.40 C 62.31 149.67 58.28 148.53 53.48 148.43 C 56.21 146.45 59.46 143.62 63.06 143.85 Z" fill="#b4cadd" />
<path d="M 99.38 144.31 C 101.97 142.82 101.24 147.82 99.13 146.78 C 98.65 145.98 98.73 145.16 99.38 144.31 Z" fill="#7c6641" />
<path d="M 113.21 143.55 L 113.73 143.49 C 114.80 147.61 117.86 148.70 121.34 150.33 C 119.79 151.31 118.22 152.27 116.64 153.20 C 115.81 151.60 115.51 150.13 113.65 149.46 C 110.87 148.28 109.40 147.05 107.53 144.65 C 109.40 144.12 111.27 143.73 113.21 143.55 Z" fill="#b4cadd" />
<path d="M 95.00 144.62 C 97.16 144.22 98.47 147.25 99.70 148.61 C 99.63 149.83 99.57 151.05 99.51 152.26 C 96.96 153.40 95.01 155.22 92.79 156.86 C 91.06 157.91 90.37 160.00 90.22 161.92 C 91.33 164.61 92.64 167.21 93.56 169.98 C 91.33 171.86 89.18 173.37 86.10 173.00 C 83.40 170.94 84.29 167.92 84.09 164.97 C 84.18 162.36 82.44 159.64 83.18 157.16 C 84.41 156.73 85.68 156.42 86.99 156.23 C 86.19 155.18 85.40 154.14 84.72 153.00 C 84.98 150.94 87.16 150.66 88.63 149.57 C 90.93 148.33 92.43 145.10 95.00 144.62 Z" fill="#8b2e45" />
<path d="M 103.99 144.35 C 106.44 144.65 107.51 146.33 109.20 147.84 C 110.67 149.28 112.78 150.19 114.61 151.15 C 115.12 152.47 115.64 153.78 116.18 155.08 C 114.79 154.16 113.62 154.37 112.65 155.70 C 114.28 156.11 115.78 155.86 116.99 157.15 C 116.92 159.79 116.07 162.32 116.11 164.99 C 115.85 167.96 117.02 170.74 114.12 172.68 C 111.67 173.07 109.55 171.97 107.91 170.22 C 108.48 167.87 109.31 165.49 109.60 163.11 L 109.41 161.69 L 109.37 161.40 C 109.66 159.20 110.79 157.60 112.10 155.88 C 111.16 156.30 110.21 156.72 109.26 157.13 C 107.97 156.64 106.68 156.15 105.39 155.64 C 103.86 153.81 102.59 153.04 100.34 152.25 C 99.92 148.96 100.60 145.70 103.99 144.35 Z" fill="#8b2e45" />
<path d="M 136.84 144.59 C 140.82 144.78 143.50 147.01 146.48 149.35 C 141.73 149.36 137.67 150.42 133.30 152.17 C 132.46 151.20 131.61 150.23 130.76 149.26 C 132.82 147.74 134.82 146.15 136.84 144.59 Z" fill="#b4cadd" />
<path d="M 71.96 149.50 C 76.83 149.00 79.79 152.39 83.07 155.34 C 82.49 156.93 82.05 158.52 81.69 160.18 C 77.25 160.45 71.61 159.74 68.04 156.86 C 66.22 154.08 68.54 149.58 71.96 149.50 Z" fill="#b4cadd" />
<path d="M 127.98 150.04 C 131.50 150.33 133.66 154.77 131.70 157.69 C 127.86 160.26 122.55 160.90 118.03 160.58 C 118.00 158.69 117.74 157.08 117.13 155.31 C 120.34 152.57 123.37 149.49 127.98 150.04 Z" fill="#b4cadd" />
<path d="M 97.95 153.69 C 100.62 153.72 102.78 153.14 104.19 155.98 C 103.22 159.26 99.85 157.14 97.15 158.34 C 95.70 155.61 96.07 155.80 97.95 153.69 Z" fill="#ffffff" />
<path d="M 88.39 156.11 C 89.68 155.32 91.58 157.69 89.50 157.82 C 88.39 157.43 88.02 156.86 88.39 156.11 Z" fill="#36121b" />
<path d="M 150.41 156.39 C 153.84 155.37 157.97 155.72 161.44 156.50 C 165.49 158.67 167.93 162.92 168.07 167.47 C 167.01 168.76 166.30 170.04 165.70 171.58 C 168.58 171.14 171.35 170.49 174.14 169.64 C 170.51 174.80 167.98 180.54 167.81 186.94 C 164.16 185.43 160.76 186.10 157.04 186.85 C 151.95 187.76 147.13 186.12 143.75 182.20 L 143.30 181.54 C 143.84 181.32 144.39 181.14 144.96 180.99 C 148.30 183.01 151.18 183.96 155.08 184.38 C 153.58 184.75 152.11 185.25 150.67 185.88 C 153.55 185.60 156.07 184.44 158.90 183.84 C 161.69 180.61 162.56 176.82 163.82 172.87 C 164.53 170.48 165.91 168.48 166.89 166.22 C 166.18 163.69 164.99 160.86 162.99 159.08 C 160.13 156.82 155.67 156.70 152.22 157.21 C 147.85 158.56 144.05 162.63 140.40 165.34 C 131.13 172.57 120.35 179.76 108.92 182.85 C 100.28 185.32 91.64 183.86 83.48 180.50 C 72.26 175.88 62.85 169.10 53.38 161.66 C 49.62 158.79 45.66 157.08 40.92 158.68 C 36.23 159.30 33.67 163.70 33.01 167.98 C 34.01 170.02 35.25 171.86 36.01 174.02 C 37.33 177.47 38.34 182.30 41.14 184.85 C 43.62 186.39 47.14 185.94 49.92 187.03 L 46.98 185.43 C 50.70 184.47 53.97 183.15 57.06 180.84 C 67.60 188.41 79.97 194.51 93.00 195.91 C 97.64 196.03 102.36 196.11 106.99 195.85 C 120.17 194.17 131.39 188.25 142.10 180.70 L 142.61 181.76 C 132.55 189.22 120.54 195.34 108.00 196.96 C 102.40 197.31 96.61 197.35 91.01 196.94 C 78.87 195.26 67.13 189.58 57.24 182.48 C 54.54 185.17 52.09 187.72 48.06 188.06 C 42.55 188.78 37.99 186.32 32.63 188.44 C 31.98 181.99 29.51 176.51 25.73 171.31 C 28.54 172.15 31.35 172.88 34.29 173.08 C 33.53 171.63 32.71 170.24 31.80 168.87 C 31.96 164.53 33.69 161.22 37.01 158.47 C 41.63 156.55 47.73 155.93 51.98 159.08 C 57.28 162.72 62.13 166.97 67.59 170.41 C 77.35 176.79 89.07 182.91 101.01 182.75 C 113.95 181.91 126.37 174.13 136.57 166.60 C 141.20 163.37 145.34 158.87 150.41 156.39 Z" fill="#3c4645" />
<path d="M 96.86 159.08 C 95.95 160.68 95.72 162.28 95.57 164.09 C 94.27 164.39 93.11 164.33 92.10 163.88 C 90.56 162.05 91.66 158.70 93.42 157.38 C 95.43 156.07 95.56 157.94 96.86 159.08 Z" fill="#ffffff" />
<path d="M 106.91 157.02 C 108.60 157.49 108.96 159.99 109.37 161.40 L 109.41 161.69 C 108.49 164.63 108.04 164.01 105.41 163.77 C 105.01 161.95 104.49 160.26 103.61 158.60 C 104.70 157.61 105.19 156.44 106.91 157.02 Z" fill="#ffffff" />
<path d="M 152.22 157.21 C 155.67 156.70 160.13 156.82 162.99 159.08 C 164.99 160.86 166.18 163.69 166.89 166.22 C 165.91 168.48 164.53 170.48 163.82 172.87 C 162.56 176.82 161.69 180.61 158.90 183.84 C 156.07 184.44 153.55 185.60 150.67 185.88 C 152.11 185.25 153.58 184.75 155.08 184.38 C 151.18 183.96 148.30 183.01 144.96 180.99 C 144.39 181.14 143.84 181.32 143.30 181.54 L 142.61 181.76 L 142.10 180.70 C 131.39 188.25 120.17 194.17 106.99 195.85 C 102.36 196.11 97.64 196.03 93.00 195.91 C 79.97 194.51 67.60 188.41 57.06 180.84 C 53.97 183.15 50.70 184.47 46.98 185.43 L 49.92 187.03 C 47.14 185.94 43.62 186.39 41.14 184.85 C 38.34 182.30 37.33 177.47 36.01 174.02 C 35.25 171.86 34.01 170.02 33.01 167.98 C 33.67 163.70 36.23 159.30 40.92 158.68 C 45.66 157.08 49.62 158.79 53.38 161.66 C 62.85 169.10 72.26 175.88 83.48 180.50 C 91.64 183.86 100.28 185.32 108.92 182.85 C 120.35 179.76 131.13 172.57 140.40 165.34 C 144.05 162.63 147.85 158.56 152.22 157.21 Z" fill="#b4cadd" />
<path d="M 100.00 158.78 C 103.51 158.50 105.12 162.17 103.15 164.93 C 101.46 164.43 99.79 163.91 98.14 163.31 L 96.94 165.14 C 96.82 162.22 96.25 159.23 100.00 158.78 Z" fill="#ffffff" />
<path d="M 150.40 164.66 C 149.19 165.05 147.96 165.39 146.72 165.66 L 148.47 167.79 C 150.07 169.20 151.17 166.30 152.07 165.39 C 152.12 166.53 152.02 167.61 151.76 168.65 C 148.98 171.94 145.36 168.28 145.89 164.95 C 147.50 163.64 149.30 161.48 150.40 164.66 Z" fill="#343a40" />
<path d="M 50.39 164.07 C 53.12 163.09 50.90 168.08 50.95 169.09 C 52.01 167.97 53.09 166.86 54.21 165.79 C 54.34 168.36 51.61 170.24 50.02 172.00 C 49.38 170.23 49.81 168.61 50.09 166.81 C 49.00 167.73 47.88 168.57 46.66 169.31 C 47.40 167.16 48.66 165.52 50.39 164.07 Z" fill="#24292d" />
<path d="M 96.03 164.66 C 97.33 165.85 98.56 166.62 100.19 167.31 C 100.03 169.11 100.17 170.70 97.95 171.02 C 95.47 170.50 94.21 168.77 92.88 166.78 C 93.70 165.78 94.75 165.07 96.03 164.66 Z" fill="#ffffff" />
<path d="M 99.16 164.94 L 99.89 164.56 L 100.67 164.98 L 100.72 165.78 L 99.99 166.15 L 99.21 165.74 L 99.16 164.94 Z" fill="#a76777" />
<path d="M 105.02 164.33 C 106.21 165.01 108.24 165.16 107.99 166.97 C 107.45 169.70 103.47 172.37 100.95 169.91 C 101.04 169.06 101.14 168.22 101.24 167.37 C 102.48 166.34 103.75 165.33 105.02 164.33 Z" fill="#ffffff" />
<path d="M 153.20 165.10 L 154.00 164.74 L 154.79 165.10 L 154.78 165.86 L 153.98 166.22 L 153.19 165.86 L 153.20 165.10 Z" fill="#2e3438" />
<path d="M 56.50 168.60 C 58.58 169.00 59.02 170.61 59.14 172.56 C 59.93 172.34 60.73 172.12 61.53 171.90 C 62.52 172.80 63.52 173.69 64.52 174.57 C 66.99 175.71 69.36 177.01 71.70 178.39 C 71.43 179.33 71.16 180.26 70.88 181.19 C 72.34 180.60 73.89 180.31 75.36 179.74 C 74.61 181.14 73.87 182.54 73.10 183.92 C 73.27 184.56 73.44 185.19 73.62 185.82 C 75.08 184.13 76.56 182.47 78.07 180.84 C 79.75 182.76 78.85 186.31 78.91 188.68 C 78.02 187.85 77.18 186.96 76.39 186.01 C 75.70 186.24 75.00 186.46 74.31 186.69 C 73.21 186.12 72.10 185.56 71.00 185.00 C 71.33 183.95 71.70 182.90 72.09 181.86 C 70.41 182.29 69.02 183.19 67.71 184.30 C 68.28 182.11 69.18 180.07 70.11 178.02 C 66.03 177.27 67.21 181.48 63.83 182.23 C 64.30 180.56 65.11 179.12 66.06 177.68 C 65.62 176.75 65.18 175.83 64.74 174.90 C 63.58 176.72 62.41 178.54 61.17 180.31 C 60.80 178.80 60.79 177.29 60.81 175.75 C 59.70 176.46 58.66 177.26 57.64 178.09 C 57.77 176.76 58.19 175.48 58.91 174.25 C 57.36 174.59 54.78 176.04 53.51 174.48 C 51.01 172.33 53.52 168.08 56.50 168.60 Z" fill="#3a4147" />
<path d="M 143.22 167.71 C 142.45 169.02 141.62 170.29 140.75 171.53 C 141.94 170.96 143.15 170.41 144.36 169.88 C 143.81 170.88 143.14 171.82 142.35 172.70 L 143.80 174.97 C 141.36 175.78 139.95 171.77 138.78 170.20 C 140.17 169.15 141.61 168.37 143.22 167.71 Z" fill="#30363b" />
<path d="M 55.43 170.08 C 56.73 169.45 58.11 171.19 57.23 172.18 C 56.48 173.19 55.92 174.91 54.50 173.52 C 53.20 172.48 54.42 170.83 55.43 170.08 Z" fill="#b2c8db" />
<path d="M 93.84 170.13 C 96.68 171.75 97.48 172.37 100.70 171.20 C 103.28 172.28 104.51 171.78 106.97 170.78 C 107.85 171.42 108.74 172.05 109.63 172.68 C 110.01 175.07 110.79 177.04 108.92 179.07 C 105.62 179.41 102.34 178.64 99.02 179.15 C 96.45 179.40 92.88 180.28 91.03 177.89 C 90.22 175.84 91.10 174.07 92.21 172.36 C 92.74 171.62 93.29 170.87 93.84 170.13 Z" fill="#8b2e45" />
<path d="M 171.08 171.87 C 168.88 176.04 166.96 180.17 166.77 184.96 C 164.41 184.92 162.06 184.93 159.70 185.02 C 162.73 181.52 163.84 177.38 165.17 173.07 C 167.14 172.67 169.11 172.26 171.08 171.87 Z" fill="#b4cadd" />
<path d="M 63.01 175.92 C 61.37 176.50 60.72 175.31 60.05 174.07 C 61.69 173.50 63.51 173.65 63.01 175.92 Z" fill="#72808a" />
<path d="M 134.66 172.49 L 135.96 172.99 C 137.20 174.43 138.65 176.13 139.12 178.01 C 137.96 179.10 135.42 177.12 134.25 176.80 C 134.95 178.02 135.63 179.25 136.29 180.48 C 133.24 180.02 132.64 176.93 131.53 174.55 C 133.17 175.00 134.78 175.56 136.37 176.21 L 134.66 172.49 Z" fill="#394045" />
<path d="M 28.91 173.79 C 30.82 173.95 32.73 174.07 34.65 174.18 C 36.15 178.53 37.30 182.72 40.43 186.26 C 38.07 185.93 36.11 186.05 33.80 186.59 C 32.82 182.03 31.49 177.72 28.91 173.79 Z" fill="#b4cadd" />
<path d="M 88.21 174.11 C 90.24 172.65 90.81 175.50 88.84 176.07 C 87.75 175.91 87.54 175.25 88.21 174.11 Z" fill="#8e7249" />
<path d="M 111.25 174.05 L 111.97 173.75 L 112.73 174.26 L 112.80 175.09 L 112.08 175.39 L 111.32 174.87 L 111.25 174.05 Z" fill="#9d7f51" />
<path d="M 154.00 175.16 C 156.05 175.40 158.88 176.80 159.31 179.01 C 158.79 181.27 156.04 182.24 154.02 182.59 C 150.73 183.06 147.02 180.58 143.97 179.47 C 147.06 177.50 150.08 174.81 154.00 175.16 Z" fill="#000000" />
<path d="M 45.45 176.51 C 49.68 175.76 52.79 178.33 56.02 180.59 C 53.41 181.73 50.78 183.09 48.04 183.86 C 45.58 184.10 42.21 183.15 40.85 180.93 C 40.55 178.60 43.52 176.95 45.45 176.51 Z" fill="#000000" />
<path d="M 129.75 175.64 C 132.09 176.70 132.49 180.75 132.15 183.03 C 131.02 182.03 129.90 181.02 128.79 180.00 L 129.94 184.33 C 127.11 183.50 125.33 181.29 124.12 178.72 C 125.56 179.39 126.88 180.30 128.09 181.45 C 127.78 179.38 125.84 178.44 128.23 177.38 C 129.11 178.35 129.98 179.33 130.86 180.30 C 130.47 178.75 130.10 177.20 129.75 175.64 Z" fill="#23272b" />
<path d="M 125.28 182.77 C 126.47 184.41 125.35 185.33 124.85 186.97 C 123.62 187.08 122.20 187.61 121.04 186.96 C 119.81 185.99 119.43 184.63 118.85 183.24 C 119.34 182.52 119.84 181.81 120.35 181.11 C 122.56 180.51 124.13 180.39 125.28 182.77 Z" fill="#373d43" />
<path d="M 121.09 182.05 C 124.01 181.53 124.06 184.00 124.05 186.17 C 120.96 185.72 120.74 185.05 121.09 182.05 Z" fill="#b8cee1" />
<path d="M 83.15 182.66 C 83.61 184.23 83.66 185.90 83.30 187.66 C 84.14 186.41 84.99 185.18 85.85 183.96 C 89.56 186.25 95.01 185.58 99.18 186.78 C 96.09 188.24 96.65 190.80 95.07 193.33 C 94.74 191.11 95.70 188.15 93.87 186.57 C 93.29 187.46 92.71 188.35 92.12 189.23 C 90.39 189.77 89.22 188.85 88.71 191.09 L 87.08 191.04 C 87.71 188.87 88.31 187.29 87.40 185.09 C 86.70 186.84 86.57 190.10 84.65 191.04 L 85.03 187.75 C 84.16 188.70 83.73 189.78 82.39 190.12 L 81.78 188.04 C 81.13 188.52 80.48 189.00 79.83 189.47 C 80.58 187.36 80.40 183.14 83.15 182.66 Z" fill="#343a40" />
<path d="M 118.40 182.78 C 117.96 183.48 117.51 184.18 117.06 184.88 C 117.38 186.54 119.54 189.01 117.51 190.22 C 116.88 188.67 116.27 187.11 115.67 185.55 C 114.71 185.48 113.75 185.41 112.79 185.34 C 114.38 183.68 116.21 183.24 118.40 182.78 Z" fill="#40484f" />
<path d="M 77.19 184.21 L 77.72 184.19 L 77.73 184.72 L 77.20 184.74 L 77.19 184.21 Z" fill="#9eb1c2" />
<path d="M 148.98 184.24 L 149.50 184.24 L 149.50 184.76 L 148.98 184.76 L 148.98 184.24 Z" fill="#8696a4" />
<path d="M 101.80 186.27 C 103.92 187.00 104.97 188.25 106.72 186.03 C 107.81 187.18 108.94 188.30 110.08 189.40 L 108.96 185.68 L 110.75 186.01 C 111.24 188.07 111.59 190.17 111.95 192.26 C 110.19 191.86 109.15 190.63 107.90 189.45 C 107.92 190.76 107.91 192.06 107.89 193.36 C 106.31 191.96 106.22 190.26 105.76 188.27 L 105.66 187.73 C 104.96 189.49 104.59 191.38 104.00 193.18 C 102.73 193.14 101.47 193.06 100.21 192.94 C 98.49 191.58 99.09 189.98 98.91 188.06 C 99.85 187.41 100.80 186.81 101.80 186.27 Z" fill="#33393f" />
<path d="M 89.61 187.06 L 90.42 186.71 L 91.20 187.10 L 91.17 187.85 C 89.96 188.39 89.44 188.13 89.61 187.06 Z" fill="#b1c7cf" />
<path d="M 102.78 187.91 C 103.15 188.60 103.51 189.30 103.87 190.00 C 103.43 190.65 102.98 191.29 102.51 191.93 C 100.95 192.33 100.78 190.89 99.86 189.96 C 100.82 188.60 100.90 187.90 102.78 187.91 Z" fill="#a5bacb" />
</svg>