<?xml version="1.0" encoding="UTF-8" standalone="no"?>
<!DOCTYPE svg PUBLIC "-//W3C//DTD SVG 1.1//EN" "http://www.w3.org/Graphics/SVG/1.1/DTD/svg11.dtd">
<svg xmlns="http://www.w3.org/2000/svg" version="1.1" viewBox="0 0 200 200" width="200.0pt" height="200.0pt">
<path d="M 0.00 0.00 L 96.40 0.00 C 88.17 0.71 79.72 1.95 71.80 4.34 C 51.11 10.43 32.58 23.46 19.81 40.83 C 9.78 54.32 3.20 70.46 1.11 87.14 C 0.37 90.03 0.45 93.24 0.00 96.12 L 0.00 0.00 Z" fill="#ffffff" />
<path d="M 96.40 0.00 L 104.82 0.00 L 105.69 0.14 C 124.08 1.53 141.93 7.25 157.10 17.86 C 181.39 34.50 197.69 61.98 200.00 91.41 L 200.00 109.83 C 198.24 129.04 190.75 147.62 178.68 162.66 C 161.92 183.85 136.50 197.74 109.55 200.00 L 91.13 200.00 C 72.40 198.41 54.17 191.21 39.31 179.71 C 21.51 166.05 8.51 146.36 3.16 124.55 C 1.56 118.02 0.62 111.22 0.00 104.53 L 0.00 96.12 C 0.45 93.24 0.37 90.03 1.11 87.14 C 3.20 70.46 9.78 54.32 19.81 40.83 C 32.58 23.46 51.11 10.43 71.80 4.34 C 79.72 1.95 88.17 0.71 96.40 0.00 Z" fill="#00367a" />
<path d="M 104.82 0.00 L 200.00 0.00 L 200.00 91.41 C 197.69 61.98 181.39 34.50 157.10 17.86 C 141.93 7.25 124.08 1.53 105.69 0.14 L 104.82 0.00 Z" fill="#ffffff" />
<path d="M 115.01 3.46 C 137.77 6.81 159.04 18.55 174.11 35.92 C 189.15 52.95 197.79 75.29 198.29 98.00 C 198.66 114.12 195.04 130.32 187.69 144.69 C 176.06 167.72 155.07 185.70 130.49 193.56 C 118.17 197.51 104.89 199.16 92.01 197.90 C 70.72 196.30 50.02 187.12 34.32 172.69 C 17.82 157.73 6.72 137.06 3.47 115.02 C 0.88 97.96 2.85 80.23 9.26 64.20 C 19.04 39.32 39.33 19.04 64.20 9.26 C 80.24 2.85 97.94 0.88 115.01 3.46 Z" fill="#ffffff" />
<path d="M 87.45 6.53 C 89.41 6.00 92.08 5.90 93.78 7.17 C 96.34 8.70 97.40 12.24 95.80 14.82 C 93.59 18.93 87.02 19.53 84.22 15.72 C 81.73 12.41 83.60 7.69 87.45 6.53 Z" fill="#00367a" />
<path d="M 103.23 6.29 C 105.17 5.35 107.66 5.54 109.57 6.48 C 112.99 8.01 114.16 12.78 111.57 15.57 C 108.60 19.17 101.84 18.30 100.00 13.93 C 98.63 10.95 100.31 7.53 103.23 6.29 Z" fill="#00367a" />
<path d="M 115.91 6.72 C 119.29 7.65 122.73 8.41 126.18 9.03 L 126.90 9.80 L 126.29 11.45 C 125.04 11.16 123.81 10.82 122.59 10.43 C 121.08 12.83 121.30 17.51 119.86 19.72 C 118.99 19.55 118.13 19.36 117.28 19.15 C 117.96 16.04 118.66 12.94 119.42 9.85 C 118.07 9.44 116.53 9.40 115.28 8.74 C 115.37 8.01 115.58 7.34 115.91 6.72 Z" fill="#00367a" />
<path d="M 104.47 8.58 C 107.03 7.51 110.20 8.91 109.89 12.00 C 109.87 14.81 106.51 16.25 104.28 14.72 C 101.88 13.40 102.12 9.87 104.47 8.58 Z" fill="#ffffff" />
<path d="M 78.09 8.23 L 79.15 8.91 C 79.23 11.25 75.82 10.72 74.20 11.62 C 74.25 12.66 74.55 13.43 75.10 13.94 C 76.96 14.03 79.95 11.28 80.46 14.13 C 79.99 15.64 76.99 15.44 75.68 16.05 C 75.46 17.56 76.56 19.15 76.71 20.71 C 75.85 21.14 74.91 21.42 73.90 21.55 C 73.14 17.86 71.23 13.91 71.12 10.21 C 73.44 9.54 75.76 8.86 78.09 8.23 Z" fill="#00367a" />
<path d="M 87.40 9.47 C 89.73 7.63 93.38 8.87 93.45 11.99 C 93.79 14.65 90.77 16.36 88.44 15.53 C 85.95 14.77 85.31 11.02 87.40 9.47 Z" fill="#ffffff" />
<path d="M 130.70 10.45 C 132.82 11.60 135.56 12.03 137.34 13.67 C 138.52 15.60 138.11 17.23 136.04 18.19 C 137.33 20.29 137.33 22.60 134.88 23.77 C 132.07 24.38 128.88 22.25 126.27 21.34 C 127.87 17.76 129.10 14.03 130.70 10.45 Z" fill="#00367a" />
<path d="M 132.86 13.50 C 133.66 13.97 134.42 14.49 135.16 15.04 C 134.82 17.26 132.53 16.96 131.61 15.33 L 132.86 13.50 Z" fill="#ffffff" />
<path d="M 56.89 16.31 C 58.34 19.09 59.68 21.92 61.13 24.69 C 63.07 24.14 64.71 22.50 66.70 22.26 L 67.48 24.03 C 64.85 25.15 62.09 27.17 59.38 27.82 C 57.68 24.45 56.04 21.04 54.23 17.72 C 54.98 17.07 55.87 16.61 56.89 16.31 Z" fill="#00367a" />
<path d="M 131.81 18.25 C 132.73 18.65 134.86 19.57 133.72 20.81 C 133.41 22.09 131.00 20.99 130.23 20.71 C 130.06 19.67 130.23 17.61 131.81 18.25 Z" fill="#ffffff" />
<path d="M 146.79 17.85 C 147.84 18.36 148.80 18.98 149.67 19.70 C 149.13 23.87 148.62 28.04 148.19 32.22 C 147.32 31.77 146.45 31.30 145.60 30.82 C 145.58 29.93 145.61 29.03 145.69 28.12 C 144.25 27.23 142.76 26.36 141.27 25.55 C 140.02 27.44 137.61 27.06 137.14 25.14 C 140.38 22.75 143.49 20.15 146.79 17.85 Z" fill="#00367a" />
<path d="M 114.48 22.36 C 136.29 26.16 155.94 39.62 167.60 58.41 C 177.72 74.52 181.65 94.25 178.56 113.02 C 176.28 127.47 169.82 141.18 160.23 152.23 C 147.79 166.67 129.91 176.43 110.98 178.84 C 93.56 181.28 75.44 177.66 60.28 168.73 C 43.26 158.80 30.25 142.39 24.54 123.53 C 19.46 106.89 20.01 88.45 26.24 72.19 C 33.23 53.63 47.44 38.00 65.25 29.26 C 80.38 21.71 97.86 19.39 114.48 22.36 Z" fill="#00367a" />
<path d="M 146.78 21.20 C 146.58 22.75 146.35 24.29 146.14 25.83 C 145.15 25.46 144.21 24.91 143.29 24.40 C 143.57 23.02 145.78 22.17 146.78 21.20 Z" fill="#ffffff" />
<path d="M 46.19 22.65 C 48.11 25.22 49.77 27.99 51.69 30.56 C 53.37 29.54 54.88 27.88 56.76 27.28 L 57.75 29.01 C 55.39 30.58 53.02 32.15 50.74 33.84 C 48.19 31.42 45.94 27.26 43.87 24.24 C 44.63 23.69 45.40 23.16 46.19 22.65 Z" fill="#00367a" />
<path d="M 156.89 24.27 C 157.66 24.88 158.41 25.50 159.14 26.15 C 157.25 28.71 155.02 31.03 153.17 33.61 C 154.69 34.85 156.23 36.06 157.72 37.33 C 157.45 37.82 157.14 38.30 156.79 38.75 L 156.03 38.76 C 153.89 36.91 151.55 35.26 149.49 33.33 C 151.99 30.34 154.44 27.30 156.89 24.27 Z" fill="#00367a" />
<path d="M 37.16 29.85 C 41.12 31.48 45.03 33.23 48.98 34.90 C 48.27 35.63 47.53 36.31 46.75 36.95 C 45.90 36.67 45.06 36.39 44.22 36.11 C 42.95 37.28 41.59 38.40 40.49 39.73 L 41.48 41.89 C 40.68 42.58 39.87 43.25 39.04 43.90 C 37.74 39.93 36.12 36.07 34.67 32.15 C 35.49 31.37 36.32 30.60 37.16 29.85 Z" fill="#00367a" />
<path d="M 38.00 33.12 C 39.40 33.69 40.77 34.36 42.15 35.00 C 41.48 35.86 40.72 36.66 39.88 37.40 C 38.92 36.21 38.48 34.55 38.00 33.12 Z" fill="#ffffff" />
<path d="M 166.19 32.38 C 167.00 32.96 167.69 33.72 168.26 34.64 C 165.92 36.74 163.69 38.95 161.35 41.04 C 162.15 42.67 167.78 45.63 163.86 46.83 C 162.12 44.71 159.16 42.54 158.02 40.17 C 160.72 37.55 163.54 35.05 166.19 32.38 Z" fill="#00367a" />
<path d="M 30.05 36.13 C 32.19 39.76 34.24 43.46 36.46 47.05 L 36.26 48.23 C 33.39 48.14 30.33 47.25 27.50 46.65 C 28.78 49.13 30.12 51.56 31.48 53.98 L 31.07 55.24 C 26.75 54.32 22.44 53.32 18.14 52.29 C 18.70 51.38 19.39 50.58 20.11 49.78 C 22.34 50.36 24.58 50.90 26.82 51.43 C 25.74 49.28 24.44 47.23 23.37 45.07 L 24.85 43.28 C 27.19 43.64 29.45 44.36 31.80 44.65 C 30.63 42.72 29.44 40.79 28.26 38.86 C 28.67 37.88 29.27 36.97 30.05 36.13 Z" fill="#00367a" />
<path d="M 116.00 45.89 C 118.61 46.29 120.90 45.76 122.85 47.89 C 120.59 47.73 118.33 47.69 116.08 47.43 C 117.57 49.44 122.21 48.90 121.70 51.67 C 119.79 54.81 117.28 53.18 114.38 53.43 C 111.28 52.88 107.70 54.66 105.13 56.32 C 104.21 58.07 104.36 59.68 104.40 61.59 C 105.66 60.43 106.86 59.31 107.91 57.94 C 110.07 59.07 111.94 59.50 114.38 59.69 C 114.37 58.44 114.39 57.19 114.46 55.94 C 115.17 57.37 115.37 58.88 115.77 60.42 C 117.34 59.21 119.03 57.92 120.86 57.17 C 121.92 57.77 122.96 58.39 124.02 58.99 C 124.97 61.00 123.71 63.64 124.55 65.81 C 125.27 67.78 125.15 69.73 125.28 71.78 C 124.55 71.71 123.83 71.65 123.10 71.59 C 123.42 72.74 123.81 73.87 124.10 75.03 C 122.86 76.34 122.27 77.75 122.31 79.25 C 123.68 78.19 125.02 77.08 126.39 76.01 C 126.25 74.67 126.05 73.35 125.78 72.02 C 126.54 72.24 127.30 72.47 128.05 72.69 C 127.72 70.70 127.12 68.94 126.29 67.10 C 127.60 67.44 128.89 67.90 130.14 68.47 C 129.27 66.75 127.48 66.09 126.49 64.52 C 126.15 63.30 125.86 62.06 125.63 60.81 C 126.27 60.35 126.92 59.89 127.57 59.44 C 128.05 57.48 126.59 55.60 126.55 53.69 C 129.11 54.77 128.85 56.16 129.33 58.53 C 130.14 58.82 130.95 59.11 131.75 59.40 C 132.37 60.82 130.97 62.48 131.52 64.01 C 132.16 66.72 131.58 69.35 131.94 72.07 C 131.43 72.66 130.91 73.25 130.38 73.82 C 130.58 76.26 131.40 78.10 130.12 80.43 C 132.03 81.39 134.00 82.35 136.06 82.95 C 138.10 83.32 140.19 82.91 142.25 83.33 C 137.83 85.61 134.29 84.07 129.89 83.07 C 130.51 84.20 131.18 85.30 131.94 86.35 C 136.45 86.89 140.64 85.94 144.99 84.89 C 148.13 85.22 151.03 85.89 154.21 85.21 L 153.88 84.25 C 151.06 83.32 147.97 82.87 145.01 82.89 C 148.30 81.87 151.79 82.45 155.19 81.65 C 157.46 81.15 158.95 82.29 161.01 82.94 C 164.69 82.08 167.41 80.46 171.13 82.60 C 168.05 82.03 165.37 82.40 162.35 83.07 L 162.03 84.59 C 163.16 84.48 164.28 84.37 165.41 84.27 C 165.34 84.82 165.27 85.36 165.20 85.91 C 166.15 85.80 167.10 85.72 168.05 85.66 C 169.17 86.28 169.88 87.24 170.88 88.02 C 171.58 87.62 172.28 87.21 172.98 86.82 C 173.88 87.50 174.21 88.22 173.96 88.98 C 171.79 90.71 170.41 90.66 167.75 90.99 C 168.29 91.47 168.82 91.96 169.34 92.45 C 169.01 92.89 168.44 93.38 167.60 93.93 C 170.35 94.51 170.37 93.84 172.12 92.01 C 172.74 92.83 173.38 93.65 174.02 94.46 C 173.90 93.20 173.74 91.95 173.52 90.70 C 174.12 89.55 174.78 88.43 175.32 87.24 C 176.93 88.56 176.04 95.04 173.72 95.75 C 170.87 95.07 168.44 94.26 165.42 94.59 C 163.83 93.08 161.09 93.34 159.00 93.18 C 155.76 93.59 154.38 90.30 150.98 91.66 C 147.59 92.06 145.10 94.23 141.79 94.80 C 140.39 95.22 139.36 96.44 137.99 96.88 C 135.34 96.40 133.83 98.25 131.12 97.69 C 130.09 98.37 129.14 99.28 128.02 99.81 C 127.39 99.63 126.77 99.46 126.15 99.28 C 125.24 103.11 122.39 105.28 119.20 107.21 C 115.86 108.78 112.02 109.22 108.55 110.51 C 103.68 112.28 98.41 114.22 94.12 117.15 C 92.32 118.44 90.67 119.99 90.49 122.34 C 90.19 126.32 88.78 130.12 86.23 133.21 C 84.97 134.52 83.50 135.47 82.46 137.00 C 82.80 139.18 86.67 140.60 88.37 141.82 C 87.61 142.29 86.85 142.75 86.09 143.20 C 84.90 142.65 83.78 141.99 82.63 141.38 C 81.71 140.84 80.73 140.64 79.70 140.79 C 81.08 142.51 82.94 144.08 85.02 144.86 C 86.02 144.64 87.01 144.39 87.99 144.09 C 88.49 143.46 88.96 142.79 89.40 142.10 C 91.93 142.71 95.03 142.24 94.23 146.05 C 91.61 147.15 88.82 148.46 86.00 148.89 C 81.91 148.30 79.78 144.54 76.57 142.44 C 74.90 141.26 72.91 140.92 72.31 138.74 C 71.21 135.74 75.23 136.26 76.46 133.65 C 76.63 131.84 76.42 130.07 76.44 128.26 C 75.75 127.31 75.10 126.35 74.46 125.37 C 71.98 125.21 68.65 125.79 65.94 125.74 C 63.81 126.87 62.04 128.70 59.98 129.99 C 57.88 131.22 55.21 131.75 53.43 133.41 C 51.61 135.07 50.02 137.01 48.63 139.05 C 49.50 140.03 50.42 140.92 51.07 142.08 C 50.38 141.56 49.68 141.07 48.96 140.60 C 46.68 140.57 43.37 143.05 42.18 139.92 C 43.06 139.25 44.30 139.02 45.89 139.23 C 48.08 137.27 47.72 135.59 47.73 132.89 C 45.98 134.52 45.89 136.30 43.00 135.89 C 44.41 133.05 46.26 130.47 47.56 127.56 C 50.18 126.26 51.37 124.20 52.91 121.85 C 52.39 125.04 49.84 126.93 49.66 130.14 C 50.60 129.47 51.51 128.75 52.39 128.00 L 52.70 130.88 C 54.61 128.53 54.46 125.79 57.40 124.38 C 60.42 122.77 62.28 120.23 64.41 117.65 C 64.44 115.47 66.69 114.56 68.03 113.03 C 70.18 111.29 71.30 107.17 74.02 106.39 C 75.07 107.17 76.01 108.08 77.09 108.82 C 80.63 108.40 84.15 107.05 87.47 105.78 C 87.45 102.94 89.25 101.50 90.15 99.05 C 91.03 93.75 88.44 89.77 88.10 84.75 C 84.27 88.05 80.91 91.93 78.19 96.18 C 76.74 98.41 74.97 100.32 72.93 102.02 C 74.84 97.74 78.16 94.21 80.16 90.11 C 78.34 90.47 76.74 91.19 75.36 92.25 C 74.42 88.59 76.43 90.02 78.72 89.64 C 78.90 88.86 79.02 88.06 79.10 87.24 C 77.29 87.53 75.59 87.22 73.79 86.98 C 74.29 85.62 74.75 84.24 75.20 82.87 C 76.10 82.73 77.01 82.70 77.94 82.76 C 77.97 80.64 77.61 79.37 76.48 77.52 C 77.18 77.60 77.87 77.72 78.55 77.86 C 80.19 79.18 81.41 80.79 80.69 82.98 C 80.04 85.20 81.29 87.54 81.24 89.88 C 83.29 87.22 86.61 85.70 88.39 82.95 L 86.06 82.46 C 86.24 81.57 86.44 80.68 86.65 79.80 C 86.19 79.34 85.73 78.87 85.28 78.40 C 87.15 76.10 86.46 73.45 87.63 70.81 L 87.40 73.21 C 88.22 73.80 89.03 74.40 89.84 75.02 C 89.38 76.30 88.74 77.50 88.18 78.74 C 89.06 77.96 89.86 77.12 90.77 76.39 C 92.99 76.67 94.40 75.96 96.39 75.24 C 97.34 77.68 98.71 75.98 100.61 77.45 C 101.93 76.78 103.30 76.57 104.73 76.83 C 104.43 75.94 104.13 75.06 103.81 74.18 C 102.25 74.21 100.86 73.81 99.36 73.50 C 98.57 71.95 97.30 72.56 95.86 72.15 C 95.51 74.02 94.73 74.71 93.52 74.25 C 94.11 72.92 94.91 71.70 95.94 70.57 C 94.06 70.32 92.85 69.90 91.11 70.81 C 91.34 69.74 91.51 68.67 91.65 67.59 C 90.21 68.23 89.07 68.89 88.01 70.04 C 89.25 67.58 91.00 66.08 90.21 63.05 C 92.04 57.66 95.86 53.53 100.26 50.12 C 100.48 49.42 100.65 48.70 100.79 47.97 C 102.20 47.77 103.62 47.78 105.04 47.66 C 107.83 45.01 112.45 45.41 116.00 45.89 Z" fill="#91a4a4" />
<path d="M 109.53 47.07 C 111.52 47.35 113.24 46.94 114.34 48.99 C 114.57 50.29 112.86 51.26 111.93 51.93 C 110.82 51.80 109.71 51.55 108.60 51.44 C 107.29 53.38 105.96 51.92 104.29 52.87 C 104.32 53.42 104.34 53.98 104.36 54.53 L 101.39 54.38 C 101.65 55.30 103.38 56.76 102.89 57.60 C 100.60 58.05 100.94 58.96 100.05 60.78 C 98.93 58.79 98.27 55.97 101.62 55.93 C 100.99 55.39 100.38 54.83 99.80 54.23 C 98.08 55.85 97.06 57.61 98.00 59.95 C 99.02 61.96 98.96 63.91 98.86 66.11 C 96.70 64.85 95.30 62.72 93.22 61.48 C 94.11 60.72 95.60 60.10 95.86 58.89 C 96.68 56.08 98.46 54.25 101.04 52.96 L 101.58 51.28 C 102.69 51.18 103.81 51.09 104.93 50.99 L 104.36 48.40 C 105.63 48.48 106.91 48.54 108.18 48.60 C 108.83 49.21 109.48 49.81 110.13 50.42 C 109.93 49.30 109.74 48.19 109.53 47.07 Z" fill="#ffffff" />
<path d="M 116.08 47.43 C 118.33 47.69 120.59 47.73 122.85 47.89 C 124.96 49.65 125.99 50.93 126.55 53.69 C 126.59 55.60 128.05 57.48 127.57 59.44 C 126.92 59.89 126.27 60.35 125.63 60.81 C 125.86 62.06 126.15 63.30 126.49 64.52 C 127.48 66.09 129.27 66.75 130.14 68.47 C 128.89 67.90 127.60 67.44 126.29 67.10 C 127.12 68.94 127.72 70.70 128.05 72.69 C 127.30 72.47 126.54 72.24 125.78 72.02 C 126.05 73.35 126.25 74.67 126.39 76.01 C 125.02 77.08 123.68 78.19 122.31 79.25 C 122.27 77.75 122.86 76.34 124.10 75.03 C 123.81 73.87 123.42 72.74 123.10 71.59 C 123.83 71.65 124.55 71.71 125.28 71.78 C 125.15 69.73 125.27 67.78 124.55 65.81 C 123.71 63.64 124.97 61.00 124.02 58.99 C 122.96 58.39 121.92 57.77 120.86 57.17 C 119.03 57.92 117.34 59.21 115.77 60.42 C 115.37 58.88 115.17 57.37 114.46 55.94 C 114.39 57.19 114.37 58.44 114.38 59.69 C 111.94 59.50 110.07 59.07 107.91 57.94 C 106.86 59.31 105.66 60.43 104.40 61.59 C 104.36 59.68 104.21 58.07 105.13 56.32 C 107.70 54.66 111.28 52.88 114.38 53.43 C 117.28 53.18 119.79 54.81 121.70 51.67 C 122.21 48.90 117.57 49.44 116.08 47.43 Z" fill="#ffffff" />
<path d="M 182.95 55.87 C 182.32 56.37 181.63 56.80 180.88 57.15 C 180.59 55.24 180.29 53.53 178.89 52.10 C 177.33 50.42 173.88 50.69 173.16 53.10 C 171.86 55.98 174.95 58.42 177.00 59.94 L 174.87 60.97 C 170.33 59.11 167.97 51.81 172.90 48.86 C 177.73 46.09 183.01 50.95 182.95 55.87 Z" fill="#00367a" />
<path d="M 124.19 51.23 C 124.65 53.61 125.19 55.89 126.56 57.94 L 126.32 59.42 L 124.86 59.79 C 124.85 58.64 124.82 57.49 124.78 56.34 C 123.86 55.56 122.87 54.88 121.96 54.08 C 122.44 52.42 123.18 51.47 124.19 51.23 Z" fill="#91a4a4" />
<path d="M 26.74 57.37 L 28.31 57.99 C 28.23 60.43 25.73 63.49 24.78 65.94 C 21.26 65.20 17.59 62.47 14.17 61.01 C 14.51 59.94 15.03 59.06 15.73 58.38 C 18.43 59.93 21.24 61.30 24.02 62.69 C 24.92 60.91 25.76 59.10 26.74 57.37 Z" fill="#00367a" />
<path d="M 120.84 60.25 C 121.48 60.52 122.11 60.82 122.73 61.14 L 120.76 61.79 C 121.54 63.32 122.33 64.82 122.88 66.45 C 120.66 64.96 118.80 66.23 116.46 65.66 L 116.22 64.32 C 117.48 64.08 118.74 63.90 120.02 63.76 C 120.55 62.77 120.82 61.60 120.84 60.25 Z" fill="#ffffff" />
<path d="M 185.91 59.54 L 187.00 62.18 C 184.09 63.48 181.15 64.71 178.22 65.95 C 178.53 67.66 181.04 70.54 180.09 71.94 L 178.33 71.84 C 177.30 69.22 176.08 66.68 175.11 64.05 C 178.74 62.61 182.26 60.92 185.91 59.54 Z" fill="#00367a" />
<path d="M 110.02 62.39 C 110.33 62.83 110.64 63.27 110.95 63.71 C 112.50 63.77 113.80 64.16 114.85 64.88 C 113.20 67.10 110.32 64.53 107.96 66.50 C 108.34 64.82 108.76 63.63 110.02 62.39 Z" fill="#ffffff" />
<path d="M 93.63 63.27 C 93.95 64.30 93.63 65.38 92.66 66.49 C 90.63 66.47 91.87 62.42 93.63 63.27 Z" fill="#ffffff" />
<path d="M 104.17 65.16 C 103.86 66.32 103.43 67.46 103.11 68.62 C 103.93 68.79 104.75 68.98 105.56 69.18 C 106.81 72.18 106.79 73.71 106.21 76.90 C 105.34 75.04 105.21 73.71 105.47 71.63 C 103.81 71.02 102.45 71.05 101.66 69.23 C 101.07 69.30 100.49 69.38 99.90 69.46 C 100.18 66.63 101.99 66.30 104.17 65.16 Z" fill="#ffffff" />
<path d="M 21.72 67.39 L 23.37 67.79 C 23.61 70.30 21.45 73.63 20.93 76.29 C 17.56 75.75 13.54 73.77 10.11 72.77 C 10.07 71.62 10.05 69.42 11.84 70.23 C 14.47 71.07 17.04 72.26 19.73 72.89 C 20.46 71.08 20.97 69.20 21.72 67.39 Z" fill="#00367a" />
<path d="M 91.65 67.59 C 91.51 68.67 91.34 69.74 91.11 70.81 C 92.85 69.90 94.06 70.32 95.94 70.57 C 94.91 71.70 94.11 72.92 93.52 74.25 C 94.73 74.71 95.51 74.02 95.86 72.15 C 97.30 72.56 98.57 71.95 99.36 73.50 C 100.86 73.81 102.25 74.21 103.81 74.18 C 104.13 75.06 104.43 75.94 104.73 76.83 C 103.30 76.57 101.93 76.78 100.61 77.45 C 98.71 75.98 97.34 77.68 96.39 75.24 C 94.40 75.96 92.99 76.67 90.77 76.39 C 89.86 77.12 89.06 77.96 88.18 78.74 C 88.74 77.50 89.38 76.30 89.84 75.02 C 89.03 74.40 88.22 73.80 87.40 73.21 L 87.63 70.81 L 88.01 70.04 C 89.07 68.89 90.21 68.23 91.65 67.59 Z" fill="#ffffff" />
<path d="M 190.36 71.22 C 190.89 72.05 191.23 73.01 191.38 74.09 C 188.98 74.79 186.46 75.23 184.11 76.03 C 181.82 77.33 182.73 80.66 184.90 81.49 C 187.51 81.56 190.19 79.90 192.87 80.09 L 193.59 82.45 C 190.58 83.33 187.04 84.77 183.92 84.33 C 180.81 83.00 179.61 78.49 180.67 75.50 C 182.20 72.28 187.41 72.49 190.36 71.22 Z" fill="#00367a" />
<path d="M 77.68 73.94 C 76.89 76.88 77.32 75.78 78.55 77.86 C 77.87 77.72 77.18 77.60 76.48 77.52 C 77.61 79.37 77.97 80.64 77.94 82.76 C 77.01 82.70 76.10 82.73 75.20 82.87 C 74.75 84.24 74.29 85.62 73.79 86.98 C 75.59 87.22 77.29 87.53 79.10 87.24 C 79.02 88.06 78.90 88.86 78.72 89.64 C 76.43 90.02 74.42 88.59 75.36 92.25 C 74.66 92.53 74.21 92.94 73.66 93.44 C 71.12 93.09 68.54 94.49 65.97 94.69 C 59.47 95.94 51.82 98.14 48.32 104.29 C 46.33 107.89 48.83 110.39 49.00 113.99 C 46.35 114.43 45.90 110.89 45.54 109.01 C 45.06 104.68 47.52 102.13 50.14 99.15 C 55.51 95.27 61.60 93.95 68.06 93.25 C 70.02 92.64 74.38 92.23 74.70 89.80 C 73.93 88.81 72.78 88.03 72.21 86.92 C 72.20 84.72 73.75 83.59 74.79 81.77 C 75.80 80.67 75.41 78.83 75.53 77.42 C 76.48 76.35 76.77 75.01 77.68 73.94 Z" fill="#ffffff" />
<path d="M 114.20 74.48 C 115.26 74.40 116.32 74.36 117.38 74.37 C 117.91 75.11 118.44 75.85 118.95 76.61 C 116.63 76.31 114.31 76.21 111.99 76.52 C 112.72 75.83 113.45 75.14 114.20 74.48 Z" fill="#ffffff" />
<path d="M 9.02 76.64 C 12.61 77.60 16.25 78.37 19.85 79.28 C 19.98 80.57 19.71 81.55 19.02 82.23 C 15.45 81.13 11.75 80.47 8.15 79.48 C 8.08 79.06 8.44 76.27 9.02 76.64 Z" fill="#00367a" />
<path d="M 127.74 76.46 L 128.55 76.33 C 129.29 78.66 127.74 79.96 127.24 82.10 C 126.94 83.73 127.56 85.09 127.82 86.67 C 126.87 87.71 125.94 88.75 124.94 89.75 C 125.13 87.23 126.30 85.34 125.35 82.83 C 125.63 81.39 125.50 80.49 125.06 79.10 C 126.60 78.31 127.19 78.25 127.74 76.46 Z" fill="#ffffff" />
<path d="M 113.33 78.34 C 114.96 78.16 116.63 78.14 118.27 78.18 C 116.62 79.09 115.28 80.35 113.28 79.77 L 113.33 78.34 Z" fill="#ffffff" />
<path d="M 93.13 78.81 C 96.16 78.17 97.81 79.56 100.53 79.77 C 101.12 80.81 101.67 81.86 102.31 82.87 C 103.18 82.36 103.96 81.73 104.78 81.15 C 104.59 82.16 104.41 83.17 104.25 84.18 C 105.32 85.16 106.63 84.42 107.90 84.34 C 111.36 85.61 109.83 88.18 110.42 91.03 C 109.12 89.47 109.37 86.62 107.23 86.24 C 106.57 87.05 105.98 87.93 105.48 88.86 C 103.95 85.95 101.05 85.97 100.51 82.47 C 99.04 82.57 97.60 82.77 96.13 82.78 C 94.32 81.85 92.95 80.73 90.81 80.53 C 91.57 79.94 92.34 79.36 93.13 78.81 Z" fill="#ffffff" />
<path d="M 122.25 81.70 C 124.56 83.71 124.47 85.42 123.93 88.27 C 123.23 87.75 122.54 87.22 121.84 86.69 C 120.62 86.30 117.71 87.39 118.14 85.35 C 119.64 85.14 121.45 85.69 122.80 85.04 C 122.62 83.93 122.44 82.82 122.25 81.70 Z" fill="#ffffff" />
<path d="M 171.13 82.60 C 172.53 84.15 173.83 85.77 175.32 87.24 C 174.78 88.43 174.12 89.55 173.52 90.70 C 173.74 91.95 173.90 93.20 174.02 94.46 C 173.38 93.65 172.74 92.83 172.12 92.01 C 170.37 93.84 170.35 94.51 167.60 93.93 C 168.44 93.38 169.01 92.89 169.34 92.45 C 168.82 91.96 168.29 91.47 167.75 90.99 C 170.41 90.66 171.79 90.71 173.96 88.98 C 174.21 88.22 173.88 87.50 172.98 86.82 C 172.28 87.21 171.58 87.62 170.88 88.02 C 169.88 87.24 169.17 86.28 168.05 85.66 C 167.10 85.72 166.15 85.80 165.20 85.91 C 165.27 85.36 165.34 84.82 165.41 84.27 C 164.28 84.37 163.16 84.48 162.03 84.59 L 162.35 83.07 C 165.37 82.40 168.05 82.03 171.13 82.60 Z" fill="#ffffff" />
<path d="M 129.89 83.07 C 134.29 84.07 137.83 85.61 142.25 83.33 C 143.21 83.34 144.13 83.19 145.01 82.89 C 147.97 82.87 151.06 83.32 153.88 84.25 L 154.21 85.21 C 151.03 85.89 148.13 85.22 144.99 84.89 C 140.64 85.94 136.45 86.89 131.94 86.35 C 131.18 85.30 130.51 84.20 129.89 83.07 Z" fill="#ffffff" />
<path d="M 6.89 83.76 C 10.71 84.37 14.60 84.63 18.45 84.97 C 18.48 85.98 18.41 86.98 18.27 87.95 C 15.86 87.85 13.49 87.48 11.10 87.31 C 12.20 88.59 13.45 89.72 14.55 90.99 C 13.95 91.85 10.47 92.95 11.30 94.14 C 13.38 94.25 15.46 94.45 17.54 94.67 L 17.26 97.64 C 13.33 97.35 9.45 96.75 5.52 96.42 C 5.55 95.56 5.64 94.72 5.82 93.89 C 7.29 92.68 8.88 91.70 10.47 90.66 C 9.40 89.32 8.14 88.17 7.02 86.88 C 6.50 86.19 6.45 85.15 6.89 83.76 Z" fill="#00367a" />
<path d="M 93.92 83.35 C 95.50 83.67 100.65 84.37 99.28 86.96 L 96.91 86.53 C 94.32 87.64 94.54 90.19 94.57 92.57 C 93.81 92.07 93.04 91.59 92.26 91.12 C 92.06 92.85 94.53 98.12 91.36 97.92 C 91.44 94.71 90.60 91.69 90.25 88.54 C 92.42 87.41 92.43 85.22 93.92 83.35 Z" fill="#ffffff" />
<path d="M 88.10 84.75 C 88.44 89.77 91.03 93.75 90.15 99.05 C 89.25 101.50 87.45 102.94 87.47 105.78 C 84.15 107.05 80.63 108.40 77.09 108.82 C 76.01 108.08 75.07 107.17 74.02 106.39 C 71.30 107.17 70.18 111.29 68.03 113.03 C 66.69 114.56 64.44 115.47 64.41 117.65 C 62.28 120.23 60.42 122.77 57.40 124.38 C 54.46 125.79 54.61 128.53 52.70 130.88 L 52.39 128.00 C 51.51 128.75 50.60 129.47 49.66 130.14 C 49.84 126.93 52.39 125.04 52.91 121.85 L 53.45 120.97 C 55.49 117.93 55.81 114.59 58.88 112.26 C 63.55 108.87 68.38 105.56 72.93 102.02 C 74.97 100.32 76.74 98.41 78.19 96.18 C 80.91 91.93 84.27 88.05 88.10 84.75 Z" fill="#ffffff" />
<path d="M 160.73 85.78 C 160.74 86.46 159.98 88.40 159.28 88.57 C 158.43 88.09 157.72 87.50 157.16 86.81 C 157.16 85.69 160.02 85.13 160.73 85.78 Z" fill="#ffffff" />
<path d="M 101.96 87.04 C 103.88 87.31 102.07 91.23 100.88 90.92 C 100.35 90.19 100.80 87.02 101.96 87.04 Z" fill="#ffffff" />
<path d="M 153.84 86.10 L 153.73 88.56 C 150.57 89.23 147.46 89.27 144.40 90.43 C 140.65 91.66 138.02 94.30 133.96 94.82 C 134.59 93.82 135.33 92.92 136.01 91.96 C 133.06 90.93 130.55 91.34 129.61 87.66 C 137.66 87.27 145.85 87.15 153.84 86.10 Z" fill="#ffffff" />
<path d="M 164.09 87.49 C 165.19 88.49 166.09 89.72 167.03 90.87 C 166.51 91.64 165.88 92.26 165.14 92.75 C 163.34 92.20 162.23 91.86 161.49 90.00 C 161.97 88.89 162.84 88.06 164.09 87.49 Z" fill="#ffffff" />
<path d="M 167.16 88.19 C 167.97 87.81 170.34 88.29 170.66 89.21 C 170.70 91.01 166.21 89.58 167.16 88.19 Z" fill="#ffffff" />
<path d="M 182.53 88.37 C 186.45 88.04 190.33 87.60 194.26 87.34 C 194.33 89.81 195.20 92.85 194.25 95.18 C 192.59 97.05 191.67 97.08 189.71 95.51 C 188.70 98.37 185.14 98.80 183.55 96.25 C 182.70 93.82 182.77 90.94 182.53 88.37 Z" fill="#00367a" />
<path d="M 113.06 88.77 C 113.89 89.80 114.60 90.92 115.26 92.07 C 114.68 94.13 113.85 96.12 113.32 98.20 C 112.87 96.66 112.06 95.61 113.07 94.08 C 114.14 92.41 113.03 90.77 113.06 88.77 Z" fill="#ffffff" />
<path d="M 123.81 89.30 L 125.24 91.24 C 124.59 92.15 123.94 93.06 123.28 93.97 C 123.51 94.96 123.72 95.96 123.91 96.95 C 123.64 97.51 123.31 98.01 122.92 98.47 C 121.55 98.15 120.48 98.10 119.09 98.36 C 120.01 97.28 120.92 96.21 121.63 94.96 C 121.22 93.66 120.52 92.54 119.95 91.30 C 120.91 91.62 121.87 91.93 122.83 92.24 C 123.06 91.21 123.39 90.23 123.81 89.30 Z" fill="#ffffff" />
<path d="M 192.40 90.63 C 192.48 92.07 192.76 93.89 190.63 93.49 C 189.05 91.38 189.95 90.05 192.40 90.63 Z" fill="#ffffff" />
<path d="M 80.16 90.11 C 78.16 94.21 74.84 97.74 72.93 102.02 C 68.38 105.56 63.55 108.87 58.88 112.26 C 56.45 112.49 52.69 113.06 50.81 111.17 C 48.21 107.70 50.41 103.71 53.10 101.12 C 57.11 97.78 62.98 96.40 68.01 95.50 C 69.80 95.10 72.77 95.30 73.66 93.44 C 74.21 92.94 74.66 92.53 75.36 92.25 C 76.74 91.19 78.34 90.47 80.16 90.11 Z" fill="#00367a" />
<path d="M 185.16 91.14 C 186.03 91.09 186.89 91.08 187.74 91.13 C 187.67 92.19 188.38 94.53 186.83 94.75 C 184.81 95.07 185.17 92.39 185.16 91.14 Z" fill="#ffffff" />
<path d="M 108.84 94.69 C 107.85 94.49 106.86 94.28 105.87 94.06 C 105.13 94.42 104.46 95.00 103.87 95.77 C 103.02 94.94 102.39 94.02 101.97 93.00 C 105.01 92.24 107.14 91.29 108.84 94.69 Z" fill="#ffffff" />
<path d="M 73.66 93.44 C 72.77 95.30 69.80 95.10 68.01 95.50 C 62.98 96.40 57.11 97.78 53.10 101.12 C 50.41 103.71 48.21 107.70 50.81 111.17 C 52.69 113.06 56.45 112.49 58.88 112.26 C 55.81 114.59 55.49 117.93 53.45 120.97 C 53.20 118.85 51.65 118.86 50.19 117.80 C 47.23 115.91 44.44 112.65 44.25 108.99 C 43.85 105.00 46.83 101.07 50.14 99.15 C 47.52 102.13 45.06 104.68 45.54 109.01 C 45.90 110.89 46.35 114.43 49.00 113.99 C 48.83 110.39 46.33 107.89 48.32 104.29 C 51.82 98.14 59.47 95.94 65.97 94.69 C 68.54 94.49 71.12 93.09 73.66 93.44 Z" fill="#91a4a4" />
<path d="M 102.44 96.34 C 102.28 98.16 101.61 98.93 103.16 100.45 C 103.84 99.80 104.51 99.15 105.17 98.50 C 106.02 98.92 106.87 99.34 107.73 99.76 C 108.15 98.21 108.12 97.06 109.59 96.12 C 110.59 98.20 111.19 100.03 111.48 102.33 C 113.77 102.42 113.31 102.68 114.30 104.44 C 116.77 104.58 118.45 103.77 120.53 102.58 C 121.40 100.37 122.66 100.38 124.65 99.49 L 124.46 100.86 C 121.85 104.44 117.91 106.56 113.68 107.63 C 105.65 110.03 98.20 113.36 90.50 116.57 C 87.61 117.86 84.96 119.64 82.12 121.00 C 81.71 119.87 80.52 118.68 81.42 117.48 C 82.30 115.51 85.12 113.82 86.98 112.97 C 86.23 114.27 85.55 115.61 84.95 116.98 C 86.83 115.78 88.72 114.12 90.80 113.32 C 93.50 113.96 95.19 113.39 97.71 112.46 C 97.49 111.28 97.12 110.13 96.93 108.94 C 99.59 107.38 99.30 104.47 101.34 102.47 C 102.27 102.43 103.21 102.41 104.14 102.40 L 104.10 100.65 C 102.21 100.39 100.39 100.24 98.48 100.24 C 96.93 99.52 97.36 97.13 97.85 95.86 C 98.81 95.26 101.67 95.33 102.44 96.34 Z" fill="#ffffff" />
<path d="M 106.08 96.05 L 106.96 96.12 L 107.52 96.90 L 107.21 97.65 L 106.32 97.54 L 105.75 96.78 L 106.08 96.05 Z" fill="#ffffff" />
<path d="M 92.97 99.00 C 93.54 99.84 94.13 100.67 94.74 101.48 C 96.55 101.75 98.29 101.67 98.28 104.07 C 97.27 103.79 96.25 103.54 95.23 103.32 C 94.76 104.17 94.43 105.12 94.26 106.15 C 92.57 106.08 92.85 102.76 91.25 103.02 C 90.99 103.93 90.73 104.84 90.46 105.76 C 89.91 105.15 89.39 104.51 88.88 103.85 C 89.67 103.05 90.93 102.54 91.45 101.53 C 91.94 100.68 92.44 99.83 92.97 99.00 Z" fill="#ffffff" />
<path d="M 0.00 104.53 C 0.62 111.22 1.56 118.02 3.16 124.55 C 8.51 146.36 21.51 166.05 39.31 179.71 C 54.17 191.21 72.40 198.41 91.13 200.00 L 0.00 200.00 L 0.00 104.53 Z" fill="#ffffff" />
<path d="M 91.93 106.49 C 93.41 106.51 94.84 107.85 96.09 108.60 C 94.77 108.88 93.45 109.16 92.12 109.44 C 91.77 110.57 93.53 111.99 93.96 113.06 C 92.80 112.64 91.09 112.59 90.68 111.18 C 90.05 109.32 91.21 108.11 91.93 106.49 Z" fill="#ffffff" />
<path d="M 86.27 108.66 C 85.27 110.35 83.43 111.63 81.93 112.89 C 80.12 113.95 79.82 118.23 78.03 118.93 C 76.48 117.86 77.26 116.00 77.14 114.34 C 80.29 112.15 82.13 109.42 86.27 108.66 Z" fill="#ffffff" />
<path d="M 77.74 109.88 C 75.11 113.42 72.38 117.09 69.11 120.06 C 70.54 117.41 70.80 114.00 72.98 111.96 C 74.56 111.26 76.10 110.44 77.74 109.88 Z" fill="#ffffff" />
<path d="M 94.09 109.78 C 95.28 108.44 96.65 111.77 95.27 111.77 C 94.18 111.30 93.79 110.64 94.09 109.78 Z" fill="#ffffff" />
<path d="M 200.00 109.83 L 200.00 200.00 L 109.55 200.00 C 136.50 197.74 161.92 183.85 178.68 162.66 C 190.75 147.62 198.24 129.04 200.00 109.83 Z" fill="#ffffff" />
<path d="M 90.71 117.86 C 90.76 118.57 90.02 120.90 89.17 120.89 C 86.85 119.64 89.14 117.60 90.71 117.86 Z" fill="#ffffff" />
<path d="M 47.73 132.89 C 47.72 135.59 48.08 137.27 45.89 139.23 C 44.30 139.02 43.06 139.25 42.18 139.92 C 43.37 143.05 46.68 140.57 48.96 140.60 C 49.68 141.07 50.38 141.56 51.07 142.08 L 52.77 143.22 C 50.20 143.99 47.38 143.29 44.71 143.57 C 43.33 143.75 42.56 143.45 41.37 142.77 C 41.30 141.33 41.29 139.88 41.35 138.43 C 42.06 137.64 42.61 136.90 43.00 135.89 C 45.89 136.30 45.98 134.52 47.73 132.89 Z" fill="#ffffff" />
<path d="M 41.35 138.43 C 41.29 139.88 41.30 141.33 41.37 142.77 C 42.56 143.45 43.33 143.75 44.71 143.57 C 47.38 143.29 50.20 143.99 52.77 143.22 L 53.63 143.81 C 53.68 145.48 53.07 147.50 51.02 147.23 C 47.48 147.06 43.46 147.69 40.04 147.09 C 38.08 145.37 38.55 139.21 41.35 138.43 Z" fill="#91a4a4" />
<path d="M 79.70 140.79 C 80.73 140.64 81.71 140.84 82.63 141.38 C 83.78 141.99 84.90 142.65 86.09 143.20 C 86.85 142.75 87.61 142.29 88.37 141.82 L 89.40 142.10 C 88.96 142.79 88.49 143.46 87.99 144.09 C 87.01 144.39 86.02 144.64 85.02 144.86 C 82.94 144.08 81.08 142.51 79.70 140.79 Z" fill="#ffffff" />
<path d="M 84.76 182.68 C 83.91 186.27 83.33 189.91 82.47 193.50 C 81.63 193.43 80.84 193.25 80.09 192.96 C 80.40 189.77 81.36 186.69 81.84 183.51 C 81.84 181.12 83.88 180.70 84.76 182.68 Z" fill="#00367a" />
<path d="M 120.13 181.32 C 120.26 182.03 120.38 182.76 120.46 183.48 C 119.04 184.07 115.55 183.67 117.21 186.19 C 119.22 186.23 120.80 186.14 121.72 188.24 C 123.45 191.39 120.08 193.94 117.10 193.74 C 115.87 193.94 115.24 193.21 115.24 191.56 L 117.91 191.72 C 119.69 190.95 120.16 189.37 118.06 188.42 C 117.15 188.54 116.24 188.67 115.32 188.79 C 114.86 186.71 114.48 184.61 114.03 182.53 C 116.00 181.97 118.07 181.42 120.13 181.32 Z" fill="#00367a" />
<path d="M 97.84 185.13 C 98.86 186.53 97.58 187.72 97.01 188.98 C 97.58 190.28 98.79 191.45 97.86 192.90 C 96.72 196.41 90.45 195.75 90.19 192.00 C 90.07 190.32 90.64 189.75 91.80 188.69 C 91.37 187.82 90.99 186.93 90.65 186.03 C 91.35 182.53 96.43 182.03 97.84 185.13 Z" fill="#00367a" />
<path d="M 109.61 185.38 C 110.01 186.71 109.44 187.51 108.88 188.64 C 109.50 189.33 110.02 190.08 110.46 190.88 C 110.94 194.30 107.05 196.25 104.31 194.68 C 101.96 193.43 101.93 190.75 103.78 188.96 C 102.43 187.57 101.79 185.78 103.27 184.26 C 104.85 182.41 108.96 182.78 109.61 185.38 Z" fill="#00367a" />
<path d="M 93.57 185.48 C 95.65 183.86 96.27 186.92 94.86 187.94 C 92.98 187.99 93.40 186.81 93.57 185.48 Z" fill="#ffffff" />
<path d="M 105.37 185.23 C 106.80 183.86 107.94 186.82 106.84 187.78 C 105.30 188.72 104.23 186.29 105.37 185.23 Z" fill="#ffffff" />
<path d="M 94.01 189.53 C 96.15 190.08 95.88 193.76 93.63 193.36 C 92.21 191.81 92.71 190.91 94.01 189.53 Z" fill="#ffffff" />
<path d="M 106.08 189.58 C 108.11 190.01 108.49 193.09 106.31 193.45 C 104.78 192.55 104.85 190.72 106.08 189.58 Z" fill="#ffffff" />
</svg>