<?xml version="1.0" encoding="UTF-8"?>
<!DOCTYPE svg PUBLIC "-//W3C//DTD SVG 1.1//EN" "http://www.w3.org/Graphics/SVG/1.1/DTD/svg11.dtd">
<!-- Creator: CorelDRAW X6 -->
<svg xmlns="http://www.w3.org/2000/svg" xml:space="preserve" width="200mm" height="200mm" version="1.1" style="shape-rendering:geometricPrecision; text-rendering:geometricPrecision; image-rendering:optimizeQuality; fill-rule:evenodd; clip-rule:evenodd"
viewBox="0 0 20000 20000"
 xmlns:xlink="http://www.w3.org/1999/xlink">
 <defs>
  <style type="text/css">
   <![CDATA[
    .fil0 {fill:#1C1B17}
    .fil1 {fill:#FEFEFE}
    .fil2 {fill:#E21F29}
   ]]>
  </style>
 </defs>
 <g id="Слой_x0020_1">
  <metadata id="CorelCorpID_0Corel-Layer"/>
  <g id="_243724368">
   <circle class="fil0" cx="10000" cy="10000" r="10000"/>
   <circle class="fil1" cx="10000" cy="10000" r="9571"/>
   <circle class="fil2" cx="10000" cy="10000" r="9162"/>
   <circle class="fil1" cx="10000" cy="10000" r="6299"/>
   <g>
    <path class="fil0" d="M5919 13705c226,-292 430,-611 615,-927 251,-427 478,-871 681,-1322 295,-658 585,-1317 844,-1991 240,-622 454,-1258 636,-1899 101,-355 183,-709 333,-1048 180,-407 450,-770 839,-999 265,-156 526,-229 830,-253 705,-56 1390,274 1817,832l66 86c281,35 576,101 847,149 -467,235 -763,427 -957,814 -147,294 -87,555 49,839 129,269 250,543 330,831 162,589 120,1257 -164,1803 -669,1283 -2154,1863 -3502,2165l389 520c178,-45 365,-69 557,-69 1215,0 2207,959 2261,2161 -167,74 -337,140 -512,199 2,-32 3,-64 3,-96 0,-967 -785,-1752 -1752,-1752 -265,0 -516,59 -741,164l-1056 -1411 263 -140c737,-394 1427,-917 1908,-1609 328,-473 495,-977 368,-1548 -45,-202 -128,-388 -213,-576 -143,-316 -266,-599 -304,-949 -65,-601 345,-1114 874,-1345 206,-90 430,-141 659,-163 -313,-274 -726,-428 -1147,-394 -227,18 -413,67 -611,184 -294,173 -495,458 -630,765 -139,314 -215,652 -308,981 -186,656 -405,1307 -650,1943 -263,682 -556,1349 -854,2016 -210,469 -446,930 -706,1373 -132,225 -273,450 -423,668l-633 0zm1945 1796l0 -3c0,-656 279,-1246 725,-1659l335 386c-338,319 -549,772 -549,1273 0,60 3,119 9,177 -177,-50 -350,-109 -520,-175z"/>
    <path class="fil2" d="M12163 6667c-255,-1 -511,36 -733,133 -320,140 -611,448 -571,822 31,288 144,533 262,793 100,221 193,437 246,675 158,711 -37,1361 -447,1951 -257,370 -566,696 -910,984 908,-309 1784,-805 2220,-1642 224,-430 252,-968 124,-1431 -71,-258 -182,-505 -298,-746 -206,-431 -266,-849 -45,-1289 45,-89 95,-172 151,-249z"/>
   </g>
   <g>
    <polygon class="fil1" points="7749,1780 8134,1689 8517,3303 8133,3394 "/>
    <polygon class="fil1" points="8971,16835 9363,16888 9140,18532 8748,18479 "/>
    <polygon class="fil1" points="12571,1837 12495,2187 12020,2083 11743,3354 11357,3270 11634,1999 11165,1897 11241,1547 "/>
    <polygon class="fil1" points="11482,16808 11524,17163 11040,17220 11192,18512 10800,18558 10648,17266 10172,17322 10130,16966 "/>
    <polygon class="fil1" points="14595,4831 15312,5557 15566,5305 15127,4861 16050,3951 15772,3669 "/>
    <path class="fil1" d="M3824 4103l505 -459c128,-116 223,-157 351,-153 100,4 213,43 291,150 94,129 121,252 66,384 160,-51 339,-19 455,97 120,121 159,262 148,381 -14,158 -115,290 -234,399l-464 426 -1118 -1227zm1358 273c-53,-59 -159,-84 -246,-5l-182 166 237 260 178 -162c117,-107 66,-200 13,-259zm-445 -427c-54,-59 -135,-71 -231,17l-149 136 195 214 170 -155c77,-70 69,-153 15,-212z"/>
    <path class="fil1" d="M5650 2656l580 -290c104,-48 240,-94 375,-70 127,22 274,117 343,280 76,180 68,375 -81,539l710 433 -418 208 -595 -386 -93 46 273 547 -353 176 -741 -1485zm960 114c-33,-67 -126,-125 -240,-68l-205 102 153 306 199 -100c132,-66 125,-174 92,-241z"/>
    <path class="fil1" d="M14199 2526c413,239 554,767 315,1180 -239,413 -767,554 -1180,315 -413,-239 -554,-767 -315,-1180 239,-413 767,-554 1180,-315zm-181 313c224,130 293,429 155,670 -139,240 -433,330 -657,200 -224,-130 -293,-429 -155,-670 139,-240 433,-330 657,-200z"/>
    <path class="fil1" d="M10081 1955c-101,-83 -225,-154 -353,-136 -73,10 -137,37 -162,104 -23,61 6,121 66,152 51,27 105,40 162,50 126,23 246,52 358,114 48,26 94,58 130,98 87,96 123,226 102,386 -20,150 -112,272 -229,349 -113,75 -265,114 -400,111 -239,-4 -424,-110 -597,-263l245 -299c111,94 244,184 391,183 60,0 113,-13 155,-46 39,-31 50,-74 42,-111 -24,-111 -176,-124 -266,-140 -102,-24 -201,-54 -294,-103 -151,-79 -257,-200 -263,-375 -11,-306 214,-534 509,-575 248,-35 485,56 650,223l-244 277z"/>
    <path class="fil1" d="M7583 16434c290,105 492,328 545,633l-359 75c-23,-172 -139,-302 -305,-362 -244,-88 -522,51 -616,312 -94,261 35,536 279,624 195,70 403,-5 520,-145l254 243c-228,256 -563,373 -904,250 -168,-61 -314,-160 -412,-295 -163,-224 -208,-530 -107,-811 162,-449 658,-686 1107,-524z"/>
    <polygon class="fil1" points="13379,17157 13659,17796 13297,17955 13019,17320 12070,16676 12495,16489 13032,16861 13122,16214 13546,16028 "/>
   </g>
   <path class="fil2" d="M4869 8842l906 0 0 151 -906 0 0 -151zm2303 -47l-436 0 -1 -169 445 -613 192 0 0 592 162 0 0 190 -162 0 0 220 -200 0 0 -220zm-222 -190l222 0 0 -302 -222 302zm-538 0c-66,57 -150,76 -239,64 -166,-23 -277,-147 -277,-315 0,-203 162,-349 361,-349 268,0 406,218 387,468 -27,343 -217,518 -564,539l-16 1 -1 -178 14 -1c164,-14 299,-70 335,-229zm-158 -116c78,2 159,-51 159,-135 0,-97 -61,-150 -156,-150 -80,0 -151,56 -151,140 0,82 68,142 148,145zm-1321 -287l-69 0 0 -155 242 0 0 662 -172 0 0 -507zm442 150c-37,-35 -58,-81 -58,-133 0,-129 100,-194 221,-194 121,0 221,65 221,194 0,52 -21,98 -58,133 55,38 82,97 82,166 0,135 -120,209 -245,209 -125,0 -245,-74 -245,-209 0,-69 27,-128 82,-166zm163 98c-42,0 -81,21 -81,67 0,41 43,67 81,67 38,0 81,-25 81,-67 0,-45 -39,-67 -81,-67zm0 -266c-32,0 -64,16 -64,52 0,35 32,52 64,52 32,0 64,-17 64,-52 0,-36 -31,-52 -64,-52z"/>
  </g>
 </g>
</svg>
