<?xml version="1.0" encoding="UTF-8" standalone="no"?>
<!DOCTYPE svg PUBLIC "-//W3C//DTD SVG 1.1//EN" "http://www.w3.org/Graphics/SVG/1.1/DTD/svg11.dtd">
<svg xmlns="http://www.w3.org/2000/svg" version="1.1" viewBox="0 0 200 200" width="200.0pt" height="200.0pt">
<path d="M 0.00 0.00 L 94.24 0.00 C 93.26 0.21 92.27 0.38 91.28 0.51 C 91.50 5.00 92.50 9.44 92.73 13.94 C 90.15 9.78 87.78 5.48 85.14 1.35 C 83.61 1.55 82.07 1.73 80.52 1.87 C 80.18 3.51 80.74 5.35 80.86 7.01 C 81.70 12.93 82.24 18.93 83.09 24.85 C 84.34 24.83 85.60 24.76 86.85 24.66 C 87.10 19.91 85.85 14.82 85.43 10.06 C 88.34 14.39 90.91 19.03 93.64 23.49 C 94.85 23.84 96.35 23.36 97.63 23.36 L 97.97 22.86 C 97.40 15.22 96.10 7.62 95.37 0.00 L 200.00 0.00 L 200.00 94.62 C 198.41 94.23 196.90 94.21 195.28 94.39 L 194.58 94.90 C 194.27 96.79 193.71 99.01 194.44 100.84 C 195.54 100.48 196.63 100.27 197.71 100.21 C 199.13 101.83 198.83 101.99 197.59 103.51 C 196.44 103.87 195.26 104.13 194.05 104.30 L 194.37 105.55 C 196.82 105.91 198.17 105.67 200.00 103.95 L 200.00 200.00 L 103.72 200.00 C 106.64 199.59 109.64 199.51 112.59 199.38 C 112.84 198.18 112.82 196.94 112.51 195.65 C 110.49 195.68 108.35 196.12 106.35 195.86 C 105.97 189.73 105.47 182.88 105.06 176.64 C 103.73 176.54 102.38 176.60 101.02 176.82 C 101.39 184.42 102.00 192.33 102.62 200.00 L 97.55 200.00 C 96.91 192.21 96.26 184.33 95.41 176.57 C 93.75 176.48 92.09 176.21 90.43 176.22 C 88.33 183.56 86.36 190.94 84.21 198.27 L 84.61 199.04 C 85.77 199.15 86.94 199.21 88.10 199.22 C 88.52 197.58 88.70 195.86 89.26 194.27 C 90.62 194.32 91.99 194.46 93.34 194.67 C 93.56 196.44 93.49 198.23 93.73 200.00 L 0.00 200.00 L 0.00 105.45 C 1.96 105.41 3.92 105.56 5.88 105.57 C 7.78 105.67 7.82 104.33 8.01 102.83 C 6.31 102.79 4.38 104.97 3.00 103.20 C 2.98 102.16 3.02 101.13 3.12 100.11 C 4.41 100.13 5.71 100.32 7.00 100.67 L 7.00 97.65 C 5.49 98.31 4.16 98.49 3.01 98.20 L 3.01 95.74 C 4.43 93.89 6.12 96.47 7.74 95.76 C 7.65 95.00 7.42 94.32 7.04 93.71 C 5.00 93.06 2.53 93.72 0.38 93.54 C 1.49 96.81 1.01 100.56 0.95 103.98 L 0.00 104.85 L 0.00 0.00 Z" fill="#ffffff" />
<path d="M 94.24 0.00 L 95.37 0.00 C 96.10 7.62 97.40 15.22 97.97 22.86 L 97.63 23.36 C 96.35 23.36 94.85 23.84 93.64 23.49 C 90.91 19.03 88.34 14.39 85.43 10.06 C 85.85 14.82 87.10 19.91 86.85 24.66 C 85.60 24.76 84.34 24.83 83.09 24.85 C 82.24 18.93 81.70 12.93 80.86 7.01 C 80.74 5.35 80.18 3.51 80.52 1.87 C 82.07 1.73 83.61 1.55 85.14 1.35 C 87.78 5.48 90.15 9.78 92.73 13.94 C 92.50 9.44 91.50 5.00 91.28 0.51 C 92.27 0.38 93.26 0.21 94.24 0.00 Z" fill="#002e60" />
<path d="M 112.12 0.75 C 116.85 1.78 121.65 2.54 126.38 3.56 C 126.28 5.09 125.91 6.44 125.27 7.60 C 123.73 7.13 122.17 6.78 120.60 6.55 C 119.35 12.76 118.14 18.98 117.04 25.22 C 115.56 25.52 113.91 24.69 112.43 24.43 C 113.55 19.31 114.41 14.15 115.46 9.01 C 115.57 7.92 116.09 6.62 115.75 5.56 C 114.22 5.34 112.69 5.12 111.19 4.70 C 111.37 3.46 111.23 1.71 112.12 0.75 Z" fill="#002e60" />
<path d="M 70.07 5.69 C 74.52 7.23 75.15 12.40 76.75 16.20 C 77.72 18.84 78.85 21.15 78.35 24.07 C 77.30 27.80 72.43 29.67 68.91 29.27 C 65.04 27.95 64.18 24.62 62.91 21.16 C 61.85 17.84 59.51 13.96 60.56 10.45 C 61.74 6.88 66.63 5.08 70.07 5.69 Z" fill="#002e60" />
<path d="M 134.97 6.77 C 138.16 7.21 142.05 8.61 143.02 12.04 C 144.09 15.08 141.81 18.90 140.73 21.74 C 139.28 25.02 138.54 28.56 135.04 30.27 C 131.24 31.35 125.88 29.07 124.80 25.05 C 124.16 21.44 126.82 17.37 128.00 14.00 C 129.40 10.49 130.74 7.29 134.97 6.77 Z" fill="#002e60" />
<path d="M 68.06 9.60 C 69.54 10.16 70.03 11.01 70.50 12.45 C 71.56 15.65 73.04 18.76 73.91 22.01 C 74.17 24.34 72.71 24.50 71.00 25.29 C 68.44 24.71 68.41 22.51 67.52 20.46 C 66.60 17.64 65.16 14.84 64.64 11.93 C 65.35 10.33 66.48 10.03 68.06 9.60 Z" fill="#ffffff" />
<path d="M 138.77 14.00 C 138.15 16.67 136.73 19.19 135.76 21.77 C 134.99 23.49 134.70 25.18 133.07 26.32 C 131.79 26.54 129.94 25.83 129.33 24.65 C 129.02 23.31 129.50 22.19 130.04 20.99 C 131.37 18.01 132.45 14.87 133.94 11.97 C 135.34 10.15 139.15 11.62 138.77 14.00 Z" fill="#ffffff" />
<path d="M 53.23 11.58 C 54.35 12.30 54.86 13.92 55.66 14.98 C 54.19 15.91 52.69 16.79 51.26 17.77 C 54.77 23.08 57.96 28.60 61.44 33.92 C 60.23 34.77 58.98 35.57 57.82 36.48 C 53.99 31.41 51.01 25.21 47.20 20.15 C 45.90 20.89 44.53 22.40 43.04 22.67 C 42.31 21.90 41.34 20.32 41.13 19.27 C 45.14 16.68 49.30 14.29 53.23 11.58 Z" fill="#002e60" />
<path d="M 151.97 14.65 C 153.26 14.26 154.54 16.21 155.60 16.84 C 153.41 21.19 151.04 25.52 148.99 29.91 C 152.88 27.25 156.48 23.80 160.13 20.78 C 161.23 21.33 163.61 22.59 163.64 23.89 C 161.44 28.16 159.27 32.49 157.11 36.78 C 161.23 33.96 164.74 30.12 168.85 27.27 C 169.91 28.15 170.96 29.04 172.02 29.92 C 166.00 34.88 159.87 39.80 153.89 44.79 C 152.42 44.59 151.26 43.01 150.17 42.11 C 152.42 37.55 155.34 32.96 156.97 28.19 C 153.10 31.53 149.12 34.90 145.01 37.94 C 143.79 37.24 142.40 36.28 141.61 35.10 C 145.26 28.39 148.50 21.45 151.97 14.65 Z" fill="#002e60" />
<path d="M 35.90 23.32 C 39.63 27.50 43.68 31.41 47.54 35.47 C 48.47 36.40 49.04 37.71 49.49 38.93 C 50.25 42.87 46.49 46.82 43.00 48.01 C 40.62 49.10 37.98 47.35 36.30 45.72 C 32.59 41.78 28.69 37.94 25.01 33.98 C 25.93 32.91 27.06 32.01 28.04 30.98 C 31.43 33.75 34.78 37.84 38.05 40.95 C 39.14 41.83 40.33 43.86 41.87 43.64 C 44.35 43.71 45.90 40.70 44.32 38.70 C 40.54 34.74 36.71 30.78 32.81 26.94 C 33.14 25.46 34.93 24.42 35.90 23.32 Z" fill="#002e60" />
<path d="M 114.38 33.65 C 116.41 34.87 117.47 36.65 120.03 37.03 C 122.66 35.61 125.98 32.83 128.99 32.77 L 129.06 35.00 C 130.86 35.26 133.35 34.05 133.02 36.96 C 131.44 37.74 129.41 37.90 128.01 38.91 C 131.62 39.27 135.32 38.70 138.94 39.19 C 139.76 41.72 138.19 40.70 136.80 41.84 C 137.40 43.52 139.43 43.08 139.19 45.28 C 135.37 45.59 131.69 44.44 127.92 45.01 C 126.71 47.11 126.20 49.40 124.05 51.04 C 118.51 56.86 111.54 59.05 104.02 61.18 C 100.14 61.49 96.40 62.09 92.49 61.89 C 91.92 61.42 91.34 60.98 90.75 60.55 C 92.01 60.47 93.54 60.47 95.34 60.53 C 97.67 60.59 99.97 60.07 102.30 59.99 C 105.54 59.60 109.01 58.11 112.05 56.99 C 114.63 56.11 116.96 54.95 119.11 53.25 C 121.60 51.44 126.09 48.31 126.00 44.93 C 123.79 44.29 121.23 44.78 118.95 44.78 C 118.31 45.35 117.85 46.15 117.57 47.16 C 117.87 44.74 117.53 42.20 117.07 39.82 C 115.89 40.55 115.18 41.79 114.07 42.64 L 112.81 42.05 C 113.70 39.52 116.42 38.56 114.76 35.27 C 111.14 33.93 106.81 33.63 102.98 33.67 C 95.92 33.89 86.61 37.42 83.07 43.91 C 84.47 45.81 86.96 47.23 89.34 47.04 C 88.89 47.70 88.37 48.26 87.77 48.73 C 86.58 48.37 85.41 46.85 84.15 47.74 L 83.88 50.08 C 83.51 49.06 83.15 48.04 82.78 47.02 L 82.07 46.83 C 79.07 49.18 76.25 53.46 78.85 57.08 C 81.87 60.01 86.82 59.59 90.34 60.50 L 89.73 61.40 C 85.31 61.10 79.81 60.97 77.06 56.88 C 75.52 52.23 77.78 48.00 81.87 45.65 C 82.03 43.88 82.00 42.69 83.11 41.20 C 90.70 32.94 103.94 29.71 114.38 33.65 Z" fill="#67604a" />
<path d="M 102.98 33.67 C 102.14 37.12 101.30 40.99 102.33 44.48 C 103.29 44.95 104.27 45.36 105.28 45.72 L 103.23 46.37 C 102.22 46.70 101.18 46.94 100.11 47.10 L 99.91 48.10 C 99.94 48.52 100.35 48.93 101.12 49.32 C 98.85 49.02 97.55 50.78 95.44 50.35 C 94.07 50.07 92.78 50.10 91.56 50.44 C 89.00 49.66 86.54 48.91 84.15 47.74 C 85.41 46.85 86.58 48.37 87.77 48.73 C 88.37 48.26 88.89 47.70 89.34 47.04 C 86.96 47.23 84.47 45.81 83.07 43.91 C 86.61 37.42 95.92 33.89 102.98 33.67 Z" fill="#ffe58a" />
<path d="M 102.98 33.67 C 106.81 33.63 111.14 33.93 114.76 35.27 C 116.42 38.56 113.70 39.52 112.81 42.05 L 114.07 42.64 C 110.27 46.03 106.27 48.58 101.12 49.32 C 100.35 48.93 99.94 48.52 99.91 48.10 C 101.20 49.23 106.54 47.87 106.61 45.93 L 105.28 45.72 C 104.27 45.36 103.29 44.95 102.33 44.48 C 101.30 40.99 102.14 37.12 102.98 33.67 Z" fill="#ffdb63" />
<path d="M 126.81 34.75 C 127.75 35.59 129.08 35.93 129.95 36.77 C 127.95 37.72 125.94 38.59 124.10 39.82 C 123.32 40.30 122.54 40.77 121.76 41.22 C 120.51 41.82 119.31 43.11 117.91 43.09 C 117.16 41.79 117.22 40.82 118.08 40.15 C 120.61 38.09 123.87 36.16 126.81 34.75 Z" fill="#ec8c00" />
<path d="M 117.18 37.57 C 118.43 36.62 119.94 38.96 118.03 39.27 C 116.96 39.13 116.68 38.56 117.18 37.57 Z" fill="#c0a636" />
<path d="M 177.03 36.99 C 178.42 37.43 179.38 39.73 180.18 40.91 C 178.06 44.67 175.60 48.63 173.41 52.32 L 173.31 53.17 C 176.75 50.90 180.21 47.73 183.89 46.04 C 184.63 46.98 185.34 47.97 185.97 48.99 C 185.44 50.01 184.13 50.56 183.24 51.26 C 177.90 55.02 172.44 58.87 167.10 62.64 C 166.30 61.40 165.43 60.21 164.65 58.95 C 167.40 54.40 170.14 49.82 172.76 45.20 C 168.78 47.88 164.71 50.70 160.93 53.69 C 160.09 52.50 159.10 51.31 158.49 49.97 C 164.73 45.73 170.84 41.30 177.03 36.99 Z" fill="#002e60" />
<path d="M 117.07 39.82 C 117.53 42.20 117.87 44.74 117.57 47.16 C 117.09 47.75 116.60 48.34 116.10 48.92 C 112.92 50.19 110.36 52.44 107.08 53.53 C 104.48 54.75 101.74 54.81 99.01 55.52 C 98.09 55.84 97.29 55.67 96.61 55.00 C 96.58 53.35 95.39 52.16 95.44 50.35 C 97.55 50.78 98.85 49.02 101.12 49.32 C 106.27 48.58 110.27 46.03 114.07 42.64 C 115.18 41.79 115.89 40.55 117.07 39.82 Z" fill="#002e60" />
<path d="M 124.10 39.82 C 126.95 39.33 130.65 39.86 133.61 40.08 C 136.12 40.37 135.86 42.34 136.22 44.28 C 131.27 43.29 126.23 44.40 121.37 43.54 L 121.76 41.22 C 122.54 40.77 123.32 40.30 124.10 39.82 Z" fill="#002d60" />
<path d="M 118.95 44.78 C 121.23 44.78 123.79 44.29 126.00 44.93 C 126.09 48.31 121.60 51.44 119.11 53.25 C 118.09 51.32 118.19 50.09 118.51 48.01 C 117.70 48.30 116.89 48.60 116.10 48.92 C 116.60 48.34 117.09 47.75 117.57 47.16 C 117.85 46.15 118.31 45.35 118.95 44.78 Z" fill="#fed130" />
<path d="M 16.77 45.38 C 21.75 48.97 26.95 52.30 32.05 55.72 L 32.75 55.82 C 34.16 54.16 35.10 51.49 36.83 50.27 C 38.22 51.01 39.16 51.89 39.67 52.91 C 37.56 55.77 35.73 58.83 33.69 61.73 L 33.03 61.87 C 26.74 57.72 20.16 53.54 14.11 49.07 C 15.01 47.85 15.88 46.61 16.77 45.38 Z" fill="#002e60" />
<path d="M 103.23 46.37 L 105.28 45.72 L 106.61 45.93 C 106.54 47.87 101.20 49.23 99.91 48.10 L 100.11 47.10 C 101.18 46.94 102.22 46.70 103.23 46.37 Z" fill="#7d6d35" />
<path d="M 82.07 46.83 L 82.78 47.02 C 83.15 48.04 83.51 49.06 83.88 50.08 C 84.18 51.09 84.55 52.06 84.99 53.01 C 85.98 55.02 89.20 55.85 91.21 56.44 C 90.58 57.24 89.96 58.05 89.35 58.87 C 91.79 59.11 93.89 57.95 95.34 60.53 C 93.54 60.47 92.01 60.47 90.75 60.55 L 90.34 60.50 C 86.82 59.59 81.87 60.01 78.85 57.08 C 76.25 53.46 79.07 49.18 82.07 46.83 Z" fill="#ffeda7" />
<path d="M 90.21 47.00 C 92.57 47.87 95.38 48.00 97.75 47.05 C 98.07 47.80 98.19 48.63 98.11 49.52 C 95.34 49.58 92.58 49.39 89.81 49.41 C 89.80 48.55 89.94 47.75 90.21 47.00 Z" fill="#90814c" />
<path d="M 84.15 47.74 C 86.54 48.91 89.00 49.66 91.56 50.44 C 92.40 52.00 91.80 53.98 92.93 55.20 L 91.90 55.87 C 89.49 55.43 87.12 54.18 84.99 53.01 C 84.55 52.06 84.18 51.09 83.88 50.08 L 84.15 47.74 Z" fill="#04356a" />
<path d="M 118.51 48.01 C 118.19 50.09 118.09 51.32 119.11 53.25 C 116.96 54.95 114.63 56.11 112.05 56.99 C 110.93 55.89 110.32 54.82 109.72 53.39 C 112.06 52.15 114.30 50.92 116.10 48.92 C 116.89 48.60 117.70 48.30 118.51 48.01 Z" fill="#ffd74d" />
<path d="M 116.10 48.92 C 114.30 50.92 112.06 52.15 109.72 53.39 C 106.86 54.68 104.04 55.61 100.96 56.22 C 97.59 56.73 94.61 56.93 91.21 56.44 C 89.20 55.85 85.98 55.02 84.99 53.01 C 87.12 54.18 89.49 55.43 91.90 55.87 L 92.93 55.20 C 94.15 55.05 95.37 54.98 96.61 55.00 C 97.29 55.67 98.09 55.84 99.01 55.52 C 101.74 54.81 104.48 54.75 107.08 53.53 C 110.36 52.44 112.92 50.19 116.10 48.92 Z" fill="#666046" />
<path d="M 91.56 50.44 C 92.78 50.10 94.07 50.07 95.44 50.35 C 95.39 52.16 96.58 53.35 96.61 55.00 C 95.37 54.98 94.15 55.05 92.93 55.20 C 91.80 53.98 92.40 52.00 91.56 50.44 Z" fill="#9eb8da" />
<path d="M 109.72 53.39 C 110.32 54.82 110.93 55.89 112.05 56.99 C 109.01 58.11 105.54 59.60 102.30 59.99 C 101.68 59.53 101.05 59.06 100.44 58.58 C 100.84 58.28 101.24 57.99 101.65 57.69 L 100.96 56.22 C 104.04 55.61 106.86 54.68 109.72 53.39 Z" fill="#ffdd6a" />
<path d="M 91.21 56.44 C 94.61 56.93 97.59 56.73 100.96 56.22 L 101.65 57.69 C 101.24 57.99 100.84 58.28 100.44 58.58 C 101.05 59.06 101.68 59.53 102.30 59.99 C 99.97 60.07 97.67 60.59 95.34 60.53 C 93.89 57.95 91.79 59.11 89.35 58.87 C 89.96 58.05 90.58 57.24 91.21 56.44 Z" fill="#ffe583" />
<path d="M 62.07 62.99 C 65.30 62.78 66.70 65.12 67.11 68.00 C 71.01 67.56 74.47 64.34 78.43 63.44 C 83.65 62.09 91.10 61.60 95.12 65.95 C 98.41 66.06 101.71 65.96 105.01 66.00 C 109.83 61.35 117.20 61.94 123.11 63.84 C 126.58 64.82 129.89 67.82 133.46 68.02 C 133.84 65.24 134.19 63.97 137.06 62.98 C 140.37 62.79 142.29 66.16 143.02 68.95 C 143.70 71.77 147.22 73.50 148.16 76.02 C 148.94 77.77 148.38 79.11 147.83 80.81 C 145.41 82.90 143.87 82.57 141.28 81.06 C 139.98 82.71 139.66 84.95 139.36 86.99 C 139.65 92.26 141.19 97.78 144.11 102.21 C 145.44 100.70 146.33 99.38 148.56 99.53 C 150.26 99.76 150.88 101.02 151.99 102.14 C 152.18 103.61 152.34 105.34 151.78 106.74 C 150.38 109.17 148.11 110.34 146.30 112.34 C 145.16 113.71 144.76 115.36 144.12 117.07 C 143.68 123.71 144.38 130.42 144.01 137.04 C 143.37 141.48 140.96 145.62 137.54 148.52 C 133.27 151.95 127.38 152.40 122.16 151.69 C 120.34 155.00 118.44 158.14 114.96 159.94 C 111.16 162.16 107.10 162.20 104.11 165.21 C 104.18 166.82 104.43 168.33 103.99 169.92 C 102.22 172.10 99.51 172.17 97.15 170.91 C 95.50 169.03 96.10 167.34 95.98 165.06 C 94.39 162.98 90.94 162.37 88.61 161.40 C 85.35 160.33 82.45 158.37 80.53 155.49 C 79.50 154.31 79.10 152.64 77.92 151.61 C 72.98 152.57 67.35 151.77 63.17 148.85 C 59.85 146.09 57.18 142.14 56.57 137.81 C 55.14 132.56 56.70 126.31 56.62 120.99 C 56.18 116.94 55.84 113.34 52.38 110.67 C 50.11 109.12 47.98 106.92 47.97 104.01 C 48.01 101.67 50.67 98.74 53.20 99.70 C 54.65 99.75 55.34 102.19 56.64 101.90 C 59.56 96.13 63.32 86.90 59.08 81.00 C 56.14 82.98 54.18 82.78 52.01 79.92 C 50.98 75.29 54.06 73.69 56.66 70.61 C 58.06 67.35 58.29 64.39 62.07 62.99 Z" fill="#686869" />
<path d="M 89.54 64.51 C 91.70 65.00 93.08 66.45 94.91 67.54 C 98.26 67.67 101.69 67.65 105.05 67.56 C 107.10 67.05 108.27 65.01 110.48 64.61 C 116.14 63.17 122.42 64.76 127.42 67.59 C 129.71 68.95 132.02 69.78 134.71 69.69 C 135.13 68.68 135.26 67.51 135.10 66.17 C 136.15 64.97 137.33 64.37 138.90 65.06 C 140.65 65.82 141.16 68.51 141.84 70.13 C 143.04 73.66 148.34 75.45 146.81 79.73 C 145.87 80.29 144.92 80.57 143.95 80.58 C 143.07 79.89 142.16 79.31 141.21 78.84 C 139.63 80.33 138.86 82.14 138.16 84.14 C 137.25 90.23 139.17 96.60 142.11 101.91 C 143.12 103.37 144.10 105.74 146.00 106.09 C 145.99 104.77 146.00 103.46 146.01 102.14 C 148.37 100.19 150.15 101.58 151.00 104.05 C 150.80 106.88 148.06 108.44 146.15 110.15 C 143.08 113.16 142.61 116.90 142.19 120.97 C 142.04 126.15 143.63 131.93 142.38 137.02 C 141.69 142.37 137.84 147.85 132.53 149.46 C 128.72 150.79 124.97 149.79 121.22 150.05 C 119.92 152.74 118.49 155.26 116.19 157.22 C 112.39 160.59 106.26 160.45 103.01 164.15 C 102.35 166.26 103.88 168.51 101.83 169.93 C 100.59 170.05 99.38 170.03 98.20 169.86 C 97.22 168.17 97.62 166.98 97.82 165.17 C 95.29 160.70 89.77 160.90 85.66 158.32 C 82.16 156.32 80.91 153.12 78.90 149.89 C 76.23 149.94 73.66 150.47 70.98 150.05 C 64.48 149.74 59.42 144.04 58.05 138.00 C 57.80 134.66 57.67 131.35 57.97 128.00 C 57.81 122.51 58.88 117.87 56.22 112.83 C 54.44 109.05 49.68 108.18 49.55 104.03 C 49.89 101.85 51.99 100.19 53.94 101.94 C 55.54 102.89 54.13 104.48 54.18 105.91 L 55.63 105.68 C 59.05 101.47 61.24 96.36 62.09 91.04 C 62.57 86.51 62.77 82.02 58.97 78.80 C 58.00 79.46 57.02 80.10 56.04 80.72 C 54.40 80.43 52.56 79.07 53.21 77.23 C 54.84 74.05 58.05 72.64 58.97 68.93 C 59.75 66.19 61.53 63.64 64.72 65.29 C 65.03 66.48 65.13 67.76 65.00 69.12 C 67.00 70.52 70.76 68.82 72.71 67.72 C 77.85 64.77 83.65 63.28 89.54 64.51 Z" fill="#d0d1d3" />
<path d="M 90.11 66.53 C 88.65 66.74 87.28 67.13 85.92 67.67 C 80.64 69.75 75.94 73.86 70.00 73.78 C 67.22 73.91 64.89 72.88 62.30 72.17 C 61.83 72.98 61.47 73.81 61.20 74.67 C 69.04 80.01 69.02 91.35 65.89 99.35 C 67.37 100.06 71.50 99.99 73.04 99.38 C 72.43 97.10 73.03 95.27 74.69 93.67 C 74.34 95.32 72.71 96.86 75.18 97.65 C 75.88 97.42 76.49 96.99 77.02 96.36 L 76.68 98.41 C 77.67 98.65 78.68 98.51 79.74 98.00 C 79.94 96.98 80.23 95.99 80.61 95.05 C 80.98 95.86 80.39 99.30 81.99 98.61 C 83.28 96.34 85.11 92.91 81.29 91.95 C 81.79 91.67 82.28 91.39 82.77 91.10 C 81.98 88.39 83.85 87.42 84.77 85.15 C 84.74 83.43 84.83 81.74 84.83 80.02 C 84.85 78.42 83.68 77.37 83.47 75.78 C 81.59 76.19 79.96 74.68 78.04 74.35 L 76.82 75.54 C 74.17 76.14 73.35 80.69 73.24 82.98 C 72.75 85.21 73.79 86.35 74.67 88.24 C 73.65 87.22 72.68 86.18 71.99 84.90 C 71.27 80.32 73.09 75.40 77.09 72.86 C 80.28 71.78 81.90 73.05 84.65 74.40 C 85.39 77.21 87.32 78.92 87.13 82.01 C 87.47 84.96 85.39 85.86 84.11 88.14 C 84.20 89.23 85.10 90.57 84.56 91.58 C 83.34 93.96 85.42 95.40 85.72 97.60 C 84.77 98.31 83.34 98.75 82.83 99.85 C 85.90 99.89 88.97 99.74 92.05 99.83 L 93.07 99.93 L 92.86 100.87 C 91.92 101.29 90.84 101.43 89.64 101.27 L 89.29 102.43 C 91.71 102.29 93.21 102.77 95.37 103.82 C 95.74 102.83 96.24 101.97 96.89 101.24 C 96.97 102.34 97.28 103.28 97.81 104.06 C 97.48 101.74 98.37 100.22 97.07 98.08 C 98.35 98.67 98.40 99.74 100.06 99.93 C 98.12 103.14 101.33 102.53 102.32 100.35 C 103.49 101.28 104.47 101.72 105.06 103.18 C 106.77 102.53 108.46 102.31 110.12 102.51 C 109.11 104.48 105.24 104.46 103.25 105.40 C 103.14 106.40 103.25 107.43 103.56 108.50 C 105.89 110.06 107.60 111.47 110.61 110.38 C 111.25 108.06 108.05 108.50 107.22 106.55 C 110.51 106.52 113.35 107.71 114.33 103.48 C 113.30 103.17 112.19 103.15 111.00 103.43 C 111.64 101.63 113.52 102.88 115.04 102.60 C 116.23 103.57 115.48 104.81 114.95 105.90 C 113.54 107.84 111.08 107.03 111.90 109.90 C 110.55 112.25 108.89 111.45 106.57 111.63 C 106.84 113.67 105.81 115.24 105.83 117.28 C 105.35 116.67 105.02 115.95 104.86 115.12 C 103.30 115.39 102.67 120.05 100.11 119.88 C 98.09 118.56 97.18 116.74 95.92 114.78 C 95.54 115.94 95.00 116.97 94.29 117.89 C 94.25 116.72 94.49 115.60 95.01 114.51 C 92.51 113.93 94.07 113.28 93.86 111.44 C 91.99 111.40 89.98 112.22 88.58 110.65 C 88.74 109.68 88.78 108.72 88.69 107.78 C 86.96 107.59 85.88 106.34 85.17 104.87 C 84.96 103.08 87.27 102.11 88.41 101.14 C 80.70 101.49 72.94 101.28 65.22 101.28 C 62.90 104.14 60.93 106.80 57.84 109.01 C 59.62 111.00 60.62 113.09 61.59 115.54 C 72.04 115.72 82.59 115.41 93.02 115.70 C 93.16 129.07 92.93 142.52 93.13 155.89 C 95.96 157.58 97.93 159.92 100.12 162.35 C 102.12 160.51 103.43 158.21 105.85 156.89 L 106.94 157.72 C 103.97 159.12 102.49 162.68 99.99 164.15 C 97.87 162.02 96.17 159.19 93.34 157.69 C 89.78 155.44 85.04 154.99 82.70 151.28 C 81.49 149.89 81.69 147.27 80.19 146.30 C 76.86 147.82 73.19 147.76 69.87 146.28 C 71.91 146.44 74.01 146.68 76.04 146.60 C 77.55 146.45 79.01 145.48 80.51 145.57 C 82.12 146.69 82.17 148.24 82.84 149.92 C 84.10 151.77 85.81 153.31 87.77 154.39 C 89.22 154.98 90.79 156.31 92.35 155.36 C 92.72 149.90 92.65 144.05 92.38 138.58 C 89.20 137.70 86.53 139.25 83.92 136.72 C 85.95 137.33 88.00 137.70 90.10 137.80 C 90.55 137.05 90.61 136.10 90.28 134.95 C 90.85 135.55 91.50 136.02 92.22 136.37 C 92.86 133.69 92.45 130.75 92.55 128.00 C 92.44 124.23 92.81 120.37 92.35 116.63 C 89.36 115.92 85.97 116.39 82.89 116.32 C 81.98 116.62 81.19 117.23 80.53 118.14 C 79.60 118.26 78.69 118.46 77.82 118.73 C 76.01 116.37 73.18 118.32 71.77 120.12 C 71.81 120.90 71.83 121.69 71.81 122.48 L 71.17 123.00 C 71.34 120.86 71.70 118.78 72.12 116.68 C 68.94 115.98 64.83 116.17 61.58 116.57 C 60.85 118.44 62.28 120.05 62.24 122.01 C 62.54 127.22 61.41 133.28 63.50 138.07 C 64.54 141.61 67.27 143.12 69.27 146.00 C 66.23 144.67 64.29 141.94 63.02 138.98 C 60.77 133.64 61.36 126.71 61.05 121.00 C 61.16 116.45 59.26 111.93 55.79 108.95 C 56.62 107.57 58.57 106.95 59.68 105.71 C 65.70 100.42 67.13 92.62 66.03 84.97 C 65.45 80.42 62.95 77.03 58.86 75.00 C 60.24 73.38 61.06 72.46 61.38 70.25 L 62.04 70.04 C 67.03 73.16 72.99 72.88 78.04 70.05 C 81.70 68.37 85.91 64.74 90.11 66.53 Z" fill="#674c21" />
<path d="M 90.11 66.53 L 91.05 67.10 C 91.06 68.07 90.75 69.03 90.13 70.00 C 91.92 72.63 93.21 71.61 95.26 70.18 C 97.88 69.36 101.28 69.85 104.05 69.84 C 105.69 69.93 107.48 72.68 109.01 71.29 C 111.10 70.81 109.38 68.47 109.16 67.20 C 110.75 66.17 112.19 65.81 114.08 66.14 C 119.23 67.57 123.29 71.76 128.98 72.20 C 132.56 72.63 135.65 71.59 138.75 69.93 C 139.14 72.13 140.12 73.32 141.46 75.01 C 139.48 76.28 137.60 77.33 136.33 79.40 C 133.56 83.84 133.54 89.97 134.52 94.94 C 135.67 100.81 139.44 105.48 144.50 108.52 C 144.59 109.62 142.83 110.43 142.30 111.35 C 138.55 116.84 139.13 122.71 139.06 129.00 C 139.24 133.92 138.00 139.83 134.51 143.52 C 130.94 147.46 125.05 148.47 120.21 146.42 C 118.51 147.20 119.29 148.77 118.27 150.28 C 115.83 155.04 111.20 155.28 106.94 157.72 L 105.85 156.89 L 107.07 156.05 L 107.96 155.35 L 108.92 155.09 C 112.56 154.03 116.34 152.58 117.56 148.61 C 117.88 146.80 119.14 145.79 119.68 144.17 L 120.66 143.23 L 121.01 144.35 L 121.86 145.72 C 126.58 146.22 130.94 146.07 134.10 142.07 C 139.33 135.59 137.18 126.82 138.15 119.20 C 138.56 118.20 138.79 117.14 138.84 116.00 L 138.94 115.16 C 139.80 112.77 140.90 110.91 142.54 108.97 C 139.41 106.88 137.34 104.18 135.20 101.20 C 134.21 100.12 132.35 100.59 131.01 100.47 C 123.37 100.44 115.61 100.72 108.00 100.23 C 107.80 92.49 107.96 84.73 107.94 76.99 C 107.87 75.55 108.15 74.27 107.24 73.04 C 103.73 70.39 100.04 71.49 95.91 71.41 C 95.01 71.99 94.11 72.56 93.21 73.13 C 92.88 81.98 93.18 91.05 93.07 99.93 L 92.05 99.83 C 92.16 91.22 92.09 82.61 92.09 74.00 C 91.71 72.65 89.92 72.05 89.12 70.87 C 89.12 69.82 89.16 68.76 89.24 67.71 C 88.21 67.37 87.10 67.36 85.92 67.67 C 87.28 67.13 88.65 66.74 90.11 66.53 Z" fill="#4a4641" />
<path d="M 85.92 67.67 C 87.10 67.36 88.21 67.37 89.24 67.71 C 89.16 68.76 89.12 69.82 89.12 70.87 C 89.92 72.05 91.71 72.65 92.09 74.00 C 92.09 82.61 92.16 91.22 92.05 99.83 C 88.97 99.74 85.90 99.89 82.83 99.85 C 83.34 98.75 84.77 98.31 85.72 97.60 C 85.42 95.40 83.34 93.96 84.56 91.58 C 85.10 90.57 84.20 89.23 84.11 88.14 C 85.39 85.86 87.47 84.96 87.13 82.01 C 87.32 78.92 85.39 77.21 84.65 74.40 C 81.90 73.05 80.28 71.78 77.09 72.86 C 73.09 75.40 71.27 80.32 71.99 84.90 C 72.68 86.18 73.65 87.22 74.67 88.24 L 75.00 88.68 C 73.23 90.40 73.59 91.49 75.11 93.20 L 74.69 93.67 C 73.03 95.27 72.43 97.10 73.04 99.38 C 71.50 99.99 67.37 100.06 65.89 99.35 C 69.02 91.35 69.04 80.01 61.20 74.67 C 61.47 73.81 61.83 72.98 62.30 72.17 C 64.89 72.88 67.22 73.91 70.00 73.78 C 75.94 73.86 80.64 69.75 85.92 67.67 Z" fill="#f18e00" />
<path d="M 110.96 67.85 C 112.33 66.95 114.43 67.25 115.84 67.93 C 119.44 69.58 122.86 71.68 126.52 73.22 C 130.68 73.76 134.08 73.57 137.95 71.94 C 138.66 72.47 139.23 73.17 139.65 74.04 C 137.50 76.92 134.83 78.84 133.78 82.51 C 132.81 88.21 133.53 93.57 133.93 99.25 C 130.20 100.17 125.86 99.46 122.00 99.67 C 117.66 99.46 112.95 100.16 108.73 99.28 C 108.33 97.37 107.30 92.92 110.30 92.71 L 110.74 93.43 L 111.89 95.24 C 117.02 96.44 123.52 96.06 128.58 94.50 C 130.54 93.62 129.97 91.76 130.05 90.01 C 129.84 88.51 130.19 85.93 128.71 85.03 L 127.76 84.23 C 128.34 82.78 128.18 80.73 126.16 80.95 L 125.23 80.97 C 124.02 79.02 122.29 75.86 119.51 76.66 C 114.04 79.54 110.63 84.90 109.85 91.00 L 108.74 91.12 C 107.88 86.26 108.56 80.96 108.34 75.99 C 108.00 73.58 109.64 72.76 110.42 70.82 C 110.61 69.83 110.79 68.84 110.96 67.85 Z" fill="#002e60" />
<path d="M 95.91 71.41 C 100.04 71.49 103.73 70.39 107.24 73.04 C 107.43 82.22 107.19 91.51 107.36 100.69 C 108.55 101.60 110.56 101.40 112.00 101.54 C 119.70 101.05 127.50 101.70 135.20 101.20 C 137.34 104.18 139.41 106.88 142.54 108.97 C 140.90 110.91 139.80 112.77 138.94 115.16 C 129.27 115.28 119.63 115.28 109.97 115.19 C 109.09 115.15 108.24 115.24 107.44 115.47 C 106.32 116.99 107.03 118.29 106.98 120.00 C 107.07 132.01 106.90 144.04 107.07 156.05 L 105.85 156.89 C 103.43 158.21 102.12 160.51 100.12 162.35 C 97.93 159.92 95.96 157.58 93.13 155.89 C 92.93 142.52 93.16 129.07 93.02 115.70 C 82.59 115.41 72.04 115.72 61.59 115.54 C 60.62 113.09 59.62 111.00 57.84 109.01 C 60.93 106.80 62.90 104.14 65.22 101.28 C 72.94 101.28 80.70 101.49 88.41 101.14 C 87.27 102.11 84.96 103.08 85.17 104.87 C 85.88 106.34 86.96 107.59 88.69 107.78 C 88.78 108.72 88.74 109.68 88.58 110.65 C 89.98 112.22 91.99 111.40 93.86 111.44 C 94.07 113.28 92.51 113.93 95.01 114.51 C 94.49 115.60 94.25 116.72 94.29 117.89 C 95.00 116.97 95.54 115.94 95.92 114.78 C 97.18 116.74 98.09 118.56 100.11 119.88 C 102.67 120.05 103.30 115.39 104.86 115.12 C 105.02 115.95 105.35 116.67 105.83 117.28 C 105.81 115.24 106.84 113.67 106.57 111.63 C 108.89 111.45 110.55 112.25 111.90 109.90 C 111.08 107.03 113.54 107.84 114.95 105.90 C 115.48 104.81 116.23 103.57 115.04 102.60 C 113.52 102.88 111.64 101.63 111.00 103.43 C 112.19 103.15 113.30 103.17 114.33 103.48 C 113.35 107.71 110.51 106.52 107.22 106.55 C 108.05 108.50 111.25 108.06 110.61 110.38 C 107.60 111.47 105.89 110.06 103.56 108.50 C 103.25 107.43 103.14 106.40 103.25 105.40 C 105.24 104.46 109.11 104.48 110.12 102.51 C 108.46 102.31 106.77 102.53 105.06 103.18 C 104.47 101.72 103.49 101.28 102.32 100.35 L 102.02 99.52 L 100.06 99.93 C 98.40 99.74 98.35 98.67 97.07 98.08 C 98.37 100.22 97.48 101.74 97.81 104.06 C 97.28 103.28 96.97 102.34 96.89 101.24 C 96.24 101.97 95.74 102.83 95.37 103.82 C 93.21 102.77 91.71 102.29 89.29 102.43 L 89.64 101.27 C 90.84 101.43 91.92 101.29 92.86 100.87 L 93.07 99.93 C 93.18 91.05 92.88 81.98 93.21 73.13 C 94.11 72.56 95.01 71.99 95.91 71.41 Z" fill="#ffffff" />
<path d="M 107.24 73.04 C 108.15 74.27 107.87 75.55 107.94 76.99 C 107.96 84.73 107.80 92.49 108.00 100.23 C 115.61 100.72 123.37 100.44 131.01 100.47 C 132.35 100.59 134.21 100.12 135.20 101.20 C 127.50 101.70 119.70 101.05 112.00 101.54 C 110.56 101.40 108.55 101.60 107.36 100.69 C 107.19 91.51 107.43 82.22 107.24 73.04 Z" fill="#676a72" />
<path d="M 78.04 74.35 C 79.96 74.68 81.59 76.19 83.47 75.78 C 83.68 77.37 84.85 78.42 84.83 80.02 C 84.83 81.74 84.74 83.43 84.77 85.15 C 83.85 87.42 81.98 88.39 82.77 91.10 C 82.28 91.39 81.79 91.67 81.29 91.95 C 85.11 92.91 83.28 96.34 81.99 98.61 C 80.39 99.30 80.98 95.86 80.61 95.05 C 80.23 95.99 79.94 96.98 79.74 98.00 C 78.68 98.51 77.67 98.65 76.68 98.41 L 77.02 96.36 C 79.95 93.94 77.62 90.88 77.07 87.98 C 77.20 85.54 78.68 83.55 78.41 80.99 C 78.45 78.98 77.65 77.31 76.82 75.54 L 78.04 74.35 Z" fill="#f5d463" />
<path d="M 76.82 75.54 C 77.65 77.31 78.45 78.98 78.41 80.99 C 78.68 83.55 77.20 85.54 77.07 87.98 C 77.62 90.88 79.95 93.94 77.02 96.36 C 76.49 96.99 75.88 97.42 75.18 97.65 C 72.71 96.86 74.34 95.32 74.69 93.67 L 75.11 93.20 C 76.96 91.92 76.02 90.13 75.00 88.68 L 74.67 88.24 C 73.79 86.35 72.75 85.21 73.24 82.98 C 73.35 80.69 74.17 76.14 76.82 75.54 Z" fill="#f0dc8e" />
<path d="M 117.87 78.59 C 118.78 81.24 118.33 83.99 119.16 86.61 C 118.52 87.61 117.66 88.47 116.88 89.35 C 116.28 89.38 115.68 89.43 115.09 89.50 C 116.33 89.55 117.57 89.58 118.82 89.58 C 118.59 90.57 118.40 91.57 118.25 92.57 C 119.55 92.54 120.86 92.53 122.16 92.53 C 122.78 93.17 123.43 93.78 124.10 94.37 C 120.69 94.43 116.96 94.85 113.58 94.32 C 112.67 93.59 111.73 93.30 110.74 93.43 L 110.30 92.71 C 110.90 91.59 111.15 90.39 111.04 89.12 C 111.96 87.87 111.88 86.77 112.19 85.34 C 112.75 84.84 113.25 84.29 113.70 83.69 C 113.96 80.68 116.47 81.08 117.87 78.59 Z" fill="#efdd90" />
<path d="M 117.87 78.59 C 119.63 78.38 121.54 77.86 123.12 78.93 C 123.51 79.64 123.87 80.36 124.19 81.10 C 123.72 81.97 121.89 83.20 122.81 84.26 C 124.24 86.31 124.03 88.46 123.82 90.84 L 121.95 91.34 C 121.62 90.63 121.22 89.99 120.74 89.41 C 119.47 89.52 118.18 89.50 116.88 89.35 C 117.66 88.47 118.52 87.61 119.16 86.61 C 118.33 83.99 118.78 81.24 117.87 78.59 Z" fill="#ffdc68" />
<path d="M 119.26 80.24 C 120.15 79.32 122.72 79.84 121.86 81.43 C 121.17 81.92 118.80 81.38 119.26 80.24 Z" fill="#c1a653" />
<path d="M 124.19 81.10 L 125.23 80.97 L 126.16 80.95 L 126.23 81.63 C 126.14 83.64 126.82 84.48 127.91 86.00 C 126.98 86.19 126.06 86.39 125.13 86.58 C 125.51 87.72 126.80 87.64 127.78 88.17 C 127.46 88.64 127.14 89.11 126.83 89.59 C 127.06 90.38 127.15 91.16 127.11 91.93 C 125.43 92.07 123.79 91.97 122.11 91.91 L 121.95 91.34 L 123.82 90.84 C 124.03 88.46 124.24 86.31 122.81 84.26 C 121.89 83.20 123.72 81.97 124.19 81.10 Z" fill="#f5d147" />
<path d="M 126.16 80.95 C 128.18 80.73 128.34 82.78 127.76 84.23 C 127.05 83.77 126.54 82.90 126.23 81.63 L 126.16 80.95 Z" fill="#132032" />
<path d="M 126.23 81.63 C 126.54 82.90 127.05 83.77 127.76 84.23 L 128.71 85.03 C 128.26 87.75 129.48 90.34 129.02 93.21 C 127.08 93.23 125.83 93.46 124.10 94.37 C 123.43 93.78 122.78 93.17 122.16 92.53 L 122.11 91.91 C 123.79 91.97 125.43 92.07 127.11 91.93 C 127.15 91.16 127.06 90.38 126.83 89.59 C 127.14 89.11 127.46 88.64 127.78 88.17 C 126.80 87.64 125.51 87.72 125.13 86.58 C 126.06 86.39 126.98 86.19 127.91 86.00 C 126.82 84.48 126.14 83.64 126.23 81.63 Z" fill="#c1a027" />
<path d="M 128.71 85.03 C 130.19 85.93 129.84 88.51 130.05 90.01 C 129.97 91.76 130.54 93.62 128.58 94.50 C 123.52 96.06 117.02 96.44 111.89 95.24 L 110.74 93.43 C 111.73 93.30 112.67 93.59 113.58 94.32 C 116.96 94.85 120.69 94.43 124.10 94.37 C 125.83 93.46 127.08 93.23 129.02 93.21 C 129.48 90.34 128.26 87.75 128.71 85.03 Z" fill="#16212f" />
<path d="M 75.00 88.68 C 76.02 90.13 76.96 91.92 75.11 93.20 C 73.59 91.49 73.23 90.40 75.00 88.68 Z" fill="#aa8a47" />
<path d="M 116.88 89.35 C 118.18 89.50 119.47 89.52 120.74 89.41 C 121.22 89.99 121.62 90.63 121.95 91.34 L 122.11 91.91 L 122.16 92.53 C 120.86 92.53 119.55 92.54 118.25 92.57 C 118.40 91.57 118.59 90.57 118.82 89.58 C 117.57 89.58 116.33 89.55 115.09 89.50 C 115.68 89.43 116.28 89.38 116.88 89.35 Z" fill="#000000" />
<path d="M 13.82 93.54 C 14.47 94.90 17.39 94.73 18.21 93.69 C 19.99 93.81 21.75 93.73 23.53 93.66 C 24.09 94.22 24.50 94.86 24.76 95.56 C 23.83 95.52 22.67 95.02 21.27 94.07 C 21.13 97.48 21.03 100.95 21.28 104.35 C 21.73 104.67 22.17 104.99 22.62 105.31 C 21.16 105.23 19.70 105.24 18.23 105.28 C 18.66 104.94 19.09 104.62 19.54 104.32 C 19.55 100.88 19.75 97.40 19.38 93.99 C 17.76 94.64 16.67 96.43 14.79 96.42 C 14.28 94.79 13.24 94.11 11.68 94.35 C 10.40 96.30 10.19 96.57 12.05 98.13 C 14.22 98.76 16.93 101.06 15.43 103.51 C 13.99 105.85 12.16 105.51 9.76 105.27 C 9.31 104.41 9.09 103.40 9.12 102.24 C 10.75 103.55 10.62 104.97 13.26 104.44 C 13.59 103.63 13.94 102.82 14.30 102.02 C 12.92 99.57 9.59 99.81 9.26 96.99 C 8.90 94.42 11.61 93.20 13.82 93.54 Z" fill="#000000" />
<path d="M 0.38 93.54 C 2.53 93.72 5.00 93.06 7.04 93.71 C 7.42 94.32 7.65 95.00 7.74 95.76 C 6.12 96.47 4.43 93.89 3.01 95.74 L 3.01 98.20 C 4.16 98.49 5.49 98.31 7.00 97.65 L 7.00 100.67 C 5.71 100.32 4.41 100.13 3.12 100.11 C 3.02 101.13 2.98 102.16 3.00 103.20 C 4.38 104.97 6.31 102.79 8.01 102.83 C 7.82 104.33 7.78 105.67 5.88 105.57 C 3.92 105.56 1.96 105.41 0.00 105.45 L 0.00 104.85 L 0.95 103.98 C 1.01 100.56 1.49 96.81 0.38 93.54 Z" fill="#777777" />
<path d="M 174.19 95.45 C 174.31 98.72 173.75 102.23 174.68 105.37 C 173.57 105.26 172.46 105.23 171.35 105.30 C 171.78 104.98 172.21 104.66 172.64 104.34 C 172.76 101.83 172.85 99.25 172.69 96.74 C 172.03 96.51 171.60 96.20 171.42 95.81 C 172.93 95.41 173.20 93.27 174.19 95.45 Z" fill="#090909" />
<path d="M 180.15 94.29 C 183.55 93.93 185.06 97.14 182.97 99.81 C 184.34 101.14 184.05 102.06 183.97 103.81 C 182.75 105.49 180.80 106.30 178.93 105.12 C 177.08 103.76 177.22 101.96 178.00 99.98 C 177.73 97.53 177.03 95.14 180.15 94.29 Z" fill="#5f5f5f" />
<path d="M 189.00 94.27 C 192.12 94.45 192.88 97.36 191.17 99.74 C 192.33 101.36 192.41 102.00 192.01 103.95 C 190.83 105.59 188.80 106.18 187.07 105.03 C 185.25 103.79 185.44 101.39 186.72 99.78 C 185.13 97.31 185.90 94.50 189.00 94.27 Z" fill="#535353" />
<path d="M 195.28 94.39 C 196.90 94.21 198.41 94.23 200.00 94.62 L 200.00 95.48 C 198.73 95.89 197.41 96.13 196.03 96.22 L 196.00 98.33 C 197.85 98.34 198.50 98.45 200.00 99.57 L 200.00 103.95 C 198.17 105.67 196.82 105.91 194.37 105.55 L 194.05 104.30 C 195.26 104.13 196.44 103.87 197.59 103.51 C 198.83 101.99 199.13 101.83 197.71 100.21 C 196.63 100.27 195.54 100.48 194.44 100.84 C 193.71 99.01 194.27 96.79 194.58 94.90 L 195.28 94.39 Z" fill="#696969" />
<path d="M 180.15 96.16 C 181.73 95.09 182.56 97.56 181.57 98.61 C 180.04 99.67 178.86 97.29 180.15 96.16 Z" fill="#f2f2f2" />
<path d="M 188.94 95.47 C 190.96 95.71 189.93 98.79 189.10 99.85 C 190.76 101.61 191.18 103.12 188.95 104.55 C 188.11 104.06 187.55 103.23 187.28 102.07 C 187.79 101.31 188.32 100.56 188.89 99.83 C 188.45 99.12 188.06 98.38 187.72 97.62 L 187.79 97.29 C 187.83 96.29 188.21 95.69 188.94 95.47 Z" fill="#c6c6c6" />
<path d="M 196.03 96.22 C 197.41 96.13 198.73 95.89 200.00 95.48 L 200.00 99.57 C 198.50 98.45 197.85 98.34 196.00 98.33 L 196.03 96.22 Z" fill="#f5f5f5" />
<path d="M 100.06 99.93 L 102.02 99.52 L 102.32 100.35 C 101.33 102.53 98.12 103.14 100.06 99.93 Z" fill="#a77324" />
<path d="M 179.34 101.33 C 181.25 99.61 182.34 100.61 182.00 102.94 C 181.41 105.98 178.17 102.79 179.34 101.33 Z" fill="#ebebeb" />
<path d="M 92.08 103.66 C 94.11 105.14 96.67 104.07 97.91 106.94 C 96.20 109.99 93.27 111.48 89.70 110.63 C 90.23 107.98 93.04 109.37 93.71 106.67 C 91.93 106.54 86.55 107.74 86.62 104.95 C 86.73 102.28 90.43 103.63 92.08 103.66 Z" fill="#fbfbfb" />
<path d="M 98.14 115.29 C 98.92 114.84 103.01 114.58 101.89 116.42 C 101.09 116.63 97.70 116.66 98.14 115.29 Z" fill="#ba8229" />
<path d="M 107.44 115.47 C 108.24 115.24 109.09 115.15 109.97 115.19 C 119.63 115.28 129.27 115.28 138.94 115.16 L 138.84 116.00 C 128.56 115.89 118.28 115.92 108.00 115.97 C 107.80 129.08 107.89 142.24 107.96 155.35 L 107.07 156.05 C 106.90 144.04 107.07 132.01 106.98 120.00 C 107.03 118.29 106.32 116.99 107.44 115.47 Z" fill="#9ea0a3" />
<path d="M 108.00 115.97 C 118.28 115.92 128.56 115.89 138.84 116.00 C 138.79 117.14 138.56 118.20 138.15 119.20 L 137.87 117.05 C 133.96 117.18 129.63 116.46 125.88 117.59 L 123.98 118.08 L 123.14 118.12 C 122.17 117.93 121.20 117.73 120.23 117.54 C 116.68 116.54 112.68 117.15 109.01 117.05 C 108.72 129.70 108.91 142.43 108.92 155.09 L 107.96 155.35 C 107.89 142.24 107.80 129.08 108.00 115.97 Z" fill="#8c5105" />
<path d="M 61.58 116.57 C 64.83 116.17 68.94 115.98 72.12 116.68 C 71.70 118.78 71.34 120.86 71.17 123.00 C 69.51 123.94 70.51 126.36 71.24 127.62 C 72.12 127.65 72.99 127.71 73.86 127.82 C 74.14 129.70 75.07 130.68 76.66 130.76 C 76.75 129.90 76.87 129.04 77.03 128.19 C 77.19 129.12 77.32 130.05 77.40 131.00 C 79.72 130.07 79.93 128.12 82.68 128.56 C 83.28 127.34 83.70 126.05 83.86 124.71 C 82.99 123.62 82.22 123.66 82.63 121.95 C 83.16 120.51 81.42 119.08 80.53 118.14 C 81.19 117.23 81.98 116.62 82.89 116.32 C 85.97 116.39 89.36 115.92 92.35 116.63 C 92.81 120.37 92.44 124.23 92.55 128.00 C 92.45 130.75 92.86 133.69 92.22 136.37 C 91.50 136.02 90.85 135.55 90.28 134.95 L 88.98 133.71 C 88.03 133.63 87.08 133.61 86.12 133.66 C 86.64 132.01 87.92 129.58 87.06 127.96 C 83.41 128.20 80.45 132.60 80.87 136.14 C 78.67 135.22 79.95 132.39 77.39 132.04 C 77.07 134.60 79.46 137.11 80.93 139.05 C 82.45 141.19 85.66 142.50 86.17 145.11 L 87.02 146.16 C 88.45 145.77 88.45 143.70 87.28 142.98 C 85.42 140.89 81.96 139.13 81.18 136.45 L 83.92 136.72 C 86.53 139.25 89.20 137.70 92.38 138.58 C 92.65 144.05 92.72 149.90 92.35 155.36 C 90.79 156.31 89.22 154.98 87.77 154.39 C 85.81 153.31 84.10 151.77 82.84 149.92 C 82.17 148.24 82.12 146.69 80.51 145.57 C 79.01 145.48 77.55 146.45 76.04 146.60 C 74.01 146.68 71.91 146.44 69.87 146.28 L 69.27 146.00 C 67.27 143.12 64.54 141.61 63.50 138.07 C 61.41 133.28 62.54 127.22 62.24 122.01 C 62.28 120.05 60.85 118.44 61.58 116.57 Z" fill="#002e60" />
<path d="M 109.01 117.05 C 112.68 117.15 116.68 116.54 120.23 117.54 L 118.51 118.57 C 118.63 119.74 119.18 120.81 119.38 121.97 C 118.71 123.10 118.20 124.28 117.82 125.50 C 116.29 124.79 114.83 122.92 113.48 122.42 C 111.21 125.99 110.43 129.66 110.14 133.72 L 111.91 134.30 C 111.84 135.12 111.57 135.95 111.11 136.81 C 111.60 137.73 112.09 138.65 112.57 139.57 C 113.15 139.48 113.73 139.35 114.29 139.19 L 114.67 139.14 C 115.03 141.34 117.10 140.23 118.62 140.49 C 120.07 140.97 119.28 142.95 119.68 144.17 C 119.14 145.79 117.88 146.80 117.56 148.61 C 116.34 152.58 112.56 154.03 108.92 155.09 C 108.91 142.43 108.72 129.70 109.01 117.05 Z" fill="#f18e00" />
<path d="M 137.87 117.05 L 138.15 119.20 C 137.18 126.82 139.33 135.59 134.10 142.07 C 130.94 146.07 126.58 146.22 121.86 145.72 L 121.01 144.35 C 122.88 143.03 123.18 141.16 124.13 139.23 C 128.67 140.13 131.53 137.31 133.94 133.86 C 133.70 131.51 134.33 129.54 134.89 127.32 C 133.37 127.65 131.84 127.90 130.32 128.21 C 127.70 129.52 125.64 131.98 123.00 133.10 C 123.30 130.96 126.42 129.93 127.04 127.95 C 128.22 125.49 127.21 123.09 128.95 120.83 L 129.39 120.03 C 128.89 118.68 127.06 118.21 125.88 117.59 C 129.63 116.46 133.96 117.18 137.87 117.05 Z" fill="#f18e00" />
<path d="M 77.82 118.73 C 78.69 118.46 79.60 118.26 80.53 118.14 C 81.42 119.08 83.16 120.51 82.63 121.95 C 82.22 123.66 82.99 123.62 83.86 124.71 C 83.70 126.05 83.28 127.34 82.68 128.56 C 79.93 128.12 79.72 130.07 77.40 131.00 C 77.32 130.05 77.19 129.12 77.03 128.19 C 76.87 129.04 76.75 129.90 76.66 130.76 C 75.07 130.68 74.14 129.70 73.86 127.82 C 72.99 127.71 72.12 127.65 71.24 127.62 C 70.51 126.36 69.51 123.94 71.17 123.00 L 71.81 122.48 C 71.83 121.69 71.81 120.90 71.77 120.12 C 73.18 118.32 76.01 116.37 77.82 118.73 Z" fill="#ffffff" />
<path d="M 118.51 118.57 L 120.23 117.54 C 121.20 117.73 122.17 117.93 123.14 118.12 C 121.91 118.71 119.13 119.03 119.73 120.95 C 121.55 123.01 126.01 123.07 125.66 119.28 C 125.11 118.86 124.55 118.46 123.98 118.08 L 125.88 117.59 C 127.06 118.21 128.89 118.68 129.39 120.03 L 128.95 120.83 C 127.97 121.85 127.10 122.96 126.23 124.08 C 124.76 122.82 122.90 122.60 121.04 122.90 C 119.32 123.90 118.38 125.84 119.06 127.79 C 118.59 127.06 118.18 126.30 117.82 125.50 C 118.20 124.28 118.71 123.10 119.38 121.97 C 119.18 120.81 118.63 119.74 118.51 118.57 Z" fill="#6c272f" />
<path d="M 123.14 118.12 L 123.98 118.08 C 124.55 118.46 125.11 118.86 125.66 119.28 C 126.01 123.07 121.55 123.01 119.73 120.95 C 119.13 119.03 121.91 118.71 123.14 118.12 Z" fill="#aa0280" />
<path d="M 128.95 120.83 C 127.21 123.09 128.22 125.49 127.04 127.95 C 126.42 129.93 123.30 130.96 123.00 133.10 C 125.64 131.98 127.70 129.52 130.32 128.21 C 131.84 127.90 133.37 127.65 134.89 127.32 C 134.33 129.54 133.70 131.51 133.94 133.86 C 131.53 137.31 128.67 140.13 124.13 139.23 C 123.18 141.16 122.88 143.03 121.01 144.35 L 120.66 143.23 L 119.68 144.17 C 119.28 142.95 120.07 140.97 118.62 140.49 C 117.10 140.23 115.03 141.34 114.67 139.14 C 115.74 139.00 116.82 138.89 117.90 138.80 C 117.80 136.57 119.13 133.31 117.27 131.71 C 115.60 129.85 115.27 127.17 113.74 125.13 C 111.85 128.36 111.78 131.88 113.94 134.86 C 113.70 135.55 113.48 136.23 113.28 136.93 C 113.60 137.69 113.94 138.44 114.29 139.19 C 113.73 139.35 113.15 139.48 112.57 139.57 C 112.09 138.65 111.60 137.73 111.11 136.81 C 111.57 135.95 111.84 135.12 111.91 134.30 L 110.14 133.72 C 110.43 129.66 111.21 125.99 113.48 122.42 C 114.83 122.92 116.29 124.79 117.82 125.50 C 118.18 126.30 118.59 127.06 119.06 127.79 C 120.06 128.85 121.04 129.94 122.10 130.95 C 124.74 129.41 125.96 127.10 126.23 124.08 C 127.10 122.96 127.97 121.85 128.95 120.83 Z" fill="#6e5a04" />
<path d="M 75.10 122.37 C 76.45 122.58 77.61 122.63 78.96 122.43 C 79.63 124.60 78.85 125.10 77.51 126.60 C 74.40 126.00 74.58 125.30 75.10 122.37 Z" fill="#848178" />
<path d="M 121.04 122.90 C 122.90 122.60 124.76 122.82 126.23 124.08 C 125.96 127.10 124.74 129.41 122.10 130.95 C 121.04 129.94 120.06 128.85 119.06 127.79 C 118.38 125.84 119.32 123.90 121.04 122.90 Z" fill="#95be0d" />
<path d="M 113.74 125.13 C 115.27 127.17 115.60 129.85 117.27 131.71 C 119.13 133.31 117.80 136.57 117.90 138.80 C 116.82 138.89 115.74 139.00 114.67 139.14 L 114.29 139.19 C 113.94 138.44 113.60 137.69 113.28 136.93 C 113.48 136.23 113.70 135.55 113.94 134.86 C 111.78 131.88 111.85 128.36 113.74 125.13 Z" fill="#96bf0d" />
<path d="M 116.16 126.10 L 117.03 126.05 L 117.08 126.90 L 116.20 126.95 L 116.16 126.10 Z" fill="#ff9900" />
<path d="M 87.06 127.96 C 87.92 129.58 86.64 132.01 86.12 133.66 C 87.08 133.61 88.03 133.63 88.98 133.71 L 90.28 134.95 C 90.61 136.10 90.55 137.05 90.10 137.80 C 88.00 137.70 85.95 137.33 83.92 136.72 L 81.18 136.45 C 81.96 139.13 85.42 140.89 87.28 142.98 C 86.91 143.69 86.54 144.40 86.17 145.11 C 85.66 142.50 82.45 141.19 80.93 139.05 C 79.46 137.11 77.07 134.60 77.39 132.04 C 79.95 132.39 78.67 135.22 80.87 136.14 C 80.45 132.60 83.41 128.20 87.06 127.96 Z" fill="#88ae0c" />
<path d="M 117.20 129.15 L 117.99 128.66 L 118.78 129.00 L 118.79 129.85 L 117.97 130.37 L 117.19 130.04 L 117.20 129.15 Z" fill="#f18700" />
<path d="M 70.04 130.01 C 71.44 130.24 73.63 130.00 74.72 130.95 C 75.59 132.27 77.30 133.53 76.24 135.23 C 73.08 136.34 69.55 133.36 70.04 130.01 Z" fill="#92bb0d" />
<path d="M 130.14 129.82 C 131.01 129.81 131.87 129.89 132.74 130.06 C 132.61 131.36 132.45 132.67 132.25 133.96 C 131.25 135.09 130.19 136.20 129.03 137.16 C 127.43 138.11 125.04 137.62 123.31 138.22 C 122.56 139.49 122.18 141.21 121.05 142.18 C 120.30 139.15 123.06 137.67 122.04 134.21 C 122.91 134.34 123.78 134.47 124.65 134.62 C 124.85 135.37 125.05 136.13 125.25 136.89 C 127.00 136.19 126.84 133.77 127.28 132.25 C 128.01 131.26 129.16 130.55 130.14 129.82 Z" fill="#90b80c" />
<path d="M 114.11 131.20 C 115.21 131.09 115.48 131.61 114.91 132.78 C 113.82 132.90 113.55 132.37 114.11 131.20 Z" fill="#6c8809" />
<path d="M 119.92 130.50 C 122.08 131.47 120.72 136.11 120.96 138.09 C 118.10 137.89 119.53 135.87 119.77 134.06 C 119.53 132.88 118.24 131.15 119.92 130.50 Z" fill="#d87b00" />
<path d="M 32.95 136.35 C 34.65 139.65 37.29 142.76 38.67 146.13 C 37.71 146.70 36.76 147.29 35.83 147.91 C 34.44 146.21 33.53 143.41 31.89 142.10 C 30.18 142.70 28.70 144.06 27.12 144.95 C 27.99 146.36 28.93 147.73 29.82 149.13 C 29.29 150.04 28.37 150.67 27.05 150.99 C 25.49 150.44 25.44 147.64 23.89 147.10 C 21.09 148.13 18.06 151.45 15.22 151.86 C 14.54 150.89 13.88 149.90 13.24 148.90 C 19.62 144.51 26.42 140.55 32.95 136.35 Z" fill="#002e60" />
<path d="M 76.77 137.25 C 78.26 140.04 72.90 143.82 70.60 142.37 C 71.12 139.26 73.20 136.26 76.77 137.25 Z" fill="#86aa0c" />
<path d="M 167.48 137.62 C 171.25 136.57 175.31 138.99 176.00 142.88 C 180.31 141.18 186.52 145.09 185.39 150.05 C 184.81 152.87 182.45 155.43 181.11 157.98 C 174.68 153.94 168.26 149.85 161.71 146.02 L 161.69 145.15 C 163.62 142.36 164.60 139.54 167.48 137.62 Z" fill="#002e61" />
<path d="M 170.46 141.71 C 172.75 143.32 173.46 144.27 171.90 146.90 C 169.94 146.57 168.32 144.96 166.58 144.05 C 167.30 142.06 168.33 141.23 170.46 141.71 Z" fill="#ffffff" />
<path d="M 87.28 142.98 C 88.45 143.70 88.45 145.77 87.02 146.16 L 86.17 145.11 C 86.54 144.40 86.91 143.69 87.28 142.98 Z" fill="#071318" />
<path d="M 177.85 146.39 C 179.47 146.39 181.04 147.77 181.76 149.14 C 181.88 150.34 181.16 151.93 180.18 152.62 C 178.40 151.26 176.47 150.19 174.56 149.03 C 175.18 147.69 176.11 146.05 177.85 146.39 Z" fill="#ffffff" />
<path d="M 160.18 148.71 C 164.39 152.85 168.86 156.76 172.98 161.00 C 175.23 163.62 174.55 166.91 172.11 169.11 C 170.07 171.60 165.98 171.53 163.87 169.16 C 159.63 165.16 155.21 161.29 151.16 157.10 C 152.07 156.25 152.86 154.79 154.01 154.27 C 158.25 158.04 162.96 162.92 167.32 166.71 C 168.91 167.30 170.11 166.64 170.58 164.99 C 166.98 159.93 160.80 155.88 156.97 151.02 C 157.69 150.42 159.10 147.53 160.18 148.71 Z" fill="#002e60" />
<path d="M 39.95 149.68 C 44.39 150.12 48.57 155.35 45.49 159.53 C 43.14 162.14 40.41 164.44 37.88 166.87 C 35.76 168.69 34.07 170.99 30.94 170.63 C 27.10 169.82 23.57 164.91 26.18 161.21 C 28.48 158.29 31.65 155.91 34.34 153.33 C 36.08 151.58 37.49 150.30 39.95 149.68 Z" fill="#002e60" />
<path d="M 40.99 153.65 C 41.61 154.18 42.15 154.77 42.62 155.40 C 42.89 157.00 41.52 157.53 40.60 158.61 C 37.81 161.17 35.14 163.88 32.28 166.37 C 30.65 167.57 28.37 165.14 29.54 163.56 C 32.50 160.52 35.67 157.65 38.81 154.80 C 39.47 154.20 40.20 153.82 40.99 153.65 Z" fill="#ffffff" />
<path d="M 58.38 169.49 C 56.21 172.91 53.68 176.09 51.42 179.45 C 50.39 180.87 48.94 182.86 47.01 182.90 C 42.82 183.68 38.12 179.19 39.76 174.95 C 41.60 171.57 44.18 168.55 46.33 165.35 C 47.27 164.08 48.26 162.25 49.73 161.58 C 54.17 158.81 60.90 164.47 58.38 169.49 Z" fill="#002e60" />
<path d="M 146.45 161.49 C 150.17 166.65 154.18 171.61 158.00 176.70 C 159.62 175.64 161.13 173.66 162.96 173.09 C 164.00 173.75 164.51 174.81 164.95 175.90 C 162.26 177.86 159.68 179.97 157.03 181.98 C 152.43 176.51 147.57 169.69 143.00 164.00 C 143.06 163.23 145.67 160.75 146.45 161.49 Z" fill="#002e60" />
<path d="M 53.02 164.53 C 54.76 165.50 55.59 166.44 54.30 168.28 C 51.49 171.87 49.20 176.06 46.02 179.32 C 44.51 179.36 42.45 177.61 43.82 176.08 C 45.84 173.03 48.07 170.12 50.13 167.09 C 50.93 166.08 51.64 164.75 53.02 164.53 Z" fill="#ffffff" />
<path d="M 62.08 167.02 C 65.69 168.12 69.05 170.24 72.53 171.73 C 72.85 172.47 71.71 174.87 70.93 174.96 C 69.89 174.55 68.88 174.04 67.91 173.44 C 65.04 179.15 62.43 185.01 59.68 190.78 C 58.62 191.36 57.21 190.08 56.18 189.73 L 56.01 188.94 C 58.58 183.32 61.23 177.71 63.91 172.14 C 63.70 170.76 61.44 171.13 60.90 169.93 C 61.17 168.89 61.57 167.92 62.08 167.02 Z" fill="#002e60" />
<path d="M 137.00 167.18 C 140.34 166.58 143.22 169.47 143.73 172.54 C 142.61 173.00 141.42 173.95 140.18 173.93 C 139.30 172.47 138.85 171.10 137.00 170.62 C 135.80 171.30 135.26 172.11 135.40 173.02 C 137.28 176.94 139.35 180.77 141.34 184.63 C 141.68 185.33 142.23 185.91 143.02 186.36 C 143.91 186.05 144.63 185.58 145.19 184.95 C 145.71 183.62 144.11 182.06 143.59 180.88 C 143.83 179.61 146.13 179.32 147.06 178.50 C 148.28 180.44 150.08 183.65 148.84 185.89 C 147.23 189.91 141.02 191.58 138.37 187.63 C 136.03 183.59 133.94 179.35 131.83 175.18 C 130.10 171.36 133.17 167.61 137.00 167.18 Z" fill="#002e60" />
<path d="M 74.77 172.45 C 77.81 173.89 82.58 173.67 84.46 176.74 C 85.73 180.16 84.66 184.24 81.17 185.82 C 84.20 188.50 82.56 194.38 79.48 196.34 C 76.38 197.89 71.93 195.70 68.70 195.11 C 70.50 187.66 72.42 179.74 74.77 172.45 Z" fill="#002e60" />
<path d="M 116.57 175.14 C 117.89 181.31 119.36 187.45 120.68 193.61 L 121.13 193.96 C 123.06 193.71 125.03 192.79 126.94 192.80 C 127.33 193.98 127.51 195.15 127.47 196.32 C 124.15 196.88 120.90 197.82 117.61 198.50 C 115.81 190.96 114.26 183.35 112.42 175.83 C 113.74 175.57 115.22 174.96 116.57 175.14 Z" fill="#002e61" />
<path d="M 90.43 176.22 C 92.09 176.21 93.75 176.48 95.41 176.57 C 96.26 184.33 96.91 192.21 97.55 200.00 L 93.73 200.00 C 93.49 198.23 93.56 196.44 93.34 194.67 C 91.99 194.46 90.62 194.32 89.26 194.27 C 88.70 195.86 88.52 197.58 88.10 199.22 C 86.94 199.21 85.77 199.15 84.61 199.04 L 84.21 198.27 C 86.36 190.94 88.33 183.56 90.43 176.22 Z" fill="#002e60" />
<path d="M 78.86 177.19 C 82.92 178.29 80.07 185.27 76.22 182.78 C 76.43 181.20 76.87 179.68 77.29 178.14 C 77.33 177.18 77.86 176.86 78.86 177.19 Z" fill="#ffffff" />
<path d="M 101.02 176.82 C 102.38 176.60 103.73 176.54 105.06 176.64 C 105.47 182.88 105.97 189.73 106.35 195.86 C 108.35 196.12 110.49 195.68 112.51 195.65 C 112.82 196.94 112.84 198.18 112.59 199.38 C 109.64 199.51 106.64 199.59 103.72 200.00 L 102.62 200.00 C 102.00 192.33 101.39 184.42 101.02 176.82 Z" fill="#002e61" />
<path d="M 92.72 181.98 C 93.14 184.98 93.08 188.05 93.19 191.07 C 92.14 191.10 91.11 191.03 90.10 190.85 C 90.76 188.09 90.90 184.18 92.72 181.98 Z" fill="#b8c1ca" />
<path d="M 75.21 186.17 C 76.43 186.38 77.55 186.49 78.38 187.52 C 79.53 190.68 77.67 194.76 73.68 192.99 C 73.62 190.83 74.72 188.35 75.21 186.17 Z" fill="#ffffff" />
</svg>