<?xml version="1.0" encoding="UTF-8" standalone="no"?>
<!DOCTYPE svg PUBLIC "-//W3C//DTD SVG 1.1//EN" "http://www.w3.org/Graphics/SVG/1.1/DTD/svg11.dtd">
<svg xmlns="http://www.w3.org/2000/svg" version="1.1" viewBox="0 0 200 200" width="200.0pt" height="200.0pt">
<path d="M 0.00 0.00 L 200.00 0.00 L 200.00 124.59 C 194.88 121.48 190.23 117.31 185.12 114.16 C 184.60 119.23 185.60 124.64 185.45 129.76 C 186.95 129.71 187.55 128.32 189.04 128.04 C 194.42 131.60 194.53 142.68 188.06 145.47 C 185.46 143.23 187.39 138.30 188.54 135.65 C 186.55 135.93 184.65 136.42 183.90 133.96 C 182.73 131.39 184.32 128.74 183.75 126.34 C 181.48 125.98 179.57 125.92 178.20 123.78 C 176.75 120.70 178.03 117.93 178.95 114.96 C 175.38 114.11 172.13 113.00 169.80 109.97 C 168.66 107.93 169.93 105.00 171.81 103.79 C 175.27 101.30 180.12 101.49 184.04 101.03 C 182.63 96.94 181.48 92.59 183.33 88.42 C 185.39 84.41 189.57 82.88 193.85 82.68 L 193.91 81.99 C 191.26 78.32 189.01 74.74 189.14 70.00 C 189.34 64.99 192.23 61.48 195.72 58.27 C 185.70 49.74 182.95 35.85 184.58 23.32 C 179.96 30.23 174.25 36.00 168.94 42.37 L 168.17 42.08 C 166.56 35.53 164.72 28.80 162.79 22.36 C 162.03 23.62 162.18 26.01 161.73 27.52 C 159.21 38.36 153.14 48.70 146.56 57.58 C 145.75 57.68 144.91 57.45 144.02 56.88 C 144.60 55.53 144.60 54.45 144.61 53.01 C 145.86 52.40 147.12 52.00 148.12 50.98 C 147.34 49.75 147.06 49.44 147.35 47.97 C 147.50 46.17 145.76 44.55 144.55 43.42 C 142.90 42.12 141.04 40.50 139.00 39.91 C 139.00 41.27 139.01 42.63 139.02 43.99 C 136.60 43.01 134.88 40.25 132.40 39.38 C 132.59 41.30 133.67 43.09 133.98 45.01 C 133.86 46.47 133.44 47.89 133.24 49.34 C 130.32 49.89 127.18 48.18 124.07 49.18 C 122.24 49.43 122.10 50.90 120.98 52.05 C 118.73 52.49 116.44 52.75 114.21 53.25 C 113.22 56.05 115.56 59.75 116.72 62.18 C 115.39 62.96 114.09 63.24 112.83 63.02 C 113.13 62.40 113.42 61.77 113.69 61.13 C 110.26 60.16 106.97 60.20 103.88 58.09 C 103.24 57.60 102.68 57.44 102.20 57.60 C 103.51 62.34 106.84 64.62 110.28 67.73 C 110.95 68.15 111.86 69.46 112.64 69.44 C 112.34 68.25 111.41 67.21 111.66 66.01 C 113.56 66.55 114.97 66.41 116.87 66.05 C 118.74 67.56 117.68 69.87 118.05 71.99 C 118.46 72.93 118.67 75.36 120.03 75.15 C 120.34 73.85 120.69 72.58 121.13 71.32 C 121.74 71.49 122.35 71.67 122.96 71.85 C 124.29 70.92 125.19 68.26 126.98 67.84 C 129.19 68.54 126.89 70.24 126.62 71.51 C 126.11 73.95 124.20 75.17 123.55 77.50 C 123.10 78.91 121.84 80.02 121.37 81.46 C 120.68 84.94 118.78 87.26 119.18 91.04 C 116.75 96.42 117.57 103.45 119.05 109.02 C 121.38 116.78 127.18 125.15 135.17 127.76 C 137.25 128.45 137.65 129.99 137.38 132.01 C 137.09 135.17 136.99 140.51 134.06 142.48 C 131.74 143.08 128.95 140.78 126.49 140.48 C 123.69 135.99 120.34 130.05 115.22 127.76 C 112.41 125.40 108.59 124.12 104.99 123.62 C 101.54 122.12 97.62 122.54 94.16 123.79 C 89.36 124.38 86.19 126.78 82.25 129.22 C 78.46 132.33 75.98 136.30 73.58 140.48 C 71.65 140.97 69.84 141.66 68.01 142.43 C 66.28 143.22 65.12 142.11 64.32 140.69 C 62.77 137.46 62.62 133.43 62.58 129.91 C 63.30 127.81 65.16 127.78 66.91 126.92 C 71.75 124.76 75.31 120.44 77.96 115.98 C 81.84 109.35 82.98 101.58 81.90 94.02 C 80.25 90.59 81.27 87.17 79.20 83.87 C 78.99 80.70 76.71 79.01 75.90 76.09 C 75.13 74.70 73.98 73.80 73.61 72.17 C 73.38 70.51 71.03 69.14 72.71 67.82 C 74.57 68.12 76.25 70.70 76.74 72.43 C 77.50 72.07 78.24 71.84 78.98 71.76 C 79.54 72.91 79.76 74.21 79.63 75.64 C 81.04 75.84 81.19 73.83 81.69 72.86 C 82.70 70.29 80.90 67.98 83.13 66.05 C 85.06 66.43 86.44 66.57 88.38 65.98 C 88.22 66.95 88.10 67.93 88.02 68.90 C 91.81 66.19 96.58 62.35 97.77 57.60 C 96.99 57.17 95.64 58.57 94.83 58.81 C 92.11 60.37 89.24 60.25 86.32 61.10 C 86.58 61.75 86.86 62.39 87.15 63.03 C 85.64 63.27 84.43 62.95 83.51 62.06 C 84.44 59.63 86.81 55.91 85.78 53.26 C 83.54 52.76 81.27 52.47 79.02 52.07 C 77.88 50.91 77.80 49.45 75.93 49.18 C 72.82 48.16 69.68 49.89 66.76 49.35 C 66.16 46.42 65.63 44.60 66.98 41.75 C 67.36 40.96 67.55 40.17 67.55 39.37 C 65.55 40.12 62.95 42.48 61.65 44.17 C 60.48 42.85 61.17 41.56 60.99 39.92 C 58.05 40.98 54.87 43.51 53.09 46.10 C 52.03 47.99 53.56 49.24 51.89 50.97 C 52.90 51.99 54.16 52.42 55.42 53.02 C 55.39 54.49 55.41 55.51 55.96 56.89 C 55.08 57.45 54.25 57.68 53.46 57.58 C 45.82 47.31 39.07 35.38 37.35 22.53 L 37.02 22.47 C 35.47 28.76 33.37 35.53 31.83 42.06 L 31.04 42.33 C 26.28 36.40 20.39 31.01 16.48 24.49 L 15.50 24.27 C 16.90 36.63 14.09 49.85 4.31 58.26 C 6.57 60.62 8.97 62.70 10.03 66.01 C 11.97 70.70 10.40 75.64 7.70 79.66 C 7.23 80.55 5.81 81.62 6.15 82.68 C 10.47 82.89 14.61 84.36 16.66 88.43 C 18.60 92.80 17.31 96.74 15.98 101.02 C 19.90 101.50 24.70 101.30 28.19 103.79 C 30.12 104.98 31.32 107.92 30.22 109.97 C 27.87 112.98 24.61 114.13 21.02 114.95 C 22.00 117.80 23.24 120.83 21.79 123.78 C 20.43 125.91 18.53 126.01 16.24 126.33 C 15.78 129.18 17.35 131.86 15.76 134.82 C 14.47 136.48 13.19 135.78 11.45 135.65 C 12.59 138.10 14.51 143.37 11.98 145.32 C 8.06 144.07 6.13 138.28 7.24 134.48 C 7.75 132.35 8.69 128.88 10.96 128.03 C 12.50 128.30 12.98 129.78 14.52 129.73 C 14.44 124.63 15.36 119.22 14.90 114.13 C 10.55 116.95 6.37 120.22 2.15 123.26 C 1.55 123.72 0.83 124.03 0.00 124.17 L 0.00 0.00 Z" fill="#ffffff" />
<path d="M 100.00 3.83 C 117.84 3.75 135.59 8.85 150.72 18.29 C 151.46 19.72 149.25 21.45 149.26 22.99 C 150.81 24.07 152.42 25.07 153.95 26.19 L 154.05 27.03 C 151.98 31.30 149.79 35.52 147.73 39.80 L 146.96 40.47 C 143.43 38.17 140.13 35.60 136.36 33.64 L 136.01 32.91 C 136.54 31.55 137.36 30.34 137.79 28.95 C 114.83 16.33 85.19 16.33 62.22 28.93 C 62.61 30.36 63.44 31.55 64.00 32.91 L 63.63 33.64 C 60.24 35.52 57.00 37.59 53.95 39.99 C 53.60 40.30 53.15 40.46 52.60 40.46 C 50.42 35.96 48.14 31.51 45.93 27.03 C 46.18 25.24 49.62 24.13 50.90 22.85 C 50.52 21.50 48.62 19.65 49.27 18.29 C 64.41 8.86 82.16 3.74 100.00 3.83 Z" fill="#190c0d" />
<path d="M 95.00 5.29 C 113.54 4.27 133.48 8.95 149.12 19.04 C 148.34 22.62 145.38 26.73 143.96 30.34 L 143.11 30.45 C 117.33 14.04 82.71 14.03 56.92 30.43 L 56.05 30.33 C 54.36 26.83 52.63 23.35 50.85 19.90 C 50.73 19.12 51.14 18.52 52.10 18.08 C 65.17 10.53 79.90 6.01 95.00 5.29 Z" fill="#ffffff" />
<path d="M 86.54 8.74 C 90.95 7.88 92.29 15.26 88.03 16.18 C 83.20 17.38 81.77 9.41 86.54 8.74 Z" fill="#190c0d" />
<path d="M 92.38 8.32 C 94.86 6.95 95.01 11.78 96.98 11.97 C 96.76 10.57 96.75 9.22 96.95 7.93 C 98.02 7.98 98.47 8.38 98.29 9.11 C 98.23 10.96 98.35 12.81 98.51 14.65 C 96.14 16.68 95.95 11.53 94.04 11.68 C 94.18 13.10 94.07 14.47 93.72 15.78 C 91.71 14.45 92.74 10.46 92.38 8.32 Z" fill="#190c0d" />
<path d="M 105.33 8.32 C 106.53 7.69 108.15 7.82 109.18 8.77 C 111.97 11.08 109.92 16.75 105.93 15.54 C 102.78 14.65 102.80 9.85 105.33 8.32 Z" fill="#190c0d" />
<path d="M 112.70 9.47 C 113.73 8.35 118.16 9.44 118.42 11.24 C 118.06 12.13 117.71 13.02 117.34 13.90 C 117.13 15.38 118.32 16.87 116.17 16.94 C 115.94 15.26 115.86 14.22 114.87 12.77 C 116.25 12.50 116.91 11.99 116.86 11.24 C 115.72 10.51 114.74 10.39 113.92 10.86 L 114.87 13.07 C 113.60 13.83 113.45 16.29 111.95 16.09 C 111.77 13.90 112.57 11.68 112.70 9.47 Z" fill="#190c0d" />
<path d="M 81.88 10.18 C 81.87 10.92 81.23 11.48 79.97 11.87 C 79.94 13.61 81.89 16.17 80.58 17.58 C 78.54 18.11 79.27 13.07 78.17 12.01 C 77.20 12.16 75.64 12.97 76.08 11.17 C 77.85 10.90 80.19 9.54 81.88 10.18 Z" fill="#190c0d" />
<path d="M 86.20 10.17 C 89.32 8.87 90.32 14.97 87.07 15.05 C 85.10 14.46 84.46 11.47 86.20 10.17 Z" fill="#ffffff" />
<path d="M 105.32 10.30 C 108.09 7.25 110.26 12.31 107.88 13.86 C 105.11 14.91 104.48 12.44 105.32 10.30 Z" fill="#ffffff" />
<path d="M 121.78 10.28 C 122.26 12.41 120.96 15.37 120.55 17.57 C 118.24 18.04 119.40 15.76 119.63 14.51 C 120.12 13.19 119.97 10.49 121.78 10.28 Z" fill="#190c0d" />
<path d="M 74.58 11.44 C 74.97 13.22 73.67 15.14 74.11 16.88 C 74.41 18.08 75.42 19.64 73.16 19.00 C 72.73 16.18 69.72 15.46 69.11 13.15 C 70.05 12.65 71.06 13.17 72.13 14.70 C 74.04 14.28 71.93 11.29 74.58 11.44 Z" fill="#190c0d" />
<path d="M 124.37 11.35 C 125.93 11.87 128.93 11.47 128.66 13.68 C 127.46 13.51 126.26 13.32 125.06 13.10 C 124.96 14.94 126.72 14.69 127.97 15.24 C 127.98 15.83 127.80 16.26 127.43 16.50 C 126.14 15.81 125.05 15.68 124.15 16.11 C 123.65 18.50 128.47 17.09 127.55 19.52 C 126.06 19.29 123.13 18.82 122.40 17.42 C 123.13 15.42 123.61 13.34 124.37 11.35 Z" fill="#190c0d" />
<path d="M 131.62 13.54 C 133.49 13.23 133.18 16.38 133.69 17.48 C 136.01 17.51 134.21 15.03 136.68 15.31 C 136.84 17.31 135.17 19.67 134.57 21.62 C 132.38 23.67 132.74 18.80 132.15 17.78 C 130.03 17.49 131.75 20.95 129.40 20.58 C 128.61 18.80 131.12 15.46 131.62 13.54 Z" fill="#190c0d" />
<path d="M 66.87 14.15 C 67.37 14.30 67.56 14.72 67.45 15.41 C 66.41 15.98 63.13 16.20 64.83 17.97 C 65.91 17.37 66.99 17.03 68.07 16.96 C 68.28 19.03 65.11 18.06 65.66 20.36 C 67.17 20.73 68.15 19.65 69.59 19.38 C 70.72 21.35 66.76 21.45 65.66 22.64 C 63.99 21.11 63.33 18.29 62.44 16.23 C 63.75 15.31 65.34 14.60 66.87 14.15 Z" fill="#190c0d" />
<path d="M 138.43 16.44 C 139.87 17.19 143.75 18.24 143.91 19.90 C 142.98 19.86 142.07 19.87 141.16 19.94 C 140.30 21.02 139.59 24.81 137.85 24.19 C 137.39 22.44 139.37 20.50 139.97 18.89 C 138.70 18.16 138.18 17.34 138.43 16.44 Z" fill="#190c0d" />
<path d="M 57.49 18.52 C 58.44 19.92 58.95 21.77 60.05 23.10 C 61.49 23.59 62.23 21.68 63.65 22.36 C 64.16 23.76 60.05 25.34 59.15 24.97 C 58.17 23.21 57.33 21.37 56.34 19.62 C 56.19 18.73 56.57 18.37 57.49 18.52 Z" fill="#190c0d" />
<path d="M 37.02 22.47 L 37.35 22.53 C 39.07 35.38 45.82 47.31 53.46 57.58 C 54.25 57.68 55.08 57.45 55.96 56.89 C 55.41 55.51 55.39 54.49 55.42 53.02 C 54.16 52.42 52.90 51.99 51.89 50.97 C 53.56 49.24 52.03 47.99 53.09 46.10 C 54.87 43.51 58.05 40.98 60.99 39.92 C 61.17 41.56 60.48 42.85 61.65 44.17 C 61.99 46.42 64.82 48.73 64.11 50.88 L 63.29 50.77 C 62.64 48.66 61.72 47.35 60.25 45.74 C 60.05 44.54 59.90 43.32 59.80 42.10 C 57.49 42.65 55.11 45.03 53.93 47.06 C 53.96 48.32 54.43 49.49 54.44 50.76 C 55.67 51.59 56.88 52.09 57.67 53.42 C 59.15 54.14 61.28 53.87 62.93 54.23 C 63.62 56.87 61.73 56.90 61.19 58.73 C 64.23 59.27 62.69 59.91 61.32 61.25 C 61.61 62.17 61.94 63.08 62.32 63.97 C 64.93 63.93 66.14 66.07 68.62 65.57 C 68.72 67.37 68.05 69.70 70.86 68.92 C 70.70 68.08 70.55 67.24 70.41 66.41 C 73.25 65.64 74.40 66.74 76.29 68.60 C 77.05 68.45 77.79 68.40 78.52 68.45 C 79.23 69.18 79.76 70.95 80.88 70.95 C 80.76 69.44 80.62 67.68 79.84 66.35 C 76.48 65.05 73.86 62.93 70.13 62.71 C 69.18 61.35 72.34 59.08 73.33 58.34 C 76.42 56.49 78.17 60.18 81.03 60.85 C 83.11 60.87 83.71 57.53 84.27 56.02 C 85.24 53.88 82.80 53.31 81.43 54.47 C 81.32 55.23 81.31 56.01 81.40 56.80 C 79.49 56.66 80.64 54.31 79.18 53.48 C 78.53 53.23 77.90 53.16 77.29 53.25 C 75.68 56.06 74.82 57.00 71.38 56.69 C 72.16 55.30 75.70 56.53 74.81 53.20 C 74.20 53.78 73.57 54.33 72.91 54.84 C 71.39 54.42 66.38 54.95 66.21 53.14 C 69.68 52.39 73.70 53.04 76.96 52.12 C 77.05 51.37 76.63 50.76 75.68 50.31 C 72.53 49.21 69.10 50.57 66.18 49.92 C 64.97 47.30 64.17 43.68 66.98 41.75 C 65.63 44.60 66.16 46.42 66.76 49.35 C 69.68 49.89 72.82 48.16 75.93 49.18 C 77.80 49.45 77.88 50.91 79.02 52.07 C 81.27 52.47 83.54 52.76 85.78 53.26 C 86.81 55.91 84.44 59.63 83.51 62.06 C 84.43 62.95 85.64 63.27 87.15 63.03 C 86.86 62.39 86.58 61.75 86.32 61.10 C 89.24 60.25 92.11 60.37 94.83 58.81 C 95.64 58.57 96.99 57.17 97.77 57.60 C 96.58 62.35 91.81 66.19 88.02 68.90 C 88.10 67.93 88.22 66.95 88.38 65.98 C 86.44 66.57 85.06 66.43 83.13 66.05 C 80.90 67.98 82.70 70.29 81.69 72.86 C 81.19 73.83 81.04 75.84 79.63 75.64 C 79.76 74.21 79.54 72.91 78.98 71.76 C 78.24 71.84 77.50 72.07 76.74 72.43 C 76.25 70.70 74.57 68.12 72.71 67.82 C 71.03 69.14 73.38 70.51 73.61 72.17 C 73.98 73.80 75.13 74.70 75.90 76.09 C 76.71 79.01 78.99 80.70 79.20 83.87 C 81.27 87.17 80.25 90.59 81.90 94.02 C 82.98 101.58 81.84 109.35 77.96 115.98 C 75.31 120.44 71.75 124.76 66.91 126.92 C 65.16 127.78 63.30 127.81 62.58 129.91 C 62.62 133.43 62.77 137.46 64.32 140.69 C 65.12 142.11 66.28 143.22 68.01 142.43 C 69.84 141.66 71.65 140.97 73.58 140.48 C 75.98 136.30 78.46 132.33 82.25 129.22 C 86.19 126.78 89.36 124.38 94.16 123.79 C 97.62 122.54 101.54 122.12 104.99 123.62 C 108.59 124.12 112.41 125.40 115.22 127.76 C 120.34 130.05 123.69 135.99 126.49 140.48 C 128.95 140.78 131.74 143.08 134.06 142.48 C 136.99 140.51 137.09 135.17 137.38 132.01 C 137.65 129.99 137.25 128.45 135.17 127.76 C 127.18 125.15 121.38 116.78 119.05 109.02 C 117.57 103.45 116.75 96.42 119.18 91.04 C 118.78 87.26 120.68 84.94 121.37 81.46 C 121.84 80.02 123.10 78.91 123.55 77.50 C 124.20 75.17 126.11 73.95 126.62 71.51 C 126.89 70.24 129.19 68.54 126.98 67.84 C 125.19 68.26 124.29 70.92 122.96 71.85 C 122.35 71.67 121.74 71.49 121.13 71.32 C 120.69 72.58 120.34 73.85 120.03 75.15 C 118.67 75.36 118.46 72.93 118.05 71.99 C 117.68 69.87 118.74 67.56 116.87 66.05 C 114.97 66.41 113.56 66.55 111.66 66.01 C 111.41 67.21 112.34 68.25 112.64 69.44 C 111.86 69.46 110.95 68.15 110.28 67.73 C 106.84 64.62 103.51 62.34 102.20 57.60 C 102.68 57.44 103.24 57.60 103.88 58.09 C 106.97 60.20 110.26 60.16 113.69 61.13 C 113.42 61.77 113.13 62.40 112.83 63.02 C 114.09 63.24 115.39 62.96 116.72 62.18 C 115.56 59.75 113.22 56.05 114.21 53.25 C 116.44 52.75 118.73 52.49 120.98 52.05 C 122.10 50.90 122.24 49.43 124.07 49.18 C 127.18 48.18 130.32 49.89 133.24 49.34 C 133.44 47.89 133.86 46.47 133.98 45.01 C 133.67 43.09 132.59 41.30 132.40 39.38 C 134.88 40.25 136.60 43.01 139.02 43.99 C 139.01 42.63 139.00 41.27 139.00 39.91 C 141.04 40.50 142.90 42.12 144.55 43.42 C 145.76 44.55 147.50 46.17 147.35 47.97 C 147.06 49.44 147.34 49.75 148.12 50.98 C 147.12 52.00 145.86 52.40 144.61 53.01 C 144.60 54.45 144.60 55.53 144.02 56.88 C 144.91 57.45 145.75 57.68 146.56 57.58 C 153.14 48.70 159.21 38.36 161.73 27.52 C 162.18 26.01 162.03 23.62 162.79 22.36 C 164.72 28.80 166.56 35.53 168.17 42.08 L 168.94 42.37 C 174.25 36.00 179.96 30.23 184.58 23.32 C 182.95 35.85 185.70 49.74 195.72 58.27 C 192.23 61.48 189.34 64.99 189.14 70.00 C 189.01 74.74 191.26 78.32 193.91 81.99 L 193.85 82.68 C 189.57 82.88 185.39 84.41 183.33 88.42 C 181.48 92.59 182.63 96.94 184.04 101.03 C 180.12 101.49 175.27 101.30 171.81 103.79 C 169.93 105.00 168.66 107.93 169.80 109.97 C 172.13 113.00 175.38 114.11 178.95 114.96 C 178.03 117.93 176.75 120.70 178.20 123.78 C 179.57 125.92 181.48 125.98 183.75 126.34 C 184.32 128.74 182.73 131.39 183.90 133.96 C 184.65 136.42 186.55 135.93 188.54 135.65 C 187.39 138.30 185.46 143.23 188.06 145.47 C 194.53 142.68 194.42 131.60 189.04 128.04 C 187.55 128.32 186.95 129.71 185.45 129.76 C 185.60 124.64 184.60 119.23 185.12 114.16 C 190.23 117.31 194.88 121.48 200.00 124.59 L 200.00 124.77 C 198.35 125.02 196.66 125.52 195.12 126.14 C 194.41 127.45 195.98 129.27 196.47 130.50 C 198.17 133.29 198.87 136.36 200.00 139.36 L 200.00 145.09 C 198.49 149.69 195.83 152.72 191.12 154.21 C 189.52 154.39 189.81 156.86 189.44 158.01 C 188.18 166.08 182.38 173.06 174.50 175.40 C 169.79 176.25 164.06 175.73 160.08 172.85 C 155.23 169.22 154.34 162.73 155.47 157.16 C 157.57 150.88 163.29 148.04 169.47 147.07 C 169.95 145.58 167.99 144.64 168.04 143.01 C 167.93 139.87 165.05 137.96 164.44 134.82 C 164.10 132.21 162.14 132.07 160.74 130.16 C 158.13 129.58 156.68 127.43 153.98 127.91 C 152.51 127.84 151.52 126.60 150.07 126.21 C 149.15 126.55 148.28 126.97 147.47 127.47 C 145.26 132.76 146.87 137.95 143.85 143.02 L 143.99 143.93 C 147.45 144.25 149.78 142.49 153.01 144.03 C 156.05 144.91 157.35 147.68 157.51 150.64 C 156.31 150.46 155.85 149.57 155.03 148.79 C 155.25 148.21 155.55 147.64 155.91 147.10 C 154.78 145.69 153.79 145.23 152.94 145.73 C 153.28 146.44 153.62 147.15 153.99 147.85 C 152.34 148.23 151.61 149.94 150.02 150.07 C 147.95 149.79 145.94 148.82 144.03 148.01 C 141.62 149.48 139.94 150.70 136.91 150.62 C 134.87 152.07 132.50 153.00 130.64 154.66 C 129.71 154.62 128.76 154.56 127.82 154.46 C 127.43 160.04 124.84 165.05 121.24 169.24 C 119.47 171.24 117.74 173.14 115.21 174.20 C 112.42 176.51 108.72 177.77 105.18 178.30 C 102.00 179.52 98.00 179.52 94.83 178.30 C 91.29 177.75 87.58 176.51 84.79 174.20 C 82.26 173.15 80.54 171.24 78.75 169.24 C 75.14 165.03 72.57 160.06 72.18 154.45 C 71.23 154.56 70.29 154.63 69.36 154.66 C 67.96 153.15 66.04 152.82 64.54 151.50 C 63.16 150.13 61.62 150.76 59.84 150.15 C 58.34 149.84 57.30 148.47 55.96 148.00 C 54.47 148.61 53.18 149.45 51.53 149.59 L 51.38 148.44 C 52.89 147.13 54.74 146.42 56.71 146.28 C 59.14 148.03 60.52 149.83 63.77 148.45 C 65.71 150.37 67.60 151.78 70.05 153.01 C 71.19 153.03 71.78 151.37 71.72 150.40 C 69.94 149.63 67.43 148.89 66.27 147.24 C 69.28 147.99 72.43 149.23 75.56 149.59 C 76.17 148.28 76.30 147.18 75.95 146.29 C 72.66 145.64 69.39 145.08 66.05 144.75 C 64.68 144.72 63.93 143.83 63.34 142.71 C 61.82 138.01 60.90 133.36 61.51 128.41 C 64.15 125.53 69.46 124.94 71.64 121.65 C 72.16 119.99 72.07 117.93 71.82 116.22 C 70.96 116.02 70.10 115.83 69.24 115.64 C 70.72 114.02 72.65 113.68 70.91 111.20 C 70.03 111.32 69.15 111.49 68.28 111.71 C 69.78 109.69 71.49 108.64 70.16 105.88 C 69.18 103.30 67.01 102.35 64.44 103.38 C 64.36 104.56 63.78 106.43 64.69 107.36 C 67.31 110.51 66.94 115.21 64.20 118.18 C 63.30 119.05 62.33 120.65 60.89 120.16 C 60.85 118.65 62.44 118.53 62.88 117.30 L 61.24 116.82 C 59.89 115.40 63.31 113.03 61.48 111.69 C 59.52 111.44 59.18 108.66 57.43 109.40 C 57.41 110.12 57.41 110.84 57.45 111.56 C 58.31 111.75 59.18 111.88 60.06 111.96 C 60.81 113.31 60.23 114.17 58.33 114.52 C 58.82 116.69 59.13 118.87 59.50 121.07 C 58.65 122.41 56.88 124.25 57.25 125.96 C 57.83 129.85 58.67 133.58 58.44 137.55 L 57.59 137.54 C 57.84 133.60 56.80 130.00 55.71 126.28 C 55.15 126.52 54.62 126.82 54.11 127.18 C 53.54 128.31 54.52 129.83 54.74 131.00 C 55.96 134.88 55.43 138.81 57.38 142.52 C 57.98 143.55 56.81 144.53 55.89 144.70 C 53.37 145.09 50.52 144.75 48.08 144.06 C 50.08 142.26 53.44 144.61 55.97 143.90 L 56.15 143.00 C 53.08 137.90 54.71 132.78 52.53 127.47 C 51.72 126.97 50.85 126.55 49.93 126.22 C 47.74 127.16 46.59 128.34 43.99 127.89 C 42.37 128.90 41.06 129.53 39.26 130.16 C 38.35 131.37 37.08 132.04 36.09 133.09 C 35.34 136.20 33.99 138.53 32.22 141.14 C 32.53 143.68 30.48 145.09 30.55 147.06 C 35.05 147.90 39.14 149.26 42.16 152.89 C 45.87 156.96 45.59 163.77 43.47 168.52 C 40.75 174.11 34.82 175.87 29.00 175.77 C 24.40 175.91 20.01 173.28 16.78 170.22 C 12.82 166.37 10.93 161.35 10.20 155.96 C 10.09 154.92 9.65 154.33 8.88 154.21 C 4.16 152.71 1.25 149.57 0.00 144.78 L 0.00 138.91 L 0.52 138.42 C 1.19 134.16 3.55 130.92 5.15 127.05 L 4.87 126.16 C 3.25 125.49 1.56 125.14 0.00 124.32 L 0.00 124.17 C 0.83 124.03 1.55 123.72 2.15 123.26 C 6.37 120.22 10.55 116.95 14.90 114.13 C 15.36 119.22 14.44 124.63 14.52 129.73 C 12.98 129.78 12.50 128.30 10.96 128.03 C 8.69 128.88 7.75 132.35 7.24 134.48 C 6.13 138.28 8.06 144.07 11.98 145.32 C 14.51 143.37 12.59 138.10 11.45 135.65 C 13.19 135.78 14.47 136.48 15.76 134.82 C 17.35 131.86 15.78 129.18 16.24 126.33 C 18.53 126.01 20.43 125.91 21.79 123.78 C 23.24 120.83 22.00 117.80 21.02 114.95 C 24.61 114.13 27.87 112.98 30.22 109.97 C 31.32 107.92 30.12 104.98 28.19 103.79 C 24.70 101.30 19.90 101.50 15.98 101.02 C 17.31 96.74 18.60 92.80 16.66 88.43 C 14.61 84.36 10.47 82.89 6.15 82.68 C 5.81 81.62 7.23 80.55 7.70 79.66 C 10.40 75.64 11.97 70.70 10.03 66.01 C 8.97 62.70 6.57 60.62 4.31 58.26 C 14.09 49.85 16.90 36.63 15.50 24.27 L 16.48 24.49 C 20.39 31.01 26.28 36.40 31.04 42.33 L 31.83 42.06 C 33.37 35.53 35.47 28.76 37.02 22.47 Z" fill="#190c0d" />
<path d="M 51.08 24.27 C 53.13 26.18 54.01 29.99 55.62 32.45 C 57.51 32.20 58.94 30.14 60.91 29.94 C 61.74 30.77 63.05 32.66 61.38 33.37 C 58.81 34.97 56.21 36.52 53.87 38.47 L 53.03 38.34 C 51.26 34.53 49.15 30.82 47.48 26.98 C 48.50 25.88 49.88 25.15 51.08 24.27 Z" fill="#ffffff" />
<path d="M 148.94 24.31 C 150.16 25.15 151.48 25.93 152.53 26.97 C 150.74 30.93 148.69 34.82 146.73 38.72 C 144.03 36.91 141.43 35.01 138.62 33.37 C 136.69 32.66 138.83 28.65 140.55 30.42 C 141.79 31.03 142.99 32.31 144.38 32.45 C 145.42 30.48 146.40 28.48 147.34 26.47 C 147.66 25.42 148.20 24.70 148.94 24.31 Z" fill="#ffffff" />
<path d="M 163.59 29.24 C 164.25 33.16 165.39 37.00 166.31 40.87 C 166.55 42.03 167.31 43.61 166.70 44.72 C 164.05 49.23 161.11 53.68 157.62 57.60 C 156.66 58.69 155.31 59.65 154.66 60.96 C 154.75 63.68 155.05 66.28 154.91 69.01 L 154.13 68.84 C 152.65 64.99 151.08 61.79 148.24 58.75 L 148.27 58.14 C 153.06 50.34 157.71 42.69 161.26 34.19 C 162.07 32.33 162.02 30.51 163.59 29.24 Z" fill="#ee1c27" />
<path d="M 36.32 30.06 C 36.98 29.88 37.44 30.25 37.68 31.17 C 40.46 39.39 45.05 47.09 49.51 54.51 C 50.16 55.81 51.73 57.28 51.74 58.74 C 49.87 61.02 48.07 63.23 47.05 66.05 C 46.50 66.91 46.35 69.16 45.07 69.02 C 44.94 66.29 45.25 63.67 45.37 60.96 C 42.05 57.12 38.59 53.46 35.96 49.03 C 34.84 46.87 32.33 44.73 33.33 42.14 C 34.41 38.14 35.40 34.11 36.32 30.06 Z" fill="#ee1c27" />
<path d="M 18.01 31.06 L 18.76 31.26 C 22.91 35.43 26.67 40.03 30.60 44.44 C 31.64 45.84 33.37 47.29 33.87 48.95 C 31.96 51.74 30.28 54.29 29.61 57.68 C 28.83 58.04 27.97 58.19 27.02 58.14 C 20.40 58.04 13.73 58.32 7.12 57.97 C 7.69 56.54 9.43 55.65 10.31 54.34 C 15.39 47.86 16.88 38.99 18.01 31.06 Z" fill="#ee1c27" />
<path d="M 182.00 31.08 C 183.21 40.14 185.22 51.11 192.60 57.31 L 192.87 57.98 C 186.95 58.36 180.94 58.02 175.00 58.16 C 173.57 58.06 171.68 58.41 170.41 57.68 C 169.76 55.11 168.88 52.81 167.26 50.69 C 166.65 49.60 165.54 48.93 166.72 47.72 C 171.05 42.42 175.59 37.26 180.25 32.24 C 180.75 31.59 181.33 31.20 182.00 31.08 Z" fill="#ee1c27" />
<path d="M 67.55 39.37 C 67.55 40.17 67.36 40.96 66.98 41.75 C 64.17 43.68 64.97 47.30 66.18 49.92 C 69.10 50.57 72.53 49.21 75.68 50.31 C 76.63 50.76 77.05 51.37 76.96 52.12 C 73.70 53.04 69.68 52.39 66.21 53.14 C 66.38 54.95 71.39 54.42 72.91 54.84 C 73.57 54.33 74.20 53.78 74.81 53.20 C 75.70 56.53 72.16 55.30 71.38 56.69 C 74.82 57.00 75.68 56.06 77.29 53.25 C 77.90 53.16 78.53 53.23 79.18 53.48 C 80.64 54.31 79.49 56.66 81.40 56.80 C 81.31 56.01 81.32 55.23 81.43 54.47 C 82.80 53.31 85.24 53.88 84.27 56.02 C 83.71 57.53 83.11 60.87 81.03 60.85 C 78.17 60.18 76.42 56.49 73.33 58.34 C 72.34 59.08 69.18 61.35 70.13 62.71 C 73.86 62.93 76.48 65.05 79.84 66.35 C 80.62 67.68 80.76 69.44 80.88 70.95 C 79.76 70.95 79.23 69.18 78.52 68.45 C 77.79 68.40 77.05 68.45 76.29 68.60 C 74.40 66.74 73.25 65.64 70.41 66.41 C 70.55 67.24 70.70 68.08 70.86 68.92 C 68.05 69.70 68.72 67.37 68.62 65.57 C 66.14 66.07 64.93 63.93 62.32 63.97 C 61.94 63.08 61.61 62.17 61.32 61.25 C 62.69 59.91 64.23 59.27 61.19 58.73 C 61.73 56.90 63.62 56.87 62.93 54.23 C 61.28 53.87 59.15 54.14 57.67 53.42 C 56.88 52.09 55.67 51.59 54.44 50.76 C 54.43 49.49 53.96 48.32 53.93 47.06 C 55.11 45.03 57.49 42.65 59.80 42.10 C 59.90 43.32 60.05 44.54 60.25 45.74 C 61.72 47.35 62.64 48.66 63.29 50.77 L 64.11 50.88 C 64.82 48.73 61.99 46.42 61.65 44.17 C 62.95 42.48 65.55 40.12 67.55 39.37 Z" fill="#ee1c27" />
<path d="M 140.18 42.09 C 142.49 42.63 144.89 45.04 146.07 47.06 C 146.04 48.32 145.55 49.48 145.57 50.76 C 144.78 51.25 144.00 51.75 143.24 52.26 C 142.07 54.65 139.31 53.63 137.07 54.22 C 136.35 56.84 138.22 56.90 138.82 58.73 L 137.07 59.21 C 137.18 59.93 137.72 60.61 138.68 61.25 C 138.39 62.17 138.06 63.07 137.68 63.97 C 135.06 63.90 133.80 66.14 131.36 65.56 C 131.34 67.32 131.90 69.74 129.15 68.90 C 129.31 68.07 129.46 67.24 129.58 66.41 C 126.76 65.62 125.59 66.75 123.71 68.60 C 122.95 68.46 122.22 68.41 121.50 68.46 C 120.80 69.18 120.24 70.87 119.16 70.92 C 119.25 69.42 119.38 67.65 120.17 66.34 C 123.53 65.05 126.14 62.92 129.87 62.71 C 130.88 61.41 127.64 59.06 126.67 58.34 C 123.23 56.23 121.43 61.15 118.26 60.74 C 116.76 59.99 116.24 57.49 115.72 56.02 C 114.74 53.86 117.19 53.31 118.56 54.47 C 118.69 55.23 118.70 56.01 118.59 56.81 C 120.51 56.65 119.37 54.34 120.81 53.48 C 121.46 53.22 122.10 53.14 122.71 53.24 C 124.33 56.05 125.18 57.00 128.62 56.69 C 127.86 55.29 124.29 56.54 125.20 53.19 C 125.79 53.79 126.42 54.34 127.09 54.84 C 128.63 54.42 133.56 54.97 133.79 53.12 C 130.34 52.55 126.30 52.99 123.05 52.11 L 123.13 51.17 C 125.63 49.02 130.69 49.97 133.71 50.52 C 134.49 47.85 134.99 45.67 134.86 42.84 C 136.20 42.65 137.25 44.12 137.96 45.08 C 137.76 46.98 135.11 48.81 135.91 50.87 L 136.71 50.77 C 137.35 48.65 138.27 47.34 139.75 45.74 C 139.96 44.54 140.10 43.32 140.18 42.09 Z" fill="#ee1c27" />
<path d="M 35.60 51.35 C 37.14 54.11 38.89 56.66 41.09 58.94 C 42.13 60.20 43.56 61.13 43.21 62.98 C 42.06 73.98 44.86 85.98 53.65 93.32 C 55.37 94.62 56.84 97.20 58.89 97.83 C 58.49 96.11 56.92 94.76 56.58 93.03 C 57.40 91.12 61.15 91.23 62.65 92.35 C 65.48 94.29 67.47 97.64 68.73 100.78 C 65.68 100.92 64.14 100.53 62.00 103.02 C 58.49 100.27 53.28 102.79 50.80 105.84 C 48.95 107.83 47.74 111.32 44.91 111.85 C 37.73 113.23 31.82 117.63 27.12 123.07 C 22.09 130.97 18.38 139.84 15.83 148.84 C 14.89 152.80 14.79 156.98 15.06 161.02 C 15.21 163.62 16.55 165.71 17.08 168.19 C 15.16 167.26 14.26 165.47 13.36 163.64 C 11.19 159.11 11.41 153.88 12.19 149.04 C 12.71 146.03 14.88 144.23 14.49 140.99 C 14.61 139.74 13.51 138.37 14.12 137.26 C 15.17 136.51 16.25 136.09 16.93 134.94 C 18.38 132.69 17.63 130.57 17.94 128.06 C 19.59 126.78 21.57 126.83 22.73 124.72 C 24.65 121.73 23.46 119.33 23.18 116.21 C 27.60 114.26 32.59 113.26 32.38 107.27 C 33.72 108.13 34.44 111.19 36.09 110.95 C 36.87 109.30 34.14 107.07 33.24 105.77 C 29.98 101.58 25.23 100.03 20.08 99.82 L 20.04 99.07 C 23.40 95.78 27.39 93.00 30.95 89.89 C 31.81 89.29 32.75 88.18 33.83 88.11 C 36.48 91.33 38.79 92.98 42.80 94.23 C 41.70 96.14 38.67 97.23 37.38 99.41 C 36.70 100.19 34.62 103.12 36.97 102.94 C 40.47 99.12 43.61 95.42 48.77 93.78 L 48.93 93.07 C 47.27 92.96 45.62 92.98 43.96 92.84 C 43.01 91.23 45.83 90.45 44.88 88.26 C 43.11 89.47 41.86 91.13 39.47 90.51 C 38.12 89.74 36.44 88.56 35.88 87.06 L 36.28 86.42 C 39.25 85.68 43.09 82.66 42.74 79.31 C 40.82 81.20 38.89 83.68 36.00 84.01 C 33.86 84.09 32.60 81.72 32.13 79.94 C 31.96 78.52 30.83 76.22 31.88 75.04 C 35.41 74.69 39.61 73.96 40.81 70.08 C 37.56 71.19 35.05 73.58 31.22 71.82 C 30.43 68.36 30.25 64.59 31.12 61.13 C 33.42 62.48 34.95 64.10 37.87 63.61 C 38.68 63.63 39.04 63.20 38.96 62.31 C 36.26 61.80 33.79 61.32 32.11 58.92 C 31.52 57.14 32.34 54.87 33.22 53.28 C 33.78 52.53 34.36 50.62 35.60 51.35 Z" fill="#ee1c27" />
<path d="M 166.39 52.61 C 167.46 54.30 168.53 56.93 167.88 58.89 C 166.21 61.25 163.79 61.88 161.07 62.24 L 161.07 63.04 C 164.32 64.50 166.33 62.77 168.88 61.12 C 169.80 64.67 169.57 68.30 168.81 71.85 C 164.90 73.54 162.51 71.23 159.20 70.09 C 160.35 73.96 164.63 74.69 168.11 75.04 C 169.17 76.22 168.01 78.51 167.86 79.94 C 167.41 81.77 166.17 84.06 164.00 84.01 C 160.94 83.61 159.29 81.24 157.27 79.33 C 156.85 81.65 159.16 83.96 160.85 85.21 C 161.80 85.94 163.67 85.92 164.11 87.06 C 163.56 88.56 161.87 89.74 160.53 90.50 C 158.13 91.14 156.89 89.47 155.12 88.25 C 154.17 90.42 156.99 91.24 156.04 92.84 C 154.39 92.98 152.73 92.96 151.08 93.07 L 151.22 93.78 C 155.42 95.21 158.84 98.01 161.56 101.46 C 162.18 102.30 163.89 104.17 164.13 101.97 C 162.89 98.80 159.98 96.72 157.34 94.79 L 157.21 94.22 C 161.14 93.02 163.54 91.29 166.15 88.15 C 169.08 89.13 171.84 92.65 174.57 94.40 C 176.19 96.06 179.34 97.61 180.08 99.79 C 174.86 100.01 170.07 101.53 166.77 105.78 C 165.89 107.08 163.10 109.33 163.90 110.95 C 165.70 111.36 166.23 107.64 167.66 107.42 C 167.41 113.25 172.55 114.33 176.83 116.22 C 176.65 118.74 175.61 120.75 176.58 123.34 C 177.50 125.95 179.58 126.98 181.94 128.03 C 182.51 130.03 181.70 132.21 182.70 134.25 C 183.18 135.68 184.78 136.37 185.91 137.24 C 186.61 138.32 185.53 139.90 185.51 141.15 C 185.33 143.76 187.26 146.49 187.81 149.05 C 188.70 154.24 188.78 159.51 186.33 164.30 C 185.55 165.76 184.54 167.51 182.87 168.02 C 185.91 161.35 185.60 154.09 183.65 147.15 C 181.33 138.98 177.68 130.92 173.30 123.66 C 169.69 119.02 164.55 115.00 159.02 112.92 C 156.96 112.09 154.09 112.10 152.56 110.46 C 150.74 108.11 149.58 105.67 147.09 103.85 C 144.21 102.05 141.05 100.77 138.00 103.02 C 135.85 100.53 134.32 100.92 131.26 100.78 C 132.61 97.51 134.82 93.65 138.05 91.96 C 139.46 91.28 142.80 91.32 143.39 93.03 C 143.07 94.76 141.53 96.11 141.11 97.82 C 142.19 97.73 143.04 96.49 143.81 95.82 C 146.48 93.02 149.44 90.88 151.55 87.54 C 156.52 79.81 157.64 70.96 156.77 61.95 C 158.70 58.41 162.27 55.85 164.01 51.99 C 164.82 50.31 165.81 51.58 166.39 52.61 Z" fill="#ee1c27" />
<path d="M 59.80 55.26 C 60.33 56.41 59.25 57.76 58.95 58.89 C 60.10 60.58 59.52 61.20 59.02 62.95 C 59.39 64.17 59.96 65.34 60.47 66.50 C 61.32 66.63 62.16 66.75 63.00 66.88 C 62.92 67.71 62.29 68.34 61.09 68.76 C 62.04 69.86 64.95 71.06 63.92 72.82 L 63.22 72.75 C 62.85 70.79 61.85 70.71 60.15 70.35 C 60.55 71.85 61.82 73.10 62.54 74.47 C 62.98 75.44 61.60 76.30 61.14 77.05 C 61.60 78.55 63.28 79.54 63.85 81.04 C 63.83 82.31 62.15 82.73 61.92 84.03 C 61.44 85.14 61.23 86.49 60.50 87.46 C 58.69 88.78 58.44 90.61 55.87 90.82 C 56.31 88.31 58.97 87.13 58.10 83.96 C 57.83 82.22 56.45 82.02 55.26 81.00 C 56.08 80.23 56.90 79.46 57.71 78.69 C 57.62 75.81 55.50 75.27 53.07 74.84 C 53.04 73.35 55.66 72.40 56.70 71.63 C 56.77 69.40 54.60 68.07 52.93 67.00 C 52.92 65.39 55.95 65.59 56.24 63.94 C 55.70 61.95 53.90 61.67 52.31 60.78 L 52.34 60.23 C 55.36 58.71 57.57 57.95 59.80 55.26 Z" fill="#ee1c27" />
<path d="M 140.22 55.24 C 141.80 56.78 142.83 58.22 145.07 58.93 C 145.68 59.39 148.00 59.84 147.68 60.79 C 146.09 61.68 144.31 61.93 143.78 63.94 C 144.05 65.58 147.08 65.39 147.06 67.00 C 145.37 68.09 143.28 69.38 143.27 71.64 C 144.33 72.38 146.97 73.35 146.93 74.84 C 144.50 75.26 142.38 75.80 142.29 78.68 C 143.10 79.46 143.91 80.23 144.73 81.00 C 143.03 82.21 141.78 82.61 141.77 85.00 C 141.54 87.45 143.89 88.75 144.13 90.82 C 141.56 90.60 141.32 88.77 139.49 87.46 C 138.26 85.40 138.39 83.26 136.28 81.70 C 135.78 80.06 138.56 78.56 138.87 77.04 C 138.44 76.31 136.96 75.42 137.49 74.48 C 137.91 73.39 139.28 72.28 138.96 71.10 C 136.36 69.92 137.78 73.12 136.08 72.82 C 135.13 70.53 137.90 70.81 137.86 68.99 C 136.18 68.26 136.54 68.12 136.45 66.47 C 137.30 66.45 138.16 66.46 139.01 66.48 C 140.04 65.79 140.61 64.12 140.94 62.95 C 140.41 61.17 139.91 60.62 141.04 58.89 C 140.73 57.72 139.68 56.42 140.22 55.24 Z" fill="#ee1c27" />
<path d="M 8.24 59.39 C 15.12 59.38 21.99 59.15 28.86 59.14 C 29.07 61.74 28.23 64.36 28.48 67.00 C 28.42 68.87 29.24 70.97 28.79 72.76 C 22.44 75.49 15.45 78.43 9.01 80.80 C 8.97 79.63 9.97 78.55 10.42 77.49 C 12.48 73.60 12.82 68.09 10.99 64.07 C 10.34 62.36 8.61 61.17 8.24 59.39 Z" fill="#ee1c27" />
<path d="M 171.12 59.25 C 177.62 59.76 184.82 58.90 191.12 59.90 C 190.63 62.13 188.72 63.80 188.26 66.12 C 187.47 69.85 187.75 74.08 189.58 77.49 C 190.03 78.56 191.01 79.63 191.01 80.80 C 184.40 78.43 177.71 75.51 171.21 72.77 C 170.73 70.99 171.58 68.87 171.53 67.00 C 171.80 64.40 170.92 61.81 171.12 59.25 Z" fill="#ee1c27" />
<path d="M 75.36 60.33 C 76.98 60.56 78.44 61.30 79.67 62.36 C 79.94 63.04 79.85 63.47 79.40 63.65 C 78.16 62.78 74.61 62.35 75.36 60.33 Z" fill="#ee1c27" />
<path d="M 94.98 60.18 C 94.92 62.03 92.13 63.78 90.94 65.12 C 89.58 65.23 88.89 63.05 89.11 61.97 C 90.99 61.24 93.02 60.68 94.98 60.18 Z" fill="#ee1c27" />
<path d="M 105.08 60.13 C 107.06 60.63 108.94 61.49 110.94 61.97 C 110.98 63.04 110.53 65.30 109.09 65.13 C 107.96 63.83 104.89 61.93 105.08 60.13 Z" fill="#ee1c27" />
<path d="M 124.65 60.32 L 124.66 61.64 C 123.59 62.08 121.18 63.91 120.19 63.37 C 119.90 61.62 123.29 60.56 124.65 60.32 Z" fill="#ee1c27" />
<path d="M 81.01 62.13 L 81.88 62.14 L 82.24 62.93 L 81.85 63.56 C 80.75 63.61 80.47 63.13 81.01 62.13 Z" fill="#ffffff" />
<path d="M 118.12 62.13 L 118.99 62.12 L 119.31 62.92 L 118.85 63.58 C 117.80 63.65 117.56 63.17 118.12 62.13 Z" fill="#ffffff" />
<path d="M 50.88 62.27 C 52.22 62.35 53.56 62.66 54.90 63.22 C 55.01 64.04 54.66 64.56 53.86 64.79 C 51.97 65.54 50.43 66.65 49.30 68.35 C 51.23 68.99 55.18 67.43 55.34 71.01 C 53.51 72.65 50.58 74.18 50.06 76.86 C 51.83 76.97 55.49 75.89 56.31 78.04 C 55.28 79.84 52.15 80.61 51.32 82.80 C 53.27 82.99 54.84 82.24 56.64 83.37 C 57.71 85.11 56.15 86.72 55.28 88.16 C 54.54 89.03 53.71 90.90 52.41 89.59 C 49.42 86.62 47.03 82.17 46.36 78.01 C 45.92 72.65 47.19 66.38 50.88 62.27 Z" fill="#ffffff" />
<path d="M 145.10 63.21 C 146.44 62.66 147.78 62.35 149.12 62.27 C 153.00 66.66 154.25 73.34 153.47 79.02 C 152.42 83.02 150.24 87.44 146.96 90.05 C 145.19 89.84 143.64 86.50 142.96 84.96 C 142.84 81.76 146.72 83.03 148.67 82.81 C 147.97 80.64 144.67 79.83 143.68 78.04 C 144.47 75.88 148.21 76.96 149.96 76.88 C 149.49 74.22 146.45 72.63 144.66 71.00 C 144.61 68.03 148.43 68.38 150.47 68.63 C 150.60 65.78 144.78 65.35 145.10 63.21 Z" fill="#ffffff" />
<path d="M 83.25 64.09 C 84.95 63.77 87.00 64.15 88.75 64.27 C 89.50 65.81 82.57 65.70 83.25 64.09 Z" fill="#ee1c27" />
<path d="M 66.53 67.45 C 66.76 68.24 66.94 69.04 67.09 69.86 C 68.34 70.03 69.60 70.15 70.88 70.22 C 72.49 70.74 73.35 73.62 71.24 74.30 C 70.41 74.97 67.59 74.54 68.02 75.95 C 70.18 76.49 71.79 75.14 73.76 75.24 C 74.73 76.17 75.68 78.36 74.25 79.27 C 73.45 80.32 70.58 79.52 71.00 81.18 C 72.85 81.75 75.21 80.13 76.87 81.10 C 78.57 85.06 73.92 86.31 71.24 84.83 C 70.77 83.61 70.56 82.36 70.30 81.08 C 67.98 78.07 66.10 73.83 66.15 69.99 C 66.20 68.94 64.43 66.96 66.53 67.45 Z" fill="#ee1c27" />
<path d="M 133.95 67.98 C 133.48 70.41 133.89 72.46 134.87 74.68 C 133.63 74.02 133.13 74.51 131.91 74.90 C 130.28 74.97 128.29 74.61 127.47 73.02 C 127.78 69.16 130.13 70.50 132.84 69.83 C 132.91 68.46 133.28 67.84 133.95 67.98 Z" fill="#ee1c27" />
<path d="M 29.44 74.35 C 29.68 77.53 30.09 80.60 31.53 83.49 C 31.93 84.53 32.88 85.62 32.83 86.75 C 28.14 90.64 22.84 95.02 18.11 98.78 C 18.12 96.48 19.20 94.36 19.01 92.00 C 19.13 87.62 16.20 84.08 12.16 82.70 C 11.48 82.51 11.12 82.05 11.09 81.32 C 17.24 79.26 23.28 76.17 29.44 74.35 Z" fill="#ee1c27" />
<path d="M 65.21 74.24 L 65.75 74.19 L 65.78 74.74 L 65.23 74.78 L 65.21 74.24 Z" fill="#ee1c27" />
<path d="M 126.23 75.27 C 128.12 75.18 130.04 76.25 132.06 76.16 C 132.60 77.87 130.43 79.90 129.44 81.09 C 129.64 81.98 130.43 82.43 131.80 82.44 C 131.35 83.83 130.38 83.39 129.29 83.17 C 128.87 86.51 125.56 85.47 123.40 84.59 C 122.75 83.42 122.66 82.25 123.13 81.10 C 124.80 80.14 127.14 81.74 128.99 81.17 C 129.42 79.53 126.54 80.31 125.75 79.28 C 124.26 78.46 125.44 76.20 126.23 75.27 Z" fill="#ee1c27" />
<path d="M 170.89 74.86 L 171.98 74.69 C 177.60 76.84 183.12 79.24 188.77 81.31 L 189.01 82.01 C 186.04 83.64 183.27 84.48 181.89 87.95 C 179.98 91.84 181.57 94.95 181.88 98.78 C 177.09 94.95 171.92 90.68 167.16 86.75 L 167.20 86.08 C 169.23 82.49 170.18 78.88 170.89 74.86 Z" fill="#ee1c27" />
<path d="M 64.17 76.14 C 65.53 75.74 65.47 79.16 64.14 78.82 C 62.76 78.16 63.09 76.90 64.17 76.14 Z" fill="#ee1c27" />
<path d="M 135.16 76.22 C 137.12 75.73 137.33 79.30 135.22 78.73 C 134.73 77.91 134.71 77.07 135.16 76.22 Z" fill="#ee1c27" />
<path d="M 66.10 79.08 L 66.95 78.82 C 69.38 80.02 66.45 82.65 65.72 79.99 L 66.10 79.08 Z" fill="#ee1c27" />
<path d="M 132.35 79.30 L 133.05 78.81 L 133.91 79.07 C 135.38 81.61 131.13 81.85 132.35 79.30 Z" fill="#ee1c27" />
<path d="M 65.20 82.18 C 67.13 82.13 67.11 84.99 65.10 84.90 C 63.57 84.24 64.16 82.97 65.20 82.18 Z" fill="#ee1c27" />
<path d="M 68.12 82.20 L 68.93 82.17 L 69.37 82.93 L 69.03 83.65 C 67.96 83.73 67.66 83.24 68.12 82.20 Z" fill="#ee1c27" />
<path d="M 134.14 82.22 C 135.56 81.90 136.60 84.35 134.92 84.92 C 133.25 84.85 132.81 83.20 134.14 82.22 Z" fill="#ee1c27" />
<path d="M 63.32 85.28 C 64.13 85.68 65.51 86.49 64.58 87.50 C 63.48 88.05 62.97 89.12 62.02 89.74 C 60.35 89.67 62.23 88.14 62.48 87.49 C 62.75 86.75 63.02 86.01 63.32 85.28 Z" fill="#ee1c27" />
<path d="M 67.21 85.25 C 68.95 84.24 69.82 86.99 68.02 87.51 C 66.84 87.12 66.57 86.36 67.21 85.25 Z" fill="#ee1c27" />
<path d="M 131.31 85.32 C 133.13 84.12 133.91 87.01 132.02 87.51 C 130.93 87.17 130.69 86.44 131.31 85.32 Z" fill="#ee1c27" />
<path d="M 136.68 85.31 C 137.19 86.87 137.96 88.21 138.68 89.68 C 137.13 89.99 136.93 88.11 135.42 87.50 C 134.46 86.57 135.85 85.62 136.68 85.31 Z" fill="#ee1c27" />
<path d="M 78.75 86.25 C 79.56 87.68 79.69 91.11 77.73 91.68 C 75.95 91.96 74.06 92.07 72.28 91.72 C 71.94 90.16 71.98 88.53 72.04 86.94 C 74.28 87.12 76.66 85.80 78.75 86.25 Z" fill="#ee1c27" />
<path d="M 121.26 86.25 C 123.34 85.81 125.71 87.11 127.94 86.94 C 128.08 88.53 127.99 90.14 127.70 91.71 C 125.94 92.08 124.05 91.96 122.27 91.68 C 120.31 91.08 120.46 87.70 121.26 86.25 Z" fill="#ee1c27" />
<path d="M 66.85 88.16 C 68.35 90.33 66.05 91.31 64.26 91.48 C 64.33 90.40 65.36 87.28 66.85 88.16 Z" fill="#ee1c27" />
<path d="M 69.26 88.28 C 71.32 87.01 71.92 91.66 69.57 90.64 C 68.73 89.90 68.63 89.11 69.26 88.28 Z" fill="#ee1c27" />
<path d="M 129.35 88.35 C 131.02 87.22 131.80 89.72 130.43 90.65 C 128.80 91.36 128.60 89.31 129.35 88.35 Z" fill="#ee1c27" />
<path d="M 133.12 88.18 C 134.71 87.31 135.63 90.36 135.74 91.49 C 133.98 91.29 131.64 90.35 133.12 88.18 Z" fill="#ee1c27" />
<path d="M 68.06 91.27 C 68.88 91.07 69.23 91.64 69.11 92.97 C 68.39 95.10 66.83 92.15 68.06 91.27 Z" fill="#ee1c27" />
<path d="M 131.21 91.28 C 132.84 90.77 132.73 94.09 131.21 93.67 C 130.75 92.88 130.74 92.08 131.21 91.28 Z" fill="#ee1c27" />
<path d="M 66.49 93.49 C 66.51 93.51 66.51 93.51 66.49 93.49 Z" fill="#ee1c27" />
<path d="M 72.22 93.19 C 74.83 93.39 77.34 93.11 79.93 93.09 C 80.62 94.72 80.84 97.33 79.89 98.88 C 78.03 99.82 73.99 99.83 72.11 98.90 C 71.89 97.02 72.03 95.07 72.22 93.19 Z" fill="#ee1c27" />
<path d="M 120.07 93.09 C 122.65 93.11 125.16 93.38 127.77 93.19 C 127.93 95.07 128.11 97.01 127.92 98.89 C 125.72 99.85 122.29 99.84 120.10 98.89 C 119.20 97.39 119.35 94.65 120.07 93.09 Z" fill="#ee1c27" />
<path d="M 133.50 93.50 C 133.50 93.50 133.50 93.50 133.50 93.50 Z" fill="#ee1c27" />
<path d="M 69.28 95.31 C 70.90 94.25 71.83 96.63 70.74 97.72 C 69.21 98.63 68.03 96.38 69.28 95.31 Z" fill="#ee1c27" />
<path d="M 129.27 95.29 C 130.81 94.31 131.96 96.61 130.70 97.67 C 129.09 98.72 128.13 96.39 129.27 95.29 Z" fill="#ee1c27" />
<path d="M 71.27 100.27 C 74.20 101.26 77.02 100.93 80.05 101.08 C 81.13 102.56 80.31 105.15 79.72 106.73 C 78.07 107.49 76.75 107.61 74.97 107.21 C 71.83 107.37 70.36 102.72 71.27 100.27 Z" fill="#ee1c27" />
<path d="M 128.74 100.26 C 129.56 102.69 128.56 105.10 126.85 106.82 C 124.56 107.37 122.49 107.86 120.27 106.73 C 119.66 105.16 118.89 102.56 119.96 101.08 C 122.99 100.93 125.80 101.25 128.74 100.26 Z" fill="#ee1c27" />
<path d="M 64.44 103.38 C 67.01 102.35 69.18 103.30 70.16 105.88 C 71.49 108.64 69.78 109.69 68.28 111.71 C 69.15 111.49 70.03 111.32 70.91 111.20 C 72.65 113.68 70.72 114.02 69.24 115.64 C 70.10 115.83 70.96 116.02 71.82 116.22 C 72.07 117.93 72.16 119.99 71.64 121.65 C 69.46 124.94 64.15 125.53 61.51 128.41 C 60.90 133.36 61.82 138.01 63.34 142.71 C 63.93 143.83 64.68 144.72 66.05 144.75 C 69.39 145.08 72.66 145.64 75.95 146.29 C 76.30 147.18 76.17 148.28 75.56 149.59 C 72.43 149.23 69.28 147.99 66.27 147.24 C 67.43 148.89 69.94 149.63 71.72 150.40 C 71.78 151.37 71.19 153.03 70.05 153.01 C 67.60 151.78 65.71 150.37 63.77 148.45 C 60.52 149.83 59.14 148.03 56.71 146.28 C 54.74 146.42 52.89 147.13 51.38 148.44 C 48.35 151.83 44.26 146.06 48.08 144.06 C 50.52 144.75 53.37 145.09 55.89 144.70 C 56.81 144.53 57.98 143.55 57.38 142.52 C 55.43 138.81 55.96 134.88 54.74 131.00 C 54.52 129.83 53.54 128.31 54.11 127.18 C 54.62 126.82 55.15 126.52 55.71 126.28 C 56.80 130.00 57.84 133.60 57.59 137.54 L 58.44 137.55 C 58.67 133.58 57.83 129.85 57.25 125.96 C 56.88 124.25 58.65 122.41 59.50 121.07 C 59.13 118.87 58.82 116.69 58.33 114.52 C 60.23 114.17 60.81 113.31 60.06 111.96 C 59.18 111.88 58.31 111.75 57.45 111.56 C 57.41 110.84 57.41 110.12 57.43 109.40 C 59.18 108.66 59.52 111.44 61.48 111.69 C 63.31 113.03 59.89 115.40 61.24 116.82 L 62.88 117.30 C 62.44 118.53 60.85 118.65 60.89 120.16 C 62.33 120.65 63.30 119.05 64.20 118.18 C 66.94 115.21 67.31 110.51 64.69 107.36 C 63.78 106.43 64.36 104.56 64.44 103.38 Z" fill="#ee1c27" />
<path d="M 135.58 103.38 C 136.85 107.42 133.49 108.15 133.58 111.99 C 133.20 116.38 136.72 119.84 140.36 121.65 C 142.46 122.54 143.03 125.07 142.53 127.13 C 141.71 131.05 141.68 134.84 141.36 138.79 C 141.95 137.56 142.46 136.41 142.46 135.02 C 142.54 131.96 143.51 129.18 144.29 126.27 C 145.53 126.84 146.72 127.36 145.98 128.98 C 144.62 132.27 144.41 135.54 143.89 139.01 C 143.73 140.55 142.38 142.06 142.50 143.56 C 144.35 146.36 149.45 143.57 151.87 145.12 C 152.30 146.97 152.16 148.22 150.01 148.56 C 148.02 148.21 145.48 146.16 143.27 146.33 C 140.78 148.07 139.52 149.76 136.23 148.48 C 134.26 150.31 132.45 151.88 129.95 153.00 C 128.81 153.05 128.22 151.38 128.32 150.42 C 129.55 149.74 133.48 148.65 133.58 147.19 C 130.57 148.07 127.14 149.56 123.95 149.37 L 123.40 148.41 L 124.08 146.30 C 127.58 145.42 131.15 145.12 134.71 144.63 C 136.49 144.14 137.18 141.43 137.57 139.86 C 138.24 136.18 139.02 132.14 138.49 128.41 C 135.86 125.55 130.55 124.92 128.36 121.65 C 127.93 119.94 127.96 117.97 128.19 116.22 C 129.05 116.03 129.91 115.84 130.77 115.65 C 130.07 114.89 129.22 114.27 128.47 113.56 C 128.40 112.85 128.40 112.14 128.46 111.43 C 129.54 110.96 130.62 111.54 131.71 111.70 C 130.93 110.61 130.04 109.75 129.43 108.56 C 129.20 105.06 131.82 101.75 135.58 103.38 Z" fill="#ee1c27" />
<path d="M 56.89 104.09 C 57.12 105.35 57.02 106.52 56.60 107.60 C 55.19 107.80 53.79 107.70 52.38 107.55 C 51.75 106.01 55.64 103.50 56.89 104.09 Z" fill="#ee1c27" />
<path d="M 58.26 104.38 C 60.04 103.64 61.16 107.91 59.01 108.09 C 57.52 107.84 57.83 105.38 58.26 104.38 Z" fill="#ee1c27" />
<path d="M 141.22 104.25 C 142.48 104.17 142.43 108.20 141.00 108.08 C 139.07 107.71 139.73 104.72 141.22 104.25 Z" fill="#ee1c27" />
<path d="M 144.01 103.95 C 145.23 104.60 148.16 105.81 147.63 107.55 C 146.21 107.70 144.81 107.79 143.39 107.60 C 143.11 106.73 142.31 103.59 144.01 103.95 Z" fill="#ee1c27" />
<path d="M 61.29 106.21 C 62.30 107.78 62.38 109.24 64.53 109.66 C 64.99 110.10 65.10 110.81 64.86 111.80 C 63.69 110.83 62.78 110.01 61.24 109.63 C 60.86 108.66 60.87 107.52 61.29 106.21 Z" fill="#ee1c27" />
<path d="M 138.71 106.20 C 139.13 107.51 139.14 108.65 138.75 109.62 C 137.21 110.00 136.31 110.84 135.14 111.80 C 134.89 110.81 135.01 110.09 135.48 109.67 C 137.62 109.23 137.71 107.77 138.71 106.20 Z" fill="#ee1c27" />
<path d="M 55.78 109.26 C 55.90 111.23 54.97 111.26 53.42 110.53 C 51.87 109.61 51.23 111.74 49.21 110.79 C 49.94 107.88 53.38 109.78 55.78 109.26 Z" fill="#ee1c27" />
<path d="M 73.06 109.01 C 74.96 108.75 76.96 108.90 78.85 109.17 C 79.19 111.54 75.60 118.11 73.24 118.82 C 73.31 115.55 72.99 112.28 73.06 109.01 Z" fill="#ee1c27" />
<path d="M 121.14 109.16 C 123.03 108.90 125.03 108.75 126.93 109.03 C 127.07 112.29 126.68 115.56 126.73 118.83 C 124.46 118.14 120.74 111.43 121.14 109.16 Z" fill="#ee1c27" />
<path d="M 142.57 109.39 C 142.60 110.12 142.59 110.84 142.55 111.56 C 141.69 111.75 140.82 111.88 139.93 111.96 C 139.20 113.33 139.79 114.17 141.70 114.50 C 141.22 116.35 140.95 118.03 140.85 119.95 C 139.91 120.00 137.25 118.24 137.14 117.31 C 138.24 117.15 138.92 116.71 139.17 115.99 C 138.85 114.46 136.69 112.17 139.16 111.40 C 140.79 110.96 140.78 108.71 142.57 109.39 Z" fill="#ee1c27" />
<path d="M 144.33 109.22 C 146.73 109.84 150.11 107.84 150.77 110.80 C 149.10 111.33 148.49 110.72 147.08 110.00 C 146.24 110.62 145.84 111.32 145.86 112.12 C 147.13 112.48 148.60 112.56 149.78 113.20 C 149.70 115.16 148.98 117.00 149.14 119.00 C 149.07 121.00 149.98 122.91 149.89 124.88 C 148.01 125.92 144.39 125.66 143.74 123.21 C 142.44 119.85 142.05 114.97 144.50 112.03 C 144.45 111.09 144.40 110.16 144.33 109.22 Z" fill="#ee1c27" />
<path d="M 48.77 113.19 C 49.40 116.88 49.94 121.20 48.85 124.83 C 47.90 126.10 45.73 126.60 44.21 126.86 C 44.02 122.79 42.86 119.03 42.01 115.09 L 42.30 114.36 C 44.24 113.70 46.72 112.73 48.77 113.19 Z" fill="#ee1c27" />
<path d="M 50.86 112.99 C 52.56 112.62 55.19 112.01 56.56 113.41 C 57.71 116.91 57.47 121.34 55.54 124.54 C 53.92 125.59 51.92 125.79 50.18 124.90 C 50.65 121.13 51.24 117.72 50.35 113.92 L 50.86 112.99 Z" fill="#ee1c27" />
<path d="M 63.24 113.21 C 65.56 112.31 65.09 116.62 63.11 115.90 C 62.52 114.98 62.56 114.08 63.24 113.21 Z" fill="#ee1c27" />
<path d="M 135.46 113.40 C 137.08 112.15 137.78 114.84 136.90 115.90 C 135.53 116.45 134.78 114.34 135.46 113.40 Z" fill="#ee1c27" />
<path d="M 151.23 113.20 C 153.28 112.72 155.77 113.71 157.70 114.35 L 157.99 115.09 C 157.15 119.03 155.97 122.79 155.80 126.86 C 154.33 126.64 152.04 126.10 151.19 124.82 C 150.05 121.21 150.62 116.88 151.23 113.20 Z" fill="#ee1c27" />
<path d="M 40.54 115.36 C 41.28 118.56 42.21 121.76 42.74 125.01 C 43.25 127.15 40.96 128.44 39.19 128.80 C 37.74 126.80 37.20 124.42 35.35 122.64 C 34.63 121.62 32.95 120.85 33.47 119.43 C 35.31 117.73 38.05 115.81 40.54 115.36 Z" fill="#ee1c27" />
<path d="M 159.49 115.37 C 161.95 115.81 164.70 117.74 166.53 119.43 C 167.09 120.81 165.36 121.64 164.65 122.64 C 162.81 124.41 162.25 126.76 160.83 128.78 C 159.04 128.53 156.76 127.11 157.29 125.01 C 157.73 121.75 158.68 118.55 159.49 115.37 Z" fill="#ee1c27" />
<path d="M 12.08 117.77 L 13.08 117.83 C 13.47 121.03 13.16 124.51 12.90 127.72 C 11.42 127.53 10.16 126.41 9.02 127.99 C 6.70 131.36 5.41 135.82 6.23 139.89 C 6.90 142.66 8.71 144.43 10.70 146.31 C 11.41 148.14 10.09 151.00 9.84 152.94 C 8.00 153.23 5.94 151.49 4.59 150.39 C 0.21 146.77 0.95 139.47 2.61 134.68 C 3.51 131.49 6.08 128.67 6.60 125.48 C 5.35 125.17 4.35 124.66 3.62 123.96 C 6.41 121.85 9.41 120.07 12.08 117.77 Z" fill="#ee1c27" />
<path d="M 186.94 117.83 L 187.92 117.77 C 190.59 120.07 193.58 121.86 196.38 123.96 C 195.64 124.66 194.65 125.17 193.39 125.48 C 193.79 128.43 196.23 131.03 197.10 133.94 C 198.97 138.60 199.88 146.08 195.90 149.92 C 194.47 151.19 192.18 153.24 190.15 152.93 C 189.86 150.99 188.63 148.17 189.30 146.31 C 191.29 144.40 193.10 142.69 193.75 139.89 C 194.53 135.70 193.35 131.46 190.99 127.99 C 189.86 126.43 188.52 127.46 187.07 127.77 C 186.84 124.53 186.53 121.06 186.94 117.83 Z" fill="#ee1c27" />
<path d="M 31.33 121.42 C 34.27 122.50 36.39 126.15 37.36 128.98 C 37.61 131.96 33.84 131.27 31.99 131.14 C 30.52 130.85 27.17 130.60 26.67 128.96 C 27.41 126.10 29.21 123.44 31.33 121.42 Z" fill="#ee1c27" />
<path d="M 168.67 121.44 C 170.81 123.39 172.59 126.16 173.31 128.96 C 172.27 131.13 167.14 131.26 164.98 131.28 C 162.92 131.17 162.16 129.96 162.97 128.06 C 163.98 125.63 166.06 122.25 168.67 121.44 Z" fill="#ee1c27" />
<path d="M 0.00 124.32 C 1.56 125.14 3.25 125.49 4.87 126.16 L 5.15 127.05 C 3.55 130.92 1.19 134.16 0.52 138.42 L 0.00 138.91 L 0.00 124.32 Z" fill="#ffffff" />
<path d="M 96.93 124.45 C 99.12 124.00 102.10 123.77 104.06 125.00 C 104.35 127.53 102.95 130.32 102.62 132.88 C 102.45 135.26 98.37 135.54 97.59 133.54 C 96.95 131.36 96.51 129.10 96.01 126.88 C 95.58 125.56 95.89 124.75 96.93 124.45 Z" fill="#ffffff" />
<path d="M 200.00 124.77 L 200.00 139.36 C 198.87 136.36 198.17 133.29 196.47 130.50 C 195.98 129.27 194.41 127.45 195.12 126.14 C 196.66 125.52 198.35 125.02 200.00 124.77 Z" fill="#ffffff" />
<path d="M 93.14 125.32 L 94.04 125.79 C 94.64 128.54 96.11 131.92 95.72 134.68 C 93.54 134.83 91.30 134.90 89.14 134.66 C 88.08 134.42 87.58 132.77 87.11 131.90 C 86.82 130.88 85.49 129.42 86.45 128.45 C 88.22 126.84 91.01 126.33 93.14 125.32 Z" fill="#ffffff" />
<path d="M 106.85 125.31 C 108.98 126.41 112.69 126.91 113.95 129.10 C 113.67 130.32 113.06 131.46 112.59 132.61 C 111.70 136.10 106.93 134.47 104.27 134.69 C 103.80 132.48 105.15 129.77 105.43 127.51 C 105.58 126.29 106.06 125.56 106.85 125.31 Z" fill="#ffffff" />
<path d="M 49.93 126.22 C 50.85 126.55 51.72 126.97 52.53 127.47 C 54.71 132.78 53.08 137.90 56.15 143.00 L 55.97 143.90 C 53.44 144.61 50.08 142.26 48.08 144.06 C 44.26 146.06 48.35 151.83 51.38 148.44 L 51.53 149.59 C 53.18 149.45 54.47 148.61 55.96 148.00 C 57.30 148.47 58.34 149.84 59.84 150.15 C 61.62 150.76 63.16 150.13 64.54 151.50 C 66.04 152.82 67.96 153.15 69.36 154.66 C 70.29 154.63 71.23 154.56 72.18 154.45 C 72.57 160.06 75.14 165.03 78.75 169.24 C 80.54 171.24 82.26 173.15 84.79 174.20 C 87.58 176.51 91.29 177.75 94.83 178.30 C 98.00 179.52 102.00 179.52 105.18 178.30 C 108.72 177.77 112.42 176.51 115.21 174.20 C 117.74 173.14 119.47 171.24 121.24 169.24 C 124.84 165.05 127.43 160.04 127.82 154.46 C 128.76 154.56 129.71 154.62 130.64 154.66 C 132.50 153.00 134.87 152.07 136.91 150.62 C 139.94 150.70 141.62 149.48 144.03 148.01 C 145.94 148.82 147.95 149.79 150.02 150.07 C 151.61 149.94 152.34 148.23 153.99 147.85 C 153.62 147.15 153.28 146.44 152.94 145.73 C 153.79 145.23 154.78 145.69 155.91 147.10 C 155.55 147.64 155.25 148.21 155.03 148.79 C 155.85 149.57 156.31 150.46 157.51 150.64 C 157.35 147.68 156.05 144.91 153.01 144.03 C 149.78 142.49 147.45 144.25 143.99 143.93 L 143.85 143.02 C 146.87 137.95 145.26 132.76 147.47 127.47 C 148.28 126.97 149.15 126.55 150.07 126.21 C 151.52 126.60 152.51 127.84 153.98 127.91 C 156.68 127.43 158.13 129.58 160.74 130.16 C 162.14 132.07 164.10 132.21 164.44 134.82 C 165.05 137.96 167.93 139.87 168.04 143.01 C 167.99 144.64 169.95 145.58 169.47 147.07 C 163.29 148.04 157.57 150.88 155.47 157.16 C 154.34 162.73 155.23 169.22 160.08 172.85 C 164.06 175.73 169.79 176.25 174.50 175.40 C 182.38 173.06 188.18 166.08 189.44 158.01 C 189.81 156.86 189.52 154.39 191.12 154.21 C 195.83 152.72 198.49 149.69 200.00 145.09 L 200.00 200.00 L 0.00 200.00 L 0.00 144.78 C 1.25 149.57 4.16 152.71 8.88 154.21 C 9.65 154.33 10.09 154.92 10.20 155.96 C 10.93 161.35 12.82 166.37 16.78 170.22 C 20.01 173.28 24.40 175.91 29.00 175.77 C 34.82 175.87 40.75 174.11 43.47 168.52 C 45.59 163.77 45.87 156.96 42.16 152.89 C 39.14 149.26 35.05 147.90 30.55 147.06 C 30.48 145.09 32.53 143.68 32.22 141.14 C 33.99 138.53 35.34 136.20 36.09 133.09 C 37.08 132.04 38.35 131.37 39.26 130.16 C 41.06 129.53 42.37 128.90 43.99 127.89 C 46.59 128.34 47.74 127.16 49.93 126.22 Z" fill="#ffffff" />
<path d="M 84.00 129.89 C 85.29 130.18 85.73 132.83 86.04 133.94 C 84.61 135.88 82.69 137.34 81.49 139.51 C 80.44 140.98 80.27 142.94 78.95 144.18 C 78.19 142.24 76.98 141.45 75.80 139.97 C 77.64 136.16 80.58 132.37 84.00 129.89 Z" fill="#ffffff" />
<path d="M 116.01 129.88 C 119.42 132.40 122.35 136.15 124.20 139.96 C 123.67 141.33 122.03 141.38 121.68 142.95 C 121.60 143.90 121.64 144.85 121.79 145.82 C 120.74 145.66 120.56 143.69 120.12 142.89 C 118.96 139.16 116.35 136.81 113.97 133.94 C 114.19 132.82 114.81 130.18 116.01 129.88 Z" fill="#ffffff" />
<path d="M 25.98 131.73 C 28.63 132.38 31.36 132.45 34.01 133.09 C 34.53 134.55 33.48 136.44 32.66 137.65 C 31.19 140.08 26.80 139.13 24.54 138.50 C 22.72 137.81 22.49 137.01 23.28 135.26 C 23.89 134.09 24.51 131.99 25.98 131.73 Z" fill="#ee1c27" />
<path d="M 174.03 131.72 C 175.84 132.25 176.77 135.30 177.18 136.95 C 176.55 139.00 172.71 139.06 170.99 139.21 C 167.87 139.74 165.41 135.75 166.01 133.12 C 168.63 132.48 171.35 132.05 174.03 131.72 Z" fill="#ee1c27" />
<path d="M 86.38 136.38 C 95.42 136.20 104.59 136.21 113.63 136.37 C 115.14 138.08 118.09 140.80 118.08 143.10 L 117.06 143.36 C 105.69 143.30 94.31 143.30 82.93 143.36 L 81.91 143.09 C 81.88 140.84 84.88 138.07 86.38 136.38 Z" fill="#ffffff" />
<path d="M 22.02 139.73 C 24.71 140.23 27.38 140.65 30.08 141.06 C 31.65 142.11 29.59 146.70 27.96 146.97 C 25.21 146.79 22.02 146.26 19.36 145.58 C 18.95 143.98 20.81 140.67 22.02 139.73 Z" fill="#ee1c27" />
<path d="M 177.98 139.73 C 179.23 140.77 180.99 143.88 180.64 145.59 C 177.79 146.09 174.07 147.31 171.28 146.69 C 170.24 145.28 168.82 143.16 169.30 141.32 C 172.09 140.51 175.12 140.38 177.98 139.73 Z" fill="#ee1c27" />
<path d="M 125.75 141.24 C 127.12 143.42 124.92 144.89 123.00 145.01 C 122.02 143.22 123.88 141.15 125.75 141.24 Z" fill="#ffffff" />
<path d="M 73.23 142.98 C 73.05 144.71 68.53 143.69 67.21 143.77 L 67.46 143.25 C 68.76 143.12 72.82 140.91 73.23 142.98 Z" fill="#ee1c27" />
<path d="M 74.11 141.88 C 75.56 140.30 77.88 143.36 76.88 144.78 C 75.57 145.16 73.29 143.40 74.11 141.88 Z" fill="#ffffff" />
<path d="M 128.02 142.05 C 128.94 142.53 132.90 142.66 132.67 143.75 C 130.81 143.99 128.98 144.01 127.11 143.81 C 126.68 142.53 126.98 141.95 128.02 142.05 Z" fill="#ee1c27" />
<path d="M 81.96 144.94 C 94.29 145.01 106.80 144.80 119.09 145.04 C 120.08 146.61 119.96 148.22 119.82 150.00 C 120.05 152.23 120.14 154.36 119.47 156.54 C 118.38 157.37 116.33 156.78 115.00 156.94 C 103.78 156.90 92.28 156.99 81.10 156.90 L 80.52 156.53 C 79.52 153.59 80.35 150.95 80.07 147.96 C 80.14 146.85 80.35 144.57 81.96 144.94 Z" fill="#ffffff" />
<path d="M 19.08 147.06 C 21.95 147.58 24.78 148.00 27.68 148.34 C 28.95 150.34 27.20 151.64 25.81 152.86 C 24.07 154.24 21.15 153.40 19.03 153.89 L 19.04 154.82 C 21.06 154.97 23.07 154.96 25.10 155.06 C 25.92 155.96 25.78 157.15 24.67 158.62 C 21.77 158.49 18.96 159.97 16.27 159.81 C 15.72 156.40 17.02 153.54 17.24 150.15 C 17.63 149.22 17.81 146.97 19.08 147.06 Z" fill="#ee1c27" />
<path d="M 77.21 147.33 C 78.50 146.54 79.46 149.00 78.88 149.87 C 77.46 150.60 75.91 148.49 77.21 147.33 Z" fill="#ffffff" />
<path d="M 122.67 147.29 L 123.40 148.41 L 123.95 149.37 C 122.94 149.55 121.93 149.77 120.93 150.02 C 120.90 149.05 121.18 146.78 122.67 147.29 Z" fill="#ffffff" />
<path d="M 181.73 147.27 C 182.45 149.01 183.34 151.18 182.99 153.08 C 180.61 153.89 177.45 153.66 174.97 153.30 C 173.35 152.42 170.90 150.36 172.33 148.35 C 175.40 148.21 178.78 147.01 181.73 147.27 Z" fill="#ee1c27" />
<path d="M 30.30 148.34 C 34.51 148.86 39.16 150.71 41.84 154.15 C 43.34 156.00 43.89 158.67 44.02 161.00 C 43.63 165.11 42.71 169.56 38.95 171.92 C 35.33 174.39 31.23 174.81 26.98 174.08 C 25.83 173.81 23.68 173.95 24.05 172.16 C 26.08 170.60 28.32 170.06 29.54 167.55 C 30.43 166.28 29.15 164.36 30.22 163.26 C 32.35 162.57 35.15 162.47 35.94 165.06 C 36.46 168.46 34.25 170.41 32.36 172.80 C 34.47 172.16 36.02 169.86 37.15 168.09 C 38.29 166.29 37.44 164.94 37.10 163.09 C 38.05 163.11 39.02 163.34 40.00 163.78 C 40.14 160.88 37.13 161.39 35.20 161.10 C 34.97 159.29 35.42 157.41 33.86 156.14 C 32.17 154.43 30.15 154.29 27.92 153.83 C 28.16 152.01 29.83 150.26 30.30 148.34 Z" fill="#ee1c27" />
<path d="M 92.99 147.91 C 93.03 149.96 93.05 152.01 92.98 154.06 C 90.59 154.12 91.95 152.24 91.81 150.76 C 91.29 150.25 90.78 149.73 90.28 149.22 C 91.13 148.52 92.04 148.08 92.99 147.91 Z" fill="#190c0d" />
<path d="M 99.28 149.69 C 98.86 151.67 100.71 153.03 97.99 154.12 C 96.13 154.41 95.31 153.83 95.51 152.41 L 97.99 152.89 C 98.57 151.64 97.77 151.16 95.58 151.46 L 95.69 149.65 L 98.01 150.03 L 98.00 148.99 L 95.71 149.43 C 95.02 146.94 99.79 147.48 99.28 149.69 Z" fill="#190c0d" />
<path d="M 105.36 148.68 C 105.35 150.16 105.30 151.27 105.77 152.73 C 104.97 154.56 101.23 154.96 101.56 152.32 L 104.05 152.91 L 103.98 151.16 C 103.23 151.48 102.48 151.80 101.73 152.13 C 101.67 151.17 101.61 150.21 101.56 149.25 C 101.92 147.40 104.32 147.46 105.36 148.68 Z" fill="#190c0d" />
<path d="M 109.84 148.06 C 109.84 150.02 109.91 151.98 109.87 153.94 C 107.28 154.24 108.69 152.55 108.45 150.91 C 108.00 150.33 107.57 149.75 107.14 149.15 C 108.05 148.30 108.95 147.94 109.84 148.06 Z" fill="#190c0d" />
<path d="M 169.70 148.32 C 170.11 150.25 171.90 152.02 172.04 153.81 C 169.69 154.41 167.33 154.67 165.67 156.65 C 164.62 157.67 164.99 159.77 164.86 161.11 C 162.94 161.38 159.84 160.85 160.00 163.76 C 160.98 163.34 161.95 163.12 162.91 163.07 C 160.92 166.80 164.29 171.34 167.63 172.81 C 165.73 170.32 163.56 168.57 164.06 165.06 C 164.82 162.45 167.66 162.60 169.78 163.25 C 170.23 164.00 170.34 164.93 170.14 166.03 C 169.99 168.77 173.33 170.53 175.34 171.71 C 176.17 172.09 176.23 172.69 175.53 173.50 C 169.47 175.35 161.86 174.59 158.11 168.90 C 156.08 164.96 154.93 159.40 157.36 155.36 C 159.72 151.12 165.12 148.92 169.70 148.32 Z" fill="#ee1c27" />
<path d="M 103.03 149.06 L 103.96 149.04 L 103.97 149.97 L 103.05 149.98 L 103.03 149.06 Z" fill="#ffffff" />
<path d="M 73.22 151.53 C 74.81 152.05 76.34 151.51 77.90 152.13 C 78.66 153.18 78.54 154.77 78.85 156.01 C 79.89 160.93 82.79 164.46 86.05 168.07 C 85.68 169.15 85.27 171.96 83.98 172.08 C 78.94 168.20 74.71 162.04 73.86 155.64 C 76.45 155.44 75.58 155.24 75.98 153.02 C 74.34 153.72 73.70 154.33 72.22 152.87 C 72.17 152.32 72.50 151.87 73.22 151.53 Z" fill="#ffffff" />
<path d="M 127.79 152.86 C 126.28 154.31 125.71 153.75 124.06 153.01 C 124.09 153.83 124.14 154.65 124.19 155.47 C 124.74 155.55 125.34 155.44 125.98 155.15 C 125.88 161.55 120.93 168.28 116.01 172.09 C 114.77 171.88 114.26 169.15 113.96 168.06 C 117.21 164.49 119.99 160.99 121.16 156.16 C 121.51 154.82 121.32 153.25 122.08 152.09 C 123.37 152.04 127.95 150.73 127.79 152.86 Z" fill="#ffffff" />
<path d="M 174.20 155.29 C 177.07 154.79 180.26 154.81 183.18 154.86 C 183.94 156.05 183.96 158.83 183.09 159.98 C 180.47 159.36 178.05 158.76 175.33 158.59 C 174.63 157.68 173.97 156.47 174.20 155.29 Z" fill="#ee1c27" />
<path d="M 27.78 155.05 C 29.50 155.53 31.69 155.74 33.07 156.94 C 34.71 158.17 34.50 160.01 33.83 161.74 C 32.22 161.90 30.63 162.22 29.03 162.40 C 28.30 160.94 27.19 160.04 26.12 158.89 C 26.69 157.53 26.13 155.42 27.78 155.05 Z" fill="#ffffff" />
<path d="M 172.22 155.05 L 173.24 155.66 C 173.40 156.74 173.61 157.81 173.88 158.87 C 172.80 160.03 171.70 160.95 170.98 162.41 C 169.39 162.20 167.81 161.91 166.21 161.73 C 165.80 160.90 165.61 159.97 165.64 158.94 C 166.55 155.91 169.62 155.77 172.22 155.05 Z" fill="#ffffff" />
<path d="M 81.91 158.90 L 82.93 158.61 C 94.30 158.68 105.69 158.68 117.06 158.61 L 118.05 158.89 C 118.04 161.18 115.13 163.90 113.59 165.57 C 104.56 165.67 95.44 165.68 86.41 165.56 C 84.78 163.82 82.11 161.33 81.91 158.90 Z" fill="#ffffff" />
<path d="M 147.41 159.53 C 149.60 164.04 151.85 168.49 154.07 172.97 C 153.84 174.70 150.46 175.79 149.24 176.98 C 149.28 178.50 151.47 180.29 150.70 181.70 C 135.62 191.08 117.78 196.29 100.00 196.09 C 82.18 196.28 64.41 191.08 49.28 181.71 C 48.53 180.29 50.73 178.51 50.79 176.99 C 49.53 175.81 46.20 174.71 45.92 172.96 C 48.31 168.64 50.21 163.41 53.02 159.47 C 56.55 161.82 59.88 164.37 63.66 166.34 L 63.99 167.09 C 63.57 168.51 62.22 169.71 62.42 171.19 C 85.51 183.61 114.48 183.59 137.58 171.19 C 138.02 169.54 135.33 167.78 136.34 166.34 C 139.72 164.44 142.99 162.40 146.03 159.99 C 146.38 159.65 146.84 159.50 147.41 159.53 Z" fill="#190c0d" />
<path d="M 24.01 160.08 C 26.38 160.47 28.87 162.37 28.65 165.00 C 28.78 168.04 25.51 170.13 22.98 171.00 C 21.12 170.45 19.53 168.12 18.48 166.54 C 17.87 165.16 16.56 162.93 17.41 161.47 C 19.45 160.75 21.83 159.85 24.01 160.08 Z" fill="#ee1c27" />
<path d="M 175.15 160.26 C 177.49 159.60 180.34 160.62 182.51 161.52 C 183.81 164.27 180.35 168.57 178.34 170.32 C 177.12 171.59 176.21 170.66 174.96 170.08 C 172.67 168.74 170.86 166.84 171.45 163.96 C 171.60 162.16 173.56 160.78 175.15 160.26 Z" fill="#ee1c27" />
<path d="M 53.03 161.65 L 53.87 161.50 C 56.22 163.46 58.81 165.02 61.41 166.62 C 63.06 167.33 61.76 169.21 60.90 170.00 C 59.00 170.01 57.51 167.63 55.61 167.55 C 54.02 169.92 53.10 173.93 51.06 175.67 C 49.85 174.83 48.54 174.04 47.47 173.03 C 49.16 169.18 51.24 165.46 53.03 161.65 Z" fill="#ffffff" />
<path d="M 146.12 161.51 L 146.97 161.65 C 148.76 165.45 150.86 169.19 152.51 173.03 C 151.46 174.06 150.13 174.82 148.93 175.66 C 146.89 173.87 145.98 169.95 144.39 167.54 C 142.49 167.70 141.06 169.86 139.09 170.05 C 138.29 169.22 136.95 167.34 138.60 166.62 C 141.18 165.01 143.77 163.46 146.12 161.51 Z" fill="#ffffff" />
<path d="M 88.52 167.55 C 90.75 166.91 93.43 167.27 95.74 167.30 C 96.07 170.09 94.67 173.45 94.01 176.20 L 93.10 176.56 C 90.90 175.55 87.41 175.02 86.02 172.90 C 86.51 171.15 87.48 169.04 88.52 167.55 Z" fill="#ffffff" />
<path d="M 102.62 169.12 C 102.94 171.65 104.38 174.49 104.06 176.98 C 102.44 178.10 97.56 178.16 95.98 176.97 C 95.69 174.47 96.99 171.63 97.36 169.12 C 97.61 166.44 102.40 166.44 102.62 169.12 Z" fill="#ffffff" />
<path d="M 104.24 167.29 C 106.58 167.28 109.23 166.92 111.49 167.53 C 112.56 169.05 113.46 171.11 113.95 172.90 C 112.61 175.04 109.07 175.56 106.89 176.57 L 105.99 176.21 C 105.27 173.48 103.99 170.06 104.24 167.29 Z" fill="#ffffff" />
<path d="M 17.08 168.19 L 18.02 169.01 L 17.08 168.19 Z" fill="#ee1c27" />
<path d="M 182.27 168.35 L 182.87 168.02 C 182.73 169.30 182.53 169.42 182.27 168.35 Z" fill="#ee1c27" />
<path d="M 18.02 169.01 C 18.79 169.71 18.79 169.71 18.02 169.01 Z" fill="#ee1c27" />
<path d="M 56.05 169.68 L 56.90 169.53 C 82.70 185.93 117.28 185.94 143.08 169.53 L 143.96 169.64 C 145.62 173.16 147.41 176.63 149.16 180.10 C 149.28 180.87 148.85 181.46 147.88 181.90 C 133.96 189.97 118.10 194.51 102.00 194.80 C 84.34 195.22 66.65 190.53 51.47 181.50 C 50.69 180.98 50.61 180.24 51.26 179.28 C 52.89 176.10 54.46 172.89 56.05 169.68 Z" fill="#ffffff" />
<path d="M 59.24 174.36 C 60.41 174.93 63.69 175.71 63.28 177.27 C 62.27 177.30 61.21 176.92 60.10 176.15 C 57.91 178.51 61.64 177.07 61.47 179.60 L 59.07 179.05 C 57.24 179.06 58.74 181.70 56.11 180.84 C 56.69 178.55 58.20 176.47 59.24 174.36 Z" fill="#190c0d" />
<path d="M 140.88 175.05 C 141.42 176.81 144.44 179.16 142.96 180.83 C 141.88 181.85 140.49 182.55 139.09 183.00 C 137.81 181.29 136.82 179.04 135.92 177.08 C 136.58 175.98 139.64 174.54 140.88 175.05 Z" fill="#190c0d" />
<path d="M 140.23 177.02 C 139.85 178.17 139.14 178.54 138.08 178.13 C 137.59 177.12 139.92 175.26 140.23 177.02 Z" fill="#ffffff" />
<path d="M 65.52 177.71 C 67.70 177.32 69.72 178.86 70.07 180.99 C 69.80 182.44 68.99 183.93 67.91 184.94 C 65.80 185.81 63.15 184.83 62.68 182.48 C 62.47 180.57 63.75 178.47 65.52 177.71 Z" fill="#190c0d" />
<path d="M 133.25 177.42 C 134.99 177.69 135.35 180.56 136.07 181.91 C 137.54 184.69 131.91 187.47 130.76 184.18 C 130.17 182.73 128.82 180.74 129.22 179.18 C 132.24 178.62 130.64 185.19 134.12 184.03 C 135.80 182.40 132.14 179.46 133.25 177.42 Z" fill="#190c0d" />
<path d="M 66.10 179.02 C 69.86 178.73 68.28 185.06 65.21 183.79 C 63.35 182.26 64.42 180.08 66.10 179.02 Z" fill="#ffffff" />
<path d="M 139.33 179.38 C 140.16 178.78 140.99 178.69 141.81 179.11 C 142.61 181.15 137.77 182.06 139.33 179.38 Z" fill="#ffffff" />
<path d="M 73.43 180.42 C 77.07 180.17 78.58 183.77 76.64 186.60 C 75.02 189.13 71.29 188.25 70.46 185.54 C 70.20 183.46 71.16 180.92 73.43 180.42 Z" fill="#190c0d" />
<path d="M 123.22 181.19 C 125.58 180.58 125.03 184.76 126.00 186.19 C 127.33 186.06 128.59 186.03 129.79 186.10 C 129.81 187.21 125.93 188.39 125.06 187.99 C 124.34 185.90 123.09 183.39 123.22 181.19 Z" fill="#190c0d" />
<path d="M 73.16 182.10 C 73.94 181.78 74.74 181.90 75.56 182.44 C 76.92 183.87 74.93 187.80 72.99 186.45 C 71.21 185.78 72.03 183.07 73.16 182.10 Z" fill="#ffffff" />
<path d="M 79.02 182.07 C 80.79 182.32 82.51 182.82 84.29 183.08 L 84.32 184.21 C 80.98 183.61 82.05 187.38 81.28 189.56 C 80.72 189.67 80.13 189.68 79.53 189.57 C 79.79 187.91 80.16 186.28 80.81 184.72 C 79.64 183.89 79.04 183.00 79.02 182.07 Z" fill="#190c0d" />
<path d="M 121.69 184.67 C 120.43 184.49 119.30 183.61 118.11 184.08 C 117.10 185.58 117.73 188.71 119.99 188.41 C 120.99 187.59 121.14 186.39 122.58 186.40 C 122.94 188.86 119.69 191.06 117.71 189.30 C 115.66 187.91 115.12 183.83 117.77 182.72 C 119.14 181.75 122.50 182.53 121.69 184.67 Z" fill="#190c0d" />
<path d="M 85.83 183.78 C 87.29 183.57 90.07 183.68 90.99 185.07 C 90.80 186.73 90.50 188.01 90.73 189.74 C 89.24 191.95 87.39 190.75 85.20 190.72 C 83.88 186.19 89.86 192.32 89.09 188.05 C 87.91 188.22 86.78 188.30 85.71 188.28 L 84.95 187.55 C 85.20 186.27 85.49 185.02 85.83 183.78 Z" fill="#190c0d" />
<path d="M 96.56 185.32 C 97.05 187.37 98.36 189.91 98.02 191.97 C 96.65 191.78 96.43 190.18 95.03 189.94 C 94.27 190.36 93.58 190.92 92.96 191.61 L 92.00 191.19 C 92.74 189.21 93.59 187.24 94.39 185.28 C 95.17 184.05 95.83 184.09 96.56 185.32 Z" fill="#190c0d" />
<path d="M 100.73 184.48 C 102.29 185.63 100.95 188.58 101.77 190.26 C 102.78 190.32 103.80 190.35 104.82 190.33 L 104.83 191.76 C 103.32 191.81 101.77 191.94 100.27 191.74 C 99.66 189.77 99.92 187.51 99.83 185.47 C 100.02 184.73 100.32 184.41 100.73 184.48 Z" fill="#190c0d" />
<path d="M 107.62 184.37 C 108.06 186.22 107.97 188.00 108.12 189.87 C 109.39 189.85 110.63 189.97 111.81 190.24 C 112.04 192.06 108.53 190.95 107.36 191.46 C 106.12 190.66 106.63 188.25 106.30 186.98 C 106.34 185.59 105.40 183.85 107.62 184.37 Z" fill="#190c0d" />
<path d="M 87.09 185.13 C 88.43 184.65 89.22 184.94 89.48 186.00 C 88.74 187.53 86.32 186.86 87.09 185.13 Z" fill="#ffffff" />
<path d="M 95.18 187.13 C 96.21 187.09 96.43 187.66 95.85 188.84 C 94.15 189.60 94.14 187.99 95.18 187.13 Z" fill="#ffffff" />
</svg>