<?xml version="1.0" encoding="UTF-8" standalone="no"?>
<!DOCTYPE svg PUBLIC "-//W3C//DTD SVG 1.1//EN" "http://www.w3.org/Graphics/SVG/1.1/DTD/svg11.dtd">
<svg xmlns="http://www.w3.org/2000/svg" version="1.1" viewBox="0 0 200 200" width="200.0pt" height="200.0pt">
<path d="M 0.00 0.00 L 103.58 0.00 C 103.54 26.33 103.59 52.67 103.56 79.00 C 103.58 81.99 103.37 85.06 103.77 88.03 C 104.26 90.07 106.12 90.54 107.97 90.54 C 131.05 90.56 154.42 90.53 177.53 90.55 C 179.78 74.83 177.57 58.68 170.63 44.37 C 167.94 38.69 164.44 33.52 160.60 28.56 C 160.62 38.37 160.37 48.24 160.69 58.04 C 162.07 64.40 163.76 70.50 163.69 77.11 C 159.18 76.99 154.54 77.45 150.08 76.83 C 147.62 76.26 147.39 74.20 147.37 72.04 C 147.39 53.31 147.36 34.59 147.39 15.87 C 143.06 12.69 138.59 9.97 133.80 7.51 C 133.79 30.65 133.80 53.78 133.80 76.92 C 128.86 76.77 123.81 77.24 118.92 76.63 C 117.12 75.44 117.17 73.97 117.14 72.03 C 117.19 48.63 117.14 25.20 117.17 1.80 C 113.03 1.01 108.87 0.36 104.67 0.00 L 200.00 0.00 L 200.00 200.00 L 106.62 200.00 C 107.74 197.60 108.65 195.15 109.61 192.69 C 106.83 192.67 104.02 192.60 101.25 192.88 C 99.78 193.29 98.32 193.75 96.86 194.20 C 99.13 194.78 101.19 194.20 103.42 193.79 C 102.32 195.84 101.29 197.93 100.22 200.00 L 97.96 200.00 C 98.55 199.42 99.13 198.83 99.71 198.23 C 99.29 197.48 98.87 196.72 98.47 195.96 C 96.48 194.90 96.26 194.51 95.70 192.14 C 95.31 194.80 94.77 197.37 95.51 200.00 L 93.40 200.00 C 93.01 197.55 93.01 195.13 92.88 192.66 C 92.03 192.93 91.18 193.21 90.34 193.50 C 90.78 193.84 91.23 194.19 91.68 194.54 C 91.56 196.36 91.46 198.18 91.27 200.00 L 0.00 200.00 L 0.00 0.00 Z" fill="#ffffff" />
<path d="M 103.58 0.00 L 104.67 0.00 C 108.87 0.36 113.03 1.01 117.17 1.80 C 117.14 25.20 117.19 48.63 117.14 72.03 C 117.17 73.97 117.12 75.44 118.92 76.63 C 123.81 77.24 128.86 76.77 133.80 76.92 C 133.80 53.78 133.79 30.65 133.80 7.51 C 138.59 9.97 143.06 12.69 147.39 15.87 C 147.36 34.59 147.39 53.31 147.37 72.04 C 147.39 74.20 147.62 76.26 150.08 76.83 C 154.54 77.45 159.18 76.99 163.69 77.11 C 163.76 70.50 162.07 64.40 160.69 58.04 C 160.37 48.24 160.62 38.37 160.60 28.56 C 164.44 33.52 167.94 38.69 170.63 44.37 C 177.57 58.68 179.78 74.83 177.53 90.55 C 154.42 90.53 131.05 90.56 107.97 90.54 C 106.12 90.54 104.26 90.07 103.77 88.03 C 103.37 85.06 103.58 81.99 103.56 79.00 C 103.59 52.67 103.54 26.33 103.58 0.00 Z" fill="#003875" />
<path d="M 88.98 0.69 C 91.70 0.51 94.16 -0.53 96.05 2.09 C 96.72 5.28 96.35 8.75 96.42 12.00 C 96.41 36.33 96.39 60.67 96.43 85.01 C 96.29 87.23 96.68 89.24 94.21 90.26 C 91.89 90.76 89.37 90.52 87.00 90.57 C 65.48 90.51 43.97 90.57 22.45 90.54 C 21.56 83.37 21.30 76.18 22.17 69.00 C 23.97 53.47 30.62 38.68 40.87 26.90 C 53.13 12.76 70.44 3.28 88.98 0.69 Z" fill="#003875" />
<path d="M 82.87 16.48 C 82.82 24.00 82.86 31.51 82.87 39.02 C 82.77 40.41 83.01 41.88 81.98 42.98 C 80.86 44.43 78.65 44.01 77.00 44.16 C 66.44 44.12 55.87 44.13 45.30 44.14 C 54.14 30.63 67.26 20.78 82.87 16.48 Z" fill="#ffffff" />
<path d="M 38.86 57.72 C 51.57 57.73 64.29 57.76 77.00 57.70 C 78.72 57.83 80.79 57.47 82.01 58.97 C 82.99 60.00 82.77 61.66 82.87 62.98 C 82.82 66.87 83.10 70.84 82.65 74.70 C 81.72 77.20 79.23 76.97 77.01 77.12 C 63.11 77.11 49.33 77.10 35.43 77.11 C 35.72 70.43 36.75 64.08 38.86 57.72 Z" fill="#ffffff" />
<path d="M 23.88 97.73 C 46.26 97.66 68.64 97.75 91.01 97.68 C 93.23 97.74 95.17 97.60 96.19 99.97 C 96.58 102.52 96.41 105.17 96.40 107.74 C 77.20 107.64 58.01 107.71 38.81 107.70 C 40.92 111.69 43.20 115.54 45.89 119.17 C 62.73 119.09 79.56 119.22 96.40 119.11 C 96.41 122.44 96.41 125.78 96.40 129.12 C 82.59 129.08 68.77 129.17 54.96 129.06 C 65.39 138.35 78.37 144.08 92.21 145.80 C 90.36 147.69 88.59 149.96 86.25 151.17 C 84.33 152.22 82.40 153.27 80.56 154.47 C 67.33 151.08 55.10 144.22 45.33 134.67 C 34.90 124.59 27.64 111.71 23.88 97.73 Z" fill="#003875" />
<path d="M 108.99 97.68 C 131.37 97.75 153.75 97.66 176.12 97.74 C 175.09 101.09 173.98 104.40 172.79 107.70 C 153.03 107.68 133.27 107.70 113.50 107.69 C 113.54 120.10 113.49 132.51 113.53 144.92 C 124.94 142.39 135.35 137.37 144.22 129.75 C 149.25 129.72 154.27 129.72 159.30 129.75 C 148.82 141.80 134.91 150.50 119.42 154.47 C 116.13 152.22 112.57 151.15 109.92 148.03 C 108.19 145.96 106.08 145.32 103.57 144.62 C 103.55 132.42 103.59 120.21 103.55 108.00 C 103.57 105.35 103.38 102.60 103.81 99.99 C 104.67 97.60 106.86 97.75 108.99 97.68 Z" fill="#003875" />
<path d="M 11.02 126.07 C 19.71 129.70 27.83 134.13 35.46 139.64 C 36.07 136.35 36.65 133.06 37.22 129.76 C 45.49 138.50 54.82 146.05 65.71 151.30 C 70.41 153.67 75.37 155.09 80.27 156.95 C 78.12 157.80 75.63 157.63 74.61 160.01 C 75.23 161.48 76.16 162.64 77.08 163.92 C 76.90 166.50 76.75 168.57 78.17 170.85 C 80.28 174.27 80.26 178.00 81.47 181.71 C 79.37 181.65 77.36 181.45 75.41 180.63 C 65.04 176.56 55.57 171.44 45.76 166.23 C 42.06 164.19 38.40 162.15 34.40 160.77 C 37.98 164.31 42.14 166.86 46.17 169.82 C 53.33 175.04 60.71 179.96 67.92 185.12 C 71.11 187.23 74.21 189.36 76.83 192.19 C 62.70 184.36 49.64 174.57 35.86 166.15 C 27.05 160.83 17.78 155.53 7.34 154.49 C 9.40 150.65 12.05 146.95 13.62 142.89 C 13.45 137.27 11.88 131.63 11.02 126.07 Z" fill="#ee1c25" />
<path d="M 188.95 126.09 C 187.93 131.70 186.90 137.30 186.14 142.95 C 188.30 146.80 190.41 150.68 192.65 154.50 C 181.32 155.61 171.18 161.84 161.66 167.68 C 148.78 175.72 136.44 184.84 123.15 192.19 C 126.44 188.58 130.54 186.26 134.44 183.43 C 140.65 178.96 147.04 174.76 153.22 170.24 C 157.46 167.08 161.78 164.46 165.58 160.75 C 160.58 162.45 156.25 165.17 151.60 167.61 C 143.08 172.12 134.25 176.79 125.27 180.34 C 123.02 181.23 120.68 181.66 118.30 182.03 C 119.86 178.28 119.53 174.35 121.81 170.83 C 123.27 168.55 123.07 166.48 122.89 163.89 C 123.66 162.61 125.88 160.79 124.92 159.20 C 123.93 157.73 121.23 157.59 119.69 156.95 C 124.60 155.09 129.57 153.68 134.28 151.29 C 145.15 146.03 154.55 138.50 162.76 129.71 C 163.32 133.03 163.89 136.35 164.48 139.66 C 171.10 134.97 178.06 130.82 185.51 127.60 C 186.66 127.09 187.80 126.59 188.95 126.09 Z" fill="#ee1c25" />
<path d="M 100.56 142.78 C 101.11 144.05 101.62 145.34 102.12 146.63 C 103.60 146.81 105.29 146.72 106.66 147.34 C 108.37 148.57 109.73 150.32 111.39 151.63 C 113.30 153.08 115.87 153.78 117.62 155.40 C 118.32 156.52 118.76 157.83 119.28 159.04 C 120.89 159.31 122.51 159.54 124.12 159.84 C 122.93 161.02 121.73 162.18 120.52 163.33 C 120.86 164.55 121.19 165.77 121.42 167.01 C 121.22 168.84 120.02 170.56 119.29 172.24 C 117.98 174.80 118.17 177.58 117.28 180.19 C 116.57 181.44 115.19 182.33 114.13 183.27 C 114.40 184.91 114.65 186.54 114.89 188.17 C 113.40 187.48 111.98 186.65 110.51 185.92 C 109.36 186.64 108.19 187.44 106.95 187.99 C 104.66 188.06 102.31 187.37 100.00 187.29 C 97.69 187.36 95.34 188.06 93.05 187.98 C 91.81 187.44 90.65 186.66 89.48 185.94 C 88.02 186.68 86.57 187.46 85.10 188.17 C 85.32 186.54 85.59 184.91 85.85 183.28 C 84.80 182.36 83.47 181.49 82.72 180.30 C 81.82 177.85 81.97 174.73 80.72 172.28 C 80.00 170.59 78.77 168.86 78.60 167.02 C 78.80 165.79 79.12 164.60 79.43 163.40 C 78.28 162.27 77.15 161.12 76.09 159.91 C 77.63 159.54 79.19 159.24 80.75 158.96 C 81.25 157.78 81.69 156.49 82.37 155.39 C 84.29 153.61 87.17 152.96 89.14 151.18 C 90.56 149.94 91.82 148.42 93.34 147.33 C 94.67 146.71 96.33 146.81 97.78 146.61 C 98.60 145.07 98.80 143.51 100.56 142.78 Z" fill="#ee1c25" />
<path d="M 96.18 153.23 C 98.11 152.74 98.66 154.27 99.99 155.30 C 101.34 154.26 101.86 152.71 103.81 153.23 C 105.87 154.41 106.61 156.99 109.09 157.79 C 111.03 158.49 112.21 159.36 113.64 160.82 C 112.93 161.74 112.22 162.64 111.50 163.54 C 112.90 164.66 114.90 164.90 114.87 167.01 C 114.28 169.20 112.25 170.68 112.23 172.95 C 112.12 175.44 111.77 176.62 110.24 178.56 C 109.28 178.16 108.32 177.76 107.36 177.35 C 107.12 178.45 106.85 179.55 106.57 180.64 C 104.51 183.14 101.59 180.06 99.07 180.84 C 96.90 181.12 95.26 182.58 93.43 180.69 C 93.15 179.58 92.91 178.46 92.71 177.32 C 91.73 177.74 90.74 178.15 89.76 178.57 C 86.93 175.80 88.68 172.44 86.41 169.57 C 85.63 168.16 84.60 167.15 85.52 165.48 C 86.47 164.78 87.46 164.13 88.49 163.54 C 87.76 162.64 87.04 161.73 86.33 160.82 C 87.78 159.37 88.98 158.50 90.91 157.78 C 93.39 156.98 94.12 154.36 96.18 153.23 Z" fill="#ffffff" />
<path d="M 96.95 154.97 C 98.01 155.91 99.02 156.89 100.04 157.87 C 101.03 156.86 102.02 155.85 103.02 154.85 C 105.21 157.05 107.27 158.58 109.97 160.12 C 111.83 160.85 109.77 163.23 109.49 164.54 C 110.62 165.28 111.74 166.01 112.82 166.82 C 111.60 170.01 110.56 173.24 109.50 176.48 C 108.34 176.12 107.17 175.76 106.00 175.39 C 105.45 176.69 105.51 178.87 104.24 179.65 C 101.25 179.33 98.73 179.33 95.74 179.65 C 94.43 178.91 94.53 176.70 93.99 175.40 C 92.82 175.76 91.64 176.12 90.47 176.48 C 89.46 173.22 88.38 170.02 87.18 166.82 C 88.27 166.02 89.39 165.25 90.53 164.52 C 89.99 163.34 89.48 162.15 89.04 160.93 C 91.74 158.95 94.52 157.34 96.95 154.97 Z" fill="#ee1c25" />
<path d="M 34.40 160.77 C 38.40 162.15 42.06 164.19 45.76 166.23 C 55.57 171.44 65.04 176.56 75.41 180.63 C 77.36 181.45 79.37 181.65 81.47 181.71 C 82.22 182.47 83.00 183.21 83.77 183.96 C 83.61 185.32 83.60 186.67 83.73 187.99 C 84.63 188.73 85.60 189.38 86.65 189.94 C 86.37 192.43 86.08 194.92 85.77 197.41 C 82.75 195.72 79.75 194.04 76.83 192.19 C 74.21 189.36 71.11 187.23 67.92 185.12 C 60.71 179.96 53.33 175.04 46.17 169.82 C 42.14 166.86 37.98 164.31 34.40 160.77 Z" fill="#8d1a1c" />
<path d="M 165.58 160.75 C 161.78 164.46 157.46 167.08 153.22 170.24 C 147.04 174.76 140.65 178.96 134.44 183.43 C 130.54 186.26 126.44 188.58 123.15 192.19 C 120.25 194.04 117.20 195.73 114.20 197.40 C 113.88 194.91 113.57 192.42 113.28 189.93 C 114.36 189.39 115.35 188.74 116.24 187.98 C 116.37 186.66 116.36 185.32 116.19 183.96 C 116.90 183.31 117.61 182.68 118.30 182.03 C 120.68 181.66 123.02 181.23 125.27 180.34 C 134.25 176.79 143.08 172.12 151.60 167.61 C 156.25 165.17 160.58 162.45 165.58 160.75 Z" fill="#8d1a1c" />
<path d="M 101.84 161.90 C 103.83 163.60 104.97 165.00 105.88 167.51 C 105.45 168.76 105.04 170.03 104.63 171.29 C 102.17 172.60 100.25 174.14 97.42 172.57 C 95.20 171.57 95.01 169.77 94.12 167.76 C 94.52 166.54 94.91 165.31 95.27 164.08 C 97.50 162.61 99.18 162.16 101.84 161.90 Z" fill="#ffffff" />
<path d="M 98.47 165.56 C 101.21 163.74 104.21 167.44 101.63 169.59 C 99.02 171.90 95.61 167.68 98.47 165.56 Z" fill="#ee1c25" />
<path d="M 92.88 192.66 C 93.01 195.13 93.01 197.55 93.40 200.00 L 91.27 200.00 C 91.46 198.18 91.56 196.36 91.68 194.54 C 91.23 194.19 90.78 193.84 90.34 193.50 C 91.18 193.21 92.03 192.93 92.88 192.66 Z" fill="#003875" />
<path d="M 101.25 192.88 C 104.02 192.60 106.83 192.67 109.61 192.69 C 108.65 195.15 107.74 197.60 106.62 200.00 L 105.26 200.00 C 106.38 197.94 107.41 195.84 108.53 193.78 C 107.01 193.93 105.50 194.10 104.00 194.32 C 103.15 196.20 102.43 198.13 101.56 200.00 L 100.22 200.00 C 101.29 197.93 102.32 195.84 103.42 193.79 C 101.19 194.20 99.13 194.78 96.86 194.20 C 98.32 193.75 99.78 193.29 101.25 192.88 Z" fill="#003875" />
<path d="M 95.70 192.14 C 96.26 194.51 96.48 194.90 98.47 195.96 C 98.87 196.72 99.29 197.48 99.71 198.23 C 99.13 198.83 98.55 199.42 97.96 200.00 L 95.51 200.00 C 94.77 197.37 95.31 194.80 95.70 192.14 Z" fill="#003875" />
<path d="M 104.00 194.32 C 105.50 194.10 107.01 193.93 108.53 193.78 C 107.41 195.84 106.38 197.94 105.26 200.00 L 101.56 200.00 C 102.43 198.13 103.15 196.20 104.00 194.32 Z" fill="#ffffff" />
<path d="M 96.19 197.28 C 97.85 196.01 98.93 199.07 97.03 199.47 C 95.99 199.12 95.71 198.39 96.19 197.28 Z" fill="#ffffff" />
</svg>