<svg id="Layer_1" data-name="Layer 1" xmlns="http://www.w3.org/2000/svg" viewBox="0 0 100 100"><defs><style>.cls-1,.cls-6{fill:#fff;}.cls-2,.cls-5{fill:#2e2a25;}.cls-3,.cls-4{fill:#b86645;}.cls-4,.cls-5,.cls-6{fill-rule:evenodd;}</style></defs><circle class="cls-1" cx="50" cy="50" r="45"/><circle class="cls-2" cx="50" cy="50" r="43.23"/><circle class="cls-1" cx="50" cy="50" r="41.47"/><path class="cls-3" d="M13.19,51.09v.45H11.28v-.45H12V49.3a1.87,1.87,0,0,1-.78.15V49a.94.94,0,0,0,.81-.38h.48v2.43Z"/><path class="cls-3" d="M15.62,49.58v1a.91.91,0,0,1-1,1c-.63,0-.95-.29-1-.81h.49c0,.23.18.37.49.37s.53-.19.53-.57v-.34a.87.87,0,0,1-.67.27c-.55,0-.86-.32-.86-.93a.88.88,0,0,1,1-1C15.26,48.61,15.62,48.94,15.62,49.58Zm-.51.11v-.08c0-.37-.17-.56-.52-.56a.45.45,0,0,0-.5.52c0,.32.15.5.47.5A.56.56,0,0,0,15.11,49.69Z"/><path class="cls-3" d="M86.47,51.11v.45H84.56v-.45h.7V49.33a1.86,1.86,0,0,1-.78.14v-.41a.93.93,0,0,0,.81-.37h.48v2.42Z"/><path class="cls-3" d="M87.39,51.11h1.52v.45h-2v-.25c0-.55.25-.87.91-1.17.46-.22.62-.38.62-.65s-.16-.41-.49-.41a.45.45,0,0,0-.51.5v.07h-.49v-.12c0-.58.36-.89,1-.89s1,.32,1,.84-.25.76-.88,1.05C87.58,50.73,87.41,50.88,87.39,51.11Z"/><path class="cls-2" d="M34.59,82.52c.74-1.38.48-2.33-.87-3.08s-2.34-.48-3.14,1L30,81.45c-.8,1.44-.53,2.42.84,3.18a2,2,0,0,0,3.08-.87L32.61,83c-.37.63-.65.77-1.14.49s-.53-.59-.11-1.35l.56-1c.42-.75.7-.9,1.2-.62s.53.59.18,1.25Z"/><path class="cls-2" d="M36.07,80.74,33.82,86l1.43.61,2.25-5.29Z"/><path class="cls-2" d="M38,81.61l-.38,1.23,1.39.42-1.31,4.27,1.49.46,1.3-4.27,1.39.42.37-1.23Z"/><path class="cls-2" d="M46.13,83.52,45,85.18l-.59-1.9L42.68,83,44,86.62,43.64,89l1.53.22.33-2.37,2.24-3.08Z"/><path class="cls-2" d="M52.48,83.65l-1.66.08-1.53,5.83,1.55-.07.23-1,1.54-.07.33,1,1.63-.07Zm-1.16,3.59.37-1.89.56,1.84Z"/><path class="cls-2" d="M56.47,87.38l-1.55.23.23,1.54,1.55-.23Z"/><path class="cls-2" d="M61,85.68l-.31-1.22L58.73,85l-.26-1,2.34-.6-.31-1.22-3.85,1,1.43,5.56,1.51-.38L59,86.17Z"/><path class="cls-2" d="M63.13,85.59l-1.48.51.51,1.48,1.48-.51Z"/><path class="cls-2" d="M68.24,82.65l-1.33.63c.31.67.26,1-.25,1.22s-.8.09-1.17-.68l-.5-1c-.37-.78-.32-1.09.2-1.34s.78-.09,1.11.57l1.33-.64c-.7-1.4-1.63-1.74-3-1.07s-1.74,1.64-1,3.12l.52,1.1c.71,1.48,1.67,1.83,3.08,1.15A2,2,0,0,0,68.24,82.65Z"/><path class="cls-2" d="M70.26,82.06l-1.34.81.81,1.34,1.34-.81Z"/><path class="cls-2" d="M36,17.31c-.48-.94-1.13-1.19-2.36-.83-.74.22-1.05.19-1.22-.16s0-.52.29-.69.6-.08.82.34l1.35-.68c-.57-1.13-1.43-1.33-2.67-.71s-1.65,1.52-1.11,2.59c.47.92,1.1,1.14,2.32.79.76-.22,1.08-.17,1.26.19s0,.53-.34.72-.69.12-.93-.35L32,19.21c.6,1.18,1.43,1.39,2.77.71S36.5,18.4,36,17.31Z"/><path class="cls-2" d="M42.1,17l-.47-5.88-1.44.45.43,3.68-1.91-3.21-1.2.38.28,3.73L36,12.93l-1.52.48,3,5.08L39.06,18l-.26-3.48,1.78,3Z"/><path class="cls-2" d="M45.34,10.71l-1.65.23-1,6,1.54-.22.14-1.05,1.52-.21.42,1,1.61-.22Zm-.84,3.68.21-1.92.71,1.79Z"/><path class="cls-2" d="M51.52,10.47l-.05,3.1-1.55-3.13-1.57,0-.09,5.75,1.41,0,.06-3.4,1.7,3.43,1.41,0,.09-5.75Z"/><path class="cls-2" d="M58,13c.2-1.24-.38-1.92-1.75-2.13s-2.23.26-2.41,1.45c-.16,1,.22,1.56,1.41,2,.74.27,1,.5.91.89s-.27.46-.7.39-.62-.3-.54-.83l-1.5-.23c-.21,1.31.34,2,1.83,2.2s2.28-.23,2.47-1.44c.17-1-.21-1.61-1.43-2-.72-.26-.95-.46-.89-.84s.27-.45.64-.39.54.29.46.75Z"/><path class="cls-2" d="M63,13.91l.36-1.21-3.86-1.16-1.65,5.51,4,1.18.36-1.2-2.46-.74.3-1,2,.59.35-1.17-2-.59.28-.92Z"/><path class="cls-2" d="M66.28,13.94l-4.11,4.4,1.4.68.69-.81,1.39.67-.19,1,1.47.7.85-6Zm-.38,3.72-.84-.4,1.22-1.49Z"/><rect class="cls-3" x="39.24" y="56.31" width="1.45" height="0.86"/><rect class="cls-3" x="41.6" y="56.31" width="1.43" height="0.86"/><polygon class="cls-4" points="45.31 72.32 39.3 72.32 39.59 66.86 39.99 59.38 44.63 59.38 45.02 66.86 45.31 72.32"/><rect class="cls-3" x="43.94" y="56.31" width="1.42" height="0.86"/><rect class="cls-3" x="39.24" y="57.39" width="6.13" height="0.8"/><rect class="cls-3" x="39.24" y="58.36" width="6.13" height="0.8"/><path class="cls-4" d="M48.79,67.41v.87h-.73A2.07,2.07,0,0,1,48.79,67.41Z"/><path class="cls-4" d="M49.92,67v1.25H49v-1A2.13,2.13,0,0,1,49.92,67Z"/><path class="cls-4" d="M51.05,67.3v1h-1V67A2.06,2.06,0,0,1,51.05,67.3Z"/><path class="cls-4" d="M52,68.28h-.74v-.87A2.1,2.1,0,0,1,52,68.28Z"/><path class="cls-4" d="M52.15,69.18v3.14H47.86V69.18A2.15,2.15,0,0,1,48,68.5h.82V69H49v-.5h1V69h.17v-.5h1V69h.17v-.5h.83A2.15,2.15,0,0,1,52.15,69.18Z"/><path class="cls-4" d="M52.77,69.18v3.14h-.39V69a.28.28,0,0,1,0-.09s0,0,0-.05h0a.43.43,0,0,0,0-.11h0v0a.86.86,0,0,0-.06-.23.43.43,0,0,0,0,0l0-.06,0,0,0,0v0l0,0,0,0,0-.09,0,0v0l0,0,0,0,0,0-.06-.08h0l-.06-.07,0,0-.12-.15h0l-.06-.07,0,0,0,0,0,0,0,0h0l0,0,0,0h0l-.07,0h0l-.08,0-.08,0,0,0,0,0L51,67l0,0-.08,0-.08,0h0l-.08,0h-.12l-.09,0H49.47l-.09,0h-.11l-.08,0h0l-.09,0h0L49,67l0,0-.05,0h0l-.08.05h0l-.09,0h0l-.06,0h0l-.07,0,0,0h0l-.06,0h0l-.07.05,0,0,0,0-.07.07h0l-.07.07,0,0,0,0-.07.09,0,0-.05.07h0A.16.16,0,0,0,48,68l0,0,0,.06,0,.05a.14.14,0,0,0,0,.06h0l0,0s0,0,0,0l0,0,0,.1v0s0,0,0,.06a.29.29,0,0,0,0,.09l0,.1v0h0a.43.43,0,0,1,0,.11h0v.05a.28.28,0,0,0,0,.09v3.3h-.39V69.18A2.73,2.73,0,0,1,48.31,67l.08-.06h0l.09-.06h0l.09,0,.09,0h0l.06,0h0l.06,0h0l.08,0h0l.06,0h0l.09,0,.07,0h0l.09,0h0l.07,0h.11l.1,0h.61l.1,0h.16l.08,0,.15,0h0l0,0,.07,0,0,0,.06,0,.05,0,0,0,0,0,.06,0h0l0,0h0l.17.1,0,0h0l.07,0,.09.07A2.76,2.76,0,0,1,52.77,69.18Z"/><path class="cls-4" d="M54.94,63.41l-.18,3.45-.29,5.46H53V69a.57.57,0,0,0,0-.13l0-.25V68.5a.64.64,0,0,1,0-.07v0l0-.06h0s0,0,0-.06l0-.05s0,0,0,0h0l0-.06a.19.19,0,0,1,0-.07h0l0-.07h0l0-.09v0a.25.25,0,0,1,0-.07h0l0-.06a.35.35,0,0,0-.05-.08h0a.21.21,0,0,0,0-.06.43.43,0,0,0,0-.07l-.05-.07c0-.06-.1-.13-.16-.19l-.06-.07,0,0,0,0-.05,0L52,67l-.06,0-.07-.06,0,0A2.94,2.94,0,0,0,50,66.19a2.9,2.9,0,0,0-1.84.64l-.05,0,0,0-.05,0,0,0-.06,0,0,0,0,0a.52.52,0,0,0-.1.11l0,0-.06.07h0l0,.06h0l-.05.07,0,.06h0l0,.06a.21.21,0,0,0,0,.06h0v0l0,0v0l0,0v0l0,.08s0,0,0,.06a.25.25,0,0,0,0,.07.24.24,0,0,0,0,.08l0,.06a.14.14,0,0,1,0,.06v0a.64.64,0,0,1,0,.07s0,0,0,0h0v0h0s0,0,0,.06a.13.13,0,0,0,0,.06v0a.09.09,0,0,0,0,0v0h0s0,0,0,.06,0,0,0,.07v.06A.15.15,0,0,0,47,69v0a.2.2,0,0,1,0,.07h0v3.24H45.53l-.28-5.46-.18-3.45h1.17V62.33h.46v1.08h1.9V62.33h.46v1.08H51V62.33h.45v1.08h1.91V62.33h.46v1.08Z"/><polygon class="cls-4" points="55.02 61.88 54.96 63.19 54.01 63.19 54.01 62.1 53.1 62.1 53.1 63.19 51.65 63.19 51.65 62.1 50.74 62.1 50.74 63.19 49.29 63.19 49.29 62.1 48.38 62.1 48.38 63.19 46.93 63.19 46.93 62.1 46.02 62.1 46.02 63.19 45.06 63.19 44.99 61.88 55.02 61.88"/><polygon class="cls-4" points="55.1 60.46 55.03 61.72 44.98 61.72 44.92 60.46 46 60.46 46 61.54 46.91 61.54 46.91 60.46 48.36 60.46 48.36 61.54 49.27 61.54 49.27 60.46 50.73 60.46 50.73 61.54 51.64 61.54 51.64 60.46 53.09 60.46 53.09 61.54 54 61.54 54 60.46 55.1 60.46"/><path class="cls-4" d="M56.08,56.39v.77H54.63V57c.15-.2.3-.4.46-.59Z"/><rect class="cls-3" x="57" y="56.39" width="1.43" height="0.77"/><polygon class="cls-4" points="60.7 72.32 54.7 72.32 54.99 66.86 55.38 59.38 60.03 59.38 60.41 66.86 60.7 72.32"/><rect class="cls-3" x="59.34" y="56.39" width="1.42" height="0.77"/><rect class="cls-3" x="54.63" y="57.39" width="6.13" height="0.8"/><rect class="cls-3" x="54.63" y="58.36" width="6.13" height="0.8"/><path class="cls-5" d="M56.7,51.92a5.44,5.44,0,0,0-1.41,2.63,4.8,4.8,0,0,0-.11.76s0,.07,0,.1,0-.06,0-.1a4.85,4.85,0,0,1,.11-.75,5.32,5.32,0,0,1,1.42-2.64Z"/><path class="cls-5" d="M62.6,51.92H81.75q.06-1,.06-1.92a31.81,31.81,0,0,0-63.62,0q0,1,.06,1.92h24l.07.1a9.06,9.06,0,0,0,3.32,2.89l.12.07.32.14.15.07a15.39,15.39,0,0,0,1.79.65,8.73,8.73,0,0,1,.33,2.39c0,.17,0,.34,0,.51a.17.17,0,0,1,0,.07h0v0a1.18,1.18,0,0,1-.15.47.56.56,0,0,1,0,.08H45.59v-3.3H43.72v1.08h-.46V56.08H41.38v1.08h-.46V56.08H39v3.3H19.6A31.92,31.92,0,0,0,23,66.86H39.37l-.3,5.69H60.93l-.29-5.69H77a31.92,31.92,0,0,0,3.42-7.48H61V56.17H59.11v1h-.46v-1H56.77v1h-.46v-1h-1l0,0,0,0v0h0a15.33,15.33,0,0,0,2.86-1A14.48,14.48,0,0,0,62.6,51.92ZM40,35.17a.54.54,0,0,1,.1-.16L40.2,35l0,0h0a5.37,5.37,0,0,0,1.92-1.62h.08l.15,0h.4a3.22,3.22,0,0,0,.88-.11c0,.1,0,.21,0,.31a2.27,2.27,0,0,0,.08.59,8.78,8.78,0,0,1-3.7,1.55.52.52,0,0,1-.1-.31A.43.43,0,0,1,40,35.17Zm3.78-1a2,2,0,0,0,.19.46,3.29,3.29,0,0,1-1,.9A3.34,3.34,0,0,1,41.3,36a3.31,3.31,0,0,1-.95-.14A8.78,8.78,0,0,0,43.8,34.18ZM39,50.08a3.28,3.28,0,0,1-1.7-.46,3.4,3.4,0,0,0,1.93-1.34,5.41,5.41,0,0,1-1.76.29,5.32,5.32,0,0,1-1.4-.18,5,5,0,0,1-.94-.34h.06a3.08,3.08,0,0,0,.68-.07,3.28,3.28,0,0,0,1.27-.55,4.93,4.93,0,0,1-.55,0,6.56,6.56,0,0,1-.9-.07,5.46,5.46,0,0,1-2.57-1.17h.29a3.36,3.36,0,0,0,2-.65,5.43,5.43,0,0,1-2-.7,5.5,5.5,0,0,1-1.38-1.16l0,0,0,0a3.39,3.39,0,0,0,1.39.29,3.26,3.26,0,0,0,.7-.07,3,3,0,0,0,.43-.12l-.22-.06a5.5,5.5,0,0,1-1.9-1c-.13-.11-.26-.22-.38-.34a5.59,5.59,0,0,1-.88-1.11L31,41l.22.09a3.18,3.18,0,0,0,1.12.2h0a3.21,3.21,0,0,0,1.12-.19,5.21,5.21,0,0,1-1-.25,5.35,5.35,0,0,1-1.1-.54l-.1-.06a4.81,4.81,0,0,1-.57-.44l-.24-.22-.21-.22a5.39,5.39,0,0,1-.72-1,3.21,3.21,0,0,0,.83.36l.2,0,.3.06.43,0h.32a5,5,0,0,1-.65-.34h0a5.41,5.41,0,0,1-2-2,3.32,3.32,0,0,0,2.21.83,3.81,3.81,0,0,0,.59,0h.1l-.25-.09a5.89,5.89,0,0,1-.94-.47A5.52,5.52,0,0,1,29,34.82l-.15-.27.18.13a3.25,3.25,0,0,0,1.3.53l.23,0-.12-.12a5.46,5.46,0,0,1-1.11-1.5l0-.06A5.89,5.89,0,0,1,29,33a5.69,5.69,0,0,1-.26-1.1.53.53,0,0,1,0-.13.13.13,0,0,1,0-.06l0,0,.05,0a3.11,3.11,0,0,0,.9.71l.16.08a4.67,4.67,0,0,0,.66.23c-.15-.16-.29-.33-.42-.5l0,0a5.18,5.18,0,0,1-.66-1.17l0-.06a2.25,2.25,0,0,1-.08-.24l0-.06a6.86,6.86,0,0,1-.23-1,3.6,3.6,0,0,0,.49.67l0,0a3.7,3.7,0,0,0,.36.33l.06,0a3.62,3.62,0,0,0,.41.27l-.23-.33,0-.06a2.91,2.91,0,0,1-.28-.59l0,0A3.55,3.55,0,0,1,29.67,29v-.22a4.22,4.22,0,0,1,.1-.62c0-.1.06-.21.1-.31s0-.1.05-.14a.08.08,0,0,1,0,.05c0,.06,0,.12.07.17l.3.67c.12.26.25.51.39.76v0a12.9,12.9,0,0,0,.73,1.18l0,0,.23.31c.14.2.3.4.46.6s.5.58.76.86l.08.08.15.15q.39.39.81.75l0,0,.06,0c.17.15.35.29.53.42h0l.32.24.5.35.47.29c.21.12.42.25.64.36h0l.27.14h0l.61.34.22.14c.31.19.62.4.91.62l.12.08c.33.25.64.5.94.77s.52.48.77.74.65.71,1,1.08l.29.39a12.8,12.8,0,0,1,1.09,1.72.76.76,0,0,0-.08.11,9,9,0,0,0-1.95,5.61,9.64,9.64,0,0,0,.37,2.58A3.33,3.33,0,0,1,39,50.08Zm8.1,10a1.39,1.39,0,0,0,1.2-.7,1.42,1.42,0,0,0,.17-.54v-.09c0-.17,0-.35,0-.52a8.8,8.8,0,0,0-.31-2.34,13,13,0,0,0,1.5.33A8.76,8.76,0,0,0,49,59.34v.17a.13.13,0,0,0,0,.06.07.07,0,0,0,0,0,.3.3,0,0,0,0,.1l0,.09s0,0,.06.07l.07.07.07,0,.09,0,.1,0h.1a.42.42,0,0,1,.32.15H46.7A.69.69,0,0,1,47.14,60.08Zm2.75-3.83a15.16,15.16,0,0,0,2,.16h.61a5.93,5.93,0,0,1,.31.68h0a9.07,9.07,0,0,0-.24,1.06c0,.18-.06.36-.08.55a1.86,1.86,0,0,1,0,.26,1.83,1.83,0,0,1-.08.25l-.1.17H49.14v0A8.65,8.65,0,0,1,49.89,56.25ZM46,60.46v1.08h.91V60.46h1.45v1.08h.91V60.46h1.46v1.08h.91V60.46h1.45v1.08H54V60.46h1.1L55,61.71H45l-.06-1.25Zm8.41-1.08h-1a8.29,8.29,0,0,1,1-2.06ZM53.1,62.1v1.09H51.65V62.1h-.91v1.09H49.29V62.1h-.91v1.09H46.93V62.1H46v1.09h-1L45,61.88H55L55,63.19H54V62.1Zm-9.16-5.79h1.43v.85H43.94Zm-2.34,0H43v.85H41.6Zm-2.36,0h1.45v.85H39.24Zm0,1.08h6.13v.8H39.24Zm0,1.77v-.8h6.13v.8Zm.06,13.16.29-5.46.4-7.47h4.64L45,66.86l.29,5.46Zm12.85,0H47.86V69.18A2.15,2.15,0,0,1,48,68.5h.82V69H49v-.5h1V69h.17v-.5h1V69h.17v-.5h.83a2.15,2.15,0,0,1,.1.68Zm-4.09-4a2.07,2.07,0,0,1,.73-.87v.87Zm.9,0v-1a2.13,2.13,0,0,1,1-.27v1.25Zm1.13,0V67a2.06,2.06,0,0,1,1,.27v1Zm1.13,0v-.87a2.1,2.1,0,0,1,.74.87Zm1.55,4h-.39V69a.28.28,0,0,1,0-.09s0,0,0-.05h0a.43.43,0,0,0,0-.11h0v0a.86.86,0,0,0-.06-.23.43.43,0,0,0,0,0l0-.06,0,0,0,0v0l0,0,0,0,0-.09,0,0v0l0,0,0,0,0,0-.06-.08h0l-.06-.07,0,0-.12-.15h0l-.06-.07,0,0,0,0,0,0,0,0h0l0,0,0,0h0l-.07,0h0l-.08,0-.08,0,0,0,0,0L51,67l0,0-.08,0-.08,0h0l-.08,0h-.12l-.09,0H49.47l-.09,0h-.11l-.08,0h0l-.09,0h0L49,67l0,0-.05,0h0l-.08.05h0l-.09,0h0l-.06,0h0l-.07,0,0,0h0l-.06,0h0l-.07.05,0,0,0,0-.07.07h0l-.07.07,0,0,0,0-.07.09,0,0-.05.07h0A.16.16,0,0,0,48,68l0,0,0,.06,0,.05a.14.14,0,0,0,0,.06h0l0,0s0,0,0,0l0,0,0,.1v0s0,0,0,.06a.29.29,0,0,0,0,.09l0,.1v0h0a.43.43,0,0,1,0,.11h0v.05a.28.28,0,0,0,0,.09v3.3h-.39V69.18A2.73,2.73,0,0,1,48.31,67l.08-.06h0l.09-.06h0l.09,0,.09,0h0l.06,0h0l.06,0h0l.08,0h0l.06,0h0l.09,0,.07,0h0l.09,0h0l.07,0h.11l.1,0h.61l.1,0h.16l.08,0,.15,0h0l0,0,.07,0,0,0,.06,0,.05,0,0,0,0,0,.06,0h0l0,0h0l.17.1,0,0h0l.07,0,.09.07a2.76,2.76,0,0,1,1.06,2.18Zm.22,0V69a.57.57,0,0,0,0-.13l0-.25V68.5a.64.64,0,0,1,0-.07v0l0-.06h0s0,0,0-.06l0-.05s0,0,0,0h0l0-.06a.19.19,0,0,1,0-.07h0l0-.07h0l0-.09v0a.25.25,0,0,1,0-.07h0l0-.06a.35.35,0,0,0-.05-.08h0l0-.06a.43.43,0,0,0,0-.07l-.05-.07c0-.06-.1-.13-.16-.19l-.06-.07,0,0,0,0-.05,0L52,67l-.06,0-.07-.06,0,0A2.94,2.94,0,0,0,50,66.19a2.9,2.9,0,0,0-1.84.64l-.05,0,0,0-.05,0,0,0-.06,0,0,0,0,0a.52.52,0,0,0-.1.11l0,0-.06.07h0l0,.06h0l-.05.07,0,.06h0l0,.06a.21.21,0,0,0,0,.06h0v0l0,0v0l0,0v0l0,.08s0,0,0,.06a.25.25,0,0,0,0,.07.24.24,0,0,0,0,.08l0,.06a.14.14,0,0,1,0,.06v0a.64.64,0,0,1,0,.07s0,0,0,0h0v0h0s0,0,0,.06a.13.13,0,0,0,0,.06v0a.09.09,0,0,0,0,0v0h0s0,0,0,.06,0,0,0,.07v.06A.15.15,0,0,0,47,69v0a.2.2,0,0,1,0,.07h0v3.24H45.53l-.28-5.46-.18-3.45h1.17V62.33h.46v1.08h1.9V62.33h.46v1.08H51V62.33h.45v1.08h1.91V62.33h.46v1.08h1.15l-.18,3.45-.29,5.46Zm7.71,0h-6l.3-5.46.39-7.47H60l.38,7.47Zm.06-13.16H54.63v-.8h6.13Zm-1.42-2.77h1.42v.77H59.34Zm-2.34,0h1.42v.77H57Zm3.76,1v.8H54.63v-.8Zm-4.68-1v.77H54.63V57c.15-.2.3-.4.46-.59Zm-.75-.58V55.7a2.53,2.53,0,0,1,0-.28v-.09a6,6,0,0,1,.1-.74,5.44,5.44,0,0,1,.2-.72,5.93,5.93,0,0,1,.29-.69A6.06,6.06,0,0,1,56.78,52a5.92,5.92,0,0,1,1.15-1,5.33,5.33,0,0,0-1.21.91v0a5.32,5.32,0,0,0-1.42,2.64,4.85,4.85,0,0,0-.11.75s0,.07,0,.1,0,.19,0,.29V56h0l-.3.35-.24.31a9,9,0,0,0-1.36,2.62.11.11,0,0,0,0,0,.13.13,0,0,0,0,.06v.11h0a.83.83,0,0,0,.06.21.53.53,0,0,0,.33.29l0,0h.16a.28.28,0,0,1,.15,0,.33.33,0,0,1,.15.11H50.86a.68.68,0,0,1,.27-.13l.12,0h.14a.93.93,0,0,0,.29,0,1.38,1.38,0,0,0,.82-.64s0-.07,0-.1a1.31,1.31,0,0,0,.09-.28.8.8,0,0,0,0-.15v-.13c0-.19,0-.37.08-.55A7.77,7.77,0,0,1,53,57.11h0v-.05a5.59,5.59,0,0,0-1.87-2.32l.06.05a5.38,5.38,0,0,1,1.21,1.4h-.48A12.26,12.26,0,0,1,50,56h-.18a15.34,15.34,0,0,1-1.66-.37l-.1,0-.09,0a15.1,15.1,0,0,1-1.63-.6l-.15-.06-.31-.15-.12-.06a8.94,8.94,0,0,1-3.22-2.79,9.24,9.24,0,0,1-1.2-2.44l0-.11a.56.56,0,0,1,0-.12A8.65,8.65,0,0,1,41,47.8a7.94,7.94,0,0,1,0-1,8.93,8.93,0,0,1,.32-2.38,8.73,8.73,0,0,1,1.6-3.12.86.86,0,0,1,.07-.1l.08-.09a8.77,8.77,0,0,1,2.43-2l.32-.17h0l.21-.11h0a7.9,7.9,0,0,0,.8-.46A8.58,8.58,0,0,0,48.39,37a9.51,9.51,0,0,0,.76-.92A9.24,9.24,0,0,0,50.26,34h0a.78.78,0,0,1,.05-.14,1.49,1.49,0,0,0,0-.36,1.29,1.29,0,0,0-1.29-1.29,1.46,1.46,0,0,0-1.14.67h0l0,.06h0a3.27,3.27,0,0,1-1.12,1.22l-.3.16a3.4,3.4,0,0,1-1.29.33h-.26a3.59,3.59,0,0,1-.81-.1,2.12,2.12,0,0,1-.25-1,2.19,2.19,0,0,1,0-.36A3.57,3.57,0,0,0,46,31.44c0-.05.05-.11.08-.17h-.19A2.27,2.27,0,0,0,43.76,33a3.52,3.52,0,0,1-.92.12h-.56a2.15,2.15,0,0,1-.11-.68,2.06,2.06,0,0,1,.66-1.52h0l.19-.16.14-.11.08-.07.46-.34.74-.5.07,0,.06,0h0l.22-.15A5.55,5.55,0,0,0,46,28.31a1.75,1.75,0,0,1,0,.4.76.76,0,0,1,0,.15,1.91,1.91,0,0,1-.18.71,5.71,5.71,0,0,1,1.64-.52,5.55,5.55,0,0,1,.82-.06h.1a5.35,5.35,0,0,1,2.25.53,3,3,0,0,1,.4.21,2.41,2.41,0,0,1,.5.33,3.36,3.36,0,0,1,1.29,2.65,3.72,3.72,0,0,1-.08.74.43.43,0,0,0,0,0A14.16,14.16,0,0,1,50.87,38l-.17.25a14.07,14.07,0,0,1-1.16,1.51c-.28.31-.57.62-.88.91l-.09.08,0,0h0a3.38,3.38,0,0,0,.37,5.1L49,46,49,46l.07,0,.18.09a.75.75,0,0,0,.18.08l.18.06.17,0-.39.2-.56.29a6.07,6.07,0,0,1-.59.24l.6-.21.59-.21.16-.07h0l.46-.21h0a.61.61,0,0,0,.14-.07l.06,0,.07,0a13,13,0,0,0,1.54-1h0l.22-.16a14.83,14.83,0,0,0,1.13-1c.24-.22.47-.45.7-.69l.35-.4a14.14,14.14,0,0,0,1.23-1.65c.17-.27.34-.56.5-.84a2.44,2.44,0,0,0,.14-.28c.06-.1.11-.21.17-.32l0,0a.61.61,0,0,1,.07-.14l0-.07c.13-.26.26-.52.41-.77s.33-.58.52-.86l.13-.19.21-.29a13.13,13.13,0,0,1,.87-1.1c.24-.27.5-.54.76-.8l.29-.26,0,0a15,15,0,0,1,1.54-1.22l.47-.31.55-.33c.31-.18.62-.34.94-.49l.12-.06c.35-.16.7-.31,1.06-.44l.35-.12.52-.17.22-.06h0l.14,0h0l.15,0a8.09,8.09,0,0,0,1.09-.46l.25-.13.08,0a9.37,9.37,0,0,0,1.28-.88,7.83,7.83,0,0,0,.9-.83c.2-.22.39-.45.57-.68a8.66,8.66,0,0,0,.8-1.26.8.8,0,0,0,.08-.16.57.57,0,0,1,0,.13c0,.08,0,.16,0,.23a5.27,5.27,0,0,1-.17,1.33,4.77,4.77,0,0,1-.41,1.11,5.28,5.28,0,0,1-.8,1.19,5.61,5.61,0,0,0,1.81-1.56,5.45,5.45,0,0,1-.37,1.4,1.89,1.89,0,0,1-.11.25,5.22,5.22,0,0,1-.91,1.36,4.88,4.88,0,0,1-.67.62,4.76,4.76,0,0,0,.9-.3,4.64,4.64,0,0,0,1-.58,3.38,3.38,0,0,1-.55,1.74,3.34,3.34,0,0,1-1,1l-.13.08-.23.13.23,0,.18,0,.2,0a4.14,4.14,0,0,0,.77-.27,2.36,2.36,0,0,1-.24.4q-.24.36-.51.69a7.19,7.19,0,0,1-.51.59l-.08.08-.25.24c-.13.13-.26.24-.4.36l-.22.17c-.13.11-.28.21-.42.31l-.3.2a3.37,3.37,0,0,1-.32.19,1.87,1.87,0,0,0,.34,0,3.43,3.43,0,0,0,.34-.06,4,4,0,0,0,.49-.16l.05,0a3.48,3.48,0,0,0,.43-.22,5,5,0,0,1-.41.76l-.18.27c-.1.13-.2.26-.31.38a5.25,5.25,0,0,1-.4.42,6.55,6.55,0,0,1-.66.52,6.11,6.11,0,0,1-.65.38,3.66,3.66,0,0,0,.65-.17,3.15,3.15,0,0,0,.59-.27l.4-.28a5.26,5.26,0,0,1-.57.9,5.61,5.61,0,0,1-1.1,1.07l-.2.14-.24.15.21,0,.23-.08a2.71,2.71,0,0,0,.52-.24l.21-.12c-.1.18-.21.35-.32.51a5,5,0,0,1-.45.56,4.17,4.17,0,0,1-.36.37c-.16.14-.33.28-.51.41a5,5,0,0,1-.84.49l-.18.09h0l-.3.12h0l-.53.18c-.3.1-.6.2-.91.28a5.14,5.14,0,0,0,.88-.08,5.32,5.32,0,0,0,1.18-.34l.2-.09-.17.18a5.43,5.43,0,0,1-3.28,1.57h.09a5.4,5.4,0,0,0,1.51-.21,3.35,3.35,0,0,1-1.4,1.21l-.24,0h-.61l-.61,0a8.06,8.06,0,0,1-1.21-.22l-.59-.17-.58-.22h0l0,0a6,6,0,0,1-1.29.57,5.2,5.2,0,0,1-1.41.23,5.31,5.31,0,0,0,1.43-.15,5.84,5.84,0,0,0,1.32-.49l.54.21c.2.06.4.13.61.18a9.88,9.88,0,0,0,1.23.22l.62,0h.41a8.84,8.84,0,0,0,3.61-.76,3.26,3.26,0,0,1-.58,1.18,3.34,3.34,0,0,0,1.22-.94,14.32,14.32,0,0,1-3.24,5.11,14.49,14.49,0,0,1-4.18,2.94A13.81,13.81,0,0,1,55.33,55.81Z"/><path class="cls-6" d="M48.79,67.41v.87h-.73A2.07,2.07,0,0,1,48.79,67.41Z"/><path class="cls-6" d="M49.92,67v1.25H49v-1A2.13,2.13,0,0,1,49.92,67Z"/><path class="cls-6" d="M51.05,67.3v1h-1V67A2.06,2.06,0,0,1,51.05,67.3Z"/><path class="cls-6" d="M52,68.28h-.74v-.87A2.1,2.1,0,0,1,52,68.28Z"/><path class="cls-6" d="M52.15,69.18v3.14H47.86V69.18A2.15,2.15,0,0,1,48,68.5h.82V69H49v-.5h1V69h.17v-.5h1V69h.17v-.5h.83A2.15,2.15,0,0,1,52.15,69.18Z"/><path class="cls-2" d="M65.09,33.33l-.22.09c-.36.17-.72.35-1.06.55l-.47.27c-.24.15-.48.31-.73.49h0l-.17.13a12.58,12.58,0,0,0-1.63,1.37l-.14.13-.12.13-.1.1c-.13.13-.25.27-.38.41l-.36.43c-.06.06-.11.13-.16.19l-.21.28A11.45,11.45,0,0,0,58.55,39l-.22.36-.09.16h0a13.45,13.45,0,0,0-.8,1.67l-.19.46c-.14.31-.29.64-.46,1a.56.56,0,0,0,0,.08c-.15.28-.32.57-.5.86a14.75,14.75,0,0,1-1.43,1.9l-.08.08c-.28.32-.58.63-.89.92s-.34.32-.52.46-.38.27-.58.39a5.47,5.47,0,0,1-2.66.74,5.87,5.87,0,0,0,1.39-.16,5.09,5.09,0,0,0,1.31-.51,4.67,4.67,0,0,0,.6-.38c.19-.14.38-.29.55-.44.33-.3.66-.62,1-1a5.44,5.44,0,0,0,2.28.49,5.53,5.53,0,0,0,3.92-1.61l.27-.27L61,44.4a3.42,3.42,0,0,1-1.14.2,3.29,3.29,0,0,1-.94-.14H59A5.54,5.54,0,0,0,62.82,43l.28-.26-.37.12A3.84,3.84,0,0,1,62,43,3.06,3.06,0,0,1,61,42.92,5.33,5.33,0,0,0,63.3,41.3q.12-.13.24-.3l.31-.41-.43.29a1.5,1.5,0,0,1-.23.15,3,3,0,0,1-.63.28,3.21,3.21,0,0,1-1,.17h-.07a5.51,5.51,0,0,0,1.23-.85l.41-.41a5.59,5.59,0,0,0,1.2-2.17l.08-.26-.21.17a3.29,3.29,0,0,1-1.85.72h-.2l.16-.08A5.4,5.4,0,0,0,64,37.21c.08-.1.16-.19.23-.29a4.08,4.08,0,0,0,.28-.44l0,0h0v0a4.83,4.83,0,0,0,.39-.87l.14-.39-.28.31a3.51,3.51,0,0,1-.4.37l-.12.09-.1.07a2.74,2.74,0,0,1-.34.19,2.57,2.57,0,0,1-.6.23c.17-.13.34-.27.5-.42l.22-.23.22-.26a3.17,3.17,0,0,0,.21-.27,5.36,5.36,0,0,0,.76-1.51,2.12,2.12,0,0,0,.09-.31l0-.16Zm-.14.35a5.43,5.43,0,0,1-.74,1.46,2.94,2.94,0,0,1-.2.26,2.53,2.53,0,0,1-.22.26l-.21.21a5.33,5.33,0,0,1-.74.61h0l-.06,0-.32.21.37-.06.13,0h0a3.67,3.67,0,0,0,.92-.3l.35-.21.11-.07.12-.09.14-.12q-.1.24-.24.48h0v0c-.09.15-.18.29-.28.43a3,3,0,0,1-.22.28,5.34,5.34,0,0,1-1.63,1.36l-.26.13-.21.09-.31.13.33,0,.34,0h.24a3.43,3.43,0,0,0,1.73-.6A5.31,5.31,0,0,1,63,40.11a3.59,3.59,0,0,1-.39.39,5.3,5.3,0,0,1-1.48,1l-.29.12.31,0a2.75,2.75,0,0,0,.41,0,3.47,3.47,0,0,0,1.07-.16,3.61,3.61,0,0,0,.49-.21,4.71,4.71,0,0,1-.69.65,5.23,5.23,0,0,1-1.78.93l-.26.08.26.08a3.43,3.43,0,0,0,1.43.15c.12,0,.24,0,.36-.06a4.74,4.74,0,0,1-.79.53,5.37,5.37,0,0,1-3.25.62l-.5-.06.45.22a3.38,3.38,0,0,0,1.53.36,3.46,3.46,0,0,0,.84-.11,5.41,5.41,0,0,1-5.69.86,14.54,14.54,0,0,0,1.37-1.83,9.83,9.83,0,0,0,.51-.87l0-.09c.17-.32.32-.64.46-1l.2-.47a12.93,12.93,0,0,1,.78-1.64h0a1.4,1.4,0,0,1,.1-.16l.21-.36A13.18,13.18,0,0,1,59.46,38l.21-.27.16-.2c.27-.33.56-.65.86-1l0,0h0l0,0,0,0,.13-.13A17.28,17.28,0,0,1,62.52,35l.18-.12h0c.24-.18.49-.34.72-.48l.46-.28c.34-.19.69-.37,1-.53l0,0A.65.65,0,0,1,65,33.68Z"/><path class="cls-5" d="M70.48,74.34a31.81,31.81,0,0,1-41,0Z"/><path class="cls-4" d="M43.78,34.12a8.78,8.78,0,0,1-3.7,1.55.52.52,0,0,1-.1-.31.43.43,0,0,1,0-.19.54.54,0,0,1,.1-.16L40.2,35l0,0h0a5.37,5.37,0,0,0,1.92-1.62h.08l.15,0h.4a3.22,3.22,0,0,0,.88-.11c0,.1,0,.21,0,.31A2.27,2.27,0,0,0,43.78,34.12Z"/><path class="cls-4" d="M44,34.64a3.29,3.29,0,0,1-1,.9A3.34,3.34,0,0,1,41.3,36a3.31,3.31,0,0,1-.95-.14,8.78,8.78,0,0,0,3.45-1.66A2,2,0,0,0,44,34.64Z"/></svg>