<?xml version="1.0" encoding="UTF-8" standalone="no"?>
<!DOCTYPE svg PUBLIC "-//W3C//DTD SVG 1.1//EN" "http://www.w3.org/Graphics/SVG/1.1/DTD/svg11.dtd">
<svg xmlns="http://www.w3.org/2000/svg" version="1.1" viewBox="0 0 200 200" width="200.0pt" height="200.0pt">
<path d="M 0.00 0.00 L 200.00 0.00 L 200.00 200.00 L 0.00 200.00 L 0.00 0.00 Z" fill="#ffffff" />
<path d="M 87.50 3.87 C 106.20 1.56 125.37 4.37 142.34 12.65 C 160.93 21.57 176.53 36.64 186.12 54.89 C 201.09 82.93 200.99 117.92 185.90 145.90 C 177.34 161.93 164.24 175.45 148.47 184.48 C 123.22 199.10 91.55 201.34 64.47 190.52 C 45.15 182.95 28.56 168.97 17.62 151.37 C 1.97 126.47 -1.21 94.57 8.88 66.97 C 15.06 49.88 26.18 34.68 40.52 23.52 C 54.06 12.91 70.45 6.09 87.50 3.87 Z" fill="#2e4c8e" />
<path d="M 86.49 7.71 C 105.19 4.91 124.68 7.96 141.61 16.37 C 166.72 28.71 185.53 52.56 191.44 79.93 C 195.24 97.16 194.11 115.43 188.08 132.02 C 182.64 147.08 173.23 160.67 161.06 171.09 C 147.31 182.95 130.04 190.66 112.01 192.89 C 92.95 195.33 73.24 191.80 56.29 182.71 C 29.48 168.60 10.62 141.18 7.35 111.02 C 3.70 81.50 15.10 51.09 37.14 31.15 C 50.80 18.66 68.16 10.36 86.49 7.71 Z" fill="#ffffff" />
<path d="M 107.48 12.51 C 107.16 13.77 106.85 15.04 106.53 16.30 C 103.67 14.16 101.18 12.41 97.42 13.48 C 90.40 15.48 89.18 26.34 94.03 30.97 C 96.87 33.61 99.99 32.73 103.47 32.49 C 103.34 29.74 103.17 26.99 102.96 24.24 C 104.69 24.19 106.43 24.14 108.16 24.08 C 108.18 27.19 108.24 30.30 108.35 33.41 C 103.89 34.54 99.65 35.76 95.01 34.78 C 91.37 34.06 88.05 32.05 86.46 28.59 C 84.29 23.40 85.65 16.70 90.53 13.52 C 95.58 10.23 101.99 10.62 107.48 12.51 Z" fill="#304d8e" />
<path d="M 75.91 14.84 C 77.82 22.26 80.16 29.58 82.74 36.80 C 80.97 37.36 79.19 37.94 77.43 38.52 C 75.43 31.10 73.19 23.72 70.50 16.51 C 72.31 15.96 74.11 15.40 75.91 14.84 Z" fill="#304d8f" />
<path d="M 129.12 15.84 C 129.61 24.27 130.13 32.68 130.97 41.08 C 129.11 40.47 127.24 39.86 125.37 39.27 C 125.35 36.88 125.33 34.49 125.28 32.10 C 122.80 31.29 120.31 30.48 117.83 29.67 C 116.36 31.61 114.91 33.57 113.47 35.55 C 112.42 35.17 111.36 34.80 110.31 34.42 C 115.41 28.78 120.28 22.95 125.12 17.08 C 126.56 15.29 126.84 15.49 129.12 15.84 Z" fill="#2f4c8e" />
<path d="M 60.81 19.12 C 63.18 26.80 65.38 34.52 68.05 42.11 C 67.07 42.81 66.09 43.52 65.12 44.23 C 60.62 40.66 55.97 37.33 51.21 34.13 C 52.78 39.68 54.34 45.23 56.07 50.74 C 55.10 51.46 54.14 52.18 53.17 52.90 C 46.95 47.82 40.54 42.98 34.09 38.20 C 35.66 37.09 37.22 35.98 38.78 34.86 C 43.22 38.60 47.72 42.26 52.24 45.90 C 50.53 40.21 48.89 34.51 47.03 28.86 C 47.97 28.18 48.91 27.51 49.85 26.83 C 54.51 30.35 59.31 33.68 64.01 37.15 C 62.19 31.58 60.29 26.05 58.20 20.57 C 59.06 20.08 59.93 19.60 60.81 19.12 Z" fill="#314e8f" />
<path d="M 124.62 21.52 C 124.82 24.31 125.01 27.10 125.20 29.89 C 123.23 29.28 121.25 28.67 119.27 28.05 C 121.05 25.88 122.83 23.70 124.62 21.52 Z" fill="#ffffff" />
<path d="M 147.55 24.28 C 148.41 24.97 149.26 25.66 150.11 26.35 C 150.56 33.48 151.27 40.58 151.84 47.70 C 155.08 43.56 158.29 39.40 161.39 35.15 C 162.23 35.76 163.07 36.38 163.91 36.99 C 158.80 42.80 153.97 48.83 149.23 54.94 C 148.47 54.29 147.71 53.64 146.94 52.98 C 146.72 45.74 146.07 38.53 145.34 31.33 C 141.99 35.54 138.67 39.78 135.49 44.13 C 134.66 43.48 133.82 42.82 132.99 42.16 C 138.16 36.46 143.07 30.53 147.55 24.28 Z" fill="#314e8f" />
<path d="M 89.50 38.74 C 105.59 35.90 122.58 39.68 135.93 49.08 C 147.76 57.37 156.56 69.76 160.32 83.72 C 164.28 98.12 162.87 113.88 156.33 127.32 C 150.16 140.12 139.51 150.64 126.64 156.66 C 112.83 163.17 96.66 164.29 82.06 159.86 C 68.31 155.73 56.21 146.68 48.26 134.72 C 40.13 122.55 36.49 107.51 38.25 92.97 C 39.52 81.72 43.96 70.87 50.92 61.94 C 60.29 49.75 74.33 41.30 89.50 38.74 Z" fill="#314e8f" />
<path d="M 99.00 40.53 C 114.71 40.12 130.05 46.23 141.43 57.01 C 141.43 58.16 141.43 59.30 141.42 60.45 C 138.28 57.99 135.20 55.38 131.92 53.11 C 120.07 45.00 105.16 41.73 90.99 44.12 C 78.68 46.05 67.55 52.23 58.86 61.09 C 58.86 59.75 58.85 58.41 58.85 57.07 C 69.64 46.81 84.07 40.73 99.00 40.53 Z" fill="#dfdddb" />
<path d="M 90.99 44.12 C 105.16 41.73 120.07 45.00 131.92 53.11 C 135.20 55.38 138.28 57.99 141.42 60.45 C 141.44 86.87 141.45 113.29 141.42 139.71 C 138.34 142.19 135.30 144.80 132.06 147.07 C 123.26 153.16 112.70 156.56 102.00 156.88 C 88.59 157.36 75.01 152.83 64.62 144.34 C 62.66 142.77 60.77 141.12 58.87 139.49 C 58.86 113.36 58.88 87.22 58.86 61.09 C 67.55 52.23 78.68 46.05 90.99 44.12 Z" fill="#ffffff" />
<path d="M 99.96 48.75 C 105.70 48.88 109.72 52.62 113.55 56.43 C 114.32 56.59 115.08 56.76 115.85 56.92 C 117.24 58.08 118.66 59.20 120.10 60.29 C 120.38 61.28 120.65 62.26 120.93 63.25 C 123.18 63.22 125.60 62.94 127.81 63.43 C 129.27 63.74 130.07 65.73 130.91 66.81 C 131.91 67.22 132.91 67.63 133.90 68.04 C 134.15 69.98 134.41 71.93 134.60 73.89 C 133.54 74.33 132.48 74.78 131.42 75.23 C 131.15 79.72 127.01 83.30 123.63 85.76 C 120.61 87.87 117.83 87.05 114.52 86.33 C 111.57 85.55 108.69 85.90 105.69 86.15 L 105.43 86.17 L 105.13 86.20 C 103.82 86.34 102.51 86.47 101.20 86.60 C 100.22 86.08 99.22 85.58 98.22 85.09 L 97.11 84.95 C 96.13 84.91 95.14 84.89 94.17 84.89 C 93.04 84.94 91.89 85.20 90.80 85.48 C 86.18 85.14 81.55 85.56 76.95 85.19 C 74.95 84.90 72.62 84.46 71.86 82.31 C 70.49 78.34 69.78 74.16 68.36 70.19 C 69.84 69.65 71.34 69.23 72.85 68.79 C 72.97 67.10 72.56 65.08 73.67 63.72 C 75.31 62.71 77.57 62.66 79.43 62.26 C 79.68 60.97 79.77 59.54 80.29 58.31 C 81.76 56.24 85.06 55.76 87.34 55.07 C 91.09 51.89 94.94 49.33 99.96 48.75 Z" fill="#20613c" />
<path d="M 85.33 68.16 C 88.09 70.37 90.86 72.16 94.06 73.68 C 95.24 76.33 96.41 78.99 97.52 81.67 C 96.34 80.87 95.07 80.11 94.03 79.13 C 93.25 77.70 92.80 76.07 92.25 74.54 C 90.63 73.89 88.93 73.29 87.41 72.42 C 86.40 71.26 85.98 69.54 85.33 68.16 Z" fill="#2b442e" />
<path d="M 68.36 70.19 C 69.78 74.16 70.49 78.34 71.86 82.31 C 72.62 84.46 74.95 84.90 76.95 85.19 C 81.55 85.56 86.18 85.14 90.80 85.48 C 89.38 85.90 87.97 86.34 86.56 86.80 C 85.10 87.27 83.63 87.74 82.15 88.18 C 79.13 88.88 75.01 90.34 72.04 89.17 C 69.79 87.84 67.55 85.92 65.75 84.02 C 66.06 83.03 66.42 82.06 66.83 81.10 C 66.62 79.05 66.97 78.52 68.17 76.97 C 67.57 76.01 66.94 75.08 66.49 74.03 C 66.41 72.61 67.62 71.32 68.36 70.19 Z" fill="#2e3828" />
<path d="M 114.09 71.79 C 116.01 72.58 117.91 73.42 119.83 74.25 C 119.73 76.03 119.63 77.82 119.54 79.61 C 120.79 80.52 122.04 81.45 123.28 82.38 C 121.68 81.95 118.55 82.40 117.53 80.90 C 117.47 79.23 117.68 77.54 117.82 75.88 C 116.58 74.51 115.32 73.17 114.09 71.79 Z" fill="#2a452f" />
<path d="M 131.42 75.23 C 132.27 76.45 133.14 77.56 133.72 78.94 C 132.89 79.67 132.03 80.37 131.16 81.05 C 130.85 81.48 130.54 81.90 130.23 82.33 C 130.82 82.87 131.41 83.42 132.01 83.96 C 131.76 84.70 131.51 85.45 131.27 86.19 C 129.44 86.62 127.61 87.05 125.78 87.48 C 122.09 90.04 118.10 89.43 113.87 88.96 L 111.60 87.93 C 111.03 87.86 110.45 87.80 109.88 87.74 C 108.48 87.23 107.08 86.70 105.69 86.15 C 108.69 85.90 111.57 85.55 114.52 86.33 C 117.83 87.05 120.61 87.87 123.63 85.76 C 127.01 83.30 131.15 79.72 131.42 75.23 Z" fill="#2d3727" />
<path d="M 94.17 84.89 C 94.34 85.82 94.50 86.76 94.65 87.70 C 94.03 88.11 93.40 88.52 92.78 88.93 C 90.71 88.22 88.63 87.51 86.56 86.80 C 87.97 86.34 89.38 85.90 90.80 85.48 C 91.89 85.20 93.04 84.94 94.17 84.89 Z" fill="#b5b6a1" />
<path d="M 94.17 84.89 C 95.14 84.89 96.13 84.91 97.11 84.95 C 97.63 86.62 98.15 88.29 98.69 89.95 C 99.53 88.84 100.37 87.72 101.20 86.60 C 102.51 86.47 103.82 86.34 105.13 86.20 C 104.72 87.55 104.37 88.91 104.02 90.28 C 105.98 89.46 107.94 88.62 109.88 87.74 C 110.45 87.80 111.03 87.86 111.60 87.93 L 113.87 88.96 C 110.71 90.89 107.92 92.99 105.20 95.49 C 105.71 99.40 106.71 103.24 107.13 107.15 C 107.11 108.14 106.79 109.11 106.18 110.08 C 104.63 106.72 103.88 102.42 99.99 100.99 C 96.52 102.25 95.77 105.63 94.92 108.81 L 93.32 108.47 C 93.59 103.96 95.89 97.96 94.27 93.70 C 90.92 90.85 86.41 89.12 82.15 88.18 C 83.63 87.74 85.10 87.27 86.56 86.80 C 88.63 87.51 90.71 88.22 92.78 88.93 C 93.40 88.52 94.03 88.11 94.65 87.70 C 94.50 86.76 94.34 85.82 94.17 84.89 Z" fill="#987124" />
<path d="M 97.11 84.95 L 98.22 85.09 C 99.22 85.58 100.22 86.08 101.20 86.60 C 100.37 87.72 99.53 88.84 98.69 89.95 C 98.15 88.29 97.63 86.62 97.11 84.95 Z" fill="#d4cdc0" />
<path d="M 105.13 86.20 L 105.43 86.17 L 105.69 86.15 C 107.08 86.70 108.48 87.23 109.88 87.74 C 107.94 88.62 105.98 89.46 104.02 90.28 C 104.37 88.91 104.72 87.55 105.13 86.20 Z" fill="#bbb6a2" />
<path d="M 24.22 89.01 C 21.97 92.81 21.40 96.48 20.82 100.79 C 19.61 101.75 18.02 102.28 16.63 102.94 C 16.08 98.82 15.60 94.89 18.05 91.22 C 19.33 89.26 22.17 89.48 24.22 89.01 Z" fill="#ac9a59" />
<path d="M 25.82 89.50 C 30.51 92.40 31.99 94.81 33.69 100.17 C 30.91 96.99 27.56 95.19 24.05 93.04 C 24.55 91.82 25.17 90.66 25.82 89.50 Z" fill="#ac9a59" />
<path d="M 174.67 89.57 C 175.28 90.78 175.88 92.00 176.49 93.22 C 172.45 95.03 169.71 96.96 166.61 100.19 C 167.44 98.19 168.11 96.06 169.18 94.18 C 170.38 92.19 172.77 90.85 174.67 89.57 Z" fill="#ac9a59" />
<path d="M 176.16 88.99 C 177.98 89.54 180.91 89.25 182.04 90.98 C 184.89 94.75 184.37 98.83 183.41 103.17 C 182.12 102.36 180.65 101.66 179.52 100.63 C 178.89 97.86 178.79 95.09 177.84 92.37 C 177.29 91.24 176.73 90.11 176.16 88.99 Z" fill="#ac9a59" />
<path d="M 17.18 90.01 C 16.40 92.26 15.26 94.58 14.91 96.95 C 14.77 99.25 15.31 101.65 15.61 103.93 C 14.48 103.83 13.37 103.70 12.25 103.54 C 10.76 99.92 11.97 96.36 13.93 93.21 C 15.00 92.13 16.09 91.07 17.18 90.01 Z" fill="#aa9754" />
<path d="M 183.05 89.90 C 184.35 91.27 185.78 92.59 186.92 94.10 C 188.79 96.78 189.04 100.24 188.38 103.37 C 187.18 103.66 185.92 103.74 184.71 103.87 C 185.03 101.62 185.59 99.22 185.45 96.94 C 185.07 94.53 183.88 92.18 183.05 89.90 Z" fill="#a99651" />
<path d="M 23.46 95.13 C 26.75 95.41 29.94 97.54 31.77 100.24 C 32.96 101.90 32.07 104.57 31.99 106.47 C 28.96 103.42 25.95 100.98 22.10 99.00 C 22.51 97.69 22.96 96.40 23.46 95.13 Z" fill="#ac9a59" />
<path d="M 177.11 94.80 C 177.44 96.15 177.77 97.46 177.94 98.84 C 174.63 101.35 171.18 103.10 168.70 106.60 C 168.33 104.48 167.27 102.49 168.48 100.48 C 170.42 97.19 173.63 95.91 177.11 94.80 Z" fill="#ac9a59" />
<path d="M 23.00 101.18 C 24.33 102.07 25.63 103.01 26.92 103.97 C 23.79 106.11 20.92 108.07 17.00 108.26 C 15.29 107.97 13.76 106.60 12.29 105.71 C 16.53 105.00 19.49 103.55 23.00 101.18 Z" fill="#ac9a58" />
<path d="M 177.56 101.09 C 180.94 103.80 183.77 104.89 188.03 105.71 C 186.74 106.57 185.41 107.55 183.99 108.18 C 180.22 108.58 176.43 105.98 173.44 104.01 C 174.81 103.02 176.18 102.05 177.56 101.09 Z" fill="#ac9958" />
<path d="M 100.11 101.91 C 103.07 104.72 104.20 106.51 104.74 110.63 C 105.90 110.22 107.06 109.81 108.22 109.40 C 108.97 110.25 109.71 111.12 110.43 111.99 C 110.56 113.95 110.15 115.79 109.69 117.68 C 108.78 117.90 107.87 118.12 106.96 118.34 C 106.61 117.24 106.22 116.16 105.81 115.09 C 103.50 115.26 103.34 117.14 103.18 119.03 C 103.09 121.12 104.00 122.74 104.86 124.57 C 107.72 124.96 108.89 124.18 111.15 122.55 C 112.27 123.78 113.06 125.99 114.97 125.91 C 117.80 126.00 121.33 123.08 120.45 120.03 C 119.76 118.95 118.98 117.95 118.19 116.94 C 117.11 117.88 116.03 118.82 114.96 119.76 C 114.78 116.94 113.16 112.99 116.19 111.11 C 118.62 109.42 120.50 111.34 122.71 112.33 C 123.56 110.62 124.27 108.00 126.05 107.04 C 127.43 106.43 128.98 106.14 130.43 105.74 C 127.25 116.43 122.77 126.74 119.01 137.23 C 107.02 133.89 94.45 133.40 82.46 137.02 C 82.18 136.80 81.89 136.57 81.60 136.35 C 77.52 126.01 73.45 115.65 69.53 105.25 C 74.06 106.78 76.15 108.03 78.64 112.16 C 80.07 111.68 81.53 111.11 83.00 110.81 C 84.49 111.46 85.56 112.58 86.72 113.68 C 86.00 116.10 85.18 118.45 84.18 120.76 C 83.04 119.65 81.91 118.54 80.76 117.45 C 80.27 120.00 80.26 121.76 81.33 124.15 C 83.24 125.03 84.76 126.00 86.89 125.05 C 87.91 124.24 88.82 123.23 89.74 122.31 C 91.99 123.84 93.52 125.70 96.50 124.50 C 99.18 121.62 97.85 117.52 95.90 114.61 C 95.02 116.32 94.44 118.11 93.90 119.94 C 91.63 117.81 88.93 116.74 89.90 113.03 C 90.75 109.86 92.99 110.23 95.63 109.47 C 96.27 107.59 96.88 105.72 97.69 103.90 C 98.48 103.22 99.29 102.55 100.11 101.91 Z" fill="#ac9a59" />
<path d="M 28.07 104.84 C 28.85 105.62 29.61 106.42 30.34 107.24 C 28.66 108.74 27.12 110.24 24.84 110.75 C 22.25 111.40 19.15 110.42 16.57 109.94 C 21.06 109.02 24.34 107.39 28.07 104.84 Z" fill="#ab9957" />
<path d="M 172.24 104.71 C 176.06 107.57 179.12 108.89 183.86 109.92 C 181.38 110.38 178.58 111.28 176.07 110.88 C 173.67 110.48 171.84 108.75 169.94 107.37 C 170.71 106.48 171.47 105.60 172.24 104.71 Z" fill="#ac9a59" />
<path d="M 130.43 105.74 C 131.11 106.97 131.80 108.18 132.49 109.39 C 128.90 119.44 125.15 129.50 121.21 139.40 C 113.87 137.71 106.58 136.41 99.00 136.90 C 94.16 137.07 89.51 138.33 84.71 138.75 L 82.46 137.02 C 94.45 133.40 107.02 133.89 119.01 137.23 C 122.77 126.74 127.25 116.43 130.43 105.74 Z" fill="#dfdedd" />
<path d="M 110.43 111.99 C 111.40 113.35 113.18 115.18 113.00 116.93 C 112.55 118.64 110.89 120.04 109.81 121.41 L 108.88 118.51 C 107.94 118.65 107.00 118.78 106.05 118.92 C 105.66 120.80 105.26 122.68 104.86 124.57 C 104.00 122.74 103.09 121.12 103.18 119.03 C 103.34 117.14 103.50 115.26 105.81 115.09 C 106.22 116.16 106.61 117.24 106.96 118.34 C 107.87 118.12 108.78 117.90 109.69 117.68 C 110.15 115.79 110.56 113.95 110.43 111.99 Z" fill="#e0dfdf" />
<path d="M 86.72 113.68 C 87.35 114.76 87.93 115.86 88.39 117.02 C 88.38 118.81 87.48 120.61 86.92 122.30 C 85.79 121.83 84.66 121.35 83.53 120.88 C 82.80 121.97 82.06 123.06 81.33 124.15 C 80.26 121.76 80.27 120.00 80.76 117.45 C 81.91 118.54 83.04 119.65 84.18 120.76 C 85.18 118.45 86.00 116.10 86.72 113.68 Z" fill="#dcd8d1" />
<path d="M 58.87 139.49 C 60.77 141.12 62.66 142.77 64.62 144.34 C 75.01 152.83 88.59 157.36 102.00 156.88 C 112.70 156.56 123.26 153.16 132.06 147.07 C 135.30 144.80 138.34 142.19 141.42 139.71 C 141.43 140.91 141.43 142.12 141.44 143.32 C 130.55 153.62 116.04 159.75 101.00 159.79 C 85.42 160.13 70.01 154.03 58.84 143.17 C 58.85 141.94 58.86 140.72 58.87 139.49 Z" fill="#e4e2de" />
<path d="M 88.60 140.48 C 87.51 144.21 86.37 147.92 85.33 151.66 C 84.44 151.40 83.56 151.14 82.67 150.88 C 83.50 148.23 84.33 145.57 85.15 142.91 C 84.17 142.54 83.20 142.16 82.22 141.79 C 84.34 141.33 86.48 140.92 88.60 140.48 Z" fill="#baab75" />
<path d="M 115.33 141.80 C 116.72 144.42 113.97 147.67 112.97 149.96 C 114.38 149.49 115.78 149.03 117.19 148.56 C 117.38 149.25 117.56 149.95 117.75 150.64 C 115.24 151.29 112.73 151.95 110.22 152.62 C 111.41 150.26 113.13 147.64 113.37 144.98 C 113.55 143.51 111.94 142.22 111.20 141.04 C 110.47 142.42 109.75 143.80 109.02 145.18 C 108.78 144.41 108.55 143.64 108.33 142.87 C 110.44 140.95 112.80 139.65 115.33 141.80 Z" fill="#a6934d" />
<path d="M 98.20 144.76 C 98.81 147.21 97.99 150.37 96.11 152.09 C 94.53 153.62 92.19 152.94 90.22 153.01 C 91.48 152.68 92.75 152.37 94.02 152.07 C 94.62 151.09 95.21 150.11 95.80 149.12 C 94.58 148.91 93.38 148.67 92.18 148.39 C 90.53 147.70 90.25 145.43 91.06 143.98 C 92.46 141.10 97.42 141.67 98.20 144.76 Z" fill="#a7944e" />
<path d="M 107.42 143.67 C 106.98 144.80 106.53 145.93 106.08 147.05 C 106.87 148.12 107.65 149.19 108.43 150.26 C 107.31 151.38 106.15 153.13 104.60 153.60 C 103.12 153.76 101.56 153.42 100.09 153.24 C 100.38 152.43 100.66 151.62 100.94 150.82 C 101.82 151.52 102.70 152.22 103.58 152.92 C 104.19 151.74 104.74 150.55 105.25 149.32 C 104.24 148.86 103.23 148.41 102.22 147.97 C 103.96 146.14 103.91 145.38 103.78 142.85 C 102.32 143.69 100.87 144.54 99.42 145.40 C 99.82 144.50 100.29 143.65 100.83 142.85 C 103.41 141.03 105.06 142.53 107.42 143.67 Z" fill="#c1b484" />
<path d="M 94.01 142.64 C 97.12 142.96 96.73 147.28 94.09 148.18 C 92.82 146.21 93.19 144.68 94.01 142.64 Z" fill="#f1ede1" />
<path d="M 153.24 143.19 C 153.94 144.15 154.64 145.11 155.33 146.08 C 152.78 146.60 150.52 146.50 148.87 148.86 C 146.57 152.05 148.11 155.90 150.46 158.54 C 152.70 161.08 156.31 163.29 159.72 161.65 C 162.81 160.31 163.36 157.68 164.32 154.76 C 164.88 155.62 165.44 156.48 166.00 157.34 C 163.64 161.39 160.88 164.94 155.97 165.73 C 148.81 166.97 142.13 158.46 144.77 151.77 C 146.31 147.58 149.57 145.36 153.24 143.19 Z" fill="#2e4c8e" />
<path d="M 49.47 146.41 C 51.41 145.66 51.61 145.77 53.35 146.99 C 50.18 153.69 46.67 160.20 43.86 167.07 C 42.67 165.80 41.48 164.53 40.28 163.27 C 41.31 161.45 42.33 159.64 43.35 157.82 C 41.84 156.15 40.32 154.49 38.80 152.82 C 36.86 153.66 34.93 154.54 33.00 155.41 C 32.37 154.67 31.73 153.94 31.10 153.20 C 37.29 151.10 43.38 148.76 49.47 146.41 Z" fill="#304d8f" />
<path d="M 47.62 149.35 C 46.51 151.65 45.37 153.93 44.21 156.20 C 42.96 154.84 41.72 153.48 40.48 152.11 C 42.85 151.16 45.23 150.24 47.62 149.35 Z" fill="#d7dbe9" />
<path d="M 57.67 152.11 C 61.67 155.06 65.76 157.82 69.98 160.45 C 69.55 161.20 69.11 161.96 68.68 162.72 C 67.28 161.66 65.88 160.60 64.49 159.54 C 61.11 164.47 57.70 169.38 54.59 174.50 C 53.24 173.60 51.88 172.70 50.53 171.80 C 54.12 166.99 57.43 161.97 60.77 156.97 C 59.20 156.07 57.63 155.17 56.06 154.26 L 57.67 152.11 Z" fill="#314e8f" />
<path d="M 137.63 156.34 C 141.12 162.09 144.52 167.87 148.43 173.35 C 147.04 174.21 145.66 175.07 144.28 175.93 C 140.91 170.09 137.36 164.35 133.47 158.84 C 134.85 158.00 136.22 157.14 137.63 156.34 Z" fill="#314e8f" />
<path d="M 71.09 161.47 C 72.63 161.80 74.14 162.31 75.65 162.76 C 74.68 165.28 73.73 167.80 72.78 170.32 C 75.58 171.30 78.39 172.26 81.21 173.19 C 82.02 170.64 82.81 168.07 83.58 165.50 C 85.10 166.03 86.62 166.55 88.15 167.06 C 85.74 173.36 83.64 179.77 81.67 186.22 C 80.15 185.68 78.63 185.16 77.11 184.63 C 78.27 181.61 79.39 178.58 80.50 175.54 C 77.70 174.52 74.89 173.56 72.05 172.64 C 71.05 175.75 70.06 178.86 69.13 182.00 C 67.60 181.47 66.06 180.94 64.52 180.42 C 67.12 174.23 68.87 167.78 71.09 161.47 Z" fill="#2f4d8e" />
<path d="M 131.22 160.46 C 131.55 161.29 131.88 162.12 132.21 162.94 C 130.54 163.45 128.87 163.97 127.20 164.48 C 129.41 170.07 131.42 175.70 133.90 181.17 C 132.38 181.75 130.86 182.33 129.34 182.91 C 127.43 177.22 125.22 171.65 123.05 166.06 C 121.44 166.82 119.84 167.58 118.24 168.35 L 117.23 165.85 C 121.96 164.22 126.63 162.45 131.22 160.46 Z" fill="#304d8e" />
<path d="M 116.21 166.04 L 116.64 168.54 C 114.45 168.74 112.26 168.95 110.07 169.19 C 110.31 171.29 110.57 173.39 110.83 175.48 C 112.98 175.07 115.14 174.65 117.30 174.23 L 117.75 176.76 C 115.54 177.02 113.33 177.28 111.12 177.53 C 111.50 179.98 111.88 182.42 112.30 184.86 C 114.46 184.40 116.61 183.93 118.77 183.46 L 119.26 186.06 C 115.47 186.47 111.70 187.02 107.95 187.65 C 107.31 180.93 106.28 174.27 105.06 167.63 C 108.79 167.19 112.50 166.65 116.21 166.04 Z" fill="#2e4c8e" />
<path d="M 91.43 167.34 C 93.00 167.27 94.58 167.35 96.15 167.38 C 95.42 173.40 95.21 179.41 94.74 185.46 C 97.00 185.48 99.26 185.49 101.52 185.48 C 101.44 186.31 101.36 187.14 101.28 187.96 C 97.54 187.69 93.80 187.46 90.05 187.30 C 90.75 180.66 91.02 174.00 91.43 167.34 Z" fill="#2c4a8d" />
</svg>