<svg enable-background="new 0 0 170 200" height="342.896668" viewBox="0 0 170 200" width="291.633047" xmlns="http://www.w3.org/2000/svg"><path d="m146.5208282 81.1229782h.0001678l-2.8346558-11.3626328s8.6752014 6.7014694 19.0043793 15.5479965c.7456055.6385803 1.8639526-.0915833 1.5758057-1.0297928l-11.0599822-36.0110511 13.5895081-14.2276649-13.6066438-32.0398331c-20.7682342 9.4925909-43.8600463 14.7854862-68.1894073 14.7854862s-47.4211693-5.2928953-68.1893196-14.7854862l-13.606735 32.0398331 13.5895174 14.2276649-11.0599847 36.0110512c-.2881489.9382095.830194 1.6683731 1.5757966 1.0297928 10.3291797-8.8465271 19.0043773-15.5479965 19.0043773-15.5479965l-2.8346519 11.3626328h.0001698l-18.232121 11.7328185c-2.0279107 7.2221527-3.0571432 14.7036514-3.0571432 22.3732834 0 22.1087189 8.6136818 42.894577 24.2545757 58.527771 15.640552 15.6335297 36.4362178 24.2431488 58.5553508 24.2431488h.0003357c22.119133 0 42.9147949-8.6096191 58.5553589-24.2431488 15.6408844-15.633194 24.2545624-36.4190521 24.2545624-58.527771 0-7.669632-1.0292206-15.1511307-3.0571442-22.3732834z"/><path d="m162.211319 94.715538-.0015259-.0010147-18.2597961-11.7510529-5.0899506-20.4048653s5.8938141 3.539959 21.646637 17.6746483l-10.6385651-32.726059 13.4659576-14.0984154-11.6796875-27.5023445-.0005951-.0013504c-20.4193878 8.8885479-42.9603806 13.8190136-66.6538315 13.8190136-23.693512 0-46.2345009-4.9304667-66.6538849-13.8190136l-.0005913.0013504-11.6796054 27.5023446 13.4659481 14.0984154-10.6385546 32.726059c15.7528124-14.1346893 21.6466331-17.6746483 21.6466331-17.6746483l-5.0899506 20.4048653h-.000021l-18.2597827 11.7510528-.0015192.0010147c-1.7630482 6.6371765-2.6585836 13.4950256-2.6585836 20.5135422 0 21.323761 8.3077993 41.3716278 23.3933067 56.4500275 15.0855064 15.0783844 35.1427994 23.3822784 56.4766045 23.3822784 21.3338318 0 41.3911209-8.303894 56.4766312-23.3822784 15.0855103-15.0783997 23.3933105-35.1262665 23.3933105-56.4500275.000001-7.0185165-.8955374-13.8763657-2.6585836-20.5135422zm-7.1104279-22.555336c-6.8118134-7.0959549-16.2428741-13.125351-16.2428741-13.125351l8.7038269-9.1127892zm-17.7800598-15.771717-3.1125031-12.4786034c3.9828949-1.0201569 7.9303436-2.1631279 11.8301849-3.4286079 3.2738953-1.0626564 6.5471039-2.2225075 9.7875824-3.4677315zm-3.065918-.1451149c-6.0855865-3.4711075-13.5003815-6.7066803-20.3523712-8.4164276 7.2257309-1.0624886 12.0438995-1.9098511 17.4522247-3.2094116zm-120.0810537-19.2298279c3.2404699 1.245224 6.51369 2.4050751 9.7875853 3.4677315 3.8998413 1.26548 7.8472862 2.4084511 11.8301811 3.4286079l-3.1125107 12.4786034zm24.4713278 7.6039886c5.4083214 1.2995605 10.22649 2.1469231 17.4522171 3.2094116-6.8519821 1.7097473-14.2667809 4.9453201-20.3523674 8.4164276zm-23.7461214 27.5426712 7.5390406-22.2381401 8.7038269 9.1127892c-.0000001 0-9.4310589 6.029396-16.2428675 13.1253509zm14.1806669 10.8032685 5.6666241-22.7154503c8.6005173-5.251564 18.0096283-9.1343765 27.9721031-11.4874954l8.1768036-1.930954-8.3469658-.9587097c-12.7940865-1.4692993-25.4713554-4.2229843-37.6786575-8.1844215-4.8860264-1.5857353-9.7703657-3.3941917-14.5422783-5.3787842l9.576067-22.5487728c-.0027847-.0011816-.0049801-.0037136-.0077648-.005064 20.0534057 8.3152064 42.041542 12.9088763 65.1042976 12.9088763 23.0626984 0 45.0508347-4.5936699 65.104332-12.9088764-.0027924.0013504-.0049896.0038824-.0077667.005064l9.5760651 22.5487728c-4.7719116 1.9845924-9.65625 3.7930489-14.5422821 5.3787842-12.2073059 3.9614372-24.8845749 6.7151222-37.6786575 8.1844215l-8.346962.9587097 8.1768036 1.930954c9.962471 2.3531189 19.371582 6.2359314 27.9721069 11.4874954l5.6666412 22.7154503h-111.8405095zm.0101719-59.8936081-.2528782-.089426-.006752-.0246468c-.3153362-1.1331768-1.0290642-1.8820171-2.1810207-2.28965-.3575401-.126564-.7265568-.1910076-1.0969257-.1910076-1.6445446 0-3.1017094 1.2296944-3.8029442 3.2089024-.390625 1.1024971-.4179726 2.1540127-.0790024 3.0411911.3440342.9006844 1.041893 1.5594006 2.0179501 1.9049759.3200626.1133766.9716682.2932434 1.358242.2932434.0827179 0 .147541-.0081024.1934566-.0246258.0661736-.1117096.1880531-.4548988.2859631-.730608.3312054-.9351006.5911713-1.7683029.7967815-2.552887l.0162067-.0621014.055706.032074c.2089882.1211414.4456577.2341805.9804478.4231625.5337753.1889839.8697071.285162 1.1239338.3216038l.0817051.0118179-.0496311.0661297c-.1434879.1910095-.5766525 1.2857399-.9122467 2.2333107-.077652.2197056-.2609806.7954102-.382185 1.176054-.0600967.1889839-.1272831.3924618-.1272831.3924618l-.0368004-.0023632c-1.5962639-.1015606-2.8295879-.322258-3.881609-.6944828-1.5824223-.560194-2.7856979-1.4807777-3.4791679-2.662571-.6995468-1.1919022-.8150139-2.5397205-.3339062-3.8976688.8481007-2.3942699 2.6249905-3.7127361 5.0035191-3.7127361.8163643 0 1.6823578.1599674 2.5733356.4754944 1.2525673.4430828 2.1013432 1.0042706 3.0277691 2.0014706l.0280228.0300274-.0246468.0327492c-.432827.5777302-.6212196.8476982-.8754463 1.2567043zm121.6115112 3.712738c-.2373505-.61586.0948639-1.3647003.7113647-1.6015816.1458435-.0563622.2971039-.0847015.4493713-.0847015.506424 0 .969635.3198948 1.1529694.7960644.2454376.6374683-.0736084 1.3559227-.7113647 1.6015816-.1347198.0519733-.2778625.0782871-.4253998.0782871-.5138702 0-.9980163-.3246212-1.1769409-.78965zm-48.6141586 7.1990356c-.1907501-3.0627766-2.1911469-4.8911552-5.3509293-4.8911552-.168808 0-.3409958.0054035-.5155411.0162067-3.2526245.202486-5.4755096 2.5630169-5.2857666 5.6126461.1931152 3.0988808 2.1405029 4.8763008 5.3431625 4.8763008.1799469 0 .3639526-.0060768.5513306-.0175552 3.183754-.1980781 5.4437714-2.604187 5.2577439-5.5964432zm-5.4214859 4.6070061c-.0769806.0047264-.1522675.0070915-.2268829.0070915 0 0 0 0-.0003357 0-1.7914124 0-2.865036-1.3954048-3.0227051-3.9290466-.078331-1.2540016.1512527-2.4037247.6462021-3.2369251.5091248-.8571529 1.2556076-1.3400536 2.1584015-1.3960781.0695496-.0043888.1380844-.0064144.2059479-.0064144 1.7799301 0 3.0237198 1.4990101 3.1682205 3.8187084.1718444 2.7594261-.9777451 4.6211853-2.9288483 4.7426643zm-6.0926819-7.7008438.0172195.0678406-.0698853-.0070896c-.9041443-.0921288-1.8180847-.1471386-2.4447021-.1471386l-.0887985.0006752c-.0003357.045557-.0016861.1144104-.0033722.1964092-.0047302.2338638-.0118179.575367-.0084457.7849236l.0678635 4.1501026c.0128326.7785072.0867691 2.5775108.1775894 3.739048l.0043869.0580482-.0580673-.0057373c-.4790802-.0469093-.8737564-.053997-1.0662003-.053997l-.1201935.0010109c-.3166885.0054016-.7150803.0361061-1.1840363.0917892l-.0580673.0070915.0033798-.0587234c.0908127-1.5374565.0634689-3.1960754.0546875-3.7410774l-.0675201-4.1365967c-.0054016-.3266678-.0111389-.6641178-.0543594-.9944992-.4483566.0104656-1.3528366.0756054-2.605072.2304878l-.0648193.0081024.0104675-.0644646c.0405121-.2534256.0651627-.4194489.0614471-.631031-.0033798-.2112656-.0334244-.3766136-.0820465-.6286888l-.0118103-.0600758.0611038.001688c.6803055.0178738 1.3764725.026989 2.0682602.026989.7160873 0 1.2947693-.0094528 1.7056503-.0161858.6873932-.0111408 2.1175461-.033762 3.6837692-.1326199l.0631332-.0040512-.0118179.0620785c-.0546951.2838116-.0641479.4569263-.0614471.6297035.0037155.2240735.0286942.4174443.0817032.6259881zm-10.7248154-1.2664738.0989227-.0087776-1.542923 2.433073c-.5256729.8291512-1.1073914 1.7956314-1.8309097 3.0418663-.0070877.2348785-.025322.4525375-.0442276.6749229-.0195847.2294769-.0391617.4636803-.0543594.7512054-.0482788.9195671-.0830536 1.9201431-.0121536 3.0023842l.0040512.0603905-.0604324-.0087776c-.6637573-.1002083-1.0770035-.1289062-1.224205-.136673-.1050034-.0053787-.2511902-.0097694-.4453201-.0097694-.2059479 0-.4652405.0047264-.7863159.0178719l-.0570602.0023651.0064163-.0566978c.0280228-.2557907.0671844-.5449829.1093903-.853756.0833893-.6121674.1779251-1.3063126.2123642-1.9609985.0219421-.4191132.0300446-.8135986.0384827-1.2300339l.0016937-.0890884c-.4253998-.9327354-.9534378-2.0811272-1.5226669-3.2993641l-1.3076019-2.7782898.0891342.011795c.5840836.0786438 1.0206223.1258678 1.2978058.1403866.1016235.0054016.222496.00844.4021072.00844.2029114 0 .4804306-.0040512.8886185-.0131664l.0361252-.0010128.0114746.0344372c.1927795.582119 1.407196 3.5122757 1.9041748 4.4085693.3389664-.4275513 1.1043549-1.5570374 2.3849411-4.1855087l.0168839-.0344372.0374756.0081024c.3524704.0779476.5506592.1009064.6553192.106308.0249863.0013504.053009.0020256.0854187.0020256.1276166 0 .3146589-.0114784.6073758-.0377922zm-12.1610489-.8122692c-.3774567-.0381298-.8366241-.0651398-1.2805939-.0914536-.4402542-.0263348-.8956985-.0533218-1.2694473-.0904388-.4679413-.0469093-.7238541-.097868-1.1114426-.1751404l-.146862-.0293732-.0020294.0577126c-.0381508 1.1223946-.1316681 2.4833794-.2569275 3.7346802l-.2515259 2.5127106c-.0530052.5305061-.2643547 2.1995697-.488533 3.7124214l-.0081062.0556641.056385.0003395c.5374908.0050621 1.0206223.0293732 1.4767494.0745926.2474747.0249634.6188507.0792961 1.0118408.1370087.3946762.0576935.8031998.1177673 1.0759964.1447563.1887283.0189056.3750916.028698.5540314.028698 1.8204422 0 3.0054855-.98032 3.1695709-2.622757.1269455-1.2671471-.7589722-2.3483734-2.1759567-2.6922607 1.3403473-.1670341 2.2991867-1.0184479 2.4143143-2.1705322.1499024-1.4959699-.8072433-2.3905774-2.7674637-2.5866281zm.1387635 7.3127518c-.1077042 1.0731201-.7343216 1.766613-1.5966034 1.766613 0 0 0 0-.0003357 0-.0540237 0-.1090546-.0027008-.1644211-.0081024l-.1613846-.0151939c-.168808-.0144958-.3041992-.0266495-.5543747-.0806465.1046677-1.3957405.1583481-1.8975296.1975098-2.2646904l.0229568-.2213707.1495667-1.351532c.0837326.0074272.176239.013504.2687454.019558.1070251.0070915.2137146.014183.3038559.0232964 1.1762695.1599463 1.6637878.8375701 1.5344849 2.1320685zm.3656387-4.6751652c-.0995941.9928112-.7285843 1.6346493-1.6023407 1.6346493-.0577316 0-.1161423-.0030403-.1748886-.0087776l-.6019745-.0603943.1255951-1.397089c.0499649-.5004578.1316681-1.086628.1971664-1.5577126.0222855-.1606426.0428772-.307085.0590897-.4306126.0509796-.0023632.0999298-.003376.1472015-.003376.1927795 0 .3551712.0162067.4736786.0280228 1.0223084.1025944 1.4855271.7066365 1.3764725 1.79529zm62.4555283-7.6650772-.0178986-.0512962 1.3217926-.3253174c.3781281-.0917912.8322296-.2044926 1.334259-.345892 1.4261169-.4022522 2.3677368-.6927948 2.7978516-.863905l.059433-.0236111.0074158.0634289c.033432.2787476.046936.3772907.1083832.5949497.0202484.0718918.0965576.3283558.2302551.6047401l.0270081.0560017-.0607758.0131664c-1.0503235.2264385-2.8332977.6300411-3.1587677.7103519.189743.922966.5574188 2.2302704.7657318 2.9679699.8818512-.2625408 1.810318-.5605125 3.0912323-.9914627l.058075-.0192223.006073.06073c.0347748.3344326.0553741.4603004.1060181.6401672.0472717.167038.1043243.2824612.1546326.3840218.0287018.0577106.0546875.1103592.0756226.1646938l.0202637.0533028-.0557098.0121536c-1.0989532.2365665-2.096283.4569263-3.1577606.754221l.2626648.9307327c.2117004.7498302.743103 2.4705296 1.127655 3.5689735l.0192413.0550117-.0573883.0094299c-.5850983.0971947-1.0064392.2089043-1.1607361.2524338-.1856995.0523109-.5786743.1727791-1.1212311.3911133l-.0543671.0216064-.0118103-.0570374c-.2289124-1.0930405-.6279755-2.6544685-.9041443-3.6324253l-.6856995-2.4303951c-.3190614-1.1314884-.7826081-2.5991188-1.1273194-3.5686356zm9.5245819 2.8336601c-.5702362-1.6572666-.5192566-3.1950817.1468658-4.4470577.6468811-1.2151985 1.868042-2.1597519 3.5314941-2.7314053.6489105-.2230606 1.4885712-.3563576 2.2458496-.3563576.3062134 0 .57901.0215874.8112946.064127l.0422058.0077438-.0020294.0425205c-.0212708.4802208.0327454.9691982.1644287 1.4946194l.0108032.0435314-.2569275.0884132-.019928-.0128288c-.6262817-.398201-1.1816711-.583807-1.7475128-.583807-.3173676 0-.6418152.0583878-.9922638.178854-.8356171.2871876-1.4706726.9374638-1.7883759 1.83074-.3430176.9641151-.2984467 2.1293659.1279602 3.3695259.6421509 1.8661709 1.9298401 2.9804611 3.4454041 2.9804611.3636169 0 .7346649-.0641251 1.1019897-.1903324.8865967-.3047218 1.7509003-1.0683956 2.1020203-1.8570538l.0165405-.0367794.2954254.0661526-.0016937.0408306c-.0205994.4744606.0114746.8854904.0979156 1.2573795l.006073.0256367-.0178986.0189075c-.6269531.6678314-1.5061188 1.1989918-2.6135101 1.579319-.7393799.2544384-1.4686432.383009-2.1668396.383009-2.1411742.0000001-3.8380583-1.217224-4.5392912-3.2561492zm-1.8626404 4.3481789c-.1927795-.631052.1914215-1.3538952.8231049-1.5472679.1205292-.0367794.2444458-.055685.3680115-.055685.5361328 0 1.021637.361084 1.1799774.8784218.1998749.6533146-.1694794 1.3471432-.8231201 1.5472469-.110733.033741-.226532.0509586-.3440247.0509586-.5425568 0-1.0489807-.3674984-1.203949-.8736744zm-21.3540955-4.0910397-.0145187-.0695286.0698929.0111427c.0212708.0030384.0482788.0043888.0800171.0043888.1384201 0 .3727264-.0276642.5574036-.065794.2245178-.0465698.4287796-.1242008.6161575-.2011375l.025322-.0104656 7.4961624 5.4243412-.5060883-2.4337502c-.2424164-1.1645756-.885582-3.975975-.970993-4.1764164l-.0283661-.0658131.0719147-.0023632c.2863007-.0087585.4854965-.0276642.6458664-.0610676.2241821-.0465698.4287796-.1242027.6164932-.2011375l.0573959-.0236111.0094528.0614033c.5709152 3.6952019.9477005 5.6983604 1.3703995 7.7322445l.4534225 2.1803246-.0638123-.0037155c-.0405121-.0023613-.0793381-.003376-.1174927-.003376-.1492233 0-.2937317.0162048-.4676056.0523109-.2187729.0452194-.3808289.1009064-.5260086.1812172l-.0283585.0158691-.0256577-.0202599c-2.3012161-1.8027153-4.7729263-3.6189194-7.552887-5.5498695.0874481.5655746.2944031 1.5418644.4088593 2.0827942l.0624619.2952919c.5628128 2.708107.7407379 3.4889984 1.0027313 4.3981247l.0175552.0603905-.0631409.0020256c-.2937241.0091171-.4892044.0283623-.6738815.0668297-.1860352.0384674-.3805008.1015587-.631012.2041512l-.0611115.025322-.006073-.065815c-.0999374-1.0548897-.7292633-4.9323215-1.1624298-7.0168056-.0908203-.437006-.2322769-1.0177746-.3690186-1.579319-.1188351-.4886418-.2305905-.9479294-.2930524-1.2479268zm-15.0888824 2.1826878-.0340958-.0678177.0759583-.0030384c.5017014-.0199203.8437119-.0401573 1.2140808-.0897655.3892746-.052309.7417526-.1289082 1.1509476-.2274494l.0411911-.0101299 1.340683 3.3614445.3413315.828476c.4122314 1.0015678.8376389 2.0355492 1.1512833 2.7624435.5482941-2.5599785 1.394371-6.8102894 1.4777603-7.4892616l.0054016-.0448837.0452423.0020256c.0823746.0033779.1630707.0054035.2430878.0054035.1718445 0 .3278275-.0097923.4773941-.0296898.2123566-.0283604.428772-.0796566.7015686-.1663837l.046257-.0148335.0151901.0462322c.1215439.3705158.6148071 1.4419518 1.5078125 3.2760468.9223709 1.8958588 1.4234009 2.9517632 1.6934967 3.5723724.9892197-6.0418892 1.0975952-6.9176102 1.1357498-7.4312134l.0037155-.047245.0472641.0020256c.109726.0043888.2110138.0074062.3031845.0074062.1147919 0 .2157364-.0043678.3021698-.0161839.189743-.025322.3882599-.0745945.6435013-.1589565l.0803528-.0266514-.0168839.0830135c-.9088669 4.4389553-1.5098343 7.6350498-1.9487381 10.3634167l-.006752.0421791s-.1752243-.003376-.2349777-.003376c-.2869797 0-.4635544.0175362-.5435715.0283394-.1282959.0172195-.3011551.0408325-.7309418.1707497l-.0425415.0128326-.0168839-.0411682c-.9790955-2.3838272-2.1047211-4.6012688-3.1766586-6.6702423-.1279602.6053944-.2704315 1.2624435-.4162827 1.9346657-.4311447 1.989315-.8771362 4.0461349-1.0770111 5.3632507l-.0064163.0435333-.0438843-.0020256c-.0948715-.0040512-.1786041-.0057411-.2528763-.0057411-.2430878 0-.3805008.0182304-.4811096.0313797-.1333618.0182304-.3298569.0448799-.7319565.1707726l-.0432205.0138206-.0168762-.0421829c-.8960418-2.2532082-3.4994277-8.0976945-4.2229461-9.5335904zm-47.5479469-1.9967442h.0533447l-.0043907.0533237c-.6536293 7.4592152-.7198029 9.0878048-.7596436 10.0606976l-.0027008.0634308-.0604324-.0185471c-.4206734-.1282349-.7485008-.2247505-1.1340637-.3026962-.4318161-.0874023-.827507-.1316109-1.1907845-.1667213l-.0506439-.0047264.3362694-2.4864006c.0793419-.8726616.1566582-1.5884323.2302589-2.2670498.0678596-.6263256.1323471-1.2209358.1914291-1.8783016l-2.3937225 3.1586189c-.7079849.9378014-1.3784981 1.8381462-2.0125465 2.7023888l-.0216103.0293503-.0344353-.0121536c-.0938606-.033741-.1883926-.067482-.2576027-.0813217-.0516586-.0104675-.1046638-.0124931-.1532822-.0148582-.0459137-.0020027-.0884552-.0043678-.12323-.0114555l-.0303841-.0060768-.9878769-3.9739285-.7890167-3.0341225c-.569561 1.6458111-1.0321007 3.3233128-1.4794464 4.9468403-.1188431.4312668-.2373466.8601913-.3565254 1.2853813l-.0148544.0523109-.0503082-.0199204c-.274147-.1072998-.4611855-.1663628-.6465378-.2038155-.2191162-.0442085-.4135857-.0563622-.6749039-.0627785l-.0702247-.001686.0259972-.0654564c1.2191429-3.0614491 2.3150558-6.0854206 3.4487839-9.5174065l.0165405-.0499249.0489578.020237c.1752243.0732212.3642883.1464634.5601082.1862812.1468658.0296898.3183746.0425186.573616.0428562h.038826l.0087776.0374546c.7042732 2.9372673 1.3049011 5.2829418 1.8876305 7.3701477l.0992584-.123867c1.2748528-1.5904388 2.4791412-3.0924873 4.5298386-5.9301777l.0229607-.0313988.0357857.0148563c.2339706.0978661.4152718.156929.5884705.1920204.1995352.0404931.3656424.0482579.6023139.0485955zm-17.3320275-3.6951999c-.296093-.2841282-.9517479-.5726662-2.0044441-.8821163-.5472832-.1609592-.9679565-.2601776-1.3393364-.347578-.2660446-.0627766-.4973145-.1174507-.7150803-.1812172-.4267502-.1255322-.9915867-.3229542-1.1090775-.3995514l-.0594215-.0391426-.0151939.0695057c-.20257.9378014-.5736141 2.3595161-.9449959 3.6222973l-.7133904 2.4229679c-.2680683.9101372-.7684212 2.4658241-1.1678238 3.5571785l-.0199203.0543156.0567207.0108032c.7282448.1386986.9368935.2001228 1.1580334.264904.2376842.0698662.4426193.129921 1.1171818.4039402l.0536823.021946.0128288-.0563622c.1769142-.7771778.4773941-2.0328693 1.043581-3.9567299l.1336975-.4545612.0509796.0148544 1.191124 5.1648388.0310593.0060768c.5823936.1154022 1.0449333.2318382 1.2839661.3023605.189743.0556831.5570717.1768265 1.2296104.4370041l.0925064.0361061-1.1313591-3.8541374c-.0516586-.1849098-.1090546-.4177628-.1782646-.6988716-.0749512-.3050613-.1640816-.6664829-.2748222-1.08494.0442276.0010128.08778.001688.1309967.001688 1.4304924 0 2.386631-.679987 2.7654381-1.9663792.2785377-.9462414.0371399-1.8232937-.6782761-2.4692001zm-1.6334038 2.1071033c-.2984543 1.0127316-.8673439 1.5263348-1.6911354 1.5263348-.2353172 0-.4962997-.0415058-.7751732-.1235065-.0351105-.0104656-.1276207-.048933-.21101-.0857124.3960266-1.3457928.7400589-2.5134068 1.1293373-3.6881123 1.3329201.396513 1.591198.6924782 1.689785 1.2411728.0516549.2544612.0040513.6344299-.1418037 1.1298236zm7.2480126-.8736744c-.3541603 1.110239-.8477592 2.8728027-1.0314255 3.5983257l-.6205444 2.4479504c-.1907539.7515202-.5898209 2.5056438-.8069115 3.6546879l-.0108032.0563622-.0540199-.0192451c-.6965065-.2510605-.9071808-.3043861-1.1303482-.3607445-.2258682-.057354-.4368782-.1106796-1.168499-.221714l-.0573959-.0084381.0182304-.0553284c.4888725-1.4575043.8967171-3.065836 1.0307503-3.5939579l.6212196-2.4513054c.2890053-1.1386013.5378304-2.2660599.807251-3.6553841l.0108032-.055666.0536804.0188866c.6489029.2301502.9362183.3118114 1.1316986.361084.2937317.0745716.6644363.1447754 1.1671524.2213726l.0567207.00844zm19.5201416 4.1426525.0249825.0266705-.0185699.0317154c-.1900787.3243046-.3831978.7447681-.588131 1.1902142l-.0898094.1947231-.2852859-.0411701-.0070915-.0334034c-.1792755-.8406296-.6907692-1.3275814-1.520298-1.4470348-.0840683-.0121555-.1671219-.0182323-.2484894-.0182323-.7093391 0-1.2883568.4434204-1.3761368 1.054575-.1104012.764349.4031181 1.272213 1.3275185 1.8907948 1.1529694.7532101 1.7677765 1.3066311 2.0547523 1.8502827.2805634.5308189.377121 1.1166534.2869759 1.7419662-.2447739 1.6994514-1.6347504 2.7978935-3.5412903 2.7978935-.2559128 0-.5212822-.0195808-.7896919-.0580482-.9470215-.136673-1.8103142-.506176-2.2529335-.9647903l-.0232925-.0243073.0141792-.030365c.3666534-.7859344.6029854-1.4929314.67659-1.7568245l.0114784-.0415039.3548355.0509567.0030403.0391426c.0793419 1.0073318.6894188 1.6437645 1.7178078 1.7915764.1239052.0178947.2454491.0270119.3609123.0270119.8150139 0 1.366684-.4518623 1.475399-1.2087822.1016235-.7032814-.2420731-1.2175636-1.2677612-1.8968735-1.5145607-.9877472-2.5672569-1.8226166-2.3153954-3.5737.2356606-1.6346684 1.4750595-2.6905746 3.1577568-2.6905746.1927795 0 .390625.0141602.588131.0425205.9909132.1427496 1.7333372.4879645 2.2698172 1.0555666z" fill="#fff"/><path d="m49.0993309 85.902092v97.3723221c3.3066864 1.7482147 6.7333527 3.247879 10.2573166 4.4897461v-101.8620682z"/><path d="m10.3526974 96.5600967-.0062456-.0045547c-1.5125351 6.0537033-2.2763987 12.2951965-2.2763987 18.6735382 0 13.7061157 3.5682783 26.8625183 10.2572975 38.4166565v-62.2175674z"/><path d="m28.584671 85.902092v81.597908c.6594124.709671 1.3288479 1.4124451 2.0177612 2.1010284 2.5992661 2.5980988 5.3541985 4.9832764 8.2395782 7.1553345v-90.8542709z"/><path d="m161.9299469 115.2290802c0-6.3783417-.7638702-12.6198349-2.2763977-18.6735382l-.0062408.0045547-7.9747162-5.1320953v62.2179031c6.6890411-11.554306 10.2573547-24.7107086 10.2573547-38.4168243z"/><path d="m115.7719879 145.9320679-5.1287308-2.2824097v44.114502c3.5239868-1.2418671 6.9506531-2.7415314 10.2573395-4.4897461v-39.6247559z"/><path d="m131.1579437 139.0849915v37.6713715c2.885376-2.1720581 5.6403503-4.5572357 8.2395935-7.1553345.6889191-.6885834 1.3583221-1.3913574 2.0177002-2.1010284v-32.9798279z"/><path d="m69.6139908 85.902092v104.6889725c3.3626862.6786194 6.7878342 1.132843 10.2573166 1.3596191v-106.0485916z"/><path d="m90.1286087 85.902092v45.4014816l25.6433716 11.4117432 25.6432876-11.4117432v-45.4014816z"/><path d="m90.1286163 134.5201721v57.4305115c3.4695053-.2267761 6.8946533-.6808167 10.2573471-1.3596191v-51.506073z"/><g fill="#f61416"><path d="m135.1271667 94.5601196-1.4706726-1.6420822c-1.1013184.9857178-2.2485504 1.8778-3.4173889 2.6578369-5.0112762-3.0177383-10.7129974-4.6093674-16.5359116-4.6093674-5.7726212 0-11.4564438 1.5734024-16.4373398 4.5501404-.4831314.2887039-.7717972.7984314-.7717972 1.3633423-.0003357.5649109.2883301 1.0748138.7717972 1.3641815 4.9812393 2.9765701 10.665062 4.5499802 16.4373398 4.5499802 5.8229141 0 11.5246353-1.591629 16.5359116-4.6093674 1.1688385.7798691 2.3157349 1.6717758 3.4173889 2.6576691l1.4706726-1.6420822c-.9375763-.8392639-1.907547-1.6157608-2.89711-2.3200455.9895631-.7044449 1.9595338-1.4811096 2.89711-2.3202057zm-21.423973 6.0300751c-5.0220947 0-9.9732819-1.2798157-14.3859634-3.7098694 4.4126816-2.4302216 9.363533-3.7098694 14.3859634-3.7098694 5.0328903 0 9.969223 1.277626 14.3856125 3.7098694-4.4163895 2.432251-9.3527222 3.7098694-14.3856125 3.7098694zm19.9533004 22.5140076c-1.1016541.9858932-2.2485504 1.8778-3.4173889 2.6576691-5.0112762-3.0177383-10.7129974-4.609375-16.5359116-4.609375-5.7722778 0-11.4561005 1.57341-16.4376755 4.5503159-.4831314.2890396-.7717972.7989426-.7714615 1.3638458 0 .5649109.2886658 1.0746384.7717972 1.3633499 4.980896 2.9767303 10.6647186 4.5501404 16.4373398 4.5501404 5.8229141 0 11.524971-1.591629 16.5359116-4.609375 1.1688385.7800446 2.3160706 1.6721191 3.4173889 2.6578369l1.4706726-1.6420746c-.9375763-.8390961-1.907547-1.6157608-2.89711-2.3202133.989563-.704277 1.9595337-1.4807739 2.89711-2.3200378zm-19.9533004 7.671997c-5.0224304 0-9.9732819-1.2796478-14.3859634-3.709877 4.4130249-2.4302216 9.3638687-3.7098694 14.3859634-3.7098694 5.0328903 0 9.969223 1.277626 14.3856125 3.7098694-4.4163895 2.4322434-9.3527222 3.709877-14.3856125 3.709877zm19.9533004-22.7650833c-1.1013184.9857254-2.2485504 1.8778-3.4173889 2.6578445-5.0112762-3.017746-10.7129974-4.609375-16.5359116-4.609375-5.7726212 0-11.4564438 1.57341-16.4373398 4.550148-.4834671.2888641-.7717972.7985992-.7717972 1.363678 0 .5649033.2883301 1.0746384.7717972 1.3635101 4.980896 2.976738 10.6647186 4.5501404 16.4373398 4.5501404 5.8229141 0 11.5246353-1.591629 16.5359116-4.6091995 1.1688385.7798691 2.3157349 1.6717758 3.4173889 2.6576691l1.4706726-1.6420822c-.9375763-.8392639-1.907547-1.6157608-2.89711-2.3200378.989563-.7044525 1.9595337-1.4811172 2.89711-2.3202133zm-19.9533004 7.6719971c-5.0224304 0-9.9729385-1.2796478-14.3859634-3.7098694 4.4130249-2.4300537 9.363533-3.7097015 14.3859634-3.7097015 5.0328903 0 9.969223 1.277626 14.3856125 3.7098694-4.4163895 2.4320755-9.3527222 3.7097015-14.3856125 3.7097015z"/><path d="m133.1352081 71.0851593c-5.7000351.502739-11.1140976.879837-16.2607651 1.1538544v-9.6811066h-17.5913238v4.1444473h-5.1287766v6.11306c-3.0422821-.0143051-5.9508743-.0673752-8.7277985-.1535492l-10.4145431-9.8379974v-3.6971855c1.5334702.1242447 5.2766571.5948868 9.7771225 2.3557396 6.1517639 2.4068871 10.8412933 2.4977074 11.0377884 2.5004082l.7451248.010128-.0006714-11.2690582-.7238617-.0111427c-.045578-.0006752-4.6361847-.0962219-10.5229187-2.3994598-6.1517639-2.4068871-10.8409576-2.4977074-11.0374527-2.5004082l-.7451248-.010128v13.6324997l-9.6795464-9.1436806-17.4216651 16.0562667c-5.136879-1.1422958-7.6421814-2.0630035-7.7242241-2.0941925l-2.4203949-.924057 7.4850235 17.633873h2.3955765l-5.8939896-13.8854599c3.2303429.9536057 9.8534203 2.6172256 20.3533821 3.9542007 13.8477936 1.7630463 37.3055878 3.2416534 70.8649597.4073334l-4.0426636 9.5239258h2.3955841l5.1103668-12.0395203zm-58.1232071-21.7585525c1.5331345.1242409 5.2759781.5947151 9.7771225 2.3557358 4.8239059 1.8872948 8.7483902 2.3505058 10.3129196 2.4639473v8.3228226c-1.5334702-.1242409-5.2763138-.5947151-9.7774582-2.3557358-4.8239059-1.8872948-8.7480545-2.3506775-10.3125839-2.4639473zm-13.100811 12.4025726-1.8273659-.1920624-.2302551 2.1928368 1.8270264.1920433-.7245293 6.8932114c-4.7359581-.6022873-8.6810379-1.2718735-11.867321-1.9091721l13.3624687-12.3150215zm1.9625817 2.4233475 1.8273621.1920624.2302551-2.1928368-1.8270264-.1920433.6126099-5.8281326 8.8250351 8.336647v7.5871735c-3.7880859-.2743225-7.2524033-.6068954-10.3966484-.9731674zm11.1382293 8.0051651v-6.3008194l7.0763321 6.6847153c-2.4713745-.1035691-4.8276138-.2335282-7.0763321-.3838959zm39.6571122.1933288c-6.5560684.3156357-12.6549911.4591599-18.3094406.4678116v-3.9114838h5.1287766v-4.1444473h13.1806641v7.5881195zm-36.9902573-20.9888039h.8450623v4.8362923h-1.1144791v-3.2268181h-1.1143112v-.8161926c.8156891-.0213356 1.1728897-.2544174 1.383728-.7932816zm5.6902389 3.413353c.3128052-.2694397.517067-.6482925.517067-1.0267639 0-.7359886-.7213287-1.2965851-1.8575821-1.2965851-1.1360931 0-1.8646774.5605965-1.8646774 1.3036957 0 .4081001.189743.7573242.5246658 1.0196533-.5099792.3132706-.6629181.6992531-.6629181 1.1583099 0 .9832954.8668365 1.5221367 2.0029297 1.5221367 1.1291656 0 1.9958344-.5388412 1.9958344-1.5221367 0-.4515647-.1674576-.8450393-.6553193-1.1583099zm-1.3405151-1.4277496c.4299545 0 .757782.1750145.757782.5029068 0 .335022-.3278275.5317497-.757782.5317497-.4297943 0-.7572861-.1967278-.7572861-.5317497 0-.3278923.3274918-.5029068.7572861-.5029068zm0 3.2122154c-.5096359 0-.859581-.2619286-.859581-.6625137 0-.4080963.3499451-.6411819.859581-.6411819.5025406 0 .85215.2330856.85215.6411819 0 .393074-.3496094.6625137-.85215.6625137zm5.6897278-1.4491463h-2.5054703v-.9832954h3.67836v.9832954c-1.3768158 1.1579094-1.9740601 1.988327-2.0103531 3.8529739h-1.1946716c0-1.806198.8450622-2.9573974 2.032135-3.8529739zm1.7279358 3.6663781c0 .9832954.8668365 1.5221558 2.0029297 1.5221558 1.1291656 0 1.9958344-.5388603 1.9958344-1.5221558 0-.4515457-.1674576-.8450203-.6553192-1.1583099.3128052-.2694206.517067-.6482697.517067-1.026741 0-.7359886-.7213287-1.2965851-1.8575821-1.2965851-1.1360931 0-1.8646774.5605965-1.8646774 1.3036957 0 .4080963.189743.7573242.5246658 1.0196304-.5099794.3132896-.6629182.699253-.6629182 1.1583099zm2.0029297-2.5860367c.4299545 0 .757782.1750107.757782.502903 0 .3350029-.3278275.5317497-.757782.5317497-.4297943 0-.7572861-.1967468-.7572861-.5317497 0-.3278923.3274918-.502903.7572861-.502903zm0 1.9085197c.5025406 0 .85215.2330818.85215.6411819 0 .3930702-.3496094.6625137-.85215.6625137-.5096359 0-.859581-.2619286-.859581-.6625137 0-.4081001.349945-.6411819.859581-.6411819z"/></g></svg>