<?xml version="1.0" encoding="UTF-8" standalone="no"?>
<!-- Created with Inkscape (http://www.inkscape.org/) -->

<svg
   xmlns:dc="http://purl.org/dc/elements/1.1/"
   xmlns:cc="http://creativecommons.org/ns#"
   xmlns:rdf="http://www.w3.org/1999/02/22-rdf-syntax-ns#"
   xmlns:svg="http://www.w3.org/2000/svg"
   xmlns="http://www.w3.org/2000/svg"
   xmlns:sodipodi="http://sodipodi.sourceforge.net/DTD/sodipodi-0.dtd"
   xmlns:inkscape="http://www.inkscape.org/namespaces/inkscape"
   id="svg2"
   version="1.1"
   inkscape:version="0.91 r13725"
   xml:space="preserve"
   width="295"
   height="338"
   viewBox="0 0 610 700"
   sodipodi:docname="Logo Oxford United 2018.svg"><metadata
     id="metadata8"><rdf:RDF><cc:Work
         rdf:about=""><dc:format>image/svg+xml</dc:format><dc:type
           rdf:resource="http://purl.org/dc/dcmitype/StillImage" /><dc:title></dc:title></cc:Work></rdf:RDF></metadata><defs
     id="defs6" /><sodipodi:namedview
     pagecolor="#ffffff"
     bordercolor="#666666"
     borderopacity="1"
     objecttolerance="10"
     gridtolerance="10"
     guidetolerance="10"
     inkscape:pageopacity="0"
     inkscape:pageshadow="2"
     inkscape:window-width="1440"
     inkscape:window-height="788"
     id="namedview4"
     showgrid="false"
     inkscape:zoom="0.77680356"
     inkscape:cx="304.70946"
     inkscape:cy="395.4381"
     inkscape:window-x="0"
     inkscape:window-y="1"
     inkscape:window-maximized="1"
     inkscape:current-layer="g10" /><g
     id="g10"
     inkscape:groupmode="layer"
     inkscape:label="Logo Oxford United"
     transform="matrix(1.25,0,0,-1.25,0,700.00003)"><g
       id="g5158"
       transform="matrix(0.99999703,0,0,0.99999371,0.00138808,0)"><g
         id="g5066"><path
           style="fill:#ffffff;fill-opacity:1;fill-rule:nonzero;stroke:none"
           d="m 468.39619,560.00348 -448.793773,0 c -10.8073145,0 -19.60380508,-8.79832 -19.60380508,-19.60789 l 0,-195.04915 c 0,-0.15897 0.00691005,-4.04323 0.38696266,-10.73355 C 1.4842722,315.36439 6.3074854,264.95199 27.410771,212.67348 l 0.718645,-1.8039 0.02764,-0.0553 0.02073,-0.0622 c 7.718523,-18.78543 16.971077,-36.31297 27.501989,-52.0919 l 0.03455,-0.0553 0.04146,-0.0553 1.105608,-1.61729 c 1.195438,-1.77625 2.280315,-3.37971 3.468844,-5.05229 7.144989,-10.00093 14.884242,-19.9673 23.003548,-29.63647 l 0.03455,-0.0346 0.02764,-0.0415 0.670275,-0.781 c 8.471718,-10.02857 17.44096,-19.81524 26.66587,-29.090457 l 0.70483,-0.718795 0.0346,-0.04147 0.0345,-0.03456 c 8.48554,-8.494221 17.48242,-16.857124 26.73497,-24.846806 l 0.71865,-0.615122 c 8.47863,-7.298533 17.24057,-14.33443 26.05779,-20.934903 l 0.0207,-0.02073 0.8983,-0.670415 0.0622,-0.04838 0.12438,-0.08985 0.007,-0.0069 0.29022,-0.214256 c 8.82413,-6.552092 17.86247,-12.800079 26.83171,-18.550438 l 0.57354,-0.380132 0.0346,-0.02073 0.0345,-0.02073 c 9.16963,-5.854032 18.31162,-11.22426 27.18412,-15.9655415 l 0.49062,-0.2626366 c 8.3197,-4.4233534 13.58515,-6.7801714 14.55947,-7.2017722 l 0.0207,-0.013823 0.0415,-0.020735 c 2.48071,-1.0712809 5.10652,-1.6172885847 7.80835,-1.6172885847 2.69492,0 5.31383,0.5460076847 7.78763,1.6172885847 0.66336,0.2833711 5.59022,2.4466674 14.06885,6.9253127 l 0.49753,0.2695481 c 8.7343,4.6376105 17.82792,9.9594575 27.01828,15.7996655 l 0.0415,0.02073 0.0415,0.02765 0.63573,0.414689 c 8.8725,5.66051 17.86247,11.860117 26.72806,18.41912 l 0.72556,0.539096 c 9.03143,6.704146 18.0214,13.878272 26.72806,21.335769 l 0.0207,0.02074 0.0276,0.02073 0.71174,0.622034 c 9.26637,7.955125 18.25634,16.276558 26.69351,24.687841 l 0.0415,0.04147 0.0484,0.04838 0.67028,0.691149 c 9.17654,9.185368 18.14578,18.930568 26.66587,28.979878 l 0.69791,0.80864 0.0346,0.0346 0.0276,0.0415 c 8.45099,10.00784 16.4321,20.26449 23.74293,30.5004 0.78083,1.09202 1.5133,2.17712 2.22503,3.22076 l 0.076,0.11058 1.55476,2.28079 0.0138,0.0207 0.0138,0.0276 c 10.51019,15.56468 19.75583,32.82958 27.48126,51.30399 l 0.73247,1.73478 0.0138,0.0415 0.0138,0.0415 c 18.87825,45.91303 25.04892,90.66492 27.04593,113.25167 0.31095,3.52486 0.55971,6.88385 0.74628,9.97328 0.42842,7.13957 0.42842,11.3072 0.42842,11.47999 l 0,195.04224 c 0,10.80957 -8.78958,19.60789 -19.6038,19.60789"
           id="path4498"
           inkscape:connector-curvature="0" /><path
           style="fill:#001f59;fill-opacity:1;fill-rule:nonzero;stroke:none"
           d="m 19.603125,548.52971 c -4.491531,0 -8.140625,-3.64192 -8.140625,-8.13438 l 0,-195.04844 c 0,-0.15205 0.01412,-3.788 0.373438,-10.08437 1.064148,-18.68867 5.755876,-67.62922 26.223437,-118.325 l 0.725,-1.825 c 7.435211,-18.09428 16.31494,-34.9297 26.43125,-50.07968 l 1.132813,-1.65938 c 1.091787,-1.6173 2.183279,-3.23403 3.323437,-4.8375 6.958418,-9.73829 14.497853,-19.45602 22.437501,-28.91094 l 0.69844,-0.80938 c 8.278234,-9.81431 17.060514,-19.39216 26.078124,-28.45312 l 0.73906,-0.754684 c 8.28514,-8.300704 17.06099,-16.454984 26.10625,-24.27188 l 0.69844,-0.60156 c 8.49245,-7.305448 17.27497,-14.342136 26.09218,-20.92188 0.007,-0.0069 0.22113,-0.164968 0.22813,-0.171872 l 0.49062,-0.359376 c 8.65137,-6.427688 17.4332,-12.503976 26.22969,-18.143744 l 0.59531,-0.385944 c 8.92088,-5.695064 17.73126,-10.879576 26.4172,-15.517184 l 0.49687,-0.268752 c 8.52008,-4.527024 13.57082,-6.732024 13.77813,-6.821872 1.0365,-0.449248 2.13658,-0.678128 3.24218,-0.678128 1.0987,0 2.19698,0.227976 3.22656,0.670312 0.2004,0.08985 4.94749,2.149608 13.26719,6.545312 l 0.48281,0.256256 c 8.48554,4.5132 17.30306,9.669648 26.25157,15.357808 l 0.66405,0.428128 c 8.65828,5.529192 17.44107,11.583672 26.10626,17.990624 l 0.71874,0.539064 c 8.81723,6.538264 17.59217,13.546536 26.09844,20.831248 l 0.71251,0.615624 c 9.07981,7.803072 17.85475,15.922864 26.09843,24.140624 l 0.7125,0.72656 c 8.96924,8.978036 17.75176,18.522766 26.09219,28.357816 l 0.71875,0.84218 c 8.24369,9.75212 16.03758,19.77384 23.16875,29.76095 0.73938,1.02289 1.43735,2.06795 2.14219,3.10469 l 1.575,2.3078 c 10.08867,14.94264 18.97639,31.53772 26.40468,49.31407 l 0.73907,1.75469 c 18.29089,44.49616 24.2817,87.95601 26.22344,109.9 0.32477,3.65617 0.55916,6.91082 0.725,9.65468 0.40069,6.7318 0.40781,10.62319 0.40781,10.78907 l 0,195.04218 c 0,4.49246 -3.64753,8.13438 -8.13907,8.13438 l -448.793745,0 z"
           id="path5064"
           inkscape:connector-curvature="0" /><path
           style="fill:#fff200;fill-opacity:1;fill-rule:nonzero;stroke:none"
           d="m 27.739062,532.25627 432.520318,0 0,-186.89375 c 0,-0.0346 -0.007,-3.63544 -0.37344,-9.82812 -0.15893,-2.61255 -0.38659,-5.71572 -0.69063,-9.1922 -1.8588,-21.02474 -7.59546,-62.63093 -25.06406,-105.12968 l -0.69687,-1.65937 C 426.41377,202.7444 418.0393,187.10379 408.56562,173.07346 l -1.57656,-2.31562 c -0.6288,-0.92615 -1.2498,-1.85176 -1.90624,-2.76407 -6.88242,-9.64153 -14.4088,-19.3044 -22.34844,-28.71093 l -0.70469,-0.82969 c -8.06403,-9.50331 -16.54171,-18.71581 -25.2,-27.38282 l -0.69844,-0.71249 c -7.95347,-7.92748 -16.43115,-15.771172 -25.2,-23.304692 L 330.225,86.445332 C 322.01586,79.409436 313.53145,72.635396 304.99062,66.290644 L 304.32656,65.80002 C 295.9585,59.607324 287.48748,53.767604 279.1125,48.42502 l -0.67032,-0.428128 C 269.90829,42.564468 261.45754,37.62174 253.37969,33.329708 l -0.72656,-0.387504 c -3.68307,-1.94904 -6.62002,-3.392664 -8.65157,-4.367184 -2.16976,1.03672 -5.36116,2.619936 -9.38281,4.762504 l -0.69219,0.365624 c -8.09166,4.326592 -16.53563,9.295328 -25.15938,14.796872 l -0.4,0.256248 c -0.0207,0.01382 -0.21458,0.14556 -0.24218,0.159376 -8.35425,5.36332 -16.83343,11.224256 -25.15313,17.403128 l -0.725,0.539064 c -8.52009,6.351656 -16.99892,13.159232 -25.22187,20.229688 l -0.68438,0.587496 c -8.72048,7.53352 -17.20598,15.42017 -25.2078,23.4375 l -0.69064,0.70468 c -8.72738,8.77068 -17.20531,18.02525 -25.21405,27.50782 l -0.68438,0.79375 c -7.64943,9.10934 -14.91847,18.48138 -21.628126,27.86719 -1.057232,1.48596 -2.067032,2.98615 -3.082811,4.48593 l -1.1125,1.63126 c -9.487495,14.21693 -17.861545,30.1003 -24.889063,47.20625 l -0.684375,1.71406 C 33.58453,271.48682 29.09925,318.31219 28.076562,336.1922 c -0.331692,5.78492 -0.3375,9.16407 -0.3375,9.16407 l 0,186.9 z"
           id="path174"
           inkscape:connector-curvature="0" /></g><g
         id="g4882"><path
           style="fill:#001f59;fill-opacity:1;fill-rule:nonzero;stroke:none"
           d="m 468.00359,540.39275 -0.70482,0 0,0 0,-214.76763 c 0.31786,3.56633 0.54589,6.74561 0.70482,9.42036 l 0,205.34727 z"
           id="path4752"
           inkscape:connector-curvature="0" /><path
           style="fill:#001f59;fill-opacity:1;fill-rule:nonzero;stroke:none"
           d="m 440.94385,540.39275 0,0 0,-323.98299 c 0.23494,0.56674 0.47679,1.13348 0.70482,1.69331 l 0,322.28968 0,0 -0.70482,0 z"
           id="path4750"
           inkscape:connector-curvature="0" /><path
           style="fill:#001f59;fill-opacity:1;fill-rule:nonzero;stroke:none"
           d="m 415.29375,540.39275 0,0 -0.70482,0 0,0 0,-34.82009 c 0.23494,-0.13131 0.46988,-0.26954 0.70482,-0.40086 l 0,35.22095 z"
           id="path4748"
           inkscape:connector-curvature="0" /><path
           style="fill:#001f59;fill-opacity:1;fill-rule:nonzero;stroke:none"
           d="m 414.58893,167.46259 c 0.23494,0.34557 0.46988,0.69115 0.70482,1.03672 l 0,84.92148 c -0.23494,-0.35249 -0.46988,-0.71189 -0.70482,-1.06437 l 0,-84.89383 z"
           id="path4746"
           inkscape:connector-curvature="0" /><path
           style="fill:#001f59;fill-opacity:1;fill-rule:nonzero;stroke:none"
           d="m 414.58893,423.75445 c 0.23494,-0.36631 0.46988,-0.72571 0.70482,-1.10584 l 0,17.6243 c -0.23494,-0.12441 -0.46988,-0.24881 -0.70482,-0.36631 l 0,-16.15215 z"
           id="path4744"
           inkscape:connector-curvature="0" /><path
           style="fill:#001f59;fill-opacity:1;fill-rule:nonzero;stroke:none"
           d="m 388.93883,365.11046 0,70.29676 -0.71174,0 0,-71.62377 c 0.24186,0.43543 0.48371,0.87776 0.71174,1.32701"
           id="path4742"
           inkscape:connector-curvature="0" /><path
           style="fill:#001f59;fill-opacity:1;fill-rule:nonzero;stroke:none"
           d="m 388.22709,133.18851 c 0.24186,0.27646 0.4768,0.55292 0.71174,0.82938 l 0,90.51978 c -0.23494,-0.18661 -0.46988,-0.37322 -0.71174,-0.55983 l 0,-90.78933 z"
           id="path4740"
           inkscape:connector-curvature="0" /><path
           style="fill:#001f59;fill-opacity:1;fill-rule:nonzero;stroke:none"
           d="m 388.93883,540.39275 0,0 -0.71174,0 0,0 0,-30.32071 0.71174,0 0,30.32071 z"
           id="path4738"
           inkscape:connector-curvature="0" /><path
           style="fill:#001f59;fill-opacity:1;fill-rule:nonzero;stroke:none"
           d="m 361.87227,104.59575 c 0.23494,0.23499 0.46989,0.4838 0.71174,0.71879 l 0,103.56176 c -0.23494,-0.0968 -0.4768,-0.17278 -0.71174,-0.26954 l 0,-104.01101 z"
           id="path4736"
           inkscape:connector-curvature="0" /><path
           style="fill:#001f59;fill-opacity:1;fill-rule:nonzero;stroke:none"
           d="m 362.24541,473.51033 c -0.11747,-0.18661 -0.24185,-0.37322 -0.37314,-0.55983 l 0,-7.4022 c 0.12438,-0.24882 0.24876,-0.49072 0.37314,-0.74644 l 0,8.70847 z"
           id="path4734"
           inkscape:connector-curvature="0" /><path
           style="fill:#001f59;fill-opacity:1;fill-rule:nonzero;stroke:none"
           d="m 362.24541,503.17445 c 0,0.70497 0.13821,1.36847 0.3386,2.01124 l 0,35.20713 0,0 -0.71174,0 0,0 0,-41.81451 c 0.13129,-0.20044 0.25567,-0.40087 0.37314,-0.6013 l 0,5.19744 z"
           id="path4732"
           inkscape:connector-curvature="0" /><path
           style="fill:#001f59;fill-opacity:1;fill-rule:nonzero;stroke:none"
           d="m 362.58401,333.96736 0,101.43993 -0.71174,0 0,-102.06197 c 0.23494,0.20735 0.46989,0.41469 0.71174,0.62204"
           id="path4730"
           inkscape:connector-curvature="0" /><path
           style="fill:#001f59;fill-opacity:1;fill-rule:nonzero;stroke:none"
           d="m 335.51735,314.49769 c 0.24185,0.13132 0.46297,0.23499 0.70483,0.37322 l 0,64.09024 c -0.23495,-0.0898 -0.46298,-0.19352 -0.70483,-0.27646 l 0,-64.187 z"
           id="path4726"
           inkscape:connector-curvature="0" /><path
           style="fill:#001f59;fill-opacity:1;fill-rule:nonzero;stroke:none"
           d="m 335.51735,426.11134 c 0.24185,-0.0899 0.46988,-0.19352 0.70483,-0.29029 l 0,28.30255 c -0.24877,0.55292 -0.48371,1.03673 -0.70483,1.48597 l 0,-29.49823 z"
           id="path4724"
           inkscape:connector-curvature="0" /><path
           style="fill:#001f59;fill-opacity:1;fill-rule:nonzero;stroke:none"
           d="m 335.51735,80.260392 c 0.23494,0.200433 0.46988,0.407778 0.70483,0.608211 l 0,81.168537 c -0.23495,-0.36631 -0.46989,-0.73953 -0.70483,-1.10584 l 0,-80.670908 z"
           id="path4722"
           inkscape:connector-curvature="0" /><path
           style="fill:#001f59;fill-opacity:1;fill-rule:nonzero;stroke:none"
           d="m 336.22218,540.39282 0,0 -0.70483,0 0,0 0,-30.32071 0.70483,0 0,30.32071 z"
           id="path4720"
           inkscape:connector-curvature="0" /><path
           style="fill:#001f59;fill-opacity:1;fill-rule:nonzero;stroke:none"
           d="m 309.86725,540.39282 0,0 -0.70482,0 0,0 0,-32.3043 c 0.22112,0.21425 0.46297,0.40086 0.70482,0.58747 l 0,31.71683 z"
           id="path4718"
           inkscape:connector-curvature="0" /><path
           style="fill:#001f59;fill-opacity:1;fill-rule:nonzero;stroke:none"
           d="m 309.86725,427.85994 0,8.95038 c -0.24185,0.1797 -0.4837,0.36631 -0.70482,0.58057 l 0,-9.55168 c 0.0829,0 0.15893,0.0207 0.24185,0.0207 l 0.46297,0 z"
           id="path4716"
           inkscape:connector-curvature="0" /><path
           style="fill:#001f59;fill-opacity:1;fill-rule:nonzero;stroke:none"
           d="m 309.16243,59.263287 c 0.23494,0.172787 0.46988,0.345574 0.70482,0.518361 l 0,27.452437 c -0.22112,-0.311017 -0.46297,-0.615122 -0.70482,-0.919228 l 0,-27.05157 z"
           id="path4714"
           inkscape:connector-curvature="0" /><path
           style="fill:#001f59;fill-opacity:1;fill-rule:nonzero;stroke:none"
           d="m 309.16243,376.89462 0,-67.59437 c 0.0276,-0.007 0.0553,-0.007 0.0829,-0.0138 l 0.6219,-0.1175 0,67.69804 -0.46297,0 c -0.0829,0 -0.15893,0.0276 -0.24185,0.0276"
           id="path4712"
           inkscape:connector-curvature="0" /><path
           style="fill:#001f59;fill-opacity:1;fill-rule:nonzero;stroke:none"
           d="m 283.51231,540.39279 0,0 -0.70482,0 0,0 0,-30.66628 c 0.23494,-0.0553 0.46988,-0.10367 0.70482,-0.15897 l 0,30.82525 z"
           id="path4710"
           inkscape:connector-curvature="0" /><path
           style="fill:#001f59;fill-opacity:1;fill-rule:nonzero;stroke:none"
           d="m 282.80751,41.127538 c 0.23494,0.145141 0.46988,0.304105 0.70482,0.456158 l 0,31.170818 c -0.23494,-0.03456 -0.46988,-0.0622 -0.70482,-0.09676 l 0,-31.530216 z"
           id="path4708"
           inkscape:connector-curvature="0" /><path
           style="fill:#001f59;fill-opacity:1;fill-rule:nonzero;stroke:none"
           d="m 283.51233,313.65449 0,63.21248 -0.70482,0 0,-63.10881 c 0.23494,-0.0415 0.46988,-0.0691 0.70482,-0.10367"
           id="path4706"
           inkscape:connector-curvature="0" /><path
           style="fill:#001f59;fill-opacity:1;fill-rule:nonzero;stroke:none"
           d="m 283.51233,476.26802 c -0.17275,0.77408 -0.40769,1.49288 -0.70482,2.16329 l 0,-11.39704 c 0.29713,0.67041 0.53207,1.38921 0.70482,2.15638 l 0,7.07737 z"
           id="path4704"
           inkscape:connector-curvature="0" /><path
           style="fill:#001f59;fill-opacity:1;fill-rule:nonzero;stroke:none"
           d="m 282.80751,435.76669 0,-7.90675 0.70482,0 0,8.07262 c -0.23494,-0.0553 -0.46988,-0.11058 -0.70482,-0.16587"
           id="path4702"
           inkscape:connector-curvature="0" /><path
           style="fill:#001f59;fill-opacity:1;fill-rule:nonzero;stroke:none"
           d="m 256.45259,25.749473 c 0.22112,0.117495 0.47679,0.255725 0.70482,0.380132 l 0,43.832668 -0.70482,-0.07603 0,-44.136773 z"
           id="path4700"
           inkscape:connector-curvature="0" /><path
           style="fill:#001f59;fill-opacity:1;fill-rule:nonzero;stroke:none"
           d="m 256.45259,427.85994 0.70482,0 0,9.42036 c -0.23494,0.0899 -0.47679,0.16588 -0.70482,0.26264 l 0,-9.683 z"
           id="path4698"
           inkscape:connector-curvature="0" /><path
           style="fill:#001f59;fill-opacity:1;fill-rule:nonzero;stroke:none"
           d="m 257.15741,316.91671 0,59.95026 -0.70482,0 0,-59.88806 c 0.23494,-0.0207 0.46988,-0.0415 0.70482,-0.0622"
           id="path4696"
           inkscape:connector-curvature="0" /><path
           style="fill:#001f59;fill-opacity:1;fill-rule:nonzero;stroke:none"
           d="m 257.15741,540.39282 0,0 -0.70482,0 0,0 0,-32.44945 c 0.22803,0.0898 0.46988,0.15897 0.70482,0.24882 l 0,32.20063 z"
           id="path4694"
           inkscape:connector-curvature="0" /><path
           style="fill:#001f59;fill-opacity:1;fill-rule:nonzero;stroke:none"
           d="m 230.09766,427.85994 0.70483,0 0,32.51165 -0.70483,0 0,-32.51165 z"
           id="path4692"
           inkscape:connector-curvature="0" /><path
           style="fill:#001f59;fill-opacity:1;fill-rule:nonzero;stroke:none"
           d="m 230.09766,26.52356 c 0.23495,-0.124407 0.4768,-0.255725 0.70483,-0.373221 l 0,43.742819 c -0.23494,0.02073 -0.46988,0.04838 -0.70483,0.06911 l 0,-43.438713 z"
           id="path4690"
           inkscape:connector-curvature="0" /><path
           style="fill:#001f59;fill-opacity:1;fill-rule:nonzero;stroke:none"
           d="m 230.80249,317.04112 0,59.82585 -0.70483,0 0,-59.88114 c 0.22804,0.0207 0.46298,0.0415 0.70483,0.0553"
           id="path4688"
           inkscape:connector-curvature="0" /><path
           style="fill:#001f59;fill-opacity:1;fill-rule:nonzero;stroke:none"
           d="m 230.80249,540.39283 0,0 -0.70483,0 0,0 0,-30.32071 0.70483,0 0,30.32071 z"
           id="path4686"
           inkscape:connector-curvature="0" /><path
           style="fill:#001f59;fill-opacity:1;fill-rule:nonzero;stroke:none"
           d="m 204.44757,435.4073 -0.71174,0 0,-13.27006 c 0.12438,0.72571 0.37315,1.40303 0.71174,2.03198 l 0,11.23808 z"
           id="path4684"
           inkscape:connector-curvature="0" /><path
           style="fill:#001f59;fill-opacity:1;fill-rule:nonzero;stroke:none"
           d="m 204.44757,540.39283 0,0 -0.70483,0 -0.007,0 0,-30.32071 0.71174,0 0,30.32071 z"
           id="path4682"
           inkscape:connector-curvature="0" /><path
           style="fill:#001f59;fill-opacity:1;fill-rule:nonzero;stroke:none"
           d="m 203.73583,42.060589 c 0.23494,-0.145142 0.4768,-0.304106 0.71174,-0.456159 l 0,31.08097 c -0.23494,0.03456 -0.4768,0.06911 -0.71174,0.103672 l 0,-30.728483 z"
           id="path4680"
           inkscape:connector-curvature="0" /><path
           style="fill:#001f59;fill-opacity:1;fill-rule:nonzero;stroke:none"
           d="m 203.73583,313.65449 c 0.24185,0.0346 0.46989,0.0691 0.71174,0.10367 l 0,68.20949 -0.71174,0.86394 0,-69.1771 z"
           id="path4678"
           inkscape:connector-curvature="0" /><path
           style="fill:#001f59;fill-opacity:1;fill-rule:nonzero;stroke:none"
           d="m 178.08574,435.40729 -0.70483,0 0,-7.56117 c 0.24185,-0.007 0.47679,-0.0415 0.70483,-0.0691 l 0,7.63028 z"
           id="path4676"
           inkscape:connector-curvature="0" /><path
           style="fill:#001f59;fill-opacity:1;fill-rule:nonzero;stroke:none"
           d="m 178.08574,540.39282 0,0 -0.70483,0 0,0 0,-30.32071 0.70483,0 0,30.32071 z"
           id="path4674"
           inkscape:connector-curvature="0" /><path
           style="fill:#001f59;fill-opacity:1;fill-rule:nonzero;stroke:none"
           d="m 177.38091,466.89604 0.70483,-0.88467 0,16.0623 -0.70483,-0.91232 0,-14.26531 z"
           id="path4672"
           inkscape:connector-curvature="0" /><path
           style="fill:#001f59;fill-opacity:1;fill-rule:nonzero;stroke:none"
           d="m 177.38091,309.07908 c 0.23494,0.0415 0.46988,0.0899 0.70483,0.13823 l 0,70.42808 c -0.2695,0.3594 -0.50444,0.74644 -0.70483,1.16113 l 0,-71.72744 z"
           id="path4670"
           inkscape:connector-curvature="0" /><path
           style="fill:#001f59;fill-opacity:1;fill-rule:nonzero;stroke:none"
           d="m 177.38091,60.341479 c 0.23494,-0.179699 0.46988,-0.352486 0.70483,-0.525273 l 0,26.312041 c -0.23495,0.297194 -0.4768,0.587477 -0.70483,0.898494 l 0,-26.685262 z"
           id="path4668"
           inkscape:connector-curvature="0" /><path
           style="fill:#001f59;fill-opacity:1;fill-rule:nonzero;stroke:none"
           d="m 151.02599,314.42166 c 0.23494,-0.13132 0.46988,-0.26263 0.71173,-0.38704 l 0,63.25395 c -0.24876,0.0622 -0.46988,0.13823 -0.71173,0.20735 l 0,-63.07426 z"
           id="path4666"
           inkscape:connector-curvature="0" /><path
           style="fill:#001f59;fill-opacity:1;fill-rule:nonzero;stroke:none"
           d="m 151.73772,448.40089 -0.71173,-0.92614 0,-19.64245 c 0.24185,-0.0138 0.47679,-0.0415 0.71173,-0.076 l 0,20.64462 z"
           id="path4664"
           inkscape:connector-curvature="0" /><path
           style="fill:#001f59;fill-opacity:1;fill-rule:nonzero;stroke:none"
           d="m 151.02599,81.518283 c 0.23494,-0.207344 0.46988,-0.407778 0.71173,-0.615122 l 0,79.703299 c -0.24185,0.3594 -0.47679,0.71188 -0.71173,1.07819 l 0,-80.166367 z"
           id="path4662"
           inkscape:connector-curvature="0" /><path
           style="fill:#001f59;fill-opacity:1;fill-rule:nonzero;stroke:none"
           d="m 151.73772,540.39282 -0.007,0 -0.70482,0 0,0 0,-40.23869 0.71173,-0.91923 0,41.15792 z"
           id="path4660"
           inkscape:connector-curvature="0" /><path
           style="fill:#001f59;fill-opacity:1;fill-rule:nonzero;stroke:none"
           d="m 125.37589,540.39282 0,0 -0.70482,0 0,0 0,-30.32071 0.70482,0 0,30.32071 z"
           id="path4658"
           inkscape:connector-curvature="0" /><path
           style="fill:#001f59;fill-opacity:1;fill-rule:nonzero;stroke:none"
           d="m 125.37589,332.7302 0,102.67709 -0.70482,0 0,-102.07579 c 0.23494,-0.20735 0.46988,-0.40087 0.70482,-0.6013"
           id="path4656"
           inkscape:connector-curvature="0" /><path
           style="fill:#001f59;fill-opacity:1;fill-rule:nonzero;stroke:none"
           d="m 124.67107,106.07481 c 0.23494,-0.23499 0.46988,-0.48381 0.70482,-0.7188 l 0,102.8637 c -0.23494,0.0968 -0.46988,0.20044 -0.70482,0.2972 l 0,-102.4421 z"
           id="path4654"
           inkscape:connector-curvature="0" /><path
           style="fill:#001f59;fill-opacity:1;fill-rule:nonzero;stroke:none"
           d="m 99.020972,481.97691 c -0.234942,0.19352 -0.456064,0.40778 -0.704825,0.58056 l 0,-19.66318 c 0.248761,0.17278 0.469883,0.38704 0.704825,0.58747 l 0,18.49515 z"
           id="path4652"
           inkscape:connector-curvature="0" /><path
           style="fill:#001f59;fill-opacity:1;fill-rule:nonzero;stroke:none"
           d="m 98.316147,364.07381 c 0.228031,-0.43543 0.469883,-0.86394 0.704825,-1.29245 l 0,72.45314 c -0.234942,-0.0415 -0.469884,-0.0622 -0.704825,-0.0968 l 0,-71.06393 z"
           id="path4650"
           inkscape:connector-curvature="0" /><path
           style="fill:#001f59;fill-opacity:1;fill-rule:nonzero;stroke:none"
           d="m 99.020972,540.39282 0,0 -0.704825,0 0,0 0,-30.04425 c 0.234941,-0.0345 0.469883,-0.0553 0.704825,-0.0968 l 0,30.14101 z"
           id="path4648"
           inkscape:connector-curvature="0" /><path
           style="fill:#001f59;fill-opacity:1;fill-rule:nonzero;stroke:none"
           d="m 98.316147,134.88881 c 0.234941,-0.28337 0.469883,-0.54601 0.704825,-0.82938 l 0,89.34483 c -0.234942,0.17969 -0.476794,0.34557 -0.704825,0.53218 l 0,-89.04763 z"
           id="path4646"
           inkscape:connector-curvature="0" /><path
           style="fill:#001f59;fill-opacity:1;fill-rule:nonzero;stroke:none"
           d="m 71.961225,423.11175 c 0.234942,0.3594 0.462973,0.72571 0.704825,1.07819 l 0,14.56251 c -0.234942,0.11059 -0.476793,0.20735 -0.704825,0.32484 l 0,-15.96554 z"
           id="path4644"
           inkscape:connector-curvature="0" /><path
           style="fill:#001f59;fill-opacity:1;fill-rule:nonzero;stroke:none"
           d="m 71.961225,169.58449 c 0.228032,-0.34558 0.469883,-0.68424 0.704825,-1.02982 l 0,83.00699 c -0.234942,0.35249 -0.476793,0.69806 -0.704825,1.04364 l 0,-83.02081 z"
           id="path4642"
           inkscape:connector-curvature="0" /><path
           style="fill:#001f59;fill-opacity:1;fill-rule:nonzero;stroke:none"
           d="m 72.66605,540.39282 0,0 -0.704825,0 0,0 0,-33.99762 c 0.228032,0.1175 0.469883,0.20735 0.704825,0.32484 l 0,33.67278 z"
           id="path4640"
           inkscape:connector-curvature="0" /><path
           style="fill:#001f59;fill-opacity:1;fill-rule:nonzero;stroke:none"
           d="m 19.603794,540.39282 0,-195.04224 c 0,0 0,-3.48339 0.352413,-9.62079 l 0,204.66303 0,0 -0.352413,0 z"
           id="path4638"
           inkscape:connector-curvature="0" /><path
           style="fill:#001f59;fill-opacity:1;fill-rule:nonzero;stroke:none"
           d="m 45.606304,540.39282 0,0 0,-320.41666 c 0.234941,-0.58748 0.462973,-1.18187 0.704824,-1.76934 l 0,322.186 0,0 -0.704824,0 z"
           id="path182"
           inkscape:connector-curvature="0" /></g><g
         id="g4855"><g
           id="g4828"><path
             id="path4770"
             d="m 238.61084,218.46945 -0.0415,9.26831 c 0,0.37322 -0.0207,0.74644 -0.0484,1.13348 l -3.86962,0.36631 c -1.29909,0.1175 -2.56363,0.2419 -3.8489,0.36631 -0.23494,0.0207 -0.46988,0.0415 -0.70483,0.0691 -3.11643,0.29028 -6.23977,0.58056 -9.32856,0.88467 -0.20039,-0.0553 -0.50443,-0.44234 -0.60117,-0.56674 l -0.34551,-0.44234 c -1.27145,-1.6242 -2.57744,-3.29678 -4.1322,-4.76893 -3.24773,-3.06179 -7.18645,-4.85878 -11.24265,-5.32876 -0.23494,-0.0276 -0.46989,-0.0207 -0.71174,-0.0346 -3.91108,-0.31102 -7.90509,0.58056 -11.44995,2.80606 -4.44316,2.78533 -7.82908,6.78708 -10.33743,12.23334 -0.40769,0.88467 -0.84993,1.23024 -1.81734,1.43068 -0.68409,0.13823 -1.36128,0.3041 -2.04537,0.44924 -0.23495,0.0553 -0.46989,0.10367 -0.70483,0.15897 -1.18853,0.26263 -2.38397,0.51836 -3.57249,0.78791 -1.33364,0.3041 -2.66037,0.60821 -3.99401,0.89849 -0.26949,0.0622 -0.5528,0.10367 -0.84303,0.13823 -0.17966,-0.38013 -0.35932,-0.75335 -0.54589,-1.11966 -2.50835,-5.05921 -5.76298,-10.86486 -10.88333,-15.52321 -2.01082,-1.83845 -3.93181,-3.56633 -5.80444,-5.23891 -0.23494,-0.20734 -0.47679,-0.4216 -0.71173,-0.62894 -2.24577,-2.00433 -4.41552,-3.9119 -6.53,-5.74345 -0.78083,-0.67733 -0.81538,-0.85702 -0.65645,-1.59655 1.62386,-7.62338 4.04238,-15.03249 7.18645,-22.17206 0.23494,-0.52528 0.46988,-1.05055 0.71173,-1.57582 1.91409,-4.16763 4.07002,-8.24541 6.49545,-12.20569 3.15789,-5.15597 6.20522,-9.71756 9.32856,-13.9543 3.11644,-4.22292 6.43326,-8.44584 9.81918,-12.64803 0.23494,-0.29028 0.46988,-0.58056 0.70483,-0.87084 0.9674,-1.18878 1.90717,-2.39138 2.8884,-3.57324 4.11838,-4.94172 5.85281,-10.09078 5.30691,-15.73056 -0.19348,-1.96977 -0.49061,-3.93263 -0.77392,-5.83329 -0.16584,-1.07128 -0.32477,-2.14948 -0.46989,-3.22767 -0.64263,-4.79657 -1.30599,-9.75211 -0.83611,-14.71456 0.46297,-4.927892 2.32868,-8.438929 5.86663,-11.058384 3.918,-2.909737 8.43026,-4.879511 13.66807,-6.012996 0.22803,-0.04838 0.48371,-0.06912 0.71174,-0.117495 1.39583,-0.27646 2.80548,-0.539096 4.31187,-0.704972 6.27432,-0.670414 12.54864,-1.29936 18.82988,-1.928306 l 2.50834,-0.248813 0.70483,-0.07603 0.13129,-0.01382 c 2.07992,-0.207344 4.15985,-0.393954 6.35033,-0.594388 l 1.26454,-0.110584 c 0.0415,5.073034 0.0484,9.468741 0.007,13.670927 -0.31095,-0.276459 -0.62881,-0.546008 -0.9674,-0.808644 -2.15594,-1.672581 -4.42934,-3.027233 -6.78567,-4.12616 -0.23494,-0.103672 -0.46988,-0.200433 -0.70483,-0.304105 -5.94955,-2.591809 -12.47954,-3.393542 -19.54161,-2.301526 -2.25959,0.352486 -4.29114,1.002166 -6.10848,1.893748 -0.24876,0.117495 -0.46989,0.262637 -0.71174,0.387043 -4.4708,2.446668 -7.4974,6.545181 -8.81722,12.198775 -1.25763,5.40479 -1.08488,10.69899 0.51135,15.74438 1.50639,4.76201 4.35333,8.3007 8.30587,10.50546 0.24185,0.13823 0.46298,0.29029 0.71174,0.41469 1.42347,0.71189 2.99205,1.25789 4.68501,1.63111 4.90613,1.0782 10.02648,0.76718 15.19519,-0.93305 1.96246,-0.64277 3.86963,-1.47214 5.76989,-2.41211 0.23495,-0.11749 0.46989,-0.22117 0.70483,-0.34557 2.69492,-1.38921 5.35529,-3.05488 8.01565,-5.08686 l 0.007,12.64803 c 0.007,9.67608 0.0138,19.34526 -0.0138,29.02134 -0.0484,18.5228 -0.12438,37.04559 -0.20039,55.57529"
             style="fill:#001f59;fill-opacity:1;fill-rule:nonzero;stroke:none"
             inkscape:connector-curvature="0" /><path
             id="path4768"
             d="m 415.29398,397.11757 c -0.23494,0.53218 -0.46988,1.06437 -0.70482,1.58964 -2.21813,4.90025 -4.66429,9.70373 -7.39376,14.38972 1.56859,-8.07953 1.88645,-16.47008 0.93286,-25.03341 -1.6515,-14.81824 -7.33156,-28.78636 -16.88816,-41.51732 -0.73246,-0.98143 -1.53403,-1.89375 -2.30104,-2.84062 -0.24185,-0.29029 -0.46988,-0.58057 -0.71174,-0.87085 -5.05815,-6.05447 -10.71057,-11.44543 -16.19715,-16.36641 -3.20626,-2.86827 -6.34342,-5.51537 -9.44603,-7.98968 -0.24185,-0.18661 -0.4768,-0.38013 -0.71174,-0.56674 -6.64746,-5.25274 -13.12909,-9.64153 -19.58998,-13.26315 -1.81044,-1.00908 -3.85581,-2.1011 -6.06011,-3.15855 -0.23495,-0.11059 -0.46298,-0.22808 -0.70483,-0.33867 -4.07002,-1.90757 -8.70666,-3.67691 -13.72335,-4.67216 -0.46989,-0.0899 -0.93977,-0.18661 -1.19544,-0.25573 -0.0829,-0.26955 -0.19348,-0.78791 -0.28331,-1.21642 -0.98814,-4.71364 -1.62387,-9.63462 -1.93482,-15.04631 -0.4146,-7.25016 0.22112,-14.44502 1.90027,-21.38415 2.53598,-10.47091 7.37993,-20.43037 14.39362,-29.58809 0.2695,-0.3594 0.56663,-0.6635 0.84303,-1.00217 0.23494,-0.29028 0.46988,-0.56674 0.70483,-0.8432 3.35828,-3.95337 7.04824,-7.07045 11.29101,-9.37198 1.43729,-0.781 2.65346,-0.88467 4.18058,-0.36631 3.49649,1.18878 6.86859,2.62637 10.1785,4.18837 0.23494,0.11058 0.4768,0.22116 0.71174,0.33175 9.30783,4.46482 17.87629,10.36723 25.64318,17.67268 0.23495,0.22116 0.4768,0.42851 0.71174,0.64968 4.11839,3.93954 8.02947,8.2454 11.67798,12.97977 5.43821,7.04972 10.06103,14.77677 13.97212,23.31937 0.23494,0.51836 0.46988,1.05055 0.70482,1.57582 2.21813,5.02465 4.20822,10.31885 5.96337,15.94481 3.69688,11.88085 5.85972,22.98761 6.60601,33.94923 0.76701,11.23117 0.17275,22.51764 -1.76898,33.54146 -2.16284,12.29554 -5.80444,24.18331 -10.8004,35.55962"
             style="fill:#001f59;fill-opacity:1;fill-rule:nonzero;stroke:none"
             inkscape:connector-curvature="0" /><path
             id="path4766"
             d="m 151.02599,227.44057 c 0.23494,0.28337 0.47679,0.56674 0.71173,0.86393 0.63573,0.81556 1.27145,1.65185 1.89336,2.53652 8.71357,12.44068 13.4815,24.89518 14.56638,38.08231 0.71173,8.667 0.10365,17.34092 -1.87262,26.52629 -0.1313,0.58748 -0.19349,0.73953 -1.04342,0.91923 -2.13521,0.46307 -4.64355,1.04364 -7.05516,1.8661 -2.23195,0.76027 -4.38788,1.64494 -6.48854,2.59181 -0.23494,0.10368 -0.47679,0.20044 -0.71173,0.30411 -7.38684,3.40736 -13.89611,7.71322 -19.04409,11.35558 -2.21813,1.5689 -4.41552,3.22766 -6.60601,4.92789 -0.23494,0.1797 -0.46988,0.34557 -0.70482,0.52527 -7.51813,5.88859 -14.83587,12.53053 -21.82193,19.82215 -1.34055,1.39612 -2.59127,2.84063 -3.828168,4.28513 -0.228032,0.26955 -0.483704,0.52527 -0.704825,0.79482 -4.560632,5.46699 -8.374978,11.25882 -11.360119,17.28563 -8.368067,16.92624 -10.800404,34.71642 -7.25555,52.96275 -2.591267,-4.3888 -4.885403,-8.9642 -7.034428,-13.62946 -0.234942,-0.51145 -0.476793,-1.0229 -0.704825,-1.53435 -3.240812,-7.22942 -6.004831,-14.72147 -8.153856,-22.48999 -2.985141,-10.80957 -4.726473,-21.81957 -5.161806,-32.71899 -0.393872,-9.86961 0.373143,-19.99494 2.301046,-30.10645 2.494527,-13.118 6.129213,-24.81225 11.014616,-35.56652 0.234942,-0.52528 0.462973,-1.05055 0.704825,-1.56891 0.822296,-1.76243 1.679142,-3.49721 2.577448,-5.21126 6.170672,-11.78409 13.930656,-22.0753 23.072649,-30.68011 0.228031,-0.22116 0.469883,-0.42851 0.704825,-0.64277 0.912126,-0.8432 1.824248,-1.69331 2.764018,-2.50196 7.07589,-6.09593 14.74604,-11.08602 22.88608,-14.94264 0.23494,-0.11058 0.46988,-0.23499 0.70482,-0.33866 3.14407,-1.46523 6.35034,-2.76459 9.6257,-3.88426 1.54785,-0.52527 2.76402,-0.42851 4.20822,0.32484 4.37406,2.29462 8.26442,5.54302 11.81618,9.84197"
             style="fill:#001f59;fill-opacity:1;fill-rule:nonzero;stroke:none"
             inkscape:connector-curvature="0" /><path
             id="path4764"
             d="m 282.80751,232.49978 -6.49545,-0.8985 c 0.83612,-1.99051 2.50835,-3.44883 4.70575,-4.03631 0.57353,-0.15205 1.1747,-0.22808 1.7897,-0.27646 0.23494,-0.0207 0.46297,-0.0415 0.70482,-0.0415 0.99505,-0.0138 2.05229,0.0968 3.22008,0.33867 4.1253,0.87084 6.91696,2.96503 8.54082,6.40004 0.0345,0.076 0.0691,0.15896 0.10365,0.2419 l -11.86455,-1.63111 -0.70482,-0.0968 z"
             style="fill:#001f59;fill-opacity:1;fill-rule:nonzero;stroke:none"
             inkscape:connector-curvature="0" /><path
             id="path4762"
             d="m 201.14457,227.48203 c 0.93285,-0.14514 1.78279,-0.17969 2.59126,-0.15205 0.24876,0.007 0.4768,0.0553 0.71174,0.076 1.72751,0.1797 3.21317,0.73953 4.49153,1.81081 0.94668,0.79482 1.56167,1.56199 1.90026,2.4052 -2.04537,0.31101 -4.20131,0.62894 -6.39179,0.94687 -0.23494,0.0276 -0.46989,0.0622 -0.71174,0.0968 -3.91108,0.56674 -7.99492,1.12657 -12.15477,1.63111 0.1382,-0.31793 0.31786,-0.64277 0.53207,-1.00907 1.90718,-3.26223 4.86468,-5.16289 9.03144,-5.80566"
             style="fill:#001f59;fill-opacity:1;fill-rule:nonzero;stroke:none"
             inkscape:connector-curvature="0" /><path
             id="path4760"
             d="m 343.03548,209.36012 c -1.80352,1.48597 -3.55176,3.02723 -5.30691,4.56849 -0.49753,0.43543 -1.00196,0.87085 -1.50639,1.30627 -0.23495,0.20735 -0.46989,0.40778 -0.70483,0.61513 -0.46988,0.40778 -0.93977,0.82246 -1.41656,1.23024 -7.2901,6.20652 -12.54174,13.15257 -16.03131,21.21828 l -2.28032,-0.51145 c -1.98318,-0.44234 -3.95254,-0.87085 -5.92191,-1.29936 -0.23494,-0.0484 -0.46988,-0.10368 -0.70482,-0.15206 -0.80848,-0.1797 -1.62386,-0.36631 -2.43234,-0.53909 -0.8983,-0.18661 -1.29218,-0.49072 -1.61695,-1.24407 -1.61695,-3.71838 -3.99401,-7.01516 -7.26937,-10.07695 -4.00092,-3.74603 -9.19036,-5.48773 -14.33144,-5.14906 -0.23494,0.0138 -0.46988,0.0622 -0.70482,0.0898 -2.66037,0.27646 -5.2931,1.06437 -7.72544,2.49504 -3.08188,1.8039 -5.75607,4.36807 -7.94655,7.60955 -0.65645,0.9607 -1.00196,1.07128 -1.91408,0.9607 -2.6811,-0.31793 -5.38984,-0.58056 -8.06403,-0.83629 -0.23494,-0.0207 -0.46988,-0.0415 -0.70482,-0.0691 -0.60118,-0.0553 -1.20926,-0.11059 -1.80353,-0.16588 -1.68605,-0.15896 -3.37901,-0.31793 -5.06506,-0.4838 -0.38005,-0.0346 -0.76011,-0.0968 -1.15398,-0.15897 0.0484,-16.22818 -0.0346,-32.65679 -0.11747,-48.56013 -0.10365,-19.30379 -0.21421,-39.23652 -0.0691,-59.01721 2.79166,2.05963 5.5004,3.75985 8.20914,5.15598 0.23494,0.1244 0.46988,0.25572 0.70482,0.37322 0.91213,0.45615 1.83116,0.87776 2.74329,1.2648 6.28814,2.63328 12.54174,3.23458 18.60185,1.79007 1.57549,-0.37322 2.97823,-0.95378 4.30496,-1.63802 0.24876,-0.12441 0.46988,-0.28337 0.70482,-0.4216 2.68801,-1.54817 4.87159,-3.69765 6.39871,-6.56591 2.93677,-5.52228 3.6485,-11.77027 2.18357,-19.10336 -1.14016,-5.708893 -4.08384,-9.911078 -8.58228,-12.419949 -0.22803,-0.124407 -0.46988,-0.241902 -0.70482,-0.366309 -1.4442,-0.718795 -3.01278,-1.29936 -4.75412,-1.686404 -2.72946,-0.615122 -5.66623,-0.870847 -8.72739,-0.753352 -4.45007,0.158964 -8.50626,1.015989 -12.16859,2.515782 -0.24185,0.103673 -0.46988,0.207345 -0.70482,0.311017 -2.95059,1.29936 -5.64551,3.01341 -8.0433,5.190529 0.007,-0.269548 0.0138,-0.539096 0.0276,-0.815556 0.0207,-0.691149 0.0415,-1.361563 0.0207,-2.038889 -0.076,-2.405199 -0.0691,-4.540849 0,-6.510624 0.0276,-0.704971 0,-1.416855 -0.0345,-2.121827 -0.0345,-0.822467 -0.076,-1.617288 0.007,-2.336083 l 7.73234,0.774086 c 0.0967,0.01382 0.19349,0.02074 0.29023,0.03456 0.23494,0.02073 0.46988,0.04838 0.70482,0.06911 7.51122,0.746441 15.01553,1.492882 22.51985,2.301526 1.07105,0.117495 2.10756,0.283371 3.13025,0.469981 0.23494,0.04838 0.46988,0.09676 0.70482,0.152053 5.34838,1.098927 9.99193,3.262223 14.08959,6.579738 2.61891,2.121827 4.13912,4.575406 4.78175,7.740869 0.64955,3.220752 0.76011,6.690322 0.33168,10.920152 -0.39387,3.97411 -0.98122,8.30761 -1.78279,13.25624 -1.0987,6.71797 0.55972,12.73788 4.91305,17.89385 0.71864,0.85702 1.45111,1.70714 2.18357,2.55725 0.38005,0.42851 0.7532,0.87776 1.13325,1.32009 0.23494,0.27646 0.46988,0.55292 0.70482,0.82938 1.08488,1.27172 2.15594,2.56417 3.1579,3.87735 9.14199,12.02599 16.36299,22.43469 21.90485,34.13585 0.2073,0.44233 0.38696,0.89158 0.58735,1.33391 0.24185,0.5391 0.46988,1.0782 0.70483,1.61038 3.06115,6.95296 5.45893,14.15473 7.05515,21.46709 0.15203,0.70497 0.10365,0.73953 -0.24185,1.0229"
             style="fill:#001f59;fill-opacity:1;fill-rule:nonzero;stroke:none"
             inkscape:connector-curvature="0" /><path
             id="path4758"
             d="m 256.45259,98.962883 c 0.23494,-0.158964 0.46297,-0.338663 0.70482,-0.483804 3.47575,-2.121827 7.58723,-3.289869 12.40354,-3.511037 0.36623,0 0.73246,-0.01382 1.09869,-0.02073 0.74629,-0.02765 1.43729,-0.04838 2.07993,0.02765 5.05124,0.608211 8.22986,2.92356 9.72244,7.070458 0.15202,0.41469 0.22803,0.83629 0.3455,1.25098 0.38005,1.327 0.6219,2.65401 0.70482,3.98793 l 0,1.97668 c -0.0691,1.41686 -0.29022,2.84063 -0.70482,4.25057 -0.0622,0.20734 -0.0829,0.40778 -0.14511,0.61512 -1.16089,3.53868 -3.47576,5.79183 -7.07589,6.89767 -2.77093,0.85011 -5.80444,0.91232 -9.27329,0.19352 -3.32373,-0.69115 -6.33651,-1.96286 -9.15581,-3.86352 -0.24185,-0.16588 -0.46988,-0.3594 -0.70482,-0.52528 -2.52908,-1.83154 -4.90614,-4.17454 -7.19336,-7.11883 -0.88449,-1.1404 -0.84994,-1.65876 -0.29023,-2.61945 2.01083,-3.47648 4.51227,-6.15123 7.48359,-8.127919"
             style="fill:#001f59;fill-opacity:1;fill-rule:nonzero;stroke:none"
             inkscape:connector-curvature="0" /><path
             id="path4756"
             d="m 230.80249,116.69778 c -0.0207,0.0138 -0.0415,0.0276 -0.0622,0.0415 -0.21421,0.15206 -0.42842,0.25573 -0.64264,0.40087 -4.61591,3.07561 -9.12817,4.64452 -13.6888,4.64452 -1.16089,0 -2.32178,-0.10367 -3.48957,-0.29719 -4.0562,-0.67733 -7.17954,-3.23458 -8.47172,-6.82855 -0.18657,-0.50454 -0.33168,-1.02982 -0.44225,-1.57582 -0.1382,-0.69806 -0.18657,-1.38921 -0.26949,-2.08036 -0.18657,-1.6242 -0.2764,-3.23458 -0.15202,-4.72055 0.0345,-0.38013 0.10365,-0.72571 0.15202,-1.0851 0.15893,-1.09202 0.38697,-2.1011 0.71174,-3.0065 1.19544,-3.358987 3.54485,-5.529195 7.13117,-6.579741 1.2369,-0.359398 2.57053,-0.518362 3.98018,-0.691149 0.38006,-0.04838 0.7532,-0.08985 1.13325,-0.13823 0.17275,0.08985 0.35241,0.145141 0.53899,0.158964 l 0.3455,0.02765 c 0.33168,0.02765 0.64954,0.05529 0.97431,0.0622 4.11839,0.06911 7.92583,1.306271 11.54669,3.718381 0.23495,0.158964 0.46989,0.304106 0.70483,0.469981 1.3751,0.981434 2.71565,2.121834 4.04238,3.455744 0.97431,0.97452 1.73442,2.26697 2.53598,3.63545 0.3386,0.58056 0.67719,1.16113 1.03651,1.72787 0.18657,0.28337 0.29022,0.44925 -0.19348,1.10584 -2.52908,3.37972 -4.89231,5.778 -7.42139,7.55426"
             style="fill:#001f59;fill-opacity:1;fill-rule:nonzero;stroke:none"
             inkscape:connector-curvature="0" /><path
             id="path4754"
             d="m 257.1574,237.26184 c 5.37602,0.31793 10.84878,0.83629 16.38372,1.55509 3.15099,0.40086 6.21905,0.86393 9.26638,1.34774 0.23494,0.0346 0.47679,0.0622 0.70482,0.10367 8.89323,1.42377 17.36495,3.21384 25.6501,5.34258 0.23494,0.0553 0.46988,0.1175 0.70482,0.1797 1.34746,0.34558 2.71565,0.6635 4.04929,1.03672 l 0,0 c 0.24185,0.0622 0.4768,0.13823 0.71865,0.21426 -0.007,0.0207 -0.0138,0.0415 -0.0138,0.0553 -0.38697,1.72096 -0.78084,3.43501 -1.17471,5.15597 -0.89831,3.88426 -1.82425,7.90675 -2.612,11.89468 -0.40769,2.08036 -0.71864,4.13998 -0.96741,6.18578 -0.7601,6.27563 -0.73937,12.39921 0,18.29471 0.0622,0.49072 0.0829,0.99526 0.15203,1.47906 0.2764,1.8661 0.59426,3.7253 0.91212,5.60522 l 0.19348,1.15422 -1.25763,0.23499 -0.70482,0.13132 -2.08684,0.38704 c -4.11838,0.76718 -8.38188,1.55509 -12.57628,2.23932 l -1.77588,0.29029 c -3.03352,0.49762 -6.12231,0.99525 -9.2111,1.47906 -0.23494,0.0415 -0.46988,0.076 -0.70482,0.11749 -4.15294,0.64968 -8.32661,1.27172 -12.47955,1.81081 -4.69192,0.6013 -9.03143,1.07128 -13.17055,1.4445 -0.23494,0.0207 -0.46988,0.0415 -0.70482,0.0622 -2.56363,0.22808 -5.06507,0.4216 -7.46286,0.56674 -6.24668,0.3594 -12.48645,0.0346 -18.18724,-0.48381 -0.24185,-0.0276 -0.46297,-0.0484 -0.70483,-0.076 -1.64459,-0.15206 -3.26845,-0.31793 -4.80248,-0.49072 -6.59909,-0.74644 -13.4124,-1.67258 -20.84761,-2.83371 -0.23494,-0.0346 -0.4768,-0.0691 -0.71174,-0.11058 -6.6751,-1.05055 -13.86155,-2.28771 -21.91867,-3.77368 -1.2369,-0.22808 -2.4738,-0.49071 -3.73142,-0.74644 -0.23495,-0.0484 -0.46298,-0.0899 -0.70483,-0.13823 l -0.0484,-0.007 -0.87066,-0.1797 c 0,-0.37322 0,-0.7257 0.0207,-1.07128 0.15893,-2.55725 0.32477,-5.1145 0.49061,-7.67175 l 0.37314,-5.7711 c 0.0276,-0.47689 0.0138,-0.91922 0.0345,-1.39612 0.15893,-3.15855 0.1382,-6.20651 0,-9.17845 -0.29022,-6.14432 -1.14016,-11.94997 -2.71565,-17.49299 -0.51134,-1.78316 -1.00195,-3.58015 -1.50639,-5.42551 l -0.31095,-1.15422 c 1.48566,-0.42852 3.01969,-0.82247 4.53299,-1.23025 0.23494,-0.0691 0.46988,-0.13132 0.70483,-0.19352 8.2575,-2.20477 16.84669,-4.07778 25.65009,-5.58448 0.24185,-0.0346 0.46989,-0.0829 0.71174,-0.12441 0.73937,-0.12441 1.46493,-0.26955 2.2043,-0.38704 8.17459,-1.31319 15.91384,-2.18403 23.44579,-2.69548 0.23495,-0.0138 0.46989,-0.0346 0.70483,-0.0484 3.60704,-0.23499 7.18645,-0.40777 10.71748,-0.46307 4.86468,-0.076 9.86064,0.0415 14.93262,0.33176 0.23494,0.007 0.46988,0.0138 0.70482,0.0276"
             style="fill:#001f59;fill-opacity:1;fill-rule:nonzero;stroke:none"
             inkscape:connector-curvature="0" /></g><g
           id="g4839"><g
             id="g4812"><path
               style="fill:#001f59;fill-opacity:1;fill-rule:nonzero;stroke:none"
               d="m 461.43555,69.476562 c -0.86375,0 -1.5625,0.6994 -1.5625,1.554688 l 0,76.08789 c 0,0.8553 0.69875,1.55469 1.5625,1.55469 l 29.84375,0 c 10.90923,0 19.92605,-2.25462 26.95703,-6.63477 0.29367,-0.19007 0.58718,-0.37942 0.88086,-0.57812 1.51157,-1.01081 2.96362,-2.08376 4.28515,-3.31055 7.55788,-7.00652 11.38282,-16.74263 11.38282,-28.94141 0,-11.628583 -3.76505,-21.260655 -11.19336,-28.638668 -1.382,-1.373662 -2.90257,-2.574153 -4.47461,-3.697265 -0.29368,-0.20735 -0.58719,-0.424334 -0.88086,-0.623047 -6.72866,-4.483825 -15.07259,-6.773438 -24.94531,-6.773438 l -31.85547,0 z m 19.55468,17.054688 9.97657,0 c 7.1778,0 12.72313,2.011925 16.48047,5.96875 3.78325,3.98275 5.70117,9.57303 5.70117,16.60547 0,6.79054 -1.90056,12.30337 -5.64063,16.39844 -3.70551,4.0605 -9.1974,6.11523 -16.33203,6.11523 l -10.18555,0 0,-45.08789 z"
               transform="matrix(0.8,0,0,-0.8,0,560.00002)"
               id="path4788"
               inkscape:connector-curvature="0" /><path
               style="fill:#001f59;fill-opacity:1;fill-rule:nonzero;stroke:none"
               d="m 392.49023,69.476562 c -0.86375,0 -1.5625,0.6994 -1.5625,1.554688 l 0,76.08789 c 0,0.8553 0.69875,1.55469 1.5625,1.55469 l 18.00196,0 c 0.85512,0 1.55467,-0.69939 1.55469,-1.55469 l 0,-29.32226 3.60937,0 c 1.30428,0 2.53097,0.39847 3.74023,1.13281 0.29368,0.18142 0.58718,0.37109 0.88086,0.5957 0.33687,0.25919 0.67373,0.51823 1.00196,0.83789 1.92617,1.83155 4.32816,6.21952 7.16992,13.02734 2.9195,7.03244 5.01002,11.88047 6.19336,14.39454 0.2505,0.54427 0.80358,0.88867 1.4082,0.88867 l 19.75391,0 c 0.52689,0 1.01769,-0.26839 1.30273,-0.70899 0.28504,-0.44925 0.32926,-1.00921 0.11328,-1.48437 -1.30427,-2.90283 -2.64278,-5.92799 -3.99023,-8.98633 -0.14684,-0.31965 -0.27698,-0.62174 -0.42383,-0.94141 -0.15547,-0.35421 -0.31132,-0.69852 -0.4668,-1.05273 -1.4943,-3.42982 -3.02336,-6.92894 -4.57812,-10.54883 -2.75539,-6.42769 -5.62147,-10.81655 -8.70508,-13.30469 7.23828,-4.30241 10.9082,-10.59219 10.9082,-18.730464 0,-6.470888 -2.37477,-12.052519 -7.03906,-16.605469 -4.66429,-4.535663 -10.77114,-6.833984 -18.15625,-6.833985 l -32.2793,0 z m 19.55665,17.054688 7.54882,0 c 0.25049,0 0.43978,0.03422 0.68164,0.04297 7.06552,0.2419 8.05079,3.835209 8.05078,7.005859 0,2.332625 -0.69198,4.060844 -2.11718,5.261719 -1.4252,1.209512 -3.42871,1.831802 -5.9336,1.875002 -0.095,0 -0.17256,0.0176 -0.26757,0.0176 l -7.96289,0 0,-14.203129 z"
               transform="matrix(0.8,0,0,-0.8,0,560.00002)"
               id="path4784"
               inkscape:connector-curvature="0" /><path
               style="fill:#001f59;fill-opacity:1;fill-rule:nonzero;stroke:none"
               d="m 340.76953,68.492188 c -7.19509,0 -13.63011,1.356581 -19.32226,3.957031 -0.29368,0.129587 -0.59583,0.258247 -0.88086,0.396484 -4.03375,1.961125 -7.67942,4.545163 -10.89258,7.828125 -5.39848,5.511913 -8.92288,11.749119 -10.65039,18.574219 -0.8033,3.162003 -1.24414,6.436233 -1.24414,9.857423 0,3.36071 0.4243,6.57424 1.17578,9.67578 1.71024,7.01516 5.29505,13.34859 10.81445,18.86914 3.19589,3.2052 6.81495,5.74417 10.79688,7.66211 0.28503,0.14688 0.58718,0.26885 0.88086,0.39844 5.70942,2.59181 12.14445,3.93945 19.32226,3.93945 4.53471,0 8.7756,-0.54477 12.74024,-1.60742 0.29367,-0.0864 0.58718,-0.17143 0.88085,-0.25781 6.58183,-1.91794 12.35107,-5.3149 17.22266,-10.1875 7.98974,-8.00005 12.04102,-17.58932 12.04102,-28.49219 0,-10.764651 -3.98974,-20.311164 -11.86719,-28.406251 -4.85431,-4.976275 -10.6851,-8.439788 -17.39649,-10.375 l -0.88085,-0.234375 c -3.956,-1.045363 -8.19689,-1.597656 -12.74024,-1.597656 z m 0,18.96289 c 5.08753,0 9.26794,1.261256 12.74024,3.714844 0.31095,0.224612 0.58718,0.492475 0.88085,0.734375 0.59601,0.475162 1.21674,0.899387 1.76954,1.460937 3.85235,3.930913 5.81445,9.217506 5.81445,15.740236 0,6.47952 -1.9621,11.76748 -5.81445,15.70703 -0.5528,0.56155 -1.17353,0.98495 -1.76954,1.46875 -0.29367,0.2419 -0.5699,0.50975 -0.88085,0.73437 -3.46367,2.47086 -7.64408,3.73243 -12.74024,3.73243 -6.48681,0 -11.54925,-1.94418 -15.4707,-5.93555 -1.67569,-1.70196 -2.90143,-3.66409 -3.85156,-5.80664 -0.3455,-0.76891 -0.63038,-1.58078 -0.88086,-2.41016 -0.68238,-2.27215 -1.10547,-4.73428 -1.10547,-7.49023 0,-2.7214 0.42309,-5.16647 1.10547,-7.44727 0.25048,-0.84665 0.53536,-1.659122 0.88086,-2.445309 0.95877,-2.177113 2.19315,-4.162982 3.85156,-5.847657 3.92145,-3.9741 8.98389,-5.910156 15.4707,-5.910156 z"
               transform="matrix(0.8,0,0,-0.8,0,560.00002)"
               id="path4780"
               inkscape:connector-curvature="0" /><path
               style="fill:#001f59;fill-opacity:1;fill-rule:nonzero;stroke:none"
               d="m 192.88012,441.06078 14.40054,0 c 0.691,0 1.24381,0.55983 1.24381,1.24407 l 0,23.72023 24.16443,0 c 0.16584,0 0.31786,0.0346 0.45607,0.0899 0.46297,0.18661 0.79465,0.62894 0.79465,1.15422 l 0,11.15514 c 0,0.51145 -0.31095,0.94688 -0.74628,1.1404 -0.15894,0.0691 -0.32478,0.11058 -0.50444,0.11058 l -24.16443,0 0,11.09985 24.16443,0 c 0.69101,0 1.25072,0.55292 1.25072,1.24407 l 0,11.15515 c 0,0.68423 -0.55971,1.24407 -1.25072,1.24407 l -39.80878,0 c -0.15893,0 -0.30404,-0.0346 -0.44224,-0.0899 -0.46989,-0.1797 -0.80157,-0.62204 -0.80157,-1.15422 l 0,-60.86949 c 0,-0.68424 0.5528,-1.24407 1.24381,-1.24407"
               id="path4778"
               inkscape:connector-curvature="0" /><path
               style="fill:#001f59;fill-opacity:1;fill-rule:nonzero;stroke:none"
               d="m 124.67104,496.94708 0.70482,-0.89158 17.55843,-22.22044 -17.55843,-22.55219 -0.70482,-0.91231 -5.68006,-7.29854 c -0.29713,-0.37322 -0.3455,-0.88467 -0.1382,-1.31318 0.2073,-0.42851 0.64263,-0.69806 1.11943,-0.69806 l 18.40145,0 c 0.39388,0 0.76011,0.1797 0.99505,0.49071 l 11.65725,15.21911 0.71173,0.92613 2.04538,2.67475 14.67694,-18.83381 c 0.24185,-0.29719 0.60117,-0.47689 0.98814,-0.47689 l 18.68477,0 c 0.47679,0 0.91212,0.27646 1.11942,0.70497 0.2073,0.42851 0.15202,0.93996 -0.14511,1.3201 l -3.12334,3.91881 -7.89818,9.9249 -0.70483,0.89158 -12.76286,16.04157 12.76286,16.55302 0.70483,0.91231 7.89818,10.24283 0.64955,0.8432 c 0.29022,0.37322 0.33859,0.88467 0.13129,1.30627 -0.1382,0.28338 -0.38697,0.45616 -0.67028,0.57366 -0.14511,0.0553 -0.28331,0.12441 -0.44915,0.12441 l -18.29781,0 c -0.38696,0 -0.7601,-0.1797 -0.99504,-0.49763 l -12.56938,-16.65669 -2.04538,2.67474 -0.71173,0.91923 -10.01266,13.07654 c -0.23494,0.30411 -0.60117,0.48381 -0.98814,0.48381 l -18.68476,0 c -0.4768,0 -0.91213,-0.26955 -1.12634,-0.70498 -0.2073,-0.42851 -0.15202,-0.93996 0.14511,-1.31318 l 4.31187,-5.45317 z"
               id="path4776"
               inkscape:connector-curvature="0" /><path
               style="fill:#001f59;fill-opacity:1;fill-rule:nonzero;stroke:none"
               d="m 114.38672,68.492188 c -9.03489,0 -16.903768,2.108074 -23.554689,6.203124 -0.293677,0.181438 -0.595819,0.327516 -0.880859,0.517579 -2.383966,1.555087 -4.613054,3.370212 -6.660156,5.460937 -7.894729,8.069163 -11.892578,17.632441 -11.892578,28.431642 0,10.98062 4.033088,20.58807 11.988281,28.54492 2.029826,2.03025 4.215037,3.80061 6.564453,5.3125 0.28504,0.19006 0.587182,0.33809 0.880859,0.51953 6.676834,4.07778 14.545709,6.16797 23.554689,6.16797 2.95404,0 5.78698,-0.24133 8.50781,-0.69922 0.29368,-0.0433 0.58718,-0.0957 0.88086,-0.15625 8.3698,-1.56372 15.56622,-5.29658 21.45703,-11.19726 5.27755,-5.28729 8.80022,-11.2734 10.60547,-17.86524 0.37141,-1.3391 0.65824,-2.7137 0.88281,-4.11328 0.33687,-2.11664 0.55274,-4.28472 0.55274,-6.51367 0,-2.22031 -0.21587,-4.37946 -0.55274,-6.49609 -0.22457,-1.39094 -0.5114,-2.764421 -0.88281,-4.103521 -1.78797,-6.514075 -5.25106,-12.48479 -10.43359,-17.80664 -5.84763,-6.004363 -13.10364,-9.796778 -21.62891,-11.369141 -0.29368,-0.05187 -0.58718,-0.09461 -0.88086,-0.146484 -2.71219,-0.4406 -5.54513,-0.691406 -8.50781,-0.691406 z m 0,18.96289 c 3.16998,0 5.98564,0.484094 8.50781,1.425781 0.31095,0.121 0.57855,0.294241 0.88086,0.423829 2.23712,0.967612 4.25048,2.280846 6.00391,4.060546 3.85236,3.930913 5.8125,9.217506 5.8125,15.740236 0,6.47952 -1.95932,11.76748 -5.82032,15.70703 -1.74478,1.78834 -3.7676,3.11051 -5.99609,4.07812 -0.30231,0.13823 -0.56991,0.30957 -0.88086,0.42188 -2.52217,0.95034 -5.33783,1.43555 -8.50781,1.43555 -6.48681,0 -11.5473,-1.94417 -15.468751,-5.93555 -3.921453,-4.00002 -5.839844,-9.14112 -5.839844,-15.70703 0,-6.52273 1.970216,-11.809323 5.839844,-15.740236 3.921451,-3.9741 8.981941,-5.910156 15.468751,-5.910156 z"
               transform="matrix(0.8,0,0,-0.8,0,560.00002)"
               id="path4772"
               inkscape:connector-curvature="0" /></g><g
             id="g4820"><path
               style="fill:#001f59;fill-opacity:1;fill-rule:nonzero;stroke:none"
               d="m 305.26516,383.77151 0,6.81473 c 0,0.69115 -0.5528,1.24407 -1.24381,1.24407 l -16.00367,0 0,6.45533 14.86352,0 c 0.691,0 1.25071,0.55983 1.25071,1.24407 l 0,6.81473 c 0,0.69115 -0.55971,1.25098 -1.25071,1.25098 l -14.86352,0 0,5.30802 15.65126,0 c 0.6841,0 1.24381,0.55983 1.24381,1.24407 l 0,6.81473 c 0,0.69115 -0.55971,1.25098 -1.24381,1.25098 l -25.69847,0 c -0.68409,0 -1.2438,-0.55983 -1.2438,-1.25098 l 0,-37.19073 c 0,-0.69115 0.55971,-1.25098 1.2438,-1.25098 l 26.05088,0 c 0.69101,0 1.24381,0.55983 1.24381,1.25098"
               id="path4800"
               inkscape:connector-curvature="0" /><path
               style="fill:#001f59;fill-opacity:1;fill-rule:nonzero;stroke:none"
               d="m 239.41241,412.90344 11.5536,0 0,-29.13193 c 0,-0.69115 0.5528,-1.25098 1.24381,-1.25098 l 8.8034,0 c 0.68409,0 1.24381,0.55983 1.24381,1.25098 l 0,29.13193 11.54669,0 c 0.691,0 1.25071,0.55983 1.25071,1.24407 l 0,6.81473 c 0,0.69115 -0.55971,1.25098 -1.25071,1.25098 l -34.39131,0 c -0.6841,0 -1.24381,-0.55983 -1.24381,-1.25098 l 0,-6.81473 c 0,-0.68424 0.55971,-1.24407 1.24381,-1.24407"
               id="path4798"
               inkscape:connector-curvature="0" /><path
               style="fill:#001f59;fill-opacity:1;fill-rule:nonzero;stroke:none"
               d="m 226.09675,422.17866 c -0.60809,-0.0899 -1.07106,-0.58748 -1.07106,-1.21642 l 0,-37.19073 c 0,-0.62894 0.46297,-1.12657 1.07106,-1.21642 0.0553,-0.007 0.11056,-0.0346 0.17275,-0.0346 l 8.79649,0 c 0.691,0 1.25072,0.55983 1.25072,1.25098 l 0,37.19073 c 0,0.69115 -0.55972,1.25098 -1.25072,1.25098 l -8.79649,0 c -0.0622,0 -0.11747,-0.0276 -0.17275,-0.0346"
               id="path4796"
               inkscape:connector-curvature="0" /><path
               style="fill:#001f59;fill-opacity:1;fill-rule:nonzero;stroke:none"
               d="m 210.92228,382.97661 c 0.23494,-0.29028 0.58736,-0.45616 0.9605,-0.45616 l 7.43521,0 c 0.0622,0 0.11747,0.0276 0.17275,0.0346 0.60118,0.0898 1.07106,0.58748 1.07106,1.21642 l 0,37.19073 c 0,0.62894 -0.46988,1.12657 -1.07106,1.21642 -0.0553,0.007 -0.11056,0.0346 -0.17275,0.0346 l -8.8034,0 c -0.6841,0 -1.24381,-0.55983 -1.24381,-1.25098 l 0,-19.28306 -4.82321,5.81948 -0.71174,0.85011 -11.12517,13.4152 c -0.23495,0.28337 -0.58736,0.44925 -0.9605,0.44925 l -8.06403,0 c -0.691,0 -1.25071,-0.55983 -1.25071,-1.25098 l 0,-37.19073 c 0,-0.69115 0.55971,-1.25098 1.25071,-1.25098 l 8.79649,0 c 0.69101,0 1.25072,0.55983 1.25072,1.25098 l 0,20.3336 10.10249,-12.35083 0.71174,-0.86393 6.47471,-7.91366 z"
               id="path4794"
               inkscape:connector-curvature="0" /><path
               style="fill:#001f59;fill-opacity:1;fill-rule:nonzero;stroke:none"
               d="m 178.43815,399.85447 0,21.10769 c 0,0.33866 -0.1382,0.63585 -0.35241,0.86393 -0.17967,0.18661 -0.42843,0.30411 -0.70483,0.34558 -0.0622,0.0138 -0.12438,0.0415 -0.18657,0.0415 l -8.8034,0 c -0.69101,0 -1.24381,-0.55983 -1.24381,-1.25098 l 0,-20.74138 c 0,-2.61946 -0.67718,-4.55468 -2.07301,-5.92315 -1.39583,-1.36848 -3.24082,-2.03889 -5.6386,-2.03889 -2.29414,0 -4.08384,0.64968 -5.46585,1.99051 -1.36819,1.32701 -2.03846,3.07561 -2.03846,5.33567 l 0,21.37724 c 0,0.2419 -0.0829,0.44924 -0.19349,0.64277 -0.16584,0.25572 -0.40769,0.44924 -0.71173,0.53909 -0.11056,0.0276 -0.21421,0.0691 -0.33859,0.0691 l -8.82413,0 c -0.69101,0 -1.24381,-0.55983 -1.24381,-1.25098 l 0,-21.16298 c 0,-5.66743 1.69296,-10.09769 5.03742,-13.16639 1.50639,-1.3823 3.32374,-2.4052 5.36911,-3.16546 0.24185,-0.0899 0.45606,-0.21426 0.71173,-0.2972 2.29414,-0.74644 4.89232,-1.12657 7.80145,-1.12657 5.96337,0 10.64838,1.52744 13.91683,4.53394 1.38892,1.27862 2.41852,2.86135 3.227,4.62378 0.25567,0.55983 0.50443,1.12658 0.69791,1.73479 0.28331,0.86393 0.5459,1.74169 0.70483,2.69548 0.22803,1.32009 0.35241,2.72312 0.35241,4.22292"
               id="path4792"
               inkscape:connector-curvature="0" /><path
               style="fill:#001f59;fill-opacity:1;fill-rule:nonzero;stroke:none"
               d="m 386.75586,172.23438 c -0.10363,0 -0.19909,0.0433 -0.30274,0.0605 -0.70827,0.14688 -1.25195,0.74169 -1.25195,1.50196 l 0,46.48828 c 0,0.76026 0.54368,1.35703 1.25195,1.5039 0.10363,0.0172 0.19909,0.0606 0.30274,0.0606 l 18.24219,0 c 5.60577,0 10.41652,-0.96706 14.39843,-2.8418 0.30232,-0.14687 0.59581,-0.2937 0.88086,-0.44922 1.75343,-0.91577 3.36048,-2.00487 4.75977,-3.30078 4.75066,-4.39743 7.15234,-10.50621 7.15234,-18.13476 0,-7.27435 -2.35915,-13.30372 -7.02343,-17.92578 -1.45112,-1.44277 -3.1007,-2.6432 -4.88868,-3.63672 -0.29368,-0.16415 -0.57854,-0.34727 -0.88086,-0.49414 -3.74006,-1.87474 -8.13617,-2.83203 -13.17187,-2.83203 l -19.46875,0 z m 12.55859,11.63671 5.49414,0 c 4.26695,0 7.41965,1.13222 9.63086,3.46485 2.20259,2.31535 3.31641,5.58913 3.31641,9.71875 0,4.05186 -1.07115,7.19621 -3.29102,9.61523 -2.17666,2.38446 -5.29412,3.54297 -9.53515,3.54297 l -5.61524,0 0,-26.3418 z"
               transform="matrix(0.8,0,0,-0.8,0,560.00002)"
               id="path4802"
               inkscape:connector-curvature="0" /></g></g></g></g></g></svg>