<svg xmlns="http://www.w3.org/2000/svg" viewBox="0 0 64 64" role="img" aria-labelledby="converterIconTitle converterIconDesc">
  <title id="converterIconTitle">Converter web app icon</title>
  <desc id="converterIconDesc">A conversion dashboard card with transfer arrows on a feeds-style blue gradient background.</desc>
  <defs>
    <linearGradient id="converterBg" x1="0" y1="0" x2="1" y2="1">
      <stop offset="0%" stop-color="#1f3f63" />
      <stop offset="100%" stop-color="#2f6f9f" />
    </linearGradient>
  </defs>

  <rect x="4" y="4" width="56" height="56" rx="12" fill="url(#converterBg)" />

  <rect x="14" y="15" width="36" height="34" rx="7" fill="#f4f9ff" stroke="#d6e6f6" stroke-width="1.5" />
  <rect x="18" y="20" width="18" height="3.4" rx="1.7" fill="#d5e6f7" />
  <rect x="18" y="25.5" width="11.5" height="2.8" rx="1.4" fill="#dbe9f8" />
  <rect x="18" y="30.3" width="8.5" height="2.8" rx="1.4" fill="#dbe9f8" />

  <circle cx="40.5" cy="27.8" r="6.6" fill="#e3effb" />
  <circle cx="40.5" cy="27.8" r="3.6" fill="#9ec5ea" />
  <path d="M32.5 37.5h10l-2.25-2.25a1.5 1.5 0 0 1 2.125-2.125l4.75 4.75a1.5 1.5 0 0 1 0 2.125l-4.75 4.75a1.5 1.5 0 0 1-2.125-2.125l2.25-2.25h-10a1.5 1.5 0 0 1 0-2.875z" fill="#18a96f" />
  <path d="M31.5 42.625h-10l2.25 2.25a1.5 1.5 0 0 1-2.125 2.125l-4.75-4.75a1.5 1.5 0 0 1 0-2.125l4.75-4.75a1.5 1.5 0 0 1 2.125 2.125l-2.25 2.25h10a1.5 1.5 0 0 1 0 2.875z" fill="#4fb1ff" />
</svg>
