<svg xmlns="http://www.w3.org/2000/svg" viewBox="0 0 512 512" role="img" aria-label="Converter maskable icon">
  <defs>
    <linearGradient id="bgSafe" x1="0" y1="0" x2="1" y2="1">
      <stop offset="0" stop-color="#e4f4fb"/>
      <stop offset="1" stop-color="#9fd7ee"/>
    </linearGradient>
    <linearGradient id="arrow" x1="0" y1="0" x2="0" y2="1">
      <stop offset="0" stop-color="#169cdd"/>
      <stop offset="1" stop-color="#0a5f91"/>
    </linearGradient>
  </defs>

  <rect width="512" height="512" fill="url(#bgSafe)"/>

  <rect x="116" y="116" width="280" height="280" rx="52" fill="#ffffff" fill-opacity="0.96" stroke="#76b7d8" stroke-width="10"/>
  <rect x="146" y="158" width="220" height="36" rx="15" fill="#e4f2fb"/>
  <rect x="146" y="214" width="150" height="24" rx="10" fill="#d6eaf7"/>
  <rect x="146" y="252" width="112" height="24" rx="10" fill="#d6eaf7"/>

  <path d="M258 320h70l-15-15a10 10 0 0 1 14-14l32 32a10 10 0 0 1 0 14l-32 32a10 10 0 0 1-14-14l15-15h-70a10 10 0 0 1 0-20z" fill="url(#arrow)"/>
  <path d="M248 333h-70l15 15a10 10 0 0 1-14 14l-32-32a10 10 0 0 1 0-14l32-32a10 10 0 0 1 14 14l-15 15h70a10 10 0 0 1 0 20z" fill="#20af71"/>
</svg>
