<svg xmlns="http://www.w3.org/2000/svg" viewBox="0 0 64 64" role="img" aria-labelledby="footballWebAppTitle footballWebAppDesc">
  <title id="footballWebAppTitle">Football web app icon</title>
  <desc id="footballWebAppDesc">An accurate football on the feeds-style app icon background.</desc>
  <defs>
    <linearGradient id="footballFeedBg" x1="0" y1="0" x2="1" y2="1">
      <stop offset="0%" stop-color="#1f3f63" />
      <stop offset="100%" stop-color="#2f6f9f" />
    </linearGradient>
    <filter id="footballShadow" x="-20%" y="-20%" width="140%" height="140%">
      <feDropShadow dx="0" dy="1.5" stdDeviation="1.2" flood-color="#12263d" flood-opacity="0.28" />
    </filter>
  </defs>

  <rect x="4" y="4" width="56" height="56" rx="12" fill="url(#footballFeedBg)" />

  <g transform="translate(11.25 11.25) scale(0.0405)" filter="url(#footballShadow)">
    <path d="M981.923 627.793c-63.948 259.529-326.183 418.078-585.715 354.13-259.531-63.95-418.08-326.185-354.131-585.715 63.947-259.526 326.183-418.08 585.715-354.13 259.53 63.948 418.08 326.184 354.131 585.715z" fill="#F7FBFF" />
    <path d="M512.376 1007.091c-39.814 0-79.784-4.874-118.8-14.487-64.876-15.986-124.687-44.204-177.769-83.869-51.266-38.31-94.124-85.626-127.384-140.635-33.259-55.01-55.246-114.944-65.351-178.141-10.463-65.434-7.662-131.507 8.323-196.383 13.599-55.189 36.213-107.02 67.213-154.051 29.962-45.454 67.085-85.461 110.338-118.908 42.842-33.128 90.483-58.896 141.602-76.584 52.013-17.998 106.206-27.124 161.074-27.124 39.814 0 79.785 4.875 118.801 14.488 64.876 15.985 124.686 44.203 177.768 83.868 51.267 38.31 94.125 85.625 127.384 140.635 33.26 55.01 55.247 114.944 65.352 178.141 10.463 65.435 7.662 131.507-8.323 196.384-13.599 55.19-36.213 107.021-67.214 154.052-29.961 45.454-67.084 85.461-110.338 118.908-42.841 33.128-90.482 58.895-141.602 76.583-52.012 17.998-106.205 27.123-161.074 27.123z m-0.753-968.182c-217.955 0-406.647 148.009-458.865 359.931-62.397 253.227 92.855 510.006 346.082 572.402 37.295 9.189 75.494 13.849 113.536 13.849 217.956 0 406.648-148.008 458.866-359.93 30.226-122.668 10.873-249.765-54.493-357.878S747.828 82.984 625.16 52.759c-37.295-9.19-75.494-13.85-113.537-13.85z" fill="#1F3F63" />
    <path d="M622.231 52.179L470.959 669.98" fill="#F7FBFF" />
    <path d="M611.546 49.544l21.369 5.232L481.66 672.573l-21.368-5.231z" fill="#1F3F63" />
    <path d="M494.707 520.326L157.346 834.6" fill="#F7FBFF" />
    <path d="M487.198 512.265l14.996 16.097-337.36 314.261-14.996-16.097z" fill="#1F3F63" />
    <path d="M993.933 529.805l-642.987-34.516" fill="#F7FBFF" />
    <path d="M351.55 484.323l643.01 34.514-1.178 21.969-643.011-34.514z" fill="#1F3F63" />
    <path d="M657.187 966.48L470.528 376.978" fill="#F7FBFF" />
    <path d="M480.991 373.692l186.68 589.534-20.976 6.642-186.68-589.534z" fill="#1F3F63" />
    <path d="M95.038 312.351l564.681 260.401" fill="#F7FBFF" />
    <path d="M99.63 302.366l564.684 260.422-9.214 19.979L90.416 322.344z" fill="#1F3F63" />
    <path d="M238.205 379.058l-27.52-234.628-10.952-2.192c-75.461 63.62-132.234 150.806-157.656 253.971a487.353 487.353 0 0 0-12.682 78.843l208.81-95.994z" fill="#1F3F63" />
    <path d="M284.414 720.392l-227.23-42.826c44.05 120.67 135.386 222.028 257.26 276.344l-30.03-233.518z" fill="#1F3F63" />
    <path d="M457.012 986.461l4.485 6.899c132.283 14.046 260.852-27.452 358.807-108.265l-214.718-82.299-148.574 183.665z" fill="#1F3F63" />
    <path d="M823.144 527.843l122.242 199.752c15.49-31.211 27.854-64.567 36.537-99.802 23.016-93.402 17.207-187.152-11.749-271.887l-147.03 171.937z" fill="#1F3F63" />
    <path d="M430.036 34.925l152.307 177.988 217.312-90.26C749.731 85.738 691.843 57.86 627.792 42.078 560.9 25.597 493.841 23.932 430.036 34.925z" fill="#1F3F63" />
    <path d="M580.695 714.002L705.33 513.318 552.982 332.771l-218.788 89.1 17.126 235.612z" fill="#1F3F63" />
  </g>
</svg>
